G75*
%MOIN*%
%OFA0B0*%
%FSLAX25Y25*%
%IPPOS*%
%LPD*%
%AMOC8*
5,1,8,0,0,1.08239X$1,22.5*
%
%ADD10C,0.00000*%
%ADD11C,0.06000*%
%ADD12R,0.12014X0.04337*%
%ADD13C,0.16211*%
D10*
X0001000Y0006275D02*
X0001000Y0199189D01*
X0390764Y0199189D01*
X0390764Y0006275D01*
X0001000Y0006275D01*
D11*
X0093608Y0077947D03*
X0093608Y0087947D03*
X0093608Y0097947D03*
X0093608Y0107947D03*
X0093608Y0117947D03*
X0093608Y0127947D03*
X0153608Y0127947D03*
X0169608Y0127947D03*
X0169608Y0117947D03*
X0153608Y0117947D03*
X0153608Y0107947D03*
X0169608Y0107947D03*
X0169608Y0097947D03*
X0153608Y0097947D03*
X0153608Y0087947D03*
X0169608Y0087947D03*
X0169608Y0077947D03*
X0153608Y0077947D03*
X0229608Y0077947D03*
X0245608Y0077947D03*
X0245608Y0087947D03*
X0229608Y0087947D03*
X0229608Y0097947D03*
X0245608Y0097947D03*
X0245608Y0107947D03*
X0229608Y0107947D03*
X0229608Y0117947D03*
X0245608Y0117947D03*
X0245608Y0127947D03*
X0229608Y0127947D03*
X0305608Y0127947D03*
X0321669Y0127761D03*
X0321669Y0117761D03*
X0305608Y0117947D03*
X0305608Y0107947D03*
X0321669Y0107761D03*
X0321669Y0097761D03*
X0305608Y0097947D03*
X0305608Y0087947D03*
X0321669Y0087761D03*
X0321669Y0077761D03*
X0305608Y0077947D03*
X0381669Y0077761D03*
X0381669Y0087761D03*
X0381669Y0097761D03*
X0381669Y0107761D03*
X0381669Y0117761D03*
X0381669Y0127761D03*
D12*
X0079583Y0140063D03*
X0060686Y0140063D03*
D13*
X0014780Y0185409D03*
X0014780Y0020055D03*
X0376984Y0020055D03*
X0376984Y0185409D03*
M02*
