%
M48
M72
T01C0.0236
T02C0.0276
T03C0.0315
T04C0.1181
%
T01
X4797Y18408
X5357Y18811
X6297Y17955
X7277Y18811
X10053Y17031
X12147Y17955
X13147Y18408
X10647Y18811
X12653Y16531
X14753Y16431
X14753Y15231
X17703Y14681
X20053Y16581
X22203Y16381
X22203Y15231
X25303Y14531
X27803Y16531
X29903Y16431
X29903Y15181
X33103Y14531
X35503Y16531
X36453Y16631
X37503Y16631
X34953Y17981
X35960Y18831
X32853Y17031
X28297Y18358
X27297Y17955
X25803Y18831
X25153Y17081
X20547Y18811
X19547Y17955
X18047Y18408
X17453Y17081
X10303Y14631
X6803Y16481
X4553Y14531
X2320Y16226
X1703Y12431
X4103Y10631
X5103Y9551
X7453Y8981
X8453Y10281
X7503Y10631
X8403Y12281
X7453Y12481
X2083Y7591
X7103Y5751
X4128Y2711
X3203Y2771
X1563Y4071
T02
X3903Y14031
T03
X9361Y12795
X9361Y11795
X9361Y10795
X9361Y9795
X9361Y8795
X9361Y7795
X15361Y7795
X16961Y7795
X16961Y8795
X15361Y8795
X15361Y9795
X16961Y9795
X16961Y10795
X15361Y10795
X15361Y11795
X16961Y11795
X16961Y12795
X15361Y12795
X22961Y12795
X24561Y12795
X24561Y11795
X22961Y11795
X22961Y10795
X24561Y10795
X24561Y9795
X22961Y9795
X22961Y8795
X24561Y8795
X24561Y7795
X22961Y7795
X30561Y7795
X32167Y7776
X32167Y8776
X30561Y8795
X30561Y9795
X32167Y9776
X32167Y10776
X30561Y10795
X30561Y11795
X32167Y11776
X32167Y12776
X30561Y12795
X38167Y12776
X38167Y11776
X38167Y10776
X38167Y9776
X38167Y8776
X38167Y7776
T04
X1478Y2006
X1478Y18541
X37698Y18541
X37698Y2006
M30
