G75*
%MOIN*%
%OFA0B0*%
%FSLAX25Y25*%
%IPPOS*%
%LPD*%
%AMOC8*
5,1,8,0,0,1.08239X$1,22.5*
%
%ADD10C,0.00000*%
%ADD11C,0.00800*%
%ADD12C,0.00700*%
%ADD13C,0.00300*%
%ADD14R,0.00126X0.06750*%
%ADD15R,0.00126X0.00130*%
%ADD16R,0.00126X0.00120*%
%ADD17R,0.00126X0.01500*%
%ADD18R,0.00124X0.00250*%
%ADD19R,0.00124X0.00120*%
%ADD20R,0.00124X0.07000*%
%ADD21R,0.00124X0.00370*%
%ADD22R,0.00124X0.00380*%
%ADD23R,0.00124X0.00130*%
%ADD24R,0.00124X0.01620*%
%ADD25R,0.00126X0.00380*%
%ADD26R,0.00126X0.00250*%
%ADD27R,0.00126X0.07250*%
%ADD28R,0.00126X0.00630*%
%ADD29R,0.00126X0.00620*%
%ADD30R,0.00126X0.01750*%
%ADD31R,0.00125X0.00500*%
%ADD32R,0.00125X0.00370*%
%ADD33R,0.00125X0.07500*%
%ADD34R,0.00125X0.00870*%
%ADD35R,0.00125X0.00880*%
%ADD36R,0.00125X0.00380*%
%ADD37R,0.00125X0.01870*%
%ADD38R,0.00124X0.00630*%
%ADD39R,0.00124X0.00500*%
%ADD40R,0.00124X0.07750*%
%ADD41R,0.00124X0.01130*%
%ADD42R,0.00124X0.01120*%
%ADD43R,0.00124X0.02000*%
%ADD44R,0.00126X0.00750*%
%ADD45R,0.00126X0.08000*%
%ADD46R,0.00126X0.01370*%
%ADD47R,0.00126X0.01380*%
%ADD48R,0.00126X0.02120*%
%ADD49R,0.00125X0.00750*%
%ADD50R,0.00125X0.08250*%
%ADD51R,0.00125X0.01630*%
%ADD52R,0.00125X0.01620*%
%ADD53R,0.00125X0.02250*%
%ADD54R,0.00124X0.01000*%
%ADD55R,0.00124X0.00870*%
%ADD56R,0.00124X0.08500*%
%ADD57R,0.00124X0.01880*%
%ADD58R,0.00124X0.00880*%
%ADD59R,0.00124X0.02370*%
%ADD60R,0.00126X0.01130*%
%ADD61R,0.00126X0.01000*%
%ADD62R,0.00126X0.08630*%
%ADD63R,0.00126X0.02000*%
%ADD64R,0.00126X0.08620*%
%ADD65R,0.00126X0.02500*%
%ADD66R,0.00125X0.01250*%
%ADD67R,0.00125X0.01120*%
%ADD68R,0.00125X0.08370*%
%ADD69R,0.00125X0.02000*%
%ADD70R,0.00125X0.02120*%
%ADD71R,0.00125X0.08380*%
%ADD72R,0.00125X0.01130*%
%ADD73R,0.00125X0.02620*%
%ADD74R,0.00124X0.01380*%
%ADD75R,0.00124X0.01250*%
%ADD76R,0.00124X0.08130*%
%ADD77R,0.00124X0.02120*%
%ADD78R,0.00124X0.08120*%
%ADD79R,0.00124X0.02750*%
%ADD80R,0.00126X0.07870*%
%ADD81R,0.00126X0.07880*%
%ADD82R,0.00126X0.02870*%
%ADD83R,0.00124X0.01630*%
%ADD84R,0.00124X0.01500*%
%ADD85R,0.00124X0.07630*%
%ADD86R,0.00124X0.07620*%
%ADD87R,0.00124X0.02880*%
%ADD88R,0.00126X0.01620*%
%ADD89R,0.00126X0.07370*%
%ADD90R,0.00126X0.00500*%
%ADD91R,0.00126X0.07380*%
%ADD92R,0.00126X0.01630*%
%ADD93R,0.00124X0.01750*%
%ADD94R,0.00124X0.07130*%
%ADD95R,0.00124X0.00750*%
%ADD96R,0.00124X0.07120*%
%ADD97R,0.00125X0.06870*%
%ADD98R,0.00125X0.01000*%
%ADD99R,0.00125X0.06880*%
%ADD100R,0.00125X0.01880*%
%ADD101R,0.00125X0.02870*%
%ADD102R,0.00126X0.02130*%
%ADD103R,0.00126X0.01250*%
%ADD104R,0.00126X0.02880*%
%ADD105R,0.00125X0.02130*%
%ADD106R,0.00125X0.01500*%
%ADD107R,0.00124X0.02130*%
%ADD108R,0.00124X0.01870*%
%ADD109R,0.00126X0.01880*%
%ADD110R,0.00125X0.02880*%
%ADD111R,0.00124X0.02870*%
%ADD112R,0.00125X0.02750*%
%ADD113R,0.00125X0.02630*%
%ADD114R,0.00125X0.02500*%
%ADD115R,0.00125X0.02380*%
%ADD116R,0.00125X0.01750*%
%ADD117R,0.00125X0.00250*%
%ADD118R,0.00125X0.01370*%
%ADD119R,0.00125X0.01380*%
%ADD120R,0.00125X0.07380*%
%ADD121R,0.00124X0.00620*%
%ADD122R,0.00125X0.07880*%
%ADD123R,0.00125X0.08500*%
%ADD124R,0.00125X0.08750*%
%ADD125R,0.00126X0.09000*%
%ADD126R,0.00125X0.09120*%
%ADD127R,0.00125X0.09000*%
%ADD128R,0.00125X0.00130*%
%ADD129R,0.00125X0.08000*%
%ADD130R,0.00125X0.00630*%
%ADD131R,0.00125X0.00620*%
%ADD132R,0.00125X0.07750*%
%ADD133R,0.00124X0.07500*%
%ADD134R,0.00125X0.07120*%
%ADD135R,0.00125X0.02370*%
%ADD136R,0.00125X0.03000*%
%ADD137R,0.00126X0.03000*%
%ADD138R,0.00124X0.03000*%
%ADD139R,0.00124X0.02500*%
%ADD140R,0.00126X0.06870*%
%ADD141R,0.00126X0.01870*%
%ADD142R,0.00126X0.07620*%
%ADD143R,0.00126X0.06880*%
%ADD144R,0.00126X0.01120*%
%ADD145R,0.00125X0.07000*%
%ADD146R,0.00125X0.07130*%
%ADD147R,0.00125X0.07250*%
%ADD148R,0.00125X0.07370*%
%ADD149R,0.00125X0.08120*%
%ADD150R,0.00125X0.07630*%
%ADD151R,0.00125X0.08620*%
%ADD152R,0.00125X0.00120*%
%ADD153R,0.00125X0.08880*%
%ADD154R,0.00125X0.09380*%
%ADD155R,0.00125X0.08630*%
%ADD156R,0.00125X0.09620*%
%ADD157R,0.00125X0.09880*%
%ADD158R,0.00125X0.09250*%
%ADD159R,0.00125X0.08130*%
%ADD160R,0.00125X0.10120*%
%ADD161R,0.00125X0.09500*%
%ADD162R,0.00125X0.07870*%
%ADD163R,0.00125X0.10380*%
%ADD164R,0.00125X0.09750*%
%ADD165R,0.00125X0.10620*%
%ADD166R,0.00125X0.07620*%
%ADD167R,0.00125X0.10000*%
%ADD168R,0.00125X0.10880*%
%ADD169R,0.00125X0.10250*%
%ADD170R,0.00125X0.11120*%
%ADD171R,0.00125X0.10500*%
%ADD172R,0.00125X0.11380*%
%ADD173R,0.00126X0.00880*%
%ADD174R,0.00126X0.14130*%
%ADD175R,0.00126X0.00870*%
%ADD176R,0.00125X0.13870*%
%ADD177R,0.00125X0.13750*%
%ADD178R,0.00125X0.13620*%
%ADD179R,0.00125X0.13500*%
%ADD180R,0.00125X0.13370*%
%ADD181R,0.00125X0.13250*%
%ADD182R,0.00125X0.13120*%
%ADD183R,0.00125X0.13000*%
%ADD184R,0.00125X0.03120*%
%ADD185R,0.00124X0.03120*%
%ADD186R,0.00126X0.03250*%
%ADD187R,0.00126X0.02630*%
%ADD188R,0.00126X0.02620*%
%ADD189R,0.00124X0.03370*%
%ADD190R,0.00126X0.03500*%
%ADD191R,0.00124X0.03620*%
%ADD192R,0.00126X0.03750*%
%ADD193R,0.00124X0.03870*%
%ADD194R,0.00126X0.02750*%
%ADD195R,0.00124X0.09500*%
%ADD196R,0.00126X0.09250*%
%ADD197R,0.00124X0.09000*%
%ADD198R,0.00126X0.08750*%
%ADD199R,0.00126X0.02370*%
%ADD200R,0.00124X0.02630*%
%ADD201R,0.00124X0.01370*%
%ADD202R,0.00124X0.08250*%
%ADD203R,0.00126X0.08500*%
%ADD204R,0.00124X0.08750*%
%ADD205R,0.00126X0.03130*%
%ADD206R,0.00126X0.10500*%
%ADD207R,0.00126X0.03120*%
%ADD208R,0.00124X0.10500*%
%ADD209R,0.00124X0.02380*%
%ADD210R,0.00124X0.02250*%
%ADD211R,0.00126X0.02250*%
%ADD212R,0.00124X0.12500*%
%ADD213R,0.00126X0.12750*%
%ADD214R,0.00124X0.13000*%
%ADD215R,0.00126X0.13250*%
%ADD216R,0.00124X0.09750*%
%ADD217R,0.00126X0.09500*%
%ADD218R,0.00124X0.09250*%
%ADD219R,0.00125X0.11620*%
%ADD220R,0.00125X0.11880*%
%ADD221R,0.00124X0.12120*%
%ADD222R,0.00126X0.12380*%
%ADD223R,0.00126X0.10870*%
%ADD224R,0.00124X0.12620*%
%ADD225R,0.00124X0.09620*%
%ADD226R,0.00124X0.10880*%
%ADD227R,0.00126X0.12880*%
%ADD228R,0.00126X0.09750*%
%ADD229R,0.00124X0.13120*%
%ADD230R,0.00124X0.10000*%
%ADD231R,0.00124X0.02620*%
%ADD232R,0.00126X0.03870*%
%ADD233R,0.00124X0.03750*%
%ADD234R,0.00126X0.03620*%
%ADD235R,0.00126X0.03630*%
%ADD236R,0.00124X0.03500*%
%ADD237R,0.00126X0.03370*%
%ADD238R,0.00126X0.03380*%
%ADD239R,0.00124X0.03250*%
%ADD240R,0.00125X0.12880*%
%ADD241R,0.00125X0.12620*%
%ADD242R,0.00125X0.10370*%
%ADD243R,0.00125X0.12380*%
%ADD244R,0.00125X0.12120*%
%ADD245R,0.00124X0.11620*%
%ADD246R,0.00124X0.13750*%
%ADD247R,0.00124X0.13250*%
%ADD248R,0.00124X0.09870*%
%ADD249R,0.00126X0.11380*%
%ADD250R,0.00126X0.13870*%
%ADD251R,0.00126X0.13380*%
%ADD252R,0.00124X0.11120*%
%ADD253R,0.00124X0.14130*%
%ADD254R,0.00124X0.13620*%
D10*
X0001000Y0006275D02*
X0001000Y0199189D01*
X0390764Y0199189D01*
X0390764Y0006275D01*
X0001000Y0006275D01*
D11*
X0086600Y0029325D02*
X0086600Y0176471D01*
X0160616Y0176471D01*
X0160616Y0029325D01*
X0086600Y0029325D01*
X0162600Y0029325D02*
X0162600Y0176471D01*
X0236616Y0176471D01*
X0236616Y0029325D01*
X0162600Y0029325D01*
X0238600Y0029325D02*
X0238600Y0176471D01*
X0312616Y0176471D01*
X0312616Y0029325D01*
X0238600Y0029325D01*
X0314661Y0029138D02*
X0314661Y0176284D01*
X0388677Y0176284D01*
X0388677Y0029138D01*
X0314661Y0029138D01*
X0083127Y0127071D02*
X0083127Y0137366D01*
X0083127Y0142760D02*
X0083127Y0153055D01*
X0063442Y0153055D01*
X0057143Y0147937D01*
X0057143Y0142760D01*
X0057143Y0137366D02*
X0057143Y0132189D01*
X0063442Y0127071D01*
X0083127Y0127071D01*
X0082340Y0137366D02*
X0082274Y0137070D01*
X0082201Y0136774D01*
X0082122Y0136481D01*
X0082035Y0136190D01*
X0081940Y0135901D01*
X0081839Y0135614D01*
X0081731Y0135330D01*
X0081616Y0135048D01*
X0081494Y0134770D01*
X0081366Y0134494D01*
X0081230Y0134222D01*
X0081088Y0133953D01*
X0080940Y0133688D01*
X0080785Y0133426D01*
X0080624Y0133169D01*
X0080457Y0132915D01*
X0080283Y0132665D01*
X0080104Y0132420D01*
X0079918Y0132179D01*
X0079727Y0131943D01*
X0079530Y0131711D01*
X0079327Y0131485D01*
X0079119Y0131263D01*
X0078906Y0131046D01*
X0078687Y0130835D01*
X0078463Y0130629D01*
X0078235Y0130429D01*
X0078001Y0130234D01*
X0077763Y0130045D01*
X0077520Y0129862D01*
X0077273Y0129685D01*
X0077022Y0129514D01*
X0076766Y0129349D01*
X0076507Y0129191D01*
X0076244Y0129038D01*
X0075977Y0128893D01*
X0075707Y0128754D01*
X0075433Y0128621D01*
X0075157Y0128495D01*
X0074877Y0128376D01*
X0074594Y0128264D01*
X0074309Y0128159D01*
X0074021Y0128060D01*
X0073731Y0127969D01*
X0073439Y0127885D01*
X0073145Y0127808D01*
X0072849Y0127738D01*
X0072552Y0127676D01*
X0072253Y0127620D01*
X0071953Y0127572D01*
X0071651Y0127532D01*
X0071349Y0127498D01*
X0071046Y0127472D01*
X0070743Y0127454D01*
X0070439Y0127443D01*
X0070135Y0127439D01*
X0069831Y0127443D01*
X0069527Y0127454D01*
X0069224Y0127472D01*
X0068921Y0127498D01*
X0068619Y0127532D01*
X0068317Y0127572D01*
X0068017Y0127620D01*
X0067718Y0127676D01*
X0067421Y0127738D01*
X0067125Y0127808D01*
X0066831Y0127885D01*
X0066539Y0127969D01*
X0066249Y0128060D01*
X0065961Y0128159D01*
X0065676Y0128264D01*
X0065393Y0128376D01*
X0065113Y0128495D01*
X0064837Y0128621D01*
X0064563Y0128754D01*
X0064293Y0128893D01*
X0064026Y0129038D01*
X0063763Y0129191D01*
X0063504Y0129349D01*
X0063248Y0129514D01*
X0062997Y0129685D01*
X0062750Y0129862D01*
X0062507Y0130045D01*
X0062269Y0130234D01*
X0062035Y0130429D01*
X0061807Y0130629D01*
X0061583Y0130835D01*
X0061364Y0131046D01*
X0061151Y0131263D01*
X0060943Y0131485D01*
X0060740Y0131711D01*
X0060543Y0131943D01*
X0060352Y0132179D01*
X0060166Y0132420D01*
X0059987Y0132665D01*
X0059813Y0132915D01*
X0059646Y0133169D01*
X0059485Y0133426D01*
X0059330Y0133688D01*
X0059182Y0133953D01*
X0059040Y0134222D01*
X0058904Y0134494D01*
X0058776Y0134770D01*
X0058654Y0135048D01*
X0058539Y0135330D01*
X0058431Y0135614D01*
X0058330Y0135901D01*
X0058235Y0136190D01*
X0058148Y0136481D01*
X0058069Y0136774D01*
X0057996Y0137070D01*
X0057930Y0137366D01*
X0057930Y0142760D02*
X0058001Y0143056D01*
X0058078Y0143350D01*
X0058162Y0143643D01*
X0058254Y0143933D01*
X0058352Y0144221D01*
X0058458Y0144506D01*
X0058570Y0144789D01*
X0058690Y0145069D01*
X0058816Y0145346D01*
X0058949Y0145620D01*
X0059088Y0145890D01*
X0059234Y0146157D01*
X0059386Y0146421D01*
X0059545Y0146680D01*
X0059710Y0146936D01*
X0059881Y0147188D01*
X0060059Y0147435D01*
X0060242Y0147678D01*
X0060431Y0147916D01*
X0060626Y0148150D01*
X0060826Y0148379D01*
X0061032Y0148603D01*
X0061244Y0148822D01*
X0061460Y0149036D01*
X0061682Y0149244D01*
X0061909Y0149447D01*
X0062140Y0149644D01*
X0062377Y0149836D01*
X0062618Y0150022D01*
X0062863Y0150202D01*
X0063113Y0150376D01*
X0063367Y0150543D01*
X0063625Y0150705D01*
X0063886Y0150860D01*
X0064152Y0151009D01*
X0064421Y0151151D01*
X0064693Y0151287D01*
X0064969Y0151416D01*
X0065247Y0151538D01*
X0065529Y0151654D01*
X0065813Y0151763D01*
X0066100Y0151864D01*
X0066389Y0151959D01*
X0066681Y0152047D01*
X0066974Y0152127D01*
X0067270Y0152200D01*
X0067567Y0152266D01*
X0067865Y0152325D01*
X0068165Y0152377D01*
X0068466Y0152421D01*
X0068768Y0152458D01*
X0069071Y0152488D01*
X0069375Y0152510D01*
X0069679Y0152525D01*
X0069983Y0152532D01*
X0070287Y0152532D01*
X0070591Y0152525D01*
X0070895Y0152510D01*
X0071199Y0152488D01*
X0071502Y0152458D01*
X0071804Y0152421D01*
X0072105Y0152377D01*
X0072405Y0152325D01*
X0072703Y0152266D01*
X0073000Y0152200D01*
X0073296Y0152127D01*
X0073589Y0152047D01*
X0073881Y0151959D01*
X0074170Y0151864D01*
X0074457Y0151763D01*
X0074741Y0151654D01*
X0075023Y0151538D01*
X0075301Y0151416D01*
X0075577Y0151287D01*
X0075849Y0151151D01*
X0076118Y0151009D01*
X0076384Y0150860D01*
X0076645Y0150705D01*
X0076903Y0150543D01*
X0077157Y0150376D01*
X0077407Y0150202D01*
X0077652Y0150022D01*
X0077893Y0149836D01*
X0078130Y0149644D01*
X0078361Y0149447D01*
X0078588Y0149244D01*
X0078810Y0149036D01*
X0079026Y0148822D01*
X0079238Y0148603D01*
X0079444Y0148379D01*
X0079644Y0148150D01*
X0079839Y0147916D01*
X0080028Y0147678D01*
X0080211Y0147435D01*
X0080389Y0147188D01*
X0080560Y0146936D01*
X0080725Y0146680D01*
X0080884Y0146421D01*
X0081036Y0146157D01*
X0081182Y0145890D01*
X0081321Y0145620D01*
X0081454Y0145346D01*
X0081580Y0145069D01*
X0081700Y0144789D01*
X0081812Y0144506D01*
X0081918Y0144221D01*
X0082016Y0143933D01*
X0082108Y0143643D01*
X0082192Y0143350D01*
X0082269Y0143056D01*
X0082340Y0142760D01*
D12*
X0164958Y0055097D02*
X0164958Y0050894D01*
X0164958Y0048652D02*
X0164958Y0044448D01*
X0164958Y0042206D02*
X0164958Y0039053D01*
X0166009Y0038003D01*
X0170212Y0038003D01*
X0171263Y0039053D01*
X0171263Y0042206D01*
X0164958Y0042206D01*
X0171263Y0044448D02*
X0171263Y0048652D01*
X0164958Y0048652D01*
X0168111Y0048652D02*
X0168111Y0046550D01*
X0171263Y0055097D02*
X0164958Y0055097D01*
X0164958Y0035761D02*
X0169161Y0031557D01*
X0170212Y0031557D01*
X0171263Y0032608D01*
X0171263Y0034710D01*
X0170212Y0035761D01*
X0164958Y0035761D02*
X0164958Y0031557D01*
X0095263Y0031659D02*
X0088958Y0031659D01*
X0088958Y0033761D02*
X0088958Y0029557D01*
X0093161Y0033761D02*
X0095263Y0031659D01*
X0094212Y0036003D02*
X0090009Y0036003D01*
X0088958Y0037053D01*
X0088958Y0040206D01*
X0095263Y0040206D01*
X0095263Y0037053D01*
X0094212Y0036003D01*
X0095263Y0042448D02*
X0095263Y0046652D01*
X0088958Y0046652D01*
X0088958Y0042448D01*
X0092111Y0044550D02*
X0092111Y0046652D01*
X0088958Y0048894D02*
X0088958Y0053097D01*
X0095263Y0053097D01*
X0241458Y0054597D02*
X0241458Y0050394D01*
X0241458Y0048152D02*
X0241458Y0043948D01*
X0241458Y0041706D02*
X0241458Y0038553D01*
X0242509Y0037503D01*
X0246712Y0037503D01*
X0247763Y0038553D01*
X0247763Y0041706D01*
X0241458Y0041706D01*
X0247763Y0043948D02*
X0247763Y0048152D01*
X0241458Y0048152D01*
X0244611Y0048152D02*
X0244611Y0046050D01*
X0247763Y0054597D02*
X0241458Y0054597D01*
X0242509Y0035261D02*
X0241458Y0034210D01*
X0241458Y0032108D01*
X0242509Y0031057D01*
X0243560Y0031057D01*
X0244611Y0032108D01*
X0244611Y0033159D01*
X0244611Y0032108D02*
X0245661Y0031057D01*
X0246712Y0031057D01*
X0247763Y0032108D01*
X0247763Y0034210D01*
X0246712Y0035261D01*
X0317019Y0037867D02*
X0318070Y0036816D01*
X0322274Y0036816D01*
X0323325Y0037867D01*
X0323325Y0041020D01*
X0317019Y0041020D01*
X0317019Y0037867D01*
X0320172Y0034574D02*
X0320172Y0030370D01*
X0317019Y0031421D02*
X0323325Y0031421D01*
X0320172Y0034574D01*
X0317019Y0043261D02*
X0317019Y0047465D01*
X0323325Y0047465D01*
X0323325Y0043261D01*
X0320172Y0045363D02*
X0320172Y0047465D01*
X0317019Y0049707D02*
X0317019Y0053911D01*
X0323325Y0053911D01*
D13*
X0081169Y0153933D02*
X0078700Y0153933D01*
X0079934Y0153933D02*
X0079934Y0157637D01*
X0078700Y0156402D01*
X0077486Y0157019D02*
X0076868Y0157637D01*
X0075634Y0157637D01*
X0075017Y0157019D01*
X0075017Y0154551D01*
X0075634Y0153933D01*
X0076868Y0153933D01*
X0077486Y0154551D01*
D14*
X0024756Y0131592D03*
X0007631Y0116842D03*
X0007631Y0064592D03*
X0024756Y0049842D03*
D15*
X0007631Y0090782D03*
X0009006Y0121532D03*
D16*
X0007631Y0079407D03*
X0009006Y0059907D03*
D17*
X0015506Y0051347D03*
X0007631Y0044847D03*
X0034256Y0119217D03*
X0039006Y0119347D03*
X0040506Y0126217D03*
X0038756Y0127847D03*
X0039756Y0129967D03*
X0039506Y0131967D03*
X0039756Y0132217D03*
X0045756Y0132347D03*
X0046256Y0130217D03*
X0046006Y0129967D03*
X0043131Y0127717D03*
X0042881Y0127467D03*
X0034256Y0127847D03*
X0024756Y0126597D03*
X0033506Y0135217D03*
X0033256Y0135467D03*
X0033006Y0135717D03*
X0033756Y0134967D03*
X0034006Y0134717D03*
X0039506Y0137097D03*
X0049131Y0141967D03*
X0048881Y0142217D03*
X0048631Y0142467D03*
X0048381Y0142717D03*
X0049381Y0141717D03*
X0049631Y0141467D03*
X0039506Y0152467D03*
X0045756Y0160717D03*
X0045756Y0163097D03*
X0043131Y0163097D03*
X0042881Y0162847D03*
X0042631Y0162597D03*
X0048881Y0168217D03*
X0009006Y0136597D03*
D18*
X0007756Y0137222D03*
X0009131Y0112092D03*
X0009131Y0069342D03*
D19*
X0007756Y0096407D03*
X0007756Y0107657D03*
X0007756Y0125907D03*
D20*
X0007756Y0116847D03*
X0007756Y0064597D03*
D21*
X0007756Y0090782D03*
X0009131Y0121532D03*
D22*
X0007756Y0079407D03*
X0009131Y0059907D03*
D23*
X0007756Y0055532D03*
D24*
X0007756Y0044907D03*
X0014881Y0079157D03*
X0042506Y0127157D03*
X0032631Y0141657D03*
X0032881Y0141907D03*
X0033131Y0142157D03*
X0033381Y0142407D03*
X0033631Y0142657D03*
X0039631Y0152407D03*
X0048506Y0155907D03*
X0048756Y0155657D03*
X0049006Y0155407D03*
X0039631Y0162407D03*
X0039381Y0162657D03*
X0039131Y0162907D03*
X0048506Y0167907D03*
X0048756Y0168157D03*
D25*
X0007881Y0137157D03*
D26*
X0007881Y0125972D03*
X0007881Y0107592D03*
X0007881Y0096472D03*
X0007881Y0055472D03*
D27*
X0007881Y0064592D03*
X0007881Y0116842D03*
D28*
X0009256Y0121532D03*
X0007881Y0090782D03*
X0008256Y0055282D03*
D29*
X0009256Y0059907D03*
X0007881Y0079407D03*
X0008256Y0096657D03*
X0008256Y0107407D03*
X0008256Y0126157D03*
D30*
X0018506Y0126722D03*
X0018506Y0121722D03*
X0018506Y0111972D03*
X0018506Y0099722D03*
X0018506Y0090592D03*
X0049131Y0111722D03*
X0041631Y0126222D03*
X0041631Y0136222D03*
X0018506Y0136472D03*
X0009256Y0136472D03*
X0018506Y0069472D03*
X0018506Y0059722D03*
X0018506Y0054722D03*
X0018506Y0044972D03*
X0007881Y0044972D03*
D31*
X0017757Y0044847D03*
X0017757Y0054847D03*
X0016506Y0054847D03*
X0016506Y0059597D03*
X0025882Y0055347D03*
X0025007Y0069347D03*
X0017757Y0069597D03*
X0016506Y0069597D03*
X0016756Y0079097D03*
X0016506Y0090467D03*
X0017757Y0090467D03*
X0026507Y0090717D03*
X0026132Y0096597D03*
X0016506Y0097097D03*
X0016506Y0106967D03*
X0016506Y0111847D03*
X0017757Y0111847D03*
X0025007Y0112097D03*
X0026132Y0107467D03*
X0030631Y0122217D03*
X0030631Y0124847D03*
X0025757Y0126097D03*
X0017757Y0126597D03*
X0016506Y0126597D03*
X0017757Y0131597D03*
X0023881Y0131597D03*
X0025882Y0137097D03*
X0030631Y0137597D03*
X0016506Y0136597D03*
X0008007Y0137097D03*
D32*
X0017757Y0136532D03*
X0038007Y0131032D03*
X0030506Y0124782D03*
X0030506Y0122282D03*
X0025132Y0121532D03*
X0025882Y0126032D03*
X0017757Y0121782D03*
X0016506Y0121782D03*
X0008007Y0126032D03*
X0025132Y0112032D03*
X0026257Y0107532D03*
X0017757Y0107032D03*
X0008007Y0107532D03*
X0008007Y0096532D03*
X0017757Y0097032D03*
X0026257Y0096532D03*
D33*
X0008007Y0116847D03*
X0025132Y0131597D03*
X0025132Y0064597D03*
X0008007Y0064597D03*
X0025132Y0049847D03*
D34*
X0008007Y0090782D03*
X0025757Y0096782D03*
X0025757Y0107282D03*
X0024882Y0121532D03*
X0025382Y0126282D03*
X0016257Y0136532D03*
X0040882Y0161532D03*
D35*
X0040882Y0136157D03*
X0025507Y0136907D03*
X0008382Y0136907D03*
X0008007Y0079407D03*
X0023881Y0079407D03*
X0024882Y0059907D03*
X0025507Y0055157D03*
X0016257Y0059657D03*
X0024882Y0045157D03*
D36*
X0025132Y0045157D03*
X0026007Y0055407D03*
X0025132Y0059907D03*
X0017757Y0059657D03*
X0008007Y0055407D03*
X0024131Y0079407D03*
X0026007Y0137157D03*
X0030506Y0137657D03*
X0030756Y0161907D03*
D37*
X0040882Y0151032D03*
X0024381Y0126782D03*
X0018632Y0126782D03*
X0015632Y0126782D03*
X0009506Y0126782D03*
X0024381Y0121532D03*
X0032007Y0121532D03*
X0032007Y0125532D03*
X0040882Y0120282D03*
X0018632Y0112032D03*
X0015632Y0112032D03*
X0015632Y0106782D03*
X0018757Y0106782D03*
X0024131Y0104282D03*
X0018632Y0099782D03*
X0018757Y0097282D03*
X0015632Y0097282D03*
X0009506Y0097282D03*
X0009506Y0106782D03*
X0014632Y0079282D03*
X0017632Y0079282D03*
X0018632Y0059782D03*
X0015632Y0059782D03*
X0018632Y0045032D03*
X0008007Y0045032D03*
D38*
X0038131Y0131032D03*
X0016381Y0136532D03*
X0008131Y0137032D03*
D39*
X0008131Y0126097D03*
X0008131Y0107467D03*
X0008131Y0096597D03*
X0008131Y0055347D03*
D40*
X0008131Y0064592D03*
X0008131Y0116842D03*
X0039131Y0116342D03*
X0039131Y0147092D03*
X0043006Y0147092D03*
D41*
X0044381Y0149782D03*
X0044631Y0149782D03*
X0044881Y0149782D03*
X0045131Y0149782D03*
X0045381Y0149782D03*
X0045631Y0149782D03*
X0045881Y0149782D03*
X0046131Y0149782D03*
X0046381Y0149782D03*
X0046631Y0149782D03*
X0038381Y0149782D03*
X0038131Y0149782D03*
X0037006Y0149782D03*
X0036756Y0149782D03*
X0036506Y0149782D03*
X0036256Y0149782D03*
X0036006Y0149782D03*
X0035756Y0149782D03*
X0035506Y0149782D03*
X0035256Y0149782D03*
X0035256Y0137282D03*
X0035006Y0137282D03*
X0035506Y0137282D03*
X0035756Y0137282D03*
X0036006Y0137282D03*
X0036256Y0137282D03*
X0036506Y0137282D03*
X0036756Y0137282D03*
X0037006Y0137282D03*
X0038131Y0137282D03*
X0038381Y0137282D03*
X0038631Y0137282D03*
X0038881Y0137282D03*
X0039131Y0137282D03*
X0043006Y0137282D03*
X0043256Y0137282D03*
X0044381Y0137282D03*
X0044631Y0137282D03*
X0044881Y0137282D03*
X0045131Y0137282D03*
X0045381Y0137282D03*
X0045631Y0137282D03*
X0045881Y0137282D03*
X0046131Y0137282D03*
X0046381Y0137282D03*
X0046631Y0137282D03*
X0047756Y0137282D03*
X0048006Y0137282D03*
X0048256Y0137282D03*
X0048506Y0137282D03*
X0045381Y0132532D03*
X0045131Y0132532D03*
X0044881Y0132532D03*
X0044631Y0132532D03*
X0044381Y0132532D03*
X0043256Y0132532D03*
X0043006Y0132532D03*
X0042756Y0132532D03*
X0042506Y0132532D03*
X0042256Y0132532D03*
X0042006Y0132532D03*
X0041756Y0132532D03*
X0041506Y0132532D03*
X0041256Y0132532D03*
X0040381Y0132532D03*
X0038381Y0131032D03*
X0038381Y0128032D03*
X0038131Y0128032D03*
X0037006Y0128032D03*
X0036756Y0128032D03*
X0036506Y0128032D03*
X0036256Y0128032D03*
X0036006Y0128032D03*
X0035756Y0128032D03*
X0035506Y0128032D03*
X0035256Y0128032D03*
X0035006Y0128032D03*
X0044381Y0128032D03*
X0044631Y0128032D03*
X0044881Y0128032D03*
X0045131Y0128032D03*
X0045381Y0128032D03*
X0045631Y0128032D03*
X0045881Y0128032D03*
X0046131Y0128032D03*
X0046381Y0128032D03*
X0046631Y0128032D03*
X0046631Y0119032D03*
X0046381Y0119032D03*
X0046131Y0119032D03*
X0045881Y0119032D03*
X0045631Y0119032D03*
X0045381Y0119032D03*
X0045131Y0119032D03*
X0044881Y0119032D03*
X0044631Y0119032D03*
X0044381Y0119032D03*
X0038381Y0119032D03*
X0038131Y0119032D03*
X0037006Y0119032D03*
X0036756Y0119032D03*
X0036506Y0119032D03*
X0036256Y0119032D03*
X0036006Y0119032D03*
X0035756Y0119032D03*
X0035506Y0119032D03*
X0035256Y0119032D03*
X0035006Y0119032D03*
X0043006Y0109782D03*
X0043256Y0109782D03*
X0044381Y0109782D03*
X0044631Y0109782D03*
X0044881Y0109782D03*
X0045131Y0109782D03*
X0045381Y0109782D03*
X0045631Y0109782D03*
X0045881Y0109782D03*
X0046131Y0109782D03*
X0046381Y0109782D03*
X0046631Y0109782D03*
X0008131Y0090782D03*
X0033131Y0137282D03*
X0033381Y0137282D03*
X0033631Y0137282D03*
X0033881Y0137282D03*
X0034131Y0137282D03*
X0042756Y0160532D03*
X0045381Y0160532D03*
X0045381Y0163282D03*
X0045131Y0163282D03*
X0044881Y0163282D03*
X0044631Y0163282D03*
X0044381Y0163282D03*
X0038381Y0163282D03*
X0038131Y0163282D03*
X0037006Y0163282D03*
X0036756Y0163282D03*
X0036506Y0163282D03*
X0036256Y0163282D03*
X0036006Y0163282D03*
X0035756Y0163282D03*
X0035506Y0163282D03*
X0035256Y0163282D03*
X0035006Y0163282D03*
X0034131Y0163282D03*
X0033881Y0163282D03*
X0033631Y0163282D03*
X0033381Y0163282D03*
X0033131Y0163282D03*
D42*
X0033631Y0152657D03*
X0033881Y0152657D03*
X0034131Y0152657D03*
X0035006Y0152657D03*
X0035256Y0152657D03*
X0035506Y0152657D03*
X0035756Y0152657D03*
X0036006Y0152657D03*
X0036256Y0152657D03*
X0036506Y0152657D03*
X0036756Y0152657D03*
X0037006Y0152657D03*
X0038131Y0152657D03*
X0038381Y0152657D03*
X0038631Y0152657D03*
X0038881Y0152657D03*
X0039131Y0152657D03*
X0043006Y0152657D03*
X0043256Y0152657D03*
X0044381Y0152657D03*
X0044631Y0152657D03*
X0044881Y0152657D03*
X0045131Y0152657D03*
X0045381Y0152657D03*
X0045631Y0152657D03*
X0045881Y0152657D03*
X0046131Y0152657D03*
X0046381Y0152657D03*
X0046631Y0152657D03*
X0047756Y0152657D03*
X0048006Y0152657D03*
X0048256Y0152657D03*
X0048506Y0152657D03*
X0046631Y0134407D03*
X0046381Y0134407D03*
X0046131Y0134407D03*
X0045881Y0134407D03*
X0045631Y0134407D03*
X0045381Y0134407D03*
X0045131Y0134407D03*
X0044881Y0134407D03*
X0044631Y0134407D03*
X0044381Y0134407D03*
X0038381Y0134407D03*
X0038131Y0134407D03*
X0037006Y0134407D03*
X0036756Y0134407D03*
X0036506Y0134407D03*
X0036256Y0134407D03*
X0036006Y0134407D03*
X0035756Y0134407D03*
X0035506Y0134407D03*
X0035256Y0134407D03*
X0035006Y0134407D03*
X0040381Y0129657D03*
X0041256Y0129657D03*
X0041506Y0129657D03*
X0041756Y0129657D03*
X0042006Y0129657D03*
X0042256Y0129657D03*
X0042506Y0129657D03*
X0042756Y0129657D03*
X0043006Y0129657D03*
X0043256Y0129657D03*
X0044381Y0129657D03*
X0044631Y0129657D03*
X0044881Y0129657D03*
X0045131Y0129657D03*
X0045381Y0129657D03*
X0045381Y0125157D03*
X0045131Y0125157D03*
X0044881Y0125157D03*
X0044631Y0125157D03*
X0044381Y0125157D03*
X0043256Y0125157D03*
X0043006Y0125157D03*
X0045631Y0125157D03*
X0045881Y0125157D03*
X0046131Y0125157D03*
X0046381Y0125157D03*
X0046631Y0125157D03*
X0047756Y0125157D03*
X0048006Y0125157D03*
X0048256Y0125157D03*
X0048506Y0125157D03*
X0048506Y0121907D03*
X0048256Y0121907D03*
X0048006Y0121907D03*
X0047756Y0121907D03*
X0046631Y0121907D03*
X0046381Y0121907D03*
X0046131Y0121907D03*
X0045881Y0121907D03*
X0045631Y0121907D03*
X0045381Y0121907D03*
X0045131Y0121907D03*
X0044881Y0121907D03*
X0044631Y0121907D03*
X0044381Y0121907D03*
X0043256Y0121907D03*
X0043006Y0121907D03*
X0039131Y0121907D03*
X0038881Y0121907D03*
X0038631Y0121907D03*
X0038381Y0121907D03*
X0038131Y0121907D03*
X0037006Y0121907D03*
X0036756Y0121907D03*
X0036506Y0121907D03*
X0036256Y0121907D03*
X0036006Y0121907D03*
X0035756Y0121907D03*
X0035506Y0121907D03*
X0035256Y0121907D03*
X0035006Y0121907D03*
X0034131Y0121907D03*
X0033881Y0121907D03*
X0033631Y0121907D03*
X0033381Y0121907D03*
X0033131Y0121907D03*
X0033131Y0125157D03*
X0033381Y0125157D03*
X0033631Y0125157D03*
X0033881Y0125157D03*
X0034131Y0125157D03*
X0035006Y0125157D03*
X0035256Y0125157D03*
X0035506Y0125157D03*
X0035756Y0125157D03*
X0036006Y0125157D03*
X0036256Y0125157D03*
X0036506Y0125157D03*
X0036756Y0125157D03*
X0037006Y0125157D03*
X0038131Y0125157D03*
X0038381Y0125157D03*
X0038631Y0125157D03*
X0038881Y0125157D03*
X0039131Y0125157D03*
X0044381Y0112657D03*
X0044631Y0112657D03*
X0044881Y0112657D03*
X0045131Y0112657D03*
X0045381Y0112657D03*
X0045631Y0112657D03*
X0045881Y0112657D03*
X0046131Y0112657D03*
X0046381Y0112657D03*
X0046631Y0112657D03*
X0008131Y0079407D03*
D43*
X0010256Y0069347D03*
X0010631Y0069347D03*
X0011256Y0069347D03*
X0012006Y0069347D03*
X0012881Y0069347D03*
X0013631Y0069347D03*
X0014881Y0069347D03*
X0019631Y0069347D03*
X0020381Y0069347D03*
X0023631Y0069347D03*
X0023631Y0054597D03*
X0020381Y0054597D03*
X0019631Y0054597D03*
X0014881Y0054597D03*
X0013631Y0054597D03*
X0012881Y0054597D03*
X0012006Y0054597D03*
X0011256Y0054597D03*
X0010631Y0054597D03*
X0010256Y0054597D03*
X0009881Y0054597D03*
X0008131Y0045097D03*
X0019631Y0045097D03*
X0020381Y0045097D03*
X0023631Y0045097D03*
X0023631Y0090717D03*
X0020381Y0090717D03*
X0019631Y0090717D03*
X0014881Y0090717D03*
X0013631Y0090717D03*
X0012881Y0090717D03*
X0012006Y0090717D03*
X0011256Y0090717D03*
X0010631Y0090717D03*
X0010256Y0090717D03*
X0009881Y0090717D03*
X0009381Y0090717D03*
X0009131Y0090717D03*
X0008881Y0090717D03*
X0008506Y0090717D03*
X0009881Y0097347D03*
X0010256Y0097347D03*
X0010631Y0097347D03*
X0011256Y0097347D03*
X0012006Y0097347D03*
X0012881Y0097347D03*
X0013631Y0097347D03*
X0014881Y0097347D03*
X0019631Y0097347D03*
X0020381Y0097347D03*
X0023631Y0097347D03*
X0023631Y0106717D03*
X0020381Y0106717D03*
X0019631Y0106717D03*
X0014881Y0106717D03*
X0013631Y0106717D03*
X0012881Y0106717D03*
X0012006Y0106717D03*
X0011256Y0106717D03*
X0010631Y0106717D03*
X0010256Y0106717D03*
X0009881Y0106717D03*
X0010256Y0112097D03*
X0010631Y0112097D03*
X0011256Y0112097D03*
X0012006Y0112097D03*
X0012881Y0112097D03*
X0013631Y0112097D03*
X0014881Y0112097D03*
X0019631Y0112097D03*
X0020381Y0112097D03*
X0023631Y0112097D03*
X0041256Y0111347D03*
X0049006Y0111717D03*
X0041256Y0120347D03*
X0041756Y0126217D03*
X0023631Y0126847D03*
X0020381Y0126847D03*
X0019631Y0126847D03*
X0014881Y0126847D03*
X0013631Y0126847D03*
X0012881Y0126847D03*
X0012006Y0126847D03*
X0011256Y0126847D03*
X0010631Y0126847D03*
X0010256Y0126847D03*
X0009881Y0126847D03*
X0019631Y0131597D03*
X0020381Y0131597D03*
X0041256Y0150967D03*
D44*
X0008256Y0136972D03*
D45*
X0039256Y0147097D03*
X0042881Y0147097D03*
X0039256Y0116347D03*
X0008256Y0116847D03*
X0008256Y0064597D03*
D46*
X0008256Y0090782D03*
X0009006Y0097032D03*
X0009006Y0107032D03*
X0009631Y0121532D03*
X0009006Y0126532D03*
X0034256Y0134532D03*
X0038756Y0134532D03*
X0038506Y0131032D03*
X0040006Y0129782D03*
X0045756Y0129782D03*
X0042631Y0125282D03*
X0039506Y0125282D03*
X0039506Y0121782D03*
X0042631Y0121782D03*
X0043381Y0112532D03*
X0043381Y0134532D03*
X0042631Y0152532D03*
X0049381Y0168282D03*
D47*
X0038756Y0163157D03*
X0039506Y0160657D03*
X0032756Y0160657D03*
X0032756Y0163157D03*
X0038756Y0149907D03*
X0043381Y0149907D03*
X0042631Y0137157D03*
X0040006Y0132407D03*
X0043381Y0127907D03*
X0043381Y0119157D03*
X0038756Y0119157D03*
X0042631Y0109907D03*
X0008256Y0079407D03*
X0009631Y0059907D03*
X0009006Y0054907D03*
D48*
X0010381Y0059907D03*
X0010756Y0059907D03*
X0011506Y0059907D03*
X0012256Y0059907D03*
X0013131Y0059907D03*
X0013881Y0059907D03*
X0020131Y0059907D03*
X0021756Y0059907D03*
X0008256Y0045157D03*
X0008631Y0079407D03*
X0009006Y0079407D03*
X0009256Y0079407D03*
X0009631Y0079407D03*
X0010006Y0079407D03*
X0010381Y0079407D03*
X0010756Y0079407D03*
X0011506Y0079407D03*
X0012256Y0079407D03*
X0013131Y0079407D03*
X0013881Y0079407D03*
X0018506Y0079407D03*
X0020131Y0079407D03*
X0021756Y0079407D03*
X0040256Y0136157D03*
X0041881Y0136157D03*
X0046756Y0161907D03*
D49*
X0041132Y0136222D03*
X0030881Y0137472D03*
X0025632Y0136972D03*
X0023756Y0131592D03*
X0025507Y0126222D03*
X0030881Y0124972D03*
X0030881Y0122092D03*
X0040882Y0126222D03*
X0041132Y0126222D03*
X0017882Y0126592D03*
X0017882Y0131592D03*
X0008382Y0126222D03*
X0017882Y0111842D03*
X0024882Y0112092D03*
X0025882Y0107342D03*
X0008382Y0107342D03*
X0008382Y0096722D03*
X0017882Y0090472D03*
X0026382Y0090722D03*
X0025882Y0096722D03*
X0016881Y0079092D03*
X0015381Y0079092D03*
X0017882Y0069592D03*
X0024882Y0069342D03*
X0025632Y0055222D03*
X0017882Y0054842D03*
X0008382Y0055222D03*
X0017882Y0044842D03*
D50*
X0017632Y0049842D03*
X0016631Y0049842D03*
X0025507Y0049842D03*
X0025507Y0064592D03*
X0008382Y0064592D03*
X0047382Y0115842D03*
X0025507Y0116842D03*
X0008382Y0116842D03*
X0025507Y0131592D03*
X0034507Y0146842D03*
X0047632Y0146842D03*
D51*
X0041007Y0151032D03*
X0049757Y0155782D03*
X0050007Y0156032D03*
X0032507Y0160782D03*
X0032257Y0161032D03*
X0032257Y0162782D03*
X0032507Y0163032D03*
X0049757Y0168032D03*
X0050007Y0167782D03*
X0040632Y0142532D03*
X0032507Y0141532D03*
X0032257Y0141282D03*
X0031757Y0137032D03*
X0018381Y0136532D03*
X0015882Y0136532D03*
X0018381Y0121782D03*
X0024506Y0121532D03*
X0009757Y0121532D03*
X0041007Y0120282D03*
X0049757Y0112282D03*
X0050007Y0112532D03*
X0047507Y0110032D03*
X0040882Y0111532D03*
X0040632Y0111782D03*
X0018381Y0090532D03*
X0015882Y0090532D03*
X0008382Y0090782D03*
X0015882Y0069532D03*
X0018381Y0069532D03*
X0018381Y0054782D03*
X0015882Y0054782D03*
X0015381Y0051282D03*
D52*
X0018381Y0044907D03*
X0024506Y0045157D03*
X0024506Y0059907D03*
X0018381Y0059657D03*
X0015882Y0059657D03*
X0009757Y0059907D03*
X0008382Y0079407D03*
X0017382Y0079157D03*
X0023507Y0079407D03*
X0025007Y0097157D03*
X0018381Y0099657D03*
X0015882Y0097157D03*
X0024506Y0104407D03*
X0025007Y0106907D03*
X0018381Y0111907D03*
X0015882Y0111907D03*
X0015882Y0106907D03*
X0040757Y0111657D03*
X0041007Y0111407D03*
X0047632Y0110157D03*
X0049882Y0112407D03*
X0031757Y0121657D03*
X0031757Y0125407D03*
X0024631Y0126657D03*
X0018381Y0126657D03*
X0015882Y0126657D03*
X0032132Y0141157D03*
X0032382Y0141407D03*
X0040757Y0142407D03*
X0041007Y0142157D03*
X0041132Y0142157D03*
X0049882Y0155907D03*
X0047007Y0161907D03*
X0049882Y0167907D03*
X0032382Y0162907D03*
X0031382Y0161907D03*
X0032382Y0160907D03*
D53*
X0032382Y0136722D03*
X0032382Y0125722D03*
X0032382Y0121342D03*
X0023881Y0104092D03*
X0019007Y0099972D03*
X0014757Y0050972D03*
X0008382Y0045222D03*
D54*
X0018006Y0044847D03*
X0018006Y0054847D03*
X0018006Y0069597D03*
X0018006Y0090467D03*
X0018006Y0111847D03*
X0018006Y0126597D03*
X0018006Y0131597D03*
X0023631Y0131597D03*
X0008506Y0136847D03*
X0041256Y0136217D03*
X0041256Y0126217D03*
X0043006Y0160467D03*
X0043256Y0160467D03*
X0044381Y0160467D03*
X0044631Y0160467D03*
X0044881Y0160467D03*
X0045131Y0160467D03*
X0039131Y0160467D03*
X0038881Y0160467D03*
X0038631Y0160467D03*
X0038381Y0160467D03*
X0038131Y0160467D03*
X0037006Y0160467D03*
X0036756Y0160467D03*
X0036506Y0160467D03*
X0036256Y0160467D03*
X0036006Y0160467D03*
X0035756Y0160467D03*
X0035506Y0160467D03*
X0035256Y0160467D03*
X0035006Y0160467D03*
X0034131Y0160467D03*
X0033881Y0160467D03*
X0033631Y0160467D03*
X0033381Y0160467D03*
X0033131Y0160467D03*
D55*
X0041256Y0161532D03*
X0018006Y0136532D03*
X0008506Y0126282D03*
X0009381Y0121532D03*
X0018006Y0121782D03*
X0018006Y0107032D03*
X0008506Y0107282D03*
X0008506Y0096782D03*
X0018006Y0097032D03*
D56*
X0008506Y0116847D03*
X0047756Y0146847D03*
X0008506Y0064597D03*
D57*
X0009881Y0059907D03*
X0008506Y0079407D03*
X0009381Y0136407D03*
X0040381Y0136157D03*
X0041756Y0136157D03*
D58*
X0018006Y0059657D03*
X0009381Y0059907D03*
X0008506Y0055157D03*
D59*
X0008506Y0045282D03*
X0040131Y0161532D03*
X0042006Y0161532D03*
D60*
X0041381Y0161532D03*
X0042881Y0160532D03*
X0044506Y0163282D03*
X0044756Y0163282D03*
X0045006Y0163282D03*
X0045256Y0163282D03*
X0039256Y0160532D03*
X0038506Y0163282D03*
X0038256Y0163282D03*
X0037131Y0163282D03*
X0036881Y0163282D03*
X0036631Y0163282D03*
X0036381Y0163282D03*
X0036131Y0163282D03*
X0035881Y0163282D03*
X0035631Y0163282D03*
X0035381Y0163282D03*
X0035131Y0163282D03*
X0034256Y0163282D03*
X0034006Y0163282D03*
X0033756Y0163282D03*
X0033506Y0163282D03*
X0033256Y0163282D03*
X0033006Y0163282D03*
X0033006Y0160532D03*
X0035131Y0149782D03*
X0035381Y0149782D03*
X0035631Y0149782D03*
X0035881Y0149782D03*
X0036131Y0149782D03*
X0036381Y0149782D03*
X0036631Y0149782D03*
X0036881Y0149782D03*
X0037131Y0149782D03*
X0038256Y0149782D03*
X0038506Y0149782D03*
X0044506Y0149782D03*
X0044756Y0149782D03*
X0045006Y0149782D03*
X0045256Y0149782D03*
X0045506Y0149782D03*
X0045756Y0149782D03*
X0046006Y0149782D03*
X0046256Y0149782D03*
X0046506Y0149782D03*
X0046756Y0149782D03*
X0046756Y0137282D03*
X0046506Y0137282D03*
X0046256Y0137282D03*
X0046006Y0137282D03*
X0045756Y0137282D03*
X0045506Y0137282D03*
X0045256Y0137282D03*
X0045006Y0137282D03*
X0044756Y0137282D03*
X0044506Y0137282D03*
X0043381Y0137282D03*
X0043131Y0137282D03*
X0042881Y0137282D03*
X0039006Y0137282D03*
X0038756Y0137282D03*
X0038506Y0137282D03*
X0038256Y0137282D03*
X0037131Y0137282D03*
X0036881Y0137282D03*
X0036631Y0137282D03*
X0036381Y0137282D03*
X0036131Y0137282D03*
X0035881Y0137282D03*
X0035631Y0137282D03*
X0035381Y0137282D03*
X0035131Y0137282D03*
X0034256Y0137282D03*
X0034006Y0137282D03*
X0033756Y0137282D03*
X0033506Y0137282D03*
X0033256Y0137282D03*
X0033006Y0137282D03*
X0040256Y0132532D03*
X0040506Y0132532D03*
X0041381Y0132532D03*
X0041631Y0132532D03*
X0041881Y0132532D03*
X0042131Y0132532D03*
X0042381Y0132532D03*
X0042631Y0132532D03*
X0042881Y0132532D03*
X0043131Y0132532D03*
X0043381Y0132532D03*
X0044506Y0132532D03*
X0044756Y0132532D03*
X0045006Y0132532D03*
X0045256Y0132532D03*
X0047881Y0137282D03*
X0048131Y0137282D03*
X0048381Y0137282D03*
X0048631Y0137282D03*
X0046756Y0128032D03*
X0046506Y0128032D03*
X0046256Y0128032D03*
X0046006Y0128032D03*
X0045756Y0128032D03*
X0045506Y0128032D03*
X0045256Y0128032D03*
X0045006Y0128032D03*
X0044756Y0128032D03*
X0044506Y0128032D03*
X0038256Y0128032D03*
X0037131Y0128032D03*
X0036881Y0128032D03*
X0036631Y0128032D03*
X0036381Y0128032D03*
X0036131Y0128032D03*
X0035881Y0128032D03*
X0035631Y0128032D03*
X0035381Y0128032D03*
X0035131Y0128032D03*
X0024756Y0121532D03*
X0035131Y0119032D03*
X0035381Y0119032D03*
X0035631Y0119032D03*
X0035881Y0119032D03*
X0036131Y0119032D03*
X0036381Y0119032D03*
X0036631Y0119032D03*
X0036881Y0119032D03*
X0037131Y0119032D03*
X0038256Y0119032D03*
X0038506Y0119032D03*
X0044506Y0119032D03*
X0044756Y0119032D03*
X0045006Y0119032D03*
X0045256Y0119032D03*
X0045506Y0119032D03*
X0045756Y0119032D03*
X0046006Y0119032D03*
X0046256Y0119032D03*
X0046506Y0119032D03*
X0046756Y0119032D03*
X0046756Y0109782D03*
X0046506Y0109782D03*
X0046256Y0109782D03*
X0046006Y0109782D03*
X0045756Y0109782D03*
X0045506Y0109782D03*
X0045256Y0109782D03*
X0045006Y0109782D03*
X0044756Y0109782D03*
X0044506Y0109782D03*
X0043381Y0109782D03*
X0043131Y0109782D03*
X0042881Y0109782D03*
X0008631Y0136782D03*
D61*
X0008631Y0126347D03*
X0024756Y0112097D03*
X0008631Y0107217D03*
X0008631Y0096847D03*
X0017006Y0079097D03*
X0024756Y0069347D03*
X0008631Y0055097D03*
X0033256Y0160467D03*
X0033506Y0160467D03*
X0033756Y0160467D03*
X0034006Y0160467D03*
X0034256Y0160467D03*
X0035131Y0160467D03*
X0035381Y0160467D03*
X0035631Y0160467D03*
X0035881Y0160467D03*
X0036131Y0160467D03*
X0036381Y0160467D03*
X0036631Y0160467D03*
X0036881Y0160467D03*
X0037131Y0160467D03*
X0038256Y0160467D03*
X0038506Y0160467D03*
X0038756Y0160467D03*
X0039006Y0160467D03*
X0043131Y0160467D03*
X0043381Y0160467D03*
X0044506Y0160467D03*
X0044756Y0160467D03*
X0045006Y0160467D03*
X0045256Y0160467D03*
D62*
X0008631Y0116782D03*
D63*
X0010006Y0121467D03*
X0015506Y0121597D03*
X0015506Y0126847D03*
X0013881Y0126847D03*
X0013131Y0126847D03*
X0012256Y0126847D03*
X0011506Y0126847D03*
X0010756Y0126847D03*
X0010381Y0126847D03*
X0010006Y0126847D03*
X0009631Y0126847D03*
X0018506Y0131597D03*
X0020131Y0131597D03*
X0021756Y0131597D03*
X0021756Y0126847D03*
X0020131Y0126847D03*
X0015506Y0136347D03*
X0040256Y0126217D03*
X0021756Y0112097D03*
X0020131Y0112097D03*
X0015506Y0112097D03*
X0013881Y0112097D03*
X0013131Y0112097D03*
X0012256Y0112097D03*
X0011506Y0112097D03*
X0010756Y0112097D03*
X0010381Y0112097D03*
X0010006Y0112097D03*
X0010006Y0106717D03*
X0009631Y0106717D03*
X0010381Y0106717D03*
X0010756Y0106717D03*
X0011506Y0106717D03*
X0012256Y0106717D03*
X0013131Y0106717D03*
X0013881Y0106717D03*
X0015506Y0106717D03*
X0020131Y0106717D03*
X0021756Y0106717D03*
X0021756Y0097347D03*
X0020131Y0097347D03*
X0015506Y0097347D03*
X0013881Y0097347D03*
X0013131Y0097347D03*
X0012256Y0097347D03*
X0011506Y0097347D03*
X0010756Y0097347D03*
X0010381Y0097347D03*
X0010006Y0097347D03*
X0009631Y0097347D03*
X0009631Y0090717D03*
X0009256Y0090717D03*
X0009006Y0090717D03*
X0008631Y0090717D03*
X0010006Y0090717D03*
X0010381Y0090717D03*
X0010756Y0090717D03*
X0011506Y0090717D03*
X0012256Y0090717D03*
X0013131Y0090717D03*
X0013881Y0090717D03*
X0015506Y0090717D03*
X0020131Y0090717D03*
X0021756Y0090717D03*
X0024756Y0090717D03*
X0021756Y0069347D03*
X0020131Y0069347D03*
X0015506Y0069347D03*
X0013881Y0069347D03*
X0013131Y0069347D03*
X0012256Y0069347D03*
X0011506Y0069347D03*
X0010756Y0069347D03*
X0010381Y0069347D03*
X0010006Y0069347D03*
X0015506Y0059847D03*
X0015506Y0054597D03*
X0013881Y0054597D03*
X0013131Y0054597D03*
X0012256Y0054597D03*
X0011506Y0054597D03*
X0010756Y0054597D03*
X0010381Y0054597D03*
X0010006Y0054597D03*
X0009631Y0054597D03*
X0020131Y0054597D03*
X0021756Y0054597D03*
X0021756Y0045097D03*
X0020131Y0045097D03*
D64*
X0008631Y0064657D03*
D65*
X0008631Y0045347D03*
X0040006Y0126217D03*
D66*
X0040632Y0126222D03*
X0043507Y0127972D03*
X0047007Y0127972D03*
X0047132Y0127972D03*
X0047132Y0134472D03*
X0043507Y0134472D03*
X0034382Y0134472D03*
X0031382Y0137222D03*
X0025132Y0136722D03*
X0023507Y0131592D03*
X0025007Y0126472D03*
X0031382Y0125222D03*
X0034507Y0127972D03*
X0031382Y0121842D03*
X0034507Y0119092D03*
X0043507Y0119092D03*
X0047132Y0119092D03*
X0047132Y0112592D03*
X0043507Y0112592D03*
X0047132Y0109842D03*
X0025382Y0107092D03*
X0024631Y0112092D03*
X0018131Y0111842D03*
X0016132Y0111842D03*
X0016132Y0106972D03*
X0016132Y0097092D03*
X0025382Y0096972D03*
X0026132Y0090722D03*
X0018131Y0090472D03*
X0016132Y0090472D03*
X0017132Y0079092D03*
X0015131Y0079092D03*
X0016132Y0069592D03*
X0018131Y0069592D03*
X0024631Y0069342D03*
X0025132Y0054972D03*
X0018131Y0054842D03*
X0016132Y0054842D03*
X0016132Y0126592D03*
X0018131Y0126592D03*
X0018131Y0131592D03*
X0008757Y0136722D03*
X0043507Y0149842D03*
X0047132Y0149842D03*
X0043507Y0163222D03*
D67*
X0031132Y0161907D03*
X0034382Y0152657D03*
X0034507Y0152657D03*
X0034632Y0152657D03*
X0034757Y0152657D03*
X0034882Y0152657D03*
X0037257Y0152657D03*
X0037382Y0152657D03*
X0037507Y0152657D03*
X0037632Y0152657D03*
X0037757Y0152657D03*
X0037882Y0152657D03*
X0038007Y0152657D03*
X0043507Y0152657D03*
X0043632Y0152657D03*
X0043757Y0152657D03*
X0043882Y0152657D03*
X0044007Y0152657D03*
X0044132Y0152657D03*
X0044257Y0152657D03*
X0046882Y0152657D03*
X0047007Y0152657D03*
X0047132Y0152657D03*
X0047257Y0152657D03*
X0047382Y0152657D03*
X0047507Y0152657D03*
X0047632Y0152657D03*
X0040757Y0136157D03*
X0038007Y0134407D03*
X0037882Y0134407D03*
X0037757Y0134407D03*
X0037632Y0134407D03*
X0037507Y0134407D03*
X0037382Y0134407D03*
X0037257Y0134407D03*
X0034882Y0134407D03*
X0034757Y0134407D03*
X0034632Y0134407D03*
X0034507Y0134407D03*
X0040632Y0129657D03*
X0040757Y0129657D03*
X0040882Y0129657D03*
X0041007Y0129657D03*
X0041132Y0129657D03*
X0043507Y0129657D03*
X0043632Y0129657D03*
X0043757Y0129657D03*
X0043882Y0129657D03*
X0044007Y0129657D03*
X0044132Y0129657D03*
X0044257Y0129657D03*
X0044257Y0125157D03*
X0044132Y0125157D03*
X0044007Y0125157D03*
X0043882Y0125157D03*
X0043757Y0125157D03*
X0043632Y0125157D03*
X0043507Y0125157D03*
X0046882Y0125157D03*
X0047007Y0125157D03*
X0047132Y0125157D03*
X0047257Y0125157D03*
X0047382Y0125157D03*
X0047507Y0125157D03*
X0047632Y0125157D03*
X0047632Y0121907D03*
X0047507Y0121907D03*
X0047382Y0121907D03*
X0047257Y0121907D03*
X0047132Y0121907D03*
X0047007Y0121907D03*
X0046882Y0121907D03*
X0044257Y0121907D03*
X0044132Y0121907D03*
X0044007Y0121907D03*
X0043882Y0121907D03*
X0043757Y0121907D03*
X0043632Y0121907D03*
X0043507Y0121907D03*
X0038007Y0121907D03*
X0037882Y0121907D03*
X0037757Y0121907D03*
X0037632Y0121907D03*
X0037507Y0121907D03*
X0037382Y0121907D03*
X0037257Y0121907D03*
X0034882Y0121907D03*
X0034757Y0121907D03*
X0034632Y0121907D03*
X0034507Y0121907D03*
X0034382Y0121907D03*
X0031257Y0121907D03*
X0031257Y0125157D03*
X0034382Y0125157D03*
X0034507Y0125157D03*
X0034632Y0125157D03*
X0034757Y0125157D03*
X0034882Y0125157D03*
X0037257Y0125157D03*
X0037382Y0125157D03*
X0037507Y0125157D03*
X0037632Y0125157D03*
X0037757Y0125157D03*
X0037882Y0125157D03*
X0038007Y0125157D03*
X0025132Y0126407D03*
X0008757Y0126407D03*
X0043632Y0134407D03*
X0043757Y0134407D03*
X0043882Y0134407D03*
X0044007Y0134407D03*
X0044132Y0134407D03*
X0044257Y0134407D03*
X0046882Y0134407D03*
X0047007Y0134407D03*
X0047007Y0112657D03*
X0046882Y0112657D03*
X0044257Y0112657D03*
X0044132Y0112657D03*
X0044007Y0112657D03*
X0043882Y0112657D03*
X0043757Y0112657D03*
X0043632Y0112657D03*
X0025507Y0107157D03*
X0008757Y0107157D03*
X0008757Y0096907D03*
X0025507Y0096907D03*
X0023756Y0079407D03*
X0018131Y0059657D03*
X0016132Y0059657D03*
X0009506Y0059907D03*
X0018131Y0044907D03*
D68*
X0025882Y0116782D03*
X0008757Y0116782D03*
D69*
X0015632Y0121597D03*
X0018757Y0121597D03*
X0018757Y0126847D03*
X0018882Y0126847D03*
X0019007Y0126847D03*
X0019132Y0126847D03*
X0019257Y0126847D03*
X0019382Y0126847D03*
X0019507Y0126847D03*
X0019756Y0126847D03*
X0019881Y0126847D03*
X0020006Y0126847D03*
X0020257Y0126847D03*
X0020506Y0126847D03*
X0020631Y0126847D03*
X0020756Y0126847D03*
X0020881Y0126847D03*
X0021006Y0126847D03*
X0021131Y0126847D03*
X0021256Y0126847D03*
X0021381Y0126847D03*
X0021506Y0126847D03*
X0021631Y0126847D03*
X0021882Y0126847D03*
X0022007Y0126847D03*
X0022132Y0126847D03*
X0022257Y0126847D03*
X0022382Y0126847D03*
X0022507Y0126847D03*
X0022632Y0126847D03*
X0022757Y0126847D03*
X0022882Y0126847D03*
X0023007Y0126847D03*
X0023132Y0126847D03*
X0023257Y0126847D03*
X0023382Y0126847D03*
X0023507Y0126847D03*
X0023756Y0126847D03*
X0023881Y0126847D03*
X0024006Y0126847D03*
X0024131Y0126847D03*
X0024256Y0126847D03*
X0023132Y0131597D03*
X0023007Y0131597D03*
X0022882Y0131597D03*
X0022757Y0131597D03*
X0022632Y0131597D03*
X0022507Y0131597D03*
X0022382Y0131597D03*
X0022257Y0131597D03*
X0022132Y0131597D03*
X0022007Y0131597D03*
X0021882Y0131597D03*
X0021631Y0131597D03*
X0021506Y0131597D03*
X0021381Y0131597D03*
X0021256Y0131597D03*
X0021131Y0131597D03*
X0021006Y0131597D03*
X0020881Y0131597D03*
X0020756Y0131597D03*
X0020631Y0131597D03*
X0020506Y0131597D03*
X0020257Y0131597D03*
X0020006Y0131597D03*
X0019881Y0131597D03*
X0019756Y0131597D03*
X0019507Y0131597D03*
X0019382Y0131597D03*
X0019257Y0131597D03*
X0019132Y0131597D03*
X0019007Y0131597D03*
X0018882Y0131597D03*
X0018757Y0131597D03*
X0018632Y0131597D03*
X0015381Y0126847D03*
X0015256Y0126847D03*
X0015131Y0126847D03*
X0015006Y0126847D03*
X0014757Y0126847D03*
X0014632Y0126847D03*
X0014507Y0126847D03*
X0014382Y0126847D03*
X0014257Y0126847D03*
X0014132Y0126847D03*
X0014007Y0126847D03*
X0013756Y0126847D03*
X0013507Y0126847D03*
X0013382Y0126847D03*
X0013257Y0126847D03*
X0013006Y0126847D03*
X0012757Y0126847D03*
X0012632Y0126847D03*
X0012507Y0126847D03*
X0012382Y0126847D03*
X0012131Y0126847D03*
X0011882Y0126847D03*
X0011757Y0126847D03*
X0011632Y0126847D03*
X0011381Y0126847D03*
X0011132Y0126847D03*
X0011007Y0126847D03*
X0010882Y0126847D03*
X0010507Y0126847D03*
X0010132Y0126847D03*
X0009757Y0126847D03*
X0009506Y0136347D03*
X0018757Y0136347D03*
X0024381Y0136347D03*
X0032132Y0136847D03*
X0046882Y0131097D03*
X0032132Y0125597D03*
X0032132Y0121467D03*
X0024256Y0112097D03*
X0024131Y0112097D03*
X0024006Y0112097D03*
X0023881Y0112097D03*
X0023756Y0112097D03*
X0023507Y0112097D03*
X0023382Y0112097D03*
X0023257Y0112097D03*
X0023132Y0112097D03*
X0023007Y0112097D03*
X0022882Y0112097D03*
X0022757Y0112097D03*
X0022632Y0112097D03*
X0022507Y0112097D03*
X0022382Y0112097D03*
X0022257Y0112097D03*
X0022132Y0112097D03*
X0022007Y0112097D03*
X0021882Y0112097D03*
X0021631Y0112097D03*
X0021506Y0112097D03*
X0021381Y0112097D03*
X0021256Y0112097D03*
X0021131Y0112097D03*
X0021006Y0112097D03*
X0020881Y0112097D03*
X0020756Y0112097D03*
X0020631Y0112097D03*
X0020506Y0112097D03*
X0020257Y0112097D03*
X0020006Y0112097D03*
X0019881Y0112097D03*
X0019756Y0112097D03*
X0019507Y0112097D03*
X0019382Y0112097D03*
X0019257Y0112097D03*
X0019132Y0112097D03*
X0019007Y0112097D03*
X0018882Y0112097D03*
X0018757Y0112097D03*
X0015381Y0112097D03*
X0015256Y0112097D03*
X0015131Y0112097D03*
X0015006Y0112097D03*
X0014757Y0112097D03*
X0014632Y0112097D03*
X0014507Y0112097D03*
X0014382Y0112097D03*
X0014257Y0112097D03*
X0014132Y0112097D03*
X0014007Y0112097D03*
X0013756Y0112097D03*
X0013507Y0112097D03*
X0013382Y0112097D03*
X0013257Y0112097D03*
X0013006Y0112097D03*
X0012757Y0112097D03*
X0012632Y0112097D03*
X0012507Y0112097D03*
X0012382Y0112097D03*
X0012131Y0112097D03*
X0011882Y0112097D03*
X0011757Y0112097D03*
X0011632Y0112097D03*
X0011381Y0112097D03*
X0011132Y0112097D03*
X0011007Y0112097D03*
X0010882Y0112097D03*
X0010507Y0112097D03*
X0010132Y0112097D03*
X0010132Y0106717D03*
X0010507Y0106717D03*
X0010882Y0106717D03*
X0011007Y0106717D03*
X0011132Y0106717D03*
X0011381Y0106717D03*
X0011632Y0106717D03*
X0011757Y0106717D03*
X0011882Y0106717D03*
X0012131Y0106717D03*
X0012382Y0106717D03*
X0012507Y0106717D03*
X0012632Y0106717D03*
X0012757Y0106717D03*
X0013006Y0106717D03*
X0013257Y0106717D03*
X0013382Y0106717D03*
X0013507Y0106717D03*
X0013756Y0106717D03*
X0014007Y0106717D03*
X0014132Y0106717D03*
X0014257Y0106717D03*
X0014382Y0106717D03*
X0014507Y0106717D03*
X0014632Y0106717D03*
X0014757Y0106717D03*
X0015006Y0106717D03*
X0015131Y0106717D03*
X0015256Y0106717D03*
X0015381Y0106717D03*
X0018882Y0106717D03*
X0019007Y0106717D03*
X0019132Y0106717D03*
X0019257Y0106717D03*
X0019382Y0106717D03*
X0019507Y0106717D03*
X0019756Y0106717D03*
X0019881Y0106717D03*
X0020006Y0106717D03*
X0020257Y0106717D03*
X0020506Y0106717D03*
X0020631Y0106717D03*
X0020756Y0106717D03*
X0020881Y0106717D03*
X0021006Y0106717D03*
X0021131Y0106717D03*
X0021256Y0106717D03*
X0021381Y0106717D03*
X0021506Y0106717D03*
X0021631Y0106717D03*
X0021882Y0106717D03*
X0022007Y0106717D03*
X0022132Y0106717D03*
X0022257Y0106717D03*
X0022382Y0106717D03*
X0022507Y0106717D03*
X0022632Y0106717D03*
X0022757Y0106717D03*
X0022882Y0106717D03*
X0023007Y0106717D03*
X0023132Y0106717D03*
X0023257Y0106717D03*
X0023382Y0106717D03*
X0023507Y0106717D03*
X0023756Y0106717D03*
X0023881Y0106717D03*
X0024006Y0106717D03*
X0024131Y0106717D03*
X0024256Y0106717D03*
X0024381Y0106717D03*
X0024506Y0106717D03*
X0024631Y0106717D03*
X0018757Y0099847D03*
X0018882Y0097347D03*
X0019007Y0097347D03*
X0019132Y0097347D03*
X0019257Y0097347D03*
X0019382Y0097347D03*
X0019507Y0097347D03*
X0019756Y0097347D03*
X0019881Y0097347D03*
X0020006Y0097347D03*
X0020257Y0097347D03*
X0020506Y0097347D03*
X0020631Y0097347D03*
X0020756Y0097347D03*
X0020881Y0097347D03*
X0021006Y0097347D03*
X0021131Y0097347D03*
X0021256Y0097347D03*
X0021381Y0097347D03*
X0021506Y0097347D03*
X0021631Y0097347D03*
X0021882Y0097347D03*
X0022007Y0097347D03*
X0022132Y0097347D03*
X0022257Y0097347D03*
X0022382Y0097347D03*
X0022507Y0097347D03*
X0022632Y0097347D03*
X0022757Y0097347D03*
X0022882Y0097347D03*
X0023007Y0097347D03*
X0023132Y0097347D03*
X0023257Y0097347D03*
X0023382Y0097347D03*
X0023507Y0097347D03*
X0023756Y0097347D03*
X0023881Y0097347D03*
X0024006Y0097347D03*
X0024131Y0097347D03*
X0024256Y0097347D03*
X0024381Y0097347D03*
X0024506Y0097347D03*
X0024631Y0097347D03*
X0024631Y0090717D03*
X0024506Y0090717D03*
X0024381Y0090717D03*
X0024256Y0090717D03*
X0024131Y0090717D03*
X0024006Y0090717D03*
X0023881Y0090717D03*
X0023756Y0090717D03*
X0023507Y0090717D03*
X0023382Y0090717D03*
X0023257Y0090717D03*
X0023132Y0090717D03*
X0023007Y0090717D03*
X0022882Y0090717D03*
X0022757Y0090717D03*
X0022632Y0090717D03*
X0022507Y0090717D03*
X0022382Y0090717D03*
X0022257Y0090717D03*
X0022132Y0090717D03*
X0022007Y0090717D03*
X0021882Y0090717D03*
X0021631Y0090717D03*
X0021506Y0090717D03*
X0021381Y0090717D03*
X0021256Y0090717D03*
X0021131Y0090717D03*
X0021006Y0090717D03*
X0020881Y0090717D03*
X0020756Y0090717D03*
X0020631Y0090717D03*
X0020506Y0090717D03*
X0020257Y0090717D03*
X0020006Y0090717D03*
X0019881Y0090717D03*
X0019756Y0090717D03*
X0019507Y0090717D03*
X0019382Y0090717D03*
X0019257Y0090717D03*
X0019132Y0090717D03*
X0019007Y0090717D03*
X0018882Y0090717D03*
X0018757Y0090717D03*
X0015381Y0090717D03*
X0015256Y0090717D03*
X0015131Y0090717D03*
X0015006Y0090717D03*
X0014757Y0090717D03*
X0014632Y0090717D03*
X0014507Y0090717D03*
X0014382Y0090717D03*
X0014257Y0090717D03*
X0014132Y0090717D03*
X0014007Y0090717D03*
X0013756Y0090717D03*
X0013507Y0090717D03*
X0013382Y0090717D03*
X0013257Y0090717D03*
X0013006Y0090717D03*
X0012757Y0090717D03*
X0012632Y0090717D03*
X0012507Y0090717D03*
X0012382Y0090717D03*
X0012131Y0090717D03*
X0011882Y0090717D03*
X0011757Y0090717D03*
X0011632Y0090717D03*
X0011381Y0090717D03*
X0011132Y0090717D03*
X0011007Y0090717D03*
X0010882Y0090717D03*
X0010507Y0090717D03*
X0010132Y0090717D03*
X0009757Y0090717D03*
X0009506Y0090717D03*
X0008757Y0090717D03*
X0009757Y0097347D03*
X0010132Y0097347D03*
X0010507Y0097347D03*
X0010882Y0097347D03*
X0011007Y0097347D03*
X0011132Y0097347D03*
X0011381Y0097347D03*
X0011632Y0097347D03*
X0011757Y0097347D03*
X0011882Y0097347D03*
X0012131Y0097347D03*
X0012382Y0097347D03*
X0012507Y0097347D03*
X0012632Y0097347D03*
X0012757Y0097347D03*
X0013006Y0097347D03*
X0013257Y0097347D03*
X0013382Y0097347D03*
X0013507Y0097347D03*
X0013756Y0097347D03*
X0014007Y0097347D03*
X0014132Y0097347D03*
X0014257Y0097347D03*
X0014382Y0097347D03*
X0014507Y0097347D03*
X0014632Y0097347D03*
X0014757Y0097347D03*
X0015006Y0097347D03*
X0015131Y0097347D03*
X0015256Y0097347D03*
X0015381Y0097347D03*
X0024882Y0090717D03*
X0025007Y0090717D03*
X0025132Y0090717D03*
X0025257Y0090717D03*
X0025382Y0090717D03*
X0025507Y0090717D03*
X0025632Y0090717D03*
X0025757Y0090717D03*
X0017757Y0079347D03*
X0014507Y0079347D03*
X0014507Y0069347D03*
X0014632Y0069347D03*
X0014757Y0069347D03*
X0015006Y0069347D03*
X0015131Y0069347D03*
X0015256Y0069347D03*
X0015381Y0069347D03*
X0014382Y0069347D03*
X0014257Y0069347D03*
X0014132Y0069347D03*
X0014007Y0069347D03*
X0013756Y0069347D03*
X0013507Y0069347D03*
X0013382Y0069347D03*
X0013257Y0069347D03*
X0013006Y0069347D03*
X0012757Y0069347D03*
X0012632Y0069347D03*
X0012507Y0069347D03*
X0012382Y0069347D03*
X0012131Y0069347D03*
X0011882Y0069347D03*
X0011757Y0069347D03*
X0011632Y0069347D03*
X0011381Y0069347D03*
X0011132Y0069347D03*
X0011007Y0069347D03*
X0010882Y0069347D03*
X0010507Y0069347D03*
X0010132Y0069347D03*
X0018757Y0069347D03*
X0018882Y0069347D03*
X0019007Y0069347D03*
X0019132Y0069347D03*
X0019257Y0069347D03*
X0019382Y0069347D03*
X0019507Y0069347D03*
X0019756Y0069347D03*
X0019881Y0069347D03*
X0020006Y0069347D03*
X0020257Y0069347D03*
X0020506Y0069347D03*
X0020631Y0069347D03*
X0020756Y0069347D03*
X0020881Y0069347D03*
X0021006Y0069347D03*
X0021131Y0069347D03*
X0021256Y0069347D03*
X0021381Y0069347D03*
X0021506Y0069347D03*
X0021631Y0069347D03*
X0021882Y0069347D03*
X0022007Y0069347D03*
X0022132Y0069347D03*
X0022257Y0069347D03*
X0022382Y0069347D03*
X0022507Y0069347D03*
X0022632Y0069347D03*
X0022757Y0069347D03*
X0022882Y0069347D03*
X0023007Y0069347D03*
X0023132Y0069347D03*
X0023257Y0069347D03*
X0023382Y0069347D03*
X0023507Y0069347D03*
X0023756Y0069347D03*
X0023881Y0069347D03*
X0024006Y0069347D03*
X0024131Y0069347D03*
X0024256Y0069347D03*
X0018757Y0059847D03*
X0018757Y0054597D03*
X0018882Y0054597D03*
X0019007Y0054597D03*
X0019132Y0054597D03*
X0019257Y0054597D03*
X0019382Y0054597D03*
X0019507Y0054597D03*
X0019756Y0054597D03*
X0019881Y0054597D03*
X0020006Y0054597D03*
X0020257Y0054597D03*
X0020506Y0054597D03*
X0020631Y0054597D03*
X0020756Y0054597D03*
X0020881Y0054597D03*
X0021006Y0054597D03*
X0021131Y0054597D03*
X0021256Y0054597D03*
X0021381Y0054597D03*
X0021506Y0054597D03*
X0021631Y0054597D03*
X0021882Y0054597D03*
X0022007Y0054597D03*
X0022132Y0054597D03*
X0022257Y0054597D03*
X0022382Y0054597D03*
X0022507Y0054597D03*
X0022632Y0054597D03*
X0022757Y0054597D03*
X0022882Y0054597D03*
X0023007Y0054597D03*
X0023132Y0054597D03*
X0023257Y0054597D03*
X0023382Y0054597D03*
X0023507Y0054597D03*
X0023756Y0054597D03*
X0023881Y0054597D03*
X0024006Y0054597D03*
X0024131Y0054597D03*
X0024256Y0054597D03*
X0024381Y0054597D03*
X0015381Y0054597D03*
X0015256Y0054597D03*
X0015131Y0054597D03*
X0015006Y0054597D03*
X0014757Y0054597D03*
X0014632Y0054597D03*
X0014507Y0054597D03*
X0014382Y0054597D03*
X0014257Y0054597D03*
X0014132Y0054597D03*
X0014007Y0054597D03*
X0013756Y0054597D03*
X0013507Y0054597D03*
X0013382Y0054597D03*
X0013257Y0054597D03*
X0013006Y0054597D03*
X0012757Y0054597D03*
X0012632Y0054597D03*
X0012507Y0054597D03*
X0012382Y0054597D03*
X0012131Y0054597D03*
X0011882Y0054597D03*
X0011757Y0054597D03*
X0011632Y0054597D03*
X0011381Y0054597D03*
X0011132Y0054597D03*
X0011007Y0054597D03*
X0010882Y0054597D03*
X0010507Y0054597D03*
X0010132Y0054597D03*
X0009757Y0054597D03*
X0015006Y0051097D03*
X0018757Y0045097D03*
X0018882Y0045097D03*
X0019007Y0045097D03*
X0019132Y0045097D03*
X0019257Y0045097D03*
X0019382Y0045097D03*
X0019507Y0045097D03*
X0019756Y0045097D03*
X0019881Y0045097D03*
X0020006Y0045097D03*
X0020257Y0045097D03*
X0020506Y0045097D03*
X0020631Y0045097D03*
X0020756Y0045097D03*
X0020881Y0045097D03*
X0021006Y0045097D03*
X0021131Y0045097D03*
X0021256Y0045097D03*
X0021381Y0045097D03*
X0021506Y0045097D03*
X0021631Y0045097D03*
X0021882Y0045097D03*
X0022007Y0045097D03*
X0022132Y0045097D03*
X0022257Y0045097D03*
X0022382Y0045097D03*
X0022507Y0045097D03*
X0022632Y0045097D03*
X0022757Y0045097D03*
X0022882Y0045097D03*
X0023007Y0045097D03*
X0023132Y0045097D03*
X0023257Y0045097D03*
X0023382Y0045097D03*
X0023507Y0045097D03*
X0023756Y0045097D03*
X0023881Y0045097D03*
X0024006Y0045097D03*
X0024131Y0045097D03*
X0024256Y0045097D03*
X0009757Y0106717D03*
D70*
X0018882Y0099907D03*
X0024006Y0104157D03*
X0032257Y0121407D03*
X0032257Y0125657D03*
X0031632Y0161907D03*
X0023257Y0079407D03*
X0023132Y0079407D03*
X0023007Y0079407D03*
X0022882Y0079407D03*
X0022757Y0079407D03*
X0022632Y0079407D03*
X0022507Y0079407D03*
X0022382Y0079407D03*
X0022257Y0079407D03*
X0022132Y0079407D03*
X0022007Y0079407D03*
X0021882Y0079407D03*
X0021631Y0079407D03*
X0021506Y0079407D03*
X0021381Y0079407D03*
X0021256Y0079407D03*
X0021131Y0079407D03*
X0021006Y0079407D03*
X0020881Y0079407D03*
X0020756Y0079407D03*
X0020631Y0079407D03*
X0020506Y0079407D03*
X0020257Y0079407D03*
X0020006Y0079407D03*
X0019881Y0079407D03*
X0019756Y0079407D03*
X0019507Y0079407D03*
X0019382Y0079407D03*
X0019257Y0079407D03*
X0019132Y0079407D03*
X0019007Y0079407D03*
X0018882Y0079407D03*
X0018757Y0079407D03*
X0018632Y0079407D03*
X0018381Y0079407D03*
X0018256Y0079407D03*
X0018131Y0079407D03*
X0017882Y0079407D03*
X0014382Y0079407D03*
X0014257Y0079407D03*
X0014132Y0079407D03*
X0014007Y0079407D03*
X0013756Y0079407D03*
X0013507Y0079407D03*
X0013382Y0079407D03*
X0013257Y0079407D03*
X0013006Y0079407D03*
X0012757Y0079407D03*
X0012632Y0079407D03*
X0012507Y0079407D03*
X0012382Y0079407D03*
X0012131Y0079407D03*
X0011882Y0079407D03*
X0011757Y0079407D03*
X0011632Y0079407D03*
X0011381Y0079407D03*
X0011132Y0079407D03*
X0011007Y0079407D03*
X0010882Y0079407D03*
X0010507Y0079407D03*
X0010132Y0079407D03*
X0009757Y0079407D03*
X0009506Y0079407D03*
X0008757Y0079407D03*
X0010132Y0059907D03*
X0010507Y0059907D03*
X0010882Y0059907D03*
X0011007Y0059907D03*
X0011132Y0059907D03*
X0011381Y0059907D03*
X0011632Y0059907D03*
X0011757Y0059907D03*
X0011882Y0059907D03*
X0012131Y0059907D03*
X0012382Y0059907D03*
X0012507Y0059907D03*
X0012632Y0059907D03*
X0012757Y0059907D03*
X0013006Y0059907D03*
X0013257Y0059907D03*
X0013382Y0059907D03*
X0013507Y0059907D03*
X0013756Y0059907D03*
X0014007Y0059907D03*
X0014132Y0059907D03*
X0014257Y0059907D03*
X0014382Y0059907D03*
X0014507Y0059907D03*
X0014632Y0059907D03*
X0014757Y0059907D03*
X0015006Y0059907D03*
X0015131Y0059907D03*
X0015256Y0059907D03*
X0015381Y0059907D03*
X0018882Y0059907D03*
X0019007Y0059907D03*
X0019132Y0059907D03*
X0019257Y0059907D03*
X0019382Y0059907D03*
X0019507Y0059907D03*
X0019756Y0059907D03*
X0019881Y0059907D03*
X0020006Y0059907D03*
X0020257Y0059907D03*
X0020506Y0059907D03*
X0020631Y0059907D03*
X0020756Y0059907D03*
X0020881Y0059907D03*
X0021006Y0059907D03*
X0021131Y0059907D03*
X0021256Y0059907D03*
X0021381Y0059907D03*
X0021506Y0059907D03*
X0021631Y0059907D03*
X0021882Y0059907D03*
X0022007Y0059907D03*
X0022132Y0059907D03*
X0022257Y0059907D03*
X0022382Y0059907D03*
X0022507Y0059907D03*
X0022632Y0059907D03*
X0022757Y0059907D03*
X0022882Y0059907D03*
X0023007Y0059907D03*
X0023132Y0059907D03*
X0023257Y0059907D03*
X0023382Y0059907D03*
X0023507Y0059907D03*
X0023756Y0059907D03*
X0023881Y0059907D03*
X0024006Y0059907D03*
X0024131Y0059907D03*
X0024256Y0059907D03*
D71*
X0025882Y0064657D03*
X0008757Y0064657D03*
X0025132Y0079407D03*
X0047382Y0131157D03*
D72*
X0044257Y0132532D03*
X0044132Y0132532D03*
X0044007Y0132532D03*
X0043882Y0132532D03*
X0043757Y0132532D03*
X0043632Y0132532D03*
X0043507Y0132532D03*
X0041132Y0132532D03*
X0041007Y0132532D03*
X0040882Y0132532D03*
X0040757Y0132532D03*
X0040632Y0132532D03*
X0038007Y0137282D03*
X0037882Y0137282D03*
X0037757Y0137282D03*
X0037632Y0137282D03*
X0037507Y0137282D03*
X0037382Y0137282D03*
X0037257Y0137282D03*
X0034882Y0137282D03*
X0034757Y0137282D03*
X0034632Y0137282D03*
X0034507Y0137282D03*
X0034382Y0137282D03*
X0031257Y0137282D03*
X0025257Y0136782D03*
X0018131Y0136532D03*
X0016132Y0136532D03*
X0034632Y0128032D03*
X0034757Y0128032D03*
X0034882Y0128032D03*
X0037257Y0128032D03*
X0037382Y0128032D03*
X0037507Y0128032D03*
X0037632Y0128032D03*
X0037757Y0128032D03*
X0037882Y0128032D03*
X0038007Y0128032D03*
X0043632Y0128032D03*
X0043757Y0128032D03*
X0043882Y0128032D03*
X0044007Y0128032D03*
X0044132Y0128032D03*
X0044257Y0128032D03*
X0046882Y0128032D03*
X0046882Y0119032D03*
X0047007Y0119032D03*
X0044257Y0119032D03*
X0044132Y0119032D03*
X0044007Y0119032D03*
X0043882Y0119032D03*
X0043757Y0119032D03*
X0043632Y0119032D03*
X0038007Y0119032D03*
X0037882Y0119032D03*
X0037757Y0119032D03*
X0037632Y0119032D03*
X0037507Y0119032D03*
X0037382Y0119032D03*
X0037257Y0119032D03*
X0034882Y0119032D03*
X0034757Y0119032D03*
X0034632Y0119032D03*
X0018131Y0121782D03*
X0016132Y0121782D03*
X0009506Y0121532D03*
X0018131Y0107032D03*
X0018131Y0097032D03*
X0043507Y0109782D03*
X0043632Y0109782D03*
X0043757Y0109782D03*
X0043882Y0109782D03*
X0044007Y0109782D03*
X0044132Y0109782D03*
X0044257Y0109782D03*
X0046882Y0109782D03*
X0047007Y0109782D03*
X0047007Y0137282D03*
X0046882Y0137282D03*
X0047132Y0137282D03*
X0047257Y0137282D03*
X0047382Y0137282D03*
X0047507Y0137282D03*
X0047632Y0137282D03*
X0044257Y0137282D03*
X0044132Y0137282D03*
X0044007Y0137282D03*
X0043882Y0137282D03*
X0043757Y0137282D03*
X0043632Y0137282D03*
X0043507Y0137282D03*
X0043632Y0149782D03*
X0043757Y0149782D03*
X0043882Y0149782D03*
X0044007Y0149782D03*
X0044132Y0149782D03*
X0044257Y0149782D03*
X0046882Y0149782D03*
X0047007Y0149782D03*
X0038007Y0149782D03*
X0037882Y0149782D03*
X0037757Y0149782D03*
X0037632Y0149782D03*
X0037507Y0149782D03*
X0037382Y0149782D03*
X0037257Y0149782D03*
X0040757Y0161532D03*
X0038007Y0163282D03*
X0037882Y0163282D03*
X0037757Y0163282D03*
X0037632Y0163282D03*
X0037507Y0163282D03*
X0037382Y0163282D03*
X0037257Y0163282D03*
X0034882Y0163282D03*
X0034757Y0163282D03*
X0034632Y0163282D03*
X0034507Y0163282D03*
X0034382Y0163282D03*
X0043632Y0163282D03*
X0043757Y0163282D03*
X0043882Y0163282D03*
X0044007Y0163282D03*
X0044132Y0163282D03*
X0044257Y0163282D03*
X0025257Y0055032D03*
X0008757Y0055032D03*
D73*
X0008757Y0045407D03*
X0019382Y0100157D03*
X0023507Y0103907D03*
X0049882Y0121157D03*
X0049882Y0125907D03*
X0049882Y0151907D03*
X0032132Y0151907D03*
X0031882Y0161907D03*
D74*
X0042506Y0160657D03*
X0043256Y0163157D03*
X0045631Y0163157D03*
X0045631Y0160657D03*
X0039381Y0137157D03*
X0045631Y0132407D03*
X0038631Y0127907D03*
X0008881Y0136657D03*
X0023631Y0079407D03*
D75*
X0008881Y0096972D03*
X0008881Y0107092D03*
X0038631Y0119092D03*
X0039381Y0121842D03*
X0042756Y0121842D03*
X0042756Y0125222D03*
X0039381Y0125222D03*
X0040131Y0129722D03*
X0045631Y0129722D03*
X0040131Y0132472D03*
X0038631Y0134472D03*
X0042756Y0137222D03*
X0038631Y0149842D03*
X0035006Y0149842D03*
X0042756Y0152592D03*
X0039381Y0160592D03*
X0038631Y0163222D03*
X0032881Y0163222D03*
X0032881Y0160592D03*
X0049256Y0168342D03*
X0008881Y0126472D03*
X0042756Y0109842D03*
X0008881Y0054972D03*
D76*
X0008881Y0116782D03*
D77*
X0008881Y0079407D03*
X0009131Y0079407D03*
X0009381Y0079407D03*
X0009881Y0079407D03*
X0010256Y0079407D03*
X0010631Y0079407D03*
X0011256Y0079407D03*
X0012006Y0079407D03*
X0012881Y0079407D03*
X0013631Y0079407D03*
X0018006Y0079407D03*
X0019631Y0079407D03*
X0020381Y0079407D03*
X0020381Y0059907D03*
X0019631Y0059907D03*
X0023631Y0059907D03*
X0014881Y0059907D03*
X0013631Y0059907D03*
X0012881Y0059907D03*
X0012006Y0059907D03*
X0011256Y0059907D03*
X0010631Y0059907D03*
X0010256Y0059907D03*
D78*
X0008881Y0064657D03*
D79*
X0008881Y0045472D03*
X0032881Y0121092D03*
X0032881Y0125972D03*
X0039881Y0126222D03*
X0048506Y0127222D03*
X0032881Y0136472D03*
X0033631Y0150472D03*
D80*
X0009006Y0116782D03*
D81*
X0009006Y0064657D03*
D82*
X0012256Y0048782D03*
X0011506Y0048032D03*
X0010756Y0047282D03*
X0010006Y0046532D03*
X0009256Y0045782D03*
X0009006Y0045532D03*
X0049631Y0121032D03*
X0049631Y0126032D03*
X0039256Y0131032D03*
X0049631Y0151782D03*
D83*
X0049256Y0155282D03*
X0049506Y0155532D03*
X0045881Y0160782D03*
X0046131Y0161032D03*
X0046131Y0162782D03*
X0045881Y0163032D03*
X0041756Y0142782D03*
X0041506Y0142532D03*
X0041256Y0142282D03*
X0039631Y0137032D03*
X0039631Y0135282D03*
X0039381Y0135032D03*
X0039131Y0134782D03*
X0042506Y0135282D03*
X0042756Y0135032D03*
X0043006Y0134782D03*
X0045881Y0132282D03*
X0046131Y0132032D03*
X0038631Y0131032D03*
X0038881Y0127782D03*
X0039131Y0127532D03*
X0039381Y0127282D03*
X0039631Y0127032D03*
X0034131Y0127782D03*
X0033881Y0127532D03*
X0033631Y0127282D03*
X0033381Y0127032D03*
X0033131Y0126782D03*
X0033131Y0120282D03*
X0033381Y0120032D03*
X0033631Y0119782D03*
X0033881Y0119532D03*
X0034131Y0119282D03*
X0040381Y0112032D03*
X0047756Y0110282D03*
X0049256Y0111782D03*
X0049506Y0112032D03*
X0009131Y0136532D03*
D84*
X0009131Y0126597D03*
X0033131Y0135597D03*
X0033381Y0135347D03*
X0033631Y0135097D03*
X0033881Y0134847D03*
X0034131Y0134597D03*
X0038881Y0134597D03*
X0039881Y0132347D03*
X0039631Y0132097D03*
X0039631Y0130097D03*
X0039881Y0129847D03*
X0042756Y0127347D03*
X0043006Y0127597D03*
X0043256Y0127847D03*
X0041506Y0126217D03*
X0042506Y0125347D03*
X0039631Y0125347D03*
X0039631Y0121717D03*
X0038881Y0119217D03*
X0042506Y0121717D03*
X0043256Y0119217D03*
X0043256Y0112467D03*
X0042506Y0109967D03*
X0009131Y0106967D03*
X0009131Y0097097D03*
X0045881Y0129847D03*
X0046131Y0130097D03*
X0043256Y0134597D03*
X0041506Y0136217D03*
X0042506Y0137097D03*
X0049006Y0142097D03*
X0048756Y0142347D03*
X0048506Y0142597D03*
X0049256Y0141847D03*
X0049506Y0141597D03*
X0040381Y0142717D03*
X0038881Y0149967D03*
X0043256Y0149967D03*
X0042506Y0152467D03*
X0039631Y0160717D03*
X0038881Y0163097D03*
X0042506Y0162467D03*
X0042756Y0162717D03*
X0043006Y0162967D03*
X0032631Y0163097D03*
X0032631Y0160717D03*
X0049506Y0168217D03*
X0009131Y0054847D03*
D85*
X0009131Y0116782D03*
D86*
X0009131Y0064657D03*
X0016381Y0049907D03*
D87*
X0013631Y0050157D03*
X0012881Y0049407D03*
X0010631Y0047157D03*
X0009881Y0046407D03*
X0009381Y0045907D03*
X0009131Y0045657D03*
X0039881Y0136157D03*
X0042256Y0136157D03*
X0046381Y0161907D03*
D88*
X0046006Y0162907D03*
X0046006Y0160907D03*
X0049631Y0155657D03*
X0049381Y0155407D03*
X0049631Y0168157D03*
X0041881Y0142907D03*
X0041631Y0142657D03*
X0041381Y0142407D03*
X0040506Y0142657D03*
X0040256Y0142907D03*
X0040506Y0136157D03*
X0039506Y0135157D03*
X0039256Y0134907D03*
X0039006Y0134657D03*
X0042631Y0135157D03*
X0042881Y0134907D03*
X0043131Y0134657D03*
X0046006Y0132157D03*
X0046256Y0131907D03*
X0039506Y0130157D03*
X0039006Y0127657D03*
X0039256Y0127407D03*
X0039506Y0127157D03*
X0034006Y0127657D03*
X0033756Y0127407D03*
X0033506Y0127157D03*
X0033256Y0126907D03*
X0033006Y0126657D03*
X0033006Y0120407D03*
X0033256Y0120157D03*
X0033506Y0119907D03*
X0033756Y0119657D03*
X0034006Y0119407D03*
X0040256Y0112157D03*
X0040506Y0111907D03*
X0043131Y0112407D03*
X0049381Y0111907D03*
X0049631Y0112157D03*
X0018506Y0106907D03*
X0009256Y0106907D03*
X0009256Y0097157D03*
X0018506Y0097157D03*
X0009256Y0126657D03*
D89*
X0009256Y0116782D03*
D90*
X0009256Y0112097D03*
X0015506Y0079097D03*
X0009256Y0069347D03*
D91*
X0009256Y0064657D03*
D92*
X0009256Y0054782D03*
X0024756Y0054782D03*
X0043131Y0119282D03*
X0042631Y0127282D03*
X0024756Y0136532D03*
X0032756Y0141782D03*
X0033006Y0142032D03*
X0033256Y0142282D03*
X0033506Y0142532D03*
X0033756Y0142782D03*
X0039006Y0150032D03*
X0043131Y0150032D03*
X0048631Y0155782D03*
X0048381Y0156032D03*
X0048881Y0155532D03*
X0049131Y0155282D03*
X0041631Y0161532D03*
X0040506Y0161532D03*
X0039506Y0162532D03*
X0039256Y0162782D03*
X0039006Y0163032D03*
X0048381Y0167782D03*
X0048631Y0168032D03*
D93*
X0040381Y0126222D03*
X0009381Y0126722D03*
X0009881Y0112092D03*
X0009381Y0106842D03*
X0009381Y0097222D03*
X0009881Y0069342D03*
X0009381Y0054722D03*
D94*
X0009381Y0116782D03*
D95*
X0016381Y0121722D03*
X0016381Y0126592D03*
X0016381Y0111842D03*
X0016381Y0106972D03*
X0009381Y0112092D03*
X0016381Y0097092D03*
X0016381Y0090472D03*
X0016381Y0069592D03*
X0009381Y0069342D03*
X0016381Y0054842D03*
D96*
X0009381Y0064657D03*
D97*
X0009506Y0116782D03*
X0026632Y0116782D03*
D98*
X0031132Y0121967D03*
X0031132Y0125097D03*
X0025257Y0126347D03*
X0016257Y0126597D03*
X0016257Y0121717D03*
X0016257Y0111847D03*
X0016257Y0106967D03*
X0009506Y0112097D03*
X0025632Y0107217D03*
X0025632Y0096847D03*
X0016257Y0097097D03*
X0016257Y0090467D03*
X0026257Y0090717D03*
X0015256Y0079097D03*
X0016257Y0069597D03*
X0009506Y0069347D03*
X0016257Y0054847D03*
X0025382Y0055097D03*
X0040757Y0126217D03*
X0031132Y0137347D03*
X0025382Y0136847D03*
X0034382Y0160467D03*
X0034507Y0160467D03*
X0034632Y0160467D03*
X0034757Y0160467D03*
X0034882Y0160467D03*
X0037257Y0160467D03*
X0037382Y0160467D03*
X0037507Y0160467D03*
X0037632Y0160467D03*
X0037757Y0160467D03*
X0037882Y0160467D03*
X0038007Y0160467D03*
X0043507Y0160467D03*
X0043632Y0160467D03*
X0043757Y0160467D03*
X0043882Y0160467D03*
X0044007Y0160467D03*
X0044132Y0160467D03*
X0044257Y0160467D03*
D99*
X0026632Y0064657D03*
X0009506Y0064657D03*
D100*
X0015632Y0069407D03*
X0018632Y0069407D03*
X0023382Y0079407D03*
X0018632Y0090657D03*
X0015632Y0090657D03*
X0015757Y0121657D03*
X0018632Y0121657D03*
X0018632Y0136407D03*
X0015632Y0136407D03*
X0024506Y0136407D03*
X0032007Y0136907D03*
X0031507Y0161907D03*
X0046882Y0161907D03*
X0024381Y0059907D03*
X0024506Y0054657D03*
X0018632Y0054657D03*
X0015632Y0054657D03*
X0009506Y0054657D03*
X0015131Y0051157D03*
X0024381Y0045157D03*
D101*
X0014007Y0050532D03*
X0013756Y0050282D03*
X0013507Y0050032D03*
X0013257Y0049782D03*
X0013006Y0049532D03*
X0012757Y0049282D03*
X0012507Y0049032D03*
X0011757Y0048282D03*
X0011007Y0047532D03*
X0010507Y0047032D03*
X0009757Y0046282D03*
X0009506Y0046032D03*
X0023257Y0103782D03*
X0032382Y0151782D03*
D102*
X0040256Y0161532D03*
X0041881Y0161532D03*
X0021756Y0136282D03*
X0020131Y0136282D03*
X0013881Y0136282D03*
X0013131Y0136282D03*
X0012256Y0136282D03*
X0011506Y0136282D03*
X0010756Y0136282D03*
X0010381Y0136282D03*
X0010006Y0136282D03*
X0009631Y0136282D03*
X0010381Y0121532D03*
X0010756Y0121532D03*
X0011506Y0121532D03*
X0012256Y0121532D03*
X0013131Y0121532D03*
X0013881Y0121532D03*
X0020131Y0121532D03*
X0021756Y0121532D03*
D103*
X0038506Y0127972D03*
X0041381Y0126222D03*
X0045506Y0132472D03*
X0041381Y0136222D03*
X0039256Y0137222D03*
X0039256Y0152592D03*
X0042631Y0160592D03*
X0043381Y0163222D03*
X0045506Y0163222D03*
X0045506Y0160592D03*
X0049131Y0168342D03*
X0009631Y0112092D03*
X0009631Y0069342D03*
D104*
X0013881Y0050407D03*
X0013131Y0049657D03*
X0010381Y0046907D03*
X0009631Y0046157D03*
X0049631Y0136407D03*
D105*
X0032257Y0136782D03*
X0024256Y0136282D03*
X0024131Y0136282D03*
X0024006Y0136282D03*
X0023881Y0136282D03*
X0023756Y0136282D03*
X0023507Y0136282D03*
X0023382Y0136282D03*
X0023257Y0136282D03*
X0023132Y0136282D03*
X0023007Y0136282D03*
X0022882Y0136282D03*
X0022757Y0136282D03*
X0022632Y0136282D03*
X0022507Y0136282D03*
X0022382Y0136282D03*
X0022257Y0136282D03*
X0022132Y0136282D03*
X0022007Y0136282D03*
X0021882Y0136282D03*
X0021631Y0136282D03*
X0021506Y0136282D03*
X0021381Y0136282D03*
X0021256Y0136282D03*
X0021131Y0136282D03*
X0021006Y0136282D03*
X0020881Y0136282D03*
X0020756Y0136282D03*
X0020631Y0136282D03*
X0020506Y0136282D03*
X0020257Y0136282D03*
X0020006Y0136282D03*
X0019881Y0136282D03*
X0019756Y0136282D03*
X0019507Y0136282D03*
X0019382Y0136282D03*
X0019257Y0136282D03*
X0019132Y0136282D03*
X0019007Y0136282D03*
X0018882Y0136282D03*
X0015381Y0136282D03*
X0015256Y0136282D03*
X0015131Y0136282D03*
X0015006Y0136282D03*
X0014757Y0136282D03*
X0014632Y0136282D03*
X0014507Y0136282D03*
X0014382Y0136282D03*
X0014257Y0136282D03*
X0014132Y0136282D03*
X0014007Y0136282D03*
X0013756Y0136282D03*
X0013507Y0136282D03*
X0013382Y0136282D03*
X0013257Y0136282D03*
X0013006Y0136282D03*
X0012757Y0136282D03*
X0012632Y0136282D03*
X0012507Y0136282D03*
X0012382Y0136282D03*
X0012131Y0136282D03*
X0011882Y0136282D03*
X0011757Y0136282D03*
X0011632Y0136282D03*
X0011381Y0136282D03*
X0011132Y0136282D03*
X0011007Y0136282D03*
X0010882Y0136282D03*
X0010507Y0136282D03*
X0010132Y0136282D03*
X0009757Y0136282D03*
X0010132Y0121532D03*
X0010507Y0121532D03*
X0010882Y0121532D03*
X0011007Y0121532D03*
X0011132Y0121532D03*
X0011381Y0121532D03*
X0011632Y0121532D03*
X0011757Y0121532D03*
X0011882Y0121532D03*
X0012131Y0121532D03*
X0012382Y0121532D03*
X0012507Y0121532D03*
X0012632Y0121532D03*
X0012757Y0121532D03*
X0013006Y0121532D03*
X0013257Y0121532D03*
X0013382Y0121532D03*
X0013507Y0121532D03*
X0013756Y0121532D03*
X0014007Y0121532D03*
X0014132Y0121532D03*
X0014257Y0121532D03*
X0014382Y0121532D03*
X0014507Y0121532D03*
X0014632Y0121532D03*
X0014757Y0121532D03*
X0015006Y0121532D03*
X0015131Y0121532D03*
X0015256Y0121532D03*
X0015381Y0121532D03*
X0018882Y0121532D03*
X0019007Y0121532D03*
X0019132Y0121532D03*
X0019257Y0121532D03*
X0019382Y0121532D03*
X0019507Y0121532D03*
X0019756Y0121532D03*
X0019881Y0121532D03*
X0020006Y0121532D03*
X0020257Y0121532D03*
X0020506Y0121532D03*
X0020631Y0121532D03*
X0020756Y0121532D03*
X0020881Y0121532D03*
X0021006Y0121532D03*
X0021131Y0121532D03*
X0021256Y0121532D03*
X0021381Y0121532D03*
X0021506Y0121532D03*
X0021631Y0121532D03*
X0021882Y0121532D03*
X0022007Y0121532D03*
X0022132Y0121532D03*
X0022257Y0121532D03*
X0022382Y0121532D03*
X0022507Y0121532D03*
X0022632Y0121532D03*
X0022757Y0121532D03*
X0022882Y0121532D03*
X0023007Y0121532D03*
X0023132Y0121532D03*
X0023257Y0121532D03*
X0023382Y0121532D03*
X0023507Y0121532D03*
X0023756Y0121532D03*
X0023881Y0121532D03*
X0024006Y0121532D03*
X0024131Y0121532D03*
X0024256Y0121532D03*
X0040757Y0120282D03*
X0040757Y0151032D03*
D106*
X0034882Y0149847D03*
X0040882Y0142217D03*
X0049757Y0141347D03*
X0049882Y0141217D03*
X0050007Y0141097D03*
X0031632Y0137097D03*
X0024882Y0136597D03*
X0023382Y0131597D03*
X0018256Y0131597D03*
X0018256Y0126597D03*
X0016007Y0126597D03*
X0016007Y0121717D03*
X0031632Y0121717D03*
X0031632Y0125347D03*
X0047132Y0131097D03*
X0024506Y0112097D03*
X0025132Y0106967D03*
X0018381Y0106967D03*
X0016007Y0106967D03*
X0016007Y0111847D03*
X0018256Y0111847D03*
X0009757Y0112097D03*
X0016007Y0097097D03*
X0018381Y0097097D03*
X0025132Y0097097D03*
X0026007Y0090717D03*
X0018256Y0090467D03*
X0016007Y0090467D03*
X0015006Y0079097D03*
X0017257Y0079097D03*
X0018256Y0069597D03*
X0016007Y0069597D03*
X0009757Y0069347D03*
X0024506Y0069347D03*
X0024882Y0054847D03*
X0018256Y0054847D03*
X0016007Y0054847D03*
X0047382Y0109967D03*
D107*
X0023631Y0121532D03*
X0020381Y0121532D03*
X0019631Y0121532D03*
X0014881Y0121532D03*
X0013631Y0121532D03*
X0012881Y0121532D03*
X0012006Y0121532D03*
X0011256Y0121532D03*
X0010631Y0121532D03*
X0010256Y0121532D03*
X0038881Y0131032D03*
X0023631Y0136282D03*
X0020381Y0136282D03*
X0019631Y0136282D03*
X0014881Y0136282D03*
X0013631Y0136282D03*
X0012881Y0136282D03*
X0012006Y0136282D03*
X0011256Y0136282D03*
X0010631Y0136282D03*
X0010256Y0136282D03*
X0009881Y0136282D03*
X0014881Y0051032D03*
D108*
X0009881Y0121532D03*
X0040381Y0161532D03*
X0041756Y0161532D03*
D109*
X0010006Y0059907D03*
D110*
X0014132Y0050657D03*
X0013382Y0049907D03*
X0012632Y0049157D03*
X0012382Y0048907D03*
X0012131Y0048657D03*
X0011882Y0048407D03*
X0011632Y0048157D03*
X0011381Y0047907D03*
X0011132Y0047657D03*
X0010882Y0047407D03*
X0010132Y0046657D03*
X0032007Y0161907D03*
D111*
X0039881Y0161532D03*
X0042256Y0161532D03*
X0040381Y0151032D03*
X0040381Y0120282D03*
X0019631Y0100282D03*
X0012006Y0048532D03*
X0011256Y0047782D03*
X0010256Y0046782D03*
D112*
X0014257Y0050722D03*
X0019507Y0100222D03*
X0023382Y0103842D03*
X0049757Y0121092D03*
X0049757Y0125972D03*
X0049757Y0136472D03*
X0049757Y0151842D03*
X0032257Y0151842D03*
D113*
X0049882Y0136532D03*
X0014382Y0050782D03*
D114*
X0014507Y0050847D03*
X0019257Y0100097D03*
X0050007Y0121217D03*
X0050007Y0125847D03*
X0050007Y0136597D03*
X0050007Y0151967D03*
D115*
X0031757Y0161907D03*
X0032507Y0136657D03*
X0014632Y0050907D03*
D116*
X0015256Y0051222D03*
X0015757Y0054722D03*
X0015757Y0059722D03*
X0024631Y0054722D03*
X0024381Y0069342D03*
X0015757Y0069472D03*
X0014757Y0079222D03*
X0017507Y0079222D03*
X0015757Y0090592D03*
X0025882Y0090722D03*
X0024882Y0097222D03*
X0018632Y0097222D03*
X0015757Y0097222D03*
X0024256Y0104342D03*
X0024381Y0104342D03*
X0024882Y0106842D03*
X0024381Y0112092D03*
X0018632Y0106842D03*
X0015757Y0106842D03*
X0015757Y0111972D03*
X0015882Y0121722D03*
X0015757Y0126722D03*
X0018381Y0131592D03*
X0023257Y0131592D03*
X0024506Y0126722D03*
X0031882Y0125472D03*
X0031882Y0121592D03*
X0041132Y0120342D03*
X0041132Y0111342D03*
X0047007Y0131092D03*
X0031882Y0136972D03*
X0024631Y0136472D03*
X0015757Y0136472D03*
X0041132Y0150972D03*
D117*
X0030881Y0153092D03*
X0030381Y0137722D03*
X0026132Y0137222D03*
X0016631Y0136592D03*
X0017632Y0131592D03*
X0017632Y0126592D03*
X0016631Y0126592D03*
X0024006Y0131592D03*
X0026007Y0125972D03*
X0030381Y0124722D03*
X0030381Y0122342D03*
X0016631Y0121722D03*
X0016631Y0111842D03*
X0017632Y0111842D03*
X0016631Y0106972D03*
X0026382Y0107592D03*
X0026382Y0096472D03*
X0016631Y0097092D03*
X0016631Y0090472D03*
X0017632Y0090472D03*
X0016631Y0079092D03*
X0015632Y0079092D03*
X0016631Y0069592D03*
X0017632Y0069592D03*
X0025132Y0069342D03*
X0017632Y0059592D03*
X0016631Y0059592D03*
X0016631Y0054842D03*
X0017632Y0054842D03*
X0026132Y0055472D03*
X0017632Y0044842D03*
D118*
X0018256Y0097032D03*
X0018256Y0099532D03*
X0025257Y0097032D03*
X0024631Y0104532D03*
X0025257Y0107032D03*
X0018256Y0107032D03*
X0018256Y0121782D03*
X0024631Y0121532D03*
X0031507Y0121782D03*
X0031507Y0125282D03*
X0024882Y0126532D03*
X0018256Y0136532D03*
X0016007Y0136532D03*
X0040632Y0161532D03*
D119*
X0047132Y0161907D03*
X0031257Y0161907D03*
X0031507Y0137157D03*
X0025007Y0136657D03*
X0040632Y0136157D03*
X0034382Y0127907D03*
X0034382Y0119157D03*
X0047257Y0109907D03*
X0024631Y0059907D03*
X0025007Y0054907D03*
X0018256Y0059657D03*
X0016007Y0059657D03*
X0018256Y0044907D03*
X0024631Y0045157D03*
D120*
X0016257Y0049907D03*
X0025007Y0064657D03*
X0026382Y0064657D03*
D121*
X0016381Y0059657D03*
D122*
X0026132Y0064657D03*
X0024882Y0079407D03*
X0016506Y0049907D03*
D123*
X0016756Y0049847D03*
X0017507Y0049847D03*
X0025632Y0049847D03*
X0025632Y0064597D03*
X0047507Y0115847D03*
X0025632Y0116847D03*
X0025632Y0131597D03*
X0047507Y0131217D03*
X0034382Y0146847D03*
D124*
X0025757Y0131592D03*
X0047632Y0115842D03*
X0017382Y0049842D03*
X0016881Y0049842D03*
D125*
X0017006Y0049847D03*
X0042881Y0115847D03*
D126*
X0025507Y0079407D03*
X0017132Y0049907D03*
D127*
X0017257Y0049847D03*
X0025882Y0131597D03*
D128*
X0026257Y0137282D03*
X0030256Y0137782D03*
X0037882Y0131032D03*
X0025257Y0121532D03*
X0017632Y0121782D03*
X0025257Y0112032D03*
X0017632Y0107032D03*
X0017632Y0097032D03*
X0026632Y0090782D03*
X0026257Y0055532D03*
X0017632Y0136532D03*
D129*
X0025382Y0131597D03*
X0047257Y0131217D03*
X0025382Y0116847D03*
X0047257Y0115847D03*
X0047507Y0146847D03*
X0034632Y0146847D03*
X0025382Y0064597D03*
X0025382Y0049847D03*
X0017757Y0049847D03*
D130*
X0025757Y0055282D03*
X0017882Y0097032D03*
X0017882Y0107032D03*
X0017882Y0121782D03*
X0025007Y0121532D03*
X0025757Y0137032D03*
X0030756Y0137532D03*
X0017882Y0136532D03*
X0041007Y0161532D03*
X0041132Y0161532D03*
D131*
X0030881Y0161907D03*
X0041007Y0136157D03*
X0041007Y0126157D03*
X0030756Y0124907D03*
X0030756Y0122157D03*
X0025632Y0126157D03*
X0026007Y0107407D03*
X0026007Y0096657D03*
X0024006Y0079407D03*
X0025007Y0059907D03*
X0017882Y0059657D03*
X0025007Y0045157D03*
D132*
X0025257Y0049842D03*
X0017882Y0049842D03*
X0025257Y0064592D03*
X0025257Y0116842D03*
X0025257Y0131592D03*
X0034757Y0146842D03*
D133*
X0018006Y0049847D03*
D134*
X0018131Y0049907D03*
X0024882Y0064657D03*
X0026507Y0064657D03*
D135*
X0019132Y0100032D03*
X0023756Y0104032D03*
X0032507Y0121282D03*
X0032507Y0125782D03*
X0040632Y0120282D03*
X0040632Y0151032D03*
D136*
X0032507Y0151717D03*
X0023132Y0103717D03*
X0023007Y0103597D03*
X0022882Y0103467D03*
X0022757Y0103347D03*
X0022632Y0103217D03*
X0022507Y0103097D03*
X0022382Y0102967D03*
X0022257Y0102847D03*
X0022132Y0102717D03*
X0022007Y0102597D03*
X0021882Y0102467D03*
X0021631Y0102217D03*
X0021506Y0102097D03*
X0021381Y0101967D03*
X0021256Y0101847D03*
X0021131Y0101717D03*
X0021006Y0101597D03*
X0020881Y0101467D03*
X0020756Y0101347D03*
X0020631Y0101217D03*
X0020506Y0101097D03*
X0020257Y0100847D03*
X0020006Y0100597D03*
X0019881Y0100467D03*
X0019756Y0100347D03*
D137*
X0020131Y0100717D03*
X0021756Y0102347D03*
X0039756Y0126217D03*
D138*
X0042256Y0126217D03*
X0039381Y0131097D03*
X0046381Y0131097D03*
X0049506Y0126097D03*
X0049506Y0120967D03*
X0041756Y0120347D03*
X0041756Y0111347D03*
X0048506Y0111717D03*
X0020381Y0100967D03*
X0049506Y0136347D03*
X0049506Y0151717D03*
X0041756Y0150967D03*
D139*
X0041506Y0150967D03*
X0032631Y0136597D03*
X0046631Y0131097D03*
X0042006Y0126217D03*
X0032631Y0125847D03*
X0032631Y0121217D03*
X0041506Y0120347D03*
X0041506Y0111347D03*
X0048756Y0111717D03*
X0023631Y0103967D03*
D140*
X0024756Y0116782D03*
D141*
X0024756Y0106782D03*
X0024756Y0097282D03*
X0038756Y0131032D03*
D142*
X0024756Y0079407D03*
D143*
X0024756Y0064657D03*
D144*
X0024756Y0059907D03*
X0024756Y0045157D03*
X0044506Y0112657D03*
X0044756Y0112657D03*
X0045006Y0112657D03*
X0045256Y0112657D03*
X0045506Y0112657D03*
X0045756Y0112657D03*
X0046006Y0112657D03*
X0046256Y0112657D03*
X0046506Y0112657D03*
X0046756Y0112657D03*
X0046756Y0121907D03*
X0046506Y0121907D03*
X0046256Y0121907D03*
X0046006Y0121907D03*
X0045756Y0121907D03*
X0045506Y0121907D03*
X0045256Y0121907D03*
X0045006Y0121907D03*
X0044756Y0121907D03*
X0044506Y0121907D03*
X0043381Y0121907D03*
X0043131Y0121907D03*
X0042881Y0121907D03*
X0039256Y0121907D03*
X0039006Y0121907D03*
X0038756Y0121907D03*
X0038506Y0121907D03*
X0038256Y0121907D03*
X0037131Y0121907D03*
X0036881Y0121907D03*
X0036631Y0121907D03*
X0036381Y0121907D03*
X0036131Y0121907D03*
X0035881Y0121907D03*
X0035631Y0121907D03*
X0035381Y0121907D03*
X0035131Y0121907D03*
X0034256Y0121907D03*
X0034006Y0121907D03*
X0033756Y0121907D03*
X0033506Y0121907D03*
X0033256Y0121907D03*
X0033006Y0121907D03*
X0033006Y0125157D03*
X0033256Y0125157D03*
X0033506Y0125157D03*
X0033756Y0125157D03*
X0034006Y0125157D03*
X0034256Y0125157D03*
X0035131Y0125157D03*
X0035381Y0125157D03*
X0035631Y0125157D03*
X0035881Y0125157D03*
X0036131Y0125157D03*
X0036381Y0125157D03*
X0036631Y0125157D03*
X0036881Y0125157D03*
X0037131Y0125157D03*
X0038256Y0125157D03*
X0038506Y0125157D03*
X0038756Y0125157D03*
X0039006Y0125157D03*
X0039256Y0125157D03*
X0042881Y0125157D03*
X0043131Y0125157D03*
X0043381Y0125157D03*
X0044506Y0125157D03*
X0044756Y0125157D03*
X0045006Y0125157D03*
X0045256Y0125157D03*
X0045506Y0125157D03*
X0045756Y0125157D03*
X0046006Y0125157D03*
X0046256Y0125157D03*
X0046506Y0125157D03*
X0046756Y0125157D03*
X0047881Y0125157D03*
X0048131Y0125157D03*
X0048381Y0125157D03*
X0048381Y0121907D03*
X0048131Y0121907D03*
X0047881Y0121907D03*
X0048631Y0121907D03*
X0045506Y0129657D03*
X0045256Y0129657D03*
X0045006Y0129657D03*
X0044756Y0129657D03*
X0044506Y0129657D03*
X0043381Y0129657D03*
X0043131Y0129657D03*
X0042881Y0129657D03*
X0042631Y0129657D03*
X0042381Y0129657D03*
X0042131Y0129657D03*
X0041881Y0129657D03*
X0041631Y0129657D03*
X0041381Y0129657D03*
X0040506Y0129657D03*
X0040256Y0129657D03*
X0038506Y0134407D03*
X0038256Y0134407D03*
X0037131Y0134407D03*
X0036881Y0134407D03*
X0036631Y0134407D03*
X0036381Y0134407D03*
X0036131Y0134407D03*
X0035881Y0134407D03*
X0035631Y0134407D03*
X0035381Y0134407D03*
X0035131Y0134407D03*
X0044506Y0134407D03*
X0044756Y0134407D03*
X0045006Y0134407D03*
X0045256Y0134407D03*
X0045506Y0134407D03*
X0045756Y0134407D03*
X0046006Y0134407D03*
X0046256Y0134407D03*
X0046506Y0134407D03*
X0046756Y0134407D03*
X0046756Y0152657D03*
X0046506Y0152657D03*
X0046256Y0152657D03*
X0046006Y0152657D03*
X0045756Y0152657D03*
X0045506Y0152657D03*
X0045256Y0152657D03*
X0045006Y0152657D03*
X0044756Y0152657D03*
X0044506Y0152657D03*
X0043381Y0152657D03*
X0043131Y0152657D03*
X0042881Y0152657D03*
X0039006Y0152657D03*
X0038756Y0152657D03*
X0038506Y0152657D03*
X0038256Y0152657D03*
X0037131Y0152657D03*
X0036881Y0152657D03*
X0036631Y0152657D03*
X0036381Y0152657D03*
X0036131Y0152657D03*
X0035881Y0152657D03*
X0035631Y0152657D03*
X0035381Y0152657D03*
X0035131Y0152657D03*
X0034256Y0152657D03*
X0034006Y0152657D03*
X0033756Y0152657D03*
X0033506Y0152657D03*
X0047881Y0152657D03*
X0048131Y0152657D03*
X0048381Y0152657D03*
X0048631Y0152657D03*
D145*
X0024882Y0131597D03*
X0024882Y0049847D03*
D146*
X0024882Y0116782D03*
X0026507Y0116782D03*
D147*
X0025007Y0131592D03*
X0025007Y0049842D03*
D148*
X0025007Y0116782D03*
X0026382Y0116782D03*
D149*
X0025007Y0079407D03*
X0026007Y0064657D03*
D150*
X0026257Y0116782D03*
X0025132Y0116782D03*
X0047257Y0146782D03*
D151*
X0025257Y0079407D03*
X0025757Y0064657D03*
X0026507Y0050657D03*
X0026257Y0050407D03*
X0026007Y0050157D03*
X0025757Y0049907D03*
D152*
X0025257Y0045157D03*
X0025257Y0059907D03*
X0025257Y0069407D03*
X0026507Y0096407D03*
X0026507Y0107657D03*
X0030256Y0122407D03*
X0030256Y0124657D03*
X0026257Y0125907D03*
X0026132Y0125907D03*
X0030756Y0153157D03*
X0030631Y0161907D03*
D153*
X0047632Y0131157D03*
X0025382Y0079407D03*
D154*
X0025632Y0079407D03*
D155*
X0026632Y0050782D03*
X0026382Y0050532D03*
X0026132Y0050282D03*
X0025882Y0050032D03*
X0025757Y0116782D03*
D156*
X0025757Y0079407D03*
D157*
X0025882Y0079407D03*
D158*
X0026007Y0131592D03*
D159*
X0026007Y0116782D03*
D160*
X0050632Y0117407D03*
X0026007Y0079407D03*
D161*
X0026132Y0131597D03*
D162*
X0026132Y0116782D03*
X0047382Y0146782D03*
D163*
X0026132Y0079407D03*
D164*
X0026257Y0131592D03*
D165*
X0050132Y0117157D03*
X0026257Y0079407D03*
D166*
X0026257Y0064657D03*
D167*
X0050757Y0117467D03*
X0026382Y0131597D03*
D168*
X0026382Y0079407D03*
D169*
X0050507Y0117342D03*
X0026507Y0131592D03*
D170*
X0047257Y0161907D03*
X0026507Y0079407D03*
D171*
X0050257Y0117217D03*
X0026632Y0131597D03*
D172*
X0047382Y0161907D03*
X0026632Y0079407D03*
D173*
X0031006Y0137407D03*
X0031006Y0161907D03*
D174*
X0031006Y0146282D03*
D175*
X0038256Y0131032D03*
X0031006Y0125032D03*
X0031006Y0122032D03*
D176*
X0031132Y0146282D03*
D177*
X0031257Y0146342D03*
D178*
X0031382Y0146407D03*
X0050757Y0146407D03*
D179*
X0050632Y0146467D03*
X0031507Y0146467D03*
D180*
X0031632Y0146532D03*
X0050507Y0146532D03*
D181*
X0050382Y0146592D03*
X0031757Y0146592D03*
X0050132Y0131222D03*
X0050257Y0131222D03*
X0050382Y0131222D03*
X0050507Y0131222D03*
X0050632Y0131222D03*
X0050757Y0131222D03*
D182*
X0050257Y0146657D03*
X0031882Y0146657D03*
X0050132Y0161907D03*
D183*
X0050132Y0146717D03*
X0032007Y0146717D03*
D184*
X0032132Y0161907D03*
D185*
X0032631Y0151657D03*
D186*
X0032756Y0151592D03*
X0041881Y0150972D03*
X0042381Y0126222D03*
X0041881Y0120342D03*
X0041881Y0111342D03*
X0048381Y0111722D03*
D187*
X0040506Y0120282D03*
X0048381Y0135032D03*
X0048631Y0135282D03*
X0032756Y0136532D03*
X0040506Y0151032D03*
X0040006Y0161532D03*
X0042131Y0161532D03*
D188*
X0046506Y0161907D03*
X0048631Y0150657D03*
X0048381Y0150407D03*
X0042131Y0136157D03*
X0040006Y0136157D03*
X0032756Y0125907D03*
X0032756Y0121157D03*
X0048381Y0119657D03*
X0048631Y0119907D03*
D189*
X0032881Y0151532D03*
D190*
X0033006Y0151467D03*
D191*
X0033131Y0151407D03*
D192*
X0033256Y0151342D03*
D193*
X0033381Y0151282D03*
D194*
X0033506Y0150592D03*
X0033756Y0150342D03*
X0041631Y0150972D03*
X0046506Y0131092D03*
X0048381Y0127342D03*
X0042131Y0126222D03*
X0041631Y0120342D03*
X0041631Y0111342D03*
X0048631Y0111722D03*
D195*
X0048256Y0146847D03*
X0033881Y0146847D03*
D196*
X0034006Y0146842D03*
X0048131Y0146842D03*
X0047881Y0131222D03*
D197*
X0047756Y0131217D03*
X0047756Y0115847D03*
X0048006Y0146847D03*
X0034131Y0146847D03*
D198*
X0034256Y0146842D03*
X0047881Y0146842D03*
D199*
X0039006Y0131032D03*
D200*
X0039131Y0131032D03*
X0048506Y0119782D03*
X0048506Y0150532D03*
D201*
X0039381Y0152532D03*
X0041506Y0161532D03*
X0049006Y0168282D03*
D202*
X0042756Y0147092D03*
X0039381Y0147092D03*
X0039381Y0116342D03*
D203*
X0039506Y0116347D03*
X0039506Y0147097D03*
X0042631Y0147097D03*
D204*
X0042506Y0147092D03*
X0039631Y0147092D03*
X0039631Y0116342D03*
X0043006Y0115842D03*
D205*
X0040256Y0120282D03*
X0049381Y0136282D03*
X0040256Y0151032D03*
X0039756Y0161532D03*
X0042381Y0161532D03*
D206*
X0042381Y0147847D03*
X0042131Y0147597D03*
X0040006Y0147597D03*
X0039756Y0147847D03*
X0039756Y0117097D03*
X0040006Y0116847D03*
D207*
X0049381Y0120907D03*
X0049381Y0126157D03*
X0042381Y0136157D03*
X0039756Y0136157D03*
X0049381Y0151657D03*
X0046256Y0161907D03*
D208*
X0042256Y0147717D03*
X0042006Y0147467D03*
X0040131Y0147467D03*
X0039881Y0147717D03*
X0039881Y0116967D03*
X0040131Y0116717D03*
D209*
X0040131Y0136157D03*
X0042006Y0136157D03*
X0046631Y0161907D03*
D210*
X0040131Y0126222D03*
D211*
X0041881Y0126222D03*
X0046756Y0131092D03*
X0041381Y0120342D03*
X0041381Y0111342D03*
X0048881Y0111722D03*
X0041381Y0150972D03*
D212*
X0042006Y0115847D03*
D213*
X0042131Y0115842D03*
D214*
X0042256Y0115847D03*
D215*
X0042381Y0115842D03*
D216*
X0042506Y0115842D03*
X0051131Y0117722D03*
D217*
X0042631Y0115847D03*
D218*
X0042756Y0115842D03*
D219*
X0047507Y0161907D03*
D220*
X0047632Y0161907D03*
X0050757Y0161907D03*
D221*
X0047756Y0161907D03*
D222*
X0047881Y0161907D03*
D223*
X0048131Y0115282D03*
X0047881Y0115032D03*
D224*
X0048006Y0161907D03*
D225*
X0048006Y0131157D03*
D226*
X0048256Y0115407D03*
X0048006Y0115157D03*
D227*
X0048131Y0161907D03*
D228*
X0048131Y0131222D03*
X0051006Y0117592D03*
D229*
X0048256Y0161907D03*
D230*
X0048256Y0131217D03*
D231*
X0048506Y0135157D03*
D232*
X0048631Y0126532D03*
D233*
X0048756Y0126472D03*
X0048756Y0120592D03*
X0048756Y0135972D03*
X0048756Y0151342D03*
D234*
X0048881Y0151407D03*
X0048881Y0126407D03*
X0048881Y0120657D03*
D235*
X0048881Y0136032D03*
D236*
X0049006Y0136097D03*
X0049006Y0126347D03*
X0049006Y0120717D03*
X0049006Y0151467D03*
D237*
X0049131Y0151532D03*
X0049131Y0126282D03*
X0049131Y0120782D03*
D238*
X0049131Y0136157D03*
D239*
X0049256Y0136222D03*
X0049256Y0126222D03*
X0049256Y0120842D03*
X0049256Y0151592D03*
D240*
X0050257Y0161907D03*
D241*
X0050382Y0161907D03*
D242*
X0050382Y0117282D03*
D243*
X0050507Y0161907D03*
D244*
X0050632Y0161907D03*
D245*
X0050881Y0161907D03*
D246*
X0050881Y0146342D03*
D247*
X0050881Y0131222D03*
D248*
X0050881Y0117532D03*
D249*
X0051006Y0161907D03*
D250*
X0051006Y0146282D03*
D251*
X0051006Y0131157D03*
D252*
X0051131Y0161907D03*
D253*
X0051131Y0146282D03*
D254*
X0051131Y0131157D03*
M02*
