G75*
%MOIN*%
%OFA0B0*%
%FSLAX25Y25*%
%IPPOS*%
%LPD*%
%AMOC8*
5,1,8,0,0,1.08239X$1,22.5*
%
%ADD10C,0.00000*%
%ADD11R,0.03740X0.03543*%
%ADD12R,0.02362X0.04724*%
%ADD13C,0.05600*%
%ADD14R,0.03937X0.05906*%
%ADD15R,0.01772X0.02756*%
%ADD16R,0.02400X0.08700*%
%ADD17C,0.07000*%
%ADD18R,0.05512X0.03937*%
%ADD19R,0.01378X0.05512*%
%ADD20R,0.07087X0.07480*%
%ADD21R,0.07480X0.07480*%
%ADD22R,0.05906X0.05118*%
%ADD23C,0.01600*%
%ADD24C,0.04000*%
%ADD25C,0.04134*%
%ADD26C,0.03562*%
%ADD27C,0.03200*%
%ADD28C,0.01200*%
%ADD29C,0.02400*%
%ADD30C,0.15811*%
D10*
X0001000Y0006275D02*
X0001000Y0199189D01*
X0390764Y0199189D01*
X0390764Y0006275D01*
X0001000Y0006275D01*
D11*
X0049316Y0033618D03*
X0049316Y0046020D03*
X0073943Y0045513D03*
X0073943Y0033112D03*
D12*
X0072907Y0150009D03*
X0067907Y0150009D03*
X0062907Y0150009D03*
X0057907Y0150009D03*
X0052907Y0150009D03*
X0047907Y0150009D03*
X0077907Y0150009D03*
X0082907Y0150009D03*
X0106608Y0150624D03*
X0111608Y0150624D03*
X0116608Y0150624D03*
X0121608Y0150624D03*
X0126608Y0150624D03*
X0131608Y0150624D03*
X0136608Y0150624D03*
X0141608Y0150624D03*
X0180399Y0150824D03*
X0185399Y0150824D03*
X0190399Y0150824D03*
X0195399Y0150824D03*
X0200399Y0150824D03*
X0205399Y0150824D03*
X0210399Y0150824D03*
X0215399Y0150824D03*
X0215399Y0172872D03*
X0210399Y0172872D03*
X0205399Y0172872D03*
X0200399Y0172872D03*
X0195399Y0172872D03*
X0190399Y0172872D03*
X0185399Y0172872D03*
X0180399Y0172872D03*
X0141608Y0172671D03*
X0136608Y0172671D03*
X0131608Y0172671D03*
X0126608Y0172671D03*
X0121608Y0172671D03*
X0116608Y0172671D03*
X0111608Y0172671D03*
X0106608Y0172671D03*
X0082907Y0172057D03*
X0077907Y0172057D03*
X0072907Y0172057D03*
X0067907Y0172057D03*
X0062907Y0172057D03*
X0057907Y0172057D03*
X0052907Y0172057D03*
X0047907Y0172057D03*
X0258045Y0172627D03*
X0263045Y0172627D03*
X0268045Y0172627D03*
X0273045Y0172627D03*
X0278045Y0172627D03*
X0283045Y0172627D03*
X0288045Y0172627D03*
X0293045Y0172627D03*
X0293045Y0150580D03*
X0288045Y0150580D03*
X0283045Y0150580D03*
X0278045Y0150580D03*
X0273045Y0150580D03*
X0268045Y0150580D03*
X0263045Y0150580D03*
X0258045Y0150580D03*
X0334602Y0150409D03*
X0339602Y0150409D03*
X0344602Y0150409D03*
X0349602Y0150409D03*
X0354602Y0150409D03*
X0359602Y0150409D03*
X0364602Y0150409D03*
X0369602Y0150409D03*
X0369602Y0172457D03*
X0364602Y0172457D03*
X0359602Y0172457D03*
X0354602Y0172457D03*
X0349602Y0172457D03*
X0344602Y0172457D03*
X0339602Y0172457D03*
X0334602Y0172457D03*
D13*
X0321669Y0127761D03*
X0305608Y0127947D03*
X0305608Y0117947D03*
X0321669Y0117761D03*
X0321669Y0107761D03*
X0305608Y0107947D03*
X0305608Y0097947D03*
X0321669Y0097761D03*
X0321669Y0087761D03*
X0305608Y0087947D03*
X0305608Y0077947D03*
X0321669Y0077761D03*
X0381669Y0077761D03*
X0381669Y0087761D03*
X0381669Y0097761D03*
X0381669Y0107761D03*
X0381669Y0117761D03*
X0381669Y0127761D03*
X0245608Y0127947D03*
X0229608Y0127947D03*
X0229608Y0117947D03*
X0245608Y0117947D03*
X0245608Y0107947D03*
X0229608Y0107947D03*
X0229608Y0097947D03*
X0245608Y0097947D03*
X0245608Y0087947D03*
X0229608Y0087947D03*
X0229608Y0077947D03*
X0245608Y0077947D03*
X0169608Y0077947D03*
X0153608Y0077947D03*
X0153608Y0087947D03*
X0169608Y0087947D03*
X0169608Y0097947D03*
X0153608Y0097947D03*
X0153608Y0107947D03*
X0169608Y0107947D03*
X0169608Y0117947D03*
X0153608Y0117947D03*
X0153608Y0127947D03*
X0169608Y0127947D03*
X0093608Y0127947D03*
X0093608Y0117947D03*
X0093608Y0107947D03*
X0093608Y0097947D03*
X0093608Y0087947D03*
X0093608Y0077947D03*
D14*
X0081443Y0043656D03*
X0081443Y0035369D03*
X0066583Y0035282D03*
X0057876Y0035369D03*
X0057876Y0043656D03*
X0066583Y0043570D03*
X0019531Y0107163D03*
X0019531Y0115451D03*
X0047272Y0129286D03*
X0055578Y0129286D03*
X0063865Y0129186D03*
X0063865Y0137474D03*
X0055578Y0137574D03*
X0047272Y0137574D03*
D15*
X0114383Y0139698D03*
X0117533Y0139698D03*
X0120683Y0139698D03*
X0123832Y0139698D03*
X0123832Y0133596D03*
X0120683Y0133596D03*
X0117533Y0133596D03*
X0114383Y0133596D03*
X0134383Y0133596D03*
X0137533Y0133596D03*
X0140683Y0133596D03*
X0143832Y0133596D03*
X0143832Y0139698D03*
X0140683Y0139698D03*
X0137533Y0139698D03*
X0134383Y0139698D03*
X0187958Y0139100D03*
X0191108Y0139100D03*
X0194257Y0139100D03*
X0197407Y0139100D03*
X0197407Y0132998D03*
X0194257Y0132998D03*
X0191108Y0132998D03*
X0187958Y0132998D03*
X0208124Y0132998D03*
X0211273Y0132998D03*
X0214423Y0132998D03*
X0217572Y0132998D03*
X0217572Y0139100D03*
X0214423Y0139100D03*
X0211273Y0139100D03*
X0208124Y0139100D03*
X0265612Y0139246D03*
X0268761Y0139246D03*
X0271911Y0139246D03*
X0275061Y0139246D03*
X0285683Y0139277D03*
X0288832Y0139277D03*
X0291982Y0139277D03*
X0295131Y0139277D03*
X0295131Y0133175D03*
X0291982Y0133175D03*
X0288832Y0133175D03*
X0285683Y0133175D03*
X0275061Y0133143D03*
X0271911Y0133143D03*
X0268761Y0133143D03*
X0265612Y0133143D03*
X0342370Y0133188D03*
X0345520Y0133188D03*
X0348669Y0133188D03*
X0351819Y0133188D03*
X0351819Y0139290D03*
X0348669Y0139290D03*
X0345520Y0139290D03*
X0342370Y0139290D03*
X0362496Y0139275D03*
X0365646Y0139275D03*
X0368795Y0139275D03*
X0371945Y0139275D03*
X0371945Y0133173D03*
X0368795Y0133173D03*
X0365646Y0133173D03*
X0362496Y0133173D03*
D16*
X0041065Y0097218D03*
X0036065Y0097218D03*
X0031065Y0097218D03*
X0026065Y0097218D03*
X0026065Y0070718D03*
X0031065Y0070718D03*
X0036065Y0070718D03*
X0041065Y0070718D03*
D17*
X0008031Y0067307D03*
X0008031Y0077307D03*
X0008031Y0087307D03*
X0008031Y0097307D03*
X0008031Y0107307D03*
X0008031Y0117307D03*
X0008031Y0127307D03*
X0008031Y0137307D03*
D18*
X0068842Y0119556D03*
X0077503Y0115816D03*
X0068842Y0112075D03*
X0069042Y0102156D03*
X0077703Y0098416D03*
X0069042Y0094675D03*
X0069042Y0084956D03*
X0077703Y0081216D03*
X0069042Y0077475D03*
D19*
X0067650Y0022709D03*
X0065091Y0022709D03*
X0062531Y0022709D03*
X0059972Y0022709D03*
X0057413Y0022709D03*
D20*
X0046783Y0012275D03*
X0078280Y0012275D03*
D21*
X0067531Y0012275D03*
X0057531Y0012275D03*
D22*
X0039331Y0036267D03*
X0039331Y0043747D03*
X0093457Y0159087D03*
X0093457Y0166567D03*
X0166740Y0166567D03*
X0166740Y0159087D03*
X0243937Y0159087D03*
X0243937Y0166567D03*
X0321134Y0166567D03*
X0321134Y0159087D03*
D23*
X0322031Y0159087D01*
X0322031Y0158307D01*
X0321134Y0166567D02*
X0324791Y0166567D01*
X0328531Y0170307D01*
X0321134Y0166567D02*
X0321031Y0166567D01*
X0338031Y0158307D02*
X0339602Y0159878D01*
X0339602Y0172457D01*
X0344531Y0172527D02*
X0344602Y0172457D01*
X0344531Y0172527D02*
X0344531Y0191807D01*
X0342531Y0193807D01*
X0268031Y0193807D01*
X0268031Y0172641D01*
X0268032Y0172641D02*
X0268033Y0172636D01*
X0268036Y0172632D01*
X0268040Y0172629D01*
X0268045Y0172628D01*
X0263072Y0172627D02*
X0263045Y0172627D01*
X0263045Y0159320D01*
X0262031Y0158307D01*
X0258045Y0150580D02*
X0258045Y0150320D01*
X0253031Y0145307D01*
X0245031Y0158307D02*
X0245031Y0159087D01*
X0243937Y0159087D01*
X0243937Y0166567D02*
X0247291Y0166567D01*
X0251531Y0170807D01*
X0258031Y0172627D02*
X0258045Y0172627D01*
X0258031Y0172627D02*
X0258031Y0188307D01*
X0268031Y0193807D02*
X0190531Y0193807D01*
X0190531Y0173004D01*
X0190529Y0172983D01*
X0190525Y0172963D01*
X0190517Y0172944D01*
X0190506Y0172926D01*
X0190492Y0172911D01*
X0190477Y0172897D01*
X0190459Y0172886D01*
X0190440Y0172878D01*
X0190420Y0172874D01*
X0190399Y0172872D01*
X0185399Y0172872D02*
X0185399Y0158939D01*
X0186031Y0158307D01*
X0180399Y0150824D02*
X0180399Y0150175D01*
X0177031Y0146807D01*
X0166031Y0158307D02*
X0166031Y0159087D01*
X0166740Y0159087D01*
X0166740Y0166567D02*
X0170291Y0166567D01*
X0174531Y0170807D01*
X0180399Y0172872D02*
X0180399Y0184079D01*
X0180472Y0184079D01*
X0195399Y0179547D02*
X0195472Y0179547D01*
X0195399Y0179547D02*
X0195399Y0172872D01*
X0200399Y0172872D02*
X0200399Y0165939D01*
X0200531Y0165807D01*
X0215031Y0158307D02*
X0215272Y0158548D01*
X0215272Y0172872D01*
X0215399Y0172872D01*
X0210399Y0172872D02*
X0210399Y0176675D01*
X0213031Y0179307D01*
X0220031Y0179307D01*
X0222031Y0177307D01*
X0222031Y0163807D01*
X0205472Y0172872D02*
X0205399Y0172872D01*
X0205472Y0172872D02*
X0205472Y0188110D01*
X0190531Y0193807D02*
X0116531Y0193807D01*
X0116531Y0172747D01*
X0116532Y0172747D02*
X0116533Y0172732D01*
X0116538Y0172718D01*
X0116545Y0172705D01*
X0116554Y0172693D01*
X0116566Y0172684D01*
X0116579Y0172677D01*
X0116593Y0172672D01*
X0116608Y0172671D01*
X0111872Y0172671D02*
X0111608Y0172671D01*
X0111608Y0158731D01*
X0112031Y0158307D01*
X0106608Y0150624D02*
X0106608Y0149883D01*
X0103031Y0146307D01*
X0093031Y0158307D02*
X0093031Y0159087D01*
X0093457Y0159087D01*
X0083031Y0158307D02*
X0082907Y0158431D01*
X0082907Y0172057D01*
X0093457Y0166567D02*
X0096791Y0166567D01*
X0100531Y0170307D01*
X0106608Y0172671D02*
X0106608Y0188110D01*
X0106472Y0188110D01*
X0116531Y0193807D02*
X0058031Y0193807D01*
X0058012Y0193805D01*
X0057993Y0193801D01*
X0057975Y0193793D01*
X0057958Y0193783D01*
X0057943Y0193771D01*
X0057931Y0193756D01*
X0057921Y0193739D01*
X0057913Y0193721D01*
X0057909Y0193702D01*
X0057907Y0193683D01*
X0057783Y0193807D01*
X0039531Y0193807D01*
X0028531Y0182807D01*
X0028531Y0175307D01*
X0008031Y0154807D01*
X0008031Y0137307D01*
X0007531Y0137307D01*
X0006531Y0136307D01*
X0015823Y0127307D02*
X0023323Y0134807D01*
X0023323Y0162142D01*
X0023205Y0162260D01*
X0028531Y0175307D02*
X0028531Y0122307D01*
X0036031Y0114807D01*
X0036031Y0097218D01*
X0036065Y0097218D01*
X0041065Y0097218D02*
X0041065Y0106273D01*
X0041031Y0106307D01*
X0046157Y0110331D02*
X0034071Y0122417D01*
X0034071Y0181609D01*
X0040672Y0188210D01*
X0053472Y0188210D01*
X0053572Y0188110D01*
X0047972Y0184079D02*
X0047907Y0184079D01*
X0047907Y0172057D01*
X0052907Y0172057D02*
X0052907Y0158431D01*
X0053031Y0158307D01*
X0068031Y0164807D02*
X0067907Y0165431D01*
X0067907Y0172057D01*
X0072772Y0172191D02*
X0072907Y0172057D01*
X0073013Y0172057D01*
X0072772Y0172191D02*
X0072772Y0188110D01*
X0062972Y0179547D02*
X0062907Y0179547D01*
X0062907Y0172057D01*
X0057907Y0172057D02*
X0057907Y0193683D01*
X0121472Y0179547D02*
X0121472Y0172671D01*
X0121608Y0172671D01*
X0126608Y0172671D02*
X0126608Y0165383D01*
X0126531Y0165307D01*
X0141031Y0158307D02*
X0141608Y0158883D01*
X0141608Y0172671D01*
X0141872Y0172671D01*
X0145031Y0178307D02*
X0147531Y0175807D01*
X0147531Y0164307D01*
X0136608Y0172671D02*
X0136608Y0175883D01*
X0139031Y0178307D01*
X0145031Y0178307D01*
X0131608Y0172671D02*
X0131472Y0172671D01*
X0131472Y0184079D01*
X0062907Y0150009D02*
X0062907Y0138432D01*
X0063865Y0137474D01*
X0057907Y0139903D02*
X0055578Y0137574D01*
X0057907Y0139903D02*
X0057907Y0150009D01*
X0052907Y0150009D02*
X0052907Y0145650D01*
X0047172Y0139916D01*
X0047172Y0137673D01*
X0047272Y0137574D01*
X0045531Y0145307D02*
X0047907Y0147683D01*
X0047907Y0150009D01*
X0023323Y0134807D02*
X0023323Y0122220D01*
X0031065Y0114478D01*
X0031065Y0097218D01*
X0026065Y0097218D02*
X0019531Y0103752D01*
X0019531Y0107163D01*
X0019388Y0107307D01*
X0017531Y0107307D01*
X0014031Y0110807D01*
X0014031Y0112307D01*
X0009031Y0117307D01*
X0008031Y0117307D01*
X0017031Y0124307D02*
X0019531Y0121307D01*
X0019531Y0115451D01*
X0008031Y0107307D02*
X0021031Y0094307D01*
X0021031Y0091307D01*
X0023031Y0089307D01*
X0032194Y0089307D01*
X0041065Y0080435D01*
X0046157Y0085527D01*
X0046157Y0110331D01*
X0056118Y0116118D02*
X0056118Y0085870D01*
X0064472Y0077516D01*
X0069002Y0077516D01*
X0069042Y0077475D01*
X0041065Y0080435D02*
X0041065Y0070718D01*
X0036065Y0070718D02*
X0036065Y0063073D01*
X0041031Y0058107D01*
X0054431Y0058107D01*
X0066431Y0046107D01*
X0066431Y0043722D01*
X0066583Y0043570D01*
X0067376Y0044362D01*
X0073943Y0045513D02*
X0073156Y0055383D01*
X0071031Y0057507D01*
X0057831Y0047107D02*
X0057831Y0043701D01*
X0057876Y0043656D01*
X0057840Y0043692D01*
X0057831Y0047107D02*
X0051031Y0053907D01*
X0039231Y0053907D01*
X0031065Y0062073D01*
X0031065Y0070718D01*
X0031031Y0070752D01*
X0031031Y0075807D01*
X0025531Y0081307D01*
X0016531Y0081307D01*
X0010531Y0087307D01*
X0008031Y0087307D01*
X0008031Y0097307D02*
X0020031Y0085307D01*
X0026531Y0085307D01*
X0036031Y0075807D01*
X0036031Y0070752D01*
X0036065Y0070718D01*
X0026065Y0070718D02*
X0026020Y0070718D01*
X0020831Y0075907D01*
X0019476Y0077307D02*
X0026065Y0070718D01*
X0026065Y0045473D01*
X0035231Y0036307D01*
X0041291Y0036307D01*
X0039331Y0036267D01*
X0049316Y0033618D02*
X0050393Y0035369D01*
X0057031Y0034524D02*
X0062531Y0029024D01*
X0062531Y0022709D01*
X0065091Y0022709D02*
X0065031Y0021299D01*
X0065031Y0028507D01*
X0066583Y0030059D01*
X0066583Y0035282D01*
X0066540Y0035239D01*
X0066583Y0035282D02*
X0067081Y0034785D01*
X0073943Y0033112D01*
X0079678Y0034785D01*
X0081443Y0035369D01*
X0079740Y0027929D02*
X0073835Y0027929D01*
X0068614Y0022709D01*
X0067650Y0022709D01*
X0057413Y0022709D02*
X0057413Y0021325D01*
X0053231Y0025507D01*
X0045431Y0025507D02*
X0045431Y0043747D01*
X0039331Y0043747D01*
X0045431Y0043747D02*
X0045431Y0044346D01*
X0049316Y0046020D01*
X0057876Y0035369D02*
X0057031Y0034524D01*
X0057876Y0035369D02*
X0058040Y0035205D01*
X0081443Y0043656D02*
X0089281Y0043656D01*
X0089531Y0043907D01*
X0032031Y0027707D02*
X0008031Y0051707D01*
X0008031Y0067307D01*
X0008031Y0077307D02*
X0019476Y0077307D01*
X0059819Y0103898D02*
X0069042Y0094675D01*
X0068982Y0094616D01*
X0059819Y0103898D02*
X0059819Y0118323D01*
X0055578Y0122564D01*
X0055578Y0129286D01*
X0063865Y0129186D02*
X0063865Y0114123D01*
X0065872Y0112116D01*
X0068802Y0112116D01*
X0068842Y0112075D01*
X0056118Y0116118D02*
X0047272Y0124964D01*
X0047272Y0129286D01*
X0015823Y0127307D02*
X0008031Y0127307D01*
X0273045Y0172627D02*
X0273045Y0179547D01*
X0272972Y0179547D01*
X0278045Y0172627D02*
X0278045Y0171320D01*
X0278045Y0165320D01*
X0278031Y0165307D01*
X0278031Y0171307D02*
X0278045Y0171320D01*
X0282972Y0172627D02*
X0283045Y0172627D01*
X0282972Y0172627D02*
X0282972Y0183579D01*
X0288045Y0176820D02*
X0291031Y0179807D01*
X0296531Y0179807D01*
X0299031Y0177307D01*
X0299031Y0164307D01*
X0293045Y0158320D02*
X0293031Y0158307D01*
X0293045Y0158320D02*
X0293045Y0172627D01*
X0292872Y0172627D01*
X0288045Y0172627D02*
X0288045Y0176820D01*
X0334602Y0150409D02*
X0334602Y0148878D01*
X0331031Y0145307D01*
X0359602Y0150409D02*
X0359720Y0150409D01*
X0364602Y0150409D02*
X0364720Y0150409D01*
X0369602Y0150409D02*
X0369720Y0150409D01*
X0370031Y0158307D02*
X0370031Y0172027D01*
X0369602Y0172457D01*
X0364602Y0172457D02*
X0364602Y0166307D01*
X0364531Y0166307D01*
X0359602Y0172457D02*
X0359602Y0188307D01*
X0349602Y0179807D02*
X0349531Y0179807D01*
X0349602Y0179807D02*
X0349602Y0172457D01*
X0354602Y0172457D02*
X0355031Y0172027D01*
X0355031Y0165307D01*
D24*
X0370031Y0158307D02*
X0338031Y0158307D01*
X0322031Y0158307D01*
X0293031Y0158307D01*
X0262031Y0158307D01*
X0245031Y0158307D01*
X0215031Y0158307D01*
X0186031Y0158307D01*
X0166031Y0158307D01*
X0141031Y0158307D01*
X0112031Y0158307D01*
X0093031Y0158307D01*
X0083031Y0158307D01*
X0053031Y0158307D01*
X0044031Y0158307D01*
X0039031Y0153307D01*
X0039031Y0140307D01*
X0039031Y0125307D01*
X0051031Y0113307D01*
X0051031Y0095507D01*
X0051031Y0081307D01*
X0051531Y0081307D01*
X0064031Y0068807D01*
X0080531Y0068807D01*
X0089531Y0059807D01*
X0089531Y0043907D01*
X0089531Y0042807D01*
X0089583Y0042756D01*
X0089583Y0027929D01*
X0079740Y0027929D01*
D25*
X0039031Y0140307D03*
D26*
X0045531Y0145307D03*
X0023205Y0162260D03*
X0047972Y0184079D03*
X0053572Y0188110D03*
X0062972Y0179547D03*
X0072772Y0188110D03*
X0100531Y0170307D03*
X0121472Y0179547D03*
X0131472Y0184079D03*
X0106472Y0188110D03*
X0126531Y0165307D03*
X0147531Y0164307D03*
X0147531Y0152307D03*
X0177031Y0146807D03*
X0200531Y0165807D03*
X0222031Y0163807D03*
X0222031Y0152307D03*
X0253031Y0145307D03*
X0278031Y0165307D03*
X0299031Y0164307D03*
X0299031Y0151807D03*
X0331031Y0145307D03*
X0355031Y0165307D03*
X0364531Y0166307D03*
X0375031Y0166307D03*
X0349531Y0179807D03*
X0359602Y0188307D03*
X0328531Y0170307D03*
X0282972Y0183579D03*
X0272972Y0179547D03*
X0258031Y0188307D03*
X0251531Y0170807D03*
X0205472Y0188110D03*
X0195472Y0179547D03*
X0180472Y0184079D03*
X0174531Y0170807D03*
X0103031Y0146307D03*
X0068031Y0164807D03*
X0074531Y0124807D03*
X0084031Y0122807D03*
X0075031Y0106307D03*
X0084531Y0102807D03*
X0074531Y0089807D03*
X0051031Y0095507D03*
X0041031Y0106307D03*
X0017031Y0124307D03*
X0020831Y0075907D03*
X0071031Y0057507D03*
X0041282Y0027113D03*
X0032031Y0027707D03*
X0015631Y0040707D03*
D27*
X0023013Y0043434D02*
X0022465Y0044757D01*
X0022465Y0064845D01*
X0022065Y0065811D01*
X0022065Y0069582D01*
X0020321Y0071326D01*
X0019920Y0071326D01*
X0018237Y0072023D01*
X0016948Y0073312D01*
X0016784Y0073707D01*
X0013341Y0073707D01*
X0011767Y0072133D01*
X0012005Y0071960D01*
X0012684Y0071281D01*
X0013249Y0070504D01*
X0013685Y0069649D01*
X0013981Y0068735D01*
X0014131Y0067787D01*
X0014131Y0067457D01*
X0008182Y0067457D01*
X0008182Y0067157D01*
X0014131Y0067157D01*
X0014131Y0066827D01*
X0013981Y0065879D01*
X0013685Y0064965D01*
X0013249Y0064110D01*
X0012684Y0063333D01*
X0012005Y0062654D01*
X0011229Y0062090D01*
X0010373Y0061654D01*
X0009460Y0061357D01*
X0008512Y0061207D01*
X0008181Y0061207D01*
X0008181Y0067157D01*
X0007881Y0067157D01*
X0007881Y0061207D01*
X0007551Y0061207D01*
X0006603Y0061357D01*
X0005690Y0061654D01*
X0004834Y0062090D01*
X0004058Y0062654D01*
X0003800Y0062912D01*
X0003800Y0009075D01*
X0040440Y0009075D01*
X0040440Y0016573D01*
X0040866Y0017602D01*
X0041654Y0018389D01*
X0042683Y0018816D01*
X0050884Y0018816D01*
X0051913Y0018389D01*
X0052059Y0018243D01*
X0052205Y0018389D01*
X0053234Y0018816D01*
X0054381Y0018816D01*
X0054224Y0019194D01*
X0054124Y0019697D01*
X0054124Y0022708D01*
X0056483Y0022708D01*
X0056483Y0022709D01*
X0054124Y0022709D01*
X0054124Y0025721D01*
X0054224Y0026223D01*
X0054420Y0026696D01*
X0054705Y0027122D01*
X0055067Y0027484D01*
X0055493Y0027769D01*
X0055966Y0027965D01*
X0056468Y0028064D01*
X0057413Y0028064D01*
X0057413Y0027554D01*
X0057413Y0027554D01*
X0057413Y0028064D01*
X0058244Y0028064D01*
X0058354Y0028110D01*
X0056848Y0029616D01*
X0055351Y0029616D01*
X0054322Y0030042D01*
X0053719Y0030645D01*
X0053560Y0030260D01*
X0052772Y0029473D01*
X0051743Y0029046D01*
X0046889Y0029046D01*
X0045860Y0029473D01*
X0045072Y0030260D01*
X0044646Y0031289D01*
X0044646Y0032109D01*
X0043870Y0031334D01*
X0042841Y0030908D01*
X0035822Y0030908D01*
X0034793Y0031334D01*
X0034005Y0032122D01*
X0033607Y0033083D01*
X0033192Y0033255D01*
X0024026Y0042421D01*
X0023013Y0043434D01*
X0022507Y0044658D02*
X0003800Y0044658D01*
X0003800Y0047856D02*
X0022465Y0047856D01*
X0022465Y0051055D02*
X0003800Y0051055D01*
X0003800Y0054253D02*
X0022465Y0054253D01*
X0022465Y0057452D02*
X0003800Y0057452D01*
X0003800Y0060650D02*
X0022465Y0060650D01*
X0022465Y0063849D02*
X0013059Y0063849D01*
X0008181Y0063849D02*
X0007881Y0063849D01*
X0007881Y0067047D02*
X0008181Y0067047D01*
X0014131Y0067047D02*
X0022065Y0067047D01*
X0021402Y0070246D02*
X0013380Y0070246D01*
X0013078Y0073444D02*
X0016893Y0073444D01*
X0036524Y0090068D02*
X0041065Y0085526D01*
X0042557Y0087019D01*
X0042557Y0090275D01*
X0042521Y0090268D01*
X0041065Y0090268D01*
X0041065Y0097218D01*
X0041065Y0104168D01*
X0039631Y0104168D01*
X0039631Y0111765D01*
X0042557Y0108839D01*
X0042557Y0104161D01*
X0042521Y0104168D01*
X0041065Y0104168D01*
X0041065Y0097218D01*
X0041065Y0097218D01*
X0041065Y0097218D01*
X0041065Y0090268D01*
X0039609Y0090268D01*
X0039107Y0090368D01*
X0038827Y0090484D01*
X0037822Y0090068D01*
X0036524Y0090068D01*
X0037155Y0089437D02*
X0042557Y0089437D01*
X0041777Y0086238D02*
X0040354Y0086238D01*
X0041065Y0092635D02*
X0041065Y0092635D01*
X0041065Y0095834D02*
X0041065Y0095834D01*
X0041065Y0099032D02*
X0041065Y0099032D01*
X0041065Y0102231D02*
X0041065Y0102231D01*
X0039631Y0105429D02*
X0042557Y0105429D01*
X0042557Y0108628D02*
X0039631Y0108628D01*
X0059718Y0098908D02*
X0063486Y0095140D01*
X0063486Y0092150D01*
X0063912Y0091121D01*
X0064700Y0090333D01*
X0065729Y0089907D01*
X0072355Y0089907D01*
X0073384Y0090333D01*
X0074171Y0091121D01*
X0074598Y0092150D01*
X0074598Y0093647D01*
X0081016Y0093647D01*
X0082045Y0094073D01*
X0082833Y0094861D01*
X0083250Y0095869D01*
X0085724Y0098342D01*
X0087126Y0098923D01*
X0088415Y0100212D01*
X0089113Y0101896D01*
X0089113Y0103718D01*
X0088415Y0105402D01*
X0087126Y0106691D01*
X0085443Y0107388D01*
X0083620Y0107388D01*
X0081937Y0106691D01*
X0080648Y0105402D01*
X0080067Y0103999D01*
X0079252Y0103184D01*
X0074398Y0103184D01*
X0074398Y0104380D01*
X0074298Y0104883D01*
X0074102Y0105356D01*
X0073817Y0105782D01*
X0073455Y0106144D01*
X0073029Y0106428D01*
X0072556Y0106624D01*
X0072054Y0106724D01*
X0069042Y0106724D01*
X0069042Y0102156D01*
X0072759Y0102156D01*
X0072759Y0102156D01*
X0069042Y0102156D01*
X0069042Y0102156D01*
X0069042Y0102156D01*
X0070880Y0102156D01*
X0075031Y0106307D01*
X0074053Y0105429D02*
X0080675Y0105429D01*
X0073971Y0108521D02*
X0074398Y0109550D01*
X0074398Y0111047D01*
X0080816Y0111047D01*
X0081845Y0111473D01*
X0082633Y0112261D01*
X0083059Y0113290D01*
X0083059Y0116178D01*
X0085224Y0118342D01*
X0086626Y0118923D01*
X0087915Y0120212D01*
X0088613Y0121896D01*
X0088613Y0123718D01*
X0087915Y0125402D01*
X0086626Y0126691D01*
X0084943Y0127388D01*
X0083120Y0127388D01*
X0081437Y0126691D01*
X0080148Y0125402D01*
X0079567Y0123999D01*
X0076152Y0120584D01*
X0074198Y0120584D01*
X0074198Y0121780D01*
X0074098Y0122283D01*
X0073902Y0122756D01*
X0073617Y0123182D01*
X0073255Y0123544D01*
X0072829Y0123828D01*
X0072356Y0124024D01*
X0071854Y0124124D01*
X0068842Y0124124D01*
X0068842Y0119556D01*
X0068842Y0119556D01*
X0068842Y0119617D01*
X0074531Y0124807D01*
X0079824Y0124620D02*
X0068181Y0124620D01*
X0068208Y0124647D02*
X0068634Y0125676D01*
X0068634Y0132696D01*
X0068371Y0133330D01*
X0068634Y0133964D01*
X0068634Y0140983D01*
X0068208Y0142012D01*
X0067420Y0142800D01*
X0066507Y0143178D01*
X0066507Y0144847D01*
X0069645Y0144847D01*
X0070407Y0145163D01*
X0071169Y0144847D01*
X0074645Y0144847D01*
X0075407Y0145163D01*
X0076169Y0144847D01*
X0079645Y0144847D01*
X0080407Y0145163D01*
X0081169Y0144847D01*
X0084645Y0144847D01*
X0085674Y0145273D01*
X0086462Y0146061D01*
X0086888Y0147090D01*
X0086888Y0152928D01*
X0086649Y0153507D01*
X0102880Y0153507D01*
X0102827Y0153242D01*
X0102827Y0150624D01*
X0106608Y0150624D01*
X0106608Y0150623D01*
X0106608Y0145661D01*
X0108045Y0145661D01*
X0108208Y0145694D01*
X0108208Y0141798D01*
X0108725Y0140548D01*
X0110698Y0138576D01*
X0110698Y0137763D01*
X0111016Y0136996D01*
X0098580Y0136996D01*
X0097331Y0136478D01*
X0096374Y0135522D01*
X0094400Y0133547D01*
X0092494Y0133547D01*
X0090436Y0132695D01*
X0088860Y0131119D01*
X0088008Y0129061D01*
X0088008Y0126833D01*
X0088860Y0124775D01*
X0090436Y0123200D01*
X0091045Y0122947D01*
X0090436Y0122695D01*
X0088860Y0121119D01*
X0088008Y0119061D01*
X0088008Y0116833D01*
X0088860Y0114775D01*
X0090436Y0113200D01*
X0091045Y0112947D01*
X0090436Y0112695D01*
X0088860Y0111119D01*
X0088008Y0109061D01*
X0088008Y0106833D01*
X0088860Y0104775D01*
X0090436Y0103200D01*
X0091045Y0102947D01*
X0090436Y0102695D01*
X0088860Y0101119D01*
X0088008Y0099061D01*
X0088008Y0096833D01*
X0088860Y0094775D01*
X0090436Y0093200D01*
X0091045Y0092947D01*
X0090436Y0092695D01*
X0088860Y0091119D01*
X0088008Y0089061D01*
X0088008Y0086833D01*
X0088860Y0084775D01*
X0090436Y0083200D01*
X0091045Y0082947D01*
X0090436Y0082695D01*
X0088860Y0081119D01*
X0088008Y0079061D01*
X0088008Y0076833D01*
X0088196Y0076380D01*
X0083259Y0081317D01*
X0083259Y0083741D01*
X0082833Y0084770D01*
X0082045Y0085558D01*
X0081016Y0085984D01*
X0074398Y0085984D01*
X0074398Y0087180D01*
X0074298Y0087683D01*
X0074102Y0088156D01*
X0073817Y0088582D01*
X0073455Y0088944D01*
X0073029Y0089228D01*
X0072556Y0089424D01*
X0072054Y0089524D01*
X0069042Y0089524D01*
X0069042Y0084956D01*
X0072759Y0084956D01*
X0072759Y0084956D01*
X0069042Y0084956D01*
X0069042Y0084956D01*
X0069042Y0084956D01*
X0071180Y0084956D01*
X0074531Y0089807D01*
X0072494Y0089437D02*
X0088164Y0089437D01*
X0088254Y0086238D02*
X0074398Y0086238D01*
X0069042Y0086238D02*
X0069042Y0086238D01*
X0069042Y0084956D02*
X0069042Y0089524D01*
X0066030Y0089524D01*
X0065527Y0089424D01*
X0065054Y0089228D01*
X0064628Y0088944D01*
X0064266Y0088582D01*
X0063982Y0088156D01*
X0063786Y0087683D01*
X0063686Y0087180D01*
X0063686Y0084956D01*
X0069042Y0084956D01*
X0069042Y0084956D01*
X0063686Y0084956D01*
X0063686Y0083393D01*
X0059718Y0087361D01*
X0059718Y0098908D01*
X0059718Y0095834D02*
X0062792Y0095834D01*
X0063486Y0092635D02*
X0059718Y0092635D01*
X0059718Y0089437D02*
X0065590Y0089437D01*
X0069042Y0089437D02*
X0069042Y0089437D01*
X0063686Y0086238D02*
X0060841Y0086238D01*
X0074598Y0092635D02*
X0090376Y0092635D01*
X0088422Y0095834D02*
X0083236Y0095834D01*
X0087235Y0099032D02*
X0088008Y0099032D01*
X0089113Y0102231D02*
X0089972Y0102231D01*
X0088589Y0105429D02*
X0088388Y0105429D01*
X0088008Y0108628D02*
X0074016Y0108628D01*
X0073971Y0108521D02*
X0073184Y0107733D01*
X0072155Y0107307D01*
X0065529Y0107307D01*
X0064500Y0107733D01*
X0063712Y0108521D01*
X0063419Y0109229D01*
X0063419Y0105389D01*
X0063827Y0104982D01*
X0063982Y0105356D01*
X0064266Y0105782D01*
X0064628Y0106144D01*
X0065054Y0106428D01*
X0065527Y0106624D01*
X0066030Y0106724D01*
X0069042Y0106724D01*
X0069042Y0102156D01*
X0069042Y0102231D02*
X0069042Y0102231D01*
X0069042Y0105429D02*
X0069042Y0105429D01*
X0064031Y0105429D02*
X0063419Y0105429D01*
X0063419Y0108628D02*
X0063668Y0108628D01*
X0082198Y0111826D02*
X0089568Y0111826D01*
X0088757Y0115025D02*
X0083059Y0115025D01*
X0085105Y0118223D02*
X0088008Y0118223D01*
X0088416Y0121422D02*
X0089163Y0121422D01*
X0089015Y0124620D02*
X0088239Y0124620D01*
X0088008Y0127819D02*
X0068634Y0127819D01*
X0068208Y0124647D02*
X0067685Y0124124D01*
X0068842Y0124124D01*
X0068842Y0119556D01*
X0068842Y0121422D02*
X0068842Y0121422D01*
X0074198Y0121422D02*
X0076990Y0121422D01*
X0068634Y0131017D02*
X0088818Y0131017D01*
X0095068Y0134216D02*
X0068634Y0134216D01*
X0068634Y0137414D02*
X0110842Y0137414D01*
X0108699Y0140613D02*
X0068634Y0140613D01*
X0066507Y0143811D02*
X0108208Y0143811D01*
X0106608Y0145661D02*
X0105171Y0145661D01*
X0104668Y0145761D01*
X0104195Y0145957D01*
X0103769Y0146242D01*
X0103407Y0146604D01*
X0103123Y0147030D01*
X0102927Y0147503D01*
X0102827Y0148005D01*
X0102827Y0150623D01*
X0106608Y0150623D01*
X0106608Y0150623D01*
X0106608Y0145661D01*
X0106608Y0147010D02*
X0106608Y0147010D01*
X0103136Y0147010D02*
X0086855Y0147010D01*
X0086888Y0150208D02*
X0102827Y0150208D01*
X0102860Y0153407D02*
X0086690Y0153407D01*
X0086507Y0163107D02*
X0086507Y0168217D01*
X0086888Y0169137D01*
X0086888Y0174976D01*
X0086462Y0176005D01*
X0085674Y0176793D01*
X0084645Y0177219D01*
X0081169Y0177219D01*
X0080407Y0176903D01*
X0079645Y0177219D01*
X0076372Y0177219D01*
X0076372Y0185231D01*
X0076656Y0185515D01*
X0077354Y0187199D01*
X0077354Y0189021D01*
X0076862Y0190207D01*
X0102382Y0190207D01*
X0101891Y0189021D01*
X0101891Y0187199D01*
X0102589Y0185515D01*
X0103008Y0185096D01*
X0103008Y0176510D01*
X0102627Y0175590D01*
X0102627Y0169752D01*
X0103053Y0168722D01*
X0103841Y0167935D01*
X0104870Y0167509D01*
X0108008Y0167509D01*
X0108008Y0163107D01*
X0098851Y0163107D01*
X0098910Y0163249D01*
X0099009Y0163752D01*
X0099009Y0166567D01*
X0099009Y0169382D01*
X0098910Y0169884D01*
X0098714Y0170357D01*
X0098429Y0170783D01*
X0098067Y0171145D01*
X0097641Y0171430D01*
X0097168Y0171626D01*
X0096666Y0171726D01*
X0093457Y0171726D01*
X0093457Y0166567D01*
X0099009Y0166567D01*
X0093457Y0166567D01*
X0093457Y0166567D01*
X0093457Y0166567D01*
X0093457Y0171726D01*
X0090248Y0171726D01*
X0089746Y0171626D01*
X0089272Y0171430D01*
X0088847Y0171145D01*
X0088484Y0170783D01*
X0088200Y0170357D01*
X0088004Y0169884D01*
X0087904Y0169382D01*
X0087904Y0166567D01*
X0093457Y0166567D01*
X0093457Y0166567D01*
X0087904Y0166567D01*
X0087904Y0163752D01*
X0088004Y0163249D01*
X0088063Y0163107D01*
X0086507Y0163107D01*
X0086507Y0166201D02*
X0087904Y0166201D01*
X0087907Y0169400D02*
X0086888Y0169400D01*
X0093457Y0169400D02*
X0093457Y0169400D01*
X0099006Y0169400D02*
X0102773Y0169400D01*
X0099009Y0166201D02*
X0108008Y0166201D01*
X0115208Y0166201D02*
X0138008Y0166201D01*
X0138008Y0167509D02*
X0138008Y0163107D01*
X0115208Y0163107D01*
X0115208Y0167509D01*
X0118346Y0167509D01*
X0119108Y0167824D01*
X0119870Y0167509D01*
X0123346Y0167509D01*
X0124369Y0167932D01*
X0124668Y0167808D01*
X0125171Y0167709D01*
X0126608Y0167709D01*
X0128045Y0167709D01*
X0128547Y0167808D01*
X0128847Y0167932D01*
X0129870Y0167509D01*
X0133346Y0167509D01*
X0134108Y0167824D01*
X0134870Y0167509D01*
X0138008Y0167509D01*
X0126608Y0167709D02*
X0126608Y0172671D01*
X0126608Y0172671D01*
X0126608Y0177633D01*
X0127872Y0177633D01*
X0127872Y0181200D01*
X0127589Y0181484D01*
X0126891Y0183167D01*
X0126891Y0184990D01*
X0127589Y0186674D01*
X0128877Y0187962D01*
X0130561Y0188660D01*
X0132384Y0188660D01*
X0134067Y0187962D01*
X0135356Y0186674D01*
X0136054Y0184990D01*
X0136054Y0183167D01*
X0135356Y0181484D01*
X0135072Y0181200D01*
X0135072Y0179439D01*
X0135980Y0180346D01*
X0136992Y0181359D01*
X0138315Y0181907D01*
X0145748Y0181907D01*
X0147071Y0181359D01*
X0149571Y0178859D01*
X0150583Y0177846D01*
X0151131Y0176523D01*
X0151131Y0167186D01*
X0151415Y0166902D01*
X0152113Y0165218D01*
X0152113Y0163396D01*
X0151993Y0163107D01*
X0161346Y0163107D01*
X0161287Y0163249D01*
X0161187Y0163752D01*
X0161187Y0166567D01*
X0166740Y0166567D01*
X0166740Y0171726D01*
X0163531Y0171726D01*
X0163029Y0171626D01*
X0162556Y0171430D01*
X0162130Y0171145D01*
X0161768Y0170783D01*
X0161483Y0170357D01*
X0161287Y0169884D01*
X0161187Y0169382D01*
X0161187Y0166567D01*
X0166740Y0166567D01*
X0166740Y0166567D01*
X0166740Y0166567D01*
X0166740Y0171726D01*
X0169949Y0171726D01*
X0170451Y0171626D01*
X0170924Y0171430D01*
X0171350Y0171145D01*
X0171712Y0170783D01*
X0171997Y0170357D01*
X0172193Y0169884D01*
X0172293Y0169382D01*
X0172293Y0166567D01*
X0166740Y0166567D01*
X0166740Y0166567D01*
X0172293Y0166567D01*
X0172293Y0163752D01*
X0172193Y0163249D01*
X0172134Y0163107D01*
X0181799Y0163107D01*
X0181799Y0167709D01*
X0178661Y0167709D01*
X0177632Y0168136D01*
X0176844Y0168923D01*
X0176418Y0169952D01*
X0176418Y0175791D01*
X0176799Y0176711D01*
X0176799Y0181273D01*
X0176589Y0181484D01*
X0175891Y0183167D01*
X0175891Y0184990D01*
X0176589Y0186674D01*
X0177877Y0187962D01*
X0179561Y0188660D01*
X0181384Y0188660D01*
X0183067Y0187962D01*
X0184356Y0186674D01*
X0185054Y0184990D01*
X0185054Y0183167D01*
X0184356Y0181484D01*
X0183999Y0181127D01*
X0183999Y0178034D01*
X0186931Y0178034D01*
X0186931Y0190207D01*
X0120131Y0190207D01*
X0120131Y0183950D01*
X0120561Y0184128D01*
X0122384Y0184128D01*
X0124067Y0183431D01*
X0125356Y0182142D01*
X0126054Y0180458D01*
X0126054Y0178636D01*
X0125638Y0177633D01*
X0126608Y0177633D01*
X0126608Y0172671D01*
X0126608Y0172671D01*
X0126608Y0167709D01*
X0126608Y0169400D02*
X0126608Y0169400D01*
X0126608Y0172598D02*
X0126608Y0172598D01*
X0126608Y0175797D02*
X0126608Y0175797D01*
X0126054Y0178995D02*
X0127872Y0178995D01*
X0127295Y0182194D02*
X0125305Y0182194D01*
X0127058Y0185392D02*
X0120131Y0185392D01*
X0120131Y0188591D02*
X0130394Y0188591D01*
X0132550Y0188591D02*
X0179394Y0188591D01*
X0181550Y0188591D02*
X0186931Y0188591D01*
X0186931Y0185392D02*
X0184887Y0185392D01*
X0184650Y0182194D02*
X0186931Y0182194D01*
X0186931Y0178995D02*
X0183999Y0178995D01*
X0176799Y0178995D02*
X0149435Y0178995D01*
X0151131Y0175797D02*
X0176421Y0175797D01*
X0176418Y0172598D02*
X0151131Y0172598D01*
X0151131Y0169400D02*
X0161191Y0169400D01*
X0161187Y0166201D02*
X0151705Y0166201D01*
X0166740Y0169400D02*
X0166740Y0169400D01*
X0172289Y0169400D02*
X0176647Y0169400D01*
X0172293Y0166201D02*
X0181799Y0166201D01*
X0188999Y0166201D02*
X0211672Y0166201D01*
X0211672Y0167709D02*
X0211672Y0163107D01*
X0188999Y0163107D01*
X0188999Y0167709D01*
X0192137Y0167709D01*
X0192899Y0168025D01*
X0193661Y0167709D01*
X0197137Y0167709D01*
X0198161Y0168133D01*
X0198460Y0168009D01*
X0198962Y0167909D01*
X0200399Y0167909D01*
X0200399Y0172871D01*
X0200399Y0172871D01*
X0200399Y0167909D01*
X0201836Y0167909D01*
X0202339Y0168009D01*
X0202638Y0168133D01*
X0203661Y0167709D01*
X0207137Y0167709D01*
X0207899Y0168025D01*
X0208661Y0167709D01*
X0211672Y0167709D01*
X0200399Y0169400D02*
X0200399Y0169400D01*
X0200399Y0172598D02*
X0200399Y0172598D01*
X0200399Y0172872D02*
X0200399Y0177834D01*
X0199721Y0177834D01*
X0200054Y0178636D01*
X0200054Y0180458D01*
X0199356Y0182142D01*
X0198067Y0183431D01*
X0196384Y0184128D01*
X0194561Y0184128D01*
X0194131Y0183950D01*
X0194131Y0190207D01*
X0201382Y0190207D01*
X0200891Y0189021D01*
X0200891Y0187199D01*
X0201589Y0185515D01*
X0201872Y0185231D01*
X0201872Y0177827D01*
X0201836Y0177834D01*
X0200399Y0177834D01*
X0200399Y0172872D01*
X0200399Y0172872D01*
X0200399Y0175797D02*
X0200399Y0175797D01*
X0200054Y0178995D02*
X0201872Y0178995D01*
X0201872Y0182194D02*
X0199305Y0182194D01*
X0201712Y0185392D02*
X0194131Y0185392D01*
X0194131Y0188591D02*
X0200891Y0188591D01*
X0209562Y0190207D02*
X0210054Y0189021D01*
X0210054Y0187199D01*
X0209356Y0185515D01*
X0209072Y0185231D01*
X0209072Y0180439D01*
X0209980Y0181346D01*
X0210992Y0182359D01*
X0212315Y0182907D01*
X0220748Y0182907D01*
X0222071Y0182359D01*
X0224071Y0180359D01*
X0225083Y0179346D01*
X0225631Y0178023D01*
X0225631Y0166686D01*
X0225915Y0166402D01*
X0226613Y0164718D01*
X0226613Y0163107D01*
X0238543Y0163107D01*
X0238484Y0163249D01*
X0238384Y0163752D01*
X0238384Y0166567D01*
X0243937Y0166567D01*
X0243937Y0171726D01*
X0240728Y0171726D01*
X0240226Y0171626D01*
X0239753Y0171430D01*
X0239327Y0171145D01*
X0238965Y0170783D01*
X0238680Y0170357D01*
X0238484Y0169884D01*
X0238384Y0169382D01*
X0238384Y0166567D01*
X0243937Y0166567D01*
X0243937Y0166567D01*
X0243937Y0171726D01*
X0247146Y0171726D01*
X0247648Y0171626D01*
X0248121Y0171430D01*
X0248547Y0171145D01*
X0248909Y0170783D01*
X0249194Y0170357D01*
X0249390Y0169884D01*
X0249490Y0169382D01*
X0249490Y0166567D01*
X0243937Y0166567D01*
X0243937Y0166567D01*
X0243937Y0166567D01*
X0249490Y0166567D01*
X0249490Y0163752D01*
X0249390Y0163249D01*
X0249331Y0163107D01*
X0259445Y0163107D01*
X0259445Y0167465D01*
X0256307Y0167465D01*
X0255278Y0167892D01*
X0254490Y0168679D01*
X0254064Y0169708D01*
X0254064Y0175547D01*
X0254431Y0176434D01*
X0254431Y0185428D01*
X0254148Y0185712D01*
X0253450Y0187396D01*
X0253450Y0189218D01*
X0253860Y0190207D01*
X0209562Y0190207D01*
X0210054Y0188591D02*
X0253450Y0188591D01*
X0254431Y0185392D02*
X0209233Y0185392D01*
X0209072Y0182194D02*
X0210827Y0182194D01*
X0222236Y0182194D02*
X0254431Y0182194D01*
X0254431Y0178995D02*
X0225229Y0178995D01*
X0225631Y0175797D02*
X0254167Y0175797D01*
X0254064Y0172598D02*
X0225631Y0172598D01*
X0225631Y0169400D02*
X0238388Y0169400D01*
X0238384Y0166201D02*
X0225998Y0166201D01*
X0243937Y0169400D02*
X0243937Y0169400D01*
X0249486Y0169400D02*
X0254192Y0169400D01*
X0249490Y0166201D02*
X0259445Y0166201D01*
X0266645Y0166201D02*
X0289445Y0166201D01*
X0289445Y0167465D02*
X0289445Y0163107D01*
X0266645Y0163107D01*
X0266645Y0167465D01*
X0269783Y0167465D01*
X0270545Y0167781D01*
X0271307Y0167465D01*
X0274783Y0167465D01*
X0275806Y0167889D01*
X0276105Y0167765D01*
X0276608Y0167665D01*
X0278045Y0167665D01*
X0279482Y0167665D01*
X0279984Y0167765D01*
X0280284Y0167889D01*
X0281307Y0167465D01*
X0284783Y0167465D01*
X0285545Y0167781D01*
X0286307Y0167465D01*
X0289445Y0167465D01*
X0278045Y0167665D02*
X0278045Y0172627D01*
X0278045Y0172627D01*
X0278045Y0167665D01*
X0278045Y0169400D02*
X0278045Y0169400D01*
X0278045Y0172598D02*
X0278045Y0172598D01*
X0278045Y0172628D02*
X0278045Y0177590D01*
X0278045Y0172628D01*
X0278045Y0172628D01*
X0278045Y0175797D02*
X0278045Y0175797D01*
X0278045Y0177590D02*
X0277120Y0177590D01*
X0277554Y0178636D01*
X0277554Y0180458D01*
X0276856Y0182142D01*
X0275567Y0183431D01*
X0273884Y0184128D01*
X0272061Y0184128D01*
X0271631Y0183950D01*
X0271631Y0190207D01*
X0340931Y0190207D01*
X0340931Y0177619D01*
X0337864Y0177619D01*
X0337102Y0177303D01*
X0336340Y0177619D01*
X0332864Y0177619D01*
X0331835Y0177193D01*
X0331048Y0176405D01*
X0330621Y0175376D01*
X0330621Y0169537D01*
X0331048Y0168508D01*
X0331835Y0167721D01*
X0332864Y0167294D01*
X0336002Y0167294D01*
X0336002Y0163107D01*
X0326528Y0163107D01*
X0326587Y0163249D01*
X0326687Y0163752D01*
X0326687Y0166567D01*
X0326687Y0169382D01*
X0326587Y0169884D01*
X0326391Y0170357D01*
X0326106Y0170783D01*
X0325744Y0171145D01*
X0325318Y0171430D01*
X0324845Y0171626D01*
X0324343Y0171726D01*
X0321134Y0171726D01*
X0321134Y0166567D01*
X0321134Y0166567D01*
X0326687Y0166567D01*
X0321134Y0166567D01*
X0321134Y0166567D01*
X0321134Y0171726D01*
X0317925Y0171726D01*
X0317423Y0171626D01*
X0316950Y0171430D01*
X0316524Y0171145D01*
X0316162Y0170783D01*
X0315877Y0170357D01*
X0315681Y0169884D01*
X0315581Y0169382D01*
X0315581Y0166567D01*
X0321134Y0166567D01*
X0321134Y0166567D01*
X0315581Y0166567D01*
X0315581Y0163752D01*
X0315681Y0163249D01*
X0315740Y0163107D01*
X0303493Y0163107D01*
X0303613Y0163396D01*
X0303613Y0165218D01*
X0302915Y0166902D01*
X0302631Y0167186D01*
X0302631Y0178023D01*
X0302083Y0179346D01*
X0301071Y0180359D01*
X0298571Y0182859D01*
X0297248Y0183407D01*
X0290315Y0183407D01*
X0288992Y0182859D01*
X0287980Y0181846D01*
X0286572Y0180439D01*
X0286572Y0180700D01*
X0286856Y0180984D01*
X0287554Y0182667D01*
X0287554Y0184490D01*
X0286856Y0186174D01*
X0285567Y0187462D01*
X0283884Y0188160D01*
X0282061Y0188160D01*
X0280377Y0187462D01*
X0279089Y0186174D01*
X0278391Y0184490D01*
X0278391Y0182667D01*
X0279089Y0180984D01*
X0279372Y0180700D01*
X0279372Y0177590D01*
X0278045Y0177590D01*
X0277554Y0178995D02*
X0279372Y0178995D01*
X0278588Y0182194D02*
X0276805Y0182194D01*
X0278765Y0185392D02*
X0271631Y0185392D01*
X0271631Y0188591D02*
X0340931Y0188591D01*
X0348131Y0188591D02*
X0355021Y0188591D01*
X0355021Y0189218D02*
X0355021Y0187396D01*
X0355719Y0185712D01*
X0356002Y0185428D01*
X0356002Y0177419D01*
X0354602Y0177419D01*
X0353501Y0177419D01*
X0354113Y0178896D01*
X0354113Y0180718D01*
X0353415Y0182402D01*
X0352126Y0183691D01*
X0350443Y0184388D01*
X0348620Y0184388D01*
X0348131Y0184186D01*
X0348131Y0192523D01*
X0347583Y0193846D01*
X0346571Y0194859D01*
X0345041Y0196389D01*
X0387964Y0196389D01*
X0387964Y0095120D01*
X0387026Y0096058D01*
X0387269Y0096647D01*
X0387269Y0098874D01*
X0386417Y0100933D01*
X0384841Y0102508D01*
X0384232Y0102761D01*
X0384841Y0103013D01*
X0386417Y0104588D01*
X0387269Y0106647D01*
X0387269Y0108874D01*
X0386417Y0110933D01*
X0384841Y0112508D01*
X0384232Y0112761D01*
X0384841Y0113013D01*
X0386417Y0114588D01*
X0387269Y0116647D01*
X0387269Y0118874D01*
X0386417Y0120933D01*
X0384841Y0122508D01*
X0384232Y0122761D01*
X0384841Y0123013D01*
X0386417Y0124588D01*
X0387269Y0126647D01*
X0387269Y0128874D01*
X0386417Y0130933D01*
X0384841Y0132508D01*
X0382783Y0133361D01*
X0380555Y0133361D01*
X0378497Y0132508D01*
X0376922Y0130933D01*
X0376069Y0128874D01*
X0376069Y0128169D01*
X0375345Y0128893D01*
X0375345Y0130548D01*
X0375631Y0131238D01*
X0375631Y0135108D01*
X0375204Y0136137D01*
X0375117Y0136224D01*
X0375204Y0136311D01*
X0375631Y0137341D01*
X0375631Y0138153D01*
X0377914Y0140436D01*
X0378431Y0141686D01*
X0378431Y0163228D01*
X0378915Y0163712D01*
X0379613Y0165396D01*
X0379613Y0167218D01*
X0378915Y0168902D01*
X0377626Y0170191D01*
X0375943Y0170888D01*
X0374120Y0170888D01*
X0373631Y0170686D01*
X0373631Y0172744D01*
X0373583Y0172859D01*
X0373583Y0175237D01*
X0375575Y0174704D01*
X0378394Y0174704D01*
X0381116Y0175433D01*
X0383558Y0176843D01*
X0385551Y0178836D01*
X0386960Y0181277D01*
X0387690Y0184000D01*
X0387690Y0186819D01*
X0386960Y0189542D01*
X0385551Y0191983D01*
X0383558Y0193976D01*
X0381116Y0195385D01*
X0378394Y0196115D01*
X0375575Y0196115D01*
X0372852Y0195385D01*
X0370411Y0193976D01*
X0368418Y0191983D01*
X0367008Y0189542D01*
X0366279Y0186819D01*
X0366279Y0184000D01*
X0367008Y0181277D01*
X0368418Y0178836D01*
X0369635Y0177619D01*
X0367864Y0177619D01*
X0367102Y0177303D01*
X0366340Y0177619D01*
X0363202Y0177619D01*
X0363202Y0185428D01*
X0363486Y0185712D01*
X0364183Y0187396D01*
X0364183Y0189218D01*
X0363486Y0190902D01*
X0362197Y0192191D01*
X0360514Y0192888D01*
X0358691Y0192888D01*
X0357007Y0192191D01*
X0355719Y0190902D01*
X0355021Y0189218D01*
X0356606Y0191789D02*
X0348131Y0191789D01*
X0346442Y0194988D02*
X0372163Y0194988D01*
X0368306Y0191789D02*
X0362599Y0191789D01*
X0364183Y0188591D02*
X0366754Y0188591D01*
X0366279Y0185392D02*
X0363202Y0185392D01*
X0363202Y0182194D02*
X0366763Y0182194D01*
X0368326Y0178995D02*
X0363202Y0178995D01*
X0356002Y0178995D02*
X0354113Y0178995D01*
X0354602Y0177419D02*
X0354602Y0172457D01*
X0354602Y0172457D01*
X0354602Y0177419D01*
X0354602Y0175797D02*
X0354602Y0175797D01*
X0354602Y0172598D02*
X0354602Y0172598D01*
X0354602Y0172456D02*
X0354602Y0167494D01*
X0354602Y0172456D01*
X0354602Y0172456D01*
X0354602Y0169400D02*
X0354602Y0169400D01*
X0354602Y0167494D02*
X0356040Y0167494D01*
X0356542Y0167594D01*
X0356841Y0167718D01*
X0357864Y0167294D01*
X0359982Y0167294D01*
X0359950Y0167218D01*
X0359950Y0165396D01*
X0360648Y0163712D01*
X0361253Y0163107D01*
X0343202Y0163107D01*
X0343202Y0167294D01*
X0346340Y0167294D01*
X0347102Y0167610D01*
X0347864Y0167294D01*
X0351340Y0167294D01*
X0352364Y0167718D01*
X0352663Y0167594D01*
X0353165Y0167494D01*
X0354602Y0167494D01*
X0359950Y0166201D02*
X0343202Y0166201D01*
X0336002Y0166201D02*
X0326687Y0166201D01*
X0326683Y0169400D02*
X0330678Y0169400D01*
X0330621Y0172598D02*
X0302631Y0172598D01*
X0302631Y0175797D02*
X0330796Y0175797D01*
X0340931Y0178995D02*
X0302229Y0178995D01*
X0299236Y0182194D02*
X0340931Y0182194D01*
X0340931Y0185392D02*
X0287180Y0185392D01*
X0287357Y0182194D02*
X0288327Y0182194D01*
X0302631Y0169400D02*
X0315585Y0169400D01*
X0315581Y0166201D02*
X0303205Y0166201D01*
X0321134Y0169400D02*
X0321134Y0169400D01*
X0330917Y0153507D02*
X0303286Y0153507D01*
X0303613Y0152718D01*
X0303613Y0150896D01*
X0302915Y0149212D01*
X0302431Y0148728D01*
X0302431Y0142501D01*
X0301914Y0141251D01*
X0298817Y0138155D01*
X0298817Y0137342D01*
X0298391Y0136313D01*
X0298304Y0136226D01*
X0298391Y0136139D01*
X0298817Y0135110D01*
X0298817Y0131240D01*
X0298531Y0130550D01*
X0298531Y0129832D01*
X0300008Y0128355D01*
X0300008Y0129061D01*
X0300860Y0131119D01*
X0302436Y0132695D01*
X0304494Y0133547D01*
X0306722Y0133547D01*
X0308780Y0132695D01*
X0310355Y0131119D01*
X0311208Y0129061D01*
X0311208Y0126833D01*
X0310355Y0124775D01*
X0308780Y0123200D01*
X0308170Y0122947D01*
X0308780Y0122695D01*
X0310355Y0121119D01*
X0311208Y0119061D01*
X0311208Y0116833D01*
X0310355Y0114775D01*
X0308780Y0113200D01*
X0308170Y0112947D01*
X0308780Y0112695D01*
X0310355Y0111119D01*
X0311208Y0109061D01*
X0311208Y0106833D01*
X0310355Y0104775D01*
X0308780Y0103200D01*
X0308170Y0102947D01*
X0308780Y0102695D01*
X0310355Y0101119D01*
X0311208Y0099061D01*
X0311208Y0096833D01*
X0310355Y0094775D01*
X0308780Y0093200D01*
X0308170Y0092947D01*
X0308780Y0092695D01*
X0310355Y0091119D01*
X0310918Y0089762D01*
X0311457Y0089538D01*
X0311563Y0089432D01*
X0311698Y0089364D01*
X0312123Y0088873D01*
X0315797Y0085198D01*
X0316923Y0084073D01*
X0317531Y0082603D01*
X0317531Y0081542D01*
X0318497Y0082508D01*
X0319107Y0082761D01*
X0318497Y0083013D01*
X0316922Y0084588D01*
X0316069Y0086647D01*
X0316069Y0088874D01*
X0316922Y0090933D01*
X0318497Y0092508D01*
X0319107Y0092761D01*
X0318497Y0093013D01*
X0316922Y0094588D01*
X0316069Y0096647D01*
X0316069Y0098874D01*
X0316922Y0100933D01*
X0318497Y0102508D01*
X0319107Y0102761D01*
X0318497Y0103013D01*
X0316922Y0104588D01*
X0316069Y0106647D01*
X0316069Y0108874D01*
X0316922Y0110933D01*
X0318497Y0112508D01*
X0319107Y0112761D01*
X0318497Y0113013D01*
X0316922Y0114588D01*
X0316069Y0116647D01*
X0316069Y0118874D01*
X0316922Y0120933D01*
X0318497Y0122508D01*
X0319107Y0122761D01*
X0318497Y0123013D01*
X0316922Y0124588D01*
X0316069Y0126647D01*
X0316069Y0128874D01*
X0316922Y0130933D01*
X0318497Y0132508D01*
X0320555Y0133361D01*
X0322461Y0133361D01*
X0325171Y0136070D01*
X0326421Y0136588D01*
X0339002Y0136588D01*
X0338684Y0137356D01*
X0338684Y0138168D01*
X0336720Y0140132D01*
X0336202Y0141382D01*
X0336202Y0145480D01*
X0336040Y0145447D01*
X0334602Y0145447D01*
X0334602Y0150409D01*
X0330821Y0150409D01*
X0330821Y0147791D01*
X0330921Y0147289D01*
X0331117Y0146816D01*
X0331402Y0146390D01*
X0331764Y0146028D01*
X0332190Y0145743D01*
X0332663Y0145547D01*
X0333165Y0145447D01*
X0334602Y0145447D01*
X0334602Y0150409D01*
X0334602Y0150409D01*
X0334602Y0150409D01*
X0330821Y0150409D01*
X0330821Y0153028D01*
X0330917Y0153507D01*
X0330897Y0153407D02*
X0303327Y0153407D01*
X0303328Y0150208D02*
X0330821Y0150208D01*
X0334602Y0150208D02*
X0334602Y0150208D01*
X0334602Y0147010D02*
X0334602Y0147010D01*
X0331037Y0147010D02*
X0302431Y0147010D01*
X0302431Y0143811D02*
X0336202Y0143811D01*
X0336521Y0140613D02*
X0301276Y0140613D01*
X0298817Y0137414D02*
X0338684Y0137414D01*
X0323316Y0134216D02*
X0298817Y0134216D01*
X0298725Y0131017D02*
X0300818Y0131017D01*
X0310398Y0131017D02*
X0317007Y0131017D01*
X0316069Y0127819D02*
X0311208Y0127819D01*
X0310201Y0124620D02*
X0316909Y0124620D01*
X0317411Y0121422D02*
X0310053Y0121422D01*
X0311208Y0118223D02*
X0316069Y0118223D01*
X0316741Y0115025D02*
X0310459Y0115025D01*
X0309648Y0111826D02*
X0317816Y0111826D01*
X0316069Y0108628D02*
X0311208Y0108628D01*
X0310626Y0105429D02*
X0316573Y0105429D01*
X0318220Y0102231D02*
X0309244Y0102231D01*
X0311208Y0099032D02*
X0316135Y0099032D01*
X0316406Y0095834D02*
X0310794Y0095834D01*
X0308839Y0092635D02*
X0318805Y0092635D01*
X0316302Y0089437D02*
X0311559Y0089437D01*
X0314757Y0086238D02*
X0316238Y0086238D01*
X0317350Y0083040D02*
X0318470Y0083040D01*
X0385119Y0102231D02*
X0387964Y0102231D01*
X0387964Y0105429D02*
X0386765Y0105429D01*
X0387269Y0108628D02*
X0387964Y0108628D01*
X0387964Y0111826D02*
X0385523Y0111826D01*
X0386598Y0115025D02*
X0387964Y0115025D01*
X0387964Y0118223D02*
X0387269Y0118223D01*
X0387964Y0121422D02*
X0385927Y0121422D01*
X0386430Y0124620D02*
X0387964Y0124620D01*
X0387964Y0127819D02*
X0387269Y0127819D01*
X0387964Y0131017D02*
X0386332Y0131017D01*
X0387964Y0134216D02*
X0375631Y0134216D01*
X0375631Y0137414D02*
X0387964Y0137414D01*
X0387964Y0140613D02*
X0377987Y0140613D01*
X0378431Y0143811D02*
X0387964Y0143811D01*
X0387964Y0147010D02*
X0378431Y0147010D01*
X0378431Y0150208D02*
X0387964Y0150208D01*
X0387964Y0153407D02*
X0378431Y0153407D01*
X0378431Y0156606D02*
X0387964Y0156606D01*
X0387964Y0159804D02*
X0378431Y0159804D01*
X0378431Y0163003D02*
X0387964Y0163003D01*
X0387964Y0166201D02*
X0379613Y0166201D01*
X0378418Y0169400D02*
X0387964Y0169400D01*
X0387964Y0172598D02*
X0373631Y0172598D01*
X0381745Y0175797D02*
X0387964Y0175797D01*
X0387964Y0178995D02*
X0385643Y0178995D01*
X0387206Y0182194D02*
X0387964Y0182194D01*
X0387964Y0185392D02*
X0387690Y0185392D01*
X0387964Y0188591D02*
X0387215Y0188591D01*
X0387964Y0191789D02*
X0385663Y0191789D01*
X0387964Y0194988D02*
X0381805Y0194988D01*
X0356002Y0185392D02*
X0348131Y0185392D01*
X0353501Y0182194D02*
X0356002Y0182194D01*
X0259645Y0145650D02*
X0259645Y0141136D01*
X0260162Y0139887D01*
X0261926Y0138123D01*
X0261926Y0137311D01*
X0262244Y0136543D01*
X0250128Y0136543D01*
X0248878Y0136026D01*
X0246400Y0133547D01*
X0244494Y0133547D01*
X0242436Y0132695D01*
X0240860Y0131119D01*
X0240008Y0129061D01*
X0240008Y0126833D01*
X0240860Y0124775D01*
X0242436Y0123200D01*
X0243045Y0122947D01*
X0242436Y0122695D01*
X0240860Y0121119D01*
X0240008Y0119061D01*
X0240008Y0116833D01*
X0240860Y0114775D01*
X0242436Y0113200D01*
X0243045Y0112947D01*
X0242436Y0112695D01*
X0240860Y0111119D01*
X0240008Y0109061D01*
X0240008Y0106833D01*
X0240860Y0104775D01*
X0242436Y0103200D01*
X0243045Y0102947D01*
X0242436Y0102695D01*
X0240860Y0101119D01*
X0240008Y0099061D01*
X0240008Y0096833D01*
X0240860Y0094775D01*
X0242436Y0093200D01*
X0243045Y0092947D01*
X0242436Y0092695D01*
X0240860Y0091119D01*
X0240008Y0089061D01*
X0240008Y0086833D01*
X0240860Y0084775D01*
X0242436Y0083200D01*
X0243045Y0082947D01*
X0242436Y0082695D01*
X0242031Y0082290D01*
X0242031Y0082603D01*
X0241423Y0084073D01*
X0240297Y0085198D01*
X0236551Y0088944D01*
X0236033Y0089486D01*
X0235990Y0089505D01*
X0235957Y0089538D01*
X0235263Y0089826D01*
X0234808Y0090026D01*
X0234355Y0091119D01*
X0232780Y0092695D01*
X0232170Y0092947D01*
X0232780Y0093200D01*
X0234355Y0094775D01*
X0235208Y0096833D01*
X0235208Y0099061D01*
X0234355Y0101119D01*
X0232780Y0102695D01*
X0232170Y0102947D01*
X0232780Y0103200D01*
X0234355Y0104775D01*
X0235208Y0106833D01*
X0235208Y0109061D01*
X0234355Y0111119D01*
X0232780Y0112695D01*
X0232170Y0112947D01*
X0232780Y0113200D01*
X0234355Y0114775D01*
X0235208Y0116833D01*
X0235208Y0119061D01*
X0234355Y0121119D01*
X0232780Y0122695D01*
X0232170Y0122947D01*
X0232780Y0123200D01*
X0234355Y0124775D01*
X0235208Y0126833D01*
X0235208Y0129061D01*
X0234355Y0131119D01*
X0232780Y0132695D01*
X0230722Y0133547D01*
X0228494Y0133547D01*
X0226436Y0132695D01*
X0224860Y0131119D01*
X0224008Y0129061D01*
X0224008Y0128355D01*
X0221258Y0131105D01*
X0221258Y0134932D01*
X0220832Y0135962D01*
X0220745Y0136049D01*
X0220832Y0136136D01*
X0221258Y0137165D01*
X0221258Y0137977D01*
X0224914Y0141633D01*
X0225431Y0142883D01*
X0225431Y0149228D01*
X0225915Y0149712D01*
X0226613Y0151396D01*
X0226613Y0153218D01*
X0226493Y0153507D01*
X0254325Y0153507D01*
X0254264Y0153198D01*
X0254264Y0150580D01*
X0254264Y0147962D01*
X0254364Y0147460D01*
X0254560Y0146986D01*
X0254844Y0146561D01*
X0255206Y0146198D01*
X0255632Y0145914D01*
X0256105Y0145718D01*
X0256608Y0145618D01*
X0258045Y0145618D01*
X0259482Y0145618D01*
X0259645Y0145650D01*
X0258045Y0145618D02*
X0258045Y0150580D01*
X0258045Y0150580D01*
X0258045Y0145618D01*
X0258045Y0147010D02*
X0258045Y0147010D01*
X0254550Y0147010D02*
X0225431Y0147010D01*
X0225431Y0143811D02*
X0259645Y0143811D01*
X0259862Y0140613D02*
X0223894Y0140613D01*
X0221258Y0137414D02*
X0261926Y0137414D01*
X0247068Y0134216D02*
X0221258Y0134216D01*
X0221346Y0131017D02*
X0224818Y0131017D01*
X0234398Y0131017D02*
X0240818Y0131017D01*
X0240008Y0127819D02*
X0235208Y0127819D01*
X0234201Y0124620D02*
X0241015Y0124620D01*
X0241163Y0121422D02*
X0234053Y0121422D01*
X0235208Y0118223D02*
X0240008Y0118223D01*
X0240757Y0115025D02*
X0234459Y0115025D01*
X0233648Y0111826D02*
X0241568Y0111826D01*
X0240008Y0108628D02*
X0235208Y0108628D01*
X0234626Y0105429D02*
X0240589Y0105429D01*
X0241972Y0102231D02*
X0233244Y0102231D01*
X0235208Y0099032D02*
X0240008Y0099032D01*
X0240422Y0095834D02*
X0234794Y0095834D01*
X0232839Y0092635D02*
X0242376Y0092635D01*
X0240164Y0089437D02*
X0236080Y0089437D01*
X0239257Y0086238D02*
X0240254Y0086238D01*
X0241850Y0083040D02*
X0242822Y0083040D01*
X0167045Y0082947D02*
X0166436Y0082695D01*
X0165531Y0081790D01*
X0165531Y0083103D01*
X0164923Y0084573D01*
X0163797Y0085698D01*
X0158157Y0091338D01*
X0158122Y0091353D01*
X0156780Y0092695D01*
X0156170Y0092947D01*
X0156780Y0093200D01*
X0158355Y0094775D01*
X0159208Y0096833D01*
X0159208Y0099061D01*
X0158355Y0101119D01*
X0156780Y0102695D01*
X0156170Y0102947D01*
X0156780Y0103200D01*
X0158355Y0104775D01*
X0159208Y0106833D01*
X0159208Y0109061D01*
X0158355Y0111119D01*
X0156780Y0112695D01*
X0156170Y0112947D01*
X0156780Y0113200D01*
X0158355Y0114775D01*
X0159208Y0116833D01*
X0159208Y0119061D01*
X0158355Y0121119D01*
X0156780Y0122695D01*
X0156170Y0122947D01*
X0156780Y0123200D01*
X0158355Y0124775D01*
X0159208Y0126833D01*
X0159208Y0129061D01*
X0158355Y0131119D01*
X0156780Y0132695D01*
X0154722Y0133547D01*
X0152494Y0133547D01*
X0150436Y0132695D01*
X0148860Y0131119D01*
X0148008Y0129061D01*
X0148008Y0128355D01*
X0147232Y0129131D01*
X0147232Y0130971D01*
X0147518Y0131661D01*
X0147518Y0135531D01*
X0147092Y0136560D01*
X0147005Y0136647D01*
X0147092Y0136734D01*
X0147518Y0137763D01*
X0147518Y0138576D01*
X0150414Y0141472D01*
X0150931Y0142721D01*
X0150931Y0149228D01*
X0151415Y0149712D01*
X0152113Y0151396D01*
X0152113Y0153218D01*
X0151993Y0153507D01*
X0176631Y0153507D01*
X0176618Y0153443D01*
X0176618Y0150824D01*
X0176618Y0148206D01*
X0176718Y0147704D01*
X0176914Y0147231D01*
X0177199Y0146805D01*
X0177561Y0146443D01*
X0177987Y0146158D01*
X0178460Y0145962D01*
X0178962Y0145862D01*
X0180399Y0145862D01*
X0180399Y0150824D01*
X0180399Y0150824D01*
X0176618Y0150824D01*
X0180399Y0150824D01*
X0180399Y0150824D01*
X0180399Y0145862D01*
X0181836Y0145862D01*
X0181999Y0145894D01*
X0181999Y0140983D01*
X0182517Y0139733D01*
X0184272Y0137977D01*
X0184272Y0137165D01*
X0184590Y0136398D01*
X0173982Y0136398D01*
X0172732Y0135880D01*
X0170400Y0133547D01*
X0168494Y0133547D01*
X0166436Y0132695D01*
X0164860Y0131119D01*
X0164008Y0129061D01*
X0164008Y0126833D01*
X0164860Y0124775D01*
X0166436Y0123200D01*
X0167045Y0122947D01*
X0166436Y0122695D01*
X0164860Y0121119D01*
X0164008Y0119061D01*
X0164008Y0116833D01*
X0164860Y0114775D01*
X0166436Y0113200D01*
X0167045Y0112947D01*
X0166436Y0112695D01*
X0164860Y0111119D01*
X0164008Y0109061D01*
X0164008Y0106833D01*
X0164860Y0104775D01*
X0166436Y0103200D01*
X0167045Y0102947D01*
X0166436Y0102695D01*
X0164860Y0101119D01*
X0164008Y0099061D01*
X0164008Y0096833D01*
X0164860Y0094775D01*
X0166436Y0093200D01*
X0167045Y0092947D01*
X0166436Y0092695D01*
X0164860Y0091119D01*
X0164008Y0089061D01*
X0164008Y0086833D01*
X0164860Y0084775D01*
X0166436Y0083200D01*
X0167045Y0082947D01*
X0166822Y0083040D02*
X0165531Y0083040D01*
X0164254Y0086238D02*
X0163257Y0086238D01*
X0164164Y0089437D02*
X0160059Y0089437D01*
X0156839Y0092635D02*
X0166376Y0092635D01*
X0164422Y0095834D02*
X0158794Y0095834D01*
X0159208Y0099032D02*
X0164008Y0099032D01*
X0165972Y0102231D02*
X0157244Y0102231D01*
X0158626Y0105429D02*
X0164589Y0105429D01*
X0164008Y0108628D02*
X0159208Y0108628D01*
X0157648Y0111826D02*
X0165568Y0111826D01*
X0164757Y0115025D02*
X0158459Y0115025D01*
X0159208Y0118223D02*
X0164008Y0118223D01*
X0165163Y0121422D02*
X0158053Y0121422D01*
X0158201Y0124620D02*
X0165015Y0124620D01*
X0164008Y0127819D02*
X0159208Y0127819D01*
X0158398Y0131017D02*
X0164818Y0131017D01*
X0171068Y0134216D02*
X0147518Y0134216D01*
X0147374Y0137414D02*
X0184272Y0137414D01*
X0182152Y0140613D02*
X0149555Y0140613D01*
X0150931Y0143811D02*
X0181999Y0143811D01*
X0180399Y0147010D02*
X0180399Y0147010D01*
X0177061Y0147010D02*
X0150931Y0147010D01*
X0151621Y0150208D02*
X0176618Y0150208D01*
X0176618Y0153407D02*
X0152034Y0153407D01*
X0180399Y0150208D02*
X0180399Y0150208D01*
X0148818Y0131017D02*
X0147252Y0131017D01*
X0106608Y0150208D02*
X0106608Y0150208D01*
X0079307Y0163107D02*
X0056507Y0163107D01*
X0056507Y0166894D01*
X0059645Y0166894D01*
X0060407Y0167210D01*
X0061169Y0166894D01*
X0064645Y0166894D01*
X0065668Y0167318D01*
X0065968Y0167194D01*
X0066470Y0167094D01*
X0067907Y0167094D01*
X0067907Y0172056D01*
X0067907Y0172056D01*
X0067907Y0167094D01*
X0069344Y0167094D01*
X0069847Y0167194D01*
X0070146Y0167318D01*
X0071169Y0166894D01*
X0074645Y0166894D01*
X0075407Y0167210D01*
X0076169Y0166894D01*
X0079307Y0166894D01*
X0079307Y0163107D01*
X0079307Y0166201D02*
X0056507Y0166201D01*
X0067907Y0169400D02*
X0067907Y0169400D01*
X0067907Y0172057D02*
X0067907Y0177019D01*
X0066884Y0177019D01*
X0067554Y0178636D01*
X0067554Y0180458D01*
X0066856Y0182142D01*
X0065567Y0183431D01*
X0063884Y0184128D01*
X0062061Y0184128D01*
X0061507Y0183899D01*
X0061507Y0190207D01*
X0068682Y0190207D01*
X0068191Y0189021D01*
X0068191Y0187199D01*
X0068889Y0185515D01*
X0069172Y0185231D01*
X0069172Y0177019D01*
X0067907Y0177019D01*
X0067907Y0172057D01*
X0067907Y0172057D01*
X0067907Y0172598D02*
X0067907Y0172598D01*
X0067907Y0175797D02*
X0067907Y0175797D01*
X0067554Y0178995D02*
X0069172Y0178995D01*
X0069172Y0182194D02*
X0066805Y0182194D01*
X0069012Y0185392D02*
X0061507Y0185392D01*
X0061507Y0188591D02*
X0068191Y0188591D01*
X0076533Y0185392D02*
X0102712Y0185392D01*
X0103008Y0182194D02*
X0076372Y0182194D01*
X0076372Y0178995D02*
X0103008Y0178995D01*
X0102712Y0175797D02*
X0086548Y0175797D01*
X0086888Y0172598D02*
X0102627Y0172598D01*
X0101891Y0188591D02*
X0077354Y0188591D01*
X0135887Y0185392D02*
X0176058Y0185392D01*
X0176295Y0182194D02*
X0135650Y0182194D01*
X0047907Y0150009D02*
X0047907Y0145741D01*
X0047907Y0150009D01*
X0047907Y0150009D01*
X0044126Y0150009D01*
X0044126Y0147391D01*
X0044226Y0146889D01*
X0044422Y0146416D01*
X0044706Y0145990D01*
X0045069Y0145628D01*
X0045494Y0145343D01*
X0045968Y0145147D01*
X0046470Y0145047D01*
X0047213Y0145047D01*
X0045492Y0143326D01*
X0044746Y0143326D01*
X0043831Y0142947D01*
X0043831Y0151319D01*
X0044126Y0151613D01*
X0044126Y0150009D01*
X0047907Y0150009D01*
X0047907Y0150009D01*
X0047907Y0147010D02*
X0047907Y0147010D01*
X0047907Y0145741D02*
X0047907Y0145741D01*
X0045977Y0143811D02*
X0043831Y0143811D01*
X0043831Y0147010D02*
X0044202Y0147010D01*
X0044126Y0150208D02*
X0043831Y0150208D01*
X0083259Y0083040D02*
X0090822Y0083040D01*
X0088331Y0079841D02*
X0084734Y0079841D01*
X0087933Y0076643D02*
X0088087Y0076643D01*
X0078543Y0064007D02*
X0063077Y0064007D01*
X0061313Y0064738D01*
X0059962Y0066088D01*
X0059962Y0066088D01*
X0049166Y0076884D01*
X0048313Y0077238D01*
X0046962Y0078588D01*
X0046231Y0080352D01*
X0046231Y0080510D01*
X0044665Y0078944D01*
X0044665Y0076591D01*
X0045065Y0075625D01*
X0045065Y0065811D01*
X0044639Y0064782D01*
X0043851Y0063994D01*
X0042822Y0063568D01*
X0040662Y0063568D01*
X0042523Y0061707D01*
X0055148Y0061707D01*
X0056471Y0061159D01*
X0068307Y0049322D01*
X0069109Y0049322D01*
X0070048Y0048933D01*
X0070054Y0048942D01*
X0070416Y0049304D01*
X0070842Y0049589D01*
X0071315Y0049785D01*
X0071817Y0049885D01*
X0073943Y0049885D01*
X0073943Y0045513D01*
X0073943Y0045513D01*
X0073943Y0041142D01*
X0071817Y0041142D01*
X0071352Y0041234D01*
X0071352Y0040060D01*
X0071089Y0039426D01*
X0071352Y0038792D01*
X0071352Y0037615D01*
X0071516Y0037683D01*
X0076370Y0037683D01*
X0076531Y0037617D01*
X0076674Y0037659D01*
X0076674Y0038878D01*
X0076937Y0039512D01*
X0076674Y0040146D01*
X0076674Y0041284D01*
X0076572Y0041242D01*
X0076069Y0041142D01*
X0073943Y0041142D01*
X0073943Y0045513D01*
X0073943Y0045513D01*
X0073943Y0049885D01*
X0076069Y0049885D01*
X0076572Y0049785D01*
X0077045Y0049589D01*
X0077471Y0049304D01*
X0077833Y0048942D01*
X0077839Y0048934D01*
X0077888Y0048983D01*
X0078917Y0049409D01*
X0083968Y0049409D01*
X0084731Y0049093D01*
X0084731Y0057819D01*
X0078543Y0064007D01*
X0078702Y0063849D02*
X0043500Y0063849D01*
X0045065Y0067047D02*
X0059003Y0067047D01*
X0055805Y0070246D02*
X0045065Y0070246D01*
X0045065Y0073444D02*
X0052606Y0073444D01*
X0049408Y0076643D02*
X0044665Y0076643D01*
X0045562Y0079841D02*
X0046443Y0079841D01*
X0056979Y0060650D02*
X0081900Y0060650D01*
X0084731Y0057452D02*
X0060178Y0057452D01*
X0063376Y0054253D02*
X0084731Y0054253D01*
X0084731Y0051055D02*
X0066575Y0051055D01*
X0073943Y0047856D02*
X0073943Y0047856D01*
X0073943Y0044658D02*
X0073943Y0044658D01*
X0073943Y0041459D02*
X0073943Y0041459D01*
X0071352Y0038261D02*
X0076674Y0038261D01*
X0057799Y0028665D02*
X0021277Y0028665D01*
X0021353Y0028622D02*
X0018912Y0030031D01*
X0016189Y0030761D01*
X0013370Y0030761D01*
X0010647Y0030031D01*
X0008206Y0028622D01*
X0006213Y0026628D01*
X0004804Y0024187D01*
X0004074Y0021464D01*
X0004074Y0018646D01*
X0004804Y0015923D01*
X0006213Y0013482D01*
X0008206Y0011488D01*
X0010647Y0010079D01*
X0013370Y0009349D01*
X0016189Y0009349D01*
X0018912Y0010079D01*
X0021353Y0011488D01*
X0023346Y0013482D01*
X0024755Y0015923D01*
X0025485Y0018646D01*
X0025485Y0021464D01*
X0024755Y0024187D01*
X0023346Y0026628D01*
X0021353Y0028622D01*
X0024017Y0025467D02*
X0054124Y0025467D01*
X0053231Y0025507D02*
X0045431Y0025507D01*
X0034231Y0025507D01*
X0032031Y0027707D01*
X0034263Y0031864D02*
X0003800Y0031864D01*
X0003800Y0028665D02*
X0008282Y0028665D01*
X0005542Y0025467D02*
X0003800Y0025467D01*
X0003800Y0022268D02*
X0004289Y0022268D01*
X0004074Y0019070D02*
X0003800Y0019070D01*
X0003800Y0015871D02*
X0004833Y0015871D01*
X0003800Y0012673D02*
X0007022Y0012673D01*
X0003800Y0009474D02*
X0012905Y0009474D01*
X0016654Y0009474D02*
X0040440Y0009474D01*
X0040440Y0012673D02*
X0022537Y0012673D01*
X0024726Y0015871D02*
X0040440Y0015871D01*
X0054276Y0019070D02*
X0025485Y0019070D01*
X0025270Y0022268D02*
X0054124Y0022268D01*
X0044646Y0031864D02*
X0044400Y0031864D01*
X0045084Y0036988D02*
X0045084Y0039383D01*
X0044717Y0040268D01*
X0044784Y0040430D01*
X0044884Y0040932D01*
X0044884Y0043747D01*
X0039332Y0043747D01*
X0039332Y0043747D01*
X0044884Y0043747D01*
X0044884Y0043798D01*
X0044946Y0043490D01*
X0045142Y0043016D01*
X0045426Y0042591D01*
X0045788Y0042228D01*
X0046214Y0041944D01*
X0046687Y0041748D01*
X0047190Y0041648D01*
X0049316Y0041648D01*
X0051442Y0041648D01*
X0051944Y0041748D01*
X0052417Y0041944D01*
X0052843Y0042228D01*
X0053108Y0042493D01*
X0053108Y0040146D01*
X0053370Y0039512D01*
X0053108Y0038878D01*
X0053108Y0038769D01*
X0051737Y0038769D01*
X0051670Y0038810D01*
X0050256Y0039037D01*
X0048863Y0038705D01*
X0048151Y0038190D01*
X0046889Y0038190D01*
X0045860Y0037763D01*
X0045084Y0036988D01*
X0045084Y0038261D02*
X0048249Y0038261D01*
X0049316Y0041648D02*
X0049316Y0046019D01*
X0049316Y0041648D01*
X0053108Y0041459D02*
X0044884Y0041459D01*
X0039332Y0043747D02*
X0039331Y0043747D01*
X0033779Y0043747D01*
X0033779Y0042851D01*
X0029665Y0046964D01*
X0029665Y0058382D01*
X0036180Y0051868D01*
X0037192Y0050855D01*
X0038515Y0050307D01*
X0046766Y0050307D01*
X0046687Y0050291D01*
X0046214Y0050095D01*
X0045788Y0049811D01*
X0045426Y0049449D01*
X0045142Y0049023D01*
X0044946Y0048550D01*
X0044846Y0048047D01*
X0044846Y0046756D01*
X0044784Y0047065D01*
X0044588Y0047538D01*
X0044304Y0047964D01*
X0043942Y0048326D01*
X0043516Y0048610D01*
X0043043Y0048806D01*
X0042540Y0048906D01*
X0039332Y0048906D01*
X0039332Y0043747D01*
X0039331Y0043747D02*
X0039331Y0048906D01*
X0036123Y0048906D01*
X0035620Y0048806D01*
X0035147Y0048610D01*
X0034721Y0048326D01*
X0034359Y0047964D01*
X0034075Y0047538D01*
X0033879Y0047065D01*
X0033779Y0046562D01*
X0033779Y0043747D01*
X0039331Y0043747D01*
X0039331Y0043747D01*
X0039331Y0044658D02*
X0039332Y0044658D01*
X0039331Y0047856D02*
X0039332Y0047856D01*
X0044376Y0047856D02*
X0044846Y0047856D01*
X0049316Y0046019D02*
X0049316Y0046019D01*
X0049316Y0044658D02*
X0049316Y0044658D01*
X0036993Y0051055D02*
X0029665Y0051055D01*
X0029665Y0054253D02*
X0033794Y0054253D01*
X0030596Y0057452D02*
X0029665Y0057452D01*
X0029665Y0047856D02*
X0034287Y0047856D01*
X0033779Y0044658D02*
X0031972Y0044658D01*
X0024988Y0041459D02*
X0003800Y0041459D01*
X0003800Y0038261D02*
X0028187Y0038261D01*
X0031385Y0035062D02*
X0003800Y0035062D01*
X0226121Y0150208D02*
X0254264Y0150208D01*
X0254264Y0150580D02*
X0258045Y0150580D01*
X0258045Y0150580D01*
X0254264Y0150580D01*
X0254305Y0153407D02*
X0226534Y0153407D01*
X0258045Y0150208D02*
X0258045Y0150208D01*
X0375539Y0131017D02*
X0377007Y0131017D01*
X0387204Y0099032D02*
X0387964Y0099032D01*
X0387964Y0095834D02*
X0387250Y0095834D01*
D28*
X0385000Y0093275D02*
X0388000Y0090275D01*
X0388000Y0084091D01*
X0381669Y0077761D01*
X0385000Y0093275D02*
X0376500Y0093275D01*
X0365646Y0104130D01*
X0365646Y0133173D01*
X0362500Y0133169D02*
X0362496Y0133173D01*
X0362500Y0133169D02*
X0362500Y0121275D01*
X0328985Y0087761D01*
X0321669Y0087761D01*
X0321669Y0097761D02*
X0328985Y0097761D01*
X0352000Y0120775D01*
X0352000Y0133007D01*
X0351819Y0133188D01*
X0348669Y0133188D02*
X0348500Y0133019D01*
X0348500Y0123775D01*
X0332485Y0107761D01*
X0321669Y0107761D01*
X0305608Y0107947D02*
X0291982Y0121573D01*
X0291982Y0133175D01*
X0295131Y0133175D02*
X0295131Y0128424D01*
X0305608Y0117947D01*
X0321669Y0117761D02*
X0333985Y0117761D01*
X0345500Y0129275D01*
X0345500Y0133168D01*
X0345520Y0133188D01*
X0342370Y0133188D02*
X0327097Y0133188D01*
X0321669Y0127761D01*
X0339602Y0142058D02*
X0342370Y0139290D01*
X0345500Y0139310D02*
X0345520Y0139290D01*
X0345500Y0139310D02*
X0345500Y0143775D01*
X0344602Y0144673D01*
X0344602Y0150409D01*
X0339602Y0150409D02*
X0339602Y0142058D01*
X0348500Y0143775D02*
X0348500Y0139460D01*
X0348669Y0139290D01*
X0351819Y0139290D02*
X0354602Y0142074D01*
X0354602Y0150409D01*
X0349602Y0150409D02*
X0349602Y0144878D01*
X0348500Y0143775D01*
X0359720Y0142051D02*
X0362496Y0139275D01*
X0365500Y0139421D02*
X0365646Y0139275D01*
X0365500Y0139421D02*
X0365500Y0142775D01*
X0364720Y0143555D01*
X0364720Y0150409D01*
X0369720Y0150409D02*
X0369720Y0143496D01*
X0369000Y0142775D01*
X0369000Y0139480D01*
X0368795Y0139275D01*
X0371945Y0139275D02*
X0375031Y0142362D01*
X0375031Y0166307D01*
X0359720Y0150409D02*
X0359720Y0142051D01*
X0368795Y0133173D02*
X0368795Y0120635D01*
X0381669Y0107761D01*
X0381669Y0117761D02*
X0371945Y0127485D01*
X0371945Y0133173D01*
X0299031Y0143177D02*
X0295131Y0139277D01*
X0292000Y0139295D02*
X0291982Y0139277D01*
X0292000Y0139295D02*
X0292000Y0143775D01*
X0293045Y0144820D01*
X0293045Y0150580D01*
X0288045Y0150580D02*
X0288045Y0144231D01*
X0288500Y0143775D01*
X0288500Y0139609D01*
X0288832Y0139277D01*
X0285683Y0139277D02*
X0283045Y0141915D01*
X0283045Y0150580D01*
X0278045Y0150580D02*
X0278045Y0142230D01*
X0275061Y0139246D01*
X0272000Y0139335D02*
X0271911Y0139246D01*
X0272000Y0139335D02*
X0272000Y0143775D01*
X0273045Y0144820D01*
X0273045Y0150580D01*
X0268045Y0150580D02*
X0268045Y0144731D01*
X0268500Y0144275D01*
X0268500Y0139507D01*
X0268761Y0139246D01*
X0265612Y0139246D02*
X0263045Y0141812D01*
X0263045Y0150580D01*
X0265612Y0133143D02*
X0250804Y0133143D01*
X0245608Y0127947D01*
X0245608Y0117947D02*
X0257672Y0117947D01*
X0268500Y0128775D01*
X0268500Y0132882D01*
X0268761Y0133143D01*
X0271911Y0133143D02*
X0272000Y0133054D01*
X0272000Y0123775D01*
X0256172Y0107947D01*
X0245608Y0107947D01*
X0229608Y0107947D02*
X0214423Y0123132D01*
X0214423Y0132998D01*
X0217572Y0132998D02*
X0217572Y0129983D01*
X0229608Y0117947D01*
X0208000Y0120275D02*
X0208000Y0132874D01*
X0208124Y0132998D01*
X0211273Y0132998D02*
X0211273Y0096282D01*
X0229608Y0077947D01*
X0245608Y0087947D02*
X0254172Y0087947D01*
X0285500Y0119275D01*
X0285500Y0132992D01*
X0285683Y0133175D01*
X0288832Y0133175D02*
X0288832Y0094723D01*
X0305608Y0077947D01*
X0275000Y0119275D02*
X0253672Y0097947D01*
X0245608Y0097947D01*
X0275000Y0119275D02*
X0275000Y0133083D01*
X0275061Y0133143D01*
X0299031Y0143177D02*
X0299031Y0151807D01*
X0222031Y0152307D02*
X0222031Y0143559D01*
X0217572Y0139100D01*
X0214500Y0139177D02*
X0214423Y0139100D01*
X0214500Y0139177D02*
X0214500Y0143775D01*
X0215399Y0144675D01*
X0215399Y0150824D01*
X0210399Y0150824D02*
X0210399Y0144876D01*
X0211500Y0143775D01*
X0211500Y0139327D01*
X0211273Y0139100D01*
X0208124Y0139100D02*
X0205399Y0141824D01*
X0205399Y0150824D01*
X0200399Y0150824D02*
X0200399Y0142092D01*
X0197407Y0139100D01*
X0194500Y0139342D02*
X0194257Y0139100D01*
X0194500Y0139342D02*
X0194500Y0143775D01*
X0195399Y0144675D01*
X0195399Y0150824D01*
X0190399Y0150824D02*
X0190399Y0144376D01*
X0191000Y0143775D01*
X0191000Y0139208D01*
X0191108Y0139100D01*
X0187958Y0139100D02*
X0185399Y0141659D01*
X0185399Y0150824D01*
X0187958Y0132998D02*
X0174658Y0132998D01*
X0169608Y0127947D01*
X0169608Y0117947D02*
X0180172Y0117947D01*
X0191000Y0128775D01*
X0191000Y0132890D01*
X0191108Y0132998D01*
X0194000Y0132740D02*
X0194257Y0132998D01*
X0194000Y0132740D02*
X0194000Y0123775D01*
X0178172Y0107947D01*
X0169608Y0107947D01*
X0153608Y0107947D02*
X0140683Y0120872D01*
X0140683Y0133596D01*
X0143832Y0133596D02*
X0143832Y0127723D01*
X0153608Y0117947D01*
X0134500Y0122275D02*
X0134500Y0133479D01*
X0134383Y0133596D01*
X0137533Y0133596D02*
X0137533Y0094022D01*
X0153608Y0077947D01*
X0169608Y0087947D02*
X0175672Y0087947D01*
X0208000Y0120275D01*
X0197500Y0120275D02*
X0197500Y0132905D01*
X0197407Y0132998D01*
X0197500Y0120275D02*
X0175172Y0097947D01*
X0169608Y0097947D01*
X0124000Y0121775D02*
X0124000Y0133428D01*
X0123832Y0133596D01*
X0120683Y0133596D02*
X0120500Y0133413D01*
X0120500Y0124275D01*
X0104172Y0107947D01*
X0093608Y0107947D01*
X0093608Y0097947D02*
X0100172Y0097947D01*
X0124000Y0121775D01*
X0134500Y0122275D02*
X0100172Y0087947D01*
X0093608Y0087947D01*
X0093608Y0117947D02*
X0106672Y0117947D01*
X0117500Y0128775D01*
X0117500Y0133563D01*
X0117533Y0133596D01*
X0114383Y0133596D02*
X0099257Y0133596D01*
X0093608Y0127947D01*
X0111608Y0142474D02*
X0114383Y0139698D01*
X0117500Y0139731D02*
X0117533Y0139698D01*
X0117500Y0139731D02*
X0117500Y0143775D01*
X0116608Y0144668D01*
X0116608Y0150624D01*
X0111608Y0150624D02*
X0111608Y0142474D01*
X0120500Y0143775D02*
X0120500Y0139881D01*
X0120683Y0139698D01*
X0123832Y0139698D02*
X0124000Y0139866D01*
X0124000Y0143775D01*
X0126608Y0146383D01*
X0126608Y0150624D01*
X0131608Y0150624D02*
X0131608Y0142474D01*
X0134383Y0139698D01*
X0137000Y0140231D02*
X0137533Y0139698D01*
X0137000Y0140231D02*
X0137000Y0143775D01*
X0136608Y0144168D01*
X0136608Y0150624D01*
X0141608Y0150624D02*
X0141608Y0144883D01*
X0140500Y0143775D01*
X0140500Y0139881D01*
X0140683Y0139698D01*
X0143832Y0139698D02*
X0147531Y0143398D01*
X0147531Y0152307D01*
X0121608Y0150624D02*
X0121608Y0144883D01*
X0120500Y0143775D01*
X0057876Y0035369D02*
X0050393Y0035369D01*
D29*
X0090612Y0068307D02*
X0077703Y0081216D01*
X0090612Y0068307D02*
X0161531Y0068307D01*
X0161531Y0082307D01*
X0155891Y0087947D01*
X0153608Y0087947D01*
X0161531Y0068307D02*
X0237531Y0068307D01*
X0238031Y0068807D01*
X0238031Y0081807D01*
X0233691Y0086147D01*
X0229608Y0087947D01*
X0237531Y0068307D02*
X0314531Y0068307D01*
X0313531Y0069307D01*
X0313531Y0081807D01*
X0309191Y0086147D01*
X0305608Y0087947D01*
X0314531Y0068307D02*
X0357531Y0068307D01*
X0375031Y0085807D01*
X0381516Y0085807D01*
X0381669Y0087761D01*
X0084531Y0102807D02*
X0080140Y0098416D01*
X0077703Y0098416D01*
X0077503Y0115816D02*
X0077503Y0116279D01*
X0084031Y0122807D01*
D30*
X0014780Y0185409D03*
X0014780Y0020055D03*
X0376984Y0020055D03*
X0376984Y0185409D03*
M02*
