G75*
%MOIN*%
%OFA0B0*%
%FSLAX25Y25*%
%IPPOS*%
%LPD*%
%AMOC8*
5,1,8,0,0,1.08239X$1,22.5*
%
%ADD10C,0.00000*%
%ADD11R,0.04140X0.03943*%
%ADD12R,0.02762X0.05124*%
%ADD13C,0.06000*%
%ADD14R,0.04337X0.06306*%
%ADD15R,0.02172X0.03156*%
%ADD16R,0.02800X0.09100*%
%ADD17C,0.07400*%
%ADD18R,0.05912X0.04337*%
%ADD19R,0.01778X0.05912*%
%ADD20R,0.07487X0.07880*%
%ADD21R,0.07880X0.07880*%
%ADD22R,0.06306X0.05518*%
%ADD23C,0.16211*%
D10*
X0001000Y0006275D02*
X0001000Y0199189D01*
X0390764Y0199189D01*
X0390764Y0006275D01*
X0001000Y0006275D01*
D11*
X0049316Y0033618D03*
X0049316Y0046020D03*
X0073943Y0045513D03*
X0073943Y0033112D03*
D12*
X0072907Y0150009D03*
X0067907Y0150009D03*
X0062907Y0150009D03*
X0057907Y0150009D03*
X0052907Y0150009D03*
X0047907Y0150009D03*
X0077907Y0150009D03*
X0082907Y0150009D03*
X0106608Y0150624D03*
X0111608Y0150624D03*
X0116608Y0150624D03*
X0121608Y0150624D03*
X0126608Y0150624D03*
X0131608Y0150624D03*
X0136608Y0150624D03*
X0141608Y0150624D03*
X0180399Y0150824D03*
X0185399Y0150824D03*
X0190399Y0150824D03*
X0195399Y0150824D03*
X0200399Y0150824D03*
X0205399Y0150824D03*
X0210399Y0150824D03*
X0215399Y0150824D03*
X0215399Y0172872D03*
X0210399Y0172872D03*
X0205399Y0172872D03*
X0200399Y0172872D03*
X0195399Y0172872D03*
X0190399Y0172872D03*
X0185399Y0172872D03*
X0180399Y0172872D03*
X0141608Y0172671D03*
X0136608Y0172671D03*
X0131608Y0172671D03*
X0126608Y0172671D03*
X0121608Y0172671D03*
X0116608Y0172671D03*
X0111608Y0172671D03*
X0106608Y0172671D03*
X0082907Y0172057D03*
X0077907Y0172057D03*
X0072907Y0172057D03*
X0067907Y0172057D03*
X0062907Y0172057D03*
X0057907Y0172057D03*
X0052907Y0172057D03*
X0047907Y0172057D03*
X0258045Y0172627D03*
X0263045Y0172627D03*
X0268045Y0172627D03*
X0273045Y0172627D03*
X0278045Y0172627D03*
X0283045Y0172627D03*
X0288045Y0172627D03*
X0293045Y0172627D03*
X0293045Y0150580D03*
X0288045Y0150580D03*
X0283045Y0150580D03*
X0278045Y0150580D03*
X0273045Y0150580D03*
X0268045Y0150580D03*
X0263045Y0150580D03*
X0258045Y0150580D03*
X0334602Y0150409D03*
X0339602Y0150409D03*
X0344602Y0150409D03*
X0349602Y0150409D03*
X0354602Y0150409D03*
X0359602Y0150409D03*
X0364602Y0150409D03*
X0369602Y0150409D03*
X0369602Y0172457D03*
X0364602Y0172457D03*
X0359602Y0172457D03*
X0354602Y0172457D03*
X0349602Y0172457D03*
X0344602Y0172457D03*
X0339602Y0172457D03*
X0334602Y0172457D03*
D13*
X0321669Y0127761D03*
X0305608Y0127947D03*
X0305608Y0117947D03*
X0321669Y0117761D03*
X0321669Y0107761D03*
X0305608Y0107947D03*
X0305608Y0097947D03*
X0321669Y0097761D03*
X0321669Y0087761D03*
X0305608Y0087947D03*
X0305608Y0077947D03*
X0321669Y0077761D03*
X0381669Y0077761D03*
X0381669Y0087761D03*
X0381669Y0097761D03*
X0381669Y0107761D03*
X0381669Y0117761D03*
X0381669Y0127761D03*
X0245608Y0127947D03*
X0229608Y0127947D03*
X0229608Y0117947D03*
X0245608Y0117947D03*
X0245608Y0107947D03*
X0229608Y0107947D03*
X0229608Y0097947D03*
X0245608Y0097947D03*
X0245608Y0087947D03*
X0229608Y0087947D03*
X0229608Y0077947D03*
X0245608Y0077947D03*
X0169608Y0077947D03*
X0153608Y0077947D03*
X0153608Y0087947D03*
X0169608Y0087947D03*
X0169608Y0097947D03*
X0153608Y0097947D03*
X0153608Y0107947D03*
X0169608Y0107947D03*
X0169608Y0117947D03*
X0153608Y0117947D03*
X0153608Y0127947D03*
X0169608Y0127947D03*
X0093608Y0127947D03*
X0093608Y0117947D03*
X0093608Y0107947D03*
X0093608Y0097947D03*
X0093608Y0087947D03*
X0093608Y0077947D03*
D14*
X0081443Y0043656D03*
X0081443Y0035369D03*
X0066583Y0035282D03*
X0057876Y0035369D03*
X0057876Y0043656D03*
X0066583Y0043570D03*
X0019531Y0107163D03*
X0019531Y0115451D03*
X0047272Y0129286D03*
X0055578Y0129286D03*
X0063865Y0129186D03*
X0063865Y0137474D03*
X0055578Y0137574D03*
X0047272Y0137574D03*
D15*
X0114383Y0139698D03*
X0117533Y0139698D03*
X0120683Y0139698D03*
X0123832Y0139698D03*
X0123832Y0133596D03*
X0120683Y0133596D03*
X0117533Y0133596D03*
X0114383Y0133596D03*
X0134383Y0133596D03*
X0137533Y0133596D03*
X0140683Y0133596D03*
X0143832Y0133596D03*
X0143832Y0139698D03*
X0140683Y0139698D03*
X0137533Y0139698D03*
X0134383Y0139698D03*
X0187958Y0139100D03*
X0191108Y0139100D03*
X0194257Y0139100D03*
X0197407Y0139100D03*
X0197407Y0132998D03*
X0194257Y0132998D03*
X0191108Y0132998D03*
X0187958Y0132998D03*
X0208124Y0132998D03*
X0211273Y0132998D03*
X0214423Y0132998D03*
X0217572Y0132998D03*
X0217572Y0139100D03*
X0214423Y0139100D03*
X0211273Y0139100D03*
X0208124Y0139100D03*
X0265612Y0139246D03*
X0268761Y0139246D03*
X0271911Y0139246D03*
X0275061Y0139246D03*
X0285683Y0139277D03*
X0288832Y0139277D03*
X0291982Y0139277D03*
X0295131Y0139277D03*
X0295131Y0133175D03*
X0291982Y0133175D03*
X0288832Y0133175D03*
X0285683Y0133175D03*
X0275061Y0133143D03*
X0271911Y0133143D03*
X0268761Y0133143D03*
X0265612Y0133143D03*
X0342370Y0133188D03*
X0345520Y0133188D03*
X0348669Y0133188D03*
X0351819Y0133188D03*
X0351819Y0139290D03*
X0348669Y0139290D03*
X0345520Y0139290D03*
X0342370Y0139290D03*
X0362496Y0139275D03*
X0365646Y0139275D03*
X0368795Y0139275D03*
X0371945Y0139275D03*
X0371945Y0133173D03*
X0368795Y0133173D03*
X0365646Y0133173D03*
X0362496Y0133173D03*
D16*
X0041065Y0097218D03*
X0036065Y0097218D03*
X0031065Y0097218D03*
X0026065Y0097218D03*
X0026065Y0070718D03*
X0031065Y0070718D03*
X0036065Y0070718D03*
X0041065Y0070718D03*
D17*
X0008031Y0067307D03*
X0008031Y0077307D03*
X0008031Y0087307D03*
X0008031Y0097307D03*
X0008031Y0107307D03*
X0008031Y0117307D03*
X0008031Y0127307D03*
X0008031Y0137307D03*
D18*
X0068842Y0119556D03*
X0077503Y0115816D03*
X0068842Y0112075D03*
X0069042Y0102156D03*
X0077703Y0098416D03*
X0069042Y0094675D03*
X0069042Y0084956D03*
X0077703Y0081216D03*
X0069042Y0077475D03*
D19*
X0067650Y0022709D03*
X0065091Y0022709D03*
X0062531Y0022709D03*
X0059972Y0022709D03*
X0057413Y0022709D03*
D20*
X0046783Y0012275D03*
X0078280Y0012275D03*
D21*
X0067531Y0012275D03*
X0057531Y0012275D03*
D22*
X0039331Y0036267D03*
X0039331Y0043747D03*
X0093457Y0159087D03*
X0093457Y0166567D03*
X0166740Y0166567D03*
X0166740Y0159087D03*
X0243937Y0159087D03*
X0243937Y0166567D03*
X0321134Y0166567D03*
X0321134Y0159087D03*
D23*
X0376984Y0185409D03*
X0376984Y0020055D03*
X0014780Y0020055D03*
X0014780Y0185409D03*
M02*
