G04 #@! TF.FileFunction,Legend,Bot*
%FSLAX46Y46*%
G04 Gerber Fmt 4.6, Leading zero omitted, Abs format (unit mm)*
G04 Created by KiCad (PCBNEW 4.0.2-stable) date 16-09-23 18:11:48*
%MOMM*%
G01*
G04 APERTURE LIST*
%ADD10C,0.100000*%
%ADD11C,0.066040*%
%ADD12C,0.127000*%
%ADD13C,0.101600*%
%ADD14C,0.150000*%
%ADD15C,0.076200*%
%ADD16C,0.050000*%
%ADD17C,0.400000*%
%ADD18O,1.898600X0.798780*%
%ADD19O,1.799540X1.997660*%
%ADD20O,2.432000X1.416000*%
%ADD21C,2.299920*%
%ADD22C,1.900000*%
%ADD23C,1.924000*%
%ADD24R,1.670000X2.178000*%
%ADD25C,1.035000*%
%ADD26C,4.464000*%
%ADD27R,1.797000X1.416000*%
%ADD28R,1.289000X1.289000*%
%ADD29R,2.432000X2.178000*%
%ADD30R,1.598880X1.098500*%
%ADD31R,0.900000X0.500000*%
%ADD32R,0.500000X0.900000*%
%ADD33R,3.900000X3.900000*%
%ADD34R,1.670000X1.670000*%
G04 APERTURE END LIST*
D10*
D11*
X120322340Y-128004600D02*
X120322340Y-125007400D01*
X120322340Y-125007400D02*
X120721120Y-125007400D01*
X120721120Y-128004600D02*
X120721120Y-125007400D01*
X120322340Y-128004600D02*
X120721120Y-128004600D01*
D12*
X116921280Y-130204240D02*
X121920000Y-130204240D01*
X121920000Y-130204240D02*
X121920000Y-122807760D01*
X121920000Y-122807760D02*
X116921280Y-122807760D01*
X116921280Y-130204240D02*
X116321840Y-130503960D01*
X116921280Y-122807760D02*
X116321840Y-122508040D01*
X116822220Y-130204240D02*
X116822220Y-122807760D01*
X116420900Y-129805460D02*
X116420900Y-123308140D01*
X116420900Y-129805460D02*
X116321840Y-130503960D01*
X116420900Y-123308140D02*
X116321840Y-122508040D01*
D11*
X124206000Y-130189000D02*
X128270000Y-130189000D01*
X128270000Y-130189000D02*
X128270000Y-131967000D01*
X124206000Y-131967000D02*
X128270000Y-131967000D01*
X124206000Y-130189000D02*
X124206000Y-131967000D01*
X153924000Y-135904000D02*
X151384000Y-135904000D01*
X151384000Y-135904000D02*
X151384000Y-134888000D01*
X153924000Y-134888000D02*
X151384000Y-134888000D01*
X153924000Y-135904000D02*
X153924000Y-134888000D01*
X143002000Y-133618000D02*
X143002000Y-132348000D01*
X143002000Y-132348000D02*
X145034000Y-132348000D01*
X145034000Y-133618000D02*
X145034000Y-132348000D01*
X143002000Y-133618000D02*
X145034000Y-133618000D01*
X143002000Y-129808000D02*
X143002000Y-128538000D01*
X143002000Y-128538000D02*
X145034000Y-128538000D01*
X145034000Y-129808000D02*
X145034000Y-128538000D01*
X143002000Y-129808000D02*
X145034000Y-129808000D01*
X142367000Y-133618000D02*
X142367000Y-128538000D01*
X142367000Y-128538000D02*
X145669000Y-128538000D01*
X145669000Y-133618000D02*
X145669000Y-128538000D01*
X142367000Y-133618000D02*
X145669000Y-133618000D01*
X139954000Y-128538000D02*
X139954000Y-131078000D01*
X139954000Y-131078000D02*
X138938000Y-131078000D01*
X138938000Y-128538000D02*
X138938000Y-131078000D01*
X139954000Y-128538000D02*
X138938000Y-128538000D01*
X139954000Y-131078000D02*
X139954000Y-133618000D01*
X139954000Y-133618000D02*
X138938000Y-133618000D01*
X138938000Y-131078000D02*
X138938000Y-133618000D01*
X139954000Y-131078000D02*
X138938000Y-131078000D01*
X133616700Y-99582000D02*
X133616700Y-112282000D01*
X133616700Y-112282000D02*
X125971300Y-112282000D01*
X125971300Y-99582000D02*
X125971300Y-112282000D01*
X133616700Y-99582000D02*
X125971300Y-99582000D01*
X133616700Y-82818000D02*
X133616700Y-95518000D01*
X133616700Y-95518000D02*
X125971300Y-95518000D01*
X125971300Y-82818000D02*
X125971300Y-95518000D01*
X133616700Y-82818000D02*
X125971300Y-82818000D01*
X133616700Y-66308000D02*
X133616700Y-79008000D01*
X133616700Y-79008000D02*
X125971300Y-79008000D01*
X125971300Y-66308000D02*
X125971300Y-79008000D01*
X133616700Y-66308000D02*
X125971300Y-66308000D01*
X133616700Y-49544000D02*
X133616700Y-62244000D01*
X133616700Y-62244000D02*
X125971300Y-62244000D01*
X125971300Y-49544000D02*
X125971300Y-62244000D01*
X133616700Y-49544000D02*
X125971300Y-49544000D01*
D12*
X128270000Y-82183000D02*
X158242000Y-82183000D01*
X158242000Y-82183000D02*
X158242000Y-96153000D01*
X158242000Y-96153000D02*
X128270000Y-96153000D01*
X128270000Y-96153000D02*
X128270000Y-82183000D01*
X128270000Y-65673000D02*
X158242000Y-65673000D01*
X158242000Y-65673000D02*
X158242000Y-79643000D01*
X158242000Y-79643000D02*
X128270000Y-79643000D01*
X128270000Y-79643000D02*
X128270000Y-65673000D01*
X128270000Y-48909000D02*
X158242000Y-48909000D01*
X158242000Y-48909000D02*
X158242000Y-62879000D01*
X158242000Y-62879000D02*
X128270000Y-62879000D01*
X128270000Y-62879000D02*
X128270000Y-48909000D01*
X149284000Y-131546000D02*
X148884000Y-131546000D01*
X148884000Y-131546000D02*
X148884000Y-131146000D01*
X153484000Y-131546000D02*
X153884000Y-131546000D01*
X153884000Y-131546000D02*
X153884000Y-131146000D01*
X148884000Y-126946000D02*
X148884000Y-126546000D01*
X148884000Y-126546000D02*
X149284000Y-126546000D01*
X153484000Y-126546000D02*
X153884000Y-126546000D01*
X153884000Y-126546000D02*
X153884000Y-126946000D01*
D10*
X148761000Y-131296000D02*
G75*
G03X148761000Y-131296000I-127000J0D01*
G01*
D11*
X126365000Y-121045000D02*
X122047000Y-121045000D01*
X122047000Y-121045000D02*
X122047000Y-119267000D01*
X126365000Y-119267000D02*
X122047000Y-119267000D01*
X126365000Y-121045000D02*
X126365000Y-119267000D01*
D12*
X128270000Y-98947000D02*
X158242000Y-98947000D01*
X158242000Y-98947000D02*
X158242000Y-112917000D01*
X158242000Y-112917000D02*
X128270000Y-112917000D01*
X128270000Y-112917000D02*
X128270000Y-98947000D01*
D13*
X122957167Y-122674834D02*
X123676833Y-122674834D01*
X123761500Y-122717167D01*
X123803833Y-122759500D01*
X123846167Y-122844167D01*
X123846167Y-123013500D01*
X123803833Y-123098167D01*
X123761500Y-123140500D01*
X123676833Y-123182834D01*
X122957167Y-123182834D01*
X123803833Y-123563833D02*
X123846167Y-123690833D01*
X123846167Y-123902500D01*
X123803833Y-123987167D01*
X123761500Y-124029500D01*
X123676833Y-124071833D01*
X123592167Y-124071833D01*
X123507500Y-124029500D01*
X123465167Y-123987167D01*
X123422833Y-123902500D01*
X123380500Y-123733167D01*
X123338167Y-123648500D01*
X123295833Y-123606167D01*
X123211167Y-123563833D01*
X123126500Y-123563833D01*
X123041833Y-123606167D01*
X122999500Y-123648500D01*
X122957167Y-123733167D01*
X122957167Y-123944833D01*
X122999500Y-124071833D01*
X123380500Y-124749167D02*
X123422833Y-124876167D01*
X123465167Y-124918500D01*
X123549833Y-124960834D01*
X123676833Y-124960834D01*
X123761500Y-124918500D01*
X123803833Y-124876167D01*
X123846167Y-124791500D01*
X123846167Y-124452834D01*
X122957167Y-124452834D01*
X122957167Y-124749167D01*
X122999500Y-124833834D01*
X123041833Y-124876167D01*
X123126500Y-124918500D01*
X123211167Y-124918500D01*
X123295833Y-124876167D01*
X123338167Y-124833834D01*
X123380500Y-124749167D01*
X123380500Y-124452834D01*
X123846167Y-125807500D02*
X123846167Y-125299500D01*
X123846167Y-125553500D02*
X122957167Y-125553500D01*
X123084167Y-125468834D01*
X123168833Y-125384167D01*
X123211167Y-125299500D01*
D14*
X163321904Y-124990000D02*
X163417142Y-124942381D01*
X163559999Y-124942381D01*
X163702857Y-124990000D01*
X163798095Y-125085238D01*
X163845714Y-125180476D01*
X163893333Y-125370952D01*
X163893333Y-125513810D01*
X163845714Y-125704286D01*
X163798095Y-125799524D01*
X163702857Y-125894762D01*
X163559999Y-125942381D01*
X163464761Y-125942381D01*
X163321904Y-125894762D01*
X163274285Y-125847143D01*
X163274285Y-125513810D01*
X163464761Y-125513810D01*
X162845714Y-125942381D02*
X162845714Y-124942381D01*
X162274285Y-125942381D01*
X162274285Y-124942381D01*
X161798095Y-125942381D02*
X161798095Y-124942381D01*
X161560000Y-124942381D01*
X161417142Y-124990000D01*
X161321904Y-125085238D01*
X161274285Y-125180476D01*
X161226666Y-125370952D01*
X161226666Y-125513810D01*
X161274285Y-125704286D01*
X161321904Y-125799524D01*
X161417142Y-125894762D01*
X161560000Y-125942381D01*
X161798095Y-125942381D01*
X163845714Y-123354762D02*
X163702857Y-123402381D01*
X163464761Y-123402381D01*
X163369523Y-123354762D01*
X163321904Y-123307143D01*
X163274285Y-123211905D01*
X163274285Y-123116667D01*
X163321904Y-123021429D01*
X163369523Y-122973810D01*
X163464761Y-122926190D01*
X163655238Y-122878571D01*
X163750476Y-122830952D01*
X163798095Y-122783333D01*
X163845714Y-122688095D01*
X163845714Y-122592857D01*
X163798095Y-122497619D01*
X163750476Y-122450000D01*
X163655238Y-122402381D01*
X163417142Y-122402381D01*
X163274285Y-122450000D01*
X162274285Y-123307143D02*
X162321904Y-123354762D01*
X162464761Y-123402381D01*
X162559999Y-123402381D01*
X162702857Y-123354762D01*
X162798095Y-123259524D01*
X162845714Y-123164286D01*
X162893333Y-122973810D01*
X162893333Y-122830952D01*
X162845714Y-122640476D01*
X162798095Y-122545238D01*
X162702857Y-122450000D01*
X162559999Y-122402381D01*
X162464761Y-122402381D01*
X162321904Y-122450000D01*
X162274285Y-122497619D01*
X161845714Y-123402381D02*
X161845714Y-122402381D01*
X161274285Y-123402381D02*
X161702857Y-122830952D01*
X161274285Y-122402381D02*
X161845714Y-122973810D01*
X163877428Y-120862381D02*
X163877428Y-119862381D01*
X163544094Y-120576667D01*
X163210761Y-119862381D01*
X163210761Y-120862381D01*
X162734571Y-120862381D02*
X162734571Y-119862381D01*
X162306000Y-120814762D02*
X162163143Y-120862381D01*
X161925047Y-120862381D01*
X161829809Y-120814762D01*
X161782190Y-120767143D01*
X161734571Y-120671905D01*
X161734571Y-120576667D01*
X161782190Y-120481429D01*
X161829809Y-120433810D01*
X161925047Y-120386190D01*
X162115524Y-120338571D01*
X162210762Y-120290952D01*
X162258381Y-120243333D01*
X162306000Y-120148095D01*
X162306000Y-120052857D01*
X162258381Y-119957619D01*
X162210762Y-119910000D01*
X162115524Y-119862381D01*
X161877428Y-119862381D01*
X161734571Y-119910000D01*
X161115524Y-119862381D02*
X160925047Y-119862381D01*
X160829809Y-119910000D01*
X160734571Y-120005238D01*
X160686952Y-120195714D01*
X160686952Y-120529048D01*
X160734571Y-120719524D01*
X160829809Y-120814762D01*
X160925047Y-120862381D01*
X161115524Y-120862381D01*
X161210762Y-120814762D01*
X161306000Y-120719524D01*
X161353619Y-120529048D01*
X161353619Y-120195714D01*
X161306000Y-120005238D01*
X161210762Y-119910000D01*
X161115524Y-119862381D01*
X163877428Y-118322381D02*
X163877428Y-117322381D01*
X163544094Y-118036667D01*
X163210761Y-117322381D01*
X163210761Y-118322381D01*
X162544095Y-117322381D02*
X162353618Y-117322381D01*
X162258380Y-117370000D01*
X162163142Y-117465238D01*
X162115523Y-117655714D01*
X162115523Y-117989048D01*
X162163142Y-118179524D01*
X162258380Y-118274762D01*
X162353618Y-118322381D01*
X162544095Y-118322381D01*
X162639333Y-118274762D01*
X162734571Y-118179524D01*
X162782190Y-117989048D01*
X162782190Y-117655714D01*
X162734571Y-117465238D01*
X162639333Y-117370000D01*
X162544095Y-117322381D01*
X161734571Y-118274762D02*
X161591714Y-118322381D01*
X161353618Y-118322381D01*
X161258380Y-118274762D01*
X161210761Y-118227143D01*
X161163142Y-118131905D01*
X161163142Y-118036667D01*
X161210761Y-117941429D01*
X161258380Y-117893810D01*
X161353618Y-117846190D01*
X161544095Y-117798571D01*
X161639333Y-117750952D01*
X161686952Y-117703333D01*
X161734571Y-117608095D01*
X161734571Y-117512857D01*
X161686952Y-117417619D01*
X161639333Y-117370000D01*
X161544095Y-117322381D01*
X161305999Y-117322381D01*
X161163142Y-117370000D01*
X160734571Y-118322381D02*
X160734571Y-117322381D01*
X163377381Y-115782381D02*
X163710715Y-115306190D01*
X163948810Y-115782381D02*
X163948810Y-114782381D01*
X163567857Y-114782381D01*
X163472619Y-114830000D01*
X163425000Y-114877619D01*
X163377381Y-114972857D01*
X163377381Y-115115714D01*
X163425000Y-115210952D01*
X163472619Y-115258571D01*
X163567857Y-115306190D01*
X163948810Y-115306190D01*
X162948810Y-115258571D02*
X162615476Y-115258571D01*
X162472619Y-115782381D02*
X162948810Y-115782381D01*
X162948810Y-114782381D01*
X162472619Y-114782381D01*
X162091667Y-115734762D02*
X161948810Y-115782381D01*
X161710714Y-115782381D01*
X161615476Y-115734762D01*
X161567857Y-115687143D01*
X161520238Y-115591905D01*
X161520238Y-115496667D01*
X161567857Y-115401429D01*
X161615476Y-115353810D01*
X161710714Y-115306190D01*
X161901191Y-115258571D01*
X161996429Y-115210952D01*
X162044048Y-115163333D01*
X162091667Y-115068095D01*
X162091667Y-114972857D01*
X162044048Y-114877619D01*
X161996429Y-114830000D01*
X161901191Y-114782381D01*
X161663095Y-114782381D01*
X161520238Y-114830000D01*
X161091667Y-115258571D02*
X160758333Y-115258571D01*
X160615476Y-115782381D02*
X161091667Y-115782381D01*
X161091667Y-114782381D01*
X160615476Y-114782381D01*
X160329762Y-114782381D02*
X159758333Y-114782381D01*
X160044048Y-115782381D02*
X160044048Y-114782381D01*
X163893333Y-112242381D02*
X163560000Y-113242381D01*
X163226666Y-112242381D01*
X162321904Y-113147143D02*
X162369523Y-113194762D01*
X162512380Y-113242381D01*
X162607618Y-113242381D01*
X162750476Y-113194762D01*
X162845714Y-113099524D01*
X162893333Y-113004286D01*
X162940952Y-112813810D01*
X162940952Y-112670952D01*
X162893333Y-112480476D01*
X162845714Y-112385238D01*
X162750476Y-112290000D01*
X162607618Y-112242381D01*
X162512380Y-112242381D01*
X162369523Y-112290000D01*
X162321904Y-112337619D01*
X161321904Y-113147143D02*
X161369523Y-113194762D01*
X161512380Y-113242381D01*
X161607618Y-113242381D01*
X161750476Y-113194762D01*
X161845714Y-113099524D01*
X161893333Y-113004286D01*
X161940952Y-112813810D01*
X161940952Y-112670952D01*
X161893333Y-112480476D01*
X161845714Y-112385238D01*
X161750476Y-112290000D01*
X161607618Y-112242381D01*
X161512380Y-112242381D01*
X161369523Y-112290000D01*
X161321904Y-112337619D01*
X166314286Y-104352381D02*
X166314286Y-103352381D01*
X165933333Y-103352381D01*
X165838095Y-103400000D01*
X165790476Y-103447619D01*
X165742857Y-103542857D01*
X165742857Y-103685714D01*
X165790476Y-103780952D01*
X165838095Y-103828571D01*
X165933333Y-103876190D01*
X166314286Y-103876190D01*
X164790476Y-104352381D02*
X165361905Y-104352381D01*
X165076191Y-104352381D02*
X165076191Y-103352381D01*
X165171429Y-103495238D01*
X165266667Y-103590476D01*
X165361905Y-103638095D01*
X164171429Y-103352381D02*
X164076190Y-103352381D01*
X163980952Y-103400000D01*
X163933333Y-103447619D01*
X163885714Y-103542857D01*
X163838095Y-103733333D01*
X163838095Y-103971429D01*
X163885714Y-104161905D01*
X163933333Y-104257143D01*
X163980952Y-104304762D01*
X164076190Y-104352381D01*
X164171429Y-104352381D01*
X164266667Y-104304762D01*
X164314286Y-104257143D01*
X164361905Y-104161905D01*
X164409524Y-103971429D01*
X164409524Y-103733333D01*
X164361905Y-103542857D01*
X164314286Y-103447619D01*
X164266667Y-103400000D01*
X164171429Y-103352381D01*
X165838095Y-106892381D02*
X165838095Y-105892381D01*
X165457142Y-105892381D01*
X165361904Y-105940000D01*
X165314285Y-105987619D01*
X165266666Y-106082857D01*
X165266666Y-106225714D01*
X165314285Y-106320952D01*
X165361904Y-106368571D01*
X165457142Y-106416190D01*
X165838095Y-106416190D01*
X164790476Y-106892381D02*
X164600000Y-106892381D01*
X164504761Y-106844762D01*
X164457142Y-106797143D01*
X164361904Y-106654286D01*
X164314285Y-106463810D01*
X164314285Y-106082857D01*
X164361904Y-105987619D01*
X164409523Y-105940000D01*
X164504761Y-105892381D01*
X164695238Y-105892381D01*
X164790476Y-105940000D01*
X164838095Y-105987619D01*
X164885714Y-106082857D01*
X164885714Y-106320952D01*
X164838095Y-106416190D01*
X164790476Y-106463810D01*
X164695238Y-106511429D01*
X164504761Y-106511429D01*
X164409523Y-106463810D01*
X164361904Y-106416190D01*
X164314285Y-106320952D01*
X165838095Y-101812381D02*
X165838095Y-100812381D01*
X165457142Y-100812381D01*
X165361904Y-100860000D01*
X165314285Y-100907619D01*
X165266666Y-101002857D01*
X165266666Y-101145714D01*
X165314285Y-101240952D01*
X165361904Y-101288571D01*
X165457142Y-101336190D01*
X165838095Y-101336190D01*
X164695238Y-101240952D02*
X164790476Y-101193333D01*
X164838095Y-101145714D01*
X164885714Y-101050476D01*
X164885714Y-101002857D01*
X164838095Y-100907619D01*
X164790476Y-100860000D01*
X164695238Y-100812381D01*
X164504761Y-100812381D01*
X164409523Y-100860000D01*
X164361904Y-100907619D01*
X164314285Y-101002857D01*
X164314285Y-101050476D01*
X164361904Y-101145714D01*
X164409523Y-101193333D01*
X164504761Y-101240952D01*
X164695238Y-101240952D01*
X164790476Y-101288571D01*
X164838095Y-101336190D01*
X164885714Y-101431429D01*
X164885714Y-101621905D01*
X164838095Y-101717143D01*
X164790476Y-101764762D01*
X164695238Y-101812381D01*
X164504761Y-101812381D01*
X164409523Y-101764762D01*
X164361904Y-101717143D01*
X164314285Y-101621905D01*
X164314285Y-101431429D01*
X164361904Y-101336190D01*
X164409523Y-101288571D01*
X164504761Y-101240952D01*
X165838095Y-99272381D02*
X165838095Y-98272381D01*
X165457142Y-98272381D01*
X165361904Y-98320000D01*
X165314285Y-98367619D01*
X165266666Y-98462857D01*
X165266666Y-98605714D01*
X165314285Y-98700952D01*
X165361904Y-98748571D01*
X165457142Y-98796190D01*
X165838095Y-98796190D01*
X164933333Y-98272381D02*
X164266666Y-98272381D01*
X164695238Y-99272381D01*
X165838095Y-96732381D02*
X165838095Y-95732381D01*
X165457142Y-95732381D01*
X165361904Y-95780000D01*
X165314285Y-95827619D01*
X165266666Y-95922857D01*
X165266666Y-96065714D01*
X165314285Y-96160952D01*
X165361904Y-96208571D01*
X165457142Y-96256190D01*
X165838095Y-96256190D01*
X164409523Y-95732381D02*
X164600000Y-95732381D01*
X164695238Y-95780000D01*
X164742857Y-95827619D01*
X164838095Y-95970476D01*
X164885714Y-96160952D01*
X164885714Y-96541905D01*
X164838095Y-96637143D01*
X164790476Y-96684762D01*
X164695238Y-96732381D01*
X164504761Y-96732381D01*
X164409523Y-96684762D01*
X164361904Y-96637143D01*
X164314285Y-96541905D01*
X164314285Y-96303810D01*
X164361904Y-96208571D01*
X164409523Y-96160952D01*
X164504761Y-96113333D01*
X164695238Y-96113333D01*
X164790476Y-96160952D01*
X164838095Y-96208571D01*
X164885714Y-96303810D01*
X165838095Y-94192381D02*
X165838095Y-93192381D01*
X165457142Y-93192381D01*
X165361904Y-93240000D01*
X165314285Y-93287619D01*
X165266666Y-93382857D01*
X165266666Y-93525714D01*
X165314285Y-93620952D01*
X165361904Y-93668571D01*
X165457142Y-93716190D01*
X165838095Y-93716190D01*
X164361904Y-93192381D02*
X164838095Y-93192381D01*
X164885714Y-93668571D01*
X164838095Y-93620952D01*
X164742857Y-93573333D01*
X164504761Y-93573333D01*
X164409523Y-93620952D01*
X164361904Y-93668571D01*
X164314285Y-93763810D01*
X164314285Y-94001905D01*
X164361904Y-94097143D01*
X164409523Y-94144762D01*
X164504761Y-94192381D01*
X164742857Y-94192381D01*
X164838095Y-94144762D01*
X164885714Y-94097143D01*
X165838095Y-91652381D02*
X165838095Y-90652381D01*
X165457142Y-90652381D01*
X165361904Y-90700000D01*
X165314285Y-90747619D01*
X165266666Y-90842857D01*
X165266666Y-90985714D01*
X165314285Y-91080952D01*
X165361904Y-91128571D01*
X165457142Y-91176190D01*
X165838095Y-91176190D01*
X164409523Y-90985714D02*
X164409523Y-91652381D01*
X164647619Y-90604762D02*
X164885714Y-91319048D01*
X164266666Y-91319048D01*
X165838095Y-89112381D02*
X165838095Y-88112381D01*
X165457142Y-88112381D01*
X165361904Y-88160000D01*
X165314285Y-88207619D01*
X165266666Y-88302857D01*
X165266666Y-88445714D01*
X165314285Y-88540952D01*
X165361904Y-88588571D01*
X165457142Y-88636190D01*
X165838095Y-88636190D01*
X164933333Y-88112381D02*
X164314285Y-88112381D01*
X164647619Y-88493333D01*
X164504761Y-88493333D01*
X164409523Y-88540952D01*
X164361904Y-88588571D01*
X164314285Y-88683810D01*
X164314285Y-88921905D01*
X164361904Y-89017143D01*
X164409523Y-89064762D01*
X164504761Y-89112381D01*
X164790476Y-89112381D01*
X164885714Y-89064762D01*
X164933333Y-89017143D01*
X165838095Y-86572381D02*
X165838095Y-85572381D01*
X165457142Y-85572381D01*
X165361904Y-85620000D01*
X165314285Y-85667619D01*
X165266666Y-85762857D01*
X165266666Y-85905714D01*
X165314285Y-86000952D01*
X165361904Y-86048571D01*
X165457142Y-86096190D01*
X165838095Y-86096190D01*
X164885714Y-85667619D02*
X164838095Y-85620000D01*
X164742857Y-85572381D01*
X164504761Y-85572381D01*
X164409523Y-85620000D01*
X164361904Y-85667619D01*
X164314285Y-85762857D01*
X164314285Y-85858095D01*
X164361904Y-86000952D01*
X164933333Y-86572381D01*
X164314285Y-86572381D01*
X165838095Y-84032381D02*
X165838095Y-83032381D01*
X165457142Y-83032381D01*
X165361904Y-83080000D01*
X165314285Y-83127619D01*
X165266666Y-83222857D01*
X165266666Y-83365714D01*
X165314285Y-83460952D01*
X165361904Y-83508571D01*
X165457142Y-83556190D01*
X165838095Y-83556190D01*
X164314285Y-84032381D02*
X164885714Y-84032381D01*
X164600000Y-84032381D02*
X164600000Y-83032381D01*
X164695238Y-83175238D01*
X164790476Y-83270476D01*
X164885714Y-83318095D01*
D13*
X126851833Y-132729000D02*
X127148166Y-132729000D01*
X127148166Y-133194667D02*
X127148166Y-132305667D01*
X126724833Y-132305667D01*
X125920500Y-133194667D02*
X126428500Y-133194667D01*
X126174500Y-133194667D02*
X126174500Y-132305667D01*
X126259166Y-132432667D01*
X126343833Y-132517333D01*
X126428500Y-132559667D01*
X135509001Y-129723333D02*
X135382001Y-129765667D01*
X135170334Y-129765667D01*
X135085667Y-129723333D01*
X135043334Y-129681000D01*
X135001001Y-129596333D01*
X135001001Y-129511667D01*
X135043334Y-129427000D01*
X135085667Y-129384667D01*
X135170334Y-129342333D01*
X135339667Y-129300000D01*
X135424334Y-129257667D01*
X135466667Y-129215333D01*
X135509001Y-129130667D01*
X135509001Y-129046000D01*
X135466667Y-128961333D01*
X135424334Y-128919000D01*
X135339667Y-128876667D01*
X135128001Y-128876667D01*
X135001001Y-128919000D01*
X134620000Y-129765667D02*
X134620000Y-128876667D01*
X134323667Y-129511667D01*
X134027334Y-128876667D01*
X134027334Y-129765667D01*
X133604000Y-129765667D02*
X133604000Y-128876667D01*
X133392334Y-128876667D01*
X133265334Y-128919000D01*
X133180667Y-129003667D01*
X133138334Y-129088333D01*
X133096000Y-129257667D01*
X133096000Y-129384667D01*
X133138334Y-129554000D01*
X133180667Y-129638667D01*
X133265334Y-129723333D01*
X133392334Y-129765667D01*
X133604000Y-129765667D01*
X132715000Y-129427000D02*
X132037667Y-129427000D01*
X131614333Y-129765667D02*
X131614333Y-128876667D01*
X131275667Y-128876667D01*
X131191000Y-128919000D01*
X131148667Y-128961333D01*
X131106333Y-129046000D01*
X131106333Y-129173000D01*
X131148667Y-129257667D01*
X131191000Y-129300000D01*
X131275667Y-129342333D01*
X131614333Y-129342333D01*
X130725333Y-129765667D02*
X130725333Y-128876667D01*
X130386667Y-128876667D01*
X130302000Y-128919000D01*
X130259667Y-128961333D01*
X130217333Y-129046000D01*
X130217333Y-129173000D01*
X130259667Y-129257667D01*
X130302000Y-129300000D01*
X130386667Y-129342333D01*
X130725333Y-129342333D01*
X129963333Y-128876667D02*
X129455333Y-128876667D01*
X129709333Y-129765667D02*
X129709333Y-128876667D01*
X128651000Y-129681000D02*
X128693334Y-129723333D01*
X128820334Y-129765667D01*
X128905000Y-129765667D01*
X129032000Y-129723333D01*
X129116667Y-129638667D01*
X129159000Y-129554000D01*
X129201334Y-129384667D01*
X129201334Y-129257667D01*
X129159000Y-129088333D01*
X129116667Y-129003667D01*
X129032000Y-128919000D01*
X128905000Y-128876667D01*
X128820334Y-128876667D01*
X128693334Y-128919000D01*
X128651000Y-128961333D01*
X128270000Y-129427000D02*
X127592667Y-129427000D01*
X126746000Y-128876667D02*
X127169333Y-128876667D01*
X127211667Y-129300000D01*
X127169333Y-129257667D01*
X127084667Y-129215333D01*
X126873000Y-129215333D01*
X126788333Y-129257667D01*
X126746000Y-129300000D01*
X126703667Y-129384667D01*
X126703667Y-129596333D01*
X126746000Y-129681000D01*
X126788333Y-129723333D01*
X126873000Y-129765667D01*
X127084667Y-129765667D01*
X127169333Y-129723333D01*
X127211667Y-129681000D01*
X126153333Y-128876667D02*
X126068666Y-128876667D01*
X125984000Y-128919000D01*
X125941666Y-128961333D01*
X125899333Y-129046000D01*
X125857000Y-129215333D01*
X125857000Y-129427000D01*
X125899333Y-129596333D01*
X125941666Y-129681000D01*
X125984000Y-129723333D01*
X126068666Y-129765667D01*
X126153333Y-129765667D01*
X126238000Y-129723333D01*
X126280333Y-129681000D01*
X126322666Y-129596333D01*
X126365000Y-129427000D01*
X126365000Y-129215333D01*
X126322666Y-129046000D01*
X126280333Y-128961333D01*
X126238000Y-128919000D01*
X126153333Y-128876667D01*
X125306666Y-128876667D02*
X125221999Y-128876667D01*
X125137333Y-128919000D01*
X125094999Y-128961333D01*
X125052666Y-129046000D01*
X125010333Y-129215333D01*
X125010333Y-129427000D01*
X125052666Y-129596333D01*
X125094999Y-129681000D01*
X125137333Y-129723333D01*
X125221999Y-129765667D01*
X125306666Y-129765667D01*
X125391333Y-129723333D01*
X125433666Y-129681000D01*
X125475999Y-129596333D01*
X125518333Y-129427000D01*
X125518333Y-129215333D01*
X125475999Y-129046000D01*
X125433666Y-128961333D01*
X125391333Y-128919000D01*
X125306666Y-128876667D01*
X124629332Y-129765667D02*
X124629332Y-128876667D01*
X124332999Y-129511667D01*
X124036666Y-128876667D01*
X124036666Y-129765667D01*
X123655666Y-129511667D02*
X123232332Y-129511667D01*
X123740332Y-129765667D02*
X123443999Y-128876667D01*
X123147666Y-129765667D01*
X123062999Y-129850333D02*
X122385666Y-129850333D01*
X121708333Y-129765667D02*
X122216333Y-129765667D01*
X121962333Y-129765667D02*
X121962333Y-128876667D01*
X122046999Y-129003667D01*
X122131666Y-129088333D01*
X122216333Y-129130667D01*
X121369666Y-128961333D02*
X121327332Y-128919000D01*
X121242666Y-128876667D01*
X121030999Y-128876667D01*
X120946332Y-128919000D01*
X120903999Y-128961333D01*
X120861666Y-129046000D01*
X120861666Y-129130667D01*
X120903999Y-129257667D01*
X121411999Y-129765667D01*
X120861666Y-129765667D01*
X120311332Y-128876667D02*
X120226665Y-128876667D01*
X120141999Y-128919000D01*
X120099665Y-128961333D01*
X120057332Y-129046000D01*
X120014999Y-129215333D01*
X120014999Y-129427000D01*
X120057332Y-129596333D01*
X120099665Y-129681000D01*
X120141999Y-129723333D01*
X120226665Y-129765667D01*
X120311332Y-129765667D01*
X120395999Y-129723333D01*
X120438332Y-129681000D01*
X120480665Y-129596333D01*
X120522999Y-129427000D01*
X120522999Y-129215333D01*
X120480665Y-129046000D01*
X120438332Y-128961333D01*
X120395999Y-128919000D01*
X120311332Y-128876667D01*
X119252998Y-128876667D02*
X119422332Y-128876667D01*
X119506998Y-128919000D01*
X119549332Y-128961333D01*
X119633998Y-129088333D01*
X119676332Y-129257667D01*
X119676332Y-129596333D01*
X119633998Y-129681000D01*
X119591665Y-129723333D01*
X119506998Y-129765667D01*
X119337665Y-129765667D01*
X119252998Y-129723333D01*
X119210665Y-129681000D01*
X119168332Y-129596333D01*
X119168332Y-129384667D01*
X119210665Y-129300000D01*
X119252998Y-129257667D01*
X119337665Y-129215333D01*
X119506998Y-129215333D01*
X119591665Y-129257667D01*
X119633998Y-129300000D01*
X119676332Y-129384667D01*
X118998998Y-129850333D02*
X118321665Y-129850333D01*
X128778000Y-130273667D02*
X129074334Y-129850333D01*
X129286000Y-130273667D02*
X129286000Y-129384667D01*
X128947334Y-129384667D01*
X128862667Y-129427000D01*
X128820334Y-129469333D01*
X128778000Y-129554000D01*
X128778000Y-129681000D01*
X128820334Y-129765667D01*
X128862667Y-129808000D01*
X128947334Y-129850333D01*
X129286000Y-129850333D01*
X127931334Y-130273667D02*
X128439334Y-130273667D01*
X128185334Y-130273667D02*
X128185334Y-129384667D01*
X128270000Y-129511667D01*
X128354667Y-129596333D01*
X128439334Y-129638667D01*
X127084667Y-130273667D02*
X127592667Y-130273667D01*
X127338667Y-130273667D02*
X127338667Y-129384667D01*
X127423333Y-129511667D01*
X127508000Y-129596333D01*
X127592667Y-129638667D01*
X140038669Y-128072333D02*
X139911669Y-128114667D01*
X139700002Y-128114667D01*
X139615335Y-128072333D01*
X139573002Y-128030000D01*
X139530669Y-127945333D01*
X139530669Y-127860667D01*
X139573002Y-127776000D01*
X139615335Y-127733667D01*
X139700002Y-127691333D01*
X139869335Y-127649000D01*
X139954002Y-127606667D01*
X139996335Y-127564333D01*
X140038669Y-127479667D01*
X140038669Y-127395000D01*
X139996335Y-127310333D01*
X139954002Y-127268000D01*
X139869335Y-127225667D01*
X139657669Y-127225667D01*
X139530669Y-127268000D01*
X139149668Y-128114667D02*
X139149668Y-127225667D01*
X138853335Y-127860667D01*
X138557002Y-127225667D01*
X138557002Y-128114667D01*
X138133668Y-128114667D02*
X138133668Y-127225667D01*
X137922002Y-127225667D01*
X137795002Y-127268000D01*
X137710335Y-127352667D01*
X137668002Y-127437333D01*
X137625668Y-127606667D01*
X137625668Y-127733667D01*
X137668002Y-127903000D01*
X137710335Y-127987667D01*
X137795002Y-128072333D01*
X137922002Y-128114667D01*
X138133668Y-128114667D01*
X137244668Y-127776000D02*
X136567335Y-127776000D01*
X135636001Y-128114667D02*
X135932335Y-127691333D01*
X136144001Y-128114667D02*
X136144001Y-127225667D01*
X135805335Y-127225667D01*
X135720668Y-127268000D01*
X135678335Y-127310333D01*
X135636001Y-127395000D01*
X135636001Y-127522000D01*
X135678335Y-127606667D01*
X135720668Y-127649000D01*
X135805335Y-127691333D01*
X136144001Y-127691333D01*
X135255001Y-127649000D02*
X134958668Y-127649000D01*
X134831668Y-128114667D02*
X135255001Y-128114667D01*
X135255001Y-127225667D01*
X134831668Y-127225667D01*
X134493002Y-128072333D02*
X134366002Y-128114667D01*
X134154335Y-128114667D01*
X134069668Y-128072333D01*
X134027335Y-128030000D01*
X133985002Y-127945333D01*
X133985002Y-127860667D01*
X134027335Y-127776000D01*
X134069668Y-127733667D01*
X134154335Y-127691333D01*
X134323668Y-127649000D01*
X134408335Y-127606667D01*
X134450668Y-127564333D01*
X134493002Y-127479667D01*
X134493002Y-127395000D01*
X134450668Y-127310333D01*
X134408335Y-127268000D01*
X134323668Y-127225667D01*
X134112002Y-127225667D01*
X133985002Y-127268000D01*
X133604001Y-127776000D02*
X132926668Y-127776000D01*
X132545668Y-127310333D02*
X132503334Y-127268000D01*
X132418668Y-127225667D01*
X132207001Y-127225667D01*
X132122334Y-127268000D01*
X132080001Y-127310333D01*
X132037668Y-127395000D01*
X132037668Y-127479667D01*
X132080001Y-127606667D01*
X132588001Y-128114667D01*
X132037668Y-128114667D01*
X131699001Y-127310333D02*
X131656667Y-127268000D01*
X131572001Y-127225667D01*
X131360334Y-127225667D01*
X131275667Y-127268000D01*
X131233334Y-127310333D01*
X131191001Y-127395000D01*
X131191001Y-127479667D01*
X131233334Y-127606667D01*
X131741334Y-128114667D01*
X131191001Y-128114667D01*
X130302000Y-128114667D02*
X130598334Y-127691333D01*
X130810000Y-128114667D02*
X130810000Y-127225667D01*
X130471334Y-127225667D01*
X130386667Y-127268000D01*
X130344334Y-127310333D01*
X130302000Y-127395000D01*
X130302000Y-127522000D01*
X130344334Y-127606667D01*
X130386667Y-127649000D01*
X130471334Y-127691333D01*
X130810000Y-127691333D01*
X129921000Y-127776000D02*
X129243667Y-127776000D01*
X128354667Y-128114667D02*
X128862667Y-128114667D01*
X128608667Y-128114667D02*
X128608667Y-127225667D01*
X128693333Y-127352667D01*
X128778000Y-127437333D01*
X128862667Y-127479667D01*
X128016000Y-128114667D02*
X127338666Y-127225667D01*
X127889000Y-127225667D02*
X127804333Y-127268000D01*
X127762000Y-127352667D01*
X127804333Y-127437333D01*
X127889000Y-127479667D01*
X127973666Y-127437333D01*
X128016000Y-127352667D01*
X127973666Y-127268000D01*
X127889000Y-127225667D01*
X127381000Y-128072333D02*
X127338666Y-127987667D01*
X127381000Y-127903000D01*
X127465666Y-127860667D01*
X127550333Y-127903000D01*
X127592666Y-127987667D01*
X127550333Y-128072333D01*
X127465666Y-128114667D01*
X127381000Y-128072333D01*
X126957666Y-127776000D02*
X126280333Y-127776000D01*
X125391333Y-128114667D02*
X125899333Y-128114667D01*
X125645333Y-128114667D02*
X125645333Y-127225667D01*
X125729999Y-127352667D01*
X125814666Y-127437333D01*
X125899333Y-127479667D01*
X125221999Y-128199333D02*
X124544666Y-128199333D01*
X123867333Y-128114667D02*
X124375333Y-128114667D01*
X124121333Y-128114667D02*
X124121333Y-127225667D01*
X124205999Y-127352667D01*
X124290666Y-127437333D01*
X124375333Y-127479667D01*
X123105332Y-127225667D02*
X123274666Y-127225667D01*
X123359332Y-127268000D01*
X123401666Y-127310333D01*
X123486332Y-127437333D01*
X123528666Y-127606667D01*
X123528666Y-127945333D01*
X123486332Y-128030000D01*
X123443999Y-128072333D01*
X123359332Y-128114667D01*
X123189999Y-128114667D01*
X123105332Y-128072333D01*
X123062999Y-128030000D01*
X123020666Y-127945333D01*
X123020666Y-127733667D01*
X123062999Y-127649000D01*
X123105332Y-127606667D01*
X123189999Y-127564333D01*
X123359332Y-127564333D01*
X123443999Y-127606667D01*
X123486332Y-127649000D01*
X123528666Y-127733667D01*
X122724332Y-127225667D02*
X122512665Y-128114667D01*
X122343332Y-127479667D01*
X122173999Y-128114667D01*
X121962332Y-127225667D01*
X121835332Y-128199333D02*
X121157999Y-128199333D01*
X120776999Y-127225667D02*
X120692332Y-127225667D01*
X120607666Y-127268000D01*
X120565332Y-127310333D01*
X120522999Y-127395000D01*
X120480666Y-127564333D01*
X120480666Y-127776000D01*
X120522999Y-127945333D01*
X120565332Y-128030000D01*
X120607666Y-128072333D01*
X120692332Y-128114667D01*
X120776999Y-128114667D01*
X120861666Y-128072333D01*
X120903999Y-128030000D01*
X120946332Y-127945333D01*
X120988666Y-127776000D01*
X120988666Y-127564333D01*
X120946332Y-127395000D01*
X120903999Y-127310333D01*
X120861666Y-127268000D01*
X120776999Y-127225667D01*
X119718665Y-127522000D02*
X119718665Y-128114667D01*
X119930332Y-127183333D02*
X120141999Y-127818333D01*
X119591665Y-127818333D01*
X119083665Y-127225667D02*
X118998998Y-127225667D01*
X118914332Y-127268000D01*
X118871998Y-127310333D01*
X118829665Y-127395000D01*
X118787332Y-127564333D01*
X118787332Y-127776000D01*
X118829665Y-127945333D01*
X118871998Y-128030000D01*
X118914332Y-128072333D01*
X118998998Y-128114667D01*
X119083665Y-128114667D01*
X119168332Y-128072333D01*
X119210665Y-128030000D01*
X119252998Y-127945333D01*
X119295332Y-127776000D01*
X119295332Y-127564333D01*
X119252998Y-127395000D01*
X119210665Y-127310333D01*
X119168332Y-127268000D01*
X119083665Y-127225667D01*
X118448665Y-127310333D02*
X118406331Y-127268000D01*
X118321665Y-127225667D01*
X118109998Y-127225667D01*
X118025331Y-127268000D01*
X117982998Y-127310333D01*
X117940665Y-127395000D01*
X117940665Y-127479667D01*
X117982998Y-127606667D01*
X118490998Y-128114667D01*
X117940665Y-128114667D01*
X117771331Y-128199333D02*
X117093998Y-128199333D01*
X128354666Y-127987667D02*
X128651000Y-127564333D01*
X128862666Y-127987667D02*
X128862666Y-127098667D01*
X128524000Y-127098667D01*
X128439333Y-127141000D01*
X128397000Y-127183333D01*
X128354666Y-127268000D01*
X128354666Y-127395000D01*
X128397000Y-127479667D01*
X128439333Y-127522000D01*
X128524000Y-127564333D01*
X128862666Y-127564333D01*
X127931333Y-127987667D02*
X127762000Y-127987667D01*
X127677333Y-127945333D01*
X127635000Y-127903000D01*
X127550333Y-127776000D01*
X127508000Y-127606667D01*
X127508000Y-127268000D01*
X127550333Y-127183333D01*
X127592666Y-127141000D01*
X127677333Y-127098667D01*
X127846666Y-127098667D01*
X127931333Y-127141000D01*
X127973666Y-127183333D01*
X128016000Y-127268000D01*
X128016000Y-127479667D01*
X127973666Y-127564333D01*
X127931333Y-127606667D01*
X127846666Y-127649000D01*
X127677333Y-127649000D01*
X127592666Y-127606667D01*
X127550333Y-127564333D01*
X127508000Y-127479667D01*
X140038669Y-125786333D02*
X139911669Y-125828667D01*
X139700002Y-125828667D01*
X139615335Y-125786333D01*
X139573002Y-125744000D01*
X139530669Y-125659333D01*
X139530669Y-125574667D01*
X139573002Y-125490000D01*
X139615335Y-125447667D01*
X139700002Y-125405333D01*
X139869335Y-125363000D01*
X139954002Y-125320667D01*
X139996335Y-125278333D01*
X140038669Y-125193667D01*
X140038669Y-125109000D01*
X139996335Y-125024333D01*
X139954002Y-124982000D01*
X139869335Y-124939667D01*
X139657669Y-124939667D01*
X139530669Y-124982000D01*
X139149668Y-125828667D02*
X139149668Y-124939667D01*
X138853335Y-125574667D01*
X138557002Y-124939667D01*
X138557002Y-125828667D01*
X138133668Y-125828667D02*
X138133668Y-124939667D01*
X137922002Y-124939667D01*
X137795002Y-124982000D01*
X137710335Y-125066667D01*
X137668002Y-125151333D01*
X137625668Y-125320667D01*
X137625668Y-125447667D01*
X137668002Y-125617000D01*
X137710335Y-125701667D01*
X137795002Y-125786333D01*
X137922002Y-125828667D01*
X138133668Y-125828667D01*
X137244668Y-125490000D02*
X136567335Y-125490000D01*
X135636001Y-125828667D02*
X135932335Y-125405333D01*
X136144001Y-125828667D02*
X136144001Y-124939667D01*
X135805335Y-124939667D01*
X135720668Y-124982000D01*
X135678335Y-125024333D01*
X135636001Y-125109000D01*
X135636001Y-125236000D01*
X135678335Y-125320667D01*
X135720668Y-125363000D01*
X135805335Y-125405333D01*
X136144001Y-125405333D01*
X135255001Y-125363000D02*
X134958668Y-125363000D01*
X134831668Y-125828667D02*
X135255001Y-125828667D01*
X135255001Y-124939667D01*
X134831668Y-124939667D01*
X134493002Y-125786333D02*
X134366002Y-125828667D01*
X134154335Y-125828667D01*
X134069668Y-125786333D01*
X134027335Y-125744000D01*
X133985002Y-125659333D01*
X133985002Y-125574667D01*
X134027335Y-125490000D01*
X134069668Y-125447667D01*
X134154335Y-125405333D01*
X134323668Y-125363000D01*
X134408335Y-125320667D01*
X134450668Y-125278333D01*
X134493002Y-125193667D01*
X134493002Y-125109000D01*
X134450668Y-125024333D01*
X134408335Y-124982000D01*
X134323668Y-124939667D01*
X134112002Y-124939667D01*
X133985002Y-124982000D01*
X133604001Y-125490000D02*
X132926668Y-125490000D01*
X132545668Y-125024333D02*
X132503334Y-124982000D01*
X132418668Y-124939667D01*
X132207001Y-124939667D01*
X132122334Y-124982000D01*
X132080001Y-125024333D01*
X132037668Y-125109000D01*
X132037668Y-125193667D01*
X132080001Y-125320667D01*
X132588001Y-125828667D01*
X132037668Y-125828667D01*
X131699001Y-125024333D02*
X131656667Y-124982000D01*
X131572001Y-124939667D01*
X131360334Y-124939667D01*
X131275667Y-124982000D01*
X131233334Y-125024333D01*
X131191001Y-125109000D01*
X131191001Y-125193667D01*
X131233334Y-125320667D01*
X131741334Y-125828667D01*
X131191001Y-125828667D01*
X130302000Y-125828667D02*
X130598334Y-125405333D01*
X130810000Y-125828667D02*
X130810000Y-124939667D01*
X130471334Y-124939667D01*
X130386667Y-124982000D01*
X130344334Y-125024333D01*
X130302000Y-125109000D01*
X130302000Y-125236000D01*
X130344334Y-125320667D01*
X130386667Y-125363000D01*
X130471334Y-125405333D01*
X130810000Y-125405333D01*
X129921000Y-125490000D02*
X129243667Y-125490000D01*
X128354667Y-125828667D02*
X128862667Y-125828667D01*
X128608667Y-125828667D02*
X128608667Y-124939667D01*
X128693333Y-125066667D01*
X128778000Y-125151333D01*
X128862667Y-125193667D01*
X128016000Y-125828667D02*
X127338666Y-124939667D01*
X127889000Y-124939667D02*
X127804333Y-124982000D01*
X127762000Y-125066667D01*
X127804333Y-125151333D01*
X127889000Y-125193667D01*
X127973666Y-125151333D01*
X128016000Y-125066667D01*
X127973666Y-124982000D01*
X127889000Y-124939667D01*
X127381000Y-125786333D02*
X127338666Y-125701667D01*
X127381000Y-125617000D01*
X127465666Y-125574667D01*
X127550333Y-125617000D01*
X127592666Y-125701667D01*
X127550333Y-125786333D01*
X127465666Y-125828667D01*
X127381000Y-125786333D01*
X126957666Y-125490000D02*
X126280333Y-125490000D01*
X125391333Y-125828667D02*
X125899333Y-125828667D01*
X125645333Y-125828667D02*
X125645333Y-124939667D01*
X125729999Y-125066667D01*
X125814666Y-125151333D01*
X125899333Y-125193667D01*
X125221999Y-125913333D02*
X124544666Y-125913333D01*
X123867333Y-125828667D02*
X124375333Y-125828667D01*
X124121333Y-125828667D02*
X124121333Y-124939667D01*
X124205999Y-125066667D01*
X124290666Y-125151333D01*
X124375333Y-125193667D01*
X123105332Y-124939667D02*
X123274666Y-124939667D01*
X123359332Y-124982000D01*
X123401666Y-125024333D01*
X123486332Y-125151333D01*
X123528666Y-125320667D01*
X123528666Y-125659333D01*
X123486332Y-125744000D01*
X123443999Y-125786333D01*
X123359332Y-125828667D01*
X123189999Y-125828667D01*
X123105332Y-125786333D01*
X123062999Y-125744000D01*
X123020666Y-125659333D01*
X123020666Y-125447667D01*
X123062999Y-125363000D01*
X123105332Y-125320667D01*
X123189999Y-125278333D01*
X123359332Y-125278333D01*
X123443999Y-125320667D01*
X123486332Y-125363000D01*
X123528666Y-125447667D01*
X122724332Y-124939667D02*
X122512665Y-125828667D01*
X122343332Y-125193667D01*
X122173999Y-125828667D01*
X121962332Y-124939667D01*
X121835332Y-125913333D02*
X121157999Y-125913333D01*
X120776999Y-124939667D02*
X120692332Y-124939667D01*
X120607666Y-124982000D01*
X120565332Y-125024333D01*
X120522999Y-125109000D01*
X120480666Y-125278333D01*
X120480666Y-125490000D01*
X120522999Y-125659333D01*
X120565332Y-125744000D01*
X120607666Y-125786333D01*
X120692332Y-125828667D01*
X120776999Y-125828667D01*
X120861666Y-125786333D01*
X120903999Y-125744000D01*
X120946332Y-125659333D01*
X120988666Y-125490000D01*
X120988666Y-125278333D01*
X120946332Y-125109000D01*
X120903999Y-125024333D01*
X120861666Y-124982000D01*
X120776999Y-124939667D01*
X119718665Y-125236000D02*
X119718665Y-125828667D01*
X119930332Y-124897333D02*
X120141999Y-125532333D01*
X119591665Y-125532333D01*
X119083665Y-124939667D02*
X118998998Y-124939667D01*
X118914332Y-124982000D01*
X118871998Y-125024333D01*
X118829665Y-125109000D01*
X118787332Y-125278333D01*
X118787332Y-125490000D01*
X118829665Y-125659333D01*
X118871998Y-125744000D01*
X118914332Y-125786333D01*
X118998998Y-125828667D01*
X119083665Y-125828667D01*
X119168332Y-125786333D01*
X119210665Y-125744000D01*
X119252998Y-125659333D01*
X119295332Y-125490000D01*
X119295332Y-125278333D01*
X119252998Y-125109000D01*
X119210665Y-125024333D01*
X119168332Y-124982000D01*
X119083665Y-124939667D01*
X118448665Y-125024333D02*
X118406331Y-124982000D01*
X118321665Y-124939667D01*
X118109998Y-124939667D01*
X118025331Y-124982000D01*
X117982998Y-125024333D01*
X117940665Y-125109000D01*
X117940665Y-125193667D01*
X117982998Y-125320667D01*
X118490998Y-125828667D01*
X117940665Y-125828667D01*
X117771331Y-125913333D02*
X117093998Y-125913333D01*
X131656667Y-120706334D02*
X131233333Y-120410000D01*
X131656667Y-120198334D02*
X130767667Y-120198334D01*
X130767667Y-120537000D01*
X130810000Y-120621667D01*
X130852333Y-120664000D01*
X130937000Y-120706334D01*
X131064000Y-120706334D01*
X131148667Y-120664000D01*
X131191000Y-120621667D01*
X131233333Y-120537000D01*
X131233333Y-120198334D01*
X130767667Y-121510667D02*
X130767667Y-121087334D01*
X131191000Y-121045000D01*
X131148667Y-121087334D01*
X131106333Y-121172000D01*
X131106333Y-121383667D01*
X131148667Y-121468334D01*
X131191000Y-121510667D01*
X131275667Y-121553000D01*
X131487333Y-121553000D01*
X131572000Y-121510667D01*
X131614333Y-121468334D01*
X131656667Y-121383667D01*
X131656667Y-121172000D01*
X131614333Y-121087334D01*
X131572000Y-121045000D01*
X128693333Y-109445665D02*
X128735667Y-109572665D01*
X128735667Y-109784332D01*
X128693333Y-109868999D01*
X128651000Y-109911332D01*
X128566333Y-109953665D01*
X128481667Y-109953665D01*
X128397000Y-109911332D01*
X128354667Y-109868999D01*
X128312333Y-109784332D01*
X128270000Y-109614999D01*
X128227667Y-109530332D01*
X128185333Y-109487999D01*
X128100667Y-109445665D01*
X128016000Y-109445665D01*
X127931333Y-109487999D01*
X127889000Y-109530332D01*
X127846667Y-109614999D01*
X127846667Y-109826665D01*
X127889000Y-109953665D01*
X128735667Y-110334666D02*
X127846667Y-110334666D01*
X128481667Y-110630999D01*
X127846667Y-110927332D01*
X128735667Y-110927332D01*
X128735667Y-111350666D02*
X127846667Y-111350666D01*
X127846667Y-111562332D01*
X127889000Y-111689332D01*
X127973667Y-111773999D01*
X128058333Y-111816332D01*
X128227667Y-111858666D01*
X128354667Y-111858666D01*
X128524000Y-111816332D01*
X128608667Y-111773999D01*
X128693333Y-111689332D01*
X128735667Y-111562332D01*
X128735667Y-111350666D01*
X128397000Y-112239666D02*
X128397000Y-112916999D01*
X128735667Y-113848333D02*
X128312333Y-113551999D01*
X128735667Y-113340333D02*
X127846667Y-113340333D01*
X127846667Y-113678999D01*
X127889000Y-113763666D01*
X127931333Y-113805999D01*
X128016000Y-113848333D01*
X128143000Y-113848333D01*
X128227667Y-113805999D01*
X128270000Y-113763666D01*
X128312333Y-113678999D01*
X128312333Y-113340333D01*
X128270000Y-114229333D02*
X128270000Y-114525666D01*
X128735667Y-114652666D02*
X128735667Y-114229333D01*
X127846667Y-114229333D01*
X127846667Y-114652666D01*
X128693333Y-114991332D02*
X128735667Y-115118332D01*
X128735667Y-115329999D01*
X128693333Y-115414666D01*
X128651000Y-115456999D01*
X128566333Y-115499332D01*
X128481667Y-115499332D01*
X128397000Y-115456999D01*
X128354667Y-115414666D01*
X128312333Y-115329999D01*
X128270000Y-115160666D01*
X128227667Y-115075999D01*
X128185333Y-115033666D01*
X128100667Y-114991332D01*
X128016000Y-114991332D01*
X127931333Y-115033666D01*
X127889000Y-115075999D01*
X127846667Y-115160666D01*
X127846667Y-115372332D01*
X127889000Y-115499332D01*
X128397000Y-115880333D02*
X128397000Y-116557666D01*
X128735667Y-117446666D02*
X128735667Y-116938666D01*
X128735667Y-117192666D02*
X127846667Y-117192666D01*
X127973667Y-117108000D01*
X128058333Y-117023333D01*
X128100667Y-116938666D01*
X127846667Y-117997000D02*
X127846667Y-118081667D01*
X127889000Y-118166333D01*
X127931333Y-118208667D01*
X128016000Y-118251000D01*
X128185333Y-118293333D01*
X128397000Y-118293333D01*
X128566333Y-118251000D01*
X128651000Y-118208667D01*
X128693333Y-118166333D01*
X128735667Y-118081667D01*
X128735667Y-117997000D01*
X128693333Y-117912333D01*
X128651000Y-117870000D01*
X128566333Y-117827667D01*
X128397000Y-117785333D01*
X128185333Y-117785333D01*
X128016000Y-117827667D01*
X127931333Y-117870000D01*
X127889000Y-117912333D01*
X127846667Y-117997000D01*
X128735667Y-118674334D02*
X127846667Y-118674334D01*
X128735667Y-119182334D02*
X128227667Y-118801334D01*
X127846667Y-119182334D02*
X128354667Y-118674334D01*
X128397000Y-119563334D02*
X128397000Y-120240667D01*
X128735667Y-121129667D02*
X128735667Y-120621667D01*
X128735667Y-120875667D02*
X127846667Y-120875667D01*
X127973667Y-120791001D01*
X128058333Y-120706334D01*
X128100667Y-120621667D01*
X128735667Y-121468334D02*
X127846667Y-122145668D01*
X127846667Y-121595334D02*
X127889000Y-121680001D01*
X127973667Y-121722334D01*
X128058333Y-121680001D01*
X128100667Y-121595334D01*
X128058333Y-121510668D01*
X127973667Y-121468334D01*
X127889000Y-121510668D01*
X127846667Y-121595334D01*
X128693333Y-122103334D02*
X128608667Y-122145668D01*
X128524000Y-122103334D01*
X128481667Y-122018668D01*
X128524000Y-121934001D01*
X128608667Y-121891668D01*
X128693333Y-121934001D01*
X128735667Y-122018668D01*
X128693333Y-122103334D01*
X128397000Y-122526668D02*
X128397000Y-123204001D01*
X128735667Y-124093001D02*
X128735667Y-123585001D01*
X128735667Y-123839001D02*
X127846667Y-123839001D01*
X127973667Y-123754335D01*
X128058333Y-123669668D01*
X128100667Y-123585001D01*
X128820333Y-124262335D02*
X128820333Y-124939668D01*
X128227667Y-125278335D02*
X128185333Y-125193668D01*
X128143000Y-125151335D01*
X128058333Y-125109001D01*
X128016000Y-125109001D01*
X127931333Y-125151335D01*
X127889000Y-125193668D01*
X127846667Y-125278335D01*
X127846667Y-125447668D01*
X127889000Y-125532335D01*
X127931333Y-125574668D01*
X128016000Y-125617001D01*
X128058333Y-125617001D01*
X128143000Y-125574668D01*
X128185333Y-125532335D01*
X128227667Y-125447668D01*
X128227667Y-125278335D01*
X128270000Y-125193668D01*
X128312333Y-125151335D01*
X128397000Y-125109001D01*
X128566333Y-125109001D01*
X128651000Y-125151335D01*
X128693333Y-125193668D01*
X128735667Y-125278335D01*
X128735667Y-125447668D01*
X128693333Y-125532335D01*
X128651000Y-125574668D01*
X128566333Y-125617001D01*
X128397000Y-125617001D01*
X128312333Y-125574668D01*
X128270000Y-125532335D01*
X128227667Y-125447668D01*
X127846667Y-125913335D02*
X128735667Y-126125002D01*
X128100667Y-126294335D01*
X128735667Y-126463668D01*
X127846667Y-126675335D01*
X128820333Y-126802335D02*
X128820333Y-127479668D01*
X127846667Y-127860668D02*
X127846667Y-127945335D01*
X127889000Y-128030001D01*
X127931333Y-128072335D01*
X128016000Y-128114668D01*
X128185333Y-128157001D01*
X128397000Y-128157001D01*
X128566333Y-128114668D01*
X128651000Y-128072335D01*
X128693333Y-128030001D01*
X128735667Y-127945335D01*
X128735667Y-127860668D01*
X128693333Y-127776001D01*
X128651000Y-127733668D01*
X128566333Y-127691335D01*
X128397000Y-127649001D01*
X128185333Y-127649001D01*
X128016000Y-127691335D01*
X127931333Y-127733668D01*
X127889000Y-127776001D01*
X127846667Y-127860668D01*
X128227667Y-128665002D02*
X128185333Y-128580335D01*
X128143000Y-128538002D01*
X128058333Y-128495668D01*
X128016000Y-128495668D01*
X127931333Y-128538002D01*
X127889000Y-128580335D01*
X127846667Y-128665002D01*
X127846667Y-128834335D01*
X127889000Y-128919002D01*
X127931333Y-128961335D01*
X128016000Y-129003668D01*
X128058333Y-129003668D01*
X128143000Y-128961335D01*
X128185333Y-128919002D01*
X128227667Y-128834335D01*
X128227667Y-128665002D01*
X128270000Y-128580335D01*
X128312333Y-128538002D01*
X128397000Y-128495668D01*
X128566333Y-128495668D01*
X128651000Y-128538002D01*
X128693333Y-128580335D01*
X128735667Y-128665002D01*
X128735667Y-128834335D01*
X128693333Y-128919002D01*
X128651000Y-128961335D01*
X128566333Y-129003668D01*
X128397000Y-129003668D01*
X128312333Y-128961335D01*
X128270000Y-128919002D01*
X128227667Y-128834335D01*
X127846667Y-129554002D02*
X127846667Y-129638669D01*
X127889000Y-129723335D01*
X127931333Y-129765669D01*
X128016000Y-129808002D01*
X128185333Y-129850335D01*
X128397000Y-129850335D01*
X128566333Y-129808002D01*
X128651000Y-129765669D01*
X128693333Y-129723335D01*
X128735667Y-129638669D01*
X128735667Y-129554002D01*
X128693333Y-129469335D01*
X128651000Y-129427002D01*
X128566333Y-129384669D01*
X128397000Y-129342335D01*
X128185333Y-129342335D01*
X128016000Y-129384669D01*
X127931333Y-129427002D01*
X127889000Y-129469335D01*
X127846667Y-129554002D01*
X127846667Y-130654669D02*
X127846667Y-130231336D01*
X128270000Y-130189002D01*
X128227667Y-130231336D01*
X128185333Y-130316002D01*
X128185333Y-130527669D01*
X128227667Y-130612336D01*
X128270000Y-130654669D01*
X128354667Y-130697002D01*
X128566333Y-130697002D01*
X128651000Y-130654669D01*
X128693333Y-130612336D01*
X128735667Y-130527669D01*
X128735667Y-130316002D01*
X128693333Y-130231336D01*
X128651000Y-130189002D01*
X128820333Y-130866336D02*
X128820333Y-131543669D01*
X134958667Y-120706334D02*
X134535333Y-120410000D01*
X134958667Y-120198334D02*
X134069667Y-120198334D01*
X134069667Y-120537000D01*
X134112000Y-120621667D01*
X134154333Y-120664000D01*
X134239000Y-120706334D01*
X134366000Y-120706334D01*
X134450667Y-120664000D01*
X134493000Y-120621667D01*
X134535333Y-120537000D01*
X134535333Y-120198334D01*
X134069667Y-121468334D02*
X134069667Y-121299000D01*
X134112000Y-121214334D01*
X134154333Y-121172000D01*
X134281333Y-121087334D01*
X134450667Y-121045000D01*
X134789333Y-121045000D01*
X134874000Y-121087334D01*
X134916333Y-121129667D01*
X134958667Y-121214334D01*
X134958667Y-121383667D01*
X134916333Y-121468334D01*
X134874000Y-121510667D01*
X134789333Y-121553000D01*
X134577667Y-121553000D01*
X134493000Y-121510667D01*
X134450667Y-121468334D01*
X134408333Y-121383667D01*
X134408333Y-121214334D01*
X134450667Y-121129667D01*
X134493000Y-121087334D01*
X134577667Y-121045000D01*
X131995333Y-109445665D02*
X132037667Y-109572665D01*
X132037667Y-109784332D01*
X131995333Y-109868999D01*
X131953000Y-109911332D01*
X131868333Y-109953665D01*
X131783667Y-109953665D01*
X131699000Y-109911332D01*
X131656667Y-109868999D01*
X131614333Y-109784332D01*
X131572000Y-109614999D01*
X131529667Y-109530332D01*
X131487333Y-109487999D01*
X131402667Y-109445665D01*
X131318000Y-109445665D01*
X131233333Y-109487999D01*
X131191000Y-109530332D01*
X131148667Y-109614999D01*
X131148667Y-109826665D01*
X131191000Y-109953665D01*
X132037667Y-110334666D02*
X131148667Y-110334666D01*
X131783667Y-110630999D01*
X131148667Y-110927332D01*
X132037667Y-110927332D01*
X132037667Y-111350666D02*
X131148667Y-111350666D01*
X131148667Y-111562332D01*
X131191000Y-111689332D01*
X131275667Y-111773999D01*
X131360333Y-111816332D01*
X131529667Y-111858666D01*
X131656667Y-111858666D01*
X131826000Y-111816332D01*
X131910667Y-111773999D01*
X131995333Y-111689332D01*
X132037667Y-111562332D01*
X132037667Y-111350666D01*
X131699000Y-112239666D02*
X131699000Y-112916999D01*
X132037667Y-113848333D02*
X131614333Y-113551999D01*
X132037667Y-113340333D02*
X131148667Y-113340333D01*
X131148667Y-113678999D01*
X131191000Y-113763666D01*
X131233333Y-113805999D01*
X131318000Y-113848333D01*
X131445000Y-113848333D01*
X131529667Y-113805999D01*
X131572000Y-113763666D01*
X131614333Y-113678999D01*
X131614333Y-113340333D01*
X131572000Y-114229333D02*
X131572000Y-114525666D01*
X132037667Y-114652666D02*
X132037667Y-114229333D01*
X131148667Y-114229333D01*
X131148667Y-114652666D01*
X131995333Y-114991332D02*
X132037667Y-115118332D01*
X132037667Y-115329999D01*
X131995333Y-115414666D01*
X131953000Y-115456999D01*
X131868333Y-115499332D01*
X131783667Y-115499332D01*
X131699000Y-115456999D01*
X131656667Y-115414666D01*
X131614333Y-115329999D01*
X131572000Y-115160666D01*
X131529667Y-115075999D01*
X131487333Y-115033666D01*
X131402667Y-114991332D01*
X131318000Y-114991332D01*
X131233333Y-115033666D01*
X131191000Y-115075999D01*
X131148667Y-115160666D01*
X131148667Y-115372332D01*
X131191000Y-115499332D01*
X131699000Y-115880333D02*
X131699000Y-116557666D01*
X132037667Y-117446666D02*
X132037667Y-116938666D01*
X132037667Y-117192666D02*
X131148667Y-117192666D01*
X131275667Y-117108000D01*
X131360333Y-117023333D01*
X131402667Y-116938666D01*
X131148667Y-117997000D02*
X131148667Y-118081667D01*
X131191000Y-118166333D01*
X131233333Y-118208667D01*
X131318000Y-118251000D01*
X131487333Y-118293333D01*
X131699000Y-118293333D01*
X131868333Y-118251000D01*
X131953000Y-118208667D01*
X131995333Y-118166333D01*
X132037667Y-118081667D01*
X132037667Y-117997000D01*
X131995333Y-117912333D01*
X131953000Y-117870000D01*
X131868333Y-117827667D01*
X131699000Y-117785333D01*
X131487333Y-117785333D01*
X131318000Y-117827667D01*
X131233333Y-117870000D01*
X131191000Y-117912333D01*
X131148667Y-117997000D01*
X132037667Y-118674334D02*
X131148667Y-118674334D01*
X132037667Y-119182334D02*
X131529667Y-118801334D01*
X131148667Y-119182334D02*
X131656667Y-118674334D01*
X131699000Y-119563334D02*
X131699000Y-120240667D01*
X132037667Y-121129667D02*
X132037667Y-120621667D01*
X132037667Y-120875667D02*
X131148667Y-120875667D01*
X131275667Y-120791001D01*
X131360333Y-120706334D01*
X131402667Y-120621667D01*
X132037667Y-121468334D02*
X131148667Y-122145668D01*
X131148667Y-121595334D02*
X131191000Y-121680001D01*
X131275667Y-121722334D01*
X131360333Y-121680001D01*
X131402667Y-121595334D01*
X131360333Y-121510668D01*
X131275667Y-121468334D01*
X131191000Y-121510668D01*
X131148667Y-121595334D01*
X131995333Y-122103334D02*
X131910667Y-122145668D01*
X131826000Y-122103334D01*
X131783667Y-122018668D01*
X131826000Y-121934001D01*
X131910667Y-121891668D01*
X131995333Y-121934001D01*
X132037667Y-122018668D01*
X131995333Y-122103334D01*
X131699000Y-122526668D02*
X131699000Y-123204001D01*
X132037667Y-124093001D02*
X132037667Y-123585001D01*
X132037667Y-123839001D02*
X131148667Y-123839001D01*
X131275667Y-123754335D01*
X131360333Y-123669668D01*
X131402667Y-123585001D01*
X132122333Y-124262335D02*
X132122333Y-124939668D01*
X131529667Y-125278335D02*
X131487333Y-125193668D01*
X131445000Y-125151335D01*
X131360333Y-125109001D01*
X131318000Y-125109001D01*
X131233333Y-125151335D01*
X131191000Y-125193668D01*
X131148667Y-125278335D01*
X131148667Y-125447668D01*
X131191000Y-125532335D01*
X131233333Y-125574668D01*
X131318000Y-125617001D01*
X131360333Y-125617001D01*
X131445000Y-125574668D01*
X131487333Y-125532335D01*
X131529667Y-125447668D01*
X131529667Y-125278335D01*
X131572000Y-125193668D01*
X131614333Y-125151335D01*
X131699000Y-125109001D01*
X131868333Y-125109001D01*
X131953000Y-125151335D01*
X131995333Y-125193668D01*
X132037667Y-125278335D01*
X132037667Y-125447668D01*
X131995333Y-125532335D01*
X131953000Y-125574668D01*
X131868333Y-125617001D01*
X131699000Y-125617001D01*
X131614333Y-125574668D01*
X131572000Y-125532335D01*
X131529667Y-125447668D01*
X131148667Y-125913335D02*
X132037667Y-126125002D01*
X131402667Y-126294335D01*
X132037667Y-126463668D01*
X131148667Y-126675335D01*
X132122333Y-126802335D02*
X132122333Y-127479668D01*
X131148667Y-127860668D02*
X131148667Y-127945335D01*
X131191000Y-128030001D01*
X131233333Y-128072335D01*
X131318000Y-128114668D01*
X131487333Y-128157001D01*
X131699000Y-128157001D01*
X131868333Y-128114668D01*
X131953000Y-128072335D01*
X131995333Y-128030001D01*
X132037667Y-127945335D01*
X132037667Y-127860668D01*
X131995333Y-127776001D01*
X131953000Y-127733668D01*
X131868333Y-127691335D01*
X131699000Y-127649001D01*
X131487333Y-127649001D01*
X131318000Y-127691335D01*
X131233333Y-127733668D01*
X131191000Y-127776001D01*
X131148667Y-127860668D01*
X131529667Y-128665002D02*
X131487333Y-128580335D01*
X131445000Y-128538002D01*
X131360333Y-128495668D01*
X131318000Y-128495668D01*
X131233333Y-128538002D01*
X131191000Y-128580335D01*
X131148667Y-128665002D01*
X131148667Y-128834335D01*
X131191000Y-128919002D01*
X131233333Y-128961335D01*
X131318000Y-129003668D01*
X131360333Y-129003668D01*
X131445000Y-128961335D01*
X131487333Y-128919002D01*
X131529667Y-128834335D01*
X131529667Y-128665002D01*
X131572000Y-128580335D01*
X131614333Y-128538002D01*
X131699000Y-128495668D01*
X131868333Y-128495668D01*
X131953000Y-128538002D01*
X131995333Y-128580335D01*
X132037667Y-128665002D01*
X132037667Y-128834335D01*
X131995333Y-128919002D01*
X131953000Y-128961335D01*
X131868333Y-129003668D01*
X131699000Y-129003668D01*
X131614333Y-128961335D01*
X131572000Y-128919002D01*
X131529667Y-128834335D01*
X131148667Y-129554002D02*
X131148667Y-129638669D01*
X131191000Y-129723335D01*
X131233333Y-129765669D01*
X131318000Y-129808002D01*
X131487333Y-129850335D01*
X131699000Y-129850335D01*
X131868333Y-129808002D01*
X131953000Y-129765669D01*
X131995333Y-129723335D01*
X132037667Y-129638669D01*
X132037667Y-129554002D01*
X131995333Y-129469335D01*
X131953000Y-129427002D01*
X131868333Y-129384669D01*
X131699000Y-129342335D01*
X131487333Y-129342335D01*
X131318000Y-129384669D01*
X131233333Y-129427002D01*
X131191000Y-129469335D01*
X131148667Y-129554002D01*
X131148667Y-130654669D02*
X131148667Y-130231336D01*
X131572000Y-130189002D01*
X131529667Y-130231336D01*
X131487333Y-130316002D01*
X131487333Y-130527669D01*
X131529667Y-130612336D01*
X131572000Y-130654669D01*
X131656667Y-130697002D01*
X131868333Y-130697002D01*
X131953000Y-130654669D01*
X131995333Y-130612336D01*
X132037667Y-130527669D01*
X132037667Y-130316002D01*
X131995333Y-130231336D01*
X131953000Y-130189002D01*
X132122333Y-130866336D02*
X132122333Y-131543669D01*
X138260667Y-120706334D02*
X137837333Y-120410000D01*
X138260667Y-120198334D02*
X137371667Y-120198334D01*
X137371667Y-120537000D01*
X137414000Y-120621667D01*
X137456333Y-120664000D01*
X137541000Y-120706334D01*
X137668000Y-120706334D01*
X137752667Y-120664000D01*
X137795000Y-120621667D01*
X137837333Y-120537000D01*
X137837333Y-120198334D01*
X137371667Y-121002667D02*
X137371667Y-121595334D01*
X138260667Y-121214334D01*
X135297333Y-109445665D02*
X135339667Y-109572665D01*
X135339667Y-109784332D01*
X135297333Y-109868999D01*
X135255000Y-109911332D01*
X135170333Y-109953665D01*
X135085667Y-109953665D01*
X135001000Y-109911332D01*
X134958667Y-109868999D01*
X134916333Y-109784332D01*
X134874000Y-109614999D01*
X134831667Y-109530332D01*
X134789333Y-109487999D01*
X134704667Y-109445665D01*
X134620000Y-109445665D01*
X134535333Y-109487999D01*
X134493000Y-109530332D01*
X134450667Y-109614999D01*
X134450667Y-109826665D01*
X134493000Y-109953665D01*
X135339667Y-110334666D02*
X134450667Y-110334666D01*
X135085667Y-110630999D01*
X134450667Y-110927332D01*
X135339667Y-110927332D01*
X135339667Y-111350666D02*
X134450667Y-111350666D01*
X134450667Y-111562332D01*
X134493000Y-111689332D01*
X134577667Y-111773999D01*
X134662333Y-111816332D01*
X134831667Y-111858666D01*
X134958667Y-111858666D01*
X135128000Y-111816332D01*
X135212667Y-111773999D01*
X135297333Y-111689332D01*
X135339667Y-111562332D01*
X135339667Y-111350666D01*
X135001000Y-112239666D02*
X135001000Y-112916999D01*
X135339667Y-113848333D02*
X134916333Y-113551999D01*
X135339667Y-113340333D02*
X134450667Y-113340333D01*
X134450667Y-113678999D01*
X134493000Y-113763666D01*
X134535333Y-113805999D01*
X134620000Y-113848333D01*
X134747000Y-113848333D01*
X134831667Y-113805999D01*
X134874000Y-113763666D01*
X134916333Y-113678999D01*
X134916333Y-113340333D01*
X134874000Y-114229333D02*
X134874000Y-114525666D01*
X135339667Y-114652666D02*
X135339667Y-114229333D01*
X134450667Y-114229333D01*
X134450667Y-114652666D01*
X135297333Y-114991332D02*
X135339667Y-115118332D01*
X135339667Y-115329999D01*
X135297333Y-115414666D01*
X135255000Y-115456999D01*
X135170333Y-115499332D01*
X135085667Y-115499332D01*
X135001000Y-115456999D01*
X134958667Y-115414666D01*
X134916333Y-115329999D01*
X134874000Y-115160666D01*
X134831667Y-115075999D01*
X134789333Y-115033666D01*
X134704667Y-114991332D01*
X134620000Y-114991332D01*
X134535333Y-115033666D01*
X134493000Y-115075999D01*
X134450667Y-115160666D01*
X134450667Y-115372332D01*
X134493000Y-115499332D01*
X135001000Y-115880333D02*
X135001000Y-116557666D01*
X135339667Y-117446666D02*
X135339667Y-116938666D01*
X135339667Y-117192666D02*
X134450667Y-117192666D01*
X134577667Y-117108000D01*
X134662333Y-117023333D01*
X134704667Y-116938666D01*
X134450667Y-117997000D02*
X134450667Y-118081667D01*
X134493000Y-118166333D01*
X134535333Y-118208667D01*
X134620000Y-118251000D01*
X134789333Y-118293333D01*
X135001000Y-118293333D01*
X135170333Y-118251000D01*
X135255000Y-118208667D01*
X135297333Y-118166333D01*
X135339667Y-118081667D01*
X135339667Y-117997000D01*
X135297333Y-117912333D01*
X135255000Y-117870000D01*
X135170333Y-117827667D01*
X135001000Y-117785333D01*
X134789333Y-117785333D01*
X134620000Y-117827667D01*
X134535333Y-117870000D01*
X134493000Y-117912333D01*
X134450667Y-117997000D01*
X135339667Y-118674334D02*
X134450667Y-118674334D01*
X135339667Y-119182334D02*
X134831667Y-118801334D01*
X134450667Y-119182334D02*
X134958667Y-118674334D01*
X135001000Y-119563334D02*
X135001000Y-120240667D01*
X135339667Y-121129667D02*
X135339667Y-120621667D01*
X135339667Y-120875667D02*
X134450667Y-120875667D01*
X134577667Y-120791001D01*
X134662333Y-120706334D01*
X134704667Y-120621667D01*
X135339667Y-121468334D02*
X134450667Y-122145668D01*
X134450667Y-121595334D02*
X134493000Y-121680001D01*
X134577667Y-121722334D01*
X134662333Y-121680001D01*
X134704667Y-121595334D01*
X134662333Y-121510668D01*
X134577667Y-121468334D01*
X134493000Y-121510668D01*
X134450667Y-121595334D01*
X135297333Y-122103334D02*
X135212667Y-122145668D01*
X135128000Y-122103334D01*
X135085667Y-122018668D01*
X135128000Y-121934001D01*
X135212667Y-121891668D01*
X135297333Y-121934001D01*
X135339667Y-122018668D01*
X135297333Y-122103334D01*
X135001000Y-122526668D02*
X135001000Y-123204001D01*
X135339667Y-124093001D02*
X135339667Y-123585001D01*
X135339667Y-123839001D02*
X134450667Y-123839001D01*
X134577667Y-123754335D01*
X134662333Y-123669668D01*
X134704667Y-123585001D01*
X135424333Y-124262335D02*
X135424333Y-124939668D01*
X134831667Y-125278335D02*
X134789333Y-125193668D01*
X134747000Y-125151335D01*
X134662333Y-125109001D01*
X134620000Y-125109001D01*
X134535333Y-125151335D01*
X134493000Y-125193668D01*
X134450667Y-125278335D01*
X134450667Y-125447668D01*
X134493000Y-125532335D01*
X134535333Y-125574668D01*
X134620000Y-125617001D01*
X134662333Y-125617001D01*
X134747000Y-125574668D01*
X134789333Y-125532335D01*
X134831667Y-125447668D01*
X134831667Y-125278335D01*
X134874000Y-125193668D01*
X134916333Y-125151335D01*
X135001000Y-125109001D01*
X135170333Y-125109001D01*
X135255000Y-125151335D01*
X135297333Y-125193668D01*
X135339667Y-125278335D01*
X135339667Y-125447668D01*
X135297333Y-125532335D01*
X135255000Y-125574668D01*
X135170333Y-125617001D01*
X135001000Y-125617001D01*
X134916333Y-125574668D01*
X134874000Y-125532335D01*
X134831667Y-125447668D01*
X134450667Y-125913335D02*
X135339667Y-126125002D01*
X134704667Y-126294335D01*
X135339667Y-126463668D01*
X134450667Y-126675335D01*
X135424333Y-126802335D02*
X135424333Y-127479668D01*
X134450667Y-127860668D02*
X134450667Y-127945335D01*
X134493000Y-128030001D01*
X134535333Y-128072335D01*
X134620000Y-128114668D01*
X134789333Y-128157001D01*
X135001000Y-128157001D01*
X135170333Y-128114668D01*
X135255000Y-128072335D01*
X135297333Y-128030001D01*
X135339667Y-127945335D01*
X135339667Y-127860668D01*
X135297333Y-127776001D01*
X135255000Y-127733668D01*
X135170333Y-127691335D01*
X135001000Y-127649001D01*
X134789333Y-127649001D01*
X134620000Y-127691335D01*
X134535333Y-127733668D01*
X134493000Y-127776001D01*
X134450667Y-127860668D01*
X134831667Y-128665002D02*
X134789333Y-128580335D01*
X134747000Y-128538002D01*
X134662333Y-128495668D01*
X134620000Y-128495668D01*
X134535333Y-128538002D01*
X134493000Y-128580335D01*
X134450667Y-128665002D01*
X134450667Y-128834335D01*
X134493000Y-128919002D01*
X134535333Y-128961335D01*
X134620000Y-129003668D01*
X134662333Y-129003668D01*
X134747000Y-128961335D01*
X134789333Y-128919002D01*
X134831667Y-128834335D01*
X134831667Y-128665002D01*
X134874000Y-128580335D01*
X134916333Y-128538002D01*
X135001000Y-128495668D01*
X135170333Y-128495668D01*
X135255000Y-128538002D01*
X135297333Y-128580335D01*
X135339667Y-128665002D01*
X135339667Y-128834335D01*
X135297333Y-128919002D01*
X135255000Y-128961335D01*
X135170333Y-129003668D01*
X135001000Y-129003668D01*
X134916333Y-128961335D01*
X134874000Y-128919002D01*
X134831667Y-128834335D01*
X134450667Y-129554002D02*
X134450667Y-129638669D01*
X134493000Y-129723335D01*
X134535333Y-129765669D01*
X134620000Y-129808002D01*
X134789333Y-129850335D01*
X135001000Y-129850335D01*
X135170333Y-129808002D01*
X135255000Y-129765669D01*
X135297333Y-129723335D01*
X135339667Y-129638669D01*
X135339667Y-129554002D01*
X135297333Y-129469335D01*
X135255000Y-129427002D01*
X135170333Y-129384669D01*
X135001000Y-129342335D01*
X134789333Y-129342335D01*
X134620000Y-129384669D01*
X134535333Y-129427002D01*
X134493000Y-129469335D01*
X134450667Y-129554002D01*
X134450667Y-130654669D02*
X134450667Y-130231336D01*
X134874000Y-130189002D01*
X134831667Y-130231336D01*
X134789333Y-130316002D01*
X134789333Y-130527669D01*
X134831667Y-130612336D01*
X134874000Y-130654669D01*
X134958667Y-130697002D01*
X135170333Y-130697002D01*
X135255000Y-130654669D01*
X135297333Y-130612336D01*
X135339667Y-130527669D01*
X135339667Y-130316002D01*
X135297333Y-130231336D01*
X135255000Y-130189002D01*
X135424333Y-130866336D02*
X135424333Y-131543669D01*
X141562667Y-120706334D02*
X141139333Y-120410000D01*
X141562667Y-120198334D02*
X140673667Y-120198334D01*
X140673667Y-120537000D01*
X140716000Y-120621667D01*
X140758333Y-120664000D01*
X140843000Y-120706334D01*
X140970000Y-120706334D01*
X141054667Y-120664000D01*
X141097000Y-120621667D01*
X141139333Y-120537000D01*
X141139333Y-120198334D01*
X141054667Y-121214334D02*
X141012333Y-121129667D01*
X140970000Y-121087334D01*
X140885333Y-121045000D01*
X140843000Y-121045000D01*
X140758333Y-121087334D01*
X140716000Y-121129667D01*
X140673667Y-121214334D01*
X140673667Y-121383667D01*
X140716000Y-121468334D01*
X140758333Y-121510667D01*
X140843000Y-121553000D01*
X140885333Y-121553000D01*
X140970000Y-121510667D01*
X141012333Y-121468334D01*
X141054667Y-121383667D01*
X141054667Y-121214334D01*
X141097000Y-121129667D01*
X141139333Y-121087334D01*
X141224000Y-121045000D01*
X141393333Y-121045000D01*
X141478000Y-121087334D01*
X141520333Y-121129667D01*
X141562667Y-121214334D01*
X141562667Y-121383667D01*
X141520333Y-121468334D01*
X141478000Y-121510667D01*
X141393333Y-121553000D01*
X141224000Y-121553000D01*
X141139333Y-121510667D01*
X141097000Y-121468334D01*
X141054667Y-121383667D01*
X138599333Y-109445665D02*
X138641667Y-109572665D01*
X138641667Y-109784332D01*
X138599333Y-109868999D01*
X138557000Y-109911332D01*
X138472333Y-109953665D01*
X138387667Y-109953665D01*
X138303000Y-109911332D01*
X138260667Y-109868999D01*
X138218333Y-109784332D01*
X138176000Y-109614999D01*
X138133667Y-109530332D01*
X138091333Y-109487999D01*
X138006667Y-109445665D01*
X137922000Y-109445665D01*
X137837333Y-109487999D01*
X137795000Y-109530332D01*
X137752667Y-109614999D01*
X137752667Y-109826665D01*
X137795000Y-109953665D01*
X138641667Y-110334666D02*
X137752667Y-110334666D01*
X138387667Y-110630999D01*
X137752667Y-110927332D01*
X138641667Y-110927332D01*
X138641667Y-111350666D02*
X137752667Y-111350666D01*
X137752667Y-111562332D01*
X137795000Y-111689332D01*
X137879667Y-111773999D01*
X137964333Y-111816332D01*
X138133667Y-111858666D01*
X138260667Y-111858666D01*
X138430000Y-111816332D01*
X138514667Y-111773999D01*
X138599333Y-111689332D01*
X138641667Y-111562332D01*
X138641667Y-111350666D01*
X138303000Y-112239666D02*
X138303000Y-112916999D01*
X138641667Y-113848333D02*
X138218333Y-113551999D01*
X138641667Y-113340333D02*
X137752667Y-113340333D01*
X137752667Y-113678999D01*
X137795000Y-113763666D01*
X137837333Y-113805999D01*
X137922000Y-113848333D01*
X138049000Y-113848333D01*
X138133667Y-113805999D01*
X138176000Y-113763666D01*
X138218333Y-113678999D01*
X138218333Y-113340333D01*
X138176000Y-114229333D02*
X138176000Y-114525666D01*
X138641667Y-114652666D02*
X138641667Y-114229333D01*
X137752667Y-114229333D01*
X137752667Y-114652666D01*
X138599333Y-114991332D02*
X138641667Y-115118332D01*
X138641667Y-115329999D01*
X138599333Y-115414666D01*
X138557000Y-115456999D01*
X138472333Y-115499332D01*
X138387667Y-115499332D01*
X138303000Y-115456999D01*
X138260667Y-115414666D01*
X138218333Y-115329999D01*
X138176000Y-115160666D01*
X138133667Y-115075999D01*
X138091333Y-115033666D01*
X138006667Y-114991332D01*
X137922000Y-114991332D01*
X137837333Y-115033666D01*
X137795000Y-115075999D01*
X137752667Y-115160666D01*
X137752667Y-115372332D01*
X137795000Y-115499332D01*
X138303000Y-115880333D02*
X138303000Y-116557666D01*
X138641667Y-117446666D02*
X138641667Y-116938666D01*
X138641667Y-117192666D02*
X137752667Y-117192666D01*
X137879667Y-117108000D01*
X137964333Y-117023333D01*
X138006667Y-116938666D01*
X137752667Y-117997000D02*
X137752667Y-118081667D01*
X137795000Y-118166333D01*
X137837333Y-118208667D01*
X137922000Y-118251000D01*
X138091333Y-118293333D01*
X138303000Y-118293333D01*
X138472333Y-118251000D01*
X138557000Y-118208667D01*
X138599333Y-118166333D01*
X138641667Y-118081667D01*
X138641667Y-117997000D01*
X138599333Y-117912333D01*
X138557000Y-117870000D01*
X138472333Y-117827667D01*
X138303000Y-117785333D01*
X138091333Y-117785333D01*
X137922000Y-117827667D01*
X137837333Y-117870000D01*
X137795000Y-117912333D01*
X137752667Y-117997000D01*
X138641667Y-118674334D02*
X137752667Y-118674334D01*
X138641667Y-119182334D02*
X138133667Y-118801334D01*
X137752667Y-119182334D02*
X138260667Y-118674334D01*
X138303000Y-119563334D02*
X138303000Y-120240667D01*
X138641667Y-121129667D02*
X138641667Y-120621667D01*
X138641667Y-120875667D02*
X137752667Y-120875667D01*
X137879667Y-120791001D01*
X137964333Y-120706334D01*
X138006667Y-120621667D01*
X138641667Y-121468334D02*
X137752667Y-122145668D01*
X137752667Y-121595334D02*
X137795000Y-121680001D01*
X137879667Y-121722334D01*
X137964333Y-121680001D01*
X138006667Y-121595334D01*
X137964333Y-121510668D01*
X137879667Y-121468334D01*
X137795000Y-121510668D01*
X137752667Y-121595334D01*
X138599333Y-122103334D02*
X138514667Y-122145668D01*
X138430000Y-122103334D01*
X138387667Y-122018668D01*
X138430000Y-121934001D01*
X138514667Y-121891668D01*
X138599333Y-121934001D01*
X138641667Y-122018668D01*
X138599333Y-122103334D01*
X138303000Y-122526668D02*
X138303000Y-123204001D01*
X138641667Y-124093001D02*
X138641667Y-123585001D01*
X138641667Y-123839001D02*
X137752667Y-123839001D01*
X137879667Y-123754335D01*
X137964333Y-123669668D01*
X138006667Y-123585001D01*
X138726333Y-124262335D02*
X138726333Y-124939668D01*
X138133667Y-125278335D02*
X138091333Y-125193668D01*
X138049000Y-125151335D01*
X137964333Y-125109001D01*
X137922000Y-125109001D01*
X137837333Y-125151335D01*
X137795000Y-125193668D01*
X137752667Y-125278335D01*
X137752667Y-125447668D01*
X137795000Y-125532335D01*
X137837333Y-125574668D01*
X137922000Y-125617001D01*
X137964333Y-125617001D01*
X138049000Y-125574668D01*
X138091333Y-125532335D01*
X138133667Y-125447668D01*
X138133667Y-125278335D01*
X138176000Y-125193668D01*
X138218333Y-125151335D01*
X138303000Y-125109001D01*
X138472333Y-125109001D01*
X138557000Y-125151335D01*
X138599333Y-125193668D01*
X138641667Y-125278335D01*
X138641667Y-125447668D01*
X138599333Y-125532335D01*
X138557000Y-125574668D01*
X138472333Y-125617001D01*
X138303000Y-125617001D01*
X138218333Y-125574668D01*
X138176000Y-125532335D01*
X138133667Y-125447668D01*
X137752667Y-125913335D02*
X138641667Y-126125002D01*
X138006667Y-126294335D01*
X138641667Y-126463668D01*
X137752667Y-126675335D01*
X138726333Y-126802335D02*
X138726333Y-127479668D01*
X137752667Y-127860668D02*
X137752667Y-127945335D01*
X137795000Y-128030001D01*
X137837333Y-128072335D01*
X137922000Y-128114668D01*
X138091333Y-128157001D01*
X138303000Y-128157001D01*
X138472333Y-128114668D01*
X138557000Y-128072335D01*
X138599333Y-128030001D01*
X138641667Y-127945335D01*
X138641667Y-127860668D01*
X138599333Y-127776001D01*
X138557000Y-127733668D01*
X138472333Y-127691335D01*
X138303000Y-127649001D01*
X138091333Y-127649001D01*
X137922000Y-127691335D01*
X137837333Y-127733668D01*
X137795000Y-127776001D01*
X137752667Y-127860668D01*
X138133667Y-128665002D02*
X138091333Y-128580335D01*
X138049000Y-128538002D01*
X137964333Y-128495668D01*
X137922000Y-128495668D01*
X137837333Y-128538002D01*
X137795000Y-128580335D01*
X137752667Y-128665002D01*
X137752667Y-128834335D01*
X137795000Y-128919002D01*
X137837333Y-128961335D01*
X137922000Y-129003668D01*
X137964333Y-129003668D01*
X138049000Y-128961335D01*
X138091333Y-128919002D01*
X138133667Y-128834335D01*
X138133667Y-128665002D01*
X138176000Y-128580335D01*
X138218333Y-128538002D01*
X138303000Y-128495668D01*
X138472333Y-128495668D01*
X138557000Y-128538002D01*
X138599333Y-128580335D01*
X138641667Y-128665002D01*
X138641667Y-128834335D01*
X138599333Y-128919002D01*
X138557000Y-128961335D01*
X138472333Y-129003668D01*
X138303000Y-129003668D01*
X138218333Y-128961335D01*
X138176000Y-128919002D01*
X138133667Y-128834335D01*
X137752667Y-129554002D02*
X137752667Y-129638669D01*
X137795000Y-129723335D01*
X137837333Y-129765669D01*
X137922000Y-129808002D01*
X138091333Y-129850335D01*
X138303000Y-129850335D01*
X138472333Y-129808002D01*
X138557000Y-129765669D01*
X138599333Y-129723335D01*
X138641667Y-129638669D01*
X138641667Y-129554002D01*
X138599333Y-129469335D01*
X138557000Y-129427002D01*
X138472333Y-129384669D01*
X138303000Y-129342335D01*
X138091333Y-129342335D01*
X137922000Y-129384669D01*
X137837333Y-129427002D01*
X137795000Y-129469335D01*
X137752667Y-129554002D01*
X137752667Y-130654669D02*
X137752667Y-130231336D01*
X138176000Y-130189002D01*
X138133667Y-130231336D01*
X138091333Y-130316002D01*
X138091333Y-130527669D01*
X138133667Y-130612336D01*
X138176000Y-130654669D01*
X138260667Y-130697002D01*
X138472333Y-130697002D01*
X138557000Y-130654669D01*
X138599333Y-130612336D01*
X138641667Y-130527669D01*
X138641667Y-130316002D01*
X138599333Y-130231336D01*
X138557000Y-130189002D01*
X138726333Y-130866336D02*
X138726333Y-131543669D01*
X144864667Y-120706334D02*
X144441333Y-120410000D01*
X144864667Y-120198334D02*
X143975667Y-120198334D01*
X143975667Y-120537000D01*
X144018000Y-120621667D01*
X144060333Y-120664000D01*
X144145000Y-120706334D01*
X144272000Y-120706334D01*
X144356667Y-120664000D01*
X144399000Y-120621667D01*
X144441333Y-120537000D01*
X144441333Y-120198334D01*
X144864667Y-121553000D02*
X144864667Y-121045000D01*
X144864667Y-121299000D02*
X143975667Y-121299000D01*
X144102667Y-121214334D01*
X144187333Y-121129667D01*
X144229667Y-121045000D01*
X141901333Y-109445665D02*
X141943667Y-109572665D01*
X141943667Y-109784332D01*
X141901333Y-109868999D01*
X141859000Y-109911332D01*
X141774333Y-109953665D01*
X141689667Y-109953665D01*
X141605000Y-109911332D01*
X141562667Y-109868999D01*
X141520333Y-109784332D01*
X141478000Y-109614999D01*
X141435667Y-109530332D01*
X141393333Y-109487999D01*
X141308667Y-109445665D01*
X141224000Y-109445665D01*
X141139333Y-109487999D01*
X141097000Y-109530332D01*
X141054667Y-109614999D01*
X141054667Y-109826665D01*
X141097000Y-109953665D01*
X141943667Y-110334666D02*
X141054667Y-110334666D01*
X141689667Y-110630999D01*
X141054667Y-110927332D01*
X141943667Y-110927332D01*
X141943667Y-111350666D02*
X141054667Y-111350666D01*
X141054667Y-111562332D01*
X141097000Y-111689332D01*
X141181667Y-111773999D01*
X141266333Y-111816332D01*
X141435667Y-111858666D01*
X141562667Y-111858666D01*
X141732000Y-111816332D01*
X141816667Y-111773999D01*
X141901333Y-111689332D01*
X141943667Y-111562332D01*
X141943667Y-111350666D01*
X141605000Y-112239666D02*
X141605000Y-112916999D01*
X141943667Y-113848333D02*
X141520333Y-113551999D01*
X141943667Y-113340333D02*
X141054667Y-113340333D01*
X141054667Y-113678999D01*
X141097000Y-113763666D01*
X141139333Y-113805999D01*
X141224000Y-113848333D01*
X141351000Y-113848333D01*
X141435667Y-113805999D01*
X141478000Y-113763666D01*
X141520333Y-113678999D01*
X141520333Y-113340333D01*
X141478000Y-114229333D02*
X141478000Y-114525666D01*
X141943667Y-114652666D02*
X141943667Y-114229333D01*
X141054667Y-114229333D01*
X141054667Y-114652666D01*
X141901333Y-114991332D02*
X141943667Y-115118332D01*
X141943667Y-115329999D01*
X141901333Y-115414666D01*
X141859000Y-115456999D01*
X141774333Y-115499332D01*
X141689667Y-115499332D01*
X141605000Y-115456999D01*
X141562667Y-115414666D01*
X141520333Y-115329999D01*
X141478000Y-115160666D01*
X141435667Y-115075999D01*
X141393333Y-115033666D01*
X141308667Y-114991332D01*
X141224000Y-114991332D01*
X141139333Y-115033666D01*
X141097000Y-115075999D01*
X141054667Y-115160666D01*
X141054667Y-115372332D01*
X141097000Y-115499332D01*
X141605000Y-115880333D02*
X141605000Y-116557666D01*
X141943667Y-117446666D02*
X141943667Y-116938666D01*
X141943667Y-117192666D02*
X141054667Y-117192666D01*
X141181667Y-117108000D01*
X141266333Y-117023333D01*
X141308667Y-116938666D01*
X141054667Y-117997000D02*
X141054667Y-118081667D01*
X141097000Y-118166333D01*
X141139333Y-118208667D01*
X141224000Y-118251000D01*
X141393333Y-118293333D01*
X141605000Y-118293333D01*
X141774333Y-118251000D01*
X141859000Y-118208667D01*
X141901333Y-118166333D01*
X141943667Y-118081667D01*
X141943667Y-117997000D01*
X141901333Y-117912333D01*
X141859000Y-117870000D01*
X141774333Y-117827667D01*
X141605000Y-117785333D01*
X141393333Y-117785333D01*
X141224000Y-117827667D01*
X141139333Y-117870000D01*
X141097000Y-117912333D01*
X141054667Y-117997000D01*
X141943667Y-118674334D02*
X141054667Y-118674334D01*
X141943667Y-119182334D02*
X141435667Y-118801334D01*
X141054667Y-119182334D02*
X141562667Y-118674334D01*
X141605000Y-119563334D02*
X141605000Y-120240667D01*
X141943667Y-121129667D02*
X141943667Y-120621667D01*
X141943667Y-120875667D02*
X141054667Y-120875667D01*
X141181667Y-120791001D01*
X141266333Y-120706334D01*
X141308667Y-120621667D01*
X141943667Y-121468334D02*
X141054667Y-122145668D01*
X141054667Y-121595334D02*
X141097000Y-121680001D01*
X141181667Y-121722334D01*
X141266333Y-121680001D01*
X141308667Y-121595334D01*
X141266333Y-121510668D01*
X141181667Y-121468334D01*
X141097000Y-121510668D01*
X141054667Y-121595334D01*
X141901333Y-122103334D02*
X141816667Y-122145668D01*
X141732000Y-122103334D01*
X141689667Y-122018668D01*
X141732000Y-121934001D01*
X141816667Y-121891668D01*
X141901333Y-121934001D01*
X141943667Y-122018668D01*
X141901333Y-122103334D01*
X141605000Y-122526668D02*
X141605000Y-123204001D01*
X141943667Y-124093001D02*
X141943667Y-123585001D01*
X141943667Y-123839001D02*
X141054667Y-123839001D01*
X141181667Y-123754335D01*
X141266333Y-123669668D01*
X141308667Y-123585001D01*
X142028333Y-124262335D02*
X142028333Y-124939668D01*
X141435667Y-125278335D02*
X141393333Y-125193668D01*
X141351000Y-125151335D01*
X141266333Y-125109001D01*
X141224000Y-125109001D01*
X141139333Y-125151335D01*
X141097000Y-125193668D01*
X141054667Y-125278335D01*
X141054667Y-125447668D01*
X141097000Y-125532335D01*
X141139333Y-125574668D01*
X141224000Y-125617001D01*
X141266333Y-125617001D01*
X141351000Y-125574668D01*
X141393333Y-125532335D01*
X141435667Y-125447668D01*
X141435667Y-125278335D01*
X141478000Y-125193668D01*
X141520333Y-125151335D01*
X141605000Y-125109001D01*
X141774333Y-125109001D01*
X141859000Y-125151335D01*
X141901333Y-125193668D01*
X141943667Y-125278335D01*
X141943667Y-125447668D01*
X141901333Y-125532335D01*
X141859000Y-125574668D01*
X141774333Y-125617001D01*
X141605000Y-125617001D01*
X141520333Y-125574668D01*
X141478000Y-125532335D01*
X141435667Y-125447668D01*
X141054667Y-125913335D02*
X141943667Y-126125002D01*
X141308667Y-126294335D01*
X141943667Y-126463668D01*
X141054667Y-126675335D01*
X142028333Y-126802335D02*
X142028333Y-127479668D01*
X141054667Y-127860668D02*
X141054667Y-127945335D01*
X141097000Y-128030001D01*
X141139333Y-128072335D01*
X141224000Y-128114668D01*
X141393333Y-128157001D01*
X141605000Y-128157001D01*
X141774333Y-128114668D01*
X141859000Y-128072335D01*
X141901333Y-128030001D01*
X141943667Y-127945335D01*
X141943667Y-127860668D01*
X141901333Y-127776001D01*
X141859000Y-127733668D01*
X141774333Y-127691335D01*
X141605000Y-127649001D01*
X141393333Y-127649001D01*
X141224000Y-127691335D01*
X141139333Y-127733668D01*
X141097000Y-127776001D01*
X141054667Y-127860668D01*
X141435667Y-128665002D02*
X141393333Y-128580335D01*
X141351000Y-128538002D01*
X141266333Y-128495668D01*
X141224000Y-128495668D01*
X141139333Y-128538002D01*
X141097000Y-128580335D01*
X141054667Y-128665002D01*
X141054667Y-128834335D01*
X141097000Y-128919002D01*
X141139333Y-128961335D01*
X141224000Y-129003668D01*
X141266333Y-129003668D01*
X141351000Y-128961335D01*
X141393333Y-128919002D01*
X141435667Y-128834335D01*
X141435667Y-128665002D01*
X141478000Y-128580335D01*
X141520333Y-128538002D01*
X141605000Y-128495668D01*
X141774333Y-128495668D01*
X141859000Y-128538002D01*
X141901333Y-128580335D01*
X141943667Y-128665002D01*
X141943667Y-128834335D01*
X141901333Y-128919002D01*
X141859000Y-128961335D01*
X141774333Y-129003668D01*
X141605000Y-129003668D01*
X141520333Y-128961335D01*
X141478000Y-128919002D01*
X141435667Y-128834335D01*
X141054667Y-129554002D02*
X141054667Y-129638669D01*
X141097000Y-129723335D01*
X141139333Y-129765669D01*
X141224000Y-129808002D01*
X141393333Y-129850335D01*
X141605000Y-129850335D01*
X141774333Y-129808002D01*
X141859000Y-129765669D01*
X141901333Y-129723335D01*
X141943667Y-129638669D01*
X141943667Y-129554002D01*
X141901333Y-129469335D01*
X141859000Y-129427002D01*
X141774333Y-129384669D01*
X141605000Y-129342335D01*
X141393333Y-129342335D01*
X141224000Y-129384669D01*
X141139333Y-129427002D01*
X141097000Y-129469335D01*
X141054667Y-129554002D01*
X141054667Y-130654669D02*
X141054667Y-130231336D01*
X141478000Y-130189002D01*
X141435667Y-130231336D01*
X141393333Y-130316002D01*
X141393333Y-130527669D01*
X141435667Y-130612336D01*
X141478000Y-130654669D01*
X141562667Y-130697002D01*
X141774333Y-130697002D01*
X141859000Y-130654669D01*
X141901333Y-130612336D01*
X141943667Y-130527669D01*
X141943667Y-130316002D01*
X141901333Y-130231336D01*
X141859000Y-130189002D01*
X142028333Y-130866336D02*
X142028333Y-131543669D01*
X148166667Y-120706334D02*
X147743333Y-120410000D01*
X148166667Y-120198334D02*
X147277667Y-120198334D01*
X147277667Y-120537000D01*
X147320000Y-120621667D01*
X147362333Y-120664000D01*
X147447000Y-120706334D01*
X147574000Y-120706334D01*
X147658667Y-120664000D01*
X147701000Y-120621667D01*
X147743333Y-120537000D01*
X147743333Y-120198334D01*
X147362333Y-121045000D02*
X147320000Y-121087334D01*
X147277667Y-121172000D01*
X147277667Y-121383667D01*
X147320000Y-121468334D01*
X147362333Y-121510667D01*
X147447000Y-121553000D01*
X147531667Y-121553000D01*
X147658667Y-121510667D01*
X148166667Y-121002667D01*
X148166667Y-121553000D01*
X145203333Y-109445665D02*
X145245667Y-109572665D01*
X145245667Y-109784332D01*
X145203333Y-109868999D01*
X145161000Y-109911332D01*
X145076333Y-109953665D01*
X144991667Y-109953665D01*
X144907000Y-109911332D01*
X144864667Y-109868999D01*
X144822333Y-109784332D01*
X144780000Y-109614999D01*
X144737667Y-109530332D01*
X144695333Y-109487999D01*
X144610667Y-109445665D01*
X144526000Y-109445665D01*
X144441333Y-109487999D01*
X144399000Y-109530332D01*
X144356667Y-109614999D01*
X144356667Y-109826665D01*
X144399000Y-109953665D01*
X145245667Y-110334666D02*
X144356667Y-110334666D01*
X144991667Y-110630999D01*
X144356667Y-110927332D01*
X145245667Y-110927332D01*
X145245667Y-111350666D02*
X144356667Y-111350666D01*
X144356667Y-111562332D01*
X144399000Y-111689332D01*
X144483667Y-111773999D01*
X144568333Y-111816332D01*
X144737667Y-111858666D01*
X144864667Y-111858666D01*
X145034000Y-111816332D01*
X145118667Y-111773999D01*
X145203333Y-111689332D01*
X145245667Y-111562332D01*
X145245667Y-111350666D01*
X144907000Y-112239666D02*
X144907000Y-112916999D01*
X145245667Y-113848333D02*
X144822333Y-113551999D01*
X145245667Y-113340333D02*
X144356667Y-113340333D01*
X144356667Y-113678999D01*
X144399000Y-113763666D01*
X144441333Y-113805999D01*
X144526000Y-113848333D01*
X144653000Y-113848333D01*
X144737667Y-113805999D01*
X144780000Y-113763666D01*
X144822333Y-113678999D01*
X144822333Y-113340333D01*
X144780000Y-114229333D02*
X144780000Y-114525666D01*
X145245667Y-114652666D02*
X145245667Y-114229333D01*
X144356667Y-114229333D01*
X144356667Y-114652666D01*
X145203333Y-114991332D02*
X145245667Y-115118332D01*
X145245667Y-115329999D01*
X145203333Y-115414666D01*
X145161000Y-115456999D01*
X145076333Y-115499332D01*
X144991667Y-115499332D01*
X144907000Y-115456999D01*
X144864667Y-115414666D01*
X144822333Y-115329999D01*
X144780000Y-115160666D01*
X144737667Y-115075999D01*
X144695333Y-115033666D01*
X144610667Y-114991332D01*
X144526000Y-114991332D01*
X144441333Y-115033666D01*
X144399000Y-115075999D01*
X144356667Y-115160666D01*
X144356667Y-115372332D01*
X144399000Y-115499332D01*
X144907000Y-115880333D02*
X144907000Y-116557666D01*
X145245667Y-117446666D02*
X145245667Y-116938666D01*
X145245667Y-117192666D02*
X144356667Y-117192666D01*
X144483667Y-117108000D01*
X144568333Y-117023333D01*
X144610667Y-116938666D01*
X144356667Y-117997000D02*
X144356667Y-118081667D01*
X144399000Y-118166333D01*
X144441333Y-118208667D01*
X144526000Y-118251000D01*
X144695333Y-118293333D01*
X144907000Y-118293333D01*
X145076333Y-118251000D01*
X145161000Y-118208667D01*
X145203333Y-118166333D01*
X145245667Y-118081667D01*
X145245667Y-117997000D01*
X145203333Y-117912333D01*
X145161000Y-117870000D01*
X145076333Y-117827667D01*
X144907000Y-117785333D01*
X144695333Y-117785333D01*
X144526000Y-117827667D01*
X144441333Y-117870000D01*
X144399000Y-117912333D01*
X144356667Y-117997000D01*
X145245667Y-118674334D02*
X144356667Y-118674334D01*
X145245667Y-119182334D02*
X144737667Y-118801334D01*
X144356667Y-119182334D02*
X144864667Y-118674334D01*
X144907000Y-119563334D02*
X144907000Y-120240667D01*
X145245667Y-121129667D02*
X145245667Y-120621667D01*
X145245667Y-120875667D02*
X144356667Y-120875667D01*
X144483667Y-120791001D01*
X144568333Y-120706334D01*
X144610667Y-120621667D01*
X145245667Y-121468334D02*
X144356667Y-122145668D01*
X144356667Y-121595334D02*
X144399000Y-121680001D01*
X144483667Y-121722334D01*
X144568333Y-121680001D01*
X144610667Y-121595334D01*
X144568333Y-121510668D01*
X144483667Y-121468334D01*
X144399000Y-121510668D01*
X144356667Y-121595334D01*
X145203333Y-122103334D02*
X145118667Y-122145668D01*
X145034000Y-122103334D01*
X144991667Y-122018668D01*
X145034000Y-121934001D01*
X145118667Y-121891668D01*
X145203333Y-121934001D01*
X145245667Y-122018668D01*
X145203333Y-122103334D01*
X144907000Y-122526668D02*
X144907000Y-123204001D01*
X145245667Y-124093001D02*
X145245667Y-123585001D01*
X145245667Y-123839001D02*
X144356667Y-123839001D01*
X144483667Y-123754335D01*
X144568333Y-123669668D01*
X144610667Y-123585001D01*
X145330333Y-124262335D02*
X145330333Y-124939668D01*
X144737667Y-125278335D02*
X144695333Y-125193668D01*
X144653000Y-125151335D01*
X144568333Y-125109001D01*
X144526000Y-125109001D01*
X144441333Y-125151335D01*
X144399000Y-125193668D01*
X144356667Y-125278335D01*
X144356667Y-125447668D01*
X144399000Y-125532335D01*
X144441333Y-125574668D01*
X144526000Y-125617001D01*
X144568333Y-125617001D01*
X144653000Y-125574668D01*
X144695333Y-125532335D01*
X144737667Y-125447668D01*
X144737667Y-125278335D01*
X144780000Y-125193668D01*
X144822333Y-125151335D01*
X144907000Y-125109001D01*
X145076333Y-125109001D01*
X145161000Y-125151335D01*
X145203333Y-125193668D01*
X145245667Y-125278335D01*
X145245667Y-125447668D01*
X145203333Y-125532335D01*
X145161000Y-125574668D01*
X145076333Y-125617001D01*
X144907000Y-125617001D01*
X144822333Y-125574668D01*
X144780000Y-125532335D01*
X144737667Y-125447668D01*
X144356667Y-125913335D02*
X145245667Y-126125002D01*
X144610667Y-126294335D01*
X145245667Y-126463668D01*
X144356667Y-126675335D01*
X145330333Y-126802335D02*
X145330333Y-127479668D01*
X144356667Y-127860668D02*
X144356667Y-127945335D01*
X144399000Y-128030001D01*
X144441333Y-128072335D01*
X144526000Y-128114668D01*
X144695333Y-128157001D01*
X144907000Y-128157001D01*
X145076333Y-128114668D01*
X145161000Y-128072335D01*
X145203333Y-128030001D01*
X145245667Y-127945335D01*
X145245667Y-127860668D01*
X145203333Y-127776001D01*
X145161000Y-127733668D01*
X145076333Y-127691335D01*
X144907000Y-127649001D01*
X144695333Y-127649001D01*
X144526000Y-127691335D01*
X144441333Y-127733668D01*
X144399000Y-127776001D01*
X144356667Y-127860668D01*
X144737667Y-128665002D02*
X144695333Y-128580335D01*
X144653000Y-128538002D01*
X144568333Y-128495668D01*
X144526000Y-128495668D01*
X144441333Y-128538002D01*
X144399000Y-128580335D01*
X144356667Y-128665002D01*
X144356667Y-128834335D01*
X144399000Y-128919002D01*
X144441333Y-128961335D01*
X144526000Y-129003668D01*
X144568333Y-129003668D01*
X144653000Y-128961335D01*
X144695333Y-128919002D01*
X144737667Y-128834335D01*
X144737667Y-128665002D01*
X144780000Y-128580335D01*
X144822333Y-128538002D01*
X144907000Y-128495668D01*
X145076333Y-128495668D01*
X145161000Y-128538002D01*
X145203333Y-128580335D01*
X145245667Y-128665002D01*
X145245667Y-128834335D01*
X145203333Y-128919002D01*
X145161000Y-128961335D01*
X145076333Y-129003668D01*
X144907000Y-129003668D01*
X144822333Y-128961335D01*
X144780000Y-128919002D01*
X144737667Y-128834335D01*
X144356667Y-129554002D02*
X144356667Y-129638669D01*
X144399000Y-129723335D01*
X144441333Y-129765669D01*
X144526000Y-129808002D01*
X144695333Y-129850335D01*
X144907000Y-129850335D01*
X145076333Y-129808002D01*
X145161000Y-129765669D01*
X145203333Y-129723335D01*
X145245667Y-129638669D01*
X145245667Y-129554002D01*
X145203333Y-129469335D01*
X145161000Y-129427002D01*
X145076333Y-129384669D01*
X144907000Y-129342335D01*
X144695333Y-129342335D01*
X144526000Y-129384669D01*
X144441333Y-129427002D01*
X144399000Y-129469335D01*
X144356667Y-129554002D01*
X144356667Y-130654669D02*
X144356667Y-130231336D01*
X144780000Y-130189002D01*
X144737667Y-130231336D01*
X144695333Y-130316002D01*
X144695333Y-130527669D01*
X144737667Y-130612336D01*
X144780000Y-130654669D01*
X144864667Y-130697002D01*
X145076333Y-130697002D01*
X145161000Y-130654669D01*
X145203333Y-130612336D01*
X145245667Y-130527669D01*
X145245667Y-130316002D01*
X145203333Y-130231336D01*
X145161000Y-130189002D01*
X145330333Y-130866336D02*
X145330333Y-131543669D01*
X151468667Y-120706334D02*
X151045333Y-120410000D01*
X151468667Y-120198334D02*
X150579667Y-120198334D01*
X150579667Y-120537000D01*
X150622000Y-120621667D01*
X150664333Y-120664000D01*
X150749000Y-120706334D01*
X150876000Y-120706334D01*
X150960667Y-120664000D01*
X151003000Y-120621667D01*
X151045333Y-120537000D01*
X151045333Y-120198334D01*
X150579667Y-121002667D02*
X150579667Y-121553000D01*
X150918333Y-121256667D01*
X150918333Y-121383667D01*
X150960667Y-121468334D01*
X151003000Y-121510667D01*
X151087667Y-121553000D01*
X151299333Y-121553000D01*
X151384000Y-121510667D01*
X151426333Y-121468334D01*
X151468667Y-121383667D01*
X151468667Y-121129667D01*
X151426333Y-121045000D01*
X151384000Y-121002667D01*
X148505333Y-109445665D02*
X148547667Y-109572665D01*
X148547667Y-109784332D01*
X148505333Y-109868999D01*
X148463000Y-109911332D01*
X148378333Y-109953665D01*
X148293667Y-109953665D01*
X148209000Y-109911332D01*
X148166667Y-109868999D01*
X148124333Y-109784332D01*
X148082000Y-109614999D01*
X148039667Y-109530332D01*
X147997333Y-109487999D01*
X147912667Y-109445665D01*
X147828000Y-109445665D01*
X147743333Y-109487999D01*
X147701000Y-109530332D01*
X147658667Y-109614999D01*
X147658667Y-109826665D01*
X147701000Y-109953665D01*
X148547667Y-110334666D02*
X147658667Y-110334666D01*
X148293667Y-110630999D01*
X147658667Y-110927332D01*
X148547667Y-110927332D01*
X148547667Y-111350666D02*
X147658667Y-111350666D01*
X147658667Y-111562332D01*
X147701000Y-111689332D01*
X147785667Y-111773999D01*
X147870333Y-111816332D01*
X148039667Y-111858666D01*
X148166667Y-111858666D01*
X148336000Y-111816332D01*
X148420667Y-111773999D01*
X148505333Y-111689332D01*
X148547667Y-111562332D01*
X148547667Y-111350666D01*
X148209000Y-112239666D02*
X148209000Y-112916999D01*
X148547667Y-113848333D02*
X148124333Y-113551999D01*
X148547667Y-113340333D02*
X147658667Y-113340333D01*
X147658667Y-113678999D01*
X147701000Y-113763666D01*
X147743333Y-113805999D01*
X147828000Y-113848333D01*
X147955000Y-113848333D01*
X148039667Y-113805999D01*
X148082000Y-113763666D01*
X148124333Y-113678999D01*
X148124333Y-113340333D01*
X148082000Y-114229333D02*
X148082000Y-114525666D01*
X148547667Y-114652666D02*
X148547667Y-114229333D01*
X147658667Y-114229333D01*
X147658667Y-114652666D01*
X148505333Y-114991332D02*
X148547667Y-115118332D01*
X148547667Y-115329999D01*
X148505333Y-115414666D01*
X148463000Y-115456999D01*
X148378333Y-115499332D01*
X148293667Y-115499332D01*
X148209000Y-115456999D01*
X148166667Y-115414666D01*
X148124333Y-115329999D01*
X148082000Y-115160666D01*
X148039667Y-115075999D01*
X147997333Y-115033666D01*
X147912667Y-114991332D01*
X147828000Y-114991332D01*
X147743333Y-115033666D01*
X147701000Y-115075999D01*
X147658667Y-115160666D01*
X147658667Y-115372332D01*
X147701000Y-115499332D01*
X148209000Y-115880333D02*
X148209000Y-116557666D01*
X148547667Y-117446666D02*
X148547667Y-116938666D01*
X148547667Y-117192666D02*
X147658667Y-117192666D01*
X147785667Y-117108000D01*
X147870333Y-117023333D01*
X147912667Y-116938666D01*
X147658667Y-117997000D02*
X147658667Y-118081667D01*
X147701000Y-118166333D01*
X147743333Y-118208667D01*
X147828000Y-118251000D01*
X147997333Y-118293333D01*
X148209000Y-118293333D01*
X148378333Y-118251000D01*
X148463000Y-118208667D01*
X148505333Y-118166333D01*
X148547667Y-118081667D01*
X148547667Y-117997000D01*
X148505333Y-117912333D01*
X148463000Y-117870000D01*
X148378333Y-117827667D01*
X148209000Y-117785333D01*
X147997333Y-117785333D01*
X147828000Y-117827667D01*
X147743333Y-117870000D01*
X147701000Y-117912333D01*
X147658667Y-117997000D01*
X148547667Y-118674334D02*
X147658667Y-118674334D01*
X148547667Y-119182334D02*
X148039667Y-118801334D01*
X147658667Y-119182334D02*
X148166667Y-118674334D01*
X148209000Y-119563334D02*
X148209000Y-120240667D01*
X148547667Y-121129667D02*
X148547667Y-120621667D01*
X148547667Y-120875667D02*
X147658667Y-120875667D01*
X147785667Y-120791001D01*
X147870333Y-120706334D01*
X147912667Y-120621667D01*
X148547667Y-121468334D02*
X147658667Y-122145668D01*
X147658667Y-121595334D02*
X147701000Y-121680001D01*
X147785667Y-121722334D01*
X147870333Y-121680001D01*
X147912667Y-121595334D01*
X147870333Y-121510668D01*
X147785667Y-121468334D01*
X147701000Y-121510668D01*
X147658667Y-121595334D01*
X148505333Y-122103334D02*
X148420667Y-122145668D01*
X148336000Y-122103334D01*
X148293667Y-122018668D01*
X148336000Y-121934001D01*
X148420667Y-121891668D01*
X148505333Y-121934001D01*
X148547667Y-122018668D01*
X148505333Y-122103334D01*
X148209000Y-122526668D02*
X148209000Y-123204001D01*
X148547667Y-124093001D02*
X148547667Y-123585001D01*
X148547667Y-123839001D02*
X147658667Y-123839001D01*
X147785667Y-123754335D01*
X147870333Y-123669668D01*
X147912667Y-123585001D01*
X148632333Y-124262335D02*
X148632333Y-124939668D01*
X148039667Y-125278335D02*
X147997333Y-125193668D01*
X147955000Y-125151335D01*
X147870333Y-125109001D01*
X147828000Y-125109001D01*
X147743333Y-125151335D01*
X147701000Y-125193668D01*
X147658667Y-125278335D01*
X147658667Y-125447668D01*
X147701000Y-125532335D01*
X147743333Y-125574668D01*
X147828000Y-125617001D01*
X147870333Y-125617001D01*
X147955000Y-125574668D01*
X147997333Y-125532335D01*
X148039667Y-125447668D01*
X148039667Y-125278335D01*
X148082000Y-125193668D01*
X148124333Y-125151335D01*
X148209000Y-125109001D01*
X148378333Y-125109001D01*
X148463000Y-125151335D01*
X148505333Y-125193668D01*
X148547667Y-125278335D01*
X148547667Y-125447668D01*
X148505333Y-125532335D01*
X148463000Y-125574668D01*
X148378333Y-125617001D01*
X148209000Y-125617001D01*
X148124333Y-125574668D01*
X148082000Y-125532335D01*
X148039667Y-125447668D01*
X147658667Y-125913335D02*
X148547667Y-126125002D01*
X147912667Y-126294335D01*
X148547667Y-126463668D01*
X147658667Y-126675335D01*
X148632333Y-126802335D02*
X148632333Y-127479668D01*
X147658667Y-127860668D02*
X147658667Y-127945335D01*
X147701000Y-128030001D01*
X147743333Y-128072335D01*
X147828000Y-128114668D01*
X147997333Y-128157001D01*
X148209000Y-128157001D01*
X148378333Y-128114668D01*
X148463000Y-128072335D01*
X148505333Y-128030001D01*
X148547667Y-127945335D01*
X148547667Y-127860668D01*
X148505333Y-127776001D01*
X148463000Y-127733668D01*
X148378333Y-127691335D01*
X148209000Y-127649001D01*
X147997333Y-127649001D01*
X147828000Y-127691335D01*
X147743333Y-127733668D01*
X147701000Y-127776001D01*
X147658667Y-127860668D01*
X148039667Y-128665002D02*
X147997333Y-128580335D01*
X147955000Y-128538002D01*
X147870333Y-128495668D01*
X147828000Y-128495668D01*
X147743333Y-128538002D01*
X147701000Y-128580335D01*
X147658667Y-128665002D01*
X147658667Y-128834335D01*
X147701000Y-128919002D01*
X147743333Y-128961335D01*
X147828000Y-129003668D01*
X147870333Y-129003668D01*
X147955000Y-128961335D01*
X147997333Y-128919002D01*
X148039667Y-128834335D01*
X148039667Y-128665002D01*
X148082000Y-128580335D01*
X148124333Y-128538002D01*
X148209000Y-128495668D01*
X148378333Y-128495668D01*
X148463000Y-128538002D01*
X148505333Y-128580335D01*
X148547667Y-128665002D01*
X148547667Y-128834335D01*
X148505333Y-128919002D01*
X148463000Y-128961335D01*
X148378333Y-129003668D01*
X148209000Y-129003668D01*
X148124333Y-128961335D01*
X148082000Y-128919002D01*
X148039667Y-128834335D01*
X147658667Y-129554002D02*
X147658667Y-129638669D01*
X147701000Y-129723335D01*
X147743333Y-129765669D01*
X147828000Y-129808002D01*
X147997333Y-129850335D01*
X148209000Y-129850335D01*
X148378333Y-129808002D01*
X148463000Y-129765669D01*
X148505333Y-129723335D01*
X148547667Y-129638669D01*
X148547667Y-129554002D01*
X148505333Y-129469335D01*
X148463000Y-129427002D01*
X148378333Y-129384669D01*
X148209000Y-129342335D01*
X147997333Y-129342335D01*
X147828000Y-129384669D01*
X147743333Y-129427002D01*
X147701000Y-129469335D01*
X147658667Y-129554002D01*
X147658667Y-130654669D02*
X147658667Y-130231336D01*
X148082000Y-130189002D01*
X148039667Y-130231336D01*
X147997333Y-130316002D01*
X147997333Y-130527669D01*
X148039667Y-130612336D01*
X148082000Y-130654669D01*
X148166667Y-130697002D01*
X148378333Y-130697002D01*
X148463000Y-130654669D01*
X148505333Y-130612336D01*
X148547667Y-130527669D01*
X148547667Y-130316002D01*
X148505333Y-130231336D01*
X148463000Y-130189002D01*
X148632333Y-130866336D02*
X148632333Y-131543669D01*
X154770667Y-120706334D02*
X154347333Y-120410000D01*
X154770667Y-120198334D02*
X153881667Y-120198334D01*
X153881667Y-120537000D01*
X153924000Y-120621667D01*
X153966333Y-120664000D01*
X154051000Y-120706334D01*
X154178000Y-120706334D01*
X154262667Y-120664000D01*
X154305000Y-120621667D01*
X154347333Y-120537000D01*
X154347333Y-120198334D01*
X154178000Y-121468334D02*
X154770667Y-121468334D01*
X153839333Y-121256667D02*
X154474333Y-121045000D01*
X154474333Y-121595334D01*
X151807333Y-109445665D02*
X151849667Y-109572665D01*
X151849667Y-109784332D01*
X151807333Y-109868999D01*
X151765000Y-109911332D01*
X151680333Y-109953665D01*
X151595667Y-109953665D01*
X151511000Y-109911332D01*
X151468667Y-109868999D01*
X151426333Y-109784332D01*
X151384000Y-109614999D01*
X151341667Y-109530332D01*
X151299333Y-109487999D01*
X151214667Y-109445665D01*
X151130000Y-109445665D01*
X151045333Y-109487999D01*
X151003000Y-109530332D01*
X150960667Y-109614999D01*
X150960667Y-109826665D01*
X151003000Y-109953665D01*
X151849667Y-110334666D02*
X150960667Y-110334666D01*
X151595667Y-110630999D01*
X150960667Y-110927332D01*
X151849667Y-110927332D01*
X151849667Y-111350666D02*
X150960667Y-111350666D01*
X150960667Y-111562332D01*
X151003000Y-111689332D01*
X151087667Y-111773999D01*
X151172333Y-111816332D01*
X151341667Y-111858666D01*
X151468667Y-111858666D01*
X151638000Y-111816332D01*
X151722667Y-111773999D01*
X151807333Y-111689332D01*
X151849667Y-111562332D01*
X151849667Y-111350666D01*
X151511000Y-112239666D02*
X151511000Y-112916999D01*
X151849667Y-113848333D02*
X151426333Y-113551999D01*
X151849667Y-113340333D02*
X150960667Y-113340333D01*
X150960667Y-113678999D01*
X151003000Y-113763666D01*
X151045333Y-113805999D01*
X151130000Y-113848333D01*
X151257000Y-113848333D01*
X151341667Y-113805999D01*
X151384000Y-113763666D01*
X151426333Y-113678999D01*
X151426333Y-113340333D01*
X151384000Y-114229333D02*
X151384000Y-114525666D01*
X151849667Y-114652666D02*
X151849667Y-114229333D01*
X150960667Y-114229333D01*
X150960667Y-114652666D01*
X151807333Y-114991332D02*
X151849667Y-115118332D01*
X151849667Y-115329999D01*
X151807333Y-115414666D01*
X151765000Y-115456999D01*
X151680333Y-115499332D01*
X151595667Y-115499332D01*
X151511000Y-115456999D01*
X151468667Y-115414666D01*
X151426333Y-115329999D01*
X151384000Y-115160666D01*
X151341667Y-115075999D01*
X151299333Y-115033666D01*
X151214667Y-114991332D01*
X151130000Y-114991332D01*
X151045333Y-115033666D01*
X151003000Y-115075999D01*
X150960667Y-115160666D01*
X150960667Y-115372332D01*
X151003000Y-115499332D01*
X151511000Y-115880333D02*
X151511000Y-116557666D01*
X151849667Y-117446666D02*
X151849667Y-116938666D01*
X151849667Y-117192666D02*
X150960667Y-117192666D01*
X151087667Y-117108000D01*
X151172333Y-117023333D01*
X151214667Y-116938666D01*
X150960667Y-117997000D02*
X150960667Y-118081667D01*
X151003000Y-118166333D01*
X151045333Y-118208667D01*
X151130000Y-118251000D01*
X151299333Y-118293333D01*
X151511000Y-118293333D01*
X151680333Y-118251000D01*
X151765000Y-118208667D01*
X151807333Y-118166333D01*
X151849667Y-118081667D01*
X151849667Y-117997000D01*
X151807333Y-117912333D01*
X151765000Y-117870000D01*
X151680333Y-117827667D01*
X151511000Y-117785333D01*
X151299333Y-117785333D01*
X151130000Y-117827667D01*
X151045333Y-117870000D01*
X151003000Y-117912333D01*
X150960667Y-117997000D01*
X151849667Y-118674334D02*
X150960667Y-118674334D01*
X151849667Y-119182334D02*
X151341667Y-118801334D01*
X150960667Y-119182334D02*
X151468667Y-118674334D01*
X151511000Y-119563334D02*
X151511000Y-120240667D01*
X151849667Y-121129667D02*
X151849667Y-120621667D01*
X151849667Y-120875667D02*
X150960667Y-120875667D01*
X151087667Y-120791001D01*
X151172333Y-120706334D01*
X151214667Y-120621667D01*
X151849667Y-121468334D02*
X150960667Y-122145668D01*
X150960667Y-121595334D02*
X151003000Y-121680001D01*
X151087667Y-121722334D01*
X151172333Y-121680001D01*
X151214667Y-121595334D01*
X151172333Y-121510668D01*
X151087667Y-121468334D01*
X151003000Y-121510668D01*
X150960667Y-121595334D01*
X151807333Y-122103334D02*
X151722667Y-122145668D01*
X151638000Y-122103334D01*
X151595667Y-122018668D01*
X151638000Y-121934001D01*
X151722667Y-121891668D01*
X151807333Y-121934001D01*
X151849667Y-122018668D01*
X151807333Y-122103334D01*
X151511000Y-122526668D02*
X151511000Y-123204001D01*
X151849667Y-124093001D02*
X151849667Y-123585001D01*
X151849667Y-123839001D02*
X150960667Y-123839001D01*
X151087667Y-123754335D01*
X151172333Y-123669668D01*
X151214667Y-123585001D01*
X151934333Y-124262335D02*
X151934333Y-124939668D01*
X151341667Y-125278335D02*
X151299333Y-125193668D01*
X151257000Y-125151335D01*
X151172333Y-125109001D01*
X151130000Y-125109001D01*
X151045333Y-125151335D01*
X151003000Y-125193668D01*
X150960667Y-125278335D01*
X150960667Y-125447668D01*
X151003000Y-125532335D01*
X151045333Y-125574668D01*
X151130000Y-125617001D01*
X151172333Y-125617001D01*
X151257000Y-125574668D01*
X151299333Y-125532335D01*
X151341667Y-125447668D01*
X151341667Y-125278335D01*
X151384000Y-125193668D01*
X151426333Y-125151335D01*
X151511000Y-125109001D01*
X151680333Y-125109001D01*
X151765000Y-125151335D01*
X151807333Y-125193668D01*
X151849667Y-125278335D01*
X151849667Y-125447668D01*
X151807333Y-125532335D01*
X151765000Y-125574668D01*
X151680333Y-125617001D01*
X151511000Y-125617001D01*
X151426333Y-125574668D01*
X151384000Y-125532335D01*
X151341667Y-125447668D01*
X150960667Y-125913335D02*
X151849667Y-126125002D01*
X151214667Y-126294335D01*
X151849667Y-126463668D01*
X150960667Y-126675335D01*
X151934333Y-126802335D02*
X151934333Y-127479668D01*
X150960667Y-127860668D02*
X150960667Y-127945335D01*
X151003000Y-128030001D01*
X151045333Y-128072335D01*
X151130000Y-128114668D01*
X151299333Y-128157001D01*
X151511000Y-128157001D01*
X151680333Y-128114668D01*
X151765000Y-128072335D01*
X151807333Y-128030001D01*
X151849667Y-127945335D01*
X151849667Y-127860668D01*
X151807333Y-127776001D01*
X151765000Y-127733668D01*
X151680333Y-127691335D01*
X151511000Y-127649001D01*
X151299333Y-127649001D01*
X151130000Y-127691335D01*
X151045333Y-127733668D01*
X151003000Y-127776001D01*
X150960667Y-127860668D01*
X151341667Y-128665002D02*
X151299333Y-128580335D01*
X151257000Y-128538002D01*
X151172333Y-128495668D01*
X151130000Y-128495668D01*
X151045333Y-128538002D01*
X151003000Y-128580335D01*
X150960667Y-128665002D01*
X150960667Y-128834335D01*
X151003000Y-128919002D01*
X151045333Y-128961335D01*
X151130000Y-129003668D01*
X151172333Y-129003668D01*
X151257000Y-128961335D01*
X151299333Y-128919002D01*
X151341667Y-128834335D01*
X151341667Y-128665002D01*
X151384000Y-128580335D01*
X151426333Y-128538002D01*
X151511000Y-128495668D01*
X151680333Y-128495668D01*
X151765000Y-128538002D01*
X151807333Y-128580335D01*
X151849667Y-128665002D01*
X151849667Y-128834335D01*
X151807333Y-128919002D01*
X151765000Y-128961335D01*
X151680333Y-129003668D01*
X151511000Y-129003668D01*
X151426333Y-128961335D01*
X151384000Y-128919002D01*
X151341667Y-128834335D01*
X150960667Y-129554002D02*
X150960667Y-129638669D01*
X151003000Y-129723335D01*
X151045333Y-129765669D01*
X151130000Y-129808002D01*
X151299333Y-129850335D01*
X151511000Y-129850335D01*
X151680333Y-129808002D01*
X151765000Y-129765669D01*
X151807333Y-129723335D01*
X151849667Y-129638669D01*
X151849667Y-129554002D01*
X151807333Y-129469335D01*
X151765000Y-129427002D01*
X151680333Y-129384669D01*
X151511000Y-129342335D01*
X151299333Y-129342335D01*
X151130000Y-129384669D01*
X151045333Y-129427002D01*
X151003000Y-129469335D01*
X150960667Y-129554002D01*
X150960667Y-130654669D02*
X150960667Y-130231336D01*
X151384000Y-130189002D01*
X151341667Y-130231336D01*
X151299333Y-130316002D01*
X151299333Y-130527669D01*
X151341667Y-130612336D01*
X151384000Y-130654669D01*
X151468667Y-130697002D01*
X151680333Y-130697002D01*
X151765000Y-130654669D01*
X151807333Y-130612336D01*
X151849667Y-130527669D01*
X151849667Y-130316002D01*
X151807333Y-130231336D01*
X151765000Y-130189002D01*
X151934333Y-130866336D02*
X151934333Y-131543669D01*
X158834667Y-131713000D02*
X158411333Y-131416666D01*
X158834667Y-131205000D02*
X157945667Y-131205000D01*
X157945667Y-131543666D01*
X157988000Y-131628333D01*
X158030333Y-131670666D01*
X158115000Y-131713000D01*
X158242000Y-131713000D01*
X158326667Y-131670666D01*
X158369000Y-131628333D01*
X158411333Y-131543666D01*
X158411333Y-131205000D01*
X158834667Y-132559666D02*
X158834667Y-132051666D01*
X158834667Y-132305666D02*
X157945667Y-132305666D01*
X158072667Y-132221000D01*
X158157333Y-132136333D01*
X158199667Y-132051666D01*
X157945667Y-133110000D02*
X157945667Y-133194667D01*
X157988000Y-133279333D01*
X158030333Y-133321667D01*
X158115000Y-133364000D01*
X158284333Y-133406333D01*
X158496000Y-133406333D01*
X158665333Y-133364000D01*
X158750000Y-133321667D01*
X158792333Y-133279333D01*
X158834667Y-133194667D01*
X158834667Y-133110000D01*
X158792333Y-133025333D01*
X158750000Y-132983000D01*
X158665333Y-132940667D01*
X158496000Y-132898333D01*
X158284333Y-132898333D01*
X158115000Y-132940667D01*
X158030333Y-132983000D01*
X157988000Y-133025333D01*
X157945667Y-133110000D01*
X155871333Y-120875665D02*
X155913667Y-121002665D01*
X155913667Y-121214332D01*
X155871333Y-121298999D01*
X155829000Y-121341332D01*
X155744333Y-121383665D01*
X155659667Y-121383665D01*
X155575000Y-121341332D01*
X155532667Y-121298999D01*
X155490333Y-121214332D01*
X155448000Y-121044999D01*
X155405667Y-120960332D01*
X155363333Y-120917999D01*
X155278667Y-120875665D01*
X155194000Y-120875665D01*
X155109333Y-120917999D01*
X155067000Y-120960332D01*
X155024667Y-121044999D01*
X155024667Y-121256665D01*
X155067000Y-121383665D01*
X155913667Y-121764666D02*
X155024667Y-121764666D01*
X155659667Y-122060999D01*
X155024667Y-122357332D01*
X155913667Y-122357332D01*
X155913667Y-122780666D02*
X155024667Y-122780666D01*
X155024667Y-122992332D01*
X155067000Y-123119332D01*
X155151667Y-123203999D01*
X155236333Y-123246332D01*
X155405667Y-123288666D01*
X155532667Y-123288666D01*
X155702000Y-123246332D01*
X155786667Y-123203999D01*
X155871333Y-123119332D01*
X155913667Y-122992332D01*
X155913667Y-122780666D01*
X155575000Y-123669666D02*
X155575000Y-124346999D01*
X155913667Y-125278333D02*
X155490333Y-124981999D01*
X155913667Y-124770333D02*
X155024667Y-124770333D01*
X155024667Y-125108999D01*
X155067000Y-125193666D01*
X155109333Y-125235999D01*
X155194000Y-125278333D01*
X155321000Y-125278333D01*
X155405667Y-125235999D01*
X155448000Y-125193666D01*
X155490333Y-125108999D01*
X155490333Y-124770333D01*
X155448000Y-125659333D02*
X155448000Y-125955666D01*
X155913667Y-126082666D02*
X155913667Y-125659333D01*
X155024667Y-125659333D01*
X155024667Y-126082666D01*
X155871333Y-126421332D02*
X155913667Y-126548332D01*
X155913667Y-126759999D01*
X155871333Y-126844666D01*
X155829000Y-126886999D01*
X155744333Y-126929332D01*
X155659667Y-126929332D01*
X155575000Y-126886999D01*
X155532667Y-126844666D01*
X155490333Y-126759999D01*
X155448000Y-126590666D01*
X155405667Y-126505999D01*
X155363333Y-126463666D01*
X155278667Y-126421332D01*
X155194000Y-126421332D01*
X155109333Y-126463666D01*
X155067000Y-126505999D01*
X155024667Y-126590666D01*
X155024667Y-126802332D01*
X155067000Y-126929332D01*
X155575000Y-127310333D02*
X155575000Y-127987666D01*
X155913667Y-128876666D02*
X155913667Y-128368666D01*
X155913667Y-128622666D02*
X155024667Y-128622666D01*
X155151667Y-128538000D01*
X155236333Y-128453333D01*
X155278667Y-128368666D01*
X155024667Y-129427000D02*
X155024667Y-129511667D01*
X155067000Y-129596333D01*
X155109333Y-129638667D01*
X155194000Y-129681000D01*
X155363333Y-129723333D01*
X155575000Y-129723333D01*
X155744333Y-129681000D01*
X155829000Y-129638667D01*
X155871333Y-129596333D01*
X155913667Y-129511667D01*
X155913667Y-129427000D01*
X155871333Y-129342333D01*
X155829000Y-129300000D01*
X155744333Y-129257667D01*
X155575000Y-129215333D01*
X155363333Y-129215333D01*
X155194000Y-129257667D01*
X155109333Y-129300000D01*
X155067000Y-129342333D01*
X155024667Y-129427000D01*
X155913667Y-130104334D02*
X155024667Y-130104334D01*
X155913667Y-130612334D02*
X155405667Y-130231334D01*
X155024667Y-130612334D02*
X155532667Y-130104334D01*
X155575000Y-130993334D02*
X155575000Y-131670667D01*
X155913667Y-132559667D02*
X155913667Y-132051667D01*
X155913667Y-132305667D02*
X155024667Y-132305667D01*
X155151667Y-132221001D01*
X155236333Y-132136334D01*
X155278667Y-132051667D01*
X155913667Y-132898334D02*
X155024667Y-133575668D01*
X155024667Y-133025334D02*
X155067000Y-133110001D01*
X155151667Y-133152334D01*
X155236333Y-133110001D01*
X155278667Y-133025334D01*
X155236333Y-132940668D01*
X155151667Y-132898334D01*
X155067000Y-132940668D01*
X155024667Y-133025334D01*
X155871333Y-133533334D02*
X155786667Y-133575668D01*
X155702000Y-133533334D01*
X155659667Y-133448668D01*
X155702000Y-133364001D01*
X155786667Y-133321668D01*
X155871333Y-133364001D01*
X155913667Y-133448668D01*
X155871333Y-133533334D01*
X155575000Y-133956668D02*
X155575000Y-134634001D01*
X155913667Y-135523001D02*
X155913667Y-135015001D01*
X155913667Y-135269001D02*
X155024667Y-135269001D01*
X155151667Y-135184335D01*
X155236333Y-135099668D01*
X155278667Y-135015001D01*
X155998333Y-135692335D02*
X155998333Y-136369668D01*
X155405667Y-136708335D02*
X155363333Y-136623668D01*
X155321000Y-136581335D01*
X155236333Y-136539001D01*
X155194000Y-136539001D01*
X155109333Y-136581335D01*
X155067000Y-136623668D01*
X155024667Y-136708335D01*
X155024667Y-136877668D01*
X155067000Y-136962335D01*
X155109333Y-137004668D01*
X155194000Y-137047001D01*
X155236333Y-137047001D01*
X155321000Y-137004668D01*
X155363333Y-136962335D01*
X155405667Y-136877668D01*
X155405667Y-136708335D01*
X155448000Y-136623668D01*
X155490333Y-136581335D01*
X155575000Y-136539001D01*
X155744333Y-136539001D01*
X155829000Y-136581335D01*
X155871333Y-136623668D01*
X155913667Y-136708335D01*
X155913667Y-136877668D01*
X155871333Y-136962335D01*
X155829000Y-137004668D01*
X155744333Y-137047001D01*
X155575000Y-137047001D01*
X155490333Y-137004668D01*
X155448000Y-136962335D01*
X155405667Y-136877668D01*
X155024667Y-137343335D02*
X155913667Y-137555002D01*
X155278667Y-137724335D01*
X155913667Y-137893668D01*
X155024667Y-138105335D01*
X155998333Y-138232335D02*
X155998333Y-138909668D01*
X155024667Y-139290668D02*
X155024667Y-139375335D01*
X155067000Y-139460001D01*
X155109333Y-139502335D01*
X155194000Y-139544668D01*
X155363333Y-139587001D01*
X155575000Y-139587001D01*
X155744333Y-139544668D01*
X155829000Y-139502335D01*
X155871333Y-139460001D01*
X155913667Y-139375335D01*
X155913667Y-139290668D01*
X155871333Y-139206001D01*
X155829000Y-139163668D01*
X155744333Y-139121335D01*
X155575000Y-139079001D01*
X155363333Y-139079001D01*
X155194000Y-139121335D01*
X155109333Y-139163668D01*
X155067000Y-139206001D01*
X155024667Y-139290668D01*
X155405667Y-140095002D02*
X155363333Y-140010335D01*
X155321000Y-139968002D01*
X155236333Y-139925668D01*
X155194000Y-139925668D01*
X155109333Y-139968002D01*
X155067000Y-140010335D01*
X155024667Y-140095002D01*
X155024667Y-140264335D01*
X155067000Y-140349002D01*
X155109333Y-140391335D01*
X155194000Y-140433668D01*
X155236333Y-140433668D01*
X155321000Y-140391335D01*
X155363333Y-140349002D01*
X155405667Y-140264335D01*
X155405667Y-140095002D01*
X155448000Y-140010335D01*
X155490333Y-139968002D01*
X155575000Y-139925668D01*
X155744333Y-139925668D01*
X155829000Y-139968002D01*
X155871333Y-140010335D01*
X155913667Y-140095002D01*
X155913667Y-140264335D01*
X155871333Y-140349002D01*
X155829000Y-140391335D01*
X155744333Y-140433668D01*
X155575000Y-140433668D01*
X155490333Y-140391335D01*
X155448000Y-140349002D01*
X155405667Y-140264335D01*
X155024667Y-140984002D02*
X155024667Y-141068669D01*
X155067000Y-141153335D01*
X155109333Y-141195669D01*
X155194000Y-141238002D01*
X155363333Y-141280335D01*
X155575000Y-141280335D01*
X155744333Y-141238002D01*
X155829000Y-141195669D01*
X155871333Y-141153335D01*
X155913667Y-141068669D01*
X155913667Y-140984002D01*
X155871333Y-140899335D01*
X155829000Y-140857002D01*
X155744333Y-140814669D01*
X155575000Y-140772335D01*
X155363333Y-140772335D01*
X155194000Y-140814669D01*
X155109333Y-140857002D01*
X155067000Y-140899335D01*
X155024667Y-140984002D01*
X155024667Y-142084669D02*
X155024667Y-141661336D01*
X155448000Y-141619002D01*
X155405667Y-141661336D01*
X155363333Y-141746002D01*
X155363333Y-141957669D01*
X155405667Y-142042336D01*
X155448000Y-142084669D01*
X155532667Y-142127002D01*
X155744333Y-142127002D01*
X155829000Y-142084669D01*
X155871333Y-142042336D01*
X155913667Y-141957669D01*
X155913667Y-141746002D01*
X155871333Y-141661336D01*
X155829000Y-141619002D01*
X155998333Y-142296336D02*
X155998333Y-142973669D01*
X151638000Y-136200334D02*
X151680333Y-136158000D01*
X151722667Y-136031000D01*
X151722667Y-135946334D01*
X151680333Y-135819334D01*
X151595667Y-135734667D01*
X151511000Y-135692334D01*
X151341667Y-135650000D01*
X151214667Y-135650000D01*
X151045333Y-135692334D01*
X150960667Y-135734667D01*
X150876000Y-135819334D01*
X150833667Y-135946334D01*
X150833667Y-136031000D01*
X150876000Y-136158000D01*
X150918333Y-136200334D01*
X150918333Y-136539000D02*
X150876000Y-136581334D01*
X150833667Y-136666000D01*
X150833667Y-136877667D01*
X150876000Y-136962334D01*
X150918333Y-137004667D01*
X151003000Y-137047000D01*
X151087667Y-137047000D01*
X151214667Y-137004667D01*
X151722667Y-136496667D01*
X151722667Y-137047000D01*
D15*
X154150786Y-127579453D02*
X154181024Y-127549215D01*
X154211262Y-127458500D01*
X154211262Y-127398024D01*
X154181024Y-127307310D01*
X154120548Y-127246834D01*
X154060071Y-127216595D01*
X153939119Y-127186357D01*
X153848405Y-127186357D01*
X153727452Y-127216595D01*
X153666976Y-127246834D01*
X153606500Y-127307310D01*
X153576262Y-127398024D01*
X153576262Y-127458500D01*
X153606500Y-127549215D01*
X153636738Y-127579453D01*
X153878643Y-127851595D02*
X153878643Y-128063262D01*
X154211262Y-128153976D02*
X154211262Y-127851595D01*
X153576262Y-127851595D01*
X153576262Y-128153976D01*
X154211262Y-128788977D02*
X153908881Y-128577310D01*
X154211262Y-128426119D02*
X153576262Y-128426119D01*
X153576262Y-128668024D01*
X153606500Y-128728500D01*
X153636738Y-128758739D01*
X153697214Y-128788977D01*
X153787929Y-128788977D01*
X153848405Y-128758739D01*
X153878643Y-128728500D01*
X153908881Y-128668024D01*
X153908881Y-128426119D01*
X154029833Y-129030881D02*
X154029833Y-129333262D01*
X154211262Y-128970405D02*
X153576262Y-129182072D01*
X154211262Y-129393739D01*
X154211262Y-129605405D02*
X153576262Y-129605405D01*
X154029833Y-129817072D01*
X153576262Y-130028739D01*
X154211262Y-130028739D01*
X154211262Y-130331119D02*
X153576262Y-130331119D01*
X154150786Y-130996358D02*
X154181024Y-130966120D01*
X154211262Y-130875405D01*
X154211262Y-130814929D01*
X154181024Y-130724215D01*
X154120548Y-130663739D01*
X154060071Y-130633500D01*
X153939119Y-130603262D01*
X153848405Y-130603262D01*
X153727452Y-130633500D01*
X153666976Y-130663739D01*
X153606500Y-130724215D01*
X153576262Y-130814929D01*
X153576262Y-130875405D01*
X153606500Y-130966120D01*
X153636738Y-130996358D01*
X153969357Y-131268500D02*
X153969357Y-131752310D01*
X154211262Y-132387310D02*
X154211262Y-132024452D01*
X154211262Y-132205881D02*
X153576262Y-132205881D01*
X153666976Y-132145405D01*
X153727452Y-132084929D01*
X153757690Y-132024452D01*
X153576262Y-132659452D02*
X154090310Y-132659452D01*
X154150786Y-132689691D01*
X154181024Y-132719929D01*
X154211262Y-132780405D01*
X154211262Y-132901357D01*
X154181024Y-132961833D01*
X154150786Y-132992072D01*
X154090310Y-133022310D01*
X153576262Y-133022310D01*
X153878643Y-133536357D02*
X153878643Y-133324690D01*
X154211262Y-133324690D02*
X153576262Y-133324690D01*
X153576262Y-133627071D01*
X153969357Y-133868976D02*
X153969357Y-134352786D01*
X153636738Y-134624928D02*
X153606500Y-134655166D01*
X153576262Y-134715643D01*
X153576262Y-134866833D01*
X153606500Y-134927309D01*
X153636738Y-134957547D01*
X153697214Y-134987786D01*
X153757690Y-134987786D01*
X153848405Y-134957547D01*
X154211262Y-134594690D01*
X154211262Y-134987786D01*
X153576262Y-135562309D02*
X153576262Y-135259928D01*
X153878643Y-135229690D01*
X153848405Y-135259928D01*
X153818167Y-135320405D01*
X153818167Y-135471595D01*
X153848405Y-135532071D01*
X153878643Y-135562309D01*
X153939119Y-135592548D01*
X154090310Y-135592548D01*
X154150786Y-135562309D01*
X154181024Y-135532071D01*
X154211262Y-135471595D01*
X154211262Y-135320405D01*
X154181024Y-135259928D01*
X154150786Y-135229690D01*
X153576262Y-135773976D02*
X154211262Y-135985643D01*
X153576262Y-136197310D01*
X153969357Y-136408976D02*
X153969357Y-136892786D01*
X154211262Y-137527786D02*
X154211262Y-137164928D01*
X154211262Y-137346357D02*
X153576262Y-137346357D01*
X153666976Y-137285881D01*
X153727452Y-137225405D01*
X153757690Y-137164928D01*
X153576262Y-137920881D02*
X153576262Y-137981357D01*
X153606500Y-138041833D01*
X153636738Y-138072071D01*
X153697214Y-138102309D01*
X153818167Y-138132548D01*
X153969357Y-138132548D01*
X154090310Y-138102309D01*
X154150786Y-138072071D01*
X154181024Y-138041833D01*
X154211262Y-137981357D01*
X154211262Y-137920881D01*
X154181024Y-137860405D01*
X154150786Y-137830167D01*
X154090310Y-137799928D01*
X153969357Y-137769690D01*
X153818167Y-137769690D01*
X153697214Y-137799928D01*
X153636738Y-137830167D01*
X153606500Y-137860405D01*
X153576262Y-137920881D01*
X154211262Y-138374452D02*
X153576262Y-138858262D01*
X153576262Y-138465167D02*
X153606500Y-138525643D01*
X153666976Y-138555881D01*
X153727452Y-138525643D01*
X153757690Y-138465167D01*
X153727452Y-138404690D01*
X153666976Y-138374452D01*
X153606500Y-138404690D01*
X153576262Y-138465167D01*
X154181024Y-138828024D02*
X154120548Y-138858262D01*
X154060071Y-138828024D01*
X154029833Y-138767548D01*
X154060071Y-138707071D01*
X154120548Y-138676833D01*
X154181024Y-138707071D01*
X154211262Y-138767548D01*
X154181024Y-138828024D01*
X153969357Y-139130404D02*
X153969357Y-139614214D01*
X153576262Y-139856118D02*
X154211262Y-140279452D01*
X153576262Y-140279452D02*
X154211262Y-139856118D01*
X153576262Y-140460880D02*
X153576262Y-140884214D01*
X154211262Y-140612071D01*
X154211262Y-141488976D02*
X153908881Y-141277309D01*
X154211262Y-141126118D02*
X153576262Y-141126118D01*
X153576262Y-141368023D01*
X153606500Y-141428499D01*
X153636738Y-141458738D01*
X153697214Y-141488976D01*
X153787929Y-141488976D01*
X153848405Y-141458738D01*
X153878643Y-141428499D01*
X153908881Y-141368023D01*
X153908881Y-141126118D01*
X154271738Y-141609928D02*
X154271738Y-142093738D01*
X153576262Y-142365881D02*
X153576262Y-142426357D01*
X153606500Y-142486833D01*
X153636738Y-142517071D01*
X153697214Y-142547309D01*
X153818167Y-142577548D01*
X153969357Y-142577548D01*
X154090310Y-142547309D01*
X154150786Y-142517071D01*
X154181024Y-142486833D01*
X154211262Y-142426357D01*
X154211262Y-142365881D01*
X154181024Y-142305405D01*
X154150786Y-142275167D01*
X154090310Y-142244928D01*
X153969357Y-142214690D01*
X153818167Y-142214690D01*
X153697214Y-142244928D01*
X153636738Y-142275167D01*
X153606500Y-142305405D01*
X153576262Y-142365881D01*
X153576262Y-143121833D02*
X153576262Y-143000881D01*
X153606500Y-142940405D01*
X153636738Y-142910167D01*
X153727452Y-142849690D01*
X153848405Y-142819452D01*
X154090310Y-142819452D01*
X154150786Y-142849690D01*
X154181024Y-142879929D01*
X154211262Y-142940405D01*
X154211262Y-143061357D01*
X154181024Y-143121833D01*
X154150786Y-143152071D01*
X154090310Y-143182310D01*
X153939119Y-143182310D01*
X153878643Y-143152071D01*
X153848405Y-143121833D01*
X153818167Y-143061357D01*
X153818167Y-142940405D01*
X153848405Y-142879929D01*
X153878643Y-142849690D01*
X153939119Y-142819452D01*
X153576262Y-143575405D02*
X153576262Y-143635881D01*
X153606500Y-143696357D01*
X153636738Y-143726595D01*
X153697214Y-143756833D01*
X153818167Y-143787072D01*
X153969357Y-143787072D01*
X154090310Y-143756833D01*
X154150786Y-143726595D01*
X154181024Y-143696357D01*
X154211262Y-143635881D01*
X154211262Y-143575405D01*
X154181024Y-143514929D01*
X154150786Y-143484691D01*
X154090310Y-143454452D01*
X153969357Y-143424214D01*
X153818167Y-143424214D01*
X153697214Y-143454452D01*
X153636738Y-143484691D01*
X153606500Y-143514929D01*
X153576262Y-143575405D01*
X153576262Y-143998738D02*
X153576262Y-144391834D01*
X153818167Y-144180167D01*
X153818167Y-144270881D01*
X153848405Y-144331357D01*
X153878643Y-144361595D01*
X153939119Y-144391834D01*
X154090310Y-144391834D01*
X154150786Y-144361595D01*
X154181024Y-144331357D01*
X154211262Y-144270881D01*
X154211262Y-144089453D01*
X154181024Y-144028976D01*
X154150786Y-143998738D01*
X154271738Y-144512786D02*
X154271738Y-144996596D01*
D13*
X146346333Y-131607167D02*
X146769667Y-131607167D01*
X145880667Y-131310834D02*
X146346333Y-131607167D01*
X145880667Y-131903500D01*
X146769667Y-132665500D02*
X146769667Y-132157500D01*
X146769667Y-132411500D02*
X145880667Y-132411500D01*
X146007667Y-132326834D01*
X146092333Y-132242167D01*
X146134667Y-132157500D01*
X142155333Y-112176164D02*
X142197667Y-112303164D01*
X142197667Y-112514831D01*
X142155333Y-112599498D01*
X142113000Y-112641831D01*
X142028333Y-112684164D01*
X141943667Y-112684164D01*
X141859000Y-112641831D01*
X141816667Y-112599498D01*
X141774333Y-112514831D01*
X141732000Y-112345498D01*
X141689667Y-112260831D01*
X141647333Y-112218498D01*
X141562667Y-112176164D01*
X141478000Y-112176164D01*
X141393333Y-112218498D01*
X141351000Y-112260831D01*
X141308667Y-112345498D01*
X141308667Y-112557164D01*
X141351000Y-112684164D01*
X142197667Y-113065165D02*
X141308667Y-113065165D01*
X141943667Y-113361498D01*
X141308667Y-113657831D01*
X142197667Y-113657831D01*
X142197667Y-114081165D02*
X141308667Y-114081165D01*
X141308667Y-114292831D01*
X141351000Y-114419831D01*
X141435667Y-114504498D01*
X141520333Y-114546831D01*
X141689667Y-114589165D01*
X141816667Y-114589165D01*
X141986000Y-114546831D01*
X142070667Y-114504498D01*
X142155333Y-114419831D01*
X142197667Y-114292831D01*
X142197667Y-114081165D01*
X141859000Y-114970165D02*
X141859000Y-115647498D01*
X142113000Y-116578832D02*
X142155333Y-116536498D01*
X142197667Y-116409498D01*
X142197667Y-116324832D01*
X142155333Y-116197832D01*
X142070667Y-116113165D01*
X141986000Y-116070832D01*
X141816667Y-116028498D01*
X141689667Y-116028498D01*
X141520333Y-116070832D01*
X141435667Y-116113165D01*
X141351000Y-116197832D01*
X141308667Y-116324832D01*
X141308667Y-116409498D01*
X141351000Y-116536498D01*
X141393333Y-116578832D01*
X142197667Y-117467832D02*
X141774333Y-117171498D01*
X142197667Y-116959832D02*
X141308667Y-116959832D01*
X141308667Y-117298498D01*
X141351000Y-117383165D01*
X141393333Y-117425498D01*
X141478000Y-117467832D01*
X141605000Y-117467832D01*
X141689667Y-117425498D01*
X141732000Y-117383165D01*
X141774333Y-117298498D01*
X141774333Y-116959832D01*
X141774333Y-118018165D02*
X142197667Y-118018165D01*
X141308667Y-117721832D02*
X141774333Y-118018165D01*
X141308667Y-118314498D01*
X142155333Y-118568498D02*
X142197667Y-118695498D01*
X142197667Y-118907165D01*
X142155333Y-118991832D01*
X142113000Y-119034165D01*
X142028333Y-119076498D01*
X141943667Y-119076498D01*
X141859000Y-119034165D01*
X141816667Y-118991832D01*
X141774333Y-118907165D01*
X141732000Y-118737832D01*
X141689667Y-118653165D01*
X141647333Y-118610832D01*
X141562667Y-118568498D01*
X141478000Y-118568498D01*
X141393333Y-118610832D01*
X141351000Y-118653165D01*
X141308667Y-118737832D01*
X141308667Y-118949498D01*
X141351000Y-119076498D01*
X141308667Y-119330499D02*
X141308667Y-119838499D01*
X142197667Y-119584499D02*
X141308667Y-119584499D01*
X141943667Y-120092498D02*
X141943667Y-120515832D01*
X142197667Y-120007832D02*
X141308667Y-120304165D01*
X142197667Y-120600498D01*
X142197667Y-121320165D02*
X142197667Y-120896832D01*
X141308667Y-120896832D01*
X141859000Y-121616499D02*
X141859000Y-122293832D01*
X142197667Y-123182832D02*
X142197667Y-122674832D01*
X142197667Y-122928832D02*
X141308667Y-122928832D01*
X141435667Y-122844166D01*
X141520333Y-122759499D01*
X141562667Y-122674832D01*
X141308667Y-123944833D02*
X141308667Y-123775499D01*
X141351000Y-123690833D01*
X141393333Y-123648499D01*
X141520333Y-123563833D01*
X141689667Y-123521499D01*
X142028333Y-123521499D01*
X142113000Y-123563833D01*
X142155333Y-123606166D01*
X142197667Y-123690833D01*
X142197667Y-123860166D01*
X142155333Y-123944833D01*
X142113000Y-123987166D01*
X142028333Y-124029499D01*
X141816667Y-124029499D01*
X141732000Y-123987166D01*
X141689667Y-123944833D01*
X141647333Y-123860166D01*
X141647333Y-123690833D01*
X141689667Y-123606166D01*
X141732000Y-123563833D01*
X141816667Y-123521499D01*
X142197667Y-124410500D02*
X141308667Y-124410500D01*
X141943667Y-124706833D01*
X141308667Y-125003166D01*
X142197667Y-125003166D01*
X142197667Y-125426500D02*
X141308667Y-125426500D01*
X141732000Y-125426500D02*
X141732000Y-125934500D01*
X142197667Y-125934500D02*
X141308667Y-125934500D01*
X141308667Y-126273166D02*
X141308667Y-126865833D01*
X142197667Y-126273166D01*
X142197667Y-126865833D01*
X141859000Y-127204500D02*
X141859000Y-127881833D01*
X141689667Y-128432167D02*
X141647333Y-128347500D01*
X141605000Y-128305167D01*
X141520333Y-128262833D01*
X141478000Y-128262833D01*
X141393333Y-128305167D01*
X141351000Y-128347500D01*
X141308667Y-128432167D01*
X141308667Y-128601500D01*
X141351000Y-128686167D01*
X141393333Y-128728500D01*
X141478000Y-128770833D01*
X141520333Y-128770833D01*
X141605000Y-128728500D01*
X141647333Y-128686167D01*
X141689667Y-128601500D01*
X141689667Y-128432167D01*
X141732000Y-128347500D01*
X141774333Y-128305167D01*
X141859000Y-128262833D01*
X142028333Y-128262833D01*
X142113000Y-128305167D01*
X142155333Y-128347500D01*
X142197667Y-128432167D01*
X142197667Y-128601500D01*
X142155333Y-128686167D01*
X142113000Y-128728500D01*
X142028333Y-128770833D01*
X141859000Y-128770833D01*
X141774333Y-128728500D01*
X141732000Y-128686167D01*
X141689667Y-128601500D01*
X142197667Y-129151834D02*
X141308667Y-129151834D01*
X141308667Y-129490500D01*
X141351000Y-129575167D01*
X141393333Y-129617500D01*
X141478000Y-129659834D01*
X141605000Y-129659834D01*
X141689667Y-129617500D01*
X141732000Y-129575167D01*
X141774333Y-129490500D01*
X141774333Y-129151834D01*
X141732000Y-130337167D02*
X141732000Y-130040834D01*
X142197667Y-130040834D02*
X141308667Y-130040834D01*
X141308667Y-130464167D01*
X141859000Y-130802834D02*
X141859000Y-131480167D01*
X141393333Y-131861167D02*
X141351000Y-131903501D01*
X141308667Y-131988167D01*
X141308667Y-132199834D01*
X141351000Y-132284501D01*
X141393333Y-132326834D01*
X141478000Y-132369167D01*
X141562667Y-132369167D01*
X141689667Y-132326834D01*
X142197667Y-131818834D01*
X142197667Y-132369167D01*
X141308667Y-132919501D02*
X141308667Y-133004168D01*
X141351000Y-133088834D01*
X141393333Y-133131168D01*
X141478000Y-133173501D01*
X141647333Y-133215834D01*
X141859000Y-133215834D01*
X142028333Y-133173501D01*
X142113000Y-133131168D01*
X142155333Y-133088834D01*
X142197667Y-133004168D01*
X142197667Y-132919501D01*
X142155333Y-132834834D01*
X142113000Y-132792501D01*
X142028333Y-132750168D01*
X141859000Y-132707834D01*
X141647333Y-132707834D01*
X141478000Y-132750168D01*
X141393333Y-132792501D01*
X141351000Y-132834834D01*
X141308667Y-132919501D01*
X142197667Y-133596835D02*
X141308667Y-133596835D01*
X141308667Y-133935501D01*
X141351000Y-134020168D01*
X141393333Y-134062501D01*
X141478000Y-134104835D01*
X141605000Y-134104835D01*
X141689667Y-134062501D01*
X141732000Y-134020168D01*
X141774333Y-133935501D01*
X141774333Y-133596835D01*
X142197667Y-134485835D02*
X141308667Y-134485835D01*
X141308667Y-134824501D01*
X141351000Y-134909168D01*
X141393333Y-134951501D01*
X141478000Y-134993835D01*
X141605000Y-134993835D01*
X141689667Y-134951501D01*
X141732000Y-134909168D01*
X141774333Y-134824501D01*
X141774333Y-134485835D01*
X142197667Y-135374835D02*
X141308667Y-135374835D01*
X141943667Y-135671168D01*
X141308667Y-135967501D01*
X142197667Y-135967501D01*
X141859000Y-136390835D02*
X141859000Y-137068168D01*
X141605000Y-137872502D02*
X142197667Y-137872502D01*
X141266333Y-137660835D02*
X141901333Y-137449168D01*
X141901333Y-137999502D01*
X141308667Y-138507502D02*
X141308667Y-138592169D01*
X141351000Y-138676835D01*
X141393333Y-138719169D01*
X141478000Y-138761502D01*
X141647333Y-138803835D01*
X141859000Y-138803835D01*
X142028333Y-138761502D01*
X142113000Y-138719169D01*
X142155333Y-138676835D01*
X142197667Y-138592169D01*
X142197667Y-138507502D01*
X142155333Y-138422835D01*
X142113000Y-138380502D01*
X142028333Y-138338169D01*
X141859000Y-138295835D01*
X141647333Y-138295835D01*
X141478000Y-138338169D01*
X141393333Y-138380502D01*
X141351000Y-138422835D01*
X141308667Y-138507502D01*
X142197667Y-139692836D02*
X141774333Y-139396502D01*
X142197667Y-139184836D02*
X141308667Y-139184836D01*
X141308667Y-139523502D01*
X141351000Y-139608169D01*
X141393333Y-139650502D01*
X141478000Y-139692836D01*
X141605000Y-139692836D01*
X141689667Y-139650502D01*
X141732000Y-139608169D01*
X141774333Y-139523502D01*
X141774333Y-139184836D01*
X142282333Y-139862169D02*
X142282333Y-140539502D01*
X141393333Y-140708835D02*
X141351000Y-140751169D01*
X141308667Y-140835835D01*
X141308667Y-141047502D01*
X141351000Y-141132169D01*
X141393333Y-141174502D01*
X141478000Y-141216835D01*
X141562667Y-141216835D01*
X141689667Y-141174502D01*
X142197667Y-140666502D01*
X142197667Y-141216835D01*
X142197667Y-141597836D02*
X141308667Y-141597836D01*
X141308667Y-141936502D01*
X141351000Y-142021169D01*
X141393333Y-142063502D01*
X141478000Y-142105836D01*
X141605000Y-142105836D01*
X141689667Y-142063502D01*
X141732000Y-142021169D01*
X141774333Y-141936502D01*
X141774333Y-141597836D01*
X141859000Y-142486836D02*
X141859000Y-143164169D01*
X141308667Y-144010836D02*
X141308667Y-143587503D01*
X141732000Y-143545169D01*
X141689667Y-143587503D01*
X141647333Y-143672169D01*
X141647333Y-143883836D01*
X141689667Y-143968503D01*
X141732000Y-144010836D01*
X141816667Y-144053169D01*
X142028333Y-144053169D01*
X142113000Y-144010836D01*
X142155333Y-143968503D01*
X142197667Y-143883836D01*
X142197667Y-143672169D01*
X142155333Y-143587503D01*
X142113000Y-143545169D01*
X142113000Y-144434170D02*
X142155333Y-144476503D01*
X142197667Y-144434170D01*
X142155333Y-144391836D01*
X142113000Y-144434170D01*
X142197667Y-144434170D01*
X141308667Y-145026836D02*
X141308667Y-145111503D01*
X141351000Y-145196169D01*
X141393333Y-145238503D01*
X141478000Y-145280836D01*
X141647333Y-145323169D01*
X141859000Y-145323169D01*
X142028333Y-145280836D01*
X142113000Y-145238503D01*
X142155333Y-145196169D01*
X142197667Y-145111503D01*
X142197667Y-145026836D01*
X142155333Y-144942169D01*
X142113000Y-144899836D01*
X142028333Y-144857503D01*
X141859000Y-144815169D01*
X141647333Y-144815169D01*
X141478000Y-144857503D01*
X141393333Y-144899836D01*
X141351000Y-144942169D01*
X141308667Y-145026836D01*
X141308667Y-145619503D02*
X142197667Y-146212170D01*
X141308667Y-146212170D02*
X142197667Y-145619503D01*
X141308667Y-146466170D02*
X141308667Y-147016503D01*
X141647333Y-146720170D01*
X141647333Y-146847170D01*
X141689667Y-146931837D01*
X141732000Y-146974170D01*
X141816667Y-147016503D01*
X142028333Y-147016503D01*
X142113000Y-146974170D01*
X142155333Y-146931837D01*
X142197667Y-146847170D01*
X142197667Y-146593170D01*
X142155333Y-146508503D01*
X142113000Y-146466170D01*
X142113000Y-147397504D02*
X142155333Y-147439837D01*
X142197667Y-147397504D01*
X142155333Y-147355170D01*
X142113000Y-147397504D01*
X142197667Y-147397504D01*
X141393333Y-147778503D02*
X141351000Y-147820837D01*
X141308667Y-147905503D01*
X141308667Y-148117170D01*
X141351000Y-148201837D01*
X141393333Y-148244170D01*
X141478000Y-148286503D01*
X141562667Y-148286503D01*
X141689667Y-148244170D01*
X142197667Y-147736170D01*
X142197667Y-148286503D01*
X142197667Y-148667504D02*
X141308667Y-148667504D01*
X141943667Y-148963837D01*
X141308667Y-149260170D01*
X142197667Y-149260170D01*
X142197667Y-149683504D02*
X141308667Y-149683504D01*
X141943667Y-149979837D01*
X141308667Y-150276170D01*
X142197667Y-150276170D01*
X142282333Y-150487837D02*
X142282333Y-151165170D01*
X140546666Y-131459000D02*
X140589000Y-131501333D01*
X140716000Y-131543667D01*
X140800666Y-131543667D01*
X140927666Y-131501333D01*
X141012333Y-131416667D01*
X141054666Y-131332000D01*
X141097000Y-131162667D01*
X141097000Y-131035667D01*
X141054666Y-130866333D01*
X141012333Y-130781667D01*
X140927666Y-130697000D01*
X140800666Y-130654667D01*
X140716000Y-130654667D01*
X140589000Y-130697000D01*
X140546666Y-130739333D01*
X139784666Y-130951000D02*
X139784666Y-131543667D01*
X139996333Y-130612333D02*
X140208000Y-131247333D01*
X139657666Y-131247333D01*
D15*
X148577904Y-128764786D02*
X148608142Y-128795024D01*
X148698857Y-128825262D01*
X148759333Y-128825262D01*
X148850047Y-128795024D01*
X148910523Y-128734548D01*
X148940762Y-128674071D01*
X148971000Y-128553119D01*
X148971000Y-128462405D01*
X148940762Y-128341452D01*
X148910523Y-128280976D01*
X148850047Y-128220500D01*
X148759333Y-128190262D01*
X148698857Y-128190262D01*
X148608142Y-128220500D01*
X148577904Y-128250738D01*
X148305762Y-128492643D02*
X148094095Y-128492643D01*
X148003381Y-128825262D02*
X148305762Y-128825262D01*
X148305762Y-128190262D01*
X148003381Y-128190262D01*
X147368380Y-128825262D02*
X147580047Y-128522881D01*
X147731238Y-128825262D02*
X147731238Y-128190262D01*
X147489333Y-128190262D01*
X147428857Y-128220500D01*
X147398618Y-128250738D01*
X147368380Y-128311214D01*
X147368380Y-128401929D01*
X147398618Y-128462405D01*
X147428857Y-128492643D01*
X147489333Y-128522881D01*
X147731238Y-128522881D01*
X147126476Y-128643833D02*
X146824095Y-128643833D01*
X147186952Y-128825262D02*
X146975285Y-128190262D01*
X146763618Y-128825262D01*
X146551952Y-128825262D02*
X146551952Y-128190262D01*
X146340285Y-128643833D01*
X146128618Y-128190262D01*
X146128618Y-128825262D01*
X145826238Y-128825262D02*
X145826238Y-128190262D01*
X145160999Y-128764786D02*
X145191237Y-128795024D01*
X145281952Y-128825262D01*
X145342428Y-128825262D01*
X145433142Y-128795024D01*
X145493618Y-128734548D01*
X145523857Y-128674071D01*
X145554095Y-128553119D01*
X145554095Y-128462405D01*
X145523857Y-128341452D01*
X145493618Y-128280976D01*
X145433142Y-128220500D01*
X145342428Y-128190262D01*
X145281952Y-128190262D01*
X145191237Y-128220500D01*
X145160999Y-128250738D01*
X144888857Y-128583357D02*
X144405047Y-128583357D01*
X143770047Y-128825262D02*
X144132905Y-128825262D01*
X143951476Y-128825262D02*
X143951476Y-128190262D01*
X144011952Y-128280976D01*
X144072428Y-128341452D01*
X144132905Y-128371690D01*
X143376952Y-128190262D02*
X143316476Y-128190262D01*
X143256000Y-128220500D01*
X143225762Y-128250738D01*
X143195524Y-128311214D01*
X143165285Y-128432167D01*
X143165285Y-128583357D01*
X143195524Y-128704310D01*
X143225762Y-128764786D01*
X143256000Y-128795024D01*
X143316476Y-128825262D01*
X143376952Y-128825262D01*
X143437428Y-128795024D01*
X143467666Y-128764786D01*
X143497905Y-128704310D01*
X143528143Y-128583357D01*
X143528143Y-128432167D01*
X143497905Y-128311214D01*
X143467666Y-128250738D01*
X143437428Y-128220500D01*
X143376952Y-128190262D01*
X142893143Y-128825262D02*
X142893143Y-128190262D01*
X142651238Y-128190262D01*
X142590762Y-128220500D01*
X142560523Y-128250738D01*
X142530285Y-128311214D01*
X142530285Y-128401929D01*
X142560523Y-128462405D01*
X142590762Y-128492643D01*
X142651238Y-128522881D01*
X142893143Y-128522881D01*
X142046476Y-128492643D02*
X142258143Y-128492643D01*
X142258143Y-128825262D02*
X142258143Y-128190262D01*
X141955762Y-128190262D01*
X141713857Y-128583357D02*
X141230047Y-128583357D01*
X140625286Y-128190262D02*
X140927667Y-128190262D01*
X140957905Y-128492643D01*
X140927667Y-128462405D01*
X140867190Y-128432167D01*
X140716000Y-128432167D01*
X140655524Y-128462405D01*
X140625286Y-128492643D01*
X140595047Y-128553119D01*
X140595047Y-128704310D01*
X140625286Y-128764786D01*
X140655524Y-128795024D01*
X140716000Y-128825262D01*
X140867190Y-128825262D01*
X140927667Y-128795024D01*
X140957905Y-128764786D01*
X140201952Y-128190262D02*
X140141476Y-128190262D01*
X140081000Y-128220500D01*
X140050762Y-128250738D01*
X140020524Y-128311214D01*
X139990285Y-128432167D01*
X139990285Y-128583357D01*
X140020524Y-128704310D01*
X140050762Y-128764786D01*
X140081000Y-128795024D01*
X140141476Y-128825262D01*
X140201952Y-128825262D01*
X140262428Y-128795024D01*
X140292666Y-128764786D01*
X140322905Y-128704310D01*
X140353143Y-128583357D01*
X140353143Y-128432167D01*
X140322905Y-128311214D01*
X140292666Y-128250738D01*
X140262428Y-128220500D01*
X140201952Y-128190262D01*
X139808857Y-128190262D02*
X139597190Y-128825262D01*
X139385523Y-128190262D01*
X139173857Y-128583357D02*
X138690047Y-128583357D01*
X138085286Y-128190262D02*
X138387667Y-128190262D01*
X138417905Y-128492643D01*
X138387667Y-128462405D01*
X138327190Y-128432167D01*
X138176000Y-128432167D01*
X138115524Y-128462405D01*
X138085286Y-128492643D01*
X138055047Y-128553119D01*
X138055047Y-128704310D01*
X138085286Y-128764786D01*
X138115524Y-128795024D01*
X138176000Y-128825262D01*
X138327190Y-128825262D01*
X138387667Y-128795024D01*
X138417905Y-128764786D01*
X137813143Y-128825262D02*
X137329333Y-128190262D01*
X137722428Y-128190262D02*
X137661952Y-128220500D01*
X137631714Y-128280976D01*
X137661952Y-128341452D01*
X137722428Y-128371690D01*
X137782905Y-128341452D01*
X137813143Y-128280976D01*
X137782905Y-128220500D01*
X137722428Y-128190262D01*
X137359571Y-128795024D02*
X137329333Y-128734548D01*
X137359571Y-128674071D01*
X137420047Y-128643833D01*
X137480524Y-128674071D01*
X137510762Y-128734548D01*
X137480524Y-128795024D01*
X137420047Y-128825262D01*
X137359571Y-128795024D01*
X137057191Y-128583357D02*
X136573381Y-128583357D01*
X136271001Y-128825262D02*
X136271001Y-128190262D01*
X135908143Y-128825262D01*
X135908143Y-128190262D01*
X135605763Y-128825262D02*
X135605763Y-128190262D01*
X135363858Y-128190262D01*
X135303382Y-128220500D01*
X135273143Y-128250738D01*
X135242905Y-128311214D01*
X135242905Y-128401929D01*
X135273143Y-128462405D01*
X135303382Y-128492643D01*
X135363858Y-128522881D01*
X135605763Y-128522881D01*
X134849810Y-128190262D02*
X134728858Y-128190262D01*
X134668382Y-128220500D01*
X134607905Y-128280976D01*
X134577667Y-128401929D01*
X134577667Y-128613595D01*
X134607905Y-128734548D01*
X134668382Y-128795024D01*
X134728858Y-128825262D01*
X134849810Y-128825262D01*
X134910286Y-128795024D01*
X134970763Y-128734548D01*
X135001001Y-128613595D01*
X135001001Y-128401929D01*
X134970763Y-128280976D01*
X134910286Y-128220500D01*
X134849810Y-128190262D01*
X134456715Y-128885738D02*
X133972905Y-128885738D01*
X133700762Y-128190262D02*
X133640286Y-128190262D01*
X133579810Y-128220500D01*
X133549572Y-128250738D01*
X133519334Y-128311214D01*
X133489095Y-128432167D01*
X133489095Y-128583357D01*
X133519334Y-128704310D01*
X133549572Y-128764786D01*
X133579810Y-128795024D01*
X133640286Y-128825262D01*
X133700762Y-128825262D01*
X133761238Y-128795024D01*
X133791476Y-128764786D01*
X133821715Y-128704310D01*
X133851953Y-128583357D01*
X133851953Y-128432167D01*
X133821715Y-128311214D01*
X133791476Y-128250738D01*
X133761238Y-128220500D01*
X133700762Y-128190262D01*
X132944810Y-128190262D02*
X133065762Y-128190262D01*
X133126238Y-128220500D01*
X133156476Y-128250738D01*
X133216953Y-128341452D01*
X133247191Y-128462405D01*
X133247191Y-128704310D01*
X133216953Y-128764786D01*
X133186714Y-128795024D01*
X133126238Y-128825262D01*
X133005286Y-128825262D01*
X132944810Y-128795024D01*
X132914572Y-128764786D01*
X132884333Y-128704310D01*
X132884333Y-128553119D01*
X132914572Y-128492643D01*
X132944810Y-128462405D01*
X133005286Y-128432167D01*
X133126238Y-128432167D01*
X133186714Y-128462405D01*
X133216953Y-128492643D01*
X133247191Y-128553119D01*
X132491238Y-128190262D02*
X132430762Y-128190262D01*
X132370286Y-128220500D01*
X132340048Y-128250738D01*
X132309810Y-128311214D01*
X132279571Y-128432167D01*
X132279571Y-128583357D01*
X132309810Y-128704310D01*
X132340048Y-128764786D01*
X132370286Y-128795024D01*
X132430762Y-128825262D01*
X132491238Y-128825262D01*
X132551714Y-128795024D01*
X132581952Y-128764786D01*
X132612191Y-128704310D01*
X132642429Y-128583357D01*
X132642429Y-128432167D01*
X132612191Y-128311214D01*
X132581952Y-128250738D01*
X132551714Y-128220500D01*
X132491238Y-128190262D01*
X132067905Y-128190262D02*
X131674809Y-128190262D01*
X131886476Y-128432167D01*
X131795762Y-128432167D01*
X131735286Y-128462405D01*
X131705048Y-128492643D01*
X131674809Y-128553119D01*
X131674809Y-128704310D01*
X131705048Y-128764786D01*
X131735286Y-128795024D01*
X131795762Y-128825262D01*
X131977190Y-128825262D01*
X132037667Y-128795024D01*
X132067905Y-128764786D01*
X131553857Y-128885738D02*
X131070047Y-128885738D01*
D13*
X140546666Y-133999000D02*
X140589000Y-134041333D01*
X140716000Y-134083667D01*
X140800666Y-134083667D01*
X140927666Y-134041333D01*
X141012333Y-133956667D01*
X141054666Y-133872000D01*
X141097000Y-133702667D01*
X141097000Y-133575667D01*
X141054666Y-133406333D01*
X141012333Y-133321667D01*
X140927666Y-133237000D01*
X140800666Y-133194667D01*
X140716000Y-133194667D01*
X140589000Y-133237000D01*
X140546666Y-133279333D01*
X140250333Y-133194667D02*
X139700000Y-133194667D01*
X139996333Y-133533333D01*
X139869333Y-133533333D01*
X139784666Y-133575667D01*
X139742333Y-133618000D01*
X139700000Y-133702667D01*
X139700000Y-133914333D01*
X139742333Y-133999000D01*
X139784666Y-134041333D01*
X139869333Y-134083667D01*
X140123333Y-134083667D01*
X140208000Y-134041333D01*
X140250333Y-133999000D01*
D15*
X148577904Y-131304786D02*
X148608142Y-131335024D01*
X148698857Y-131365262D01*
X148759333Y-131365262D01*
X148850047Y-131335024D01*
X148910523Y-131274548D01*
X148940762Y-131214071D01*
X148971000Y-131093119D01*
X148971000Y-131002405D01*
X148940762Y-130881452D01*
X148910523Y-130820976D01*
X148850047Y-130760500D01*
X148759333Y-130730262D01*
X148698857Y-130730262D01*
X148608142Y-130760500D01*
X148577904Y-130790738D01*
X148305762Y-131032643D02*
X148094095Y-131032643D01*
X148003381Y-131365262D02*
X148305762Y-131365262D01*
X148305762Y-130730262D01*
X148003381Y-130730262D01*
X147368380Y-131365262D02*
X147580047Y-131062881D01*
X147731238Y-131365262D02*
X147731238Y-130730262D01*
X147489333Y-130730262D01*
X147428857Y-130760500D01*
X147398618Y-130790738D01*
X147368380Y-130851214D01*
X147368380Y-130941929D01*
X147398618Y-131002405D01*
X147428857Y-131032643D01*
X147489333Y-131062881D01*
X147731238Y-131062881D01*
X147126476Y-131183833D02*
X146824095Y-131183833D01*
X147186952Y-131365262D02*
X146975285Y-130730262D01*
X146763618Y-131365262D01*
X146551952Y-131365262D02*
X146551952Y-130730262D01*
X146340285Y-131183833D01*
X146128618Y-130730262D01*
X146128618Y-131365262D01*
X145826238Y-131365262D02*
X145826238Y-130730262D01*
X145160999Y-131304786D02*
X145191237Y-131335024D01*
X145281952Y-131365262D01*
X145342428Y-131365262D01*
X145433142Y-131335024D01*
X145493618Y-131274548D01*
X145523857Y-131214071D01*
X145554095Y-131093119D01*
X145554095Y-131002405D01*
X145523857Y-130881452D01*
X145493618Y-130820976D01*
X145433142Y-130760500D01*
X145342428Y-130730262D01*
X145281952Y-130730262D01*
X145191237Y-130760500D01*
X145160999Y-130790738D01*
X144888857Y-131123357D02*
X144405047Y-131123357D01*
X143770047Y-131365262D02*
X144132905Y-131365262D01*
X143951476Y-131365262D02*
X143951476Y-130730262D01*
X144011952Y-130820976D01*
X144072428Y-130881452D01*
X144132905Y-130911690D01*
X143376952Y-130730262D02*
X143316476Y-130730262D01*
X143256000Y-130760500D01*
X143225762Y-130790738D01*
X143195524Y-130851214D01*
X143165285Y-130972167D01*
X143165285Y-131123357D01*
X143195524Y-131244310D01*
X143225762Y-131304786D01*
X143256000Y-131335024D01*
X143316476Y-131365262D01*
X143376952Y-131365262D01*
X143437428Y-131335024D01*
X143467666Y-131304786D01*
X143497905Y-131244310D01*
X143528143Y-131123357D01*
X143528143Y-130972167D01*
X143497905Y-130851214D01*
X143467666Y-130790738D01*
X143437428Y-130760500D01*
X143376952Y-130730262D01*
X142893143Y-131365262D02*
X142893143Y-130730262D01*
X142651238Y-130730262D01*
X142590762Y-130760500D01*
X142560523Y-130790738D01*
X142530285Y-130851214D01*
X142530285Y-130941929D01*
X142560523Y-131002405D01*
X142590762Y-131032643D01*
X142651238Y-131062881D01*
X142893143Y-131062881D01*
X142046476Y-131032643D02*
X142258143Y-131032643D01*
X142258143Y-131365262D02*
X142258143Y-130730262D01*
X141955762Y-130730262D01*
X141713857Y-131123357D02*
X141230047Y-131123357D01*
X140625286Y-130730262D02*
X140927667Y-130730262D01*
X140957905Y-131032643D01*
X140927667Y-131002405D01*
X140867190Y-130972167D01*
X140716000Y-130972167D01*
X140655524Y-131002405D01*
X140625286Y-131032643D01*
X140595047Y-131093119D01*
X140595047Y-131244310D01*
X140625286Y-131304786D01*
X140655524Y-131335024D01*
X140716000Y-131365262D01*
X140867190Y-131365262D01*
X140927667Y-131335024D01*
X140957905Y-131304786D01*
X140201952Y-130730262D02*
X140141476Y-130730262D01*
X140081000Y-130760500D01*
X140050762Y-130790738D01*
X140020524Y-130851214D01*
X139990285Y-130972167D01*
X139990285Y-131123357D01*
X140020524Y-131244310D01*
X140050762Y-131304786D01*
X140081000Y-131335024D01*
X140141476Y-131365262D01*
X140201952Y-131365262D01*
X140262428Y-131335024D01*
X140292666Y-131304786D01*
X140322905Y-131244310D01*
X140353143Y-131123357D01*
X140353143Y-130972167D01*
X140322905Y-130851214D01*
X140292666Y-130790738D01*
X140262428Y-130760500D01*
X140201952Y-130730262D01*
X139808857Y-130730262D02*
X139597190Y-131365262D01*
X139385523Y-130730262D01*
X139173857Y-131123357D02*
X138690047Y-131123357D01*
X138085286Y-130730262D02*
X138387667Y-130730262D01*
X138417905Y-131032643D01*
X138387667Y-131002405D01*
X138327190Y-130972167D01*
X138176000Y-130972167D01*
X138115524Y-131002405D01*
X138085286Y-131032643D01*
X138055047Y-131093119D01*
X138055047Y-131244310D01*
X138085286Y-131304786D01*
X138115524Y-131335024D01*
X138176000Y-131365262D01*
X138327190Y-131365262D01*
X138387667Y-131335024D01*
X138417905Y-131304786D01*
X137813143Y-131365262D02*
X137329333Y-130730262D01*
X137722428Y-130730262D02*
X137661952Y-130760500D01*
X137631714Y-130820976D01*
X137661952Y-130881452D01*
X137722428Y-130911690D01*
X137782905Y-130881452D01*
X137813143Y-130820976D01*
X137782905Y-130760500D01*
X137722428Y-130730262D01*
X137359571Y-131335024D02*
X137329333Y-131274548D01*
X137359571Y-131214071D01*
X137420047Y-131183833D01*
X137480524Y-131214071D01*
X137510762Y-131274548D01*
X137480524Y-131335024D01*
X137420047Y-131365262D01*
X137359571Y-131335024D01*
X137057191Y-131123357D02*
X136573381Y-131123357D01*
X136271001Y-131365262D02*
X136271001Y-130730262D01*
X135908143Y-131365262D01*
X135908143Y-130730262D01*
X135605763Y-131365262D02*
X135605763Y-130730262D01*
X135363858Y-130730262D01*
X135303382Y-130760500D01*
X135273143Y-130790738D01*
X135242905Y-130851214D01*
X135242905Y-130941929D01*
X135273143Y-131002405D01*
X135303382Y-131032643D01*
X135363858Y-131062881D01*
X135605763Y-131062881D01*
X134849810Y-130730262D02*
X134728858Y-130730262D01*
X134668382Y-130760500D01*
X134607905Y-130820976D01*
X134577667Y-130941929D01*
X134577667Y-131153595D01*
X134607905Y-131274548D01*
X134668382Y-131335024D01*
X134728858Y-131365262D01*
X134849810Y-131365262D01*
X134910286Y-131335024D01*
X134970763Y-131274548D01*
X135001001Y-131153595D01*
X135001001Y-130941929D01*
X134970763Y-130820976D01*
X134910286Y-130760500D01*
X134849810Y-130730262D01*
X134456715Y-131425738D02*
X133972905Y-131425738D01*
X133700762Y-130730262D02*
X133640286Y-130730262D01*
X133579810Y-130760500D01*
X133549572Y-130790738D01*
X133519334Y-130851214D01*
X133489095Y-130972167D01*
X133489095Y-131123357D01*
X133519334Y-131244310D01*
X133549572Y-131304786D01*
X133579810Y-131335024D01*
X133640286Y-131365262D01*
X133700762Y-131365262D01*
X133761238Y-131335024D01*
X133791476Y-131304786D01*
X133821715Y-131244310D01*
X133851953Y-131123357D01*
X133851953Y-130972167D01*
X133821715Y-130851214D01*
X133791476Y-130790738D01*
X133761238Y-130760500D01*
X133700762Y-130730262D01*
X132944810Y-130730262D02*
X133065762Y-130730262D01*
X133126238Y-130760500D01*
X133156476Y-130790738D01*
X133216953Y-130881452D01*
X133247191Y-131002405D01*
X133247191Y-131244310D01*
X133216953Y-131304786D01*
X133186714Y-131335024D01*
X133126238Y-131365262D01*
X133005286Y-131365262D01*
X132944810Y-131335024D01*
X132914572Y-131304786D01*
X132884333Y-131244310D01*
X132884333Y-131093119D01*
X132914572Y-131032643D01*
X132944810Y-131002405D01*
X133005286Y-130972167D01*
X133126238Y-130972167D01*
X133186714Y-131002405D01*
X133216953Y-131032643D01*
X133247191Y-131093119D01*
X132491238Y-130730262D02*
X132430762Y-130730262D01*
X132370286Y-130760500D01*
X132340048Y-130790738D01*
X132309810Y-130851214D01*
X132279571Y-130972167D01*
X132279571Y-131123357D01*
X132309810Y-131244310D01*
X132340048Y-131304786D01*
X132370286Y-131335024D01*
X132430762Y-131365262D01*
X132491238Y-131365262D01*
X132551714Y-131335024D01*
X132581952Y-131304786D01*
X132612191Y-131244310D01*
X132642429Y-131123357D01*
X132642429Y-130972167D01*
X132612191Y-130851214D01*
X132581952Y-130790738D01*
X132551714Y-130760500D01*
X132491238Y-130730262D01*
X132067905Y-130730262D02*
X131674809Y-130730262D01*
X131886476Y-130972167D01*
X131795762Y-130972167D01*
X131735286Y-131002405D01*
X131705048Y-131032643D01*
X131674809Y-131093119D01*
X131674809Y-131244310D01*
X131705048Y-131304786D01*
X131735286Y-131335024D01*
X131795762Y-131365262D01*
X131977190Y-131365262D01*
X132037667Y-131335024D01*
X132067905Y-131304786D01*
X131553857Y-131425738D02*
X131070047Y-131425738D01*
D13*
X130153833Y-98015667D02*
X130153833Y-98735333D01*
X130111500Y-98820000D01*
X130069167Y-98862333D01*
X129984500Y-98904667D01*
X129815167Y-98904667D01*
X129730500Y-98862333D01*
X129688167Y-98820000D01*
X129645833Y-98735333D01*
X129645833Y-98015667D01*
X129180167Y-98904667D02*
X129010834Y-98904667D01*
X128926167Y-98862333D01*
X128883834Y-98820000D01*
X128799167Y-98693000D01*
X128756834Y-98523667D01*
X128756834Y-98185000D01*
X128799167Y-98100333D01*
X128841500Y-98058000D01*
X128926167Y-98015667D01*
X129095500Y-98015667D01*
X129180167Y-98058000D01*
X129222500Y-98100333D01*
X129264834Y-98185000D01*
X129264834Y-98396667D01*
X129222500Y-98481333D01*
X129180167Y-98523667D01*
X129095500Y-98566000D01*
X128926167Y-98566000D01*
X128841500Y-98523667D01*
X128799167Y-98481333D01*
X128756834Y-98396667D01*
X137096500Y-106524667D02*
X137096500Y-105635667D01*
X136884834Y-105635667D01*
X136757834Y-105678000D01*
X136673167Y-105762667D01*
X136630834Y-105847333D01*
X136588500Y-106016667D01*
X136588500Y-106143667D01*
X136630834Y-106313000D01*
X136673167Y-106397667D01*
X136757834Y-106482333D01*
X136884834Y-106524667D01*
X137096500Y-106524667D01*
X135699500Y-106524667D02*
X135995834Y-106101333D01*
X136207500Y-106524667D02*
X136207500Y-105635667D01*
X135868834Y-105635667D01*
X135784167Y-105678000D01*
X135741834Y-105720333D01*
X135699500Y-105805000D01*
X135699500Y-105932000D01*
X135741834Y-106016667D01*
X135784167Y-106059000D01*
X135868834Y-106101333D01*
X136207500Y-106101333D01*
X135318500Y-106524667D02*
X135318500Y-105635667D01*
X135022167Y-105635667D02*
X134725834Y-106524667D01*
X134429501Y-105635667D01*
X134133167Y-106059000D02*
X133836834Y-106059000D01*
X133709834Y-106524667D02*
X134133167Y-106524667D01*
X134133167Y-105635667D01*
X133709834Y-105635667D01*
X132820834Y-106524667D02*
X133117168Y-106101333D01*
X133328834Y-106524667D02*
X133328834Y-105635667D01*
X132990168Y-105635667D01*
X132905501Y-105678000D01*
X132863168Y-105720333D01*
X132820834Y-105805000D01*
X132820834Y-105932000D01*
X132863168Y-106016667D01*
X132905501Y-106059000D01*
X132990168Y-106101333D01*
X133328834Y-106101333D01*
X132439834Y-106186000D02*
X131762501Y-106186000D01*
X131466167Y-105635667D02*
X130958167Y-105635667D01*
X131212167Y-106524667D02*
X131212167Y-105635667D01*
X130661834Y-106524667D02*
X130661834Y-105635667D01*
X130365501Y-106270667D01*
X130069168Y-105635667D01*
X130069168Y-106524667D01*
X129180168Y-106524667D02*
X129688168Y-106524667D01*
X129434168Y-106524667D02*
X129434168Y-105635667D01*
X129518834Y-105762667D01*
X129603501Y-105847333D01*
X129688168Y-105889667D01*
X128418167Y-105635667D02*
X128587501Y-105635667D01*
X128672167Y-105678000D01*
X128714501Y-105720333D01*
X128799167Y-105847333D01*
X128841501Y-106016667D01*
X128841501Y-106355333D01*
X128799167Y-106440000D01*
X128756834Y-106482333D01*
X128672167Y-106524667D01*
X128502834Y-106524667D01*
X128418167Y-106482333D01*
X128375834Y-106440000D01*
X128333501Y-106355333D01*
X128333501Y-106143667D01*
X128375834Y-106059000D01*
X128418167Y-106016667D01*
X128502834Y-105974333D01*
X128672167Y-105974333D01*
X128756834Y-106016667D01*
X128799167Y-106059000D01*
X128841501Y-106143667D01*
X128037167Y-105635667D02*
X127486834Y-105635667D01*
X127783167Y-105974333D01*
X127656167Y-105974333D01*
X127571500Y-106016667D01*
X127529167Y-106059000D01*
X127486834Y-106143667D01*
X127486834Y-106355333D01*
X127529167Y-106440000D01*
X127571500Y-106482333D01*
X127656167Y-106524667D01*
X127910167Y-106524667D01*
X127994834Y-106482333D01*
X128037167Y-106440000D01*
X127190500Y-105635667D02*
X126597833Y-105635667D01*
X126978833Y-106524667D01*
X126470833Y-106609333D02*
X125793500Y-106609333D01*
X125624167Y-106482333D02*
X125497167Y-106524667D01*
X125285500Y-106524667D01*
X125200833Y-106482333D01*
X125158500Y-106440000D01*
X125116167Y-106355333D01*
X125116167Y-106270667D01*
X125158500Y-106186000D01*
X125200833Y-106143667D01*
X125285500Y-106101333D01*
X125454833Y-106059000D01*
X125539500Y-106016667D01*
X125581833Y-105974333D01*
X125624167Y-105889667D01*
X125624167Y-105805000D01*
X125581833Y-105720333D01*
X125539500Y-105678000D01*
X125454833Y-105635667D01*
X125243167Y-105635667D01*
X125116167Y-105678000D01*
X124565833Y-105635667D02*
X124396500Y-105635667D01*
X124311833Y-105678000D01*
X124227166Y-105762667D01*
X124184833Y-105932000D01*
X124184833Y-106228333D01*
X124227166Y-106397667D01*
X124311833Y-106482333D01*
X124396500Y-106524667D01*
X124565833Y-106524667D01*
X124650500Y-106482333D01*
X124735166Y-106397667D01*
X124777500Y-106228333D01*
X124777500Y-105932000D01*
X124735166Y-105762667D01*
X124650500Y-105678000D01*
X124565833Y-105635667D01*
X123803833Y-106524667D02*
X123803833Y-105635667D01*
X123465167Y-105635667D01*
X123380500Y-105678000D01*
X123338167Y-105720333D01*
X123295833Y-105805000D01*
X123295833Y-105932000D01*
X123338167Y-106016667D01*
X123380500Y-106059000D01*
X123465167Y-106101333D01*
X123803833Y-106101333D01*
X122957167Y-105720333D02*
X122914833Y-105678000D01*
X122830167Y-105635667D01*
X122618500Y-105635667D01*
X122533833Y-105678000D01*
X122491500Y-105720333D01*
X122449167Y-105805000D01*
X122449167Y-105889667D01*
X122491500Y-106016667D01*
X122999500Y-106524667D01*
X122449167Y-106524667D01*
X121898833Y-105635667D02*
X121814166Y-105635667D01*
X121729500Y-105678000D01*
X121687166Y-105720333D01*
X121644833Y-105805000D01*
X121602500Y-105974333D01*
X121602500Y-106186000D01*
X121644833Y-106355333D01*
X121687166Y-106440000D01*
X121729500Y-106482333D01*
X121814166Y-106524667D01*
X121898833Y-106524667D01*
X121983500Y-106482333D01*
X122025833Y-106440000D01*
X122068166Y-106355333D01*
X122110500Y-106186000D01*
X122110500Y-105974333D01*
X122068166Y-105805000D01*
X122025833Y-105720333D01*
X121983500Y-105678000D01*
X121898833Y-105635667D01*
X121433166Y-106609333D02*
X120755833Y-106609333D01*
D15*
X125602516Y-98658045D02*
X125563811Y-98619340D01*
X125486402Y-98580635D01*
X125292878Y-98580635D01*
X125215468Y-98619340D01*
X125176764Y-98658045D01*
X125138059Y-98735454D01*
X125138059Y-98812864D01*
X125176764Y-98928978D01*
X125641221Y-99393435D01*
X125138059Y-99393435D01*
X124634897Y-98580635D02*
X124557488Y-98580635D01*
X124480078Y-98619340D01*
X124441373Y-98658045D01*
X124402669Y-98735454D01*
X124363964Y-98890273D01*
X124363964Y-99083797D01*
X124402669Y-99238616D01*
X124441373Y-99316026D01*
X124480078Y-99354730D01*
X124557488Y-99393435D01*
X124634897Y-99393435D01*
X124712307Y-99354730D01*
X124751011Y-99316026D01*
X124789716Y-99238616D01*
X124828421Y-99083797D01*
X124828421Y-98890273D01*
X124789716Y-98735454D01*
X124751011Y-98658045D01*
X124712307Y-98619340D01*
X124634897Y-98580635D01*
X125138059Y-112890995D02*
X125602516Y-112890995D01*
X125370287Y-112890995D02*
X125370287Y-112078195D01*
X125447697Y-112194310D01*
X125525106Y-112271719D01*
X125602516Y-112310424D01*
X124363964Y-112890995D02*
X124828421Y-112890995D01*
X124596192Y-112890995D02*
X124596192Y-112078195D01*
X124673602Y-112194310D01*
X124751011Y-112271719D01*
X124828421Y-112310424D01*
X134383659Y-112890995D02*
X134848116Y-112890995D01*
X134615887Y-112890995D02*
X134615887Y-112078195D01*
X134693297Y-112194310D01*
X134770706Y-112271719D01*
X134848116Y-112310424D01*
X133880497Y-112078195D02*
X133803088Y-112078195D01*
X133725678Y-112116900D01*
X133686973Y-112155605D01*
X133648269Y-112233014D01*
X133609564Y-112387833D01*
X133609564Y-112581357D01*
X133648269Y-112736176D01*
X133686973Y-112813586D01*
X133725678Y-112852290D01*
X133803088Y-112890995D01*
X133880497Y-112890995D01*
X133957907Y-112852290D01*
X133996611Y-112813586D01*
X134035316Y-112736176D01*
X134074021Y-112581357D01*
X134074021Y-112387833D01*
X134035316Y-112233014D01*
X133996611Y-112155605D01*
X133957907Y-112116900D01*
X133880497Y-112078195D01*
D13*
X130153833Y-81251667D02*
X130153833Y-81971333D01*
X130111500Y-82056000D01*
X130069167Y-82098333D01*
X129984500Y-82140667D01*
X129815167Y-82140667D01*
X129730500Y-82098333D01*
X129688167Y-82056000D01*
X129645833Y-81971333D01*
X129645833Y-81251667D01*
X129307167Y-81251667D02*
X128714500Y-81251667D01*
X129095500Y-82140667D01*
X137096500Y-89760667D02*
X137096500Y-88871667D01*
X136884834Y-88871667D01*
X136757834Y-88914000D01*
X136673167Y-88998667D01*
X136630834Y-89083333D01*
X136588500Y-89252667D01*
X136588500Y-89379667D01*
X136630834Y-89549000D01*
X136673167Y-89633667D01*
X136757834Y-89718333D01*
X136884834Y-89760667D01*
X137096500Y-89760667D01*
X135699500Y-89760667D02*
X135995834Y-89337333D01*
X136207500Y-89760667D02*
X136207500Y-88871667D01*
X135868834Y-88871667D01*
X135784167Y-88914000D01*
X135741834Y-88956333D01*
X135699500Y-89041000D01*
X135699500Y-89168000D01*
X135741834Y-89252667D01*
X135784167Y-89295000D01*
X135868834Y-89337333D01*
X136207500Y-89337333D01*
X135318500Y-89760667D02*
X135318500Y-88871667D01*
X135022167Y-88871667D02*
X134725834Y-89760667D01*
X134429501Y-88871667D01*
X134133167Y-89295000D02*
X133836834Y-89295000D01*
X133709834Y-89760667D02*
X134133167Y-89760667D01*
X134133167Y-88871667D01*
X133709834Y-88871667D01*
X132820834Y-89760667D02*
X133117168Y-89337333D01*
X133328834Y-89760667D02*
X133328834Y-88871667D01*
X132990168Y-88871667D01*
X132905501Y-88914000D01*
X132863168Y-88956333D01*
X132820834Y-89041000D01*
X132820834Y-89168000D01*
X132863168Y-89252667D01*
X132905501Y-89295000D01*
X132990168Y-89337333D01*
X133328834Y-89337333D01*
X132439834Y-89422000D02*
X131762501Y-89422000D01*
X131466167Y-88871667D02*
X130958167Y-88871667D01*
X131212167Y-89760667D02*
X131212167Y-88871667D01*
X130661834Y-89760667D02*
X130661834Y-88871667D01*
X130365501Y-89506667D01*
X130069168Y-88871667D01*
X130069168Y-89760667D01*
X129180168Y-89760667D02*
X129688168Y-89760667D01*
X129434168Y-89760667D02*
X129434168Y-88871667D01*
X129518834Y-88998667D01*
X129603501Y-89083333D01*
X129688168Y-89125667D01*
X128418167Y-88871667D02*
X128587501Y-88871667D01*
X128672167Y-88914000D01*
X128714501Y-88956333D01*
X128799167Y-89083333D01*
X128841501Y-89252667D01*
X128841501Y-89591333D01*
X128799167Y-89676000D01*
X128756834Y-89718333D01*
X128672167Y-89760667D01*
X128502834Y-89760667D01*
X128418167Y-89718333D01*
X128375834Y-89676000D01*
X128333501Y-89591333D01*
X128333501Y-89379667D01*
X128375834Y-89295000D01*
X128418167Y-89252667D01*
X128502834Y-89210333D01*
X128672167Y-89210333D01*
X128756834Y-89252667D01*
X128799167Y-89295000D01*
X128841501Y-89379667D01*
X128037167Y-88871667D02*
X127486834Y-88871667D01*
X127783167Y-89210333D01*
X127656167Y-89210333D01*
X127571500Y-89252667D01*
X127529167Y-89295000D01*
X127486834Y-89379667D01*
X127486834Y-89591333D01*
X127529167Y-89676000D01*
X127571500Y-89718333D01*
X127656167Y-89760667D01*
X127910167Y-89760667D01*
X127994834Y-89718333D01*
X128037167Y-89676000D01*
X127190500Y-88871667D02*
X126597833Y-88871667D01*
X126978833Y-89760667D01*
X126470833Y-89845333D02*
X125793500Y-89845333D01*
X125624167Y-89718333D02*
X125497167Y-89760667D01*
X125285500Y-89760667D01*
X125200833Y-89718333D01*
X125158500Y-89676000D01*
X125116167Y-89591333D01*
X125116167Y-89506667D01*
X125158500Y-89422000D01*
X125200833Y-89379667D01*
X125285500Y-89337333D01*
X125454833Y-89295000D01*
X125539500Y-89252667D01*
X125581833Y-89210333D01*
X125624167Y-89125667D01*
X125624167Y-89041000D01*
X125581833Y-88956333D01*
X125539500Y-88914000D01*
X125454833Y-88871667D01*
X125243167Y-88871667D01*
X125116167Y-88914000D01*
X124565833Y-88871667D02*
X124396500Y-88871667D01*
X124311833Y-88914000D01*
X124227166Y-88998667D01*
X124184833Y-89168000D01*
X124184833Y-89464333D01*
X124227166Y-89633667D01*
X124311833Y-89718333D01*
X124396500Y-89760667D01*
X124565833Y-89760667D01*
X124650500Y-89718333D01*
X124735166Y-89633667D01*
X124777500Y-89464333D01*
X124777500Y-89168000D01*
X124735166Y-88998667D01*
X124650500Y-88914000D01*
X124565833Y-88871667D01*
X123803833Y-89760667D02*
X123803833Y-88871667D01*
X123465167Y-88871667D01*
X123380500Y-88914000D01*
X123338167Y-88956333D01*
X123295833Y-89041000D01*
X123295833Y-89168000D01*
X123338167Y-89252667D01*
X123380500Y-89295000D01*
X123465167Y-89337333D01*
X123803833Y-89337333D01*
X122957167Y-88956333D02*
X122914833Y-88914000D01*
X122830167Y-88871667D01*
X122618500Y-88871667D01*
X122533833Y-88914000D01*
X122491500Y-88956333D01*
X122449167Y-89041000D01*
X122449167Y-89125667D01*
X122491500Y-89252667D01*
X122999500Y-89760667D01*
X122449167Y-89760667D01*
X121898833Y-88871667D02*
X121814166Y-88871667D01*
X121729500Y-88914000D01*
X121687166Y-88956333D01*
X121644833Y-89041000D01*
X121602500Y-89210333D01*
X121602500Y-89422000D01*
X121644833Y-89591333D01*
X121687166Y-89676000D01*
X121729500Y-89718333D01*
X121814166Y-89760667D01*
X121898833Y-89760667D01*
X121983500Y-89718333D01*
X122025833Y-89676000D01*
X122068166Y-89591333D01*
X122110500Y-89422000D01*
X122110500Y-89210333D01*
X122068166Y-89041000D01*
X122025833Y-88956333D01*
X121983500Y-88914000D01*
X121898833Y-88871667D01*
X121433166Y-89845333D02*
X120755833Y-89845333D01*
D15*
X125602516Y-81894045D02*
X125563811Y-81855340D01*
X125486402Y-81816635D01*
X125292878Y-81816635D01*
X125215468Y-81855340D01*
X125176764Y-81894045D01*
X125138059Y-81971454D01*
X125138059Y-82048864D01*
X125176764Y-82164978D01*
X125641221Y-82629435D01*
X125138059Y-82629435D01*
X124634897Y-81816635D02*
X124557488Y-81816635D01*
X124480078Y-81855340D01*
X124441373Y-81894045D01*
X124402669Y-81971454D01*
X124363964Y-82126273D01*
X124363964Y-82319797D01*
X124402669Y-82474616D01*
X124441373Y-82552026D01*
X124480078Y-82590730D01*
X124557488Y-82629435D01*
X124634897Y-82629435D01*
X124712307Y-82590730D01*
X124751011Y-82552026D01*
X124789716Y-82474616D01*
X124828421Y-82319797D01*
X124828421Y-82126273D01*
X124789716Y-81971454D01*
X124751011Y-81894045D01*
X124712307Y-81855340D01*
X124634897Y-81816635D01*
X125138059Y-96126995D02*
X125602516Y-96126995D01*
X125370287Y-96126995D02*
X125370287Y-95314195D01*
X125447697Y-95430310D01*
X125525106Y-95507719D01*
X125602516Y-95546424D01*
X124363964Y-96126995D02*
X124828421Y-96126995D01*
X124596192Y-96126995D02*
X124596192Y-95314195D01*
X124673602Y-95430310D01*
X124751011Y-95507719D01*
X124828421Y-95546424D01*
X134383659Y-96126995D02*
X134848116Y-96126995D01*
X134615887Y-96126995D02*
X134615887Y-95314195D01*
X134693297Y-95430310D01*
X134770706Y-95507719D01*
X134848116Y-95546424D01*
X133880497Y-95314195D02*
X133803088Y-95314195D01*
X133725678Y-95352900D01*
X133686973Y-95391605D01*
X133648269Y-95469014D01*
X133609564Y-95623833D01*
X133609564Y-95817357D01*
X133648269Y-95972176D01*
X133686973Y-96049586D01*
X133725678Y-96088290D01*
X133803088Y-96126995D01*
X133880497Y-96126995D01*
X133957907Y-96088290D01*
X133996611Y-96049586D01*
X134035316Y-95972176D01*
X134074021Y-95817357D01*
X134074021Y-95623833D01*
X134035316Y-95469014D01*
X133996611Y-95391605D01*
X133957907Y-95352900D01*
X133880497Y-95314195D01*
D13*
X130153833Y-64741667D02*
X130153833Y-65461333D01*
X130111500Y-65546000D01*
X130069167Y-65588333D01*
X129984500Y-65630667D01*
X129815167Y-65630667D01*
X129730500Y-65588333D01*
X129688167Y-65546000D01*
X129645833Y-65461333D01*
X129645833Y-64741667D01*
X128841500Y-65038000D02*
X128841500Y-65630667D01*
X129053167Y-64699333D02*
X129264834Y-65334333D01*
X128714500Y-65334333D01*
X137096500Y-73250667D02*
X137096500Y-72361667D01*
X136884834Y-72361667D01*
X136757834Y-72404000D01*
X136673167Y-72488667D01*
X136630834Y-72573333D01*
X136588500Y-72742667D01*
X136588500Y-72869667D01*
X136630834Y-73039000D01*
X136673167Y-73123667D01*
X136757834Y-73208333D01*
X136884834Y-73250667D01*
X137096500Y-73250667D01*
X135699500Y-73250667D02*
X135995834Y-72827333D01*
X136207500Y-73250667D02*
X136207500Y-72361667D01*
X135868834Y-72361667D01*
X135784167Y-72404000D01*
X135741834Y-72446333D01*
X135699500Y-72531000D01*
X135699500Y-72658000D01*
X135741834Y-72742667D01*
X135784167Y-72785000D01*
X135868834Y-72827333D01*
X136207500Y-72827333D01*
X135318500Y-73250667D02*
X135318500Y-72361667D01*
X135022167Y-72361667D02*
X134725834Y-73250667D01*
X134429501Y-72361667D01*
X134133167Y-72785000D02*
X133836834Y-72785000D01*
X133709834Y-73250667D02*
X134133167Y-73250667D01*
X134133167Y-72361667D01*
X133709834Y-72361667D01*
X132820834Y-73250667D02*
X133117168Y-72827333D01*
X133328834Y-73250667D02*
X133328834Y-72361667D01*
X132990168Y-72361667D01*
X132905501Y-72404000D01*
X132863168Y-72446333D01*
X132820834Y-72531000D01*
X132820834Y-72658000D01*
X132863168Y-72742667D01*
X132905501Y-72785000D01*
X132990168Y-72827333D01*
X133328834Y-72827333D01*
X132439834Y-72912000D02*
X131762501Y-72912000D01*
X131466167Y-72361667D02*
X130958167Y-72361667D01*
X131212167Y-73250667D02*
X131212167Y-72361667D01*
X130661834Y-73250667D02*
X130661834Y-72361667D01*
X130365501Y-72996667D01*
X130069168Y-72361667D01*
X130069168Y-73250667D01*
X129180168Y-73250667D02*
X129688168Y-73250667D01*
X129434168Y-73250667D02*
X129434168Y-72361667D01*
X129518834Y-72488667D01*
X129603501Y-72573333D01*
X129688168Y-72615667D01*
X128418167Y-72361667D02*
X128587501Y-72361667D01*
X128672167Y-72404000D01*
X128714501Y-72446333D01*
X128799167Y-72573333D01*
X128841501Y-72742667D01*
X128841501Y-73081333D01*
X128799167Y-73166000D01*
X128756834Y-73208333D01*
X128672167Y-73250667D01*
X128502834Y-73250667D01*
X128418167Y-73208333D01*
X128375834Y-73166000D01*
X128333501Y-73081333D01*
X128333501Y-72869667D01*
X128375834Y-72785000D01*
X128418167Y-72742667D01*
X128502834Y-72700333D01*
X128672167Y-72700333D01*
X128756834Y-72742667D01*
X128799167Y-72785000D01*
X128841501Y-72869667D01*
X128037167Y-72361667D02*
X127486834Y-72361667D01*
X127783167Y-72700333D01*
X127656167Y-72700333D01*
X127571500Y-72742667D01*
X127529167Y-72785000D01*
X127486834Y-72869667D01*
X127486834Y-73081333D01*
X127529167Y-73166000D01*
X127571500Y-73208333D01*
X127656167Y-73250667D01*
X127910167Y-73250667D01*
X127994834Y-73208333D01*
X128037167Y-73166000D01*
X127190500Y-72361667D02*
X126597833Y-72361667D01*
X126978833Y-73250667D01*
X126470833Y-73335333D02*
X125793500Y-73335333D01*
X125624167Y-73208333D02*
X125497167Y-73250667D01*
X125285500Y-73250667D01*
X125200833Y-73208333D01*
X125158500Y-73166000D01*
X125116167Y-73081333D01*
X125116167Y-72996667D01*
X125158500Y-72912000D01*
X125200833Y-72869667D01*
X125285500Y-72827333D01*
X125454833Y-72785000D01*
X125539500Y-72742667D01*
X125581833Y-72700333D01*
X125624167Y-72615667D01*
X125624167Y-72531000D01*
X125581833Y-72446333D01*
X125539500Y-72404000D01*
X125454833Y-72361667D01*
X125243167Y-72361667D01*
X125116167Y-72404000D01*
X124565833Y-72361667D02*
X124396500Y-72361667D01*
X124311833Y-72404000D01*
X124227166Y-72488667D01*
X124184833Y-72658000D01*
X124184833Y-72954333D01*
X124227166Y-73123667D01*
X124311833Y-73208333D01*
X124396500Y-73250667D01*
X124565833Y-73250667D01*
X124650500Y-73208333D01*
X124735166Y-73123667D01*
X124777500Y-72954333D01*
X124777500Y-72658000D01*
X124735166Y-72488667D01*
X124650500Y-72404000D01*
X124565833Y-72361667D01*
X123803833Y-73250667D02*
X123803833Y-72361667D01*
X123465167Y-72361667D01*
X123380500Y-72404000D01*
X123338167Y-72446333D01*
X123295833Y-72531000D01*
X123295833Y-72658000D01*
X123338167Y-72742667D01*
X123380500Y-72785000D01*
X123465167Y-72827333D01*
X123803833Y-72827333D01*
X122957167Y-72446333D02*
X122914833Y-72404000D01*
X122830167Y-72361667D01*
X122618500Y-72361667D01*
X122533833Y-72404000D01*
X122491500Y-72446333D01*
X122449167Y-72531000D01*
X122449167Y-72615667D01*
X122491500Y-72742667D01*
X122999500Y-73250667D01*
X122449167Y-73250667D01*
X121898833Y-72361667D02*
X121814166Y-72361667D01*
X121729500Y-72404000D01*
X121687166Y-72446333D01*
X121644833Y-72531000D01*
X121602500Y-72700333D01*
X121602500Y-72912000D01*
X121644833Y-73081333D01*
X121687166Y-73166000D01*
X121729500Y-73208333D01*
X121814166Y-73250667D01*
X121898833Y-73250667D01*
X121983500Y-73208333D01*
X122025833Y-73166000D01*
X122068166Y-73081333D01*
X122110500Y-72912000D01*
X122110500Y-72700333D01*
X122068166Y-72531000D01*
X122025833Y-72446333D01*
X121983500Y-72404000D01*
X121898833Y-72361667D01*
X121433166Y-73335333D02*
X120755833Y-73335333D01*
D15*
X125602516Y-65384045D02*
X125563811Y-65345340D01*
X125486402Y-65306635D01*
X125292878Y-65306635D01*
X125215468Y-65345340D01*
X125176764Y-65384045D01*
X125138059Y-65461454D01*
X125138059Y-65538864D01*
X125176764Y-65654978D01*
X125641221Y-66119435D01*
X125138059Y-66119435D01*
X124634897Y-65306635D02*
X124557488Y-65306635D01*
X124480078Y-65345340D01*
X124441373Y-65384045D01*
X124402669Y-65461454D01*
X124363964Y-65616273D01*
X124363964Y-65809797D01*
X124402669Y-65964616D01*
X124441373Y-66042026D01*
X124480078Y-66080730D01*
X124557488Y-66119435D01*
X124634897Y-66119435D01*
X124712307Y-66080730D01*
X124751011Y-66042026D01*
X124789716Y-65964616D01*
X124828421Y-65809797D01*
X124828421Y-65616273D01*
X124789716Y-65461454D01*
X124751011Y-65384045D01*
X124712307Y-65345340D01*
X124634897Y-65306635D01*
X125138059Y-79616995D02*
X125602516Y-79616995D01*
X125370287Y-79616995D02*
X125370287Y-78804195D01*
X125447697Y-78920310D01*
X125525106Y-78997719D01*
X125602516Y-79036424D01*
X124363964Y-79616995D02*
X124828421Y-79616995D01*
X124596192Y-79616995D02*
X124596192Y-78804195D01*
X124673602Y-78920310D01*
X124751011Y-78997719D01*
X124828421Y-79036424D01*
X134383659Y-79616995D02*
X134848116Y-79616995D01*
X134615887Y-79616995D02*
X134615887Y-78804195D01*
X134693297Y-78920310D01*
X134770706Y-78997719D01*
X134848116Y-79036424D01*
X133880497Y-78804195D02*
X133803088Y-78804195D01*
X133725678Y-78842900D01*
X133686973Y-78881605D01*
X133648269Y-78959014D01*
X133609564Y-79113833D01*
X133609564Y-79307357D01*
X133648269Y-79462176D01*
X133686973Y-79539586D01*
X133725678Y-79578290D01*
X133803088Y-79616995D01*
X133880497Y-79616995D01*
X133957907Y-79578290D01*
X133996611Y-79539586D01*
X134035316Y-79462176D01*
X134074021Y-79307357D01*
X134074021Y-79113833D01*
X134035316Y-78959014D01*
X133996611Y-78881605D01*
X133957907Y-78842900D01*
X133880497Y-78804195D01*
D13*
X130153833Y-47977667D02*
X130153833Y-48697333D01*
X130111500Y-48782000D01*
X130069167Y-48824333D01*
X129984500Y-48866667D01*
X129815167Y-48866667D01*
X129730500Y-48824333D01*
X129688167Y-48782000D01*
X129645833Y-48697333D01*
X129645833Y-47977667D01*
X129264834Y-48062333D02*
X129222500Y-48020000D01*
X129137834Y-47977667D01*
X128926167Y-47977667D01*
X128841500Y-48020000D01*
X128799167Y-48062333D01*
X128756834Y-48147000D01*
X128756834Y-48231667D01*
X128799167Y-48358667D01*
X129307167Y-48866667D01*
X128756834Y-48866667D01*
X137096500Y-56486667D02*
X137096500Y-55597667D01*
X136884834Y-55597667D01*
X136757834Y-55640000D01*
X136673167Y-55724667D01*
X136630834Y-55809333D01*
X136588500Y-55978667D01*
X136588500Y-56105667D01*
X136630834Y-56275000D01*
X136673167Y-56359667D01*
X136757834Y-56444333D01*
X136884834Y-56486667D01*
X137096500Y-56486667D01*
X135699500Y-56486667D02*
X135995834Y-56063333D01*
X136207500Y-56486667D02*
X136207500Y-55597667D01*
X135868834Y-55597667D01*
X135784167Y-55640000D01*
X135741834Y-55682333D01*
X135699500Y-55767000D01*
X135699500Y-55894000D01*
X135741834Y-55978667D01*
X135784167Y-56021000D01*
X135868834Y-56063333D01*
X136207500Y-56063333D01*
X135318500Y-56486667D02*
X135318500Y-55597667D01*
X135022167Y-55597667D02*
X134725834Y-56486667D01*
X134429501Y-55597667D01*
X134133167Y-56021000D02*
X133836834Y-56021000D01*
X133709834Y-56486667D02*
X134133167Y-56486667D01*
X134133167Y-55597667D01*
X133709834Y-55597667D01*
X132820834Y-56486667D02*
X133117168Y-56063333D01*
X133328834Y-56486667D02*
X133328834Y-55597667D01*
X132990168Y-55597667D01*
X132905501Y-55640000D01*
X132863168Y-55682333D01*
X132820834Y-55767000D01*
X132820834Y-55894000D01*
X132863168Y-55978667D01*
X132905501Y-56021000D01*
X132990168Y-56063333D01*
X133328834Y-56063333D01*
X132439834Y-56148000D02*
X131762501Y-56148000D01*
X131466167Y-55597667D02*
X130958167Y-55597667D01*
X131212167Y-56486667D02*
X131212167Y-55597667D01*
X130661834Y-56486667D02*
X130661834Y-55597667D01*
X130365501Y-56232667D01*
X130069168Y-55597667D01*
X130069168Y-56486667D01*
X129180168Y-56486667D02*
X129688168Y-56486667D01*
X129434168Y-56486667D02*
X129434168Y-55597667D01*
X129518834Y-55724667D01*
X129603501Y-55809333D01*
X129688168Y-55851667D01*
X128418167Y-55597667D02*
X128587501Y-55597667D01*
X128672167Y-55640000D01*
X128714501Y-55682333D01*
X128799167Y-55809333D01*
X128841501Y-55978667D01*
X128841501Y-56317333D01*
X128799167Y-56402000D01*
X128756834Y-56444333D01*
X128672167Y-56486667D01*
X128502834Y-56486667D01*
X128418167Y-56444333D01*
X128375834Y-56402000D01*
X128333501Y-56317333D01*
X128333501Y-56105667D01*
X128375834Y-56021000D01*
X128418167Y-55978667D01*
X128502834Y-55936333D01*
X128672167Y-55936333D01*
X128756834Y-55978667D01*
X128799167Y-56021000D01*
X128841501Y-56105667D01*
X128037167Y-55597667D02*
X127486834Y-55597667D01*
X127783167Y-55936333D01*
X127656167Y-55936333D01*
X127571500Y-55978667D01*
X127529167Y-56021000D01*
X127486834Y-56105667D01*
X127486834Y-56317333D01*
X127529167Y-56402000D01*
X127571500Y-56444333D01*
X127656167Y-56486667D01*
X127910167Y-56486667D01*
X127994834Y-56444333D01*
X128037167Y-56402000D01*
X127190500Y-55597667D02*
X126597833Y-55597667D01*
X126978833Y-56486667D01*
X126470833Y-56571333D02*
X125793500Y-56571333D01*
X125624167Y-56444333D02*
X125497167Y-56486667D01*
X125285500Y-56486667D01*
X125200833Y-56444333D01*
X125158500Y-56402000D01*
X125116167Y-56317333D01*
X125116167Y-56232667D01*
X125158500Y-56148000D01*
X125200833Y-56105667D01*
X125285500Y-56063333D01*
X125454833Y-56021000D01*
X125539500Y-55978667D01*
X125581833Y-55936333D01*
X125624167Y-55851667D01*
X125624167Y-55767000D01*
X125581833Y-55682333D01*
X125539500Y-55640000D01*
X125454833Y-55597667D01*
X125243167Y-55597667D01*
X125116167Y-55640000D01*
X124565833Y-55597667D02*
X124396500Y-55597667D01*
X124311833Y-55640000D01*
X124227166Y-55724667D01*
X124184833Y-55894000D01*
X124184833Y-56190333D01*
X124227166Y-56359667D01*
X124311833Y-56444333D01*
X124396500Y-56486667D01*
X124565833Y-56486667D01*
X124650500Y-56444333D01*
X124735166Y-56359667D01*
X124777500Y-56190333D01*
X124777500Y-55894000D01*
X124735166Y-55724667D01*
X124650500Y-55640000D01*
X124565833Y-55597667D01*
X123803833Y-56486667D02*
X123803833Y-55597667D01*
X123465167Y-55597667D01*
X123380500Y-55640000D01*
X123338167Y-55682333D01*
X123295833Y-55767000D01*
X123295833Y-55894000D01*
X123338167Y-55978667D01*
X123380500Y-56021000D01*
X123465167Y-56063333D01*
X123803833Y-56063333D01*
X122957167Y-55682333D02*
X122914833Y-55640000D01*
X122830167Y-55597667D01*
X122618500Y-55597667D01*
X122533833Y-55640000D01*
X122491500Y-55682333D01*
X122449167Y-55767000D01*
X122449167Y-55851667D01*
X122491500Y-55978667D01*
X122999500Y-56486667D01*
X122449167Y-56486667D01*
X121898833Y-55597667D02*
X121814166Y-55597667D01*
X121729500Y-55640000D01*
X121687166Y-55682333D01*
X121644833Y-55767000D01*
X121602500Y-55936333D01*
X121602500Y-56148000D01*
X121644833Y-56317333D01*
X121687166Y-56402000D01*
X121729500Y-56444333D01*
X121814166Y-56486667D01*
X121898833Y-56486667D01*
X121983500Y-56444333D01*
X122025833Y-56402000D01*
X122068166Y-56317333D01*
X122110500Y-56148000D01*
X122110500Y-55936333D01*
X122068166Y-55767000D01*
X122025833Y-55682333D01*
X121983500Y-55640000D01*
X121898833Y-55597667D01*
X121433166Y-56571333D02*
X120755833Y-56571333D01*
D15*
X125602516Y-48620045D02*
X125563811Y-48581340D01*
X125486402Y-48542635D01*
X125292878Y-48542635D01*
X125215468Y-48581340D01*
X125176764Y-48620045D01*
X125138059Y-48697454D01*
X125138059Y-48774864D01*
X125176764Y-48890978D01*
X125641221Y-49355435D01*
X125138059Y-49355435D01*
X124634897Y-48542635D02*
X124557488Y-48542635D01*
X124480078Y-48581340D01*
X124441373Y-48620045D01*
X124402669Y-48697454D01*
X124363964Y-48852273D01*
X124363964Y-49045797D01*
X124402669Y-49200616D01*
X124441373Y-49278026D01*
X124480078Y-49316730D01*
X124557488Y-49355435D01*
X124634897Y-49355435D01*
X124712307Y-49316730D01*
X124751011Y-49278026D01*
X124789716Y-49200616D01*
X124828421Y-49045797D01*
X124828421Y-48852273D01*
X124789716Y-48697454D01*
X124751011Y-48620045D01*
X124712307Y-48581340D01*
X124634897Y-48542635D01*
X125138059Y-62852995D02*
X125602516Y-62852995D01*
X125370287Y-62852995D02*
X125370287Y-62040195D01*
X125447697Y-62156310D01*
X125525106Y-62233719D01*
X125602516Y-62272424D01*
X124363964Y-62852995D02*
X124828421Y-62852995D01*
X124596192Y-62852995D02*
X124596192Y-62040195D01*
X124673602Y-62156310D01*
X124751011Y-62233719D01*
X124828421Y-62272424D01*
X134383659Y-62852995D02*
X134848116Y-62852995D01*
X134615887Y-62852995D02*
X134615887Y-62040195D01*
X134693297Y-62156310D01*
X134770706Y-62233719D01*
X134848116Y-62272424D01*
X133880497Y-62040195D02*
X133803088Y-62040195D01*
X133725678Y-62078900D01*
X133686973Y-62117605D01*
X133648269Y-62195014D01*
X133609564Y-62349833D01*
X133609564Y-62543357D01*
X133648269Y-62698176D01*
X133686973Y-62775586D01*
X133725678Y-62814290D01*
X133803088Y-62852995D01*
X133880497Y-62852995D01*
X133957907Y-62814290D01*
X133996611Y-62775586D01*
X134035316Y-62698176D01*
X134074021Y-62543357D01*
X134074021Y-62349833D01*
X134035316Y-62195014D01*
X133996611Y-62117605D01*
X133957907Y-62078900D01*
X133880497Y-62040195D01*
D16*
X151586695Y-132234471D02*
X151586695Y-133043995D01*
X151539076Y-133139233D01*
X151491457Y-133186852D01*
X151396219Y-133234471D01*
X151205742Y-133234471D01*
X151110504Y-133186852D01*
X151062885Y-133139233D01*
X151015266Y-133043995D01*
X151015266Y-132234471D01*
X150062885Y-132234471D02*
X150539076Y-132234471D01*
X150586695Y-132710661D01*
X150539076Y-132663042D01*
X150443838Y-132615423D01*
X150205742Y-132615423D01*
X150110504Y-132663042D01*
X150062885Y-132710661D01*
X150015266Y-132805900D01*
X150015266Y-133043995D01*
X150062885Y-133139233D01*
X150110504Y-133186852D01*
X150205742Y-133234471D01*
X150443838Y-133234471D01*
X150539076Y-133186852D01*
X150586695Y-133139233D01*
X157697885Y-125398757D02*
X157221694Y-125398757D01*
X157793123Y-125684471D02*
X157459790Y-124684471D01*
X157126456Y-125684471D01*
X156935980Y-124684471D02*
X156364551Y-124684471D01*
X156650266Y-125684471D02*
X156650266Y-124684471D01*
X156031218Y-125684471D02*
X156031218Y-124684471D01*
X155697884Y-125398757D01*
X155364551Y-124684471D01*
X155364551Y-125684471D01*
X154888361Y-125160661D02*
X154555027Y-125160661D01*
X154412170Y-125684471D02*
X154888361Y-125684471D01*
X154888361Y-124684471D01*
X154412170Y-124684471D01*
X153459789Y-124732090D02*
X153555027Y-124684471D01*
X153697884Y-124684471D01*
X153840742Y-124732090D01*
X153935980Y-124827328D01*
X153983599Y-124922566D01*
X154031218Y-125113042D01*
X154031218Y-125255900D01*
X153983599Y-125446376D01*
X153935980Y-125541614D01*
X153840742Y-125636852D01*
X153697884Y-125684471D01*
X153602646Y-125684471D01*
X153459789Y-125636852D01*
X153412170Y-125589233D01*
X153412170Y-125255900D01*
X153602646Y-125255900D01*
X153031218Y-125398757D02*
X152555027Y-125398757D01*
X153126456Y-125684471D02*
X152793123Y-124684471D01*
X152459789Y-125684471D01*
X151602646Y-125684471D02*
X152174075Y-125684471D01*
X151888361Y-125684471D02*
X151888361Y-124684471D01*
X151983599Y-124827328D01*
X152078837Y-124922566D01*
X152174075Y-124970185D01*
X150745503Y-124684471D02*
X150935980Y-124684471D01*
X151031218Y-124732090D01*
X151078837Y-124779709D01*
X151174075Y-124922566D01*
X151221694Y-125113042D01*
X151221694Y-125493995D01*
X151174075Y-125589233D01*
X151126456Y-125636852D01*
X151031218Y-125684471D01*
X150840741Y-125684471D01*
X150745503Y-125636852D01*
X150697884Y-125589233D01*
X150650265Y-125493995D01*
X150650265Y-125255900D01*
X150697884Y-125160661D01*
X150745503Y-125113042D01*
X150840741Y-125065423D01*
X151031218Y-125065423D01*
X151126456Y-125113042D01*
X151174075Y-125160661D01*
X151221694Y-125255900D01*
X150221694Y-124684471D02*
X150221694Y-125493995D01*
X150174075Y-125589233D01*
X150126456Y-125636852D01*
X150031218Y-125684471D01*
X149840741Y-125684471D01*
X149745503Y-125636852D01*
X149697884Y-125589233D01*
X149650265Y-125493995D01*
X149650265Y-124684471D01*
X149221694Y-124779709D02*
X149174075Y-124732090D01*
X149078837Y-124684471D01*
X148840741Y-124684471D01*
X148745503Y-124732090D01*
X148697884Y-124779709D01*
X148650265Y-124874947D01*
X148650265Y-124970185D01*
X148697884Y-125113042D01*
X149269313Y-125684471D01*
X148650265Y-125684471D01*
X148221694Y-125303519D02*
X147459789Y-125303519D01*
X146983599Y-125684471D02*
X146983599Y-124684471D01*
X146650265Y-125398757D01*
X146316932Y-124684471D01*
X146316932Y-125684471D01*
X145840742Y-124684471D02*
X145840742Y-125493995D01*
X145793123Y-125589233D01*
X145745504Y-125636852D01*
X145650266Y-125684471D01*
X145459789Y-125684471D01*
X145364551Y-125636852D01*
X145316932Y-125589233D01*
X145269313Y-125493995D01*
X145269313Y-124684471D01*
D13*
X124036666Y-119013000D02*
X124079000Y-119055333D01*
X124206000Y-119097667D01*
X124290666Y-119097667D01*
X124417666Y-119055333D01*
X124502333Y-118970667D01*
X124544666Y-118886000D01*
X124587000Y-118716667D01*
X124587000Y-118589667D01*
X124544666Y-118420333D01*
X124502333Y-118335667D01*
X124417666Y-118251000D01*
X124290666Y-118208667D01*
X124206000Y-118208667D01*
X124079000Y-118251000D01*
X124036666Y-118293333D01*
X123190000Y-119097667D02*
X123698000Y-119097667D01*
X123444000Y-119097667D02*
X123444000Y-118208667D01*
X123528666Y-118335667D01*
X123613333Y-118420333D01*
X123698000Y-118462667D01*
D15*
X132854096Y-121649762D02*
X132491239Y-121649762D01*
X132672667Y-122284762D02*
X132672667Y-121649762D01*
X132309810Y-122103333D02*
X132007429Y-122103333D01*
X132370286Y-122284762D02*
X132158619Y-121649762D01*
X131946952Y-122284762D01*
X131735286Y-122284762D02*
X131735286Y-121649762D01*
X131372428Y-122284762D01*
X131372428Y-121649762D01*
X131160762Y-121649762D02*
X130797905Y-121649762D01*
X130979333Y-122284762D02*
X130979333Y-121649762D01*
X130616476Y-122103333D02*
X130314095Y-122103333D01*
X130676952Y-122284762D02*
X130465285Y-121649762D01*
X130253618Y-122284762D01*
X129739571Y-122284762D02*
X130041952Y-122284762D01*
X130041952Y-121649762D01*
X129527904Y-121649762D02*
X129527904Y-122163810D01*
X129497665Y-122224286D01*
X129467427Y-122254524D01*
X129406951Y-122284762D01*
X129285999Y-122284762D01*
X129225523Y-122254524D01*
X129195284Y-122224286D01*
X129165046Y-122163810D01*
X129165046Y-121649762D01*
X128862666Y-122284762D02*
X128862666Y-121649762D01*
X128650999Y-122103333D01*
X128439332Y-121649762D01*
X128439332Y-122284762D01*
X128136952Y-122042857D02*
X127653142Y-122042857D01*
X127381000Y-122254524D02*
X127290285Y-122284762D01*
X127139095Y-122284762D01*
X127078619Y-122254524D01*
X127048381Y-122224286D01*
X127018142Y-122163810D01*
X127018142Y-122103333D01*
X127048381Y-122042857D01*
X127078619Y-122012619D01*
X127139095Y-121982381D01*
X127260047Y-121952143D01*
X127320523Y-121921905D01*
X127350762Y-121891667D01*
X127381000Y-121831190D01*
X127381000Y-121770714D01*
X127350762Y-121710238D01*
X127320523Y-121680000D01*
X127260047Y-121649762D01*
X127108857Y-121649762D01*
X127018142Y-121680000D01*
X126746000Y-122284762D02*
X126746000Y-121649762D01*
X126534333Y-122103333D01*
X126322666Y-121649762D01*
X126322666Y-122284762D01*
X126020286Y-122284762D02*
X126020286Y-121649762D01*
X125869095Y-121649762D01*
X125778381Y-121680000D01*
X125717905Y-121740476D01*
X125687666Y-121800952D01*
X125657428Y-121921905D01*
X125657428Y-122012619D01*
X125687666Y-122133571D01*
X125717905Y-122194048D01*
X125778381Y-122254524D01*
X125869095Y-122284762D01*
X126020286Y-122284762D01*
X125385286Y-122042857D02*
X124901476Y-122042857D01*
X124326953Y-121861429D02*
X124326953Y-122284762D01*
X124478143Y-121619524D02*
X124629334Y-122073095D01*
X124236238Y-122073095D01*
X124054810Y-121649762D02*
X123631476Y-121649762D01*
X123903619Y-122284762D01*
X123389572Y-121649762D02*
X123389572Y-122163810D01*
X123359333Y-122224286D01*
X123329095Y-122254524D01*
X123268619Y-122284762D01*
X123147667Y-122284762D01*
X123087191Y-122254524D01*
X123056952Y-122224286D01*
X123026714Y-122163810D01*
X123026714Y-121649762D01*
X122512667Y-121952143D02*
X122724334Y-121952143D01*
X122724334Y-122284762D02*
X122724334Y-121649762D01*
X122421953Y-121649762D01*
X122180048Y-122042857D02*
X121696238Y-122042857D01*
X121121715Y-121649762D02*
X121242667Y-121649762D01*
X121303143Y-121680000D01*
X121333381Y-121710238D01*
X121393858Y-121800952D01*
X121424096Y-121921905D01*
X121424096Y-122163810D01*
X121393858Y-122224286D01*
X121363619Y-122254524D01*
X121303143Y-122284762D01*
X121182191Y-122284762D01*
X121121715Y-122254524D01*
X121091477Y-122224286D01*
X121061238Y-122163810D01*
X121061238Y-122012619D01*
X121091477Y-121952143D01*
X121121715Y-121921905D01*
X121182191Y-121891667D01*
X121303143Y-121891667D01*
X121363619Y-121921905D01*
X121393858Y-121952143D01*
X121424096Y-122012619D01*
X120789096Y-122224286D02*
X120758857Y-122254524D01*
X120789096Y-122284762D01*
X120819334Y-122254524D01*
X120789096Y-122224286D01*
X120789096Y-122284762D01*
X120547191Y-121649762D02*
X120154095Y-121649762D01*
X120365762Y-121891667D01*
X120275048Y-121891667D01*
X120214572Y-121921905D01*
X120184334Y-121952143D01*
X120154095Y-122012619D01*
X120154095Y-122163810D01*
X120184334Y-122224286D01*
X120214572Y-122254524D01*
X120275048Y-122284762D01*
X120456476Y-122284762D01*
X120516953Y-122254524D01*
X120547191Y-122224286D01*
X119972667Y-121649762D02*
X119761000Y-122284762D01*
X119549333Y-121649762D01*
X119488857Y-122345238D02*
X119005047Y-122345238D01*
X118884095Y-122103333D02*
X118581714Y-122103333D01*
X118944571Y-122284762D02*
X118732904Y-121649762D01*
X118521237Y-122284762D01*
X118400285Y-121649762D02*
X118188618Y-122284762D01*
X117976951Y-121649762D01*
X117825761Y-121649762D02*
X117402427Y-122284762D01*
X117402427Y-121649762D02*
X117825761Y-122284762D01*
X117160523Y-122042857D02*
X116676713Y-122042857D01*
X116404571Y-122103333D02*
X116102190Y-122103333D01*
X116465047Y-122284762D02*
X116253380Y-121649762D01*
X116041713Y-122284762D01*
X115981237Y-122345238D02*
X115497427Y-122345238D01*
%LPC*%
D17*
X149284790Y-130797090D02*
X148884790Y-130797090D01*
X149284790Y-130297090D02*
X148884790Y-130297090D01*
X149284790Y-129797091D02*
X148884790Y-129797091D01*
X149284790Y-129297091D02*
X148884790Y-129297091D01*
X149284790Y-128797091D02*
X148884790Y-128797091D01*
X149284790Y-128297091D02*
X148884790Y-128297091D01*
X149284790Y-127797090D02*
X148884790Y-127797090D01*
X149284790Y-127297090D02*
X148884790Y-127297090D01*
X149634790Y-126947090D02*
X149634790Y-126547090D01*
X150134790Y-126947090D02*
X150134790Y-126547090D01*
X150634791Y-126947090D02*
X150634791Y-126547090D01*
X151134791Y-126947090D02*
X151134791Y-126547090D01*
X151634791Y-126947090D02*
X151634791Y-126547090D01*
X152134791Y-126947090D02*
X152134791Y-126547090D01*
X152634790Y-126947090D02*
X152634790Y-126547090D01*
X153134790Y-126947090D02*
X153134790Y-126547090D01*
X153484790Y-127297090D02*
X153884790Y-127297090D01*
X153484790Y-127797090D02*
X153884790Y-127797090D01*
X153484790Y-128297091D02*
X153884790Y-128297091D01*
X153484790Y-128797091D02*
X153884790Y-128797091D01*
X153484790Y-129297091D02*
X153884790Y-129297091D01*
X153484790Y-129797091D02*
X153884790Y-129797091D01*
X153484790Y-130297090D02*
X153884790Y-130297090D01*
X153484790Y-130797090D02*
X153884790Y-130797090D01*
X153134790Y-131147090D02*
X153134790Y-131547090D01*
X152634790Y-131147090D02*
X152634790Y-131547090D01*
X152134791Y-131147090D02*
X152134791Y-131547090D01*
X151634791Y-131147090D02*
X151634791Y-131547090D01*
X151134791Y-131147090D02*
X151134791Y-131547090D01*
X150634791Y-131147090D02*
X150634791Y-131547090D01*
X150134790Y-131147090D02*
X150134790Y-131547090D01*
X149634790Y-131147090D02*
X149634790Y-131547090D01*
D18*
X121671080Y-127803940D03*
X121671080Y-127153700D03*
X121671080Y-126506000D03*
X121671080Y-125858300D03*
X121671080Y-125208060D03*
D19*
X121493280Y-129904520D03*
D20*
X119245380Y-129805460D03*
D21*
X119245380Y-127704880D03*
X119245380Y-125307120D03*
D20*
X119245380Y-123206540D03*
D19*
X121493280Y-123107480D03*
D22*
X165100000Y-112790000D03*
X165100000Y-115330000D03*
X165100000Y-117870000D03*
X165100000Y-120410000D03*
X165100000Y-122950000D03*
X165100000Y-125490000D03*
D23*
X165100000Y-106440000D03*
X165100000Y-108980000D03*
X165100000Y-103900000D03*
X165100000Y-101360000D03*
X165100000Y-98820000D03*
X165100000Y-96280000D03*
X165100000Y-93740000D03*
X165100000Y-91200000D03*
X165100000Y-88660000D03*
X165100000Y-86120000D03*
D24*
X124841000Y-131078000D03*
X127635000Y-131078000D03*
D25*
X126809500Y-128792000D03*
X127698500Y-128792000D03*
X126809500Y-126506000D03*
X127698500Y-126506000D03*
D26*
X121000000Y-135000000D03*
X121000000Y-48000000D03*
X163000000Y-48000000D03*
X163000000Y-135000000D03*
D27*
X129794000Y-122061000D03*
X129794000Y-120283000D03*
X133096000Y-122061000D03*
X133096000Y-120283000D03*
X136398000Y-122061000D03*
X136398000Y-120283000D03*
X139700000Y-122061000D03*
X139700000Y-120283000D03*
X143002000Y-122061000D03*
X143002000Y-120283000D03*
X146304000Y-122061000D03*
X146304000Y-120283000D03*
X149606000Y-122061000D03*
X149606000Y-120283000D03*
X152908000Y-122061000D03*
X152908000Y-120283000D03*
X156972000Y-133491000D03*
X156972000Y-131713000D03*
D28*
X152654000Y-134634000D03*
X152654000Y-136158000D03*
D29*
X144018000Y-133237000D03*
X144018000Y-128919000D03*
D28*
X138684000Y-129808000D03*
X140208000Y-129808000D03*
X138684000Y-132348000D03*
X140208000Y-132348000D03*
D30*
X134716520Y-100217000D03*
X134716520Y-101487000D03*
X134716520Y-102757000D03*
X134716520Y-104027000D03*
X134716520Y-105297000D03*
X134716520Y-106567000D03*
X134716520Y-107837000D03*
X134716520Y-109107000D03*
X134716520Y-110377000D03*
X134716520Y-111647000D03*
X124871480Y-111647000D03*
X124871480Y-110377000D03*
X124871480Y-109107000D03*
X124871480Y-107837000D03*
X124871480Y-106567000D03*
X124871480Y-105297000D03*
X124871480Y-104027000D03*
X124871480Y-102757000D03*
X124871480Y-101487000D03*
X124871480Y-100217000D03*
X134716520Y-83453000D03*
X134716520Y-84723000D03*
X134716520Y-85993000D03*
X134716520Y-87263000D03*
X134716520Y-88533000D03*
X134716520Y-89803000D03*
X134716520Y-91073000D03*
X134716520Y-92343000D03*
X134716520Y-93613000D03*
X134716520Y-94883000D03*
X124871480Y-94883000D03*
X124871480Y-93613000D03*
X124871480Y-92343000D03*
X124871480Y-91073000D03*
X124871480Y-89803000D03*
X124871480Y-88533000D03*
X124871480Y-87263000D03*
X124871480Y-85993000D03*
X124871480Y-84723000D03*
X124871480Y-83453000D03*
X134716520Y-66943000D03*
X134716520Y-68213000D03*
X134716520Y-69483000D03*
X134716520Y-70753000D03*
X134716520Y-72023000D03*
X134716520Y-73293000D03*
X134716520Y-74563000D03*
X134716520Y-75833000D03*
X134716520Y-77103000D03*
X134716520Y-78373000D03*
X124871480Y-78373000D03*
X124871480Y-77103000D03*
X124871480Y-75833000D03*
X124871480Y-74563000D03*
X124871480Y-73293000D03*
X124871480Y-72023000D03*
X124871480Y-70753000D03*
X124871480Y-69483000D03*
X124871480Y-68213000D03*
X124871480Y-66943000D03*
X134716520Y-50179000D03*
X134716520Y-51449000D03*
X134716520Y-52719000D03*
X134716520Y-53989000D03*
X134716520Y-55259000D03*
X134716520Y-56529000D03*
X134716520Y-57799000D03*
X134716520Y-59069000D03*
X134716520Y-60339000D03*
X134716520Y-61609000D03*
X124871480Y-61609000D03*
X124871480Y-60339000D03*
X124871480Y-59069000D03*
X124871480Y-57799000D03*
X124871480Y-56529000D03*
X124871480Y-55259000D03*
X124871480Y-53989000D03*
X124871480Y-52719000D03*
X124871480Y-51449000D03*
X124871480Y-50179000D03*
D31*
X149084000Y-130796000D03*
X149084000Y-130296000D03*
X149084000Y-129796000D03*
X149084000Y-129296000D03*
X149084000Y-128796000D03*
X149084000Y-128296000D03*
X149084000Y-127796000D03*
X149084000Y-127296000D03*
D32*
X149634000Y-126746000D03*
X150134000Y-126746000D03*
X150634000Y-126746000D03*
X151134000Y-126746000D03*
X151634000Y-126746000D03*
X152134000Y-126746000D03*
X152634000Y-126746000D03*
X153134000Y-126746000D03*
D31*
X153684000Y-127296000D03*
X153684000Y-127796000D03*
X153684000Y-128296000D03*
X153684000Y-128796000D03*
X153684000Y-129296000D03*
X153684000Y-129796000D03*
X153684000Y-130296000D03*
X153684000Y-130796000D03*
D32*
X153134000Y-131346000D03*
X152634000Y-131346000D03*
X152134000Y-131346000D03*
X151634000Y-131346000D03*
X151134000Y-131346000D03*
X150634000Y-131346000D03*
X150134000Y-131346000D03*
X149634000Y-131346000D03*
D33*
X151384000Y-129046000D03*
D34*
X125476000Y-120156000D03*
X122936000Y-120156000D03*
M02*
