G75*
%MOIN*%
%OFA0B0*%
%FSLAX25Y25*%
%IPPOS*%
%LPD*%
%AMOC8*
5,1,8,0,0,1.08239X$1,22.5*
%
%ADD10C,0.00000*%
%ADD11C,0.05600*%
%ADD12R,0.11614X0.03937*%
%ADD13C,0.04000*%
%ADD14C,0.04134*%
%ADD15C,0.03562*%
%ADD16C,0.01600*%
%ADD17C,0.02400*%
%ADD18C,0.05600*%
%ADD19C,0.03200*%
%ADD20C,0.15811*%
D10*
X0001000Y0006275D02*
X0001000Y0199189D01*
X0390764Y0199189D01*
X0390764Y0006275D01*
X0001000Y0006275D01*
D11*
X0093608Y0077947D03*
X0093608Y0087947D03*
X0093608Y0097947D03*
X0093608Y0107947D03*
X0093608Y0117947D03*
X0093608Y0127947D03*
X0153608Y0127947D03*
X0169608Y0127947D03*
X0169608Y0117947D03*
X0153608Y0117947D03*
X0153608Y0107947D03*
X0169608Y0107947D03*
X0169608Y0097947D03*
X0153608Y0097947D03*
X0153608Y0087947D03*
X0169608Y0087947D03*
X0169608Y0077947D03*
X0153608Y0077947D03*
X0229608Y0077947D03*
X0245608Y0077947D03*
X0245608Y0087947D03*
X0229608Y0087947D03*
X0229608Y0097947D03*
X0245608Y0097947D03*
X0245608Y0107947D03*
X0229608Y0107947D03*
X0229608Y0117947D03*
X0245608Y0117947D03*
X0245608Y0127947D03*
X0229608Y0127947D03*
X0305608Y0127947D03*
X0321669Y0127761D03*
X0321669Y0117761D03*
X0305608Y0117947D03*
X0305608Y0107947D03*
X0321669Y0107761D03*
X0321669Y0097761D03*
X0305608Y0097947D03*
X0305608Y0087947D03*
X0321669Y0087761D03*
X0321669Y0077761D03*
X0305608Y0077947D03*
X0381669Y0077761D03*
X0381669Y0087761D03*
X0381669Y0097761D03*
X0381669Y0107761D03*
X0381669Y0117761D03*
X0381669Y0127761D03*
D12*
X0079583Y0140063D03*
X0060686Y0140063D03*
D13*
X0039276Y0140063D01*
X0039031Y0140307D01*
X0074531Y0135011D02*
X0074531Y0124807D01*
X0074531Y0107941D01*
X0075803Y0106669D01*
X0075394Y0106669D01*
X0075031Y0106307D01*
X0074531Y0135011D02*
X0079583Y0140063D01*
D14*
X0039031Y0140307D03*
D15*
X0045531Y0145307D03*
X0023205Y0162260D03*
X0047972Y0184079D03*
X0053572Y0188110D03*
X0062972Y0179547D03*
X0072772Y0188110D03*
X0100531Y0170307D03*
X0121472Y0179547D03*
X0131472Y0184079D03*
X0106472Y0188110D03*
X0126531Y0165307D03*
X0147531Y0164307D03*
X0147531Y0152307D03*
X0177031Y0146807D03*
X0200531Y0165807D03*
X0222031Y0163807D03*
X0222031Y0152307D03*
X0253031Y0145307D03*
X0278031Y0165307D03*
X0299031Y0164307D03*
X0299031Y0151807D03*
X0331031Y0145307D03*
X0355031Y0165307D03*
X0364531Y0166307D03*
X0375031Y0166307D03*
X0349531Y0179807D03*
X0359602Y0188307D03*
X0328531Y0170307D03*
X0282972Y0183579D03*
X0272972Y0179547D03*
X0258031Y0188307D03*
X0251531Y0170807D03*
X0205472Y0188110D03*
X0195472Y0179547D03*
X0180472Y0184079D03*
X0174531Y0170807D03*
X0103031Y0146307D03*
X0068031Y0164807D03*
X0074531Y0124807D03*
X0084031Y0122807D03*
X0075031Y0106307D03*
X0084531Y0102807D03*
X0074531Y0089807D03*
X0051031Y0095507D03*
X0041031Y0106307D03*
X0017031Y0124307D03*
X0020831Y0075907D03*
X0071031Y0057507D03*
X0041282Y0027113D03*
X0032031Y0027707D03*
X0015631Y0040707D03*
D16*
X0050181Y0077957D02*
X0070631Y0057507D01*
X0071031Y0057507D01*
X0051031Y0095507D02*
X0031431Y0075907D01*
X0020831Y0075907D01*
X0041031Y0106307D02*
X0075031Y0106307D01*
X0084531Y0102807D02*
X0148748Y0102807D01*
X0153608Y0097947D01*
X0159672Y0097947D01*
X0164531Y0102807D01*
X0224748Y0102807D01*
X0229608Y0097947D01*
X0235672Y0097947D01*
X0240531Y0102807D01*
X0300748Y0102807D01*
X0305608Y0097947D01*
X0309172Y0097947D01*
X0314031Y0102807D01*
X0376623Y0102807D01*
X0381669Y0097761D01*
X0331031Y0141859D02*
X0330031Y0140859D01*
X0331031Y0141859D02*
X0331031Y0145307D01*
X0328531Y0147807D01*
X0328531Y0170307D01*
X0349531Y0179547D02*
X0272972Y0179547D01*
X0195472Y0179547D01*
X0121472Y0179547D01*
X0062972Y0179547D01*
X0040492Y0179547D01*
X0023205Y0162260D01*
X0045531Y0145307D02*
X0061031Y0145307D01*
X0068031Y0152307D01*
X0068031Y0151615D01*
X0079583Y0140063D01*
X0100531Y0148807D02*
X0103031Y0146307D01*
X0103031Y0141859D01*
X0102031Y0140859D01*
X0100531Y0148807D02*
X0100531Y0170307D01*
X0126531Y0165307D02*
X0126531Y0141359D01*
X0126031Y0140859D01*
X0147531Y0152307D02*
X0147531Y0164307D01*
X0174531Y0170807D02*
X0174531Y0149307D01*
X0177031Y0146807D01*
X0177031Y0141359D01*
X0176531Y0140859D01*
X0200531Y0140859D02*
X0200531Y0165807D01*
X0222031Y0163807D02*
X0222031Y0152307D01*
X0251531Y0146807D02*
X0253031Y0145307D01*
X0253031Y0141859D01*
X0254031Y0140859D01*
X0251531Y0146807D02*
X0251531Y0170807D01*
X0278031Y0165307D02*
X0278031Y0141859D01*
X0277031Y0140859D01*
X0299031Y0151807D02*
X0299031Y0164307D01*
X0282972Y0183579D02*
X0180472Y0183579D01*
X0180472Y0184079D01*
X0205472Y0188110D02*
X0106472Y0188110D01*
X0131472Y0184079D02*
X0047972Y0184079D01*
X0053572Y0188110D02*
X0072772Y0188110D01*
X0062972Y0179547D02*
X0062937Y0179583D01*
X0062972Y0179547D02*
X0062872Y0179447D01*
X0068031Y0164807D02*
X0068031Y0152307D01*
X0039031Y0140307D02*
X0022031Y0124307D01*
X0017031Y0124307D01*
X0258031Y0188307D02*
X0359602Y0188307D01*
X0349531Y0179807D02*
X0349531Y0179547D01*
X0364531Y0166307D02*
X0375031Y0166307D01*
X0355031Y0165307D02*
X0355031Y0147307D01*
D17*
X0375339Y0138407D02*
X0310815Y0138407D01*
X0309492Y0137859D01*
X0308480Y0136846D01*
X0305140Y0133506D01*
X0301287Y0137359D01*
X0299964Y0137907D01*
X0235315Y0137907D01*
X0233992Y0137359D01*
X0232980Y0136346D01*
X0229780Y0133147D01*
X0229499Y0133147D01*
X0225287Y0137359D01*
X0223964Y0137907D01*
X0159315Y0137907D01*
X0157992Y0137359D01*
X0156980Y0136346D01*
X0153780Y0133147D01*
X0153499Y0133147D01*
X0149287Y0137359D01*
X0147964Y0137907D01*
X0087591Y0137907D01*
X0087591Y0140063D01*
X0087591Y0142321D01*
X0087441Y0142881D01*
X0087151Y0143382D01*
X0086741Y0143792D01*
X0086240Y0144081D01*
X0085680Y0144231D01*
X0079584Y0144231D01*
X0079584Y0140063D01*
X0087591Y0140063D01*
X0079584Y0140063D01*
X0079584Y0140063D01*
X0079583Y0140063D01*
X0079583Y0140063D01*
X0071576Y0140063D01*
X0071576Y0142321D01*
X0071726Y0142881D01*
X0072016Y0143382D01*
X0072426Y0143792D01*
X0072927Y0144081D01*
X0073487Y0144231D01*
X0079583Y0144231D01*
X0079583Y0140063D01*
X0071576Y0140063D01*
X0071576Y0137805D01*
X0071726Y0137245D01*
X0072016Y0136744D01*
X0072426Y0136334D01*
X0072927Y0136044D01*
X0073487Y0135894D01*
X0079583Y0135894D01*
X0079583Y0140063D01*
X0079584Y0140063D01*
X0079584Y0135894D01*
X0083528Y0135894D01*
X0080980Y0133346D01*
X0080431Y0132023D01*
X0080431Y0125042D01*
X0079850Y0123639D01*
X0079850Y0121975D01*
X0080487Y0120439D01*
X0081663Y0119262D01*
X0083200Y0118626D01*
X0084863Y0118626D01*
X0086400Y0119262D01*
X0087576Y0120439D01*
X0088213Y0121975D01*
X0088213Y0123639D01*
X0087631Y0125042D01*
X0087631Y0129816D01*
X0088523Y0130707D01*
X0089123Y0130707D01*
X0088408Y0128981D01*
X0088408Y0126913D01*
X0089200Y0125002D01*
X0090662Y0123539D01*
X0092091Y0122947D01*
X0090662Y0122355D01*
X0089200Y0120893D01*
X0088408Y0118981D01*
X0088408Y0116913D01*
X0089200Y0115002D01*
X0090662Y0113539D01*
X0092091Y0112947D01*
X0090662Y0112355D01*
X0089200Y0110893D01*
X0088408Y0108981D01*
X0088408Y0106913D01*
X0088783Y0106007D01*
X0087244Y0106007D01*
X0086900Y0106352D01*
X0085363Y0106988D01*
X0083700Y0106988D01*
X0082163Y0106352D01*
X0080987Y0105175D01*
X0080350Y0103639D01*
X0080350Y0101975D01*
X0080987Y0100439D01*
X0082163Y0099262D01*
X0083700Y0098626D01*
X0085363Y0098626D01*
X0086900Y0099262D01*
X0087244Y0099607D01*
X0088667Y0099607D01*
X0088408Y0098981D01*
X0088408Y0096913D01*
X0089200Y0095002D01*
X0090662Y0093539D01*
X0092091Y0092947D01*
X0090662Y0092355D01*
X0089200Y0090893D01*
X0088408Y0088981D01*
X0088408Y0086913D01*
X0089200Y0085002D01*
X0090662Y0083539D01*
X0092091Y0082947D01*
X0090662Y0082355D01*
X0089200Y0080893D01*
X0088408Y0078981D01*
X0088408Y0076913D01*
X0089200Y0075002D01*
X0090662Y0073539D01*
X0092574Y0072747D01*
X0094642Y0072747D01*
X0096553Y0073539D01*
X0098016Y0075002D01*
X0098808Y0076913D01*
X0098808Y0078981D01*
X0098016Y0080893D01*
X0096553Y0082355D01*
X0095125Y0082947D01*
X0096553Y0083539D01*
X0098016Y0085002D01*
X0098808Y0086913D01*
X0098808Y0088981D01*
X0098016Y0090893D01*
X0096553Y0092355D01*
X0095125Y0092947D01*
X0096553Y0093539D01*
X0098016Y0095002D01*
X0098808Y0096913D01*
X0098808Y0098981D01*
X0098549Y0099607D01*
X0147423Y0099607D01*
X0148408Y0098622D01*
X0148408Y0096913D01*
X0149200Y0095002D01*
X0150662Y0093539D01*
X0152091Y0092947D01*
X0150662Y0092355D01*
X0149200Y0090893D01*
X0148408Y0088981D01*
X0148408Y0086913D01*
X0149200Y0085002D01*
X0150662Y0083539D01*
X0152091Y0082947D01*
X0150662Y0082355D01*
X0149200Y0080893D01*
X0148408Y0078981D01*
X0148408Y0076913D01*
X0149200Y0075002D01*
X0150662Y0073539D01*
X0152574Y0072747D01*
X0154642Y0072747D01*
X0156553Y0073539D01*
X0158016Y0075002D01*
X0158808Y0076913D01*
X0158808Y0078981D01*
X0158016Y0080893D01*
X0156553Y0082355D01*
X0155125Y0082947D01*
X0156553Y0083539D01*
X0158016Y0085002D01*
X0158808Y0086913D01*
X0158808Y0088981D01*
X0158016Y0090893D01*
X0156553Y0092355D01*
X0155125Y0092947D01*
X0156553Y0093539D01*
X0157762Y0094747D01*
X0160308Y0094747D01*
X0161484Y0095234D01*
X0164408Y0098158D01*
X0164408Y0096913D01*
X0165200Y0095002D01*
X0166662Y0093539D01*
X0168091Y0092947D01*
X0166662Y0092355D01*
X0165200Y0090893D01*
X0164408Y0088981D01*
X0164408Y0086913D01*
X0165200Y0085002D01*
X0166662Y0083539D01*
X0168091Y0082947D01*
X0166662Y0082355D01*
X0165200Y0080893D01*
X0164408Y0078981D01*
X0164408Y0076913D01*
X0165200Y0075002D01*
X0166662Y0073539D01*
X0168574Y0072747D01*
X0170642Y0072747D01*
X0172553Y0073539D01*
X0174016Y0075002D01*
X0174808Y0076913D01*
X0174808Y0078981D01*
X0174016Y0080893D01*
X0172553Y0082355D01*
X0171125Y0082947D01*
X0172553Y0083539D01*
X0174016Y0085002D01*
X0174808Y0086913D01*
X0174808Y0088981D01*
X0174016Y0090893D01*
X0172553Y0092355D01*
X0171125Y0092947D01*
X0172553Y0093539D01*
X0174016Y0095002D01*
X0174808Y0096913D01*
X0174808Y0098981D01*
X0174549Y0099607D01*
X0223423Y0099607D01*
X0224408Y0098622D01*
X0224408Y0096913D01*
X0225200Y0095002D01*
X0226662Y0093539D01*
X0228091Y0092947D01*
X0226662Y0092355D01*
X0225200Y0090893D01*
X0224408Y0088981D01*
X0224408Y0086913D01*
X0225200Y0085002D01*
X0226662Y0083539D01*
X0228091Y0082947D01*
X0226662Y0082355D01*
X0225200Y0080893D01*
X0224408Y0078981D01*
X0224408Y0076913D01*
X0225200Y0075002D01*
X0226662Y0073539D01*
X0228574Y0072747D01*
X0230642Y0072747D01*
X0232553Y0073539D01*
X0234016Y0075002D01*
X0234808Y0076913D01*
X0234808Y0078981D01*
X0234016Y0080893D01*
X0232553Y0082355D01*
X0231125Y0082947D01*
X0232553Y0083539D01*
X0234016Y0085002D01*
X0234808Y0086913D01*
X0234808Y0088981D01*
X0234016Y0090893D01*
X0232553Y0092355D01*
X0231125Y0092947D01*
X0232553Y0093539D01*
X0233762Y0094747D01*
X0236308Y0094747D01*
X0237484Y0095234D01*
X0240408Y0098158D01*
X0240408Y0096913D01*
X0241200Y0095002D01*
X0242662Y0093539D01*
X0244091Y0092947D01*
X0242662Y0092355D01*
X0241200Y0090893D01*
X0240408Y0088981D01*
X0240408Y0086913D01*
X0241200Y0085002D01*
X0242662Y0083539D01*
X0244091Y0082947D01*
X0242662Y0082355D01*
X0241200Y0080893D01*
X0240408Y0078981D01*
X0240408Y0076913D01*
X0241200Y0075002D01*
X0242662Y0073539D01*
X0244574Y0072747D01*
X0246642Y0072747D01*
X0248553Y0073539D01*
X0250016Y0075002D01*
X0250808Y0076913D01*
X0250808Y0078981D01*
X0250016Y0080893D01*
X0248553Y0082355D01*
X0247125Y0082947D01*
X0248553Y0083539D01*
X0250016Y0085002D01*
X0250808Y0086913D01*
X0250808Y0088981D01*
X0250016Y0090893D01*
X0248553Y0092355D01*
X0247125Y0092947D01*
X0248553Y0093539D01*
X0250016Y0095002D01*
X0250808Y0096913D01*
X0250808Y0098981D01*
X0250549Y0099607D01*
X0299423Y0099607D01*
X0300408Y0098622D01*
X0300408Y0096913D01*
X0301200Y0095002D01*
X0302662Y0093539D01*
X0304091Y0092947D01*
X0302662Y0092355D01*
X0301200Y0090893D01*
X0300408Y0088981D01*
X0300408Y0086913D01*
X0301200Y0085002D01*
X0302662Y0083539D01*
X0304091Y0082947D01*
X0302662Y0082355D01*
X0301200Y0080893D01*
X0300408Y0078981D01*
X0300408Y0076913D01*
X0301200Y0075002D01*
X0302662Y0073539D01*
X0304574Y0072747D01*
X0306642Y0072747D01*
X0308553Y0073539D01*
X0310016Y0075002D01*
X0310808Y0076913D01*
X0310808Y0078981D01*
X0310016Y0080893D01*
X0308553Y0082355D01*
X0307125Y0082947D01*
X0308553Y0083539D01*
X0310016Y0085002D01*
X0310808Y0086913D01*
X0310808Y0088981D01*
X0310016Y0090893D01*
X0308553Y0092355D01*
X0307125Y0092947D01*
X0308553Y0093539D01*
X0309762Y0094747D01*
X0309808Y0094747D01*
X0310984Y0095234D01*
X0315357Y0099607D01*
X0316806Y0099607D01*
X0316469Y0098795D01*
X0316469Y0096726D01*
X0317261Y0094815D01*
X0318724Y0093352D01*
X0320152Y0092761D01*
X0318724Y0092169D01*
X0317261Y0090706D01*
X0316469Y0088795D01*
X0316469Y0086726D01*
X0317261Y0084815D01*
X0318724Y0083352D01*
X0320152Y0082761D01*
X0318724Y0082169D01*
X0317261Y0080706D01*
X0316469Y0078795D01*
X0316469Y0076726D01*
X0317261Y0074815D01*
X0318724Y0073352D01*
X0320635Y0072561D01*
X0322704Y0072561D01*
X0324615Y0073352D01*
X0326078Y0074815D01*
X0326869Y0076726D01*
X0326869Y0078795D01*
X0326078Y0080706D01*
X0324615Y0082169D01*
X0323186Y0082761D01*
X0324615Y0083352D01*
X0326078Y0084815D01*
X0326869Y0086726D01*
X0326869Y0088795D01*
X0326078Y0090706D01*
X0324615Y0092169D01*
X0323186Y0092761D01*
X0324615Y0093352D01*
X0326078Y0094815D01*
X0326869Y0096726D01*
X0326869Y0098795D01*
X0326533Y0099607D01*
X0375297Y0099607D01*
X0376469Y0098435D01*
X0376469Y0096726D01*
X0377261Y0094815D01*
X0378724Y0093352D01*
X0380152Y0092761D01*
X0378724Y0092169D01*
X0377261Y0090706D01*
X0376469Y0088795D01*
X0376469Y0086726D01*
X0377261Y0084815D01*
X0378724Y0083352D01*
X0380152Y0082761D01*
X0378724Y0082169D01*
X0377261Y0080706D01*
X0376469Y0078795D01*
X0376469Y0076726D01*
X0377261Y0074815D01*
X0378724Y0073352D01*
X0380635Y0072561D01*
X0382704Y0072561D01*
X0384615Y0073352D01*
X0386078Y0074815D01*
X0386869Y0076726D01*
X0386869Y0078795D01*
X0386078Y0080706D01*
X0384615Y0082169D01*
X0383186Y0082761D01*
X0384615Y0083352D01*
X0386078Y0084815D01*
X0386869Y0086726D01*
X0386869Y0088795D01*
X0386078Y0090706D01*
X0384615Y0092169D01*
X0383186Y0092761D01*
X0384615Y0093352D01*
X0386078Y0094815D01*
X0386869Y0096726D01*
X0386869Y0098795D01*
X0386078Y0100706D01*
X0384615Y0102169D01*
X0383186Y0102761D01*
X0384615Y0103352D01*
X0386078Y0104815D01*
X0386869Y0106726D01*
X0386869Y0108795D01*
X0386078Y0110706D01*
X0384615Y0112169D01*
X0383186Y0112761D01*
X0384615Y0113352D01*
X0386078Y0114815D01*
X0386869Y0116726D01*
X0386869Y0118795D01*
X0386078Y0120706D01*
X0384615Y0122169D01*
X0383186Y0122761D01*
X0384615Y0123352D01*
X0386078Y0124815D01*
X0386869Y0126726D01*
X0386869Y0128795D01*
X0386078Y0130706D01*
X0384615Y0132169D01*
X0382704Y0132961D01*
X0381560Y0132961D01*
X0376662Y0137859D01*
X0375339Y0138407D01*
X0375854Y0138194D02*
X0388364Y0138194D01*
X0388364Y0140592D02*
X0087591Y0140592D01*
X0087591Y0138194D02*
X0310300Y0138194D01*
X0311531Y0134807D02*
X0374623Y0134807D01*
X0381669Y0127761D01*
X0386652Y0126201D02*
X0388364Y0126201D01*
X0388364Y0128600D02*
X0386869Y0128600D01*
X0385786Y0130998D02*
X0388364Y0130998D01*
X0388364Y0133397D02*
X0381124Y0133397D01*
X0378726Y0135795D02*
X0388364Y0135795D01*
X0388364Y0142991D02*
X0087377Y0142991D01*
X0079584Y0142991D02*
X0079583Y0142991D01*
X0079583Y0140592D02*
X0079584Y0140592D01*
X0079583Y0138194D02*
X0079584Y0138194D01*
X0083428Y0135795D02*
X0067213Y0135795D01*
X0066970Y0135694D02*
X0061637Y0135694D01*
X0061561Y0135663D01*
X0038766Y0135663D01*
X0024260Y0122010D01*
X0023844Y0121594D01*
X0023798Y0121575D01*
X0023761Y0121540D01*
X0023211Y0121332D01*
X0022668Y0121107D01*
X0022618Y0121107D01*
X0022571Y0121089D01*
X0021983Y0121107D01*
X0019744Y0121107D01*
X0019400Y0120762D01*
X0017863Y0120126D01*
X0016200Y0120126D01*
X0014663Y0120762D01*
X0013487Y0121939D01*
X0012850Y0123475D01*
X0012850Y0125139D01*
X0013487Y0126675D01*
X0014663Y0127852D01*
X0016200Y0128488D01*
X0017863Y0128488D01*
X0019400Y0127852D01*
X0019744Y0127507D01*
X0020762Y0127507D01*
X0034565Y0140497D01*
X0034565Y0141195D01*
X0035245Y0142837D01*
X0036501Y0144094D01*
X0038143Y0144774D01*
X0039920Y0144774D01*
X0040671Y0144463D01*
X0061561Y0144463D01*
X0061637Y0144431D01*
X0066970Y0144431D01*
X0067852Y0144066D01*
X0068528Y0143391D01*
X0068893Y0142509D01*
X0068893Y0137617D01*
X0068528Y0136735D01*
X0067852Y0136060D01*
X0066970Y0135694D01*
X0068893Y0138194D02*
X0071576Y0138194D01*
X0071576Y0140592D02*
X0068893Y0140592D01*
X0068693Y0142991D02*
X0071790Y0142991D01*
X0084031Y0131307D02*
X0087031Y0134307D01*
X0147248Y0134307D01*
X0153608Y0127947D01*
X0153672Y0127947D01*
X0160031Y0134307D01*
X0223248Y0134307D01*
X0229608Y0127947D01*
X0229672Y0127947D01*
X0236031Y0134307D01*
X0299248Y0134307D01*
X0305608Y0127947D01*
X0305608Y0128883D01*
X0311531Y0134807D01*
X0307428Y0135795D02*
X0302851Y0135795D01*
X0299863Y0147626D02*
X0301400Y0148262D01*
X0302576Y0149439D01*
X0303213Y0150975D01*
X0303213Y0152639D01*
X0302576Y0154175D01*
X0302231Y0154520D01*
X0302231Y0161594D01*
X0302576Y0161939D01*
X0303213Y0163475D01*
X0303213Y0165139D01*
X0302576Y0166675D01*
X0301400Y0167852D01*
X0299863Y0168488D01*
X0298200Y0168488D01*
X0296663Y0167852D01*
X0295487Y0166675D01*
X0294850Y0165139D01*
X0294850Y0163475D01*
X0295487Y0161939D01*
X0295831Y0161594D01*
X0295831Y0154520D01*
X0295487Y0154175D01*
X0294850Y0152639D01*
X0294850Y0150975D01*
X0295487Y0149439D01*
X0296663Y0148262D01*
X0298200Y0147626D01*
X0299863Y0147626D01*
X0300254Y0147788D02*
X0388364Y0147788D01*
X0388364Y0145389D02*
X0003400Y0145389D01*
X0003400Y0142991D02*
X0035398Y0142991D01*
X0034565Y0140592D02*
X0003400Y0140592D01*
X0003400Y0138194D02*
X0032117Y0138194D01*
X0029569Y0135795D02*
X0003400Y0135795D01*
X0003400Y0133397D02*
X0027020Y0133397D01*
X0024472Y0130998D02*
X0003400Y0130998D01*
X0003400Y0128600D02*
X0021923Y0128600D01*
X0028713Y0126201D02*
X0080431Y0126201D01*
X0080431Y0128600D02*
X0031261Y0128600D01*
X0033810Y0130998D02*
X0080431Y0130998D01*
X0081030Y0133397D02*
X0036358Y0133397D01*
X0026165Y0123803D02*
X0079918Y0123803D01*
X0080087Y0121404D02*
X0023401Y0121404D01*
X0014021Y0121404D02*
X0003400Y0121404D01*
X0003400Y0119006D02*
X0082283Y0119006D01*
X0085780Y0119006D02*
X0088418Y0119006D01*
X0088535Y0116607D02*
X0003400Y0116607D01*
X0003400Y0114208D02*
X0089993Y0114208D01*
X0090117Y0111810D02*
X0003400Y0111810D01*
X0003400Y0109411D02*
X0088586Y0109411D01*
X0088408Y0107013D02*
X0003400Y0107013D01*
X0003400Y0104614D02*
X0080755Y0104614D01*
X0080350Y0102216D02*
X0003400Y0102216D01*
X0003400Y0099817D02*
X0081608Y0099817D01*
X0088408Y0097419D02*
X0054765Y0097419D01*
X0054576Y0097875D02*
X0053400Y0099052D01*
X0051863Y0099688D01*
X0050200Y0099688D01*
X0048663Y0099052D01*
X0047487Y0097875D01*
X0046850Y0096339D01*
X0046850Y0095851D01*
X0030106Y0079107D01*
X0023544Y0079107D01*
X0023200Y0079452D01*
X0021663Y0080088D01*
X0020000Y0080088D01*
X0018463Y0079452D01*
X0017287Y0078275D01*
X0016650Y0076739D01*
X0016650Y0075075D01*
X0017287Y0073539D01*
X0018463Y0072362D01*
X0020000Y0071726D01*
X0021663Y0071726D01*
X0023200Y0072362D01*
X0023544Y0072707D01*
X0032068Y0072707D01*
X0033244Y0073194D01*
X0051376Y0091326D01*
X0051863Y0091326D01*
X0053400Y0091962D01*
X0054576Y0093139D01*
X0055213Y0094675D01*
X0055213Y0096339D01*
X0054576Y0097875D01*
X0055213Y0095020D02*
X0089192Y0095020D01*
X0091305Y0092622D02*
X0054059Y0092622D01*
X0050273Y0090223D02*
X0088922Y0090223D01*
X0088408Y0087825D02*
X0047875Y0087825D01*
X0045476Y0085426D02*
X0089024Y0085426D01*
X0091896Y0083028D02*
X0043078Y0083028D01*
X0040679Y0080629D02*
X0089090Y0080629D01*
X0088408Y0078231D02*
X0038281Y0078231D01*
X0031628Y0080629D02*
X0003400Y0080629D01*
X0003400Y0078231D02*
X0017268Y0078231D01*
X0016650Y0075832D02*
X0003400Y0075832D01*
X0003400Y0073434D02*
X0017392Y0073434D01*
X0003400Y0071035D02*
X0388364Y0071035D01*
X0388364Y0068637D02*
X0003400Y0068637D01*
X0003400Y0066238D02*
X0388364Y0066238D01*
X0388364Y0063840D02*
X0003400Y0063840D01*
X0003400Y0061441D02*
X0388364Y0061441D01*
X0388364Y0059043D02*
X0003400Y0059043D01*
X0003400Y0056644D02*
X0388364Y0056644D01*
X0388364Y0054246D02*
X0003400Y0054246D01*
X0003400Y0051847D02*
X0388364Y0051847D01*
X0388364Y0049449D02*
X0003400Y0049449D01*
X0003400Y0047050D02*
X0388364Y0047050D01*
X0388364Y0044652D02*
X0003400Y0044652D01*
X0003400Y0042253D02*
X0388364Y0042253D01*
X0388364Y0039855D02*
X0003400Y0039855D01*
X0003400Y0037456D02*
X0388364Y0037456D01*
X0388364Y0035058D02*
X0003400Y0035058D01*
X0003400Y0032659D02*
X0388364Y0032659D01*
X0388364Y0030261D02*
X0378714Y0030261D01*
X0378341Y0030361D02*
X0375627Y0030361D01*
X0373006Y0029658D01*
X0370657Y0028301D01*
X0368738Y0026383D01*
X0367381Y0024033D01*
X0366679Y0021412D01*
X0366679Y0018698D01*
X0367381Y0016077D01*
X0368738Y0013727D01*
X0370657Y0011809D01*
X0373006Y0010452D01*
X0375627Y0009749D01*
X0378341Y0009749D01*
X0380962Y0010452D01*
X0383312Y0011809D01*
X0385231Y0013727D01*
X0386587Y0016077D01*
X0387290Y0018698D01*
X0387290Y0021412D01*
X0386587Y0024033D01*
X0385231Y0026383D01*
X0383312Y0028301D01*
X0380962Y0029658D01*
X0378341Y0030361D01*
X0375255Y0030261D02*
X0016509Y0030261D01*
X0016136Y0030361D02*
X0013423Y0030361D01*
X0010802Y0029658D01*
X0008452Y0028301D01*
X0006533Y0026383D01*
X0005176Y0024033D01*
X0004474Y0021412D01*
X0004474Y0018698D01*
X0005176Y0016077D01*
X0006533Y0013727D01*
X0008452Y0011809D01*
X0010802Y0010452D01*
X0013423Y0009749D01*
X0016136Y0009749D01*
X0018757Y0010452D01*
X0021107Y0011809D01*
X0023026Y0013727D01*
X0024383Y0016077D01*
X0025085Y0018698D01*
X0025085Y0021412D01*
X0024383Y0024033D01*
X0023026Y0026383D01*
X0021107Y0028301D01*
X0018757Y0029658D01*
X0016136Y0030361D01*
X0013050Y0030261D02*
X0003400Y0030261D01*
X0003400Y0027862D02*
X0008012Y0027862D01*
X0006002Y0025464D02*
X0003400Y0025464D01*
X0003400Y0023065D02*
X0004917Y0023065D01*
X0004474Y0020667D02*
X0003400Y0020667D01*
X0003400Y0018268D02*
X0004589Y0018268D01*
X0005296Y0015870D02*
X0003400Y0015870D01*
X0003400Y0013471D02*
X0006789Y0013471D01*
X0009727Y0011073D02*
X0003400Y0011073D01*
X0003400Y0008675D02*
X0003400Y0196789D01*
X0388364Y0196789D01*
X0388364Y0008675D01*
X0003400Y0008675D01*
X0019832Y0011073D02*
X0371931Y0011073D01*
X0368994Y0013471D02*
X0022770Y0013471D01*
X0024263Y0015870D02*
X0367501Y0015870D01*
X0366794Y0018268D02*
X0024970Y0018268D01*
X0025085Y0020667D02*
X0366679Y0020667D01*
X0367122Y0023065D02*
X0024642Y0023065D01*
X0023557Y0025464D02*
X0368207Y0025464D01*
X0370217Y0027862D02*
X0021547Y0027862D01*
X0033484Y0073434D02*
X0090916Y0073434D01*
X0088855Y0075832D02*
X0035882Y0075832D01*
X0034027Y0083028D02*
X0003400Y0083028D01*
X0003400Y0085426D02*
X0036425Y0085426D01*
X0038824Y0087825D02*
X0003400Y0087825D01*
X0003400Y0090223D02*
X0041222Y0090223D01*
X0043621Y0092622D02*
X0003400Y0092622D01*
X0003400Y0095020D02*
X0046019Y0095020D01*
X0047298Y0097419D02*
X0003400Y0097419D01*
X0003400Y0123803D02*
X0012850Y0123803D01*
X0013290Y0126201D02*
X0003400Y0126201D01*
X0003400Y0147788D02*
X0297809Y0147788D01*
X0295177Y0150186D02*
X0225679Y0150186D01*
X0225576Y0149939D02*
X0226213Y0151475D01*
X0226213Y0153139D01*
X0225576Y0154675D01*
X0225231Y0155020D01*
X0225231Y0161094D01*
X0225576Y0161439D01*
X0226213Y0162975D01*
X0226213Y0164639D01*
X0225576Y0166175D01*
X0224400Y0167352D01*
X0222863Y0167988D01*
X0221200Y0167988D01*
X0219663Y0167352D01*
X0218487Y0166175D01*
X0217850Y0164639D01*
X0217850Y0162975D01*
X0218487Y0161439D01*
X0218831Y0161094D01*
X0218831Y0155020D01*
X0218487Y0154675D01*
X0217850Y0153139D01*
X0217850Y0151475D01*
X0218487Y0149939D01*
X0219663Y0148762D01*
X0221200Y0148126D01*
X0222863Y0148126D01*
X0224400Y0148762D01*
X0225576Y0149939D01*
X0226213Y0152585D02*
X0294850Y0152585D01*
X0295831Y0154983D02*
X0225268Y0154983D01*
X0225231Y0157382D02*
X0295831Y0157382D01*
X0295831Y0159780D02*
X0225231Y0159780D01*
X0225883Y0162179D02*
X0295387Y0162179D01*
X0294850Y0164577D02*
X0226213Y0164577D01*
X0224776Y0166976D02*
X0295787Y0166976D01*
X0302276Y0166976D02*
X0360350Y0166976D01*
X0360350Y0167139D02*
X0360350Y0165475D01*
X0360987Y0163939D01*
X0362163Y0162762D01*
X0363700Y0162126D01*
X0365363Y0162126D01*
X0366900Y0162762D01*
X0367244Y0163107D01*
X0372319Y0163107D01*
X0372663Y0162762D01*
X0374200Y0162126D01*
X0375863Y0162126D01*
X0377400Y0162762D01*
X0378576Y0163939D01*
X0379213Y0165475D01*
X0379213Y0167139D01*
X0378576Y0168675D01*
X0377400Y0169852D01*
X0375863Y0170488D01*
X0374200Y0170488D01*
X0372663Y0169852D01*
X0372319Y0169507D01*
X0367244Y0169507D01*
X0366900Y0169852D01*
X0365363Y0170488D01*
X0363700Y0170488D01*
X0362163Y0169852D01*
X0360987Y0168675D01*
X0360350Y0167139D01*
X0360722Y0164577D02*
X0303213Y0164577D01*
X0302676Y0162179D02*
X0363572Y0162179D01*
X0365491Y0162179D02*
X0374072Y0162179D01*
X0375991Y0162179D02*
X0388364Y0162179D01*
X0388364Y0164577D02*
X0378841Y0164577D01*
X0379213Y0166976D02*
X0388364Y0166976D01*
X0388364Y0169374D02*
X0377877Y0169374D01*
X0378341Y0175104D02*
X0375627Y0175104D01*
X0373006Y0175806D01*
X0370657Y0177163D01*
X0368738Y0179082D01*
X0367381Y0181432D01*
X0366679Y0184053D01*
X0366679Y0186766D01*
X0367381Y0189387D01*
X0368738Y0191737D01*
X0370657Y0193656D01*
X0373006Y0195013D01*
X0375627Y0195715D01*
X0378341Y0195715D01*
X0380962Y0195013D01*
X0383312Y0193656D01*
X0385231Y0191737D01*
X0386587Y0189387D01*
X0387290Y0186766D01*
X0387290Y0184053D01*
X0386587Y0181432D01*
X0385231Y0179082D01*
X0383312Y0177163D01*
X0380962Y0175806D01*
X0378341Y0175104D01*
X0382285Y0176570D02*
X0388364Y0176570D01*
X0388364Y0178968D02*
X0385117Y0178968D01*
X0386550Y0181367D02*
X0388364Y0181367D01*
X0388364Y0183765D02*
X0387213Y0183765D01*
X0387290Y0186164D02*
X0388364Y0186164D01*
X0388364Y0188562D02*
X0386808Y0188562D01*
X0385679Y0190961D02*
X0388364Y0190961D01*
X0388364Y0193359D02*
X0383608Y0193359D01*
X0388364Y0195758D02*
X0003400Y0195758D01*
X0003400Y0193359D02*
X0008155Y0193359D01*
X0008452Y0193656D02*
X0006533Y0191737D01*
X0005176Y0189387D01*
X0004474Y0186766D01*
X0004474Y0184053D01*
X0005176Y0181432D01*
X0006533Y0179082D01*
X0008452Y0177163D01*
X0010802Y0175806D01*
X0013423Y0175104D01*
X0016136Y0175104D01*
X0018757Y0175806D01*
X0021107Y0177163D01*
X0023026Y0179082D01*
X0024383Y0181432D01*
X0025085Y0184053D01*
X0025085Y0186766D01*
X0024383Y0189387D01*
X0023026Y0191737D01*
X0021107Y0193656D01*
X0018757Y0195013D01*
X0016136Y0195715D01*
X0013423Y0195715D01*
X0010802Y0195013D01*
X0008452Y0193656D01*
X0006085Y0190961D02*
X0003400Y0190961D01*
X0003400Y0188562D02*
X0004955Y0188562D01*
X0004474Y0186164D02*
X0003400Y0186164D01*
X0003400Y0183765D02*
X0004551Y0183765D01*
X0005214Y0181367D02*
X0003400Y0181367D01*
X0003400Y0178968D02*
X0006646Y0178968D01*
X0009479Y0176570D02*
X0003400Y0176570D01*
X0003400Y0174171D02*
X0030591Y0174171D01*
X0032989Y0176570D02*
X0020080Y0176570D01*
X0022913Y0178968D02*
X0035388Y0178968D01*
X0037779Y0181360D02*
X0022860Y0166441D01*
X0022373Y0166441D01*
X0020836Y0165804D01*
X0019660Y0164628D01*
X0019024Y0163091D01*
X0019024Y0161428D01*
X0019660Y0159891D01*
X0020836Y0158715D01*
X0022373Y0158079D01*
X0024036Y0158079D01*
X0025573Y0158715D01*
X0026749Y0159891D01*
X0027386Y0161428D01*
X0027386Y0161915D01*
X0041818Y0176347D01*
X0060259Y0176347D01*
X0060604Y0176003D01*
X0062141Y0175366D01*
X0063804Y0175366D01*
X0065341Y0176003D01*
X0065685Y0176347D01*
X0118759Y0176347D01*
X0119104Y0176003D01*
X0120641Y0175366D01*
X0122304Y0175366D01*
X0123841Y0176003D01*
X0124185Y0176347D01*
X0192759Y0176347D01*
X0193104Y0176003D01*
X0194641Y0175366D01*
X0196304Y0175366D01*
X0197841Y0176003D01*
X0198185Y0176347D01*
X0270259Y0176347D01*
X0270604Y0176003D01*
X0272141Y0175366D01*
X0273804Y0175366D01*
X0275341Y0176003D01*
X0275685Y0176347D01*
X0347078Y0176347D01*
X0347163Y0176262D01*
X0348700Y0175626D01*
X0350363Y0175626D01*
X0351900Y0176262D01*
X0353076Y0177439D01*
X0353713Y0178975D01*
X0353713Y0180639D01*
X0353076Y0182175D01*
X0351900Y0183352D01*
X0350363Y0183988D01*
X0348700Y0183988D01*
X0347163Y0183352D01*
X0346559Y0182747D01*
X0287154Y0182747D01*
X0287154Y0184410D01*
X0286865Y0185107D01*
X0356889Y0185107D01*
X0357234Y0184762D01*
X0358771Y0184126D01*
X0360434Y0184126D01*
X0361971Y0184762D01*
X0363147Y0185939D01*
X0363783Y0187475D01*
X0363783Y0189139D01*
X0363147Y0190675D01*
X0361971Y0191852D01*
X0360434Y0192488D01*
X0358771Y0192488D01*
X0357234Y0191852D01*
X0356889Y0191507D01*
X0260744Y0191507D01*
X0260400Y0191852D01*
X0258863Y0192488D01*
X0257200Y0192488D01*
X0255663Y0191852D01*
X0254487Y0190675D01*
X0253850Y0189139D01*
X0253850Y0187475D01*
X0254139Y0186779D01*
X0209446Y0186779D01*
X0209654Y0187278D01*
X0209654Y0188942D01*
X0209017Y0190479D01*
X0207841Y0191655D01*
X0206304Y0192291D01*
X0204641Y0192291D01*
X0203104Y0191655D01*
X0202759Y0191310D01*
X0109185Y0191310D01*
X0108841Y0191655D01*
X0107304Y0192291D01*
X0105641Y0192291D01*
X0104104Y0191655D01*
X0102928Y0190479D01*
X0102291Y0188942D01*
X0102291Y0187279D01*
X0076954Y0187279D01*
X0076954Y0188942D01*
X0076317Y0190479D01*
X0075141Y0191655D01*
X0073604Y0192291D01*
X0071941Y0192291D01*
X0070404Y0191655D01*
X0070059Y0191310D01*
X0056285Y0191310D01*
X0055941Y0191655D01*
X0054404Y0192291D01*
X0052741Y0192291D01*
X0051204Y0191655D01*
X0050028Y0190479D01*
X0049391Y0188942D01*
X0049391Y0188016D01*
X0048804Y0188260D01*
X0047141Y0188260D01*
X0045604Y0187623D01*
X0044428Y0186447D01*
X0043791Y0184910D01*
X0043791Y0183247D01*
X0043998Y0182747D01*
X0039856Y0182747D01*
X0038679Y0182260D01*
X0037779Y0181360D01*
X0037786Y0181367D02*
X0024345Y0181367D01*
X0025008Y0183765D02*
X0043791Y0183765D01*
X0044311Y0186164D02*
X0025085Y0186164D01*
X0024604Y0188562D02*
X0049391Y0188562D01*
X0050510Y0190961D02*
X0023474Y0190961D01*
X0021404Y0193359D02*
X0370360Y0193359D01*
X0368290Y0190961D02*
X0362861Y0190961D01*
X0363783Y0188562D02*
X0367160Y0188562D01*
X0366679Y0186164D02*
X0363240Y0186164D01*
X0366756Y0183765D02*
X0350901Y0183765D01*
X0348162Y0183765D02*
X0287154Y0183765D01*
X0254772Y0190961D02*
X0208535Y0190961D01*
X0209654Y0188562D02*
X0253850Y0188562D01*
X0219287Y0166976D02*
X0150776Y0166976D01*
X0151076Y0166675D02*
X0149900Y0167852D01*
X0148363Y0168488D01*
X0146700Y0168488D01*
X0145163Y0167852D01*
X0143987Y0166675D01*
X0143350Y0165139D01*
X0143350Y0163475D01*
X0143987Y0161939D01*
X0144331Y0161594D01*
X0144331Y0155020D01*
X0143987Y0154675D01*
X0143350Y0153139D01*
X0143350Y0151475D01*
X0143987Y0149939D01*
X0145163Y0148762D01*
X0146700Y0148126D01*
X0148363Y0148126D01*
X0149900Y0148762D01*
X0151076Y0149939D01*
X0151713Y0151475D01*
X0151713Y0153139D01*
X0151076Y0154675D01*
X0150731Y0155020D01*
X0150731Y0161594D01*
X0151076Y0161939D01*
X0151713Y0163475D01*
X0151713Y0165139D01*
X0151076Y0166675D01*
X0151713Y0164577D02*
X0217850Y0164577D01*
X0218180Y0162179D02*
X0151176Y0162179D01*
X0150731Y0159780D02*
X0218831Y0159780D01*
X0218831Y0157382D02*
X0150731Y0157382D01*
X0150768Y0154983D02*
X0218795Y0154983D01*
X0217850Y0152585D02*
X0151713Y0152585D01*
X0151179Y0150186D02*
X0218384Y0150186D01*
X0226851Y0135795D02*
X0232428Y0135795D01*
X0230030Y0133397D02*
X0229250Y0133397D01*
X0224408Y0097419D02*
X0174808Y0097419D01*
X0174024Y0095020D02*
X0225192Y0095020D01*
X0227305Y0092622D02*
X0171910Y0092622D01*
X0174293Y0090223D02*
X0224922Y0090223D01*
X0224408Y0087825D02*
X0174808Y0087825D01*
X0174192Y0085426D02*
X0225024Y0085426D01*
X0227896Y0083028D02*
X0171320Y0083028D01*
X0167896Y0083028D02*
X0155320Y0083028D01*
X0151896Y0083028D02*
X0095320Y0083028D01*
X0098125Y0080629D02*
X0149090Y0080629D01*
X0148408Y0078231D02*
X0098808Y0078231D01*
X0098360Y0075832D02*
X0148855Y0075832D01*
X0150916Y0073434D02*
X0096300Y0073434D01*
X0098192Y0085426D02*
X0149024Y0085426D01*
X0148408Y0087825D02*
X0098808Y0087825D01*
X0098293Y0090223D02*
X0148922Y0090223D01*
X0151306Y0092622D02*
X0095910Y0092622D01*
X0098024Y0095020D02*
X0149192Y0095020D01*
X0148408Y0097419D02*
X0098808Y0097419D01*
X0089711Y0121404D02*
X0087976Y0121404D01*
X0088145Y0123803D02*
X0090399Y0123803D01*
X0088703Y0126201D02*
X0087631Y0126201D01*
X0087631Y0128600D02*
X0088408Y0128600D01*
X0084031Y0131307D02*
X0084031Y0122807D01*
X0143884Y0150186D02*
X0003400Y0150186D01*
X0003400Y0152585D02*
X0143350Y0152585D01*
X0144295Y0154983D02*
X0003400Y0154983D01*
X0003400Y0157382D02*
X0144331Y0157382D01*
X0144331Y0159780D02*
X0026638Y0159780D01*
X0019771Y0159780D02*
X0003400Y0159780D01*
X0003400Y0162179D02*
X0019024Y0162179D01*
X0019639Y0164577D02*
X0003400Y0164577D01*
X0003400Y0166976D02*
X0023395Y0166976D01*
X0025794Y0169374D02*
X0003400Y0169374D01*
X0003400Y0171773D02*
X0028192Y0171773D01*
X0034845Y0169374D02*
X0361686Y0169374D01*
X0352207Y0176570D02*
X0371684Y0176570D01*
X0368851Y0178968D02*
X0353710Y0178968D01*
X0353411Y0181367D02*
X0367418Y0181367D01*
X0388364Y0174171D02*
X0039642Y0174171D01*
X0037243Y0171773D02*
X0388364Y0171773D01*
X0388364Y0159780D02*
X0302231Y0159780D01*
X0302231Y0157382D02*
X0388364Y0157382D01*
X0388364Y0154983D02*
X0302231Y0154983D01*
X0303213Y0152585D02*
X0388364Y0152585D01*
X0388364Y0150186D02*
X0302886Y0150186D01*
X0385065Y0123803D02*
X0388364Y0123803D01*
X0388364Y0121404D02*
X0385380Y0121404D01*
X0386782Y0119006D02*
X0388364Y0119006D01*
X0388364Y0116607D02*
X0386820Y0116607D01*
X0385471Y0114208D02*
X0388364Y0114208D01*
X0388364Y0111810D02*
X0384974Y0111810D01*
X0386614Y0109411D02*
X0388364Y0109411D01*
X0388364Y0107013D02*
X0386869Y0107013D01*
X0385877Y0104614D02*
X0388364Y0104614D01*
X0388364Y0102216D02*
X0384501Y0102216D01*
X0386446Y0099817D02*
X0388364Y0099817D01*
X0388364Y0097419D02*
X0386869Y0097419D01*
X0386163Y0095020D02*
X0388364Y0095020D01*
X0388364Y0092622D02*
X0383521Y0092622D01*
X0386278Y0090223D02*
X0388364Y0090223D01*
X0388364Y0087825D02*
X0386869Y0087825D01*
X0386331Y0085426D02*
X0388364Y0085426D01*
X0388364Y0083028D02*
X0383832Y0083028D01*
X0386109Y0080629D02*
X0388364Y0080629D01*
X0388364Y0078231D02*
X0386869Y0078231D01*
X0386499Y0075832D02*
X0388364Y0075832D01*
X0388364Y0073434D02*
X0384696Y0073434D01*
X0378642Y0073434D02*
X0324696Y0073434D01*
X0326499Y0075832D02*
X0376840Y0075832D01*
X0376469Y0078231D02*
X0326869Y0078231D01*
X0326109Y0080629D02*
X0377229Y0080629D01*
X0379507Y0083028D02*
X0323832Y0083028D01*
X0326331Y0085426D02*
X0377008Y0085426D01*
X0376469Y0087825D02*
X0326869Y0087825D01*
X0326278Y0090223D02*
X0377061Y0090223D01*
X0379817Y0092622D02*
X0323521Y0092622D01*
X0326163Y0095020D02*
X0377176Y0095020D01*
X0376469Y0097419D02*
X0326869Y0097419D01*
X0319817Y0092622D02*
X0307910Y0092622D01*
X0310293Y0090223D02*
X0317061Y0090223D01*
X0316469Y0087825D02*
X0310808Y0087825D01*
X0310192Y0085426D02*
X0317008Y0085426D01*
X0319507Y0083028D02*
X0307320Y0083028D01*
X0303896Y0083028D02*
X0247320Y0083028D01*
X0243896Y0083028D02*
X0231320Y0083028D01*
X0234125Y0080629D02*
X0241090Y0080629D01*
X0240408Y0078231D02*
X0234808Y0078231D01*
X0234360Y0075832D02*
X0240855Y0075832D01*
X0242916Y0073434D02*
X0232300Y0073434D01*
X0226916Y0073434D02*
X0172300Y0073434D01*
X0174360Y0075832D02*
X0224855Y0075832D01*
X0224408Y0078231D02*
X0174808Y0078231D01*
X0174125Y0080629D02*
X0225090Y0080629D01*
X0234192Y0085426D02*
X0241024Y0085426D01*
X0240408Y0087825D02*
X0234808Y0087825D01*
X0234293Y0090223D02*
X0240922Y0090223D01*
X0243305Y0092622D02*
X0231910Y0092622D01*
X0236968Y0095020D02*
X0241192Y0095020D01*
X0240408Y0097419D02*
X0239669Y0097419D01*
X0247910Y0092622D02*
X0303305Y0092622D01*
X0301192Y0095020D02*
X0250024Y0095020D01*
X0250808Y0097419D02*
X0300408Y0097419D01*
X0300922Y0090223D02*
X0250293Y0090223D01*
X0250808Y0087825D02*
X0300408Y0087825D01*
X0301024Y0085426D02*
X0250192Y0085426D01*
X0250125Y0080629D02*
X0301090Y0080629D01*
X0300408Y0078231D02*
X0250808Y0078231D01*
X0250360Y0075832D02*
X0300855Y0075832D01*
X0302916Y0073434D02*
X0248300Y0073434D01*
X0308300Y0073434D02*
X0318642Y0073434D01*
X0316840Y0075832D02*
X0310360Y0075832D01*
X0310808Y0078231D02*
X0316469Y0078231D01*
X0317229Y0080629D02*
X0310125Y0080629D01*
X0310468Y0095020D02*
X0317176Y0095020D01*
X0316469Y0097419D02*
X0313169Y0097419D01*
X0383751Y0027862D02*
X0388364Y0027862D01*
X0388364Y0025464D02*
X0385761Y0025464D01*
X0386847Y0023065D02*
X0388364Y0023065D01*
X0388364Y0020667D02*
X0387290Y0020667D01*
X0387174Y0018268D02*
X0388364Y0018268D01*
X0388364Y0015870D02*
X0386468Y0015870D01*
X0384974Y0013471D02*
X0388364Y0013471D01*
X0388364Y0011073D02*
X0382037Y0011073D01*
X0166916Y0073434D02*
X0156300Y0073434D01*
X0158360Y0075832D02*
X0164855Y0075832D01*
X0164408Y0078231D02*
X0158808Y0078231D01*
X0158125Y0080629D02*
X0165090Y0080629D01*
X0165024Y0085426D02*
X0158192Y0085426D01*
X0158808Y0087825D02*
X0164408Y0087825D01*
X0164922Y0090223D02*
X0158293Y0090223D01*
X0155910Y0092622D02*
X0167305Y0092622D01*
X0165192Y0095020D02*
X0160968Y0095020D01*
X0163669Y0097419D02*
X0164408Y0097419D01*
X0154030Y0133397D02*
X0153250Y0133397D01*
X0150851Y0135795D02*
X0156428Y0135795D01*
X0143887Y0162179D02*
X0027649Y0162179D01*
X0030048Y0164577D02*
X0143350Y0164577D01*
X0144287Y0166976D02*
X0032446Y0166976D01*
X0076954Y0188562D02*
X0102291Y0188562D01*
X0103410Y0190961D02*
X0075835Y0190961D01*
D18*
X0079583Y0140859D02*
X0102031Y0140859D01*
X0126031Y0140859D01*
X0176531Y0140859D01*
X0200531Y0140859D01*
X0254031Y0140859D01*
X0277031Y0140859D01*
X0330031Y0140859D01*
X0348583Y0140859D01*
X0355031Y0147307D01*
X0079583Y0140859D02*
X0079583Y0140063D01*
D19*
X0075031Y0106307D02*
X0074531Y0105807D01*
X0074531Y0091807D01*
X0064031Y0091807D01*
X0050181Y0077957D01*
X0032031Y0059807D01*
X0032031Y0027707D01*
X0074531Y0089807D02*
X0074531Y0091807D01*
D20*
X0014780Y0020055D03*
X0014780Y0185409D03*
X0376984Y0185409D03*
X0376984Y0020055D03*
M02*
