G04 #@! TF.FileFunction,Copper,L2,Bot,Signal*
%FSLAX46Y46*%
G04 Gerber Fmt 4.6, Leading zero omitted, Abs format (unit mm)*
G04 Created by KiCad (PCBNEW 4.0.2-stable) date 16-09-23 18:11:48*
%MOMM*%
G01*
G04 APERTURE LIST*
%ADD10C,0.100000*%
%ADD11O,1.498600X0.398780*%
%ADD12O,1.399540X1.597660*%
%ADD13O,2.032000X1.016000*%
%ADD14C,1.899920*%
%ADD15C,1.500000*%
%ADD16C,1.524000*%
%ADD17R,1.270000X1.778000*%
%ADD18C,0.635000*%
%ADD19C,4.064000*%
%ADD20R,1.397000X1.016000*%
%ADD21R,0.889000X0.889000*%
%ADD22R,2.032000X1.778000*%
%ADD23R,1.198880X0.698500*%
%ADD24R,1.651000X1.651000*%
%ADD25C,1.651000*%
%ADD26R,0.700000X0.300000*%
%ADD27R,0.300000X0.700000*%
%ADD28R,3.500000X3.500000*%
%ADD29R,1.270000X1.270000*%
%ADD30C,0.600000*%
%ADD31C,0.250000*%
%ADD32C,0.300000*%
%ADD33C,0.500000*%
%ADD34C,0.400000*%
%ADD35C,0.254000*%
G04 APERTURE END LIST*
D10*
D11*
X121671080Y-127803940D03*
X121671080Y-127153700D03*
X121671080Y-126506000D03*
X121671080Y-125858300D03*
X121671080Y-125208060D03*
D12*
X121493280Y-129904520D03*
D13*
X119245380Y-129805460D03*
D14*
X119245380Y-127704880D03*
X119245380Y-125307120D03*
D13*
X119245380Y-123206540D03*
D12*
X121493280Y-123107480D03*
D15*
X165100000Y-112790000D03*
X165100000Y-115330000D03*
X165100000Y-117870000D03*
X165100000Y-120410000D03*
X165100000Y-122950000D03*
X165100000Y-125490000D03*
D16*
X165100000Y-106440000D03*
X165100000Y-108980000D03*
X165100000Y-103900000D03*
X165100000Y-101360000D03*
X165100000Y-98820000D03*
X165100000Y-96280000D03*
X165100000Y-93740000D03*
X165100000Y-91200000D03*
X165100000Y-88660000D03*
X165100000Y-86120000D03*
D17*
X124841000Y-131078000D03*
X127635000Y-131078000D03*
D18*
X126809500Y-128792000D03*
X127698500Y-128792000D03*
X126809500Y-126506000D03*
X127698500Y-126506000D03*
D19*
X121000000Y-135000000D03*
X121000000Y-48000000D03*
X163000000Y-48000000D03*
X163000000Y-135000000D03*
D20*
X129794000Y-122061000D03*
X129794000Y-120283000D03*
X133096000Y-122061000D03*
X133096000Y-120283000D03*
X136398000Y-122061000D03*
X136398000Y-120283000D03*
X139700000Y-122061000D03*
X139700000Y-120283000D03*
X143002000Y-122061000D03*
X143002000Y-120283000D03*
X146304000Y-122061000D03*
X146304000Y-120283000D03*
X149606000Y-122061000D03*
X149606000Y-120283000D03*
X152908000Y-122061000D03*
X152908000Y-120283000D03*
X156972000Y-133491000D03*
X156972000Y-131713000D03*
D21*
X152654000Y-134634000D03*
X152654000Y-136158000D03*
D22*
X144018000Y-133237000D03*
X144018000Y-128919000D03*
D21*
X138684000Y-129808000D03*
X140208000Y-129808000D03*
X138684000Y-132348000D03*
X140208000Y-132348000D03*
D23*
X134716520Y-100217000D03*
X134716520Y-101487000D03*
X134716520Y-102757000D03*
X134716520Y-104027000D03*
X134716520Y-105297000D03*
X134716520Y-106567000D03*
X134716520Y-107837000D03*
X134716520Y-109107000D03*
X134716520Y-110377000D03*
X134716520Y-111647000D03*
X124871480Y-111647000D03*
X124871480Y-110377000D03*
X124871480Y-109107000D03*
X124871480Y-107837000D03*
X124871480Y-106567000D03*
X124871480Y-105297000D03*
X124871480Y-104027000D03*
X124871480Y-102757000D03*
X124871480Y-101487000D03*
X124871480Y-100217000D03*
X134716520Y-83453000D03*
X134716520Y-84723000D03*
X134716520Y-85993000D03*
X134716520Y-87263000D03*
X134716520Y-88533000D03*
X134716520Y-89803000D03*
X134716520Y-91073000D03*
X134716520Y-92343000D03*
X134716520Y-93613000D03*
X134716520Y-94883000D03*
X124871480Y-94883000D03*
X124871480Y-93613000D03*
X124871480Y-92343000D03*
X124871480Y-91073000D03*
X124871480Y-89803000D03*
X124871480Y-88533000D03*
X124871480Y-87263000D03*
X124871480Y-85993000D03*
X124871480Y-84723000D03*
X124871480Y-83453000D03*
X134716520Y-66943000D03*
X134716520Y-68213000D03*
X134716520Y-69483000D03*
X134716520Y-70753000D03*
X134716520Y-72023000D03*
X134716520Y-73293000D03*
X134716520Y-74563000D03*
X134716520Y-75833000D03*
X134716520Y-77103000D03*
X134716520Y-78373000D03*
X124871480Y-78373000D03*
X124871480Y-77103000D03*
X124871480Y-75833000D03*
X124871480Y-74563000D03*
X124871480Y-73293000D03*
X124871480Y-72023000D03*
X124871480Y-70753000D03*
X124871480Y-69483000D03*
X124871480Y-68213000D03*
X124871480Y-66943000D03*
X134716520Y-50179000D03*
X134716520Y-51449000D03*
X134716520Y-52719000D03*
X134716520Y-53989000D03*
X134716520Y-55259000D03*
X134716520Y-56529000D03*
X134716520Y-57799000D03*
X134716520Y-59069000D03*
X134716520Y-60339000D03*
X134716520Y-61609000D03*
X124871480Y-61609000D03*
X124871480Y-60339000D03*
X124871480Y-59069000D03*
X124871480Y-57799000D03*
X124871480Y-56529000D03*
X124871480Y-55259000D03*
X124871480Y-53989000D03*
X124871480Y-52719000D03*
X124871480Y-51449000D03*
X124871480Y-50179000D03*
D24*
X136906000Y-94248000D03*
D25*
X139446000Y-94248000D03*
X141986000Y-94248000D03*
X144526000Y-94248000D03*
X147066000Y-94248000D03*
X149606000Y-94248000D03*
X149606000Y-84088000D03*
X147066000Y-84088000D03*
X144526000Y-84088000D03*
X141986000Y-84088000D03*
X139446000Y-84088000D03*
X136906000Y-84088000D03*
D24*
X136906000Y-77738000D03*
D25*
X139446000Y-77738000D03*
X141986000Y-77738000D03*
X144526000Y-77738000D03*
X147066000Y-77738000D03*
X149606000Y-77738000D03*
X149606000Y-67578000D03*
X147066000Y-67578000D03*
X144526000Y-67578000D03*
X141986000Y-67578000D03*
X139446000Y-67578000D03*
X136906000Y-67578000D03*
D24*
X136906000Y-60974000D03*
D25*
X139446000Y-60974000D03*
X141986000Y-60974000D03*
X144526000Y-60974000D03*
X147066000Y-60974000D03*
X149606000Y-60974000D03*
X149606000Y-50814000D03*
X147066000Y-50814000D03*
X144526000Y-50814000D03*
X141986000Y-50814000D03*
X139446000Y-50814000D03*
X136906000Y-50814000D03*
D26*
X149084000Y-130796000D03*
X149084000Y-130296000D03*
X149084000Y-129796000D03*
X149084000Y-129296000D03*
X149084000Y-128796000D03*
X149084000Y-128296000D03*
X149084000Y-127796000D03*
X149084000Y-127296000D03*
D27*
X149634000Y-126746000D03*
X150134000Y-126746000D03*
X150634000Y-126746000D03*
X151134000Y-126746000D03*
X151634000Y-126746000D03*
X152134000Y-126746000D03*
X152634000Y-126746000D03*
X153134000Y-126746000D03*
D26*
X153684000Y-127296000D03*
X153684000Y-127796000D03*
X153684000Y-128296000D03*
X153684000Y-128796000D03*
X153684000Y-129296000D03*
X153684000Y-129796000D03*
X153684000Y-130296000D03*
X153684000Y-130796000D03*
D27*
X153134000Y-131346000D03*
X152634000Y-131346000D03*
X152134000Y-131346000D03*
X151634000Y-131346000D03*
X151134000Y-131346000D03*
X150634000Y-131346000D03*
X150134000Y-131346000D03*
X149634000Y-131346000D03*
D28*
X151384000Y-129046000D03*
D29*
X125476000Y-120156000D03*
X122936000Y-120156000D03*
D24*
X136906000Y-111012000D03*
D25*
X139446000Y-111012000D03*
X141986000Y-111012000D03*
X144526000Y-111012000D03*
X147066000Y-111012000D03*
X149606000Y-111012000D03*
X149606000Y-100852000D03*
X147066000Y-100852000D03*
X144526000Y-100852000D03*
X141986000Y-100852000D03*
X139446000Y-100852000D03*
X136906000Y-100852000D03*
D30*
X147574000Y-136920000D03*
X147574000Y-134888000D03*
X146050000Y-128538000D03*
X143510000Y-127014000D03*
X155194000Y-112790000D03*
X163068000Y-112790000D03*
X152654000Y-107202000D03*
X154940000Y-107202000D03*
X127000000Y-119394000D03*
X129794000Y-118886000D03*
X133096000Y-118886000D03*
X139192000Y-118886000D03*
X136398000Y-118886000D03*
X123190000Y-105170000D03*
X123190000Y-88406000D03*
X123190000Y-71896000D03*
X123190000Y-55132000D03*
X138684000Y-131078000D03*
X146050000Y-129554000D03*
X132842000Y-66816000D03*
X151130000Y-135650000D03*
X134620000Y-48274000D03*
X132842000Y-81294000D03*
X132842000Y-83326000D03*
X133096000Y-98058000D03*
X133096000Y-100090000D03*
X163322000Y-125490000D03*
X146050000Y-127522000D03*
X163576000Y-100344000D03*
X156210000Y-110250000D03*
X163576000Y-102884000D03*
X152908000Y-133110000D03*
X154940000Y-125998000D03*
X156972000Y-124220000D03*
X155448000Y-131840000D03*
X156972000Y-112028000D03*
X163576000Y-105424000D03*
X163068000Y-117870000D03*
X155448000Y-117870000D03*
X155448000Y-120410000D03*
X163068000Y-120410000D03*
X163322000Y-122950000D03*
X152908000Y-125236000D03*
X123190000Y-52592000D03*
X141478000Y-121172000D03*
X123190000Y-69356000D03*
X144780000Y-121172000D03*
X123190000Y-85866000D03*
X148082000Y-121172000D03*
X123190000Y-102630000D03*
X151384000Y-121172000D03*
X149352000Y-125490000D03*
X144018000Y-125490000D03*
X149860000Y-124728000D03*
X143256000Y-124728000D03*
X150876000Y-124728000D03*
X142494000Y-123966000D03*
X151638000Y-123966000D03*
X141478000Y-123204000D03*
X124714000Y-128030000D03*
X123698000Y-126506000D03*
X130048000Y-56910000D03*
X130048000Y-55132000D03*
X127000000Y-76976000D03*
X127000000Y-74436000D03*
X132842000Y-73928000D03*
X127000000Y-73166000D03*
X127254000Y-93740000D03*
X127762000Y-90946000D03*
X131826000Y-89930000D03*
X126746000Y-89422000D03*
X127000000Y-110250000D03*
X127000000Y-107964000D03*
X132334000Y-106186000D03*
X127254000Y-106440000D03*
D31*
X148844000Y-133618000D02*
X147574000Y-134888000D01*
X149352000Y-133110000D02*
X148844000Y-133618000D01*
X150134000Y-132328000D02*
X149352000Y-133110000D01*
X150134000Y-131346000D02*
X150134000Y-132328000D01*
X150134000Y-131346000D02*
X149634000Y-131346000D01*
X146808000Y-129296000D02*
X146050000Y-128538000D01*
X149084000Y-129296000D02*
X146808000Y-129296000D01*
X155194000Y-112790000D02*
X155194000Y-107456000D01*
X165100000Y-112790000D02*
X163068000Y-112790000D01*
X155194000Y-107456000D02*
X154940000Y-107202000D01*
X125476000Y-120156000D02*
X126238000Y-120156000D01*
X126238000Y-120156000D02*
X127000000Y-119394000D01*
D32*
X129794000Y-118886000D02*
X129794000Y-120283000D01*
X133096000Y-118886000D02*
X133096000Y-119140000D01*
X133096000Y-119140000D02*
X133096000Y-120283000D01*
X152908000Y-120283000D02*
X149606000Y-120283000D01*
X149606000Y-120283000D02*
X146304000Y-120283000D01*
X146304000Y-120283000D02*
X143002000Y-120283000D01*
X143002000Y-120283000D02*
X139700000Y-120283000D01*
X139700000Y-120283000D02*
X139192000Y-119775000D01*
X139192000Y-119775000D02*
X139192000Y-118886000D01*
X136398000Y-118886000D02*
X136398000Y-120283000D01*
X124871480Y-105297000D02*
X123317000Y-105297000D01*
X123317000Y-105297000D02*
X123190000Y-105170000D01*
X124871480Y-88533000D02*
X123317000Y-88533000D01*
X123317000Y-88533000D02*
X123190000Y-88406000D01*
X124871480Y-72023000D02*
X123317000Y-72023000D01*
X123317000Y-72023000D02*
X123190000Y-71896000D01*
X124871480Y-55259000D02*
X123317000Y-55259000D01*
X123317000Y-55259000D02*
X123190000Y-55132000D01*
D33*
X122936000Y-120156000D02*
X122936000Y-123943140D01*
X122936000Y-123943140D02*
X121671080Y-125208060D01*
D31*
X121671080Y-125208060D02*
X121693940Y-125208060D01*
X121693940Y-125208060D02*
X122936000Y-123966000D01*
X122936000Y-123966000D02*
X122936000Y-120156000D01*
X152134000Y-131346000D02*
X152134000Y-134114000D01*
X152134000Y-134114000D02*
X152654000Y-134634000D01*
D33*
X138684000Y-129808000D02*
X138684000Y-132348000D01*
X138684000Y-131078000D02*
X143764000Y-131078000D01*
D32*
X138684000Y-132348000D02*
X138684000Y-131078000D01*
D31*
X149084000Y-129796000D02*
X146292000Y-129796000D01*
X146292000Y-129796000D02*
X146050000Y-129554000D01*
D32*
X134716520Y-66943000D02*
X132969000Y-66943000D01*
X132969000Y-66943000D02*
X132842000Y-66816000D01*
D31*
X151634000Y-131346000D02*
X151634000Y-135146000D01*
D32*
X151638000Y-136158000D02*
X151130000Y-135650000D01*
X151638000Y-136158000D02*
X152654000Y-136158000D01*
D31*
X151634000Y-135146000D02*
X151130000Y-135650000D01*
X151634000Y-131346000D02*
X151634000Y-129296000D01*
X151634000Y-129296000D02*
X151384000Y-129046000D01*
D32*
X134716520Y-50179000D02*
X134716520Y-48370520D01*
X134716520Y-48370520D02*
X134620000Y-48274000D01*
X134716520Y-83453000D02*
X132969000Y-83453000D01*
X132969000Y-83453000D02*
X132842000Y-83326000D01*
X134716520Y-100217000D02*
X133223000Y-100217000D01*
X133223000Y-100217000D02*
X133096000Y-100090000D01*
X138684000Y-131078000D02*
X143002000Y-131078000D01*
X138684000Y-131078000D02*
X138684000Y-129808000D01*
D31*
X165100000Y-125490000D02*
X163322000Y-125490000D01*
X144018000Y-133237000D02*
X147447000Y-133237000D01*
X149084000Y-131600000D02*
X149084000Y-130796000D01*
X147447000Y-133237000D02*
X149084000Y-131600000D01*
X140208000Y-132348000D02*
X143129000Y-132348000D01*
X143129000Y-132348000D02*
X144018000Y-133237000D01*
X140208000Y-129808000D02*
X143129000Y-129808000D01*
X143129000Y-129808000D02*
X144018000Y-128919000D01*
X149084000Y-130296000D02*
X145395000Y-130296000D01*
X145395000Y-130296000D02*
X144018000Y-128919000D01*
D33*
X124841000Y-131078000D02*
X124841000Y-130973860D01*
X124841000Y-130973860D02*
X121671080Y-127803940D01*
D31*
X121671080Y-127803940D02*
X121671080Y-127908080D01*
X121671080Y-127908080D02*
X124841000Y-131078000D01*
X154178000Y-122950000D02*
X154178000Y-92216000D01*
X154178000Y-92216000D02*
X156210000Y-90184000D01*
X152134000Y-126746000D02*
X152134000Y-124994000D01*
X160274000Y-86120000D02*
X165100000Y-86120000D01*
X156210000Y-90184000D02*
X160274000Y-86120000D01*
X152134000Y-124994000D02*
X154178000Y-122950000D01*
X157734000Y-121426000D02*
X157734000Y-96026000D01*
X157734000Y-96026000D02*
X165100000Y-88660000D01*
X153684000Y-127796000D02*
X154666000Y-127796000D01*
X157734000Y-124728000D02*
X157734000Y-121426000D01*
X154666000Y-127796000D02*
X157734000Y-124728000D01*
X158496000Y-121934000D02*
X158496000Y-97804000D01*
X158496000Y-97804000D02*
X165100000Y-91200000D01*
X155182000Y-128296000D02*
X153684000Y-128296000D01*
X158496000Y-124982000D02*
X158496000Y-121934000D01*
X155182000Y-128296000D02*
X158496000Y-124982000D01*
X159258000Y-121426000D02*
X159258000Y-99582000D01*
X159258000Y-99582000D02*
X165100000Y-93740000D01*
X155698000Y-128796000D02*
X159258000Y-125236000D01*
X159258000Y-125236000D02*
X159258000Y-121426000D01*
X155698000Y-128796000D02*
X153684000Y-128796000D01*
X160020000Y-121934000D02*
X160020000Y-101360000D01*
X160020000Y-101360000D02*
X165100000Y-96280000D01*
X160020000Y-125490000D02*
X160020000Y-121934000D01*
X156214000Y-129296000D02*
X160020000Y-125490000D01*
X156214000Y-129296000D02*
X153684000Y-129296000D01*
X147320000Y-128792000D02*
X146050000Y-127522000D01*
X149084000Y-128796000D02*
X147324000Y-128796000D01*
X163576000Y-100344000D02*
X165100000Y-98820000D01*
X147324000Y-128796000D02*
X147320000Y-128792000D01*
X156210000Y-123966000D02*
X156210000Y-124728000D01*
X165100000Y-101360000D02*
X163576000Y-102884000D01*
X156210000Y-110504000D02*
X156210000Y-113298000D01*
X156210000Y-110250000D02*
X156210000Y-110504000D01*
X156210000Y-114568000D02*
X156210000Y-123966000D01*
X156210000Y-113298000D02*
X156210000Y-114568000D01*
X152634000Y-132836000D02*
X152634000Y-131346000D01*
X152908000Y-133110000D02*
X152634000Y-132836000D01*
X156210000Y-124728000D02*
X154940000Y-125998000D01*
X153134000Y-131346000D02*
X154136000Y-132348000D01*
X154940000Y-132348000D02*
X154136000Y-132348000D01*
X155448000Y-131840000D02*
X154940000Y-132348000D01*
X165100000Y-103900000D02*
X163576000Y-105424000D01*
X156972000Y-112028000D02*
X156972000Y-124220000D01*
X161544000Y-113552000D02*
X161544000Y-112536000D01*
X161544000Y-112536000D02*
X165100000Y-108980000D01*
X153684000Y-130296000D02*
X157246000Y-130296000D01*
X161544000Y-112536000D02*
X165100000Y-108980000D01*
X161544000Y-125998000D02*
X161544000Y-113552000D01*
X157246000Y-130296000D02*
X161544000Y-125998000D01*
X160782000Y-111520000D02*
X160782000Y-110758000D01*
X160782000Y-110758000D02*
X165100000Y-106440000D01*
X160782000Y-121426000D02*
X160782000Y-111520000D01*
X160782000Y-110758000D02*
X165100000Y-106440000D01*
X160782000Y-125744000D02*
X160782000Y-121426000D01*
X156730000Y-129796000D02*
X160782000Y-125744000D01*
X153684000Y-129796000D02*
X156730000Y-129796000D01*
X162306000Y-121426000D02*
X162306000Y-115838000D01*
X162306000Y-115838000D02*
X162814000Y-115330000D01*
X165100000Y-115330000D02*
X162814000Y-115330000D01*
X162306000Y-121426000D02*
X162306000Y-121680000D01*
X162306000Y-121680000D02*
X162306000Y-126379000D01*
X162306000Y-126379000D02*
X156972000Y-131713000D01*
X153684000Y-130796000D02*
X156055000Y-130796000D01*
X156055000Y-130796000D02*
X156972000Y-131713000D01*
X154813000Y-119648000D02*
X154813000Y-118505000D01*
X154813000Y-118505000D02*
X155448000Y-117870000D01*
X163830000Y-117870000D02*
X163068000Y-117870000D01*
X165100000Y-117870000D02*
X163830000Y-117870000D01*
X153134000Y-126026000D02*
X154813000Y-124347000D01*
X153134000Y-126026000D02*
X153134000Y-126746000D01*
X154813000Y-124347000D02*
X154813000Y-119648000D01*
X155448000Y-117870000D02*
X155448000Y-117870000D01*
X155462000Y-121680000D02*
X155462000Y-120424000D01*
X155462000Y-120424000D02*
X155448000Y-120410000D01*
X163068000Y-120410000D02*
X165100000Y-120410000D01*
X153684000Y-126266000D02*
X155462000Y-124488000D01*
X153684000Y-127296000D02*
X153684000Y-126266000D01*
X155462000Y-124488000D02*
X155462000Y-121680000D01*
X155448000Y-120410000D02*
X155448000Y-120410000D01*
X152634000Y-126746000D02*
X152634000Y-125510000D01*
X163322000Y-122950000D02*
X165100000Y-122950000D01*
X152634000Y-125510000D02*
X152908000Y-125236000D01*
D34*
X124871480Y-52719000D02*
X123317000Y-52719000D01*
X123317000Y-52719000D02*
X123190000Y-52592000D01*
X143002000Y-122061000D02*
X142367000Y-122061000D01*
X142367000Y-122061000D02*
X141478000Y-121172000D01*
D31*
X149084000Y-128296000D02*
X148094000Y-128296000D01*
X143002000Y-123204000D02*
X143002000Y-122061000D01*
X148094000Y-128296000D02*
X143002000Y-123204000D01*
D32*
X124871480Y-69483000D02*
X123317000Y-69483000D01*
X123317000Y-69483000D02*
X123190000Y-69356000D01*
D34*
X144780000Y-121172000D02*
X145669000Y-122061000D01*
X145669000Y-122061000D02*
X146304000Y-122061000D01*
D31*
X146304000Y-122061000D02*
X146304000Y-125744000D01*
X148356000Y-127796000D02*
X149084000Y-127796000D01*
X146304000Y-125744000D02*
X148356000Y-127796000D01*
D32*
X124871480Y-85993000D02*
X123317000Y-85993000D01*
X123317000Y-85993000D02*
X123190000Y-85866000D01*
D34*
X148082000Y-121172000D02*
X148971000Y-122061000D01*
X149606000Y-122061000D02*
X148971000Y-122061000D01*
D31*
X149084000Y-127296000D02*
X148872000Y-127296000D01*
X148872000Y-127296000D02*
X147066000Y-125490000D01*
X147066000Y-125490000D02*
X147066000Y-124601000D01*
X147066000Y-124601000D02*
X149606000Y-122061000D01*
D32*
X123317000Y-102757000D02*
X123190000Y-102630000D01*
X123317000Y-102757000D02*
X124871480Y-102757000D01*
D34*
X152908000Y-122061000D02*
X152273000Y-122061000D01*
X152273000Y-122061000D02*
X151384000Y-121172000D01*
D31*
X149634000Y-126746000D02*
X149338000Y-126746000D01*
X151765000Y-123204000D02*
X152908000Y-122061000D01*
X149860000Y-123204000D02*
X151765000Y-123204000D01*
X148082000Y-124982000D02*
X149860000Y-123204000D01*
X148082000Y-125490000D02*
X148082000Y-124982000D01*
X149338000Y-126746000D02*
X148082000Y-125490000D01*
D34*
X129794000Y-122061000D02*
X129159000Y-122061000D01*
X129159000Y-122061000D02*
X128016000Y-120918000D01*
X127508000Y-118378000D02*
X120396000Y-118378000D01*
X128016000Y-118886000D02*
X127508000Y-118378000D01*
X128016000Y-120918000D02*
X128016000Y-118886000D01*
X118660002Y-116557998D02*
X118660002Y-116642002D01*
X118660002Y-116642002D02*
X120396000Y-118378000D01*
X118660002Y-54878000D02*
X118660002Y-116557998D01*
X118660002Y-116557998D02*
X118618000Y-116600000D01*
X124871480Y-53989000D02*
X119549002Y-53989000D01*
X118660002Y-54878000D02*
X118660002Y-54835998D01*
X119549002Y-53989000D02*
X118660002Y-54878000D01*
D31*
X118618000Y-116600000D02*
X118618000Y-55894000D01*
D32*
X118660002Y-54835998D02*
X118618000Y-54878000D01*
X118618000Y-54878000D02*
X118618000Y-55894000D01*
X118618000Y-55894000D02*
X118618000Y-56148000D01*
D31*
X129794000Y-124474000D02*
X130810000Y-125490000D01*
X129794000Y-122061000D02*
X129794000Y-124474000D01*
X150134000Y-125764000D02*
X149860000Y-125490000D01*
X149860000Y-125490000D02*
X149352000Y-125490000D01*
X150134000Y-125764000D02*
X150134000Y-126746000D01*
X130810000Y-125490000D02*
X144018000Y-125490000D01*
D34*
X131572000Y-119140000D02*
X130048000Y-117616000D01*
X120904000Y-117616000D02*
X120396000Y-117108000D01*
X130048000Y-117616000D02*
X120904000Y-117616000D01*
X119380000Y-75706000D02*
X119380000Y-72404000D01*
X131572000Y-121172000D02*
X131572000Y-119140000D01*
X120396000Y-117108000D02*
X119380000Y-116092000D01*
X119380000Y-116092000D02*
X119380000Y-100344000D01*
X119380000Y-100344000D02*
X119380000Y-78246000D01*
X119380000Y-78246000D02*
X119380000Y-75706000D01*
X132461000Y-122061000D02*
X131572000Y-121172000D01*
X121031000Y-70753000D02*
X124871480Y-70753000D01*
X119380000Y-72404000D02*
X121031000Y-70753000D01*
X133096000Y-122061000D02*
X132461000Y-122061000D01*
D31*
X133096000Y-122061000D02*
X133096000Y-124474000D01*
X150634000Y-125502000D02*
X149860000Y-124728000D01*
X143256000Y-124728000D02*
X135890000Y-124728000D01*
X150634000Y-125502000D02*
X150634000Y-126746000D01*
X133350000Y-124728000D02*
X135890000Y-124728000D01*
X133096000Y-124474000D02*
X133350000Y-124728000D01*
D34*
X133350000Y-117870000D02*
X132334000Y-116854000D01*
X121412000Y-116854000D02*
X120650000Y-116092000D01*
X132334000Y-116854000D02*
X121412000Y-116854000D01*
X120142000Y-94248000D02*
X120142000Y-88660000D01*
X134620000Y-120918000D02*
X134620000Y-119140000D01*
X134620000Y-119140000D02*
X133350000Y-117870000D01*
X120650000Y-116092000D02*
X120142000Y-115584000D01*
X120142000Y-115584000D02*
X120142000Y-94248000D01*
X135763000Y-122061000D02*
X134620000Y-120918000D01*
X121539000Y-87263000D02*
X124871480Y-87263000D01*
X120142000Y-88660000D02*
X121539000Y-87263000D01*
X136398000Y-122061000D02*
X135763000Y-122061000D01*
D31*
X136398000Y-122061000D02*
X136398000Y-123458000D01*
X151134000Y-124986000D02*
X150876000Y-124728000D01*
X142494000Y-123966000D02*
X138176000Y-123966000D01*
X151134000Y-124986000D02*
X151134000Y-126746000D01*
X136906000Y-123966000D02*
X138176000Y-123966000D01*
X136398000Y-123458000D02*
X136906000Y-123966000D01*
D34*
X136398000Y-117108000D02*
X135382000Y-116092000D01*
X121666000Y-116092000D02*
X120904000Y-115330000D01*
X135382000Y-116092000D02*
X121666000Y-116092000D01*
X120904000Y-105424000D02*
X120904000Y-104662000D01*
X120904000Y-104662000D02*
X121539000Y-104027000D01*
X121539000Y-104027000D02*
X124871480Y-104027000D01*
X120904000Y-105424000D02*
X120904000Y-112536000D01*
X120904000Y-115330000D02*
X120904000Y-112536000D01*
X139319000Y-122061000D02*
X138176000Y-120918000D01*
X138176000Y-118886000D02*
X136398000Y-117108000D01*
X138176000Y-120918000D02*
X138176000Y-118886000D01*
X139700000Y-122061000D02*
X139319000Y-122061000D01*
D31*
X139700000Y-122061000D02*
X139700000Y-122696000D01*
X140208000Y-123204000D02*
X141478000Y-123204000D01*
X139700000Y-122696000D02*
X140208000Y-123204000D01*
X151634000Y-123970000D02*
X151638000Y-123966000D01*
X151634000Y-126746000D02*
X151634000Y-123970000D01*
X141478000Y-123204000D02*
X140716000Y-123204000D01*
X121671080Y-127153700D02*
X126161800Y-127153700D01*
X126161800Y-127153700D02*
X126809500Y-126506000D01*
X127698500Y-126506000D02*
X127698500Y-126696500D01*
X127698500Y-126696500D02*
X136652000Y-135650000D01*
X150634000Y-133606000D02*
X150634000Y-131346000D01*
X148590000Y-135650000D02*
X136652000Y-135650000D01*
X150634000Y-133606000D02*
X148590000Y-135650000D01*
X121671080Y-126506000D02*
X123698000Y-126506000D01*
X125476000Y-128792000D02*
X126809500Y-128792000D01*
X124714000Y-128030000D02*
X125476000Y-128792000D01*
X127698500Y-128792000D02*
X128714500Y-128792000D01*
X136080500Y-136158000D02*
X129984500Y-130062000D01*
X151134000Y-133868000D02*
X151134000Y-131346000D01*
X148844000Y-136158000D02*
X151134000Y-133868000D01*
X148844000Y-136158000D02*
X136080500Y-136158000D01*
X128714500Y-128792000D02*
X129984500Y-130062000D01*
X136906000Y-60974000D02*
X136906000Y-57418000D01*
X136017000Y-56529000D02*
X134716520Y-56529000D01*
X136906000Y-57418000D02*
X136017000Y-56529000D01*
X134716520Y-55259000D02*
X137287000Y-55259000D01*
X139446000Y-57418000D02*
X139446000Y-60974000D01*
X137287000Y-55259000D02*
X139446000Y-57418000D01*
X134716520Y-60339000D02*
X133477000Y-60339000D01*
X140208000Y-62752000D02*
X141986000Y-60974000D01*
X133604000Y-62752000D02*
X140208000Y-62752000D01*
X133096000Y-62244000D02*
X133604000Y-62752000D01*
X133096000Y-60720000D02*
X133096000Y-62244000D01*
X133477000Y-60339000D02*
X133096000Y-60720000D01*
X134716520Y-53989000D02*
X137541000Y-53989000D01*
X137541000Y-53989000D02*
X144526000Y-60974000D01*
X134716520Y-59069000D02*
X132969000Y-59069000D01*
X144018000Y-63514000D02*
X147066000Y-60974000D01*
X133096000Y-63514000D02*
X144018000Y-63514000D01*
X132080000Y-62498000D02*
X133096000Y-63514000D01*
X132080000Y-59958000D02*
X132080000Y-62498000D01*
X132969000Y-59069000D02*
X132080000Y-59958000D01*
D32*
X149606000Y-60974000D02*
X146304000Y-64276000D01*
X128905000Y-60339000D02*
X124871480Y-60339000D01*
X132842000Y-64276000D02*
X128905000Y-60339000D01*
X146304000Y-64276000D02*
X132842000Y-64276000D01*
D31*
X134716520Y-52719000D02*
X147701000Y-52719000D01*
X147701000Y-52719000D02*
X149606000Y-50814000D01*
X147066000Y-50814000D02*
X147066000Y-46750000D01*
X129667000Y-59069000D02*
X124871480Y-59069000D01*
X131318000Y-57418000D02*
X129667000Y-59069000D01*
X131318000Y-47766000D02*
X131318000Y-57418000D01*
X132588000Y-46496000D02*
X131318000Y-47766000D01*
X146812000Y-46496000D02*
X132588000Y-46496000D01*
X147066000Y-46750000D02*
X146812000Y-46496000D01*
D32*
X124871480Y-57799000D02*
X129159000Y-57799000D01*
X129159000Y-57799000D02*
X130048000Y-56910000D01*
D31*
X141986000Y-50814000D02*
X141986000Y-47766000D01*
X132969000Y-57799000D02*
X134716520Y-57799000D01*
X132334000Y-57164000D02*
X132969000Y-57799000D01*
X132334000Y-48782000D02*
X132334000Y-57164000D01*
X133604000Y-47512000D02*
X132334000Y-48782000D01*
X141732000Y-47512000D02*
X133604000Y-47512000D01*
X141986000Y-47766000D02*
X141732000Y-47512000D01*
X139446000Y-50814000D02*
X138176000Y-52084000D01*
X135890000Y-52084000D02*
X135255000Y-51449000D01*
X138176000Y-52084000D02*
X135890000Y-52084000D01*
X135255000Y-51449000D02*
X134716520Y-51449000D01*
D32*
X128651000Y-56529000D02*
X124871480Y-56529000D01*
X130048000Y-55132000D02*
X128651000Y-56529000D01*
X136906000Y-77738000D02*
X136906000Y-73928000D01*
X136271000Y-73293000D02*
X134716520Y-73293000D01*
X136906000Y-73928000D02*
X136271000Y-73293000D01*
X139446000Y-77738000D02*
X139446000Y-74690000D01*
X136779000Y-72023000D02*
X134716520Y-72023000D01*
X139446000Y-74690000D02*
X136779000Y-72023000D01*
X141986000Y-77738000D02*
X141986000Y-78246000D01*
X141986000Y-78246000D02*
X140716000Y-79516000D01*
X140716000Y-79516000D02*
X133350000Y-79516000D01*
X133350000Y-79516000D02*
X133096000Y-79262000D01*
X133096000Y-79262000D02*
X133096000Y-77738000D01*
X133096000Y-77738000D02*
X133731000Y-77103000D01*
X133731000Y-77103000D02*
X134716520Y-77103000D01*
X144526000Y-77738000D02*
X144526000Y-75198000D01*
X140081000Y-70753000D02*
X134716520Y-70753000D01*
X144526000Y-75198000D02*
X140081000Y-70753000D01*
X147066000Y-77738000D02*
X146812000Y-77738000D01*
X146812000Y-77738000D02*
X144018000Y-80532000D01*
X144018000Y-80532000D02*
X133096000Y-80532000D01*
X133096000Y-80532000D02*
X132080000Y-79516000D01*
X132080000Y-79516000D02*
X132080000Y-76976000D01*
X132080000Y-76976000D02*
X133223000Y-75833000D01*
X133223000Y-75833000D02*
X134716520Y-75833000D01*
X127000000Y-76976000D02*
X126873000Y-77103000D01*
X126873000Y-77103000D02*
X124871480Y-77103000D01*
X134716520Y-69483000D02*
X147701000Y-69483000D01*
X147701000Y-69483000D02*
X149606000Y-67578000D01*
X147066000Y-67578000D02*
X147066000Y-66308000D01*
X128651000Y-75833000D02*
X124871480Y-75833000D01*
X130810000Y-73674000D02*
X128651000Y-75833000D01*
X130810000Y-67832000D02*
X130810000Y-73674000D01*
X133350000Y-65292000D02*
X130810000Y-67832000D01*
X146050000Y-65292000D02*
X133350000Y-65292000D01*
X147066000Y-66308000D02*
X146050000Y-65292000D01*
X124871480Y-74563000D02*
X126873000Y-74563000D01*
X126873000Y-74563000D02*
X127000000Y-74436000D01*
X134716520Y-74563000D02*
X133477000Y-74563000D01*
X133477000Y-74563000D02*
X132842000Y-73928000D01*
X134716520Y-68213000D02*
X135255000Y-68213000D01*
X135255000Y-68213000D02*
X135636000Y-68594000D01*
X139446000Y-67578000D02*
X139446000Y-67832000D01*
X139446000Y-67832000D02*
X137922000Y-68848000D01*
X137922000Y-68848000D02*
X135890000Y-68848000D01*
X135890000Y-68848000D02*
X135636000Y-68594000D01*
X126873000Y-73293000D02*
X124871480Y-73293000D01*
X127000000Y-73166000D02*
X126873000Y-73293000D01*
X136906000Y-94248000D02*
X136906000Y-90438000D01*
X136271000Y-89803000D02*
X134716520Y-89803000D01*
X136906000Y-90438000D02*
X136271000Y-89803000D01*
X139446000Y-94248000D02*
X139446000Y-91454000D01*
X136525000Y-88533000D02*
X134716520Y-88533000D01*
X139446000Y-91454000D02*
X136525000Y-88533000D01*
X141986000Y-94248000D02*
X141986000Y-94502000D01*
X141986000Y-94502000D02*
X140208000Y-96280000D01*
X140208000Y-96280000D02*
X133858000Y-96280000D01*
X133858000Y-96280000D02*
X133096000Y-95518000D01*
X133096000Y-95518000D02*
X133096000Y-93994000D01*
X133096000Y-93994000D02*
X133477000Y-93613000D01*
X133477000Y-93613000D02*
X134716520Y-93613000D01*
X144526000Y-94248000D02*
X144526000Y-92978000D01*
X138811000Y-87263000D02*
X134716520Y-87263000D01*
X144526000Y-92978000D02*
X138811000Y-87263000D01*
X147066000Y-94248000D02*
X147066000Y-94756000D01*
X147066000Y-94756000D02*
X144526000Y-97296000D01*
X144526000Y-97296000D02*
X133350000Y-97296000D01*
X133350000Y-97296000D02*
X132334000Y-96280000D01*
X132334000Y-96280000D02*
X132334000Y-92978000D01*
X132334000Y-92978000D02*
X132969000Y-92343000D01*
X132969000Y-92343000D02*
X134716520Y-92343000D01*
X127254000Y-93740000D02*
X127127000Y-93613000D01*
X127127000Y-93613000D02*
X124871480Y-93613000D01*
X149606000Y-84088000D02*
X149606000Y-85358000D01*
X135097520Y-86374000D02*
X134716520Y-85993000D01*
X148590000Y-86374000D02*
X135097520Y-86374000D01*
X149606000Y-85358000D02*
X148590000Y-86374000D01*
X147066000Y-84088000D02*
X147066000Y-83072000D01*
X128905000Y-92343000D02*
X124871480Y-92343000D01*
X130048000Y-91200000D02*
X128905000Y-92343000D01*
X130048000Y-83834000D02*
X130048000Y-91200000D01*
X131826000Y-82056000D02*
X130048000Y-83834000D01*
X146050000Y-82056000D02*
X131826000Y-82056000D01*
X147066000Y-83072000D02*
X146050000Y-82056000D01*
X127762000Y-90946000D02*
X127635000Y-90819000D01*
X127635000Y-90819000D02*
X124871480Y-91073000D01*
X131826000Y-89930000D02*
X132969000Y-91073000D01*
X132969000Y-91073000D02*
X134716520Y-91073000D01*
X139446000Y-84088000D02*
X139446000Y-84342000D01*
X139446000Y-84342000D02*
X138176000Y-85358000D01*
X138176000Y-85358000D02*
X136144000Y-85358000D01*
X136144000Y-85358000D02*
X135255000Y-84723000D01*
X135255000Y-84723000D02*
X134716520Y-84723000D01*
X126365000Y-89803000D02*
X124871480Y-89803000D01*
X126746000Y-89422000D02*
X126365000Y-89803000D01*
X136906000Y-111012000D02*
X136906000Y-107456000D01*
X136017000Y-106567000D02*
X134716520Y-106567000D01*
X136906000Y-107456000D02*
X136017000Y-106567000D01*
X139446000Y-111012000D02*
X139446000Y-107710000D01*
X137033000Y-105297000D02*
X134716520Y-105297000D01*
X139446000Y-107710000D02*
X137033000Y-105297000D01*
X141986000Y-111012000D02*
X141986000Y-111266000D01*
X141986000Y-111266000D02*
X139954000Y-113298000D01*
X139954000Y-113298000D02*
X133858000Y-113298000D01*
X133858000Y-113298000D02*
X133096000Y-112536000D01*
X133096000Y-112536000D02*
X133096000Y-110758000D01*
X133096000Y-110758000D02*
X133477000Y-110377000D01*
X133477000Y-110377000D02*
X134716520Y-110377000D01*
X134716520Y-104027000D02*
X139573000Y-104027000D01*
X144526000Y-108980000D02*
X144526000Y-111012000D01*
X139573000Y-104027000D02*
X144526000Y-108980000D01*
X147066000Y-111012000D02*
X147066000Y-111520000D01*
X147066000Y-111520000D02*
X144272000Y-114314000D01*
X144272000Y-114314000D02*
X133604000Y-114314000D01*
X133604000Y-114314000D02*
X132080000Y-112790000D01*
X132080000Y-112790000D02*
X132080000Y-110250000D01*
X132080000Y-110250000D02*
X133096000Y-109234000D01*
X133096000Y-109234000D02*
X134589520Y-109234000D01*
X134589520Y-109234000D02*
X134716520Y-109107000D01*
X127000000Y-110250000D02*
X126873000Y-110377000D01*
X126873000Y-110377000D02*
X124871480Y-110377000D01*
X149606000Y-100852000D02*
X149352000Y-100852000D01*
X149352000Y-100852000D02*
X147066000Y-103138000D01*
X147066000Y-103138000D02*
X135097520Y-103138000D01*
X135097520Y-103138000D02*
X134716520Y-102757000D01*
X147066000Y-100852000D02*
X147066000Y-99836000D01*
X127889000Y-109107000D02*
X124871480Y-109107000D01*
X129540000Y-107456000D02*
X127889000Y-109107000D01*
X129540000Y-101868000D02*
X129540000Y-107456000D01*
X132588000Y-98820000D02*
X129540000Y-101868000D01*
X146050000Y-98820000D02*
X132588000Y-98820000D01*
X147066000Y-99836000D02*
X146050000Y-98820000D01*
X126873000Y-107837000D02*
X124871480Y-107837000D01*
X127000000Y-107964000D02*
X126873000Y-107837000D01*
X133731000Y-107837000D02*
X134716520Y-107837000D01*
X133096000Y-107202000D02*
X133731000Y-107837000D01*
X133096000Y-106948000D02*
X133096000Y-107202000D01*
X132334000Y-106186000D02*
X133096000Y-106948000D01*
X139446000Y-100852000D02*
X139192000Y-100852000D01*
X139192000Y-100852000D02*
X137668000Y-102376000D01*
X137668000Y-102376000D02*
X136144000Y-102376000D01*
X136144000Y-102376000D02*
X135255000Y-101487000D01*
X135255000Y-101487000D02*
X134716520Y-101487000D01*
X127127000Y-106567000D02*
X124871480Y-106567000D01*
X127254000Y-106440000D02*
X127127000Y-106567000D01*
D35*
G36*
X166290000Y-138290000D02*
X117710000Y-138290000D01*
X117710000Y-135528172D01*
X118332538Y-135528172D01*
X118737709Y-136508761D01*
X119487293Y-137259655D01*
X120467173Y-137666536D01*
X121528172Y-137667462D01*
X122508761Y-137262291D01*
X123259655Y-136512707D01*
X123666536Y-135532827D01*
X123667462Y-134471828D01*
X123262291Y-133491239D01*
X122512707Y-132740345D01*
X121532827Y-132333464D01*
X120471828Y-132332538D01*
X119491239Y-132737709D01*
X118740345Y-133487293D01*
X118333464Y-134467173D01*
X118332538Y-135528172D01*
X117710000Y-135528172D01*
X117710000Y-130334099D01*
X117896812Y-130613683D01*
X118267628Y-130861454D01*
X118705035Y-130948460D01*
X119785725Y-130948460D01*
X120223132Y-130861454D01*
X120396053Y-130745912D01*
X120549455Y-130975495D01*
X120982486Y-131264837D01*
X121493280Y-131366440D01*
X122004074Y-131264837D01*
X122437105Y-130975495D01*
X122726447Y-130542464D01*
X122798050Y-130182490D01*
X123558560Y-130942999D01*
X123558560Y-131967000D01*
X123602838Y-132202317D01*
X123741910Y-132418441D01*
X123954110Y-132563431D01*
X124206000Y-132614440D01*
X125476000Y-132614440D01*
X125711317Y-132570162D01*
X125927441Y-132431090D01*
X126072431Y-132218890D01*
X126123440Y-131967000D01*
X126123440Y-131363750D01*
X126365000Y-131363750D01*
X126365000Y-132093310D01*
X126461673Y-132326699D01*
X126640302Y-132505327D01*
X126873691Y-132602000D01*
X127349250Y-132602000D01*
X127508000Y-132443250D01*
X127508000Y-131205000D01*
X127762000Y-131205000D01*
X127762000Y-132443250D01*
X127920750Y-132602000D01*
X128396309Y-132602000D01*
X128629698Y-132505327D01*
X128808327Y-132326699D01*
X128905000Y-132093310D01*
X128905000Y-131363750D01*
X128746250Y-131205000D01*
X127762000Y-131205000D01*
X127508000Y-131205000D01*
X126523750Y-131205000D01*
X126365000Y-131363750D01*
X126123440Y-131363750D01*
X126123440Y-130189000D01*
X126079162Y-129953683D01*
X125940090Y-129737559D01*
X125727890Y-129592569D01*
X125527554Y-129552000D01*
X126222309Y-129552000D01*
X126269247Y-129599020D01*
X126567931Y-129723044D01*
X126461673Y-129829301D01*
X126365000Y-130062690D01*
X126365000Y-130792250D01*
X126523750Y-130951000D01*
X127508000Y-130951000D01*
X127508000Y-130931000D01*
X127762000Y-130931000D01*
X127762000Y-130951000D01*
X128746250Y-130951000D01*
X128905000Y-130792250D01*
X128905000Y-130062690D01*
X128901190Y-130053492D01*
X135543099Y-136695401D01*
X135789661Y-136860148D01*
X136080500Y-136918000D01*
X148844000Y-136918000D01*
X149134839Y-136860148D01*
X149381401Y-136695401D01*
X150208521Y-135868281D01*
X150336883Y-136178943D01*
X150599673Y-136442192D01*
X150943201Y-136584838D01*
X150954691Y-136584848D01*
X151082919Y-136713076D01*
X151082921Y-136713079D01*
X151337594Y-136883245D01*
X151638000Y-136943000D01*
X151674021Y-136943000D01*
X151745410Y-137053941D01*
X151957610Y-137198931D01*
X152209500Y-137249940D01*
X153098500Y-137249940D01*
X153333817Y-137205662D01*
X153549941Y-137066590D01*
X153694931Y-136854390D01*
X153745940Y-136602500D01*
X153745940Y-135713500D01*
X153711069Y-135528172D01*
X160332538Y-135528172D01*
X160737709Y-136508761D01*
X161487293Y-137259655D01*
X162467173Y-137666536D01*
X163528172Y-137667462D01*
X164508761Y-137262291D01*
X165259655Y-136512707D01*
X165666536Y-135532827D01*
X165667462Y-134471828D01*
X165262291Y-133491239D01*
X164512707Y-132740345D01*
X163532827Y-132333464D01*
X162471828Y-132332538D01*
X161491239Y-132737709D01*
X160740345Y-133487293D01*
X160333464Y-134467173D01*
X160332538Y-135528172D01*
X153711069Y-135528172D01*
X153701662Y-135478183D01*
X153649420Y-135396997D01*
X153694931Y-135330390D01*
X153745940Y-135078500D01*
X153745940Y-134189500D01*
X153701662Y-133954183D01*
X153587487Y-133776750D01*
X155638500Y-133776750D01*
X155638500Y-134125309D01*
X155735173Y-134358698D01*
X155913801Y-134537327D01*
X156147190Y-134634000D01*
X156686250Y-134634000D01*
X156845000Y-134475250D01*
X156845000Y-133618000D01*
X157099000Y-133618000D01*
X157099000Y-134475250D01*
X157257750Y-134634000D01*
X157796810Y-134634000D01*
X158030199Y-134537327D01*
X158208827Y-134358698D01*
X158305500Y-134125309D01*
X158305500Y-133776750D01*
X158146750Y-133618000D01*
X157099000Y-133618000D01*
X156845000Y-133618000D01*
X155797250Y-133618000D01*
X155638500Y-133776750D01*
X153587487Y-133776750D01*
X153578117Y-133762189D01*
X153700192Y-133640327D01*
X153842838Y-133296799D01*
X153843054Y-133048740D01*
X153845161Y-133050148D01*
X154136000Y-133108000D01*
X154940000Y-133108000D01*
X155230839Y-133050148D01*
X155477401Y-132885401D01*
X155587680Y-132775122D01*
X155633167Y-132775162D01*
X155680345Y-132755669D01*
X155638500Y-132856691D01*
X155638500Y-133205250D01*
X155797250Y-133364000D01*
X156845000Y-133364000D01*
X156845000Y-133344000D01*
X157099000Y-133344000D01*
X157099000Y-133364000D01*
X158146750Y-133364000D01*
X158305500Y-133205250D01*
X158305500Y-132856691D01*
X158208827Y-132623302D01*
X158182291Y-132596765D01*
X158266931Y-132472890D01*
X158317940Y-132221000D01*
X158317940Y-131441862D01*
X162843401Y-126916401D01*
X163008148Y-126669839D01*
X163062858Y-126394798D01*
X163135201Y-126424838D01*
X163507167Y-126425162D01*
X163850943Y-126283117D01*
X163884118Y-126250000D01*
X163915453Y-126250000D01*
X163925169Y-126273515D01*
X164314436Y-126663461D01*
X164823298Y-126874759D01*
X165374285Y-126875240D01*
X165883515Y-126664831D01*
X166273461Y-126275564D01*
X166290000Y-126235734D01*
X166290000Y-138290000D01*
X166290000Y-138290000D01*
G37*
X166290000Y-138290000D02*
X117710000Y-138290000D01*
X117710000Y-135528172D01*
X118332538Y-135528172D01*
X118737709Y-136508761D01*
X119487293Y-137259655D01*
X120467173Y-137666536D01*
X121528172Y-137667462D01*
X122508761Y-137262291D01*
X123259655Y-136512707D01*
X123666536Y-135532827D01*
X123667462Y-134471828D01*
X123262291Y-133491239D01*
X122512707Y-132740345D01*
X121532827Y-132333464D01*
X120471828Y-132332538D01*
X119491239Y-132737709D01*
X118740345Y-133487293D01*
X118333464Y-134467173D01*
X118332538Y-135528172D01*
X117710000Y-135528172D01*
X117710000Y-130334099D01*
X117896812Y-130613683D01*
X118267628Y-130861454D01*
X118705035Y-130948460D01*
X119785725Y-130948460D01*
X120223132Y-130861454D01*
X120396053Y-130745912D01*
X120549455Y-130975495D01*
X120982486Y-131264837D01*
X121493280Y-131366440D01*
X122004074Y-131264837D01*
X122437105Y-130975495D01*
X122726447Y-130542464D01*
X122798050Y-130182490D01*
X123558560Y-130942999D01*
X123558560Y-131967000D01*
X123602838Y-132202317D01*
X123741910Y-132418441D01*
X123954110Y-132563431D01*
X124206000Y-132614440D01*
X125476000Y-132614440D01*
X125711317Y-132570162D01*
X125927441Y-132431090D01*
X126072431Y-132218890D01*
X126123440Y-131967000D01*
X126123440Y-131363750D01*
X126365000Y-131363750D01*
X126365000Y-132093310D01*
X126461673Y-132326699D01*
X126640302Y-132505327D01*
X126873691Y-132602000D01*
X127349250Y-132602000D01*
X127508000Y-132443250D01*
X127508000Y-131205000D01*
X127762000Y-131205000D01*
X127762000Y-132443250D01*
X127920750Y-132602000D01*
X128396309Y-132602000D01*
X128629698Y-132505327D01*
X128808327Y-132326699D01*
X128905000Y-132093310D01*
X128905000Y-131363750D01*
X128746250Y-131205000D01*
X127762000Y-131205000D01*
X127508000Y-131205000D01*
X126523750Y-131205000D01*
X126365000Y-131363750D01*
X126123440Y-131363750D01*
X126123440Y-130189000D01*
X126079162Y-129953683D01*
X125940090Y-129737559D01*
X125727890Y-129592569D01*
X125527554Y-129552000D01*
X126222309Y-129552000D01*
X126269247Y-129599020D01*
X126567931Y-129723044D01*
X126461673Y-129829301D01*
X126365000Y-130062690D01*
X126365000Y-130792250D01*
X126523750Y-130951000D01*
X127508000Y-130951000D01*
X127508000Y-130931000D01*
X127762000Y-130931000D01*
X127762000Y-130951000D01*
X128746250Y-130951000D01*
X128905000Y-130792250D01*
X128905000Y-130062690D01*
X128901190Y-130053492D01*
X135543099Y-136695401D01*
X135789661Y-136860148D01*
X136080500Y-136918000D01*
X148844000Y-136918000D01*
X149134839Y-136860148D01*
X149381401Y-136695401D01*
X150208521Y-135868281D01*
X150336883Y-136178943D01*
X150599673Y-136442192D01*
X150943201Y-136584838D01*
X150954691Y-136584848D01*
X151082919Y-136713076D01*
X151082921Y-136713079D01*
X151337594Y-136883245D01*
X151638000Y-136943000D01*
X151674021Y-136943000D01*
X151745410Y-137053941D01*
X151957610Y-137198931D01*
X152209500Y-137249940D01*
X153098500Y-137249940D01*
X153333817Y-137205662D01*
X153549941Y-137066590D01*
X153694931Y-136854390D01*
X153745940Y-136602500D01*
X153745940Y-135713500D01*
X153711069Y-135528172D01*
X160332538Y-135528172D01*
X160737709Y-136508761D01*
X161487293Y-137259655D01*
X162467173Y-137666536D01*
X163528172Y-137667462D01*
X164508761Y-137262291D01*
X165259655Y-136512707D01*
X165666536Y-135532827D01*
X165667462Y-134471828D01*
X165262291Y-133491239D01*
X164512707Y-132740345D01*
X163532827Y-132333464D01*
X162471828Y-132332538D01*
X161491239Y-132737709D01*
X160740345Y-133487293D01*
X160333464Y-134467173D01*
X160332538Y-135528172D01*
X153711069Y-135528172D01*
X153701662Y-135478183D01*
X153649420Y-135396997D01*
X153694931Y-135330390D01*
X153745940Y-135078500D01*
X153745940Y-134189500D01*
X153701662Y-133954183D01*
X153587487Y-133776750D01*
X155638500Y-133776750D01*
X155638500Y-134125309D01*
X155735173Y-134358698D01*
X155913801Y-134537327D01*
X156147190Y-134634000D01*
X156686250Y-134634000D01*
X156845000Y-134475250D01*
X156845000Y-133618000D01*
X157099000Y-133618000D01*
X157099000Y-134475250D01*
X157257750Y-134634000D01*
X157796810Y-134634000D01*
X158030199Y-134537327D01*
X158208827Y-134358698D01*
X158305500Y-134125309D01*
X158305500Y-133776750D01*
X158146750Y-133618000D01*
X157099000Y-133618000D01*
X156845000Y-133618000D01*
X155797250Y-133618000D01*
X155638500Y-133776750D01*
X153587487Y-133776750D01*
X153578117Y-133762189D01*
X153700192Y-133640327D01*
X153842838Y-133296799D01*
X153843054Y-133048740D01*
X153845161Y-133050148D01*
X154136000Y-133108000D01*
X154940000Y-133108000D01*
X155230839Y-133050148D01*
X155477401Y-132885401D01*
X155587680Y-132775122D01*
X155633167Y-132775162D01*
X155680345Y-132755669D01*
X155638500Y-132856691D01*
X155638500Y-133205250D01*
X155797250Y-133364000D01*
X156845000Y-133364000D01*
X156845000Y-133344000D01*
X157099000Y-133344000D01*
X157099000Y-133364000D01*
X158146750Y-133364000D01*
X158305500Y-133205250D01*
X158305500Y-132856691D01*
X158208827Y-132623302D01*
X158182291Y-132596765D01*
X158266931Y-132472890D01*
X158317940Y-132221000D01*
X158317940Y-131441862D01*
X162843401Y-126916401D01*
X163008148Y-126669839D01*
X163062858Y-126394798D01*
X163135201Y-126424838D01*
X163507167Y-126425162D01*
X163850943Y-126283117D01*
X163884118Y-126250000D01*
X163915453Y-126250000D01*
X163925169Y-126273515D01*
X164314436Y-126663461D01*
X164823298Y-126874759D01*
X165374285Y-126875240D01*
X165883515Y-126664831D01*
X166273461Y-126275564D01*
X166290000Y-126235734D01*
X166290000Y-138290000D01*
G36*
X127181000Y-119231869D02*
X127181000Y-120918000D01*
X127244561Y-121237541D01*
X127400263Y-121470566D01*
X127425566Y-121508434D01*
X128448060Y-122530928D01*
X128448060Y-122569000D01*
X128492338Y-122804317D01*
X128631410Y-123020441D01*
X128843610Y-123165431D01*
X129034000Y-123203986D01*
X129034000Y-124474000D01*
X129091852Y-124764839D01*
X129256599Y-125011401D01*
X130272599Y-126027401D01*
X130519161Y-126192148D01*
X130810000Y-126250000D01*
X143455537Y-126250000D01*
X143487673Y-126282192D01*
X143831201Y-126424838D01*
X144203167Y-126425162D01*
X144546943Y-126283117D01*
X144776829Y-126053631D01*
X145486539Y-126763341D01*
X145257808Y-126991673D01*
X145115162Y-127335201D01*
X145115106Y-127398984D01*
X145034000Y-127382560D01*
X143002000Y-127382560D01*
X142766683Y-127426838D01*
X142550559Y-127565910D01*
X142405569Y-127778110D01*
X142354560Y-128030000D01*
X142354560Y-128157000D01*
X142240000Y-128157000D01*
X142190590Y-128167006D01*
X142148965Y-128195447D01*
X142121685Y-128237841D01*
X142113000Y-128284000D01*
X142113000Y-129048000D01*
X141204066Y-129048000D01*
X141116590Y-128912059D01*
X140904390Y-128767069D01*
X140652500Y-128716060D01*
X139763500Y-128716060D01*
X139528183Y-128760338D01*
X139446997Y-128812580D01*
X139380390Y-128767069D01*
X139128500Y-128716060D01*
X138239500Y-128716060D01*
X138004183Y-128760338D01*
X137788059Y-128899410D01*
X137643069Y-129111610D01*
X137592060Y-129363500D01*
X137592060Y-130252500D01*
X137636338Y-130487817D01*
X137775410Y-130703941D01*
X137799000Y-130720059D01*
X137799000Y-130771178D01*
X137749162Y-130891201D01*
X137748838Y-131263167D01*
X137799000Y-131384569D01*
X137799000Y-131432370D01*
X137788059Y-131439410D01*
X137643069Y-131651610D01*
X137592060Y-131903500D01*
X137592060Y-132792500D01*
X137636338Y-133027817D01*
X137775410Y-133243941D01*
X137987610Y-133388931D01*
X138239500Y-133439940D01*
X139128500Y-133439940D01*
X139363817Y-133395662D01*
X139445003Y-133343420D01*
X139511610Y-133388931D01*
X139763500Y-133439940D01*
X140652500Y-133439940D01*
X140887817Y-133395662D01*
X141103941Y-133256590D01*
X141205468Y-133108000D01*
X142113000Y-133108000D01*
X142113000Y-134126000D01*
X142123006Y-134175410D01*
X142151447Y-134217035D01*
X142193841Y-134244315D01*
X142240000Y-134253000D01*
X142378457Y-134253000D01*
X142398838Y-134361317D01*
X142537910Y-134577441D01*
X142750110Y-134722431D01*
X143002000Y-134773440D01*
X145034000Y-134773440D01*
X145269317Y-134729162D01*
X145485441Y-134590090D01*
X145630431Y-134377890D01*
X145655722Y-134253000D01*
X145796000Y-134253000D01*
X145845410Y-134242994D01*
X145887035Y-134214553D01*
X145914315Y-134172159D01*
X145923000Y-134126000D01*
X145923000Y-133997000D01*
X147447000Y-133997000D01*
X147737839Y-133939148D01*
X147984401Y-133774401D01*
X149574388Y-132184414D01*
X149624301Y-132234327D01*
X149857690Y-132331000D01*
X149874000Y-132331000D01*
X149874000Y-133291198D01*
X148275198Y-134890000D01*
X136966802Y-134890000D01*
X128650941Y-126574139D01*
X128651165Y-126317367D01*
X128506461Y-125967157D01*
X128238753Y-125698980D01*
X127888795Y-125553665D01*
X127509867Y-125553335D01*
X127253804Y-125659138D01*
X126999795Y-125553665D01*
X126620867Y-125553335D01*
X126270657Y-125698039D01*
X126002480Y-125965747D01*
X125857165Y-126315705D01*
X125857106Y-126383592D01*
X125846998Y-126393700D01*
X124633099Y-126393700D01*
X124633162Y-126320833D01*
X124491117Y-125977057D01*
X124228327Y-125713808D01*
X123884799Y-125571162D01*
X123512833Y-125570838D01*
X123169057Y-125712883D01*
X123135882Y-125746000D01*
X123060162Y-125746000D01*
X123018986Y-125538993D01*
X123015102Y-125533180D01*
X123018986Y-125527367D01*
X123082500Y-125208060D01*
X123055981Y-125074739D01*
X123561787Y-124568932D01*
X123561790Y-124568930D01*
X123753633Y-124281815D01*
X123782073Y-124138838D01*
X123821001Y-123943140D01*
X123821000Y-123943135D01*
X123821000Y-121384714D01*
X124022441Y-121255090D01*
X124167431Y-121042890D01*
X124206000Y-120852431D01*
X124206000Y-120917310D01*
X124302673Y-121150699D01*
X124481302Y-121329327D01*
X124714691Y-121426000D01*
X125190250Y-121426000D01*
X125349000Y-121267250D01*
X125349000Y-120283000D01*
X125603000Y-120283000D01*
X125603000Y-121267250D01*
X125761750Y-121426000D01*
X126237309Y-121426000D01*
X126470698Y-121329327D01*
X126649327Y-121150699D01*
X126746000Y-120917310D01*
X126746000Y-120441750D01*
X126587250Y-120283000D01*
X125603000Y-120283000D01*
X125349000Y-120283000D01*
X125329000Y-120283000D01*
X125329000Y-120029000D01*
X125349000Y-120029000D01*
X125349000Y-120009000D01*
X125603000Y-120009000D01*
X125603000Y-120029000D01*
X126587250Y-120029000D01*
X126746000Y-119870250D01*
X126746000Y-119394690D01*
X126670741Y-119213000D01*
X127162132Y-119213000D01*
X127181000Y-119231869D01*
X127181000Y-119231869D01*
G37*
X127181000Y-119231869D02*
X127181000Y-120918000D01*
X127244561Y-121237541D01*
X127400263Y-121470566D01*
X127425566Y-121508434D01*
X128448060Y-122530928D01*
X128448060Y-122569000D01*
X128492338Y-122804317D01*
X128631410Y-123020441D01*
X128843610Y-123165431D01*
X129034000Y-123203986D01*
X129034000Y-124474000D01*
X129091852Y-124764839D01*
X129256599Y-125011401D01*
X130272599Y-126027401D01*
X130519161Y-126192148D01*
X130810000Y-126250000D01*
X143455537Y-126250000D01*
X143487673Y-126282192D01*
X143831201Y-126424838D01*
X144203167Y-126425162D01*
X144546943Y-126283117D01*
X144776829Y-126053631D01*
X145486539Y-126763341D01*
X145257808Y-126991673D01*
X145115162Y-127335201D01*
X145115106Y-127398984D01*
X145034000Y-127382560D01*
X143002000Y-127382560D01*
X142766683Y-127426838D01*
X142550559Y-127565910D01*
X142405569Y-127778110D01*
X142354560Y-128030000D01*
X142354560Y-128157000D01*
X142240000Y-128157000D01*
X142190590Y-128167006D01*
X142148965Y-128195447D01*
X142121685Y-128237841D01*
X142113000Y-128284000D01*
X142113000Y-129048000D01*
X141204066Y-129048000D01*
X141116590Y-128912059D01*
X140904390Y-128767069D01*
X140652500Y-128716060D01*
X139763500Y-128716060D01*
X139528183Y-128760338D01*
X139446997Y-128812580D01*
X139380390Y-128767069D01*
X139128500Y-128716060D01*
X138239500Y-128716060D01*
X138004183Y-128760338D01*
X137788059Y-128899410D01*
X137643069Y-129111610D01*
X137592060Y-129363500D01*
X137592060Y-130252500D01*
X137636338Y-130487817D01*
X137775410Y-130703941D01*
X137799000Y-130720059D01*
X137799000Y-130771178D01*
X137749162Y-130891201D01*
X137748838Y-131263167D01*
X137799000Y-131384569D01*
X137799000Y-131432370D01*
X137788059Y-131439410D01*
X137643069Y-131651610D01*
X137592060Y-131903500D01*
X137592060Y-132792500D01*
X137636338Y-133027817D01*
X137775410Y-133243941D01*
X137987610Y-133388931D01*
X138239500Y-133439940D01*
X139128500Y-133439940D01*
X139363817Y-133395662D01*
X139445003Y-133343420D01*
X139511610Y-133388931D01*
X139763500Y-133439940D01*
X140652500Y-133439940D01*
X140887817Y-133395662D01*
X141103941Y-133256590D01*
X141205468Y-133108000D01*
X142113000Y-133108000D01*
X142113000Y-134126000D01*
X142123006Y-134175410D01*
X142151447Y-134217035D01*
X142193841Y-134244315D01*
X142240000Y-134253000D01*
X142378457Y-134253000D01*
X142398838Y-134361317D01*
X142537910Y-134577441D01*
X142750110Y-134722431D01*
X143002000Y-134773440D01*
X145034000Y-134773440D01*
X145269317Y-134729162D01*
X145485441Y-134590090D01*
X145630431Y-134377890D01*
X145655722Y-134253000D01*
X145796000Y-134253000D01*
X145845410Y-134242994D01*
X145887035Y-134214553D01*
X145914315Y-134172159D01*
X145923000Y-134126000D01*
X145923000Y-133997000D01*
X147447000Y-133997000D01*
X147737839Y-133939148D01*
X147984401Y-133774401D01*
X149574388Y-132184414D01*
X149624301Y-132234327D01*
X149857690Y-132331000D01*
X149874000Y-132331000D01*
X149874000Y-133291198D01*
X148275198Y-134890000D01*
X136966802Y-134890000D01*
X128650941Y-126574139D01*
X128651165Y-126317367D01*
X128506461Y-125967157D01*
X128238753Y-125698980D01*
X127888795Y-125553665D01*
X127509867Y-125553335D01*
X127253804Y-125659138D01*
X126999795Y-125553665D01*
X126620867Y-125553335D01*
X126270657Y-125698039D01*
X126002480Y-125965747D01*
X125857165Y-126315705D01*
X125857106Y-126383592D01*
X125846998Y-126393700D01*
X124633099Y-126393700D01*
X124633162Y-126320833D01*
X124491117Y-125977057D01*
X124228327Y-125713808D01*
X123884799Y-125571162D01*
X123512833Y-125570838D01*
X123169057Y-125712883D01*
X123135882Y-125746000D01*
X123060162Y-125746000D01*
X123018986Y-125538993D01*
X123015102Y-125533180D01*
X123018986Y-125527367D01*
X123082500Y-125208060D01*
X123055981Y-125074739D01*
X123561787Y-124568932D01*
X123561790Y-124568930D01*
X123753633Y-124281815D01*
X123782073Y-124138838D01*
X123821001Y-123943140D01*
X123821000Y-123943135D01*
X123821000Y-121384714D01*
X124022441Y-121255090D01*
X124167431Y-121042890D01*
X124206000Y-120852431D01*
X124206000Y-120917310D01*
X124302673Y-121150699D01*
X124481302Y-121329327D01*
X124714691Y-121426000D01*
X125190250Y-121426000D01*
X125349000Y-121267250D01*
X125349000Y-120283000D01*
X125603000Y-120283000D01*
X125603000Y-121267250D01*
X125761750Y-121426000D01*
X126237309Y-121426000D01*
X126470698Y-121329327D01*
X126649327Y-121150699D01*
X126746000Y-120917310D01*
X126746000Y-120441750D01*
X126587250Y-120283000D01*
X125603000Y-120283000D01*
X125349000Y-120283000D01*
X125329000Y-120283000D01*
X125329000Y-120029000D01*
X125349000Y-120029000D01*
X125349000Y-120009000D01*
X125603000Y-120009000D01*
X125603000Y-120029000D01*
X126587250Y-120029000D01*
X126746000Y-119870250D01*
X126746000Y-119394690D01*
X126670741Y-119213000D01*
X127162132Y-119213000D01*
X127181000Y-119231869D01*
G36*
X166290000Y-85341774D02*
X166285010Y-85329697D01*
X165892370Y-84936371D01*
X165379100Y-84723243D01*
X164823339Y-84722758D01*
X164309697Y-84934990D01*
X163916371Y-85327630D01*
X163902930Y-85360000D01*
X160274000Y-85360000D01*
X159983161Y-85417852D01*
X159736599Y-85582599D01*
X153640599Y-91678599D01*
X153475852Y-91925161D01*
X153418000Y-92216000D01*
X153418000Y-119140000D01*
X153193750Y-119140000D01*
X153035000Y-119298750D01*
X153035000Y-120156000D01*
X153055000Y-120156000D01*
X153055000Y-120410000D01*
X153035000Y-120410000D01*
X153035000Y-120430000D01*
X152781000Y-120430000D01*
X152781000Y-120410000D01*
X152761000Y-120410000D01*
X152761000Y-120156000D01*
X152781000Y-120156000D01*
X152781000Y-119298750D01*
X152622250Y-119140000D01*
X152083190Y-119140000D01*
X151849801Y-119236673D01*
X151671173Y-119415302D01*
X151574500Y-119648691D01*
X151574500Y-119997250D01*
X151733248Y-120155998D01*
X151574500Y-120155998D01*
X151574500Y-120238699D01*
X151570799Y-120237162D01*
X151198833Y-120236838D01*
X150855057Y-120378883D01*
X150802299Y-120431549D01*
X150780750Y-120410000D01*
X149733000Y-120410000D01*
X149733000Y-120430000D01*
X149479000Y-120430000D01*
X149479000Y-120410000D01*
X149459000Y-120410000D01*
X149459000Y-120156000D01*
X149479000Y-120156000D01*
X149479000Y-119298750D01*
X149733000Y-119298750D01*
X149733000Y-120156000D01*
X150780750Y-120156000D01*
X150939500Y-119997250D01*
X150939500Y-119648691D01*
X150842827Y-119415302D01*
X150664199Y-119236673D01*
X150430810Y-119140000D01*
X149891750Y-119140000D01*
X149733000Y-119298750D01*
X149479000Y-119298750D01*
X149320250Y-119140000D01*
X148781190Y-119140000D01*
X148547801Y-119236673D01*
X148369173Y-119415302D01*
X148272500Y-119648691D01*
X148272500Y-119997250D01*
X148431248Y-120155998D01*
X148272500Y-120155998D01*
X148272500Y-120238699D01*
X148268799Y-120237162D01*
X147896833Y-120236838D01*
X147553057Y-120378883D01*
X147500299Y-120431549D01*
X147478750Y-120410000D01*
X146431000Y-120410000D01*
X146431000Y-120430000D01*
X146177000Y-120430000D01*
X146177000Y-120410000D01*
X146157000Y-120410000D01*
X146157000Y-120156000D01*
X146177000Y-120156000D01*
X146177000Y-119298750D01*
X146431000Y-119298750D01*
X146431000Y-120156000D01*
X147478750Y-120156000D01*
X147637500Y-119997250D01*
X147637500Y-119648691D01*
X147540827Y-119415302D01*
X147362199Y-119236673D01*
X147128810Y-119140000D01*
X146589750Y-119140000D01*
X146431000Y-119298750D01*
X146177000Y-119298750D01*
X146018250Y-119140000D01*
X145479190Y-119140000D01*
X145245801Y-119236673D01*
X145067173Y-119415302D01*
X144970500Y-119648691D01*
X144970500Y-119997250D01*
X145129248Y-120155998D01*
X144970500Y-120155998D01*
X144970500Y-120238699D01*
X144966799Y-120237162D01*
X144594833Y-120236838D01*
X144251057Y-120378883D01*
X144198299Y-120431549D01*
X144176750Y-120410000D01*
X143129000Y-120410000D01*
X143129000Y-120430000D01*
X142875000Y-120430000D01*
X142875000Y-120410000D01*
X142855000Y-120410000D01*
X142855000Y-120156000D01*
X142875000Y-120156000D01*
X142875000Y-119298750D01*
X143129000Y-119298750D01*
X143129000Y-120156000D01*
X144176750Y-120156000D01*
X144335500Y-119997250D01*
X144335500Y-119648691D01*
X144238827Y-119415302D01*
X144060199Y-119236673D01*
X143826810Y-119140000D01*
X143287750Y-119140000D01*
X143129000Y-119298750D01*
X142875000Y-119298750D01*
X142716250Y-119140000D01*
X142177190Y-119140000D01*
X141943801Y-119236673D01*
X141765173Y-119415302D01*
X141668500Y-119648691D01*
X141668500Y-119997250D01*
X141827248Y-120155998D01*
X141668500Y-120155998D01*
X141668500Y-120238699D01*
X141664799Y-120237162D01*
X141292833Y-120236838D01*
X140949057Y-120378883D01*
X140896299Y-120431549D01*
X140874750Y-120410000D01*
X139827000Y-120410000D01*
X139827000Y-120430000D01*
X139573000Y-120430000D01*
X139573000Y-120410000D01*
X139553000Y-120410000D01*
X139553000Y-120156000D01*
X139573000Y-120156000D01*
X139573000Y-119298750D01*
X139827000Y-119298750D01*
X139827000Y-120156000D01*
X140874750Y-120156000D01*
X141033500Y-119997250D01*
X141033500Y-119648691D01*
X140936827Y-119415302D01*
X140758199Y-119236673D01*
X140524810Y-119140000D01*
X139985750Y-119140000D01*
X139827000Y-119298750D01*
X139573000Y-119298750D01*
X139414250Y-119140000D01*
X139011000Y-119140000D01*
X139011000Y-118886000D01*
X138966482Y-118662192D01*
X138947440Y-118566460D01*
X138766434Y-118295566D01*
X135972434Y-115501566D01*
X135715667Y-115330000D01*
X135701541Y-115320561D01*
X135382000Y-115257000D01*
X122011868Y-115257000D01*
X121739000Y-114984132D01*
X121739000Y-105007868D01*
X121884868Y-104862000D01*
X123637040Y-104862000D01*
X123637040Y-105011250D01*
X123795790Y-105170000D01*
X124744480Y-105170000D01*
X124744480Y-105150000D01*
X124998480Y-105150000D01*
X124998480Y-105170000D01*
X125947170Y-105170000D01*
X126105920Y-105011250D01*
X126105920Y-104821441D01*
X126041515Y-104665953D01*
X126067351Y-104628140D01*
X126118360Y-104376250D01*
X126118360Y-103677750D01*
X126074082Y-103442433D01*
X126042884Y-103393949D01*
X126067351Y-103358140D01*
X126118360Y-103106250D01*
X126118360Y-102407750D01*
X126074082Y-102172433D01*
X126042884Y-102123949D01*
X126067351Y-102088140D01*
X126118360Y-101836250D01*
X126118360Y-101137750D01*
X126074082Y-100902433D01*
X126042884Y-100853949D01*
X126067351Y-100818140D01*
X126118360Y-100566250D01*
X126118360Y-99867750D01*
X126074082Y-99632433D01*
X125935010Y-99416309D01*
X125722810Y-99271319D01*
X125470920Y-99220310D01*
X124272040Y-99220310D01*
X124036723Y-99264588D01*
X123820599Y-99403660D01*
X123675609Y-99615860D01*
X123624600Y-99867750D01*
X123624600Y-100566250D01*
X123668878Y-100801567D01*
X123700076Y-100850051D01*
X123675609Y-100885860D01*
X123624600Y-101137750D01*
X123624600Y-101798058D01*
X123376799Y-101695162D01*
X123004833Y-101694838D01*
X122661057Y-101836883D01*
X122397808Y-102099673D01*
X122255162Y-102443201D01*
X122254838Y-102815167D01*
X122396883Y-103158943D01*
X122429882Y-103192000D01*
X121539000Y-103192000D01*
X121219460Y-103255560D01*
X120977000Y-103417567D01*
X120977000Y-89005868D01*
X121884868Y-88098000D01*
X123637040Y-88098000D01*
X123637040Y-88247250D01*
X123795790Y-88406000D01*
X124744480Y-88406000D01*
X124744480Y-88386000D01*
X124998480Y-88386000D01*
X124998480Y-88406000D01*
X125947170Y-88406000D01*
X126105920Y-88247250D01*
X126105920Y-88057441D01*
X126041515Y-87901953D01*
X126067351Y-87864140D01*
X126118360Y-87612250D01*
X126118360Y-86913750D01*
X126074082Y-86678433D01*
X126042884Y-86629949D01*
X126067351Y-86594140D01*
X126118360Y-86342250D01*
X126118360Y-85643750D01*
X126074082Y-85408433D01*
X126042884Y-85359949D01*
X126067351Y-85324140D01*
X126118360Y-85072250D01*
X126118360Y-84373750D01*
X126074082Y-84138433D01*
X126042884Y-84089949D01*
X126067351Y-84054140D01*
X126118360Y-83802250D01*
X126118360Y-83103750D01*
X126074082Y-82868433D01*
X125935010Y-82652309D01*
X125722810Y-82507319D01*
X125470920Y-82456310D01*
X124272040Y-82456310D01*
X124036723Y-82500588D01*
X123820599Y-82639660D01*
X123675609Y-82851860D01*
X123624600Y-83103750D01*
X123624600Y-83802250D01*
X123668878Y-84037567D01*
X123700076Y-84086051D01*
X123675609Y-84121860D01*
X123624600Y-84373750D01*
X123624600Y-85034058D01*
X123376799Y-84931162D01*
X123004833Y-84930838D01*
X122661057Y-85072883D01*
X122397808Y-85335673D01*
X122255162Y-85679201D01*
X122254838Y-86051167D01*
X122396883Y-86394943D01*
X122429882Y-86428000D01*
X121539000Y-86428000D01*
X121219459Y-86491561D01*
X121065939Y-86594140D01*
X120948566Y-86672566D01*
X120215000Y-87406132D01*
X120215000Y-72749868D01*
X121376868Y-71588000D01*
X123637040Y-71588000D01*
X123637040Y-71737250D01*
X123795790Y-71896000D01*
X124744480Y-71896000D01*
X124744480Y-71876000D01*
X124998480Y-71876000D01*
X124998480Y-71896000D01*
X125947170Y-71896000D01*
X126105920Y-71737250D01*
X126105920Y-71547441D01*
X126041515Y-71391953D01*
X126067351Y-71354140D01*
X126118360Y-71102250D01*
X126118360Y-70403750D01*
X126074082Y-70168433D01*
X126042884Y-70119949D01*
X126067351Y-70084140D01*
X126118360Y-69832250D01*
X126118360Y-69133750D01*
X126074082Y-68898433D01*
X126042884Y-68849949D01*
X126067351Y-68814140D01*
X126118360Y-68562250D01*
X126118360Y-67863750D01*
X126074082Y-67628433D01*
X126042884Y-67579949D01*
X126067351Y-67544140D01*
X126118360Y-67292250D01*
X126118360Y-66593750D01*
X126074082Y-66358433D01*
X125935010Y-66142309D01*
X125722810Y-65997319D01*
X125470920Y-65946310D01*
X124272040Y-65946310D01*
X124036723Y-65990588D01*
X123820599Y-66129660D01*
X123675609Y-66341860D01*
X123624600Y-66593750D01*
X123624600Y-67292250D01*
X123668878Y-67527567D01*
X123700076Y-67576051D01*
X123675609Y-67611860D01*
X123624600Y-67863750D01*
X123624600Y-68524058D01*
X123376799Y-68421162D01*
X123004833Y-68420838D01*
X122661057Y-68562883D01*
X122397808Y-68825673D01*
X122255162Y-69169201D01*
X122254838Y-69541167D01*
X122396883Y-69884943D01*
X122429882Y-69918000D01*
X121031000Y-69918000D01*
X120711460Y-69981560D01*
X120440566Y-70162566D01*
X119495002Y-71108130D01*
X119495002Y-56179750D01*
X123624600Y-56179750D01*
X123624600Y-56878250D01*
X123668878Y-57113567D01*
X123700076Y-57162051D01*
X123675609Y-57197860D01*
X123624600Y-57449750D01*
X123624600Y-58148250D01*
X123668878Y-58383567D01*
X123700076Y-58432051D01*
X123675609Y-58467860D01*
X123624600Y-58719750D01*
X123624600Y-59418250D01*
X123668878Y-59653567D01*
X123700076Y-59702051D01*
X123675609Y-59737860D01*
X123624600Y-59989750D01*
X123624600Y-60688250D01*
X123668878Y-60923567D01*
X123700076Y-60972051D01*
X123675609Y-61007860D01*
X123624600Y-61259750D01*
X123624600Y-61958250D01*
X123668878Y-62193567D01*
X123807950Y-62409691D01*
X124020150Y-62554681D01*
X124272040Y-62605690D01*
X125470920Y-62605690D01*
X125706237Y-62561412D01*
X125922361Y-62422340D01*
X126067351Y-62210140D01*
X126118360Y-61958250D01*
X126118360Y-61259750D01*
X126092817Y-61124000D01*
X128579842Y-61124000D01*
X132286921Y-64831079D01*
X132535002Y-64996840D01*
X130254921Y-67276921D01*
X130084755Y-67531593D01*
X130068789Y-67611860D01*
X130025000Y-67832000D01*
X130025000Y-73348842D01*
X128325842Y-75048000D01*
X127710376Y-75048000D01*
X127792192Y-74966327D01*
X127934838Y-74622799D01*
X127935162Y-74250833D01*
X127793117Y-73907057D01*
X127687290Y-73801046D01*
X127792192Y-73696327D01*
X127934838Y-73352799D01*
X127935162Y-72980833D01*
X127793117Y-72637057D01*
X127530327Y-72373808D01*
X127186799Y-72231162D01*
X126814833Y-72230838D01*
X126471057Y-72372883D01*
X126335704Y-72508000D01*
X126102009Y-72508000D01*
X126105920Y-72498559D01*
X126105920Y-72308750D01*
X125947170Y-72150000D01*
X124998480Y-72150000D01*
X124998480Y-72170000D01*
X124744480Y-72170000D01*
X124744480Y-72150000D01*
X123795790Y-72150000D01*
X123637040Y-72308750D01*
X123637040Y-72498559D01*
X123701445Y-72654047D01*
X123675609Y-72691860D01*
X123624600Y-72943750D01*
X123624600Y-73642250D01*
X123668878Y-73877567D01*
X123700076Y-73926051D01*
X123675609Y-73961860D01*
X123624600Y-74213750D01*
X123624600Y-74912250D01*
X123668878Y-75147567D01*
X123700076Y-75196051D01*
X123675609Y-75231860D01*
X123624600Y-75483750D01*
X123624600Y-76182250D01*
X123668878Y-76417567D01*
X123700076Y-76466051D01*
X123675609Y-76501860D01*
X123624600Y-76753750D01*
X123624600Y-77452250D01*
X123668878Y-77687567D01*
X123700076Y-77736051D01*
X123675609Y-77771860D01*
X123624600Y-78023750D01*
X123624600Y-78722250D01*
X123668878Y-78957567D01*
X123807950Y-79173691D01*
X124020150Y-79318681D01*
X124272040Y-79369690D01*
X125470920Y-79369690D01*
X125706237Y-79325412D01*
X125922361Y-79186340D01*
X126067351Y-78974140D01*
X126118360Y-78722250D01*
X126118360Y-78023750D01*
X126092817Y-77888000D01*
X126758201Y-77888000D01*
X126813201Y-77910838D01*
X127185167Y-77911162D01*
X127528943Y-77769117D01*
X127792192Y-77506327D01*
X127934838Y-77162799D01*
X127935162Y-76790833D01*
X127863749Y-76618000D01*
X128651000Y-76618000D01*
X128951407Y-76558245D01*
X129206079Y-76388079D01*
X131365079Y-74229079D01*
X131535245Y-73974407D01*
X131595000Y-73674000D01*
X131595000Y-68157158D01*
X132227893Y-67524265D01*
X132311673Y-67608192D01*
X132655201Y-67750838D01*
X133027167Y-67751162D01*
X133083223Y-67728000D01*
X133497130Y-67728000D01*
X133469640Y-67863750D01*
X133469640Y-68562250D01*
X133513918Y-68797567D01*
X133545116Y-68846051D01*
X133520649Y-68881860D01*
X133469640Y-69133750D01*
X133469640Y-69832250D01*
X133513918Y-70067567D01*
X133545116Y-70116051D01*
X133520649Y-70151860D01*
X133469640Y-70403750D01*
X133469640Y-71102250D01*
X133513918Y-71337567D01*
X133545116Y-71386051D01*
X133520649Y-71421860D01*
X133469640Y-71673750D01*
X133469640Y-72372250D01*
X133513918Y-72607567D01*
X133545116Y-72656051D01*
X133520649Y-72691860D01*
X133469640Y-72943750D01*
X133469640Y-73233291D01*
X133372327Y-73135808D01*
X133028799Y-72993162D01*
X132656833Y-72992838D01*
X132313057Y-73134883D01*
X132049808Y-73397673D01*
X131907162Y-73741201D01*
X131906838Y-74113167D01*
X132048883Y-74456943D01*
X132311673Y-74720192D01*
X132655201Y-74862838D01*
X132666690Y-74862848D01*
X132916001Y-75112159D01*
X132667921Y-75277921D01*
X131524921Y-76420921D01*
X131354755Y-76675593D01*
X131332911Y-76785412D01*
X131295000Y-76976000D01*
X131295000Y-79516000D01*
X131354755Y-79816407D01*
X131524921Y-80071079D01*
X132133735Y-80679893D01*
X132049808Y-80763673D01*
X131907162Y-81107201D01*
X131907019Y-81271000D01*
X131826000Y-81271000D01*
X131525594Y-81330755D01*
X131270921Y-81500921D01*
X129492921Y-83278921D01*
X129322755Y-83533593D01*
X129298732Y-83654365D01*
X129263000Y-83834000D01*
X129263000Y-90874842D01*
X128579842Y-91558000D01*
X128472376Y-91558000D01*
X128554192Y-91476327D01*
X128696838Y-91132799D01*
X128697162Y-90760833D01*
X128555117Y-90417057D01*
X128292327Y-90153808D01*
X127948799Y-90011162D01*
X127576833Y-90010838D01*
X127498398Y-90043247D01*
X127441913Y-90048438D01*
X127538192Y-89952327D01*
X127680838Y-89608799D01*
X127681162Y-89236833D01*
X127539117Y-88893057D01*
X127276327Y-88629808D01*
X126932799Y-88487162D01*
X126560833Y-88486838D01*
X126217057Y-88628883D01*
X126066424Y-88779254D01*
X125947170Y-88660000D01*
X124998480Y-88660000D01*
X124998480Y-88680000D01*
X124744480Y-88680000D01*
X124744480Y-88660000D01*
X123795790Y-88660000D01*
X123637040Y-88818750D01*
X123637040Y-89008559D01*
X123701445Y-89164047D01*
X123675609Y-89201860D01*
X123624600Y-89453750D01*
X123624600Y-90152250D01*
X123668878Y-90387567D01*
X123700076Y-90436051D01*
X123675609Y-90471860D01*
X123624600Y-90723750D01*
X123624600Y-91422250D01*
X123668878Y-91657567D01*
X123700076Y-91706051D01*
X123675609Y-91741860D01*
X123624600Y-91993750D01*
X123624600Y-92692250D01*
X123668878Y-92927567D01*
X123700076Y-92976051D01*
X123675609Y-93011860D01*
X123624600Y-93263750D01*
X123624600Y-93962250D01*
X123668878Y-94197567D01*
X123700076Y-94246051D01*
X123675609Y-94281860D01*
X123624600Y-94533750D01*
X123624600Y-95232250D01*
X123668878Y-95467567D01*
X123807950Y-95683691D01*
X124020150Y-95828681D01*
X124272040Y-95879690D01*
X125470920Y-95879690D01*
X125706237Y-95835412D01*
X125922361Y-95696340D01*
X126067351Y-95484140D01*
X126118360Y-95232250D01*
X126118360Y-94533750D01*
X126092817Y-94398000D01*
X126589715Y-94398000D01*
X126723673Y-94532192D01*
X127067201Y-94674838D01*
X127439167Y-94675162D01*
X127782943Y-94533117D01*
X128046192Y-94270327D01*
X128188838Y-93926799D01*
X128189162Y-93554833D01*
X128047117Y-93211057D01*
X127964205Y-93128000D01*
X128905000Y-93128000D01*
X129205407Y-93068245D01*
X129460079Y-92898079D01*
X130603079Y-91755079D01*
X130773245Y-91500407D01*
X130833000Y-91200000D01*
X130833000Y-84159158D01*
X131945653Y-83046505D01*
X131907162Y-83139201D01*
X131906838Y-83511167D01*
X132048883Y-83854943D01*
X132311673Y-84118192D01*
X132655201Y-84260838D01*
X133027167Y-84261162D01*
X133083223Y-84238000D01*
X133497130Y-84238000D01*
X133469640Y-84373750D01*
X133469640Y-85072250D01*
X133513918Y-85307567D01*
X133545116Y-85356051D01*
X133520649Y-85391860D01*
X133469640Y-85643750D01*
X133469640Y-86342250D01*
X133513918Y-86577567D01*
X133545116Y-86626051D01*
X133520649Y-86661860D01*
X133469640Y-86913750D01*
X133469640Y-87612250D01*
X133513918Y-87847567D01*
X133545116Y-87896051D01*
X133520649Y-87931860D01*
X133469640Y-88183750D01*
X133469640Y-88882250D01*
X133513918Y-89117567D01*
X133545116Y-89166051D01*
X133520649Y-89201860D01*
X133469640Y-89453750D01*
X133469640Y-90152250D01*
X133495183Y-90288000D01*
X133294158Y-90288000D01*
X132761153Y-89754995D01*
X132761162Y-89744833D01*
X132619117Y-89401057D01*
X132356327Y-89137808D01*
X132012799Y-88995162D01*
X131640833Y-88994838D01*
X131297057Y-89136883D01*
X131033808Y-89399673D01*
X130891162Y-89743201D01*
X130890838Y-90115167D01*
X131032883Y-90458943D01*
X131295673Y-90722192D01*
X131639201Y-90864838D01*
X131650690Y-90864848D01*
X132413921Y-91628079D01*
X132533532Y-91708000D01*
X132413921Y-91787921D01*
X131778921Y-92422921D01*
X131608755Y-92677593D01*
X131584474Y-92799660D01*
X131549000Y-92978000D01*
X131549000Y-96280000D01*
X131608755Y-96580407D01*
X131778921Y-96835079D01*
X132387735Y-97443893D01*
X132303808Y-97527673D01*
X132161162Y-97871201D01*
X132160894Y-98179413D01*
X132032921Y-98264921D01*
X128984921Y-101312921D01*
X128814755Y-101567593D01*
X128800949Y-101637000D01*
X128755000Y-101868000D01*
X128755000Y-107130842D01*
X127935012Y-107950830D01*
X127935162Y-107778833D01*
X127793117Y-107435057D01*
X127647426Y-107289111D01*
X127782943Y-107233117D01*
X128046192Y-106970327D01*
X128188838Y-106626799D01*
X128189162Y-106254833D01*
X128047117Y-105911057D01*
X127784327Y-105647808D01*
X127440799Y-105505162D01*
X127068833Y-105504838D01*
X126725057Y-105646883D01*
X126589704Y-105782000D01*
X126102009Y-105782000D01*
X126105920Y-105772559D01*
X126105920Y-105582750D01*
X125947170Y-105424000D01*
X124998480Y-105424000D01*
X124998480Y-105444000D01*
X124744480Y-105444000D01*
X124744480Y-105424000D01*
X123795790Y-105424000D01*
X123637040Y-105582750D01*
X123637040Y-105772559D01*
X123701445Y-105928047D01*
X123675609Y-105965860D01*
X123624600Y-106217750D01*
X123624600Y-106916250D01*
X123668878Y-107151567D01*
X123700076Y-107200051D01*
X123675609Y-107235860D01*
X123624600Y-107487750D01*
X123624600Y-108186250D01*
X123668878Y-108421567D01*
X123700076Y-108470051D01*
X123675609Y-108505860D01*
X123624600Y-108757750D01*
X123624600Y-109456250D01*
X123668878Y-109691567D01*
X123700076Y-109740051D01*
X123675609Y-109775860D01*
X123624600Y-110027750D01*
X123624600Y-110726250D01*
X123668878Y-110961567D01*
X123700076Y-111010051D01*
X123675609Y-111045860D01*
X123624600Y-111297750D01*
X123624600Y-111996250D01*
X123668878Y-112231567D01*
X123807950Y-112447691D01*
X124020150Y-112592681D01*
X124272040Y-112643690D01*
X125470920Y-112643690D01*
X125706237Y-112599412D01*
X125922361Y-112460340D01*
X126067351Y-112248140D01*
X126118360Y-111996250D01*
X126118360Y-111297750D01*
X126092817Y-111162000D01*
X126758201Y-111162000D01*
X126813201Y-111184838D01*
X127185167Y-111185162D01*
X127528943Y-111043117D01*
X127792192Y-110780327D01*
X127934838Y-110436799D01*
X127935162Y-110064833D01*
X127863749Y-109892000D01*
X127889000Y-109892000D01*
X128189407Y-109832245D01*
X128444079Y-109662079D01*
X130095079Y-108011079D01*
X130265245Y-107756406D01*
X130325001Y-107456000D01*
X130325000Y-107455995D01*
X130325000Y-102193158D01*
X132184858Y-100333300D01*
X132302883Y-100618943D01*
X132565673Y-100882192D01*
X132909201Y-101024838D01*
X133281167Y-101025162D01*
X133337223Y-101002000D01*
X133497130Y-101002000D01*
X133469640Y-101137750D01*
X133469640Y-101836250D01*
X133513918Y-102071567D01*
X133545116Y-102120051D01*
X133520649Y-102155860D01*
X133469640Y-102407750D01*
X133469640Y-103106250D01*
X133513918Y-103341567D01*
X133545116Y-103390051D01*
X133520649Y-103425860D01*
X133469640Y-103677750D01*
X133469640Y-104376250D01*
X133513918Y-104611567D01*
X133545116Y-104660051D01*
X133520649Y-104695860D01*
X133469640Y-104947750D01*
X133469640Y-105646250D01*
X133513918Y-105881567D01*
X133545116Y-105930051D01*
X133520649Y-105965860D01*
X133470696Y-106212538D01*
X133269153Y-106010995D01*
X133269162Y-106000833D01*
X133127117Y-105657057D01*
X132864327Y-105393808D01*
X132520799Y-105251162D01*
X132148833Y-105250838D01*
X131805057Y-105392883D01*
X131541808Y-105655673D01*
X131399162Y-105999201D01*
X131398838Y-106371167D01*
X131540883Y-106714943D01*
X131803673Y-106978192D01*
X132147201Y-107120838D01*
X132158690Y-107120848D01*
X132328669Y-107290827D01*
X132370755Y-107502407D01*
X132540921Y-107757079D01*
X133175921Y-108392079D01*
X133261110Y-108449000D01*
X133096000Y-108449000D01*
X132795593Y-108508755D01*
X132540921Y-108678921D01*
X131524921Y-109694921D01*
X131354755Y-109949593D01*
X131333619Y-110055852D01*
X131295000Y-110250000D01*
X131295000Y-112790000D01*
X131354755Y-113090407D01*
X131524921Y-113345079D01*
X133048919Y-114869076D01*
X133048921Y-114869079D01*
X133303594Y-115039245D01*
X133604000Y-115099000D01*
X144272000Y-115099000D01*
X144572407Y-115039245D01*
X144827079Y-114869079D01*
X147223520Y-112472638D01*
X147355237Y-112472753D01*
X147892226Y-112250874D01*
X148303430Y-111840387D01*
X148335804Y-111762421D01*
X148367126Y-111838226D01*
X148777613Y-112249430D01*
X149314214Y-112472246D01*
X149895237Y-112472753D01*
X150432226Y-112250874D01*
X150843430Y-111840387D01*
X151066246Y-111303786D01*
X151066753Y-110722763D01*
X150844874Y-110185774D01*
X150434387Y-109774570D01*
X149897786Y-109551754D01*
X149316763Y-109551247D01*
X148779774Y-109773126D01*
X148368570Y-110183613D01*
X148336196Y-110261579D01*
X148304874Y-110185774D01*
X147894387Y-109774570D01*
X147357786Y-109551754D01*
X146776763Y-109551247D01*
X146239774Y-109773126D01*
X145828570Y-110183613D01*
X145796196Y-110261579D01*
X145764874Y-110185774D01*
X145354387Y-109774570D01*
X145311000Y-109756554D01*
X145311000Y-108980000D01*
X145251245Y-108679594D01*
X145081079Y-108424921D01*
X140579158Y-103923000D01*
X147066000Y-103923000D01*
X147366407Y-103863245D01*
X147621079Y-103693079D01*
X149093543Y-102220615D01*
X149314214Y-102312246D01*
X149895237Y-102312753D01*
X150432226Y-102090874D01*
X150843430Y-101680387D01*
X151066246Y-101143786D01*
X151066753Y-100562763D01*
X150844874Y-100025774D01*
X150434387Y-99614570D01*
X149897786Y-99391754D01*
X149316763Y-99391247D01*
X148779774Y-99613126D01*
X148368570Y-100023613D01*
X148336196Y-100101579D01*
X148304874Y-100025774D01*
X147894387Y-99614570D01*
X147799083Y-99574996D01*
X147791245Y-99535593D01*
X147621079Y-99280921D01*
X146605079Y-98264921D01*
X146350407Y-98094755D01*
X146050000Y-98035000D01*
X144757256Y-98035000D01*
X144826407Y-98021245D01*
X145081079Y-97851079D01*
X147223520Y-95708638D01*
X147355237Y-95708753D01*
X147892226Y-95486874D01*
X148303430Y-95076387D01*
X148335804Y-94998421D01*
X148367126Y-95074226D01*
X148777613Y-95485430D01*
X149314214Y-95708246D01*
X149895237Y-95708753D01*
X150432226Y-95486874D01*
X150843430Y-95076387D01*
X151066246Y-94539786D01*
X151066753Y-93958763D01*
X150844874Y-93421774D01*
X150434387Y-93010570D01*
X149897786Y-92787754D01*
X149316763Y-92787247D01*
X148779774Y-93009126D01*
X148368570Y-93419613D01*
X148336196Y-93497579D01*
X148304874Y-93421774D01*
X147894387Y-93010570D01*
X147357786Y-92787754D01*
X146776763Y-92787247D01*
X146239774Y-93009126D01*
X145828570Y-93419613D01*
X145796196Y-93497579D01*
X145764874Y-93421774D01*
X145354387Y-93010570D01*
X145311000Y-92992554D01*
X145311000Y-92978005D01*
X145311001Y-92978000D01*
X145251245Y-92677594D01*
X145251244Y-92677593D01*
X145081079Y-92422921D01*
X145081076Y-92422919D01*
X139817158Y-87159000D01*
X148590000Y-87159000D01*
X148890407Y-87099245D01*
X149145079Y-86929079D01*
X150161079Y-85913079D01*
X150331245Y-85658407D01*
X150391000Y-85358000D01*
X150391000Y-85343908D01*
X150432226Y-85326874D01*
X150843430Y-84916387D01*
X151066246Y-84379786D01*
X151066753Y-83798763D01*
X150844874Y-83261774D01*
X150434387Y-82850570D01*
X149897786Y-82627754D01*
X149316763Y-82627247D01*
X148779774Y-82849126D01*
X148368570Y-83259613D01*
X148336196Y-83337579D01*
X148304874Y-83261774D01*
X147894387Y-82850570D01*
X147799083Y-82810996D01*
X147791245Y-82771593D01*
X147621079Y-82516921D01*
X146605079Y-81500921D01*
X146350407Y-81330755D01*
X146050000Y-81271000D01*
X144249256Y-81271000D01*
X144318407Y-81257245D01*
X144573079Y-81087079D01*
X146553543Y-79106615D01*
X146774214Y-79198246D01*
X147355237Y-79198753D01*
X147892226Y-78976874D01*
X148303430Y-78566387D01*
X148335804Y-78488421D01*
X148367126Y-78564226D01*
X148777613Y-78975430D01*
X149314214Y-79198246D01*
X149895237Y-79198753D01*
X150432226Y-78976874D01*
X150843430Y-78566387D01*
X151066246Y-78029786D01*
X151066753Y-77448763D01*
X150844874Y-76911774D01*
X150434387Y-76500570D01*
X149897786Y-76277754D01*
X149316763Y-76277247D01*
X148779774Y-76499126D01*
X148368570Y-76909613D01*
X148336196Y-76987579D01*
X148304874Y-76911774D01*
X147894387Y-76500570D01*
X147357786Y-76277754D01*
X146776763Y-76277247D01*
X146239774Y-76499126D01*
X145828570Y-76909613D01*
X145796196Y-76987579D01*
X145764874Y-76911774D01*
X145354387Y-76500570D01*
X145311000Y-76482554D01*
X145311000Y-75198000D01*
X145275526Y-75019660D01*
X145251245Y-74897593D01*
X145081079Y-74642921D01*
X140706158Y-70268000D01*
X147701000Y-70268000D01*
X148001407Y-70208245D01*
X148256079Y-70038079D01*
X149273018Y-69021140D01*
X149314214Y-69038246D01*
X149895237Y-69038753D01*
X150432226Y-68816874D01*
X150843430Y-68406387D01*
X151066246Y-67869786D01*
X151066753Y-67288763D01*
X150844874Y-66751774D01*
X150434387Y-66340570D01*
X149897786Y-66117754D01*
X149316763Y-66117247D01*
X148779774Y-66339126D01*
X148368570Y-66749613D01*
X148336196Y-66827579D01*
X148304874Y-66751774D01*
X147894387Y-66340570D01*
X147851000Y-66322554D01*
X147851000Y-66308000D01*
X147815526Y-66129660D01*
X147791245Y-66007593D01*
X147621079Y-65752921D01*
X146763261Y-64895103D01*
X146859079Y-64831079D01*
X149273018Y-62417140D01*
X149314214Y-62434246D01*
X149895237Y-62434753D01*
X150432226Y-62212874D01*
X150843430Y-61802387D01*
X151066246Y-61265786D01*
X151066753Y-60684763D01*
X150844874Y-60147774D01*
X150434387Y-59736570D01*
X149897786Y-59513754D01*
X149316763Y-59513247D01*
X148779774Y-59735126D01*
X148368570Y-60145613D01*
X148336196Y-60223579D01*
X148304874Y-60147774D01*
X147894387Y-59736570D01*
X147357786Y-59513754D01*
X146776763Y-59513247D01*
X146239774Y-59735126D01*
X145828570Y-60145613D01*
X145796196Y-60223579D01*
X145764874Y-60147774D01*
X145354387Y-59736570D01*
X144817786Y-59513754D01*
X144236763Y-59513247D01*
X144168326Y-59541524D01*
X138105802Y-53479000D01*
X147701000Y-53479000D01*
X147991839Y-53421148D01*
X148238401Y-53256401D01*
X149248036Y-52246766D01*
X149314214Y-52274246D01*
X149895237Y-52274753D01*
X150432226Y-52052874D01*
X150843430Y-51642387D01*
X151066246Y-51105786D01*
X151066753Y-50524763D01*
X150844874Y-49987774D01*
X150434387Y-49576570D01*
X149897786Y-49353754D01*
X149316763Y-49353247D01*
X148779774Y-49575126D01*
X148368570Y-49985613D01*
X148336196Y-50063579D01*
X148304874Y-49987774D01*
X147894387Y-49576570D01*
X147826000Y-49548173D01*
X147826000Y-48528172D01*
X160332538Y-48528172D01*
X160737709Y-49508761D01*
X161487293Y-50259655D01*
X162467173Y-50666536D01*
X163528172Y-50667462D01*
X164508761Y-50262291D01*
X165259655Y-49512707D01*
X165666536Y-48532827D01*
X165667462Y-47471828D01*
X165262291Y-46491239D01*
X164512707Y-45740345D01*
X163532827Y-45333464D01*
X162471828Y-45332538D01*
X161491239Y-45737709D01*
X160740345Y-46487293D01*
X160333464Y-47467173D01*
X160332538Y-48528172D01*
X147826000Y-48528172D01*
X147826000Y-46750000D01*
X147768148Y-46459161D01*
X147768148Y-46459160D01*
X147603401Y-46212599D01*
X147349401Y-45958599D01*
X147102839Y-45793852D01*
X146812000Y-45736000D01*
X132588000Y-45736000D01*
X132297160Y-45793852D01*
X132050599Y-45958599D01*
X130780599Y-47228599D01*
X130615852Y-47475161D01*
X130558000Y-47766000D01*
X130558000Y-54331367D01*
X130234799Y-54197162D01*
X129862833Y-54196838D01*
X129519057Y-54338883D01*
X129255808Y-54601673D01*
X129113162Y-54945201D01*
X129113152Y-54956690D01*
X128325842Y-55744000D01*
X126102009Y-55744000D01*
X126105920Y-55734559D01*
X126105920Y-55544750D01*
X125947170Y-55386000D01*
X124998480Y-55386000D01*
X124998480Y-55406000D01*
X124744480Y-55406000D01*
X124744480Y-55386000D01*
X123795790Y-55386000D01*
X123637040Y-55544750D01*
X123637040Y-55734559D01*
X123701445Y-55890047D01*
X123675609Y-55927860D01*
X123624600Y-56179750D01*
X119495002Y-56179750D01*
X119495002Y-55223868D01*
X119894870Y-54824000D01*
X123637040Y-54824000D01*
X123637040Y-54973250D01*
X123795790Y-55132000D01*
X124744480Y-55132000D01*
X124744480Y-55112000D01*
X124998480Y-55112000D01*
X124998480Y-55132000D01*
X125947170Y-55132000D01*
X126105920Y-54973250D01*
X126105920Y-54783441D01*
X126041515Y-54627953D01*
X126067351Y-54590140D01*
X126118360Y-54338250D01*
X126118360Y-53639750D01*
X126074082Y-53404433D01*
X126042884Y-53355949D01*
X126067351Y-53320140D01*
X126118360Y-53068250D01*
X126118360Y-52369750D01*
X126074082Y-52134433D01*
X126042884Y-52085949D01*
X126067351Y-52050140D01*
X126118360Y-51798250D01*
X126118360Y-51099750D01*
X126074082Y-50864433D01*
X126042884Y-50815949D01*
X126067351Y-50780140D01*
X126118360Y-50528250D01*
X126118360Y-49829750D01*
X126074082Y-49594433D01*
X125935010Y-49378309D01*
X125722810Y-49233319D01*
X125470920Y-49182310D01*
X124272040Y-49182310D01*
X124036723Y-49226588D01*
X123820599Y-49365660D01*
X123675609Y-49577860D01*
X123624600Y-49829750D01*
X123624600Y-50528250D01*
X123668878Y-50763567D01*
X123700076Y-50812051D01*
X123675609Y-50847860D01*
X123624600Y-51099750D01*
X123624600Y-51760058D01*
X123376799Y-51657162D01*
X123004833Y-51656838D01*
X122661057Y-51798883D01*
X122397808Y-52061673D01*
X122255162Y-52405201D01*
X122254838Y-52777167D01*
X122396883Y-53120943D01*
X122429882Y-53154000D01*
X119549002Y-53154000D01*
X119229461Y-53217561D01*
X119075941Y-53320140D01*
X118958568Y-53398566D01*
X118196148Y-54160986D01*
X118069568Y-54245564D01*
X117888563Y-54516457D01*
X117825002Y-54835998D01*
X117825002Y-116388843D01*
X117783000Y-116600000D01*
X117846561Y-116919540D01*
X118027566Y-117190434D01*
X118052744Y-117207258D01*
X118069568Y-117232436D01*
X119805566Y-118968434D01*
X120076459Y-119149439D01*
X120396000Y-119213000D01*
X121742907Y-119213000D01*
X121704569Y-119269110D01*
X121653560Y-119521000D01*
X121653560Y-120791000D01*
X121697838Y-121026317D01*
X121836910Y-121242441D01*
X122049110Y-121387431D01*
X122051000Y-121387814D01*
X122051000Y-121778518D01*
X122004074Y-121747163D01*
X121493280Y-121645560D01*
X120982486Y-121747163D01*
X120549455Y-122036505D01*
X120396053Y-122266088D01*
X120223132Y-122150546D01*
X119785725Y-122063540D01*
X118705035Y-122063540D01*
X118267628Y-122150546D01*
X117896812Y-122398317D01*
X117710000Y-122677901D01*
X117710000Y-48528172D01*
X118332538Y-48528172D01*
X118737709Y-49508761D01*
X119487293Y-50259655D01*
X120467173Y-50666536D01*
X121528172Y-50667462D01*
X122508761Y-50262291D01*
X123259655Y-49512707D01*
X123666536Y-48532827D01*
X123667462Y-47471828D01*
X123262291Y-46491239D01*
X122512707Y-45740345D01*
X121532827Y-45333464D01*
X120471828Y-45332538D01*
X119491239Y-45737709D01*
X118740345Y-46487293D01*
X118333464Y-47467173D01*
X118332538Y-48528172D01*
X117710000Y-48528172D01*
X117710000Y-44710000D01*
X166290000Y-44710000D01*
X166290000Y-85341774D01*
X166290000Y-85341774D01*
G37*
X166290000Y-85341774D02*
X166285010Y-85329697D01*
X165892370Y-84936371D01*
X165379100Y-84723243D01*
X164823339Y-84722758D01*
X164309697Y-84934990D01*
X163916371Y-85327630D01*
X163902930Y-85360000D01*
X160274000Y-85360000D01*
X159983161Y-85417852D01*
X159736599Y-85582599D01*
X153640599Y-91678599D01*
X153475852Y-91925161D01*
X153418000Y-92216000D01*
X153418000Y-119140000D01*
X153193750Y-119140000D01*
X153035000Y-119298750D01*
X153035000Y-120156000D01*
X153055000Y-120156000D01*
X153055000Y-120410000D01*
X153035000Y-120410000D01*
X153035000Y-120430000D01*
X152781000Y-120430000D01*
X152781000Y-120410000D01*
X152761000Y-120410000D01*
X152761000Y-120156000D01*
X152781000Y-120156000D01*
X152781000Y-119298750D01*
X152622250Y-119140000D01*
X152083190Y-119140000D01*
X151849801Y-119236673D01*
X151671173Y-119415302D01*
X151574500Y-119648691D01*
X151574500Y-119997250D01*
X151733248Y-120155998D01*
X151574500Y-120155998D01*
X151574500Y-120238699D01*
X151570799Y-120237162D01*
X151198833Y-120236838D01*
X150855057Y-120378883D01*
X150802299Y-120431549D01*
X150780750Y-120410000D01*
X149733000Y-120410000D01*
X149733000Y-120430000D01*
X149479000Y-120430000D01*
X149479000Y-120410000D01*
X149459000Y-120410000D01*
X149459000Y-120156000D01*
X149479000Y-120156000D01*
X149479000Y-119298750D01*
X149733000Y-119298750D01*
X149733000Y-120156000D01*
X150780750Y-120156000D01*
X150939500Y-119997250D01*
X150939500Y-119648691D01*
X150842827Y-119415302D01*
X150664199Y-119236673D01*
X150430810Y-119140000D01*
X149891750Y-119140000D01*
X149733000Y-119298750D01*
X149479000Y-119298750D01*
X149320250Y-119140000D01*
X148781190Y-119140000D01*
X148547801Y-119236673D01*
X148369173Y-119415302D01*
X148272500Y-119648691D01*
X148272500Y-119997250D01*
X148431248Y-120155998D01*
X148272500Y-120155998D01*
X148272500Y-120238699D01*
X148268799Y-120237162D01*
X147896833Y-120236838D01*
X147553057Y-120378883D01*
X147500299Y-120431549D01*
X147478750Y-120410000D01*
X146431000Y-120410000D01*
X146431000Y-120430000D01*
X146177000Y-120430000D01*
X146177000Y-120410000D01*
X146157000Y-120410000D01*
X146157000Y-120156000D01*
X146177000Y-120156000D01*
X146177000Y-119298750D01*
X146431000Y-119298750D01*
X146431000Y-120156000D01*
X147478750Y-120156000D01*
X147637500Y-119997250D01*
X147637500Y-119648691D01*
X147540827Y-119415302D01*
X147362199Y-119236673D01*
X147128810Y-119140000D01*
X146589750Y-119140000D01*
X146431000Y-119298750D01*
X146177000Y-119298750D01*
X146018250Y-119140000D01*
X145479190Y-119140000D01*
X145245801Y-119236673D01*
X145067173Y-119415302D01*
X144970500Y-119648691D01*
X144970500Y-119997250D01*
X145129248Y-120155998D01*
X144970500Y-120155998D01*
X144970500Y-120238699D01*
X144966799Y-120237162D01*
X144594833Y-120236838D01*
X144251057Y-120378883D01*
X144198299Y-120431549D01*
X144176750Y-120410000D01*
X143129000Y-120410000D01*
X143129000Y-120430000D01*
X142875000Y-120430000D01*
X142875000Y-120410000D01*
X142855000Y-120410000D01*
X142855000Y-120156000D01*
X142875000Y-120156000D01*
X142875000Y-119298750D01*
X143129000Y-119298750D01*
X143129000Y-120156000D01*
X144176750Y-120156000D01*
X144335500Y-119997250D01*
X144335500Y-119648691D01*
X144238827Y-119415302D01*
X144060199Y-119236673D01*
X143826810Y-119140000D01*
X143287750Y-119140000D01*
X143129000Y-119298750D01*
X142875000Y-119298750D01*
X142716250Y-119140000D01*
X142177190Y-119140000D01*
X141943801Y-119236673D01*
X141765173Y-119415302D01*
X141668500Y-119648691D01*
X141668500Y-119997250D01*
X141827248Y-120155998D01*
X141668500Y-120155998D01*
X141668500Y-120238699D01*
X141664799Y-120237162D01*
X141292833Y-120236838D01*
X140949057Y-120378883D01*
X140896299Y-120431549D01*
X140874750Y-120410000D01*
X139827000Y-120410000D01*
X139827000Y-120430000D01*
X139573000Y-120430000D01*
X139573000Y-120410000D01*
X139553000Y-120410000D01*
X139553000Y-120156000D01*
X139573000Y-120156000D01*
X139573000Y-119298750D01*
X139827000Y-119298750D01*
X139827000Y-120156000D01*
X140874750Y-120156000D01*
X141033500Y-119997250D01*
X141033500Y-119648691D01*
X140936827Y-119415302D01*
X140758199Y-119236673D01*
X140524810Y-119140000D01*
X139985750Y-119140000D01*
X139827000Y-119298750D01*
X139573000Y-119298750D01*
X139414250Y-119140000D01*
X139011000Y-119140000D01*
X139011000Y-118886000D01*
X138966482Y-118662192D01*
X138947440Y-118566460D01*
X138766434Y-118295566D01*
X135972434Y-115501566D01*
X135715667Y-115330000D01*
X135701541Y-115320561D01*
X135382000Y-115257000D01*
X122011868Y-115257000D01*
X121739000Y-114984132D01*
X121739000Y-105007868D01*
X121884868Y-104862000D01*
X123637040Y-104862000D01*
X123637040Y-105011250D01*
X123795790Y-105170000D01*
X124744480Y-105170000D01*
X124744480Y-105150000D01*
X124998480Y-105150000D01*
X124998480Y-105170000D01*
X125947170Y-105170000D01*
X126105920Y-105011250D01*
X126105920Y-104821441D01*
X126041515Y-104665953D01*
X126067351Y-104628140D01*
X126118360Y-104376250D01*
X126118360Y-103677750D01*
X126074082Y-103442433D01*
X126042884Y-103393949D01*
X126067351Y-103358140D01*
X126118360Y-103106250D01*
X126118360Y-102407750D01*
X126074082Y-102172433D01*
X126042884Y-102123949D01*
X126067351Y-102088140D01*
X126118360Y-101836250D01*
X126118360Y-101137750D01*
X126074082Y-100902433D01*
X126042884Y-100853949D01*
X126067351Y-100818140D01*
X126118360Y-100566250D01*
X126118360Y-99867750D01*
X126074082Y-99632433D01*
X125935010Y-99416309D01*
X125722810Y-99271319D01*
X125470920Y-99220310D01*
X124272040Y-99220310D01*
X124036723Y-99264588D01*
X123820599Y-99403660D01*
X123675609Y-99615860D01*
X123624600Y-99867750D01*
X123624600Y-100566250D01*
X123668878Y-100801567D01*
X123700076Y-100850051D01*
X123675609Y-100885860D01*
X123624600Y-101137750D01*
X123624600Y-101798058D01*
X123376799Y-101695162D01*
X123004833Y-101694838D01*
X122661057Y-101836883D01*
X122397808Y-102099673D01*
X122255162Y-102443201D01*
X122254838Y-102815167D01*
X122396883Y-103158943D01*
X122429882Y-103192000D01*
X121539000Y-103192000D01*
X121219460Y-103255560D01*
X120977000Y-103417567D01*
X120977000Y-89005868D01*
X121884868Y-88098000D01*
X123637040Y-88098000D01*
X123637040Y-88247250D01*
X123795790Y-88406000D01*
X124744480Y-88406000D01*
X124744480Y-88386000D01*
X124998480Y-88386000D01*
X124998480Y-88406000D01*
X125947170Y-88406000D01*
X126105920Y-88247250D01*
X126105920Y-88057441D01*
X126041515Y-87901953D01*
X126067351Y-87864140D01*
X126118360Y-87612250D01*
X126118360Y-86913750D01*
X126074082Y-86678433D01*
X126042884Y-86629949D01*
X126067351Y-86594140D01*
X126118360Y-86342250D01*
X126118360Y-85643750D01*
X126074082Y-85408433D01*
X126042884Y-85359949D01*
X126067351Y-85324140D01*
X126118360Y-85072250D01*
X126118360Y-84373750D01*
X126074082Y-84138433D01*
X126042884Y-84089949D01*
X126067351Y-84054140D01*
X126118360Y-83802250D01*
X126118360Y-83103750D01*
X126074082Y-82868433D01*
X125935010Y-82652309D01*
X125722810Y-82507319D01*
X125470920Y-82456310D01*
X124272040Y-82456310D01*
X124036723Y-82500588D01*
X123820599Y-82639660D01*
X123675609Y-82851860D01*
X123624600Y-83103750D01*
X123624600Y-83802250D01*
X123668878Y-84037567D01*
X123700076Y-84086051D01*
X123675609Y-84121860D01*
X123624600Y-84373750D01*
X123624600Y-85034058D01*
X123376799Y-84931162D01*
X123004833Y-84930838D01*
X122661057Y-85072883D01*
X122397808Y-85335673D01*
X122255162Y-85679201D01*
X122254838Y-86051167D01*
X122396883Y-86394943D01*
X122429882Y-86428000D01*
X121539000Y-86428000D01*
X121219459Y-86491561D01*
X121065939Y-86594140D01*
X120948566Y-86672566D01*
X120215000Y-87406132D01*
X120215000Y-72749868D01*
X121376868Y-71588000D01*
X123637040Y-71588000D01*
X123637040Y-71737250D01*
X123795790Y-71896000D01*
X124744480Y-71896000D01*
X124744480Y-71876000D01*
X124998480Y-71876000D01*
X124998480Y-71896000D01*
X125947170Y-71896000D01*
X126105920Y-71737250D01*
X126105920Y-71547441D01*
X126041515Y-71391953D01*
X126067351Y-71354140D01*
X126118360Y-71102250D01*
X126118360Y-70403750D01*
X126074082Y-70168433D01*
X126042884Y-70119949D01*
X126067351Y-70084140D01*
X126118360Y-69832250D01*
X126118360Y-69133750D01*
X126074082Y-68898433D01*
X126042884Y-68849949D01*
X126067351Y-68814140D01*
X126118360Y-68562250D01*
X126118360Y-67863750D01*
X126074082Y-67628433D01*
X126042884Y-67579949D01*
X126067351Y-67544140D01*
X126118360Y-67292250D01*
X126118360Y-66593750D01*
X126074082Y-66358433D01*
X125935010Y-66142309D01*
X125722810Y-65997319D01*
X125470920Y-65946310D01*
X124272040Y-65946310D01*
X124036723Y-65990588D01*
X123820599Y-66129660D01*
X123675609Y-66341860D01*
X123624600Y-66593750D01*
X123624600Y-67292250D01*
X123668878Y-67527567D01*
X123700076Y-67576051D01*
X123675609Y-67611860D01*
X123624600Y-67863750D01*
X123624600Y-68524058D01*
X123376799Y-68421162D01*
X123004833Y-68420838D01*
X122661057Y-68562883D01*
X122397808Y-68825673D01*
X122255162Y-69169201D01*
X122254838Y-69541167D01*
X122396883Y-69884943D01*
X122429882Y-69918000D01*
X121031000Y-69918000D01*
X120711460Y-69981560D01*
X120440566Y-70162566D01*
X119495002Y-71108130D01*
X119495002Y-56179750D01*
X123624600Y-56179750D01*
X123624600Y-56878250D01*
X123668878Y-57113567D01*
X123700076Y-57162051D01*
X123675609Y-57197860D01*
X123624600Y-57449750D01*
X123624600Y-58148250D01*
X123668878Y-58383567D01*
X123700076Y-58432051D01*
X123675609Y-58467860D01*
X123624600Y-58719750D01*
X123624600Y-59418250D01*
X123668878Y-59653567D01*
X123700076Y-59702051D01*
X123675609Y-59737860D01*
X123624600Y-59989750D01*
X123624600Y-60688250D01*
X123668878Y-60923567D01*
X123700076Y-60972051D01*
X123675609Y-61007860D01*
X123624600Y-61259750D01*
X123624600Y-61958250D01*
X123668878Y-62193567D01*
X123807950Y-62409691D01*
X124020150Y-62554681D01*
X124272040Y-62605690D01*
X125470920Y-62605690D01*
X125706237Y-62561412D01*
X125922361Y-62422340D01*
X126067351Y-62210140D01*
X126118360Y-61958250D01*
X126118360Y-61259750D01*
X126092817Y-61124000D01*
X128579842Y-61124000D01*
X132286921Y-64831079D01*
X132535002Y-64996840D01*
X130254921Y-67276921D01*
X130084755Y-67531593D01*
X130068789Y-67611860D01*
X130025000Y-67832000D01*
X130025000Y-73348842D01*
X128325842Y-75048000D01*
X127710376Y-75048000D01*
X127792192Y-74966327D01*
X127934838Y-74622799D01*
X127935162Y-74250833D01*
X127793117Y-73907057D01*
X127687290Y-73801046D01*
X127792192Y-73696327D01*
X127934838Y-73352799D01*
X127935162Y-72980833D01*
X127793117Y-72637057D01*
X127530327Y-72373808D01*
X127186799Y-72231162D01*
X126814833Y-72230838D01*
X126471057Y-72372883D01*
X126335704Y-72508000D01*
X126102009Y-72508000D01*
X126105920Y-72498559D01*
X126105920Y-72308750D01*
X125947170Y-72150000D01*
X124998480Y-72150000D01*
X124998480Y-72170000D01*
X124744480Y-72170000D01*
X124744480Y-72150000D01*
X123795790Y-72150000D01*
X123637040Y-72308750D01*
X123637040Y-72498559D01*
X123701445Y-72654047D01*
X123675609Y-72691860D01*
X123624600Y-72943750D01*
X123624600Y-73642250D01*
X123668878Y-73877567D01*
X123700076Y-73926051D01*
X123675609Y-73961860D01*
X123624600Y-74213750D01*
X123624600Y-74912250D01*
X123668878Y-75147567D01*
X123700076Y-75196051D01*
X123675609Y-75231860D01*
X123624600Y-75483750D01*
X123624600Y-76182250D01*
X123668878Y-76417567D01*
X123700076Y-76466051D01*
X123675609Y-76501860D01*
X123624600Y-76753750D01*
X123624600Y-77452250D01*
X123668878Y-77687567D01*
X123700076Y-77736051D01*
X123675609Y-77771860D01*
X123624600Y-78023750D01*
X123624600Y-78722250D01*
X123668878Y-78957567D01*
X123807950Y-79173691D01*
X124020150Y-79318681D01*
X124272040Y-79369690D01*
X125470920Y-79369690D01*
X125706237Y-79325412D01*
X125922361Y-79186340D01*
X126067351Y-78974140D01*
X126118360Y-78722250D01*
X126118360Y-78023750D01*
X126092817Y-77888000D01*
X126758201Y-77888000D01*
X126813201Y-77910838D01*
X127185167Y-77911162D01*
X127528943Y-77769117D01*
X127792192Y-77506327D01*
X127934838Y-77162799D01*
X127935162Y-76790833D01*
X127863749Y-76618000D01*
X128651000Y-76618000D01*
X128951407Y-76558245D01*
X129206079Y-76388079D01*
X131365079Y-74229079D01*
X131535245Y-73974407D01*
X131595000Y-73674000D01*
X131595000Y-68157158D01*
X132227893Y-67524265D01*
X132311673Y-67608192D01*
X132655201Y-67750838D01*
X133027167Y-67751162D01*
X133083223Y-67728000D01*
X133497130Y-67728000D01*
X133469640Y-67863750D01*
X133469640Y-68562250D01*
X133513918Y-68797567D01*
X133545116Y-68846051D01*
X133520649Y-68881860D01*
X133469640Y-69133750D01*
X133469640Y-69832250D01*
X133513918Y-70067567D01*
X133545116Y-70116051D01*
X133520649Y-70151860D01*
X133469640Y-70403750D01*
X133469640Y-71102250D01*
X133513918Y-71337567D01*
X133545116Y-71386051D01*
X133520649Y-71421860D01*
X133469640Y-71673750D01*
X133469640Y-72372250D01*
X133513918Y-72607567D01*
X133545116Y-72656051D01*
X133520649Y-72691860D01*
X133469640Y-72943750D01*
X133469640Y-73233291D01*
X133372327Y-73135808D01*
X133028799Y-72993162D01*
X132656833Y-72992838D01*
X132313057Y-73134883D01*
X132049808Y-73397673D01*
X131907162Y-73741201D01*
X131906838Y-74113167D01*
X132048883Y-74456943D01*
X132311673Y-74720192D01*
X132655201Y-74862838D01*
X132666690Y-74862848D01*
X132916001Y-75112159D01*
X132667921Y-75277921D01*
X131524921Y-76420921D01*
X131354755Y-76675593D01*
X131332911Y-76785412D01*
X131295000Y-76976000D01*
X131295000Y-79516000D01*
X131354755Y-79816407D01*
X131524921Y-80071079D01*
X132133735Y-80679893D01*
X132049808Y-80763673D01*
X131907162Y-81107201D01*
X131907019Y-81271000D01*
X131826000Y-81271000D01*
X131525594Y-81330755D01*
X131270921Y-81500921D01*
X129492921Y-83278921D01*
X129322755Y-83533593D01*
X129298732Y-83654365D01*
X129263000Y-83834000D01*
X129263000Y-90874842D01*
X128579842Y-91558000D01*
X128472376Y-91558000D01*
X128554192Y-91476327D01*
X128696838Y-91132799D01*
X128697162Y-90760833D01*
X128555117Y-90417057D01*
X128292327Y-90153808D01*
X127948799Y-90011162D01*
X127576833Y-90010838D01*
X127498398Y-90043247D01*
X127441913Y-90048438D01*
X127538192Y-89952327D01*
X127680838Y-89608799D01*
X127681162Y-89236833D01*
X127539117Y-88893057D01*
X127276327Y-88629808D01*
X126932799Y-88487162D01*
X126560833Y-88486838D01*
X126217057Y-88628883D01*
X126066424Y-88779254D01*
X125947170Y-88660000D01*
X124998480Y-88660000D01*
X124998480Y-88680000D01*
X124744480Y-88680000D01*
X124744480Y-88660000D01*
X123795790Y-88660000D01*
X123637040Y-88818750D01*
X123637040Y-89008559D01*
X123701445Y-89164047D01*
X123675609Y-89201860D01*
X123624600Y-89453750D01*
X123624600Y-90152250D01*
X123668878Y-90387567D01*
X123700076Y-90436051D01*
X123675609Y-90471860D01*
X123624600Y-90723750D01*
X123624600Y-91422250D01*
X123668878Y-91657567D01*
X123700076Y-91706051D01*
X123675609Y-91741860D01*
X123624600Y-91993750D01*
X123624600Y-92692250D01*
X123668878Y-92927567D01*
X123700076Y-92976051D01*
X123675609Y-93011860D01*
X123624600Y-93263750D01*
X123624600Y-93962250D01*
X123668878Y-94197567D01*
X123700076Y-94246051D01*
X123675609Y-94281860D01*
X123624600Y-94533750D01*
X123624600Y-95232250D01*
X123668878Y-95467567D01*
X123807950Y-95683691D01*
X124020150Y-95828681D01*
X124272040Y-95879690D01*
X125470920Y-95879690D01*
X125706237Y-95835412D01*
X125922361Y-95696340D01*
X126067351Y-95484140D01*
X126118360Y-95232250D01*
X126118360Y-94533750D01*
X126092817Y-94398000D01*
X126589715Y-94398000D01*
X126723673Y-94532192D01*
X127067201Y-94674838D01*
X127439167Y-94675162D01*
X127782943Y-94533117D01*
X128046192Y-94270327D01*
X128188838Y-93926799D01*
X128189162Y-93554833D01*
X128047117Y-93211057D01*
X127964205Y-93128000D01*
X128905000Y-93128000D01*
X129205407Y-93068245D01*
X129460079Y-92898079D01*
X130603079Y-91755079D01*
X130773245Y-91500407D01*
X130833000Y-91200000D01*
X130833000Y-84159158D01*
X131945653Y-83046505D01*
X131907162Y-83139201D01*
X131906838Y-83511167D01*
X132048883Y-83854943D01*
X132311673Y-84118192D01*
X132655201Y-84260838D01*
X133027167Y-84261162D01*
X133083223Y-84238000D01*
X133497130Y-84238000D01*
X133469640Y-84373750D01*
X133469640Y-85072250D01*
X133513918Y-85307567D01*
X133545116Y-85356051D01*
X133520649Y-85391860D01*
X133469640Y-85643750D01*
X133469640Y-86342250D01*
X133513918Y-86577567D01*
X133545116Y-86626051D01*
X133520649Y-86661860D01*
X133469640Y-86913750D01*
X133469640Y-87612250D01*
X133513918Y-87847567D01*
X133545116Y-87896051D01*
X133520649Y-87931860D01*
X133469640Y-88183750D01*
X133469640Y-88882250D01*
X133513918Y-89117567D01*
X133545116Y-89166051D01*
X133520649Y-89201860D01*
X133469640Y-89453750D01*
X133469640Y-90152250D01*
X133495183Y-90288000D01*
X133294158Y-90288000D01*
X132761153Y-89754995D01*
X132761162Y-89744833D01*
X132619117Y-89401057D01*
X132356327Y-89137808D01*
X132012799Y-88995162D01*
X131640833Y-88994838D01*
X131297057Y-89136883D01*
X131033808Y-89399673D01*
X130891162Y-89743201D01*
X130890838Y-90115167D01*
X131032883Y-90458943D01*
X131295673Y-90722192D01*
X131639201Y-90864838D01*
X131650690Y-90864848D01*
X132413921Y-91628079D01*
X132533532Y-91708000D01*
X132413921Y-91787921D01*
X131778921Y-92422921D01*
X131608755Y-92677593D01*
X131584474Y-92799660D01*
X131549000Y-92978000D01*
X131549000Y-96280000D01*
X131608755Y-96580407D01*
X131778921Y-96835079D01*
X132387735Y-97443893D01*
X132303808Y-97527673D01*
X132161162Y-97871201D01*
X132160894Y-98179413D01*
X132032921Y-98264921D01*
X128984921Y-101312921D01*
X128814755Y-101567593D01*
X128800949Y-101637000D01*
X128755000Y-101868000D01*
X128755000Y-107130842D01*
X127935012Y-107950830D01*
X127935162Y-107778833D01*
X127793117Y-107435057D01*
X127647426Y-107289111D01*
X127782943Y-107233117D01*
X128046192Y-106970327D01*
X128188838Y-106626799D01*
X128189162Y-106254833D01*
X128047117Y-105911057D01*
X127784327Y-105647808D01*
X127440799Y-105505162D01*
X127068833Y-105504838D01*
X126725057Y-105646883D01*
X126589704Y-105782000D01*
X126102009Y-105782000D01*
X126105920Y-105772559D01*
X126105920Y-105582750D01*
X125947170Y-105424000D01*
X124998480Y-105424000D01*
X124998480Y-105444000D01*
X124744480Y-105444000D01*
X124744480Y-105424000D01*
X123795790Y-105424000D01*
X123637040Y-105582750D01*
X123637040Y-105772559D01*
X123701445Y-105928047D01*
X123675609Y-105965860D01*
X123624600Y-106217750D01*
X123624600Y-106916250D01*
X123668878Y-107151567D01*
X123700076Y-107200051D01*
X123675609Y-107235860D01*
X123624600Y-107487750D01*
X123624600Y-108186250D01*
X123668878Y-108421567D01*
X123700076Y-108470051D01*
X123675609Y-108505860D01*
X123624600Y-108757750D01*
X123624600Y-109456250D01*
X123668878Y-109691567D01*
X123700076Y-109740051D01*
X123675609Y-109775860D01*
X123624600Y-110027750D01*
X123624600Y-110726250D01*
X123668878Y-110961567D01*
X123700076Y-111010051D01*
X123675609Y-111045860D01*
X123624600Y-111297750D01*
X123624600Y-111996250D01*
X123668878Y-112231567D01*
X123807950Y-112447691D01*
X124020150Y-112592681D01*
X124272040Y-112643690D01*
X125470920Y-112643690D01*
X125706237Y-112599412D01*
X125922361Y-112460340D01*
X126067351Y-112248140D01*
X126118360Y-111996250D01*
X126118360Y-111297750D01*
X126092817Y-111162000D01*
X126758201Y-111162000D01*
X126813201Y-111184838D01*
X127185167Y-111185162D01*
X127528943Y-111043117D01*
X127792192Y-110780327D01*
X127934838Y-110436799D01*
X127935162Y-110064833D01*
X127863749Y-109892000D01*
X127889000Y-109892000D01*
X128189407Y-109832245D01*
X128444079Y-109662079D01*
X130095079Y-108011079D01*
X130265245Y-107756406D01*
X130325001Y-107456000D01*
X130325000Y-107455995D01*
X130325000Y-102193158D01*
X132184858Y-100333300D01*
X132302883Y-100618943D01*
X132565673Y-100882192D01*
X132909201Y-101024838D01*
X133281167Y-101025162D01*
X133337223Y-101002000D01*
X133497130Y-101002000D01*
X133469640Y-101137750D01*
X133469640Y-101836250D01*
X133513918Y-102071567D01*
X133545116Y-102120051D01*
X133520649Y-102155860D01*
X133469640Y-102407750D01*
X133469640Y-103106250D01*
X133513918Y-103341567D01*
X133545116Y-103390051D01*
X133520649Y-103425860D01*
X133469640Y-103677750D01*
X133469640Y-104376250D01*
X133513918Y-104611567D01*
X133545116Y-104660051D01*
X133520649Y-104695860D01*
X133469640Y-104947750D01*
X133469640Y-105646250D01*
X133513918Y-105881567D01*
X133545116Y-105930051D01*
X133520649Y-105965860D01*
X133470696Y-106212538D01*
X133269153Y-106010995D01*
X133269162Y-106000833D01*
X133127117Y-105657057D01*
X132864327Y-105393808D01*
X132520799Y-105251162D01*
X132148833Y-105250838D01*
X131805057Y-105392883D01*
X131541808Y-105655673D01*
X131399162Y-105999201D01*
X131398838Y-106371167D01*
X131540883Y-106714943D01*
X131803673Y-106978192D01*
X132147201Y-107120838D01*
X132158690Y-107120848D01*
X132328669Y-107290827D01*
X132370755Y-107502407D01*
X132540921Y-107757079D01*
X133175921Y-108392079D01*
X133261110Y-108449000D01*
X133096000Y-108449000D01*
X132795593Y-108508755D01*
X132540921Y-108678921D01*
X131524921Y-109694921D01*
X131354755Y-109949593D01*
X131333619Y-110055852D01*
X131295000Y-110250000D01*
X131295000Y-112790000D01*
X131354755Y-113090407D01*
X131524921Y-113345079D01*
X133048919Y-114869076D01*
X133048921Y-114869079D01*
X133303594Y-115039245D01*
X133604000Y-115099000D01*
X144272000Y-115099000D01*
X144572407Y-115039245D01*
X144827079Y-114869079D01*
X147223520Y-112472638D01*
X147355237Y-112472753D01*
X147892226Y-112250874D01*
X148303430Y-111840387D01*
X148335804Y-111762421D01*
X148367126Y-111838226D01*
X148777613Y-112249430D01*
X149314214Y-112472246D01*
X149895237Y-112472753D01*
X150432226Y-112250874D01*
X150843430Y-111840387D01*
X151066246Y-111303786D01*
X151066753Y-110722763D01*
X150844874Y-110185774D01*
X150434387Y-109774570D01*
X149897786Y-109551754D01*
X149316763Y-109551247D01*
X148779774Y-109773126D01*
X148368570Y-110183613D01*
X148336196Y-110261579D01*
X148304874Y-110185774D01*
X147894387Y-109774570D01*
X147357786Y-109551754D01*
X146776763Y-109551247D01*
X146239774Y-109773126D01*
X145828570Y-110183613D01*
X145796196Y-110261579D01*
X145764874Y-110185774D01*
X145354387Y-109774570D01*
X145311000Y-109756554D01*
X145311000Y-108980000D01*
X145251245Y-108679594D01*
X145081079Y-108424921D01*
X140579158Y-103923000D01*
X147066000Y-103923000D01*
X147366407Y-103863245D01*
X147621079Y-103693079D01*
X149093543Y-102220615D01*
X149314214Y-102312246D01*
X149895237Y-102312753D01*
X150432226Y-102090874D01*
X150843430Y-101680387D01*
X151066246Y-101143786D01*
X151066753Y-100562763D01*
X150844874Y-100025774D01*
X150434387Y-99614570D01*
X149897786Y-99391754D01*
X149316763Y-99391247D01*
X148779774Y-99613126D01*
X148368570Y-100023613D01*
X148336196Y-100101579D01*
X148304874Y-100025774D01*
X147894387Y-99614570D01*
X147799083Y-99574996D01*
X147791245Y-99535593D01*
X147621079Y-99280921D01*
X146605079Y-98264921D01*
X146350407Y-98094755D01*
X146050000Y-98035000D01*
X144757256Y-98035000D01*
X144826407Y-98021245D01*
X145081079Y-97851079D01*
X147223520Y-95708638D01*
X147355237Y-95708753D01*
X147892226Y-95486874D01*
X148303430Y-95076387D01*
X148335804Y-94998421D01*
X148367126Y-95074226D01*
X148777613Y-95485430D01*
X149314214Y-95708246D01*
X149895237Y-95708753D01*
X150432226Y-95486874D01*
X150843430Y-95076387D01*
X151066246Y-94539786D01*
X151066753Y-93958763D01*
X150844874Y-93421774D01*
X150434387Y-93010570D01*
X149897786Y-92787754D01*
X149316763Y-92787247D01*
X148779774Y-93009126D01*
X148368570Y-93419613D01*
X148336196Y-93497579D01*
X148304874Y-93421774D01*
X147894387Y-93010570D01*
X147357786Y-92787754D01*
X146776763Y-92787247D01*
X146239774Y-93009126D01*
X145828570Y-93419613D01*
X145796196Y-93497579D01*
X145764874Y-93421774D01*
X145354387Y-93010570D01*
X145311000Y-92992554D01*
X145311000Y-92978005D01*
X145311001Y-92978000D01*
X145251245Y-92677594D01*
X145251244Y-92677593D01*
X145081079Y-92422921D01*
X145081076Y-92422919D01*
X139817158Y-87159000D01*
X148590000Y-87159000D01*
X148890407Y-87099245D01*
X149145079Y-86929079D01*
X150161079Y-85913079D01*
X150331245Y-85658407D01*
X150391000Y-85358000D01*
X150391000Y-85343908D01*
X150432226Y-85326874D01*
X150843430Y-84916387D01*
X151066246Y-84379786D01*
X151066753Y-83798763D01*
X150844874Y-83261774D01*
X150434387Y-82850570D01*
X149897786Y-82627754D01*
X149316763Y-82627247D01*
X148779774Y-82849126D01*
X148368570Y-83259613D01*
X148336196Y-83337579D01*
X148304874Y-83261774D01*
X147894387Y-82850570D01*
X147799083Y-82810996D01*
X147791245Y-82771593D01*
X147621079Y-82516921D01*
X146605079Y-81500921D01*
X146350407Y-81330755D01*
X146050000Y-81271000D01*
X144249256Y-81271000D01*
X144318407Y-81257245D01*
X144573079Y-81087079D01*
X146553543Y-79106615D01*
X146774214Y-79198246D01*
X147355237Y-79198753D01*
X147892226Y-78976874D01*
X148303430Y-78566387D01*
X148335804Y-78488421D01*
X148367126Y-78564226D01*
X148777613Y-78975430D01*
X149314214Y-79198246D01*
X149895237Y-79198753D01*
X150432226Y-78976874D01*
X150843430Y-78566387D01*
X151066246Y-78029786D01*
X151066753Y-77448763D01*
X150844874Y-76911774D01*
X150434387Y-76500570D01*
X149897786Y-76277754D01*
X149316763Y-76277247D01*
X148779774Y-76499126D01*
X148368570Y-76909613D01*
X148336196Y-76987579D01*
X148304874Y-76911774D01*
X147894387Y-76500570D01*
X147357786Y-76277754D01*
X146776763Y-76277247D01*
X146239774Y-76499126D01*
X145828570Y-76909613D01*
X145796196Y-76987579D01*
X145764874Y-76911774D01*
X145354387Y-76500570D01*
X145311000Y-76482554D01*
X145311000Y-75198000D01*
X145275526Y-75019660D01*
X145251245Y-74897593D01*
X145081079Y-74642921D01*
X140706158Y-70268000D01*
X147701000Y-70268000D01*
X148001407Y-70208245D01*
X148256079Y-70038079D01*
X149273018Y-69021140D01*
X149314214Y-69038246D01*
X149895237Y-69038753D01*
X150432226Y-68816874D01*
X150843430Y-68406387D01*
X151066246Y-67869786D01*
X151066753Y-67288763D01*
X150844874Y-66751774D01*
X150434387Y-66340570D01*
X149897786Y-66117754D01*
X149316763Y-66117247D01*
X148779774Y-66339126D01*
X148368570Y-66749613D01*
X148336196Y-66827579D01*
X148304874Y-66751774D01*
X147894387Y-66340570D01*
X147851000Y-66322554D01*
X147851000Y-66308000D01*
X147815526Y-66129660D01*
X147791245Y-66007593D01*
X147621079Y-65752921D01*
X146763261Y-64895103D01*
X146859079Y-64831079D01*
X149273018Y-62417140D01*
X149314214Y-62434246D01*
X149895237Y-62434753D01*
X150432226Y-62212874D01*
X150843430Y-61802387D01*
X151066246Y-61265786D01*
X151066753Y-60684763D01*
X150844874Y-60147774D01*
X150434387Y-59736570D01*
X149897786Y-59513754D01*
X149316763Y-59513247D01*
X148779774Y-59735126D01*
X148368570Y-60145613D01*
X148336196Y-60223579D01*
X148304874Y-60147774D01*
X147894387Y-59736570D01*
X147357786Y-59513754D01*
X146776763Y-59513247D01*
X146239774Y-59735126D01*
X145828570Y-60145613D01*
X145796196Y-60223579D01*
X145764874Y-60147774D01*
X145354387Y-59736570D01*
X144817786Y-59513754D01*
X144236763Y-59513247D01*
X144168326Y-59541524D01*
X138105802Y-53479000D01*
X147701000Y-53479000D01*
X147991839Y-53421148D01*
X148238401Y-53256401D01*
X149248036Y-52246766D01*
X149314214Y-52274246D01*
X149895237Y-52274753D01*
X150432226Y-52052874D01*
X150843430Y-51642387D01*
X151066246Y-51105786D01*
X151066753Y-50524763D01*
X150844874Y-49987774D01*
X150434387Y-49576570D01*
X149897786Y-49353754D01*
X149316763Y-49353247D01*
X148779774Y-49575126D01*
X148368570Y-49985613D01*
X148336196Y-50063579D01*
X148304874Y-49987774D01*
X147894387Y-49576570D01*
X147826000Y-49548173D01*
X147826000Y-48528172D01*
X160332538Y-48528172D01*
X160737709Y-49508761D01*
X161487293Y-50259655D01*
X162467173Y-50666536D01*
X163528172Y-50667462D01*
X164508761Y-50262291D01*
X165259655Y-49512707D01*
X165666536Y-48532827D01*
X165667462Y-47471828D01*
X165262291Y-46491239D01*
X164512707Y-45740345D01*
X163532827Y-45333464D01*
X162471828Y-45332538D01*
X161491239Y-45737709D01*
X160740345Y-46487293D01*
X160333464Y-47467173D01*
X160332538Y-48528172D01*
X147826000Y-48528172D01*
X147826000Y-46750000D01*
X147768148Y-46459161D01*
X147768148Y-46459160D01*
X147603401Y-46212599D01*
X147349401Y-45958599D01*
X147102839Y-45793852D01*
X146812000Y-45736000D01*
X132588000Y-45736000D01*
X132297160Y-45793852D01*
X132050599Y-45958599D01*
X130780599Y-47228599D01*
X130615852Y-47475161D01*
X130558000Y-47766000D01*
X130558000Y-54331367D01*
X130234799Y-54197162D01*
X129862833Y-54196838D01*
X129519057Y-54338883D01*
X129255808Y-54601673D01*
X129113162Y-54945201D01*
X129113152Y-54956690D01*
X128325842Y-55744000D01*
X126102009Y-55744000D01*
X126105920Y-55734559D01*
X126105920Y-55544750D01*
X125947170Y-55386000D01*
X124998480Y-55386000D01*
X124998480Y-55406000D01*
X124744480Y-55406000D01*
X124744480Y-55386000D01*
X123795790Y-55386000D01*
X123637040Y-55544750D01*
X123637040Y-55734559D01*
X123701445Y-55890047D01*
X123675609Y-55927860D01*
X123624600Y-56179750D01*
X119495002Y-56179750D01*
X119495002Y-55223868D01*
X119894870Y-54824000D01*
X123637040Y-54824000D01*
X123637040Y-54973250D01*
X123795790Y-55132000D01*
X124744480Y-55132000D01*
X124744480Y-55112000D01*
X124998480Y-55112000D01*
X124998480Y-55132000D01*
X125947170Y-55132000D01*
X126105920Y-54973250D01*
X126105920Y-54783441D01*
X126041515Y-54627953D01*
X126067351Y-54590140D01*
X126118360Y-54338250D01*
X126118360Y-53639750D01*
X126074082Y-53404433D01*
X126042884Y-53355949D01*
X126067351Y-53320140D01*
X126118360Y-53068250D01*
X126118360Y-52369750D01*
X126074082Y-52134433D01*
X126042884Y-52085949D01*
X126067351Y-52050140D01*
X126118360Y-51798250D01*
X126118360Y-51099750D01*
X126074082Y-50864433D01*
X126042884Y-50815949D01*
X126067351Y-50780140D01*
X126118360Y-50528250D01*
X126118360Y-49829750D01*
X126074082Y-49594433D01*
X125935010Y-49378309D01*
X125722810Y-49233319D01*
X125470920Y-49182310D01*
X124272040Y-49182310D01*
X124036723Y-49226588D01*
X123820599Y-49365660D01*
X123675609Y-49577860D01*
X123624600Y-49829750D01*
X123624600Y-50528250D01*
X123668878Y-50763567D01*
X123700076Y-50812051D01*
X123675609Y-50847860D01*
X123624600Y-51099750D01*
X123624600Y-51760058D01*
X123376799Y-51657162D01*
X123004833Y-51656838D01*
X122661057Y-51798883D01*
X122397808Y-52061673D01*
X122255162Y-52405201D01*
X122254838Y-52777167D01*
X122396883Y-53120943D01*
X122429882Y-53154000D01*
X119549002Y-53154000D01*
X119229461Y-53217561D01*
X119075941Y-53320140D01*
X118958568Y-53398566D01*
X118196148Y-54160986D01*
X118069568Y-54245564D01*
X117888563Y-54516457D01*
X117825002Y-54835998D01*
X117825002Y-116388843D01*
X117783000Y-116600000D01*
X117846561Y-116919540D01*
X118027566Y-117190434D01*
X118052744Y-117207258D01*
X118069568Y-117232436D01*
X119805566Y-118968434D01*
X120076459Y-119149439D01*
X120396000Y-119213000D01*
X121742907Y-119213000D01*
X121704569Y-119269110D01*
X121653560Y-119521000D01*
X121653560Y-120791000D01*
X121697838Y-121026317D01*
X121836910Y-121242441D01*
X122049110Y-121387431D01*
X122051000Y-121387814D01*
X122051000Y-121778518D01*
X122004074Y-121747163D01*
X121493280Y-121645560D01*
X120982486Y-121747163D01*
X120549455Y-122036505D01*
X120396053Y-122266088D01*
X120223132Y-122150546D01*
X119785725Y-122063540D01*
X118705035Y-122063540D01*
X118267628Y-122150546D01*
X117896812Y-122398317D01*
X117710000Y-122677901D01*
X117710000Y-48528172D01*
X118332538Y-48528172D01*
X118737709Y-49508761D01*
X119487293Y-50259655D01*
X120467173Y-50666536D01*
X121528172Y-50667462D01*
X122508761Y-50262291D01*
X123259655Y-49512707D01*
X123666536Y-48532827D01*
X123667462Y-47471828D01*
X123262291Y-46491239D01*
X122512707Y-45740345D01*
X121532827Y-45333464D01*
X120471828Y-45332538D01*
X119491239Y-45737709D01*
X118740345Y-46487293D01*
X118333464Y-47467173D01*
X118332538Y-48528172D01*
X117710000Y-48528172D01*
X117710000Y-44710000D01*
X166290000Y-44710000D01*
X166290000Y-85341774D01*
G36*
X133439132Y-119140000D02*
X133381750Y-119140000D01*
X133223000Y-119298750D01*
X133223000Y-120156000D01*
X133243000Y-120156000D01*
X133243000Y-120410000D01*
X133223000Y-120410000D01*
X133223000Y-120430000D01*
X132969000Y-120430000D01*
X132969000Y-120410000D01*
X132949000Y-120410000D01*
X132949000Y-120156000D01*
X132969000Y-120156000D01*
X132969000Y-119298750D01*
X132810250Y-119140000D01*
X132407000Y-119140000D01*
X132343439Y-118820459D01*
X132162434Y-118549566D01*
X131301868Y-117689000D01*
X131988132Y-117689000D01*
X133439132Y-119140000D01*
X133439132Y-119140000D01*
G37*
X133439132Y-119140000D02*
X133381750Y-119140000D01*
X133223000Y-119298750D01*
X133223000Y-120156000D01*
X133243000Y-120156000D01*
X133243000Y-120410000D01*
X133223000Y-120410000D01*
X133223000Y-120430000D01*
X132969000Y-120430000D01*
X132969000Y-120410000D01*
X132949000Y-120410000D01*
X132949000Y-120156000D01*
X132969000Y-120156000D01*
X132969000Y-119298750D01*
X132810250Y-119140000D01*
X132407000Y-119140000D01*
X132343439Y-118820459D01*
X132162434Y-118549566D01*
X131301868Y-117689000D01*
X131988132Y-117689000D01*
X133439132Y-119140000D01*
G36*
X130391132Y-119140000D02*
X130079750Y-119140000D01*
X129921000Y-119298750D01*
X129921000Y-120156000D01*
X129941000Y-120156000D01*
X129941000Y-120410000D01*
X129921000Y-120410000D01*
X129921000Y-120430000D01*
X129667000Y-120430000D01*
X129667000Y-120410000D01*
X129647000Y-120410000D01*
X129647000Y-120156000D01*
X129667000Y-120156000D01*
X129667000Y-119298750D01*
X129508250Y-119140000D01*
X128969190Y-119140000D01*
X128851000Y-119188956D01*
X128851000Y-118886000D01*
X128787439Y-118566459D01*
X128710292Y-118451000D01*
X129702132Y-118451000D01*
X130391132Y-119140000D01*
X130391132Y-119140000D01*
G37*
X130391132Y-119140000D02*
X130079750Y-119140000D01*
X129921000Y-119298750D01*
X129921000Y-120156000D01*
X129941000Y-120156000D01*
X129941000Y-120410000D01*
X129921000Y-120410000D01*
X129921000Y-120430000D01*
X129667000Y-120430000D01*
X129667000Y-120410000D01*
X129647000Y-120410000D01*
X129647000Y-120156000D01*
X129667000Y-120156000D01*
X129667000Y-119298750D01*
X129508250Y-119140000D01*
X128969190Y-119140000D01*
X128851000Y-119188956D01*
X128851000Y-118886000D01*
X128787439Y-118566459D01*
X128710292Y-118451000D01*
X129702132Y-118451000D01*
X130391132Y-119140000D01*
G36*
X137267745Y-119158613D02*
X137222810Y-119140000D01*
X136683750Y-119140000D01*
X136525000Y-119298750D01*
X136525000Y-120156000D01*
X136545000Y-120156000D01*
X136545000Y-120410000D01*
X136525000Y-120410000D01*
X136525000Y-120430000D01*
X136271000Y-120430000D01*
X136271000Y-120410000D01*
X136251000Y-120410000D01*
X136251000Y-120156000D01*
X136271000Y-120156000D01*
X136271000Y-119298750D01*
X136112250Y-119140000D01*
X135573190Y-119140000D01*
X135455000Y-119188956D01*
X135455000Y-119140000D01*
X135391439Y-118820459D01*
X135210434Y-118549566D01*
X133587868Y-116927000D01*
X135036132Y-116927000D01*
X137267745Y-119158613D01*
X137267745Y-119158613D01*
G37*
X137267745Y-119158613D02*
X137222810Y-119140000D01*
X136683750Y-119140000D01*
X136525000Y-119298750D01*
X136525000Y-120156000D01*
X136545000Y-120156000D01*
X136545000Y-120410000D01*
X136525000Y-120410000D01*
X136525000Y-120430000D01*
X136271000Y-120430000D01*
X136271000Y-120410000D01*
X136251000Y-120410000D01*
X136251000Y-120156000D01*
X136271000Y-120156000D01*
X136271000Y-119298750D01*
X136112250Y-119140000D01*
X135573190Y-119140000D01*
X135455000Y-119188956D01*
X135455000Y-119140000D01*
X135391439Y-118820459D01*
X135210434Y-118549566D01*
X133587868Y-116927000D01*
X135036132Y-116927000D01*
X137267745Y-119158613D01*
G36*
X163914990Y-86910303D02*
X164307630Y-87303629D01*
X164515512Y-87389949D01*
X164309697Y-87474990D01*
X163916371Y-87867630D01*
X163703243Y-88380900D01*
X163702758Y-88936661D01*
X163716143Y-88969055D01*
X157196599Y-95488599D01*
X157031852Y-95735161D01*
X156974000Y-96026000D01*
X156974000Y-109691889D01*
X156740327Y-109457808D01*
X156396799Y-109315162D01*
X156024833Y-109314838D01*
X155681057Y-109456883D01*
X155417808Y-109719673D01*
X155275162Y-110063201D01*
X155274838Y-110435167D01*
X155416883Y-110778943D01*
X155450000Y-110812118D01*
X155450000Y-116935001D01*
X155262833Y-116934838D01*
X154938000Y-117069056D01*
X154938000Y-92530802D01*
X160588802Y-86880000D01*
X163902469Y-86880000D01*
X163914990Y-86910303D01*
X163914990Y-86910303D01*
G37*
X163914990Y-86910303D02*
X164307630Y-87303629D01*
X164515512Y-87389949D01*
X164309697Y-87474990D01*
X163916371Y-87867630D01*
X163703243Y-88380900D01*
X163702758Y-88936661D01*
X163716143Y-88969055D01*
X157196599Y-95488599D01*
X157031852Y-95735161D01*
X156974000Y-96026000D01*
X156974000Y-109691889D01*
X156740327Y-109457808D01*
X156396799Y-109315162D01*
X156024833Y-109314838D01*
X155681057Y-109456883D01*
X155417808Y-109719673D01*
X155275162Y-110063201D01*
X155274838Y-110435167D01*
X155416883Y-110778943D01*
X155450000Y-110812118D01*
X155450000Y-116935001D01*
X155262833Y-116934838D01*
X154938000Y-117069056D01*
X154938000Y-92530802D01*
X160588802Y-86880000D01*
X163902469Y-86880000D01*
X163914990Y-86910303D01*
G36*
X166290000Y-112059739D02*
X166071517Y-111998088D01*
X165279605Y-112790000D01*
X166071517Y-113581912D01*
X166290000Y-113520261D01*
X166290000Y-114583197D01*
X166274831Y-114546485D01*
X165885564Y-114156539D01*
X165669021Y-114066623D01*
X165823923Y-114002460D01*
X165891912Y-113761517D01*
X165100000Y-112969605D01*
X164308088Y-113761517D01*
X164376077Y-114002460D01*
X164542621Y-114061732D01*
X164316485Y-114155169D01*
X163926539Y-114544436D01*
X163915924Y-114570000D01*
X162814000Y-114570000D01*
X162523161Y-114627852D01*
X162523159Y-114627853D01*
X162523160Y-114627853D01*
X162304000Y-114774290D01*
X162304000Y-112850802D01*
X162569631Y-112585171D01*
X163702799Y-112585171D01*
X163730770Y-113135448D01*
X163887540Y-113513923D01*
X164128483Y-113581912D01*
X164920395Y-112790000D01*
X164128483Y-111998088D01*
X163887540Y-112066077D01*
X163702799Y-112585171D01*
X162569631Y-112585171D01*
X163336319Y-111818483D01*
X164308088Y-111818483D01*
X165100000Y-112610395D01*
X165891912Y-111818483D01*
X165823923Y-111577540D01*
X165304829Y-111392799D01*
X164754552Y-111420770D01*
X164376077Y-111577540D01*
X164308088Y-111818483D01*
X163336319Y-111818483D01*
X164790619Y-110364183D01*
X164820900Y-110376757D01*
X165376661Y-110377242D01*
X165890303Y-110165010D01*
X166283629Y-109772370D01*
X166290000Y-109757027D01*
X166290000Y-112059739D01*
X166290000Y-112059739D01*
G37*
X166290000Y-112059739D02*
X166071517Y-111998088D01*
X165279605Y-112790000D01*
X166071517Y-113581912D01*
X166290000Y-113520261D01*
X166290000Y-114583197D01*
X166274831Y-114546485D01*
X165885564Y-114156539D01*
X165669021Y-114066623D01*
X165823923Y-114002460D01*
X165891912Y-113761517D01*
X165100000Y-112969605D01*
X164308088Y-113761517D01*
X164376077Y-114002460D01*
X164542621Y-114061732D01*
X164316485Y-114155169D01*
X163926539Y-114544436D01*
X163915924Y-114570000D01*
X162814000Y-114570000D01*
X162523161Y-114627852D01*
X162523159Y-114627853D01*
X162523160Y-114627853D01*
X162304000Y-114774290D01*
X162304000Y-112850802D01*
X162569631Y-112585171D01*
X163702799Y-112585171D01*
X163730770Y-113135448D01*
X163887540Y-113513923D01*
X164128483Y-113581912D01*
X164920395Y-112790000D01*
X164128483Y-111998088D01*
X163887540Y-112066077D01*
X163702799Y-112585171D01*
X162569631Y-112585171D01*
X163336319Y-111818483D01*
X164308088Y-111818483D01*
X165100000Y-112610395D01*
X165891912Y-111818483D01*
X165823923Y-111577540D01*
X165304829Y-111392799D01*
X164754552Y-111420770D01*
X164376077Y-111577540D01*
X164308088Y-111818483D01*
X163336319Y-111818483D01*
X164790619Y-110364183D01*
X164820900Y-110376757D01*
X165376661Y-110377242D01*
X165890303Y-110165010D01*
X166283629Y-109772370D01*
X166290000Y-109757027D01*
X166290000Y-112059739D01*
G36*
X144857599Y-130833401D02*
X145104161Y-130998148D01*
X145161000Y-131009454D01*
X145161000Y-131726278D01*
X145034000Y-131700560D01*
X143501716Y-131700560D01*
X143419839Y-131645852D01*
X143129000Y-131588000D01*
X142875000Y-131588000D01*
X142875000Y-130568000D01*
X143129000Y-130568000D01*
X143419839Y-130510148D01*
X143501716Y-130455440D01*
X144479638Y-130455440D01*
X144857599Y-130833401D01*
X144857599Y-130833401D01*
G37*
X144857599Y-130833401D02*
X145104161Y-130998148D01*
X145161000Y-131009454D01*
X145161000Y-131726278D01*
X145034000Y-131700560D01*
X143501716Y-131700560D01*
X143419839Y-131645852D01*
X143129000Y-131588000D01*
X142875000Y-131588000D01*
X142875000Y-130568000D01*
X143129000Y-130568000D01*
X143419839Y-130510148D01*
X143501716Y-130455440D01*
X144479638Y-130455440D01*
X144857599Y-130833401D01*
M02*
