G04 #@! TF.FileFunction,Legend,Top*
%FSLAX46Y46*%
G04 Gerber Fmt 4.6, Leading zero omitted, Abs format (unit mm)*
G04 Created by KiCad (PCBNEW 4.0.2-stable) date 16-09-25 17:40:40*
%MOMM*%
G01*
G04 APERTURE LIST*
%ADD10C,0.100000*%
%ADD11C,0.066040*%
%ADD12C,0.010000*%
%ADD13C,0.177800*%
%ADD14C,0.076200*%
%ADD15C,4.464000*%
%ADD16R,2.051000X2.051000*%
%ADD17C,2.051000*%
G04 APERTURE END LIST*
D10*
D11*
X128270000Y-112917000D02*
X158242000Y-112917000D01*
X158242000Y-112917000D02*
X158242000Y-98947000D01*
X128270000Y-98947000D02*
X158242000Y-98947000D01*
X128270000Y-112917000D02*
X128270000Y-98947000D01*
X128270000Y-96153000D02*
X158242000Y-96153000D01*
X158242000Y-96153000D02*
X158242000Y-82183000D01*
X128270000Y-82183000D02*
X158242000Y-82183000D01*
X128270000Y-96153000D02*
X128270000Y-82183000D01*
X128270000Y-62879000D02*
X158242000Y-62879000D01*
X158242000Y-62879000D02*
X158242000Y-48909000D01*
X128270000Y-48909000D02*
X158242000Y-48909000D01*
X128270000Y-62879000D02*
X128270000Y-48909000D01*
X128270000Y-79643000D02*
X158242000Y-79643000D01*
X158242000Y-79643000D02*
X158242000Y-65673000D01*
X128270000Y-65673000D02*
X158242000Y-65673000D01*
X128270000Y-79643000D02*
X128270000Y-65673000D01*
D12*
G36*
X144439347Y-135050954D02*
X144439347Y-135670647D01*
X144373147Y-135736799D01*
X144306948Y-135802952D01*
X144240795Y-135736753D01*
X144174643Y-135670553D01*
X144174643Y-135115048D01*
X144338943Y-134950672D01*
X144439347Y-135050954D01*
X144439347Y-135050954D01*
G37*
X144439347Y-135050954D02*
X144439347Y-135670647D01*
X144373147Y-135736799D01*
X144306948Y-135802952D01*
X144240795Y-135736753D01*
X144174643Y-135670553D01*
X144174643Y-135115048D01*
X144338943Y-134950672D01*
X144439347Y-135050954D01*
G36*
X151786719Y-135662600D02*
X151833420Y-135711323D01*
X151787741Y-135757137D01*
X151742061Y-135802952D01*
X151113134Y-135802952D01*
X151068321Y-135756398D01*
X151023509Y-135709845D01*
X151069584Y-135661861D01*
X151115658Y-135613877D01*
X151740017Y-135613877D01*
X151786719Y-135662600D01*
X151786719Y-135662600D01*
G37*
X151786719Y-135662600D02*
X151833420Y-135711323D01*
X151787741Y-135757137D01*
X151742061Y-135802952D01*
X151113134Y-135802952D01*
X151068321Y-135756398D01*
X151023509Y-135709845D01*
X151069584Y-135661861D01*
X151115658Y-135613877D01*
X151740017Y-135613877D01*
X151786719Y-135662600D01*
G36*
X153930341Y-134980988D02*
X153965802Y-135017427D01*
X153965802Y-135710547D01*
X153918883Y-135756022D01*
X153905269Y-135769173D01*
X153893044Y-135780898D01*
X153882827Y-135790610D01*
X153875236Y-135797722D01*
X153870891Y-135801650D01*
X153870134Y-135802233D01*
X153867642Y-135800480D01*
X153861673Y-135795161D01*
X153852837Y-135786853D01*
X153841742Y-135776133D01*
X153828997Y-135763578D01*
X153822516Y-135757113D01*
X153776727Y-135711257D01*
X153776727Y-135062598D01*
X153894881Y-134944550D01*
X153930341Y-134980988D01*
X153930341Y-134980988D01*
G37*
X153930341Y-134980988D02*
X153965802Y-135017427D01*
X153965802Y-135710547D01*
X153918883Y-135756022D01*
X153905269Y-135769173D01*
X153893044Y-135780898D01*
X153882827Y-135790610D01*
X153875236Y-135797722D01*
X153870891Y-135801650D01*
X153870134Y-135802233D01*
X153867642Y-135800480D01*
X153861673Y-135795161D01*
X153852837Y-135786853D01*
X153841742Y-135776133D01*
X153828997Y-135763578D01*
X153822516Y-135757113D01*
X153776727Y-135711257D01*
X153776727Y-135062598D01*
X153894881Y-134944550D01*
X153930341Y-134980988D01*
G36*
X154992613Y-135074278D02*
X155027528Y-135109102D01*
X155027528Y-135709770D01*
X154980717Y-135755634D01*
X154967147Y-135768879D01*
X154954950Y-135780691D01*
X154944742Y-135790479D01*
X154937139Y-135797655D01*
X154932757Y-135801631D01*
X154931968Y-135802233D01*
X154929445Y-135800479D01*
X154923447Y-135795159D01*
X154914586Y-135786849D01*
X154903473Y-135776127D01*
X154890717Y-135763570D01*
X154884242Y-135757113D01*
X154838454Y-135711257D01*
X154838454Y-135158590D01*
X154898076Y-135099022D01*
X154957697Y-135039453D01*
X154992613Y-135074278D01*
X154992613Y-135074278D01*
G37*
X154992613Y-135074278D02*
X155027528Y-135109102D01*
X155027528Y-135709770D01*
X154980717Y-135755634D01*
X154967147Y-135768879D01*
X154954950Y-135780691D01*
X154944742Y-135790479D01*
X154937139Y-135797655D01*
X154932757Y-135801631D01*
X154931968Y-135802233D01*
X154929445Y-135800479D01*
X154923447Y-135795159D01*
X154914586Y-135786849D01*
X154903473Y-135776127D01*
X154890717Y-135763570D01*
X154884242Y-135757113D01*
X154838454Y-135711257D01*
X154838454Y-135158590D01*
X154898076Y-135099022D01*
X154957697Y-135039453D01*
X154992613Y-135074278D01*
G36*
X156673873Y-135662258D02*
X156721090Y-135710640D01*
X156628914Y-135802952D01*
X156003376Y-135802952D01*
X155957146Y-135756653D01*
X155910915Y-135710354D01*
X155957153Y-135662116D01*
X156003391Y-135613877D01*
X156626656Y-135613877D01*
X156673873Y-135662258D01*
X156673873Y-135662258D01*
G37*
X156673873Y-135662258D02*
X156721090Y-135710640D01*
X156628914Y-135802952D01*
X156003376Y-135802952D01*
X155957146Y-135756653D01*
X155910915Y-135710354D01*
X155957153Y-135662116D01*
X156003391Y-135613877D01*
X156626656Y-135613877D01*
X156673873Y-135662258D01*
G36*
X157928427Y-135362020D02*
X158235980Y-135671570D01*
X158235980Y-135802952D01*
X158166895Y-135802832D01*
X158097810Y-135802713D01*
X157791655Y-135494785D01*
X157485499Y-135186858D01*
X157485499Y-135052471D01*
X157620875Y-135052471D01*
X157928427Y-135362020D01*
X157928427Y-135362020D01*
G37*
X157928427Y-135362020D02*
X158235980Y-135671570D01*
X158235980Y-135802952D01*
X158166895Y-135802832D01*
X158097810Y-135802713D01*
X157791655Y-135494785D01*
X157485499Y-135186858D01*
X157485499Y-135052471D01*
X157620875Y-135052471D01*
X157928427Y-135362020D01*
G36*
X149698532Y-135062598D02*
X149698532Y-135612456D01*
X149603994Y-135706960D01*
X149509457Y-135801464D01*
X149509519Y-135016110D01*
X149544988Y-134980369D01*
X149580456Y-134944628D01*
X149698532Y-135062598D01*
X149698532Y-135062598D01*
G37*
X149698532Y-135062598D02*
X149698532Y-135612456D01*
X149603994Y-135706960D01*
X149509457Y-135801464D01*
X149509519Y-135016110D01*
X149544988Y-134980369D01*
X149580456Y-134944628D01*
X149698532Y-135062598D01*
G36*
X150545902Y-134980258D02*
X150579761Y-135016110D01*
X150579836Y-135408076D01*
X150579836Y-135455326D01*
X150579819Y-135500946D01*
X150579786Y-135544603D01*
X150579737Y-135585961D01*
X150579674Y-135624684D01*
X150579598Y-135660437D01*
X150579510Y-135692884D01*
X150579410Y-135721689D01*
X150579299Y-135746519D01*
X150579180Y-135767035D01*
X150579051Y-135782905D01*
X150578916Y-135793791D01*
X150578773Y-135799358D01*
X150578702Y-135800043D01*
X150576481Y-135798032D01*
X150570606Y-135792276D01*
X150561488Y-135783190D01*
X150549540Y-135771188D01*
X150535174Y-135756686D01*
X150518801Y-135740098D01*
X150500834Y-135721840D01*
X150485619Y-135706338D01*
X150393745Y-135612634D01*
X150393745Y-135062598D01*
X150452894Y-135003502D01*
X150512042Y-134944406D01*
X150545902Y-134980258D01*
X150545902Y-134980258D01*
G37*
X150545902Y-134980258D02*
X150579761Y-135016110D01*
X150579836Y-135408076D01*
X150579836Y-135455326D01*
X150579819Y-135500946D01*
X150579786Y-135544603D01*
X150579737Y-135585961D01*
X150579674Y-135624684D01*
X150579598Y-135660437D01*
X150579510Y-135692884D01*
X150579410Y-135721689D01*
X150579299Y-135746519D01*
X150579180Y-135767035D01*
X150579051Y-135782905D01*
X150578916Y-135793791D01*
X150578773Y-135799358D01*
X150578702Y-135800043D01*
X150576481Y-135798032D01*
X150570606Y-135792276D01*
X150561488Y-135783190D01*
X150549540Y-135771188D01*
X150535174Y-135756686D01*
X150518801Y-135740098D01*
X150500834Y-135721840D01*
X150485619Y-135706338D01*
X150393745Y-135612634D01*
X150393745Y-135062598D01*
X150452894Y-135003502D01*
X150512042Y-134944406D01*
X150545902Y-134980258D01*
G36*
X152405072Y-135005350D02*
X152464688Y-135065560D01*
X152464840Y-135612456D01*
X152370302Y-135706960D01*
X152275765Y-135801464D01*
X152275943Y-135016110D01*
X152310700Y-134980625D01*
X152345456Y-134945139D01*
X152405072Y-135005350D01*
X152405072Y-135005350D01*
G37*
X152405072Y-135005350D02*
X152464688Y-135065560D01*
X152464840Y-135612456D01*
X152370302Y-135706960D01*
X152275765Y-135801464D01*
X152275943Y-135016110D01*
X152310700Y-134980625D01*
X152345456Y-134945139D01*
X152405072Y-135005350D01*
G36*
X153346239Y-135016820D02*
X153345502Y-135408856D01*
X153344764Y-135800892D01*
X153252408Y-135707103D01*
X153160053Y-135613314D01*
X153160053Y-135062598D01*
X153278325Y-134944432D01*
X153346239Y-135016820D01*
X153346239Y-135016820D01*
G37*
X153346239Y-135016820D02*
X153345502Y-135408856D01*
X153344764Y-135800892D01*
X153252408Y-135707103D01*
X153160053Y-135613314D01*
X153160053Y-135062598D01*
X153278325Y-134944432D01*
X153346239Y-135016820D01*
G36*
X157292823Y-135003781D02*
X157351692Y-135062704D01*
X157351692Y-135612456D01*
X157162618Y-135801464D01*
X157162618Y-135016023D01*
X157198285Y-134980441D01*
X157233953Y-134944859D01*
X157292823Y-135003781D01*
X157292823Y-135003781D01*
G37*
X157292823Y-135003781D02*
X157351692Y-135062704D01*
X157351692Y-135612456D01*
X157162618Y-135801464D01*
X157162618Y-135016023D01*
X157198285Y-134980441D01*
X157233953Y-134944859D01*
X157292823Y-135003781D01*
G36*
X146308253Y-135794225D02*
X145229121Y-135794225D01*
X145361450Y-135661873D01*
X145493778Y-135529521D01*
X146043597Y-135529521D01*
X146308253Y-135794225D01*
X146308253Y-135794225D01*
G37*
X146308253Y-135794225D02*
X145229121Y-135794225D01*
X145361450Y-135661873D01*
X145493778Y-135529521D01*
X146043597Y-135529521D01*
X146308253Y-135794225D01*
G36*
X146796261Y-135034315D02*
X146879865Y-135117957D01*
X146879865Y-135528090D01*
X146747512Y-135660418D01*
X146615160Y-135792747D01*
X146615160Y-135048043D01*
X146663908Y-134999358D01*
X146712656Y-134950674D01*
X146796261Y-135034315D01*
X146796261Y-135034315D01*
G37*
X146796261Y-135034315D02*
X146879865Y-135117957D01*
X146879865Y-135528090D01*
X146747512Y-135660418D01*
X146615160Y-135792747D01*
X146615160Y-135048043D01*
X146663908Y-134999358D01*
X146712656Y-134950674D01*
X146796261Y-135034315D01*
G36*
X147749631Y-135051099D02*
X147748892Y-135421220D01*
X147748154Y-135791341D01*
X147616529Y-135659692D01*
X147484904Y-135528042D01*
X147484904Y-135114972D01*
X147567103Y-135032811D01*
X147649303Y-134950649D01*
X147749631Y-135051099D01*
X147749631Y-135051099D01*
G37*
X147749631Y-135051099D02*
X147748892Y-135421220D01*
X147748154Y-135791341D01*
X147616529Y-135659692D01*
X147484904Y-135528042D01*
X147484904Y-135114972D01*
X147567103Y-135032811D01*
X147649303Y-134950649D01*
X147749631Y-135051099D01*
G36*
X148316832Y-135115048D02*
X148316832Y-135528090D01*
X148184480Y-135660418D01*
X148052128Y-135792747D01*
X148052128Y-135050954D01*
X148152532Y-134950672D01*
X148316832Y-135115048D01*
X148316832Y-135115048D01*
G37*
X148316832Y-135115048D02*
X148316832Y-135528090D01*
X148184480Y-135660418D01*
X148052128Y-135792747D01*
X148052128Y-135050954D01*
X148152532Y-134950672D01*
X148316832Y-135115048D01*
G36*
X145439988Y-135114972D02*
X145439988Y-135478640D01*
X145309091Y-135609514D01*
X145178193Y-135740387D01*
X145178193Y-135048170D01*
X145226890Y-134999409D01*
X145275588Y-134950648D01*
X145439988Y-135114972D01*
X145439988Y-135114972D01*
G37*
X145439988Y-135114972D02*
X145439988Y-135478640D01*
X145309091Y-135609514D01*
X145178193Y-135740387D01*
X145178193Y-135048170D01*
X145226890Y-134999409D01*
X145275588Y-134950648D01*
X145439988Y-135114972D01*
G36*
X151022518Y-135004938D02*
X151083140Y-135065509D01*
X151083140Y-135574672D01*
X150985630Y-135672056D01*
X150938393Y-135624754D01*
X150891157Y-135577452D01*
X150891157Y-135018974D01*
X150961897Y-134944368D01*
X151022518Y-135004938D01*
X151022518Y-135004938D01*
G37*
X151022518Y-135004938D02*
X151083140Y-135065509D01*
X151083140Y-135574672D01*
X150985630Y-135672056D01*
X150938393Y-135624754D01*
X150891157Y-135577452D01*
X150891157Y-135018974D01*
X150961897Y-134944368D01*
X151022518Y-135004938D01*
G36*
X151930384Y-134981762D02*
X151964519Y-135018717D01*
X151964519Y-135577583D01*
X151917106Y-135624930D01*
X151869694Y-135672277D01*
X151775444Y-135576491D01*
X151775444Y-135065509D01*
X151896248Y-134944807D01*
X151930384Y-134981762D01*
X151930384Y-134981762D01*
G37*
X151930384Y-134981762D02*
X151964519Y-135018717D01*
X151964519Y-135577583D01*
X151917106Y-135624930D01*
X151869694Y-135672277D01*
X151775444Y-135576491D01*
X151775444Y-135065509D01*
X151896248Y-134944807D01*
X151930384Y-134981762D01*
G36*
X155909534Y-135005100D02*
X155969993Y-135065509D01*
X155969993Y-135577583D01*
X155922692Y-135624818D01*
X155909135Y-135638285D01*
X155896944Y-135650256D01*
X155886720Y-135660156D01*
X155879061Y-135667405D01*
X155874568Y-135671427D01*
X155873658Y-135672054D01*
X155871216Y-135670065D01*
X155865312Y-135664486D01*
X155856537Y-135655901D01*
X155845484Y-135644891D01*
X155832744Y-135632040D01*
X155824967Y-135624127D01*
X155778009Y-135576199D01*
X155778009Y-135020002D01*
X155813542Y-134982347D01*
X155849074Y-134944692D01*
X155909534Y-135005100D01*
X155909534Y-135005100D01*
G37*
X155909534Y-135005100D02*
X155969993Y-135065509D01*
X155969993Y-135577583D01*
X155922692Y-135624818D01*
X155909135Y-135638285D01*
X155896944Y-135650256D01*
X155886720Y-135660156D01*
X155879061Y-135667405D01*
X155874568Y-135671427D01*
X155873658Y-135672054D01*
X155871216Y-135670065D01*
X155865312Y-135664486D01*
X155856537Y-135655901D01*
X155845484Y-135644891D01*
X155832744Y-135632040D01*
X155824967Y-135624127D01*
X155778009Y-135576199D01*
X155778009Y-135020002D01*
X155813542Y-134982347D01*
X155849074Y-134944692D01*
X155909534Y-135005100D01*
G36*
X156851372Y-135017539D02*
X156851372Y-135576655D01*
X156805979Y-135623627D01*
X156792779Y-135637224D01*
X156780888Y-135649353D01*
X156770913Y-135659404D01*
X156763459Y-135666770D01*
X156759133Y-135670842D01*
X156758342Y-135671450D01*
X156755771Y-135669688D01*
X156749801Y-135664283D01*
X156741032Y-135655818D01*
X156730061Y-135644877D01*
X156717488Y-135632044D01*
X156710651Y-135624958D01*
X156665206Y-135577616D01*
X156665206Y-135062598D01*
X156724285Y-135003572D01*
X156783364Y-134944545D01*
X156851372Y-135017539D01*
X156851372Y-135017539D01*
G37*
X156851372Y-135017539D02*
X156851372Y-135576655D01*
X156805979Y-135623627D01*
X156792779Y-135637224D01*
X156780888Y-135649353D01*
X156770913Y-135659404D01*
X156763459Y-135666770D01*
X156759133Y-135670842D01*
X156758342Y-135671450D01*
X156755771Y-135669688D01*
X156749801Y-135664283D01*
X156741032Y-135655818D01*
X156730061Y-135644877D01*
X156717488Y-135632044D01*
X156710651Y-135624958D01*
X156665206Y-135577616D01*
X156665206Y-135062598D01*
X156724285Y-135003572D01*
X156783364Y-134944545D01*
X156851372Y-135017539D01*
G36*
X147324917Y-134463382D02*
X147324917Y-134988948D01*
X147260196Y-135055592D01*
X147244399Y-135071813D01*
X147229905Y-135086609D01*
X147217207Y-135099484D01*
X147206798Y-135109942D01*
X147199171Y-135117486D01*
X147194819Y-135121619D01*
X147193996Y-135122260D01*
X147191661Y-135120283D01*
X147185716Y-135114663D01*
X147176653Y-135105882D01*
X147164965Y-135094421D01*
X147151145Y-135080763D01*
X147135683Y-135065390D01*
X147124911Y-135054630D01*
X147057304Y-134986976D01*
X147057304Y-134466277D01*
X147107482Y-134416827D01*
X147122744Y-134401810D01*
X147137770Y-134387072D01*
X147151691Y-134373461D01*
X147163636Y-134361827D01*
X147172736Y-134353020D01*
X147175873Y-134350012D01*
X147194087Y-134332648D01*
X147324917Y-134463382D01*
X147324917Y-134463382D01*
G37*
X147324917Y-134463382D02*
X147324917Y-134988948D01*
X147260196Y-135055592D01*
X147244399Y-135071813D01*
X147229905Y-135086609D01*
X147217207Y-135099484D01*
X147206798Y-135109942D01*
X147199171Y-135117486D01*
X147194819Y-135121619D01*
X147193996Y-135122260D01*
X147191661Y-135120283D01*
X147185716Y-135114663D01*
X147176653Y-135105882D01*
X147164965Y-135094421D01*
X147151145Y-135080763D01*
X147135683Y-135065390D01*
X147124911Y-135054630D01*
X147057304Y-134986976D01*
X147057304Y-134466277D01*
X147107482Y-134416827D01*
X147122744Y-134401810D01*
X147137770Y-134387072D01*
X147151691Y-134373461D01*
X147163636Y-134361827D01*
X147172736Y-134353020D01*
X147175873Y-134350012D01*
X147194087Y-134332648D01*
X147324917Y-134463382D01*
G36*
X146095229Y-134830695D02*
X146161381Y-134896895D01*
X146095182Y-134963047D01*
X146028982Y-135029200D01*
X145461757Y-135029200D01*
X145395605Y-134963000D01*
X145329452Y-134896801D01*
X145395652Y-134830648D01*
X145461851Y-134764495D01*
X146029076Y-134764495D01*
X146095229Y-134830695D01*
X146095229Y-134830695D01*
G37*
X146095229Y-134830695D02*
X146161381Y-134896895D01*
X146095182Y-134963047D01*
X146028982Y-135029200D01*
X145461757Y-135029200D01*
X145395605Y-134963000D01*
X145329452Y-134896801D01*
X145395652Y-134830648D01*
X145461851Y-134764495D01*
X146029076Y-134764495D01*
X146095229Y-134830695D01*
G36*
X148972073Y-134830695D02*
X149038225Y-134896895D01*
X148972026Y-134963047D01*
X148905826Y-135029200D01*
X148335691Y-135029200D01*
X148270290Y-134963751D01*
X148204890Y-134898302D01*
X148271745Y-134831398D01*
X148338601Y-134764495D01*
X148905920Y-134764495D01*
X148972073Y-134830695D01*
X148972073Y-134830695D01*
G37*
X148972073Y-134830695D02*
X149038225Y-134896895D01*
X148972026Y-134963047D01*
X148905826Y-135029200D01*
X148335691Y-135029200D01*
X148270290Y-134963751D01*
X148204890Y-134898302D01*
X148271745Y-134831398D01*
X148338601Y-134764495D01*
X148905920Y-134764495D01*
X148972073Y-134830695D01*
G36*
X158033816Y-134814190D02*
X158081766Y-134861088D01*
X158129717Y-134907986D01*
X158081766Y-134954020D01*
X158033816Y-135000054D01*
X157697810Y-135000083D01*
X157361805Y-135000112D01*
X157316025Y-134954264D01*
X157270245Y-134908417D01*
X157317546Y-134861181D01*
X157364846Y-134813946D01*
X158033816Y-134814190D01*
X158033816Y-134814190D01*
G37*
X158033816Y-134814190D02*
X158081766Y-134861088D01*
X158129717Y-134907986D01*
X158081766Y-134954020D01*
X158033816Y-135000054D01*
X157697810Y-135000083D01*
X157361805Y-135000112D01*
X157316025Y-134954264D01*
X157270245Y-134908417D01*
X157317546Y-134861181D01*
X157364846Y-134813946D01*
X158033816Y-134814190D01*
G36*
X154979270Y-134286265D02*
X155027484Y-134332533D01*
X155027506Y-134614758D01*
X155027528Y-134896984D01*
X155004985Y-134918764D01*
X154993970Y-134929347D01*
X154982889Y-134939895D01*
X154973395Y-134948840D01*
X154969352Y-134952596D01*
X154956262Y-134964648D01*
X154838454Y-134850026D01*
X154838454Y-134332464D01*
X154931056Y-134239998D01*
X154979270Y-134286265D01*
X154979270Y-134286265D01*
G37*
X154979270Y-134286265D02*
X155027484Y-134332533D01*
X155027506Y-134614758D01*
X155027528Y-134896984D01*
X155004985Y-134918764D01*
X154993970Y-134929347D01*
X154982889Y-134939895D01*
X154973395Y-134948840D01*
X154969352Y-134952596D01*
X154956262Y-134964648D01*
X154838454Y-134850026D01*
X154838454Y-134332464D01*
X154931056Y-134239998D01*
X154979270Y-134286265D01*
G36*
X149603973Y-134142073D02*
X149698489Y-134236541D01*
X149698510Y-134494000D01*
X149698532Y-134751459D01*
X149639602Y-134810336D01*
X149624437Y-134825438D01*
X149610616Y-134839107D01*
X149598669Y-134850826D01*
X149589125Y-134860080D01*
X149582515Y-134866352D01*
X149579369Y-134869124D01*
X149579198Y-134869214D01*
X149576757Y-134867258D01*
X149570937Y-134861844D01*
X149562446Y-134853655D01*
X149551993Y-134843370D01*
X149543590Y-134834991D01*
X149509457Y-134800769D01*
X149509457Y-134047606D01*
X149603973Y-134142073D01*
X149603973Y-134142073D01*
G37*
X149603973Y-134142073D02*
X149698489Y-134236541D01*
X149698510Y-134494000D01*
X149698532Y-134751459D01*
X149639602Y-134810336D01*
X149624437Y-134825438D01*
X149610616Y-134839107D01*
X149598669Y-134850826D01*
X149589125Y-134860080D01*
X149582515Y-134866352D01*
X149579369Y-134869124D01*
X149579198Y-134869214D01*
X149576757Y-134867258D01*
X149570937Y-134861844D01*
X149562446Y-134853655D01*
X149551993Y-134843370D01*
X149543590Y-134834991D01*
X149509457Y-134800769D01*
X149509457Y-134047606D01*
X149603973Y-134142073D01*
G36*
X150140676Y-134346125D02*
X150140676Y-134774742D01*
X150093375Y-134821978D01*
X150079821Y-134835444D01*
X150067637Y-134847415D01*
X150057424Y-134857314D01*
X150049778Y-134864563D01*
X150045299Y-134868586D01*
X150044398Y-134869214D01*
X150041968Y-134867229D01*
X150036067Y-134861663D01*
X150027288Y-134853097D01*
X150016223Y-134842114D01*
X150003465Y-134829293D01*
X149995707Y-134821432D01*
X149948692Y-134773651D01*
X149948692Y-134347011D01*
X150043438Y-134252395D01*
X150140676Y-134346125D01*
X150140676Y-134346125D01*
G37*
X150140676Y-134346125D02*
X150140676Y-134774742D01*
X150093375Y-134821978D01*
X150079821Y-134835444D01*
X150067637Y-134847415D01*
X150057424Y-134857314D01*
X150049778Y-134864563D01*
X150045299Y-134868586D01*
X150044398Y-134869214D01*
X150041968Y-134867229D01*
X150036067Y-134861663D01*
X150027288Y-134853097D01*
X150016223Y-134842114D01*
X150003465Y-134829293D01*
X149995707Y-134821432D01*
X149948692Y-134773651D01*
X149948692Y-134347011D01*
X150043438Y-134252395D01*
X150140676Y-134346125D01*
G36*
X150579911Y-134799909D02*
X150547435Y-134834562D01*
X150536445Y-134846182D01*
X150526830Y-134856144D01*
X150519291Y-134863739D01*
X150514528Y-134868259D01*
X150513230Y-134869214D01*
X150510810Y-134867235D01*
X150504823Y-134861645D01*
X150495802Y-134852961D01*
X150484279Y-134841700D01*
X150470785Y-134828379D01*
X150455854Y-134813516D01*
X150452622Y-134810284D01*
X150393745Y-134751354D01*
X150393745Y-134236507D01*
X150579911Y-134050409D01*
X150579911Y-134799909D01*
X150579911Y-134799909D01*
G37*
X150579911Y-134799909D02*
X150547435Y-134834562D01*
X150536445Y-134846182D01*
X150526830Y-134856144D01*
X150519291Y-134863739D01*
X150514528Y-134868259D01*
X150513230Y-134869214D01*
X150510810Y-134867235D01*
X150504823Y-134861645D01*
X150495802Y-134852961D01*
X150484279Y-134841700D01*
X150470785Y-134828379D01*
X150455854Y-134813516D01*
X150452622Y-134810284D01*
X150393745Y-134751354D01*
X150393745Y-134236507D01*
X150579911Y-134050409D01*
X150579911Y-134799909D01*
G36*
X151083140Y-134239385D02*
X151083140Y-134748549D01*
X151022747Y-134808890D01*
X150962354Y-134869232D01*
X150926755Y-134833548D01*
X150891157Y-134797863D01*
X150891157Y-134239090D01*
X150938167Y-134190321D01*
X150985178Y-134141551D01*
X151083140Y-134239385D01*
X151083140Y-134239385D01*
G37*
X151083140Y-134239385D02*
X151083140Y-134748549D01*
X151022747Y-134808890D01*
X150962354Y-134869232D01*
X150926755Y-134833548D01*
X150891157Y-134797863D01*
X150891157Y-134239090D01*
X150938167Y-134190321D01*
X150985178Y-134141551D01*
X151083140Y-134239385D01*
G36*
X151917250Y-134190097D02*
X151964519Y-134239018D01*
X151964519Y-134799966D01*
X151896161Y-134869490D01*
X151835803Y-134809329D01*
X151775444Y-134749167D01*
X151775444Y-134240195D01*
X151869982Y-134141175D01*
X151917250Y-134190097D01*
X151917250Y-134190097D01*
G37*
X151917250Y-134190097D02*
X151964519Y-134239018D01*
X151964519Y-134799966D01*
X151896161Y-134869490D01*
X151835803Y-134809329D01*
X151775444Y-134749167D01*
X151775444Y-134240195D01*
X151869982Y-134141175D01*
X151917250Y-134190097D01*
G36*
X152370302Y-134107097D02*
X152464840Y-134201601D01*
X152464840Y-134751459D01*
X152405910Y-134810336D01*
X152390745Y-134825438D01*
X152376924Y-134839107D01*
X152364977Y-134850826D01*
X152355433Y-134860080D01*
X152348823Y-134866352D01*
X152345676Y-134869124D01*
X152345506Y-134869214D01*
X152343065Y-134867258D01*
X152337244Y-134861844D01*
X152328753Y-134853655D01*
X152318300Y-134843370D01*
X152309898Y-134834991D01*
X152275765Y-134800769D01*
X152275765Y-134012594D01*
X152370302Y-134107097D01*
X152370302Y-134107097D01*
G37*
X152370302Y-134107097D02*
X152464840Y-134201601D01*
X152464840Y-134751459D01*
X152405910Y-134810336D01*
X152390745Y-134825438D01*
X152376924Y-134839107D01*
X152364977Y-134850826D01*
X152355433Y-134860080D01*
X152348823Y-134866352D01*
X152345676Y-134869124D01*
X152345506Y-134869214D01*
X152343065Y-134867258D01*
X152337244Y-134861844D01*
X152328753Y-134853655D01*
X152318300Y-134843370D01*
X152309898Y-134834991D01*
X152275765Y-134800769D01*
X152275765Y-134012594D01*
X152370302Y-134107097D01*
G36*
X153346218Y-134799860D02*
X153313494Y-134834505D01*
X153302456Y-134846102D01*
X153292824Y-134856054D01*
X153285294Y-134863654D01*
X153280561Y-134868198D01*
X153279288Y-134869183D01*
X153276933Y-134867213D01*
X153271007Y-134861633D01*
X153262040Y-134852959D01*
X153250561Y-134841708D01*
X153237100Y-134828396D01*
X153222186Y-134813540D01*
X153218930Y-134810284D01*
X153160053Y-134751354D01*
X153160207Y-134476494D01*
X153160360Y-134201635D01*
X153253256Y-134107097D01*
X153346152Y-134012560D01*
X153346218Y-134799860D01*
X153346218Y-134799860D01*
G37*
X153346218Y-134799860D02*
X153313494Y-134834505D01*
X153302456Y-134846102D01*
X153292824Y-134856054D01*
X153285294Y-134863654D01*
X153280561Y-134868198D01*
X153279288Y-134869183D01*
X153276933Y-134867213D01*
X153271007Y-134861633D01*
X153262040Y-134852959D01*
X153250561Y-134841708D01*
X153237100Y-134828396D01*
X153222186Y-134813540D01*
X153218930Y-134810284D01*
X153160053Y-134751354D01*
X153160207Y-134476494D01*
X153160360Y-134201635D01*
X153253256Y-134107097D01*
X153346152Y-134012560D01*
X153346218Y-134799860D01*
G36*
X153917640Y-134057658D02*
X153965802Y-134105266D01*
X153965802Y-134800769D01*
X153931668Y-134834991D01*
X153920232Y-134846369D01*
X153910239Y-134856146D01*
X153902399Y-134863640D01*
X153897422Y-134868170D01*
X153896008Y-134869214D01*
X153893641Y-134867236D01*
X153887704Y-134861648D01*
X153878726Y-134852967D01*
X153867239Y-134841709D01*
X153853771Y-134828393D01*
X153838854Y-134813534D01*
X153835604Y-134810284D01*
X153776727Y-134751354D01*
X153776727Y-134102666D01*
X153823102Y-134056358D01*
X153869478Y-134010051D01*
X153917640Y-134057658D01*
X153917640Y-134057658D01*
G37*
X153917640Y-134057658D02*
X153965802Y-134105266D01*
X153965802Y-134800769D01*
X153931668Y-134834991D01*
X153920232Y-134846369D01*
X153910239Y-134856146D01*
X153902399Y-134863640D01*
X153897422Y-134868170D01*
X153896008Y-134869214D01*
X153893641Y-134867236D01*
X153887704Y-134861648D01*
X153878726Y-134852967D01*
X153867239Y-134841709D01*
X153853771Y-134828393D01*
X153838854Y-134813534D01*
X153835604Y-134810284D01*
X153776727Y-134751354D01*
X153776727Y-134102666D01*
X153823102Y-134056358D01*
X153869478Y-134010051D01*
X153917640Y-134057658D01*
G36*
X155921079Y-134190535D02*
X155969993Y-134239385D01*
X155969993Y-134751459D01*
X155911063Y-134810336D01*
X155895898Y-134825438D01*
X155882078Y-134839107D01*
X155870131Y-134850826D01*
X155860588Y-134860080D01*
X155853978Y-134866352D01*
X155850832Y-134869124D01*
X155850661Y-134869214D01*
X155848228Y-134867256D01*
X155842398Y-134861828D01*
X155833865Y-134853596D01*
X155823320Y-134843227D01*
X155813599Y-134833538D01*
X155778009Y-134797863D01*
X155778009Y-134240276D01*
X155825088Y-134190981D01*
X155872166Y-134141685D01*
X155921079Y-134190535D01*
X155921079Y-134190535D01*
G37*
X155921079Y-134190535D02*
X155969993Y-134239385D01*
X155969993Y-134751459D01*
X155911063Y-134810336D01*
X155895898Y-134825438D01*
X155882078Y-134839107D01*
X155870131Y-134850826D01*
X155860588Y-134860080D01*
X155853978Y-134866352D01*
X155850832Y-134869124D01*
X155850661Y-134869214D01*
X155848228Y-134867256D01*
X155842398Y-134861828D01*
X155833865Y-134853596D01*
X155823320Y-134843227D01*
X155813599Y-134833538D01*
X155778009Y-134797863D01*
X155778009Y-134240276D01*
X155825088Y-134190981D01*
X155872166Y-134141685D01*
X155921079Y-134190535D01*
G36*
X156804103Y-134189340D02*
X156851372Y-134236475D01*
X156851340Y-134518665D01*
X156851307Y-134800856D01*
X156817411Y-134835035D01*
X156806125Y-134846399D01*
X156796397Y-134856164D01*
X156788908Y-134863648D01*
X156784339Y-134868172D01*
X156783238Y-134869214D01*
X156781196Y-134867241D01*
X156775561Y-134861665D01*
X156766851Y-134853002D01*
X156755582Y-134841768D01*
X156742273Y-134828476D01*
X156727440Y-134813643D01*
X156724083Y-134810284D01*
X156665206Y-134751354D01*
X156665206Y-134237508D01*
X156711020Y-134189857D01*
X156756835Y-134142205D01*
X156804103Y-134189340D01*
X156804103Y-134189340D01*
G37*
X156804103Y-134189340D02*
X156851372Y-134236475D01*
X156851340Y-134518665D01*
X156851307Y-134800856D01*
X156817411Y-134835035D01*
X156806125Y-134846399D01*
X156796397Y-134856164D01*
X156788908Y-134863648D01*
X156784339Y-134868172D01*
X156783238Y-134869214D01*
X156781196Y-134867241D01*
X156775561Y-134861665D01*
X156766851Y-134853002D01*
X156755582Y-134841768D01*
X156742273Y-134828476D01*
X156727440Y-134813643D01*
X156724083Y-134810284D01*
X156665206Y-134751354D01*
X156665206Y-134237508D01*
X156711020Y-134189857D01*
X156756835Y-134142205D01*
X156804103Y-134189340D01*
G36*
X157257155Y-134142003D02*
X157351692Y-134236507D01*
X157351692Y-134751459D01*
X157292762Y-134810336D01*
X157277598Y-134825438D01*
X157263777Y-134839107D01*
X157251830Y-134850826D01*
X157242286Y-134860080D01*
X157235676Y-134866352D01*
X157232529Y-134869124D01*
X157232359Y-134869214D01*
X157229918Y-134867258D01*
X157224097Y-134861844D01*
X157215606Y-134853655D01*
X157205153Y-134843370D01*
X157196751Y-134834991D01*
X157162618Y-134800769D01*
X157162618Y-134047500D01*
X157257155Y-134142003D01*
X157257155Y-134142003D01*
G37*
X157257155Y-134142003D02*
X157351692Y-134236507D01*
X157351692Y-134751459D01*
X157292762Y-134810336D01*
X157277598Y-134825438D01*
X157263777Y-134839107D01*
X157251830Y-134850826D01*
X157242286Y-134860080D01*
X157235676Y-134866352D01*
X157232529Y-134869124D01*
X157232359Y-134869214D01*
X157229918Y-134867258D01*
X157224097Y-134861844D01*
X157215606Y-134853655D01*
X157205153Y-134843370D01*
X157196751Y-134834991D01*
X157162618Y-134800769D01*
X157162618Y-134047500D01*
X157257155Y-134142003D01*
G36*
X158188421Y-134190552D02*
X158235679Y-134239450D01*
X158235755Y-134518698D01*
X158235831Y-134797947D01*
X158202177Y-134833580D01*
X158190946Y-134845356D01*
X158181073Y-134855491D01*
X158173252Y-134863287D01*
X158168179Y-134868051D01*
X158166592Y-134869214D01*
X158164119Y-134867235D01*
X158158083Y-134861643D01*
X158149019Y-134852955D01*
X158137461Y-134841691D01*
X158123942Y-134828366D01*
X158108997Y-134813498D01*
X158105783Y-134810284D01*
X158046906Y-134751354D01*
X158046906Y-134237858D01*
X158141164Y-134141654D01*
X158188421Y-134190552D01*
X158188421Y-134190552D01*
G37*
X158188421Y-134190552D02*
X158235679Y-134239450D01*
X158235755Y-134518698D01*
X158235831Y-134797947D01*
X158202177Y-134833580D01*
X158190946Y-134845356D01*
X158181073Y-134855491D01*
X158173252Y-134863287D01*
X158168179Y-134868051D01*
X158166592Y-134869214D01*
X158164119Y-134867235D01*
X158158083Y-134861643D01*
X158149019Y-134852955D01*
X158137461Y-134841691D01*
X158123942Y-134828366D01*
X158108997Y-134813498D01*
X158105783Y-134810284D01*
X158046906Y-134751354D01*
X158046906Y-134237858D01*
X158141164Y-134141654D01*
X158188421Y-134190552D01*
G36*
X144373194Y-134408913D02*
X144439347Y-134475112D01*
X144439347Y-134744900D01*
X144390797Y-134794694D01*
X144377137Y-134808665D01*
X144364821Y-134821184D01*
X144354431Y-134831669D01*
X144346546Y-134839535D01*
X144341746Y-134844198D01*
X144340548Y-134845240D01*
X144338216Y-134843391D01*
X144332273Y-134837801D01*
X144323156Y-134828905D01*
X144311301Y-134817137D01*
X144297148Y-134802933D01*
X144281132Y-134786729D01*
X144263692Y-134768959D01*
X144256746Y-134761849D01*
X144174643Y-134677706D01*
X144174643Y-134475018D01*
X144240842Y-134408866D01*
X144307042Y-134342713D01*
X144373194Y-134408913D01*
X144373194Y-134408913D01*
G37*
X144373194Y-134408913D02*
X144439347Y-134475112D01*
X144439347Y-134744900D01*
X144390797Y-134794694D01*
X144377137Y-134808665D01*
X144364821Y-134821184D01*
X144354431Y-134831669D01*
X144346546Y-134839535D01*
X144341746Y-134844198D01*
X144340548Y-134845240D01*
X144338216Y-134843391D01*
X144332273Y-134837801D01*
X144323156Y-134828905D01*
X144311301Y-134817137D01*
X144297148Y-134802933D01*
X144281132Y-134786729D01*
X144263692Y-134768959D01*
X144256746Y-134761849D01*
X144174643Y-134677706D01*
X144174643Y-134475018D01*
X144240842Y-134408866D01*
X144307042Y-134342713D01*
X144373194Y-134408913D01*
G36*
X145309091Y-134187090D02*
X145439988Y-134317964D01*
X145439988Y-134680312D01*
X145357770Y-134763443D01*
X145275552Y-134846575D01*
X145226872Y-134796759D01*
X145178193Y-134746944D01*
X145178193Y-134056217D01*
X145309091Y-134187090D01*
X145309091Y-134187090D01*
G37*
X145309091Y-134187090D02*
X145439988Y-134317964D01*
X145439988Y-134680312D01*
X145357770Y-134763443D01*
X145275552Y-134846575D01*
X145226872Y-134796759D01*
X145178193Y-134746944D01*
X145178193Y-134056217D01*
X145309091Y-134187090D01*
G36*
X146747512Y-134185636D02*
X146879865Y-134317964D01*
X146879865Y-134677924D01*
X146797957Y-134761206D01*
X146780053Y-134779384D01*
X146763410Y-134796231D01*
X146748472Y-134811302D01*
X146735681Y-134824152D01*
X146725480Y-134834338D01*
X146718312Y-134841414D01*
X146714619Y-134844937D01*
X146714229Y-134845249D01*
X146711797Y-134843452D01*
X146705933Y-134837997D01*
X146697209Y-134829452D01*
X146686196Y-134818379D01*
X146673464Y-134805346D01*
X146663785Y-134795306D01*
X146615160Y-134744604D01*
X146615160Y-134053308D01*
X146747512Y-134185636D01*
X146747512Y-134185636D01*
G37*
X146747512Y-134185636D02*
X146879865Y-134317964D01*
X146879865Y-134677924D01*
X146797957Y-134761206D01*
X146780053Y-134779384D01*
X146763410Y-134796231D01*
X146748472Y-134811302D01*
X146735681Y-134824152D01*
X146725480Y-134834338D01*
X146718312Y-134841414D01*
X146714619Y-134844937D01*
X146714229Y-134845249D01*
X146711797Y-134843452D01*
X146705933Y-134837997D01*
X146697209Y-134829452D01*
X146686196Y-134818379D01*
X146673464Y-134805346D01*
X146663785Y-134795306D01*
X146615160Y-134744604D01*
X146615160Y-134053308D01*
X146747512Y-134185636D01*
G36*
X147749608Y-134745650D02*
X147699188Y-134796008D01*
X147648768Y-134846367D01*
X147485054Y-134678685D01*
X147484979Y-134498324D01*
X147484904Y-134317964D01*
X147749608Y-134053308D01*
X147749608Y-134745650D01*
X147749608Y-134745650D01*
G37*
X147749608Y-134745650D02*
X147699188Y-134796008D01*
X147648768Y-134846367D01*
X147485054Y-134678685D01*
X147484979Y-134498324D01*
X147484904Y-134317964D01*
X147749608Y-134053308D01*
X147749608Y-134745650D01*
G36*
X148316832Y-134317964D02*
X148316821Y-134498324D01*
X148316809Y-134678685D01*
X148234646Y-134762554D01*
X148152483Y-134846422D01*
X148102305Y-134795975D01*
X148052128Y-134745527D01*
X148052128Y-134053308D01*
X148316832Y-134317964D01*
X148316832Y-134317964D01*
G37*
X148316832Y-134317964D02*
X148316821Y-134498324D01*
X148316809Y-134678685D01*
X148234646Y-134762554D01*
X148152483Y-134846422D01*
X148102305Y-134795975D01*
X148052128Y-134745527D01*
X148052128Y-134053308D01*
X148316832Y-134317964D01*
G36*
X149120423Y-134251835D02*
X149186576Y-134318035D01*
X149186576Y-134744674D01*
X149138115Y-134795308D01*
X149124546Y-134809403D01*
X149112300Y-134821964D01*
X149101950Y-134832419D01*
X149094065Y-134840194D01*
X149089217Y-134844718D01*
X149087938Y-134845644D01*
X149085591Y-134843573D01*
X149079615Y-134837785D01*
X149070451Y-134828723D01*
X149058538Y-134816826D01*
X149044318Y-134802537D01*
X149028233Y-134786294D01*
X149010721Y-134768540D01*
X149004046Y-134761755D01*
X148921871Y-134678163D01*
X148921871Y-134317941D01*
X148988071Y-134251788D01*
X149054270Y-134185636D01*
X149120423Y-134251835D01*
X149120423Y-134251835D01*
G37*
X149120423Y-134251835D02*
X149186576Y-134318035D01*
X149186576Y-134744674D01*
X149138115Y-134795308D01*
X149124546Y-134809403D01*
X149112300Y-134821964D01*
X149101950Y-134832419D01*
X149094065Y-134840194D01*
X149089217Y-134844718D01*
X149087938Y-134845644D01*
X149085591Y-134843573D01*
X149079615Y-134837785D01*
X149070451Y-134828723D01*
X149058538Y-134816826D01*
X149044318Y-134802537D01*
X149028233Y-134786294D01*
X149010721Y-134768540D01*
X149004046Y-134761755D01*
X148921871Y-134678163D01*
X148921871Y-134317941D01*
X148988071Y-134251788D01*
X149054270Y-134185636D01*
X149120423Y-134251835D01*
G36*
X152877260Y-134436524D02*
X153110569Y-134669958D01*
X153110585Y-134737589D01*
X153110602Y-134805219D01*
X152978250Y-134805079D01*
X152511088Y-134341259D01*
X152511235Y-134272174D01*
X152511381Y-134203089D01*
X152643952Y-134203089D01*
X152877260Y-134436524D01*
X152877260Y-134436524D01*
G37*
X152877260Y-134436524D02*
X153110569Y-134669958D01*
X153110585Y-134737589D01*
X153110602Y-134805219D01*
X152978250Y-134805079D01*
X152511088Y-134341259D01*
X152511235Y-134272174D01*
X152511381Y-134203089D01*
X152643952Y-134203089D01*
X152877260Y-134436524D01*
G36*
X144865492Y-134066374D02*
X144932348Y-134133277D01*
X144865492Y-134200180D01*
X144798636Y-134267084D01*
X143811585Y-134267084D01*
X143679863Y-134132146D01*
X143746154Y-134065808D01*
X143812444Y-133999470D01*
X144798636Y-133999470D01*
X144865492Y-134066374D01*
X144865492Y-134066374D01*
G37*
X144865492Y-134066374D02*
X144932348Y-134133277D01*
X144865492Y-134200180D01*
X144798636Y-134267084D01*
X143811585Y-134267084D01*
X143679863Y-134132146D01*
X143746154Y-134065808D01*
X143812444Y-133999470D01*
X144798636Y-133999470D01*
X144865492Y-134066374D01*
G36*
X146043597Y-134267084D02*
X145493760Y-134267084D01*
X145419602Y-134192181D01*
X145399134Y-134171502D01*
X145376963Y-134149093D01*
X145354172Y-134126048D01*
X145331843Y-134103462D01*
X145311058Y-134082432D01*
X145292902Y-134064050D01*
X145287298Y-134058374D01*
X145229152Y-133999470D01*
X146311163Y-133999470D01*
X146043597Y-134267084D01*
X146043597Y-134267084D01*
G37*
X146043597Y-134267084D02*
X145493760Y-134267084D01*
X145419602Y-134192181D01*
X145399134Y-134171502D01*
X145376963Y-134149093D01*
X145354172Y-134126048D01*
X145331843Y-134103462D01*
X145311058Y-134082432D01*
X145292902Y-134064050D01*
X145287298Y-134058374D01*
X145229152Y-133999470D01*
X146311163Y-133999470D01*
X146043597Y-134267084D01*
G36*
X147660860Y-134038012D02*
X147650645Y-134048410D01*
X147636981Y-134062277D01*
X147620516Y-134078955D01*
X147601903Y-134097788D01*
X147581790Y-134118115D01*
X147560828Y-134139282D01*
X147539668Y-134160628D01*
X147528566Y-134171819D01*
X147434032Y-134267084D01*
X147182401Y-134266793D01*
X146930769Y-134266503D01*
X146798689Y-134132987D01*
X146666608Y-133999470D01*
X147698620Y-133999470D01*
X147660860Y-134038012D01*
X147660860Y-134038012D01*
G37*
X147660860Y-134038012D02*
X147650645Y-134048410D01*
X147636981Y-134062277D01*
X147620516Y-134078955D01*
X147601903Y-134097788D01*
X147581790Y-134118115D01*
X147560828Y-134139282D01*
X147539668Y-134160628D01*
X147528566Y-134171819D01*
X147434032Y-134267084D01*
X147182401Y-134266793D01*
X146930769Y-134266503D01*
X146798689Y-134132987D01*
X146666608Y-133999470D01*
X147698620Y-133999470D01*
X147660860Y-134038012D01*
G36*
X148937782Y-134066302D02*
X149004636Y-134133155D01*
X148939255Y-134199715D01*
X148873875Y-134266276D01*
X148621839Y-134266680D01*
X148369802Y-134267084D01*
X148238178Y-134134004D01*
X148106554Y-134000925D01*
X148488742Y-134000187D01*
X148870929Y-133999449D01*
X148937782Y-134066302D01*
X148937782Y-134066302D01*
G37*
X148937782Y-134066302D02*
X149004636Y-134133155D01*
X148939255Y-134199715D01*
X148873875Y-134266276D01*
X148621839Y-134266680D01*
X148369802Y-134267084D01*
X148238178Y-134134004D01*
X148106554Y-134000925D01*
X148488742Y-134000187D01*
X148870929Y-133999449D01*
X148937782Y-134066302D01*
G36*
X150450445Y-134105643D02*
X150358114Y-134200180D01*
X149731681Y-134200180D01*
X149546789Y-134011106D01*
X150542775Y-134011106D01*
X150450445Y-134105643D01*
X150450445Y-134105643D01*
G37*
X150450445Y-134105643D02*
X150358114Y-134200180D01*
X149731681Y-134200180D01*
X149546789Y-134011106D01*
X150542775Y-134011106D01*
X150450445Y-134105643D01*
G36*
X151833622Y-134105708D02*
X151786321Y-134152944D01*
X151739019Y-134200180D01*
X151116526Y-134200180D01*
X151069290Y-134152879D01*
X151022053Y-134105578D01*
X151069355Y-134058342D01*
X151116656Y-134011106D01*
X151739150Y-134011106D01*
X151833622Y-134105708D01*
X151833622Y-134105708D01*
G37*
X151833622Y-134105708D02*
X151786321Y-134152944D01*
X151739019Y-134200180D01*
X151116526Y-134200180D01*
X151069290Y-134152879D01*
X151022053Y-134105578D01*
X151069355Y-134058342D01*
X151116656Y-134011106D01*
X151739150Y-134011106D01*
X151833622Y-134105708D01*
G36*
X155373681Y-134105643D02*
X155279177Y-134200180D01*
X154586806Y-134200180D01*
X154397798Y-134011106D01*
X155468184Y-134011106D01*
X155373681Y-134105643D01*
X155373681Y-134105643D01*
G37*
X155373681Y-134105643D02*
X155279177Y-134200180D01*
X154586806Y-134200180D01*
X154397798Y-134011106D01*
X155468184Y-134011106D01*
X155373681Y-134105643D01*
G36*
X156673086Y-134058374D02*
X156720169Y-134105643D01*
X156673700Y-134152912D01*
X156627231Y-134200180D01*
X156003357Y-134200180D01*
X155968446Y-134164547D01*
X155955923Y-134151726D01*
X155943913Y-134139356D01*
X155933400Y-134128457D01*
X155925366Y-134120047D01*
X155922034Y-134116499D01*
X155910534Y-134104084D01*
X156003376Y-134011106D01*
X156626003Y-134011106D01*
X156673086Y-134058374D01*
X156673086Y-134058374D01*
G37*
X156673086Y-134058374D02*
X156720169Y-134105643D01*
X156673700Y-134152912D01*
X156627231Y-134200180D01*
X156003357Y-134200180D01*
X155968446Y-134164547D01*
X155955923Y-134151726D01*
X155943913Y-134139356D01*
X155933400Y-134128457D01*
X155925366Y-134120047D01*
X155922034Y-134116499D01*
X155910534Y-134104084D01*
X156003376Y-134011106D01*
X156626003Y-134011106D01*
X156673086Y-134058374D01*
G36*
X158057054Y-134057614D02*
X158103494Y-134104123D01*
X158087590Y-134120881D01*
X158079566Y-134129274D01*
X158068758Y-134140489D01*
X158056454Y-134153197D01*
X158043942Y-134166063D01*
X158041165Y-134168910D01*
X158010644Y-134200180D01*
X157697894Y-134200049D01*
X157385144Y-134199917D01*
X157292497Y-134105512D01*
X157199849Y-134011106D01*
X158010613Y-134011106D01*
X158057054Y-134057614D01*
X158057054Y-134057614D01*
G37*
X158057054Y-134057614D02*
X158103494Y-134104123D01*
X158087590Y-134120881D01*
X158079566Y-134129274D01*
X158068758Y-134140489D01*
X158056454Y-134153197D01*
X158043942Y-134166063D01*
X158041165Y-134168910D01*
X158010644Y-134200180D01*
X157697894Y-134200049D01*
X157385144Y-134199917D01*
X157292497Y-134105512D01*
X157199849Y-134011106D01*
X158010613Y-134011106D01*
X158057054Y-134057614D01*
D13*
X141916573Y-105005293D02*
X141916573Y-106444627D01*
X142001240Y-106613960D01*
X142085907Y-106698627D01*
X142255240Y-106783293D01*
X142593907Y-106783293D01*
X142763240Y-106698627D01*
X142847907Y-106613960D01*
X142932573Y-106444627D01*
X142932573Y-105005293D01*
X144033240Y-105767293D02*
X143863907Y-105682627D01*
X143779240Y-105597960D01*
X143694574Y-105428627D01*
X143694574Y-105343960D01*
X143779240Y-105174627D01*
X143863907Y-105089960D01*
X144033240Y-105005293D01*
X144371907Y-105005293D01*
X144541240Y-105089960D01*
X144625907Y-105174627D01*
X144710574Y-105343960D01*
X144710574Y-105428627D01*
X144625907Y-105597960D01*
X144541240Y-105682627D01*
X144371907Y-105767293D01*
X144033240Y-105767293D01*
X143863907Y-105851960D01*
X143779240Y-105936627D01*
X143694574Y-106105960D01*
X143694574Y-106444627D01*
X143779240Y-106613960D01*
X143863907Y-106698627D01*
X144033240Y-106783293D01*
X144371907Y-106783293D01*
X144541240Y-106698627D01*
X144625907Y-106613960D01*
X144710574Y-106444627D01*
X144710574Y-106105960D01*
X144625907Y-105936627D01*
X144541240Y-105851960D01*
X144371907Y-105767293D01*
D14*
X149106467Y-101908035D02*
X149648334Y-101908035D01*
X149299991Y-102720835D01*
X136928981Y-102720835D02*
X136464524Y-102720835D01*
X136696753Y-102720835D02*
X136696753Y-101908035D01*
X136619343Y-102024150D01*
X136541934Y-102101559D01*
X136464524Y-102140264D01*
X137238619Y-101985445D02*
X137277324Y-101946740D01*
X137354733Y-101908035D01*
X137548257Y-101908035D01*
X137625667Y-101946740D01*
X137664371Y-101985445D01*
X137703076Y-102062854D01*
X137703076Y-102140264D01*
X137664371Y-102256378D01*
X137199914Y-102720835D01*
X137703076Y-102720835D01*
D13*
X141901333Y-88210813D02*
X141901333Y-89650147D01*
X141986000Y-89819480D01*
X142070667Y-89904147D01*
X142240000Y-89988813D01*
X142578667Y-89988813D01*
X142748000Y-89904147D01*
X142832667Y-89819480D01*
X142917333Y-89650147D01*
X142917333Y-88210813D01*
X144526000Y-88210813D02*
X144187334Y-88210813D01*
X144018000Y-88295480D01*
X143933334Y-88380147D01*
X143764000Y-88634147D01*
X143679334Y-88972813D01*
X143679334Y-89650147D01*
X143764000Y-89819480D01*
X143848667Y-89904147D01*
X144018000Y-89988813D01*
X144356667Y-89988813D01*
X144526000Y-89904147D01*
X144610667Y-89819480D01*
X144695334Y-89650147D01*
X144695334Y-89226813D01*
X144610667Y-89057480D01*
X144526000Y-88972813D01*
X144356667Y-88888147D01*
X144018000Y-88888147D01*
X143848667Y-88972813D01*
X143764000Y-89057480D01*
X143679334Y-89226813D01*
D14*
X149106467Y-85144035D02*
X149648334Y-85144035D01*
X149299991Y-85956835D01*
X136928981Y-85956835D02*
X136464524Y-85956835D01*
X136696753Y-85956835D02*
X136696753Y-85144035D01*
X136619343Y-85260150D01*
X136541934Y-85337559D01*
X136464524Y-85376264D01*
X137238619Y-85221445D02*
X137277324Y-85182740D01*
X137354733Y-85144035D01*
X137548257Y-85144035D01*
X137625667Y-85182740D01*
X137664371Y-85221445D01*
X137703076Y-85298854D01*
X137703076Y-85376264D01*
X137664371Y-85492378D01*
X137199914Y-85956835D01*
X137703076Y-85956835D01*
D13*
X141921653Y-54850453D02*
X141921653Y-56289787D01*
X142006320Y-56459120D01*
X142090987Y-56543787D01*
X142260320Y-56628453D01*
X142598987Y-56628453D01*
X142768320Y-56543787D01*
X142852987Y-56459120D01*
X142937653Y-56289787D01*
X142937653Y-54850453D01*
X144715654Y-56628453D02*
X143699654Y-56628453D01*
X144207654Y-56628453D02*
X144207654Y-54850453D01*
X144038320Y-55104453D01*
X143868987Y-55273787D01*
X143699654Y-55358453D01*
D14*
X149106467Y-51870035D02*
X149648334Y-51870035D01*
X149299991Y-52682835D01*
X136928981Y-52682835D02*
X136464524Y-52682835D01*
X136696753Y-52682835D02*
X136696753Y-51870035D01*
X136619343Y-51986150D01*
X136541934Y-52063559D01*
X136464524Y-52102264D01*
X137238619Y-51947445D02*
X137277324Y-51908740D01*
X137354733Y-51870035D01*
X137548257Y-51870035D01*
X137625667Y-51908740D01*
X137664371Y-51947445D01*
X137703076Y-52024854D01*
X137703076Y-52102264D01*
X137664371Y-52218378D01*
X137199914Y-52682835D01*
X137703076Y-52682835D01*
D13*
X141901333Y-71690653D02*
X141901333Y-73129987D01*
X141986000Y-73299320D01*
X142070667Y-73383987D01*
X142240000Y-73468653D01*
X142578667Y-73468653D01*
X142748000Y-73383987D01*
X142832667Y-73299320D01*
X142917333Y-73129987D01*
X142917333Y-71690653D01*
X143594667Y-71690653D02*
X144695334Y-71690653D01*
X144102667Y-72367987D01*
X144356667Y-72367987D01*
X144526000Y-72452653D01*
X144610667Y-72537320D01*
X144695334Y-72706653D01*
X144695334Y-73129987D01*
X144610667Y-73299320D01*
X144526000Y-73383987D01*
X144356667Y-73468653D01*
X143848667Y-73468653D01*
X143679334Y-73383987D01*
X143594667Y-73299320D01*
D14*
X149106467Y-68634035D02*
X149648334Y-68634035D01*
X149299991Y-69446835D01*
X136928981Y-69446835D02*
X136464524Y-69446835D01*
X136696753Y-69446835D02*
X136696753Y-68634035D01*
X136619343Y-68750150D01*
X136541934Y-68827559D01*
X136464524Y-68866264D01*
X137238619Y-68711445D02*
X137277324Y-68672740D01*
X137354733Y-68634035D01*
X137548257Y-68634035D01*
X137625667Y-68672740D01*
X137664371Y-68711445D01*
X137703076Y-68788854D01*
X137703076Y-68866264D01*
X137664371Y-68982378D01*
X137199914Y-69446835D01*
X137703076Y-69446835D01*
%LPC*%
D15*
X163000000Y-135000000D03*
X163000000Y-48000000D03*
X121000000Y-48000000D03*
X121000000Y-135000000D03*
D16*
X136906000Y-111012000D03*
D17*
X139446000Y-111012000D03*
X141986000Y-111012000D03*
X144526000Y-111012000D03*
X147066000Y-111012000D03*
X149606000Y-111012000D03*
X149606000Y-100852000D03*
X147066000Y-100852000D03*
X144526000Y-100852000D03*
X141986000Y-100852000D03*
X139446000Y-100852000D03*
X136906000Y-100852000D03*
D16*
X136906000Y-94248000D03*
D17*
X139446000Y-94248000D03*
X141986000Y-94248000D03*
X144526000Y-94248000D03*
X147066000Y-94248000D03*
X149606000Y-94248000D03*
X149606000Y-84088000D03*
X147066000Y-84088000D03*
X144526000Y-84088000D03*
X141986000Y-84088000D03*
X139446000Y-84088000D03*
X136906000Y-84088000D03*
D16*
X136906000Y-60974000D03*
D17*
X139446000Y-60974000D03*
X141986000Y-60974000D03*
X144526000Y-60974000D03*
X147066000Y-60974000D03*
X149606000Y-60974000D03*
X149606000Y-50814000D03*
X147066000Y-50814000D03*
X144526000Y-50814000D03*
X141986000Y-50814000D03*
X139446000Y-50814000D03*
X136906000Y-50814000D03*
D16*
X136906000Y-77738000D03*
D17*
X139446000Y-77738000D03*
X141986000Y-77738000D03*
X144526000Y-77738000D03*
X147066000Y-77738000D03*
X149606000Y-77738000D03*
X149606000Y-67578000D03*
X147066000Y-67578000D03*
X144526000Y-67578000D03*
X141986000Y-67578000D03*
X139446000Y-67578000D03*
X136906000Y-67578000D03*
M02*
