G04 #@! TF.FileFunction,Soldermask,Top*
%FSLAX46Y46*%
G04 Gerber Fmt 4.6, Leading zero omitted, Abs format (unit mm)*
G04 Created by KiCad (PCBNEW 4.0.2-stable) date 16-09-23 18:11:48*
%MOMM*%
G01*
G04 APERTURE LIST*
%ADD10C,0.100000*%
%ADD11C,4.464000*%
%ADD12R,2.051000X2.051000*%
%ADD13C,2.051000*%
G04 APERTURE END LIST*
D10*
D11*
X121000000Y-135000000D03*
X121000000Y-48000000D03*
X163000000Y-48000000D03*
X163000000Y-135000000D03*
D12*
X136906000Y-94248000D03*
D13*
X139446000Y-94248000D03*
X141986000Y-94248000D03*
X144526000Y-94248000D03*
X147066000Y-94248000D03*
X149606000Y-94248000D03*
X149606000Y-84088000D03*
X147066000Y-84088000D03*
X144526000Y-84088000D03*
X141986000Y-84088000D03*
X139446000Y-84088000D03*
X136906000Y-84088000D03*
D12*
X136906000Y-77738000D03*
D13*
X139446000Y-77738000D03*
X141986000Y-77738000D03*
X144526000Y-77738000D03*
X147066000Y-77738000D03*
X149606000Y-77738000D03*
X149606000Y-67578000D03*
X147066000Y-67578000D03*
X144526000Y-67578000D03*
X141986000Y-67578000D03*
X139446000Y-67578000D03*
X136906000Y-67578000D03*
D12*
X136906000Y-60974000D03*
D13*
X139446000Y-60974000D03*
X141986000Y-60974000D03*
X144526000Y-60974000D03*
X147066000Y-60974000D03*
X149606000Y-60974000D03*
X149606000Y-50814000D03*
X147066000Y-50814000D03*
X144526000Y-50814000D03*
X141986000Y-50814000D03*
X139446000Y-50814000D03*
X136906000Y-50814000D03*
D12*
X136906000Y-111012000D03*
D13*
X139446000Y-111012000D03*
X141986000Y-111012000D03*
X144526000Y-111012000D03*
X147066000Y-111012000D03*
X149606000Y-111012000D03*
X149606000Y-100852000D03*
X147066000Y-100852000D03*
X144526000Y-100852000D03*
X141986000Y-100852000D03*
X139446000Y-100852000D03*
X136906000Y-100852000D03*
M02*
