M48
INCH,TZ
T1C0.016
T2C0.020
T3C0.035
T4C0.120
%
G90
G05
T1
X48500Y-20706
X48500Y-21706
X48500Y-27306
X48500Y-28306
X48500Y-33806
X48500Y-34806
X48500Y-40406
X48500Y-41406
X48700Y-49806
X49100Y-50406
X49900Y-35206
X50000Y-28806
X50000Y-29306
X50000Y-30306
X50000Y-42506
X50000Y-43406
X50000Y-47006
X50100Y-36906
X50100Y-41906
X50300Y-35806
X51100Y-46806
X51200Y-21706
X51200Y-22406
X51900Y-35406
X52100Y-41806
X52300Y-26306
X52300Y-29106
X52300Y-32006
X52300Y-32806
X52400Y-38606
X52400Y-39406
X52400Y-46806
X53000Y-19006
X53700Y-46806
X54600Y-51606
X54800Y-46806
X55700Y-47706
X55700Y-48506
X56100Y-48806
X56400Y-49106
X56500Y-50006
X56700Y-49406
X57000Y-47706
X57500Y-50206
X57500Y-50606
X57500Y-51006
X58100Y-53106
X58100Y-53906
X58300Y-47706
X58800Y-49406
X59000Y-49106
X59400Y-49106
X59500Y-53406
X59600Y-47706
X59700Y-48806
X60100Y-42206
X60200Y-49306
X60200Y-52406
X61000Y-42206
X61000Y-49606
X61100Y-44406
X61200Y-46406
X61200Y-47406
X61200Y-51906
X61500Y-43406
X61800Y-44106
X61800Y-48906
X64200Y-44406
X64200Y-46406
X64200Y-47406
X64300Y-48406
X64300Y-49406
X64400Y-39506
X64400Y-40506
X64400Y-41506
T2
X46947Y-48507
X46947Y-51105
T3
X53900Y-20006
X53900Y-24006
X53900Y-26606
X53900Y-30606
X53900Y-33106
X53900Y-37106
X53900Y-39706
X53900Y-43706
X54900Y-20006
X54900Y-24006
X54900Y-26606
X54900Y-30606
X54900Y-33106
X54900Y-37106
X54900Y-39706
X54900Y-43706
X55900Y-20006
X55900Y-24006
X55900Y-26606
X55900Y-30606
X55900Y-33106
X55900Y-37106
X55900Y-39706
X55900Y-43706
X56900Y-20006
X56900Y-24006
X56900Y-26606
X56900Y-30606
X56900Y-33106
X56900Y-37106
X56900Y-39706
X56900Y-43706
X57900Y-20006
X57900Y-24006
X57900Y-26606
X57900Y-30606
X57900Y-33106
X57900Y-37106
X57900Y-39706
X57900Y-43706
X58900Y-20006
X58900Y-24006
X58900Y-26606
X58900Y-30606
X58900Y-33106
X58900Y-37106
X58900Y-39706
X58900Y-43706
T4
X47638Y-18898
X47638Y-53150
X64173Y-18898
X64173Y-53150
T0
M30
