G04 #@! TF.FileFunction,Legend,Bot*
%FSLAX46Y46*%
G04 Gerber Fmt 4.6, Leading zero omitted, Abs format (unit mm)*
G04 Created by KiCad (PCBNEW 4.0.2-stable) date 16-09-23 19:28:55*
%MOMM*%
G01*
G04 APERTURE LIST*
%ADD10C,0.100000*%
%ADD11C,0.066040*%
%ADD12C,0.127000*%
%ADD13C,0.101600*%
%ADD14C,0.150000*%
%ADD15C,0.076200*%
%ADD16C,0.050000*%
%ADD17C,0.400000*%
%ADD18O,1.898600X0.798780*%
%ADD19O,1.799540X1.997660*%
%ADD20O,2.432000X1.416000*%
%ADD21C,2.299920*%
%ADD22C,1.900000*%
%ADD23C,1.924000*%
%ADD24R,1.670000X2.178000*%
%ADD25C,1.035000*%
%ADD26C,4.464000*%
%ADD27R,1.797000X1.416000*%
%ADD28R,1.289000X1.289000*%
%ADD29R,2.432000X2.178000*%
%ADD30R,1.598880X1.098500*%
%ADD31R,0.900000X0.500000*%
%ADD32R,0.500000X0.900000*%
%ADD33R,3.900000X3.900000*%
%ADD34R,1.670000X1.670000*%
G04 APERTURE END LIST*
D10*
D11*
X120322340Y-128004600D02*
X120322340Y-125007400D01*
X120322340Y-125007400D02*
X120721120Y-125007400D01*
X120721120Y-128004600D02*
X120721120Y-125007400D01*
X120322340Y-128004600D02*
X120721120Y-128004600D01*
D12*
X116921280Y-130204240D02*
X121920000Y-130204240D01*
X121920000Y-130204240D02*
X121920000Y-122807760D01*
X121920000Y-122807760D02*
X116921280Y-122807760D01*
X116921280Y-130204240D02*
X116321840Y-130503960D01*
X116921280Y-122807760D02*
X116321840Y-122508040D01*
X116822220Y-130204240D02*
X116822220Y-122807760D01*
X116420900Y-129805460D02*
X116420900Y-123308140D01*
X116420900Y-129805460D02*
X116321840Y-130503960D01*
X116420900Y-123308140D02*
X116321840Y-122508040D01*
D11*
X124206000Y-130189000D02*
X128270000Y-130189000D01*
X128270000Y-130189000D02*
X128270000Y-131967000D01*
X124206000Y-131967000D02*
X128270000Y-131967000D01*
X124206000Y-130189000D02*
X124206000Y-131967000D01*
X153924000Y-135904000D02*
X151384000Y-135904000D01*
X151384000Y-135904000D02*
X151384000Y-134888000D01*
X153924000Y-134888000D02*
X151384000Y-134888000D01*
X153924000Y-135904000D02*
X153924000Y-134888000D01*
X143002000Y-133618000D02*
X143002000Y-132348000D01*
X143002000Y-132348000D02*
X145034000Y-132348000D01*
X145034000Y-133618000D02*
X145034000Y-132348000D01*
X143002000Y-133618000D02*
X145034000Y-133618000D01*
X143002000Y-129808000D02*
X143002000Y-128538000D01*
X143002000Y-128538000D02*
X145034000Y-128538000D01*
X145034000Y-129808000D02*
X145034000Y-128538000D01*
X143002000Y-129808000D02*
X145034000Y-129808000D01*
X142367000Y-133618000D02*
X142367000Y-128538000D01*
X142367000Y-128538000D02*
X145669000Y-128538000D01*
X145669000Y-133618000D02*
X145669000Y-128538000D01*
X142367000Y-133618000D02*
X145669000Y-133618000D01*
X139954000Y-128538000D02*
X139954000Y-131078000D01*
X139954000Y-131078000D02*
X138938000Y-131078000D01*
X138938000Y-128538000D02*
X138938000Y-131078000D01*
X139954000Y-128538000D02*
X138938000Y-128538000D01*
X139954000Y-131078000D02*
X139954000Y-133618000D01*
X139954000Y-133618000D02*
X138938000Y-133618000D01*
X138938000Y-131078000D02*
X138938000Y-133618000D01*
X139954000Y-131078000D02*
X138938000Y-131078000D01*
X133616700Y-99582000D02*
X133616700Y-112282000D01*
X133616700Y-112282000D02*
X125971300Y-112282000D01*
X125971300Y-99582000D02*
X125971300Y-112282000D01*
X133616700Y-99582000D02*
X125971300Y-99582000D01*
X133616700Y-82818000D02*
X133616700Y-95518000D01*
X133616700Y-95518000D02*
X125971300Y-95518000D01*
X125971300Y-82818000D02*
X125971300Y-95518000D01*
X133616700Y-82818000D02*
X125971300Y-82818000D01*
X133616700Y-66308000D02*
X133616700Y-79008000D01*
X133616700Y-79008000D02*
X125971300Y-79008000D01*
X125971300Y-66308000D02*
X125971300Y-79008000D01*
X133616700Y-66308000D02*
X125971300Y-66308000D01*
X133616700Y-49544000D02*
X133616700Y-62244000D01*
X133616700Y-62244000D02*
X125971300Y-62244000D01*
X125971300Y-49544000D02*
X125971300Y-62244000D01*
X133616700Y-49544000D02*
X125971300Y-49544000D01*
D12*
X128270000Y-82183000D02*
X158242000Y-82183000D01*
X158242000Y-82183000D02*
X158242000Y-96153000D01*
X158242000Y-96153000D02*
X128270000Y-96153000D01*
X128270000Y-96153000D02*
X128270000Y-82183000D01*
X128270000Y-65673000D02*
X158242000Y-65673000D01*
X158242000Y-65673000D02*
X158242000Y-79643000D01*
X158242000Y-79643000D02*
X128270000Y-79643000D01*
X128270000Y-79643000D02*
X128270000Y-65673000D01*
X128270000Y-48909000D02*
X158242000Y-48909000D01*
X158242000Y-48909000D02*
X158242000Y-62879000D01*
X158242000Y-62879000D02*
X128270000Y-62879000D01*
X128270000Y-62879000D02*
X128270000Y-48909000D01*
X149284000Y-131546000D02*
X148884000Y-131546000D01*
X148884000Y-131546000D02*
X148884000Y-131146000D01*
X153484000Y-131546000D02*
X153884000Y-131546000D01*
X153884000Y-131546000D02*
X153884000Y-131146000D01*
X148884000Y-126946000D02*
X148884000Y-126546000D01*
X148884000Y-126546000D02*
X149284000Y-126546000D01*
X153484000Y-126546000D02*
X153884000Y-126546000D01*
X153884000Y-126546000D02*
X153884000Y-126946000D01*
D10*
X148761000Y-131296000D02*
G75*
G03X148761000Y-131296000I-127000J0D01*
G01*
D11*
X126365000Y-121045000D02*
X122047000Y-121045000D01*
X122047000Y-121045000D02*
X122047000Y-119267000D01*
X126365000Y-119267000D02*
X122047000Y-119267000D01*
X126365000Y-121045000D02*
X126365000Y-119267000D01*
D12*
X128270000Y-98947000D02*
X158242000Y-98947000D01*
X158242000Y-98947000D02*
X158242000Y-112917000D01*
X158242000Y-112917000D02*
X128270000Y-112917000D01*
X128270000Y-112917000D02*
X128270000Y-98947000D01*
D13*
X122957167Y-122674834D02*
X123676833Y-122674834D01*
X123761500Y-122717167D01*
X123803833Y-122759500D01*
X123846167Y-122844167D01*
X123846167Y-123013500D01*
X123803833Y-123098167D01*
X123761500Y-123140500D01*
X123676833Y-123182834D01*
X122957167Y-123182834D01*
X123803833Y-123563833D02*
X123846167Y-123690833D01*
X123846167Y-123902500D01*
X123803833Y-123987167D01*
X123761500Y-124029500D01*
X123676833Y-124071833D01*
X123592167Y-124071833D01*
X123507500Y-124029500D01*
X123465167Y-123987167D01*
X123422833Y-123902500D01*
X123380500Y-123733167D01*
X123338167Y-123648500D01*
X123295833Y-123606167D01*
X123211167Y-123563833D01*
X123126500Y-123563833D01*
X123041833Y-123606167D01*
X122999500Y-123648500D01*
X122957167Y-123733167D01*
X122957167Y-123944833D01*
X122999500Y-124071833D01*
X123380500Y-124749167D02*
X123422833Y-124876167D01*
X123465167Y-124918500D01*
X123549833Y-124960834D01*
X123676833Y-124960834D01*
X123761500Y-124918500D01*
X123803833Y-124876167D01*
X123846167Y-124791500D01*
X123846167Y-124452834D01*
X122957167Y-124452834D01*
X122957167Y-124749167D01*
X122999500Y-124833834D01*
X123041833Y-124876167D01*
X123126500Y-124918500D01*
X123211167Y-124918500D01*
X123295833Y-124876167D01*
X123338167Y-124833834D01*
X123380500Y-124749167D01*
X123380500Y-124452834D01*
X123846167Y-125807500D02*
X123846167Y-125299500D01*
X123846167Y-125553500D02*
X122957167Y-125553500D01*
X123084167Y-125468834D01*
X123168833Y-125384167D01*
X123211167Y-125299500D01*
D14*
X163321904Y-124990000D02*
X163417142Y-124942381D01*
X163559999Y-124942381D01*
X163702857Y-124990000D01*
X163798095Y-125085238D01*
X163845714Y-125180476D01*
X163893333Y-125370952D01*
X163893333Y-125513810D01*
X163845714Y-125704286D01*
X163798095Y-125799524D01*
X163702857Y-125894762D01*
X163559999Y-125942381D01*
X163464761Y-125942381D01*
X163321904Y-125894762D01*
X163274285Y-125847143D01*
X163274285Y-125513810D01*
X163464761Y-125513810D01*
X162845714Y-125942381D02*
X162845714Y-124942381D01*
X162274285Y-125942381D01*
X162274285Y-124942381D01*
X161798095Y-125942381D02*
X161798095Y-124942381D01*
X161560000Y-124942381D01*
X161417142Y-124990000D01*
X161321904Y-125085238D01*
X161274285Y-125180476D01*
X161226666Y-125370952D01*
X161226666Y-125513810D01*
X161274285Y-125704286D01*
X161321904Y-125799524D01*
X161417142Y-125894762D01*
X161560000Y-125942381D01*
X161798095Y-125942381D01*
X163845714Y-123354762D02*
X163702857Y-123402381D01*
X163464761Y-123402381D01*
X163369523Y-123354762D01*
X163321904Y-123307143D01*
X163274285Y-123211905D01*
X163274285Y-123116667D01*
X163321904Y-123021429D01*
X163369523Y-122973810D01*
X163464761Y-122926190D01*
X163655238Y-122878571D01*
X163750476Y-122830952D01*
X163798095Y-122783333D01*
X163845714Y-122688095D01*
X163845714Y-122592857D01*
X163798095Y-122497619D01*
X163750476Y-122450000D01*
X163655238Y-122402381D01*
X163417142Y-122402381D01*
X163274285Y-122450000D01*
X162274285Y-123307143D02*
X162321904Y-123354762D01*
X162464761Y-123402381D01*
X162559999Y-123402381D01*
X162702857Y-123354762D01*
X162798095Y-123259524D01*
X162845714Y-123164286D01*
X162893333Y-122973810D01*
X162893333Y-122830952D01*
X162845714Y-122640476D01*
X162798095Y-122545238D01*
X162702857Y-122450000D01*
X162559999Y-122402381D01*
X162464761Y-122402381D01*
X162321904Y-122450000D01*
X162274285Y-122497619D01*
X161845714Y-123402381D02*
X161845714Y-122402381D01*
X161274285Y-123402381D02*
X161702857Y-122830952D01*
X161274285Y-122402381D02*
X161845714Y-122973810D01*
X163877428Y-120862381D02*
X163877428Y-119862381D01*
X163544094Y-120576667D01*
X163210761Y-119862381D01*
X163210761Y-120862381D01*
X162734571Y-120862381D02*
X162734571Y-119862381D01*
X162306000Y-120814762D02*
X162163143Y-120862381D01*
X161925047Y-120862381D01*
X161829809Y-120814762D01*
X161782190Y-120767143D01*
X161734571Y-120671905D01*
X161734571Y-120576667D01*
X161782190Y-120481429D01*
X161829809Y-120433810D01*
X161925047Y-120386190D01*
X162115524Y-120338571D01*
X162210762Y-120290952D01*
X162258381Y-120243333D01*
X162306000Y-120148095D01*
X162306000Y-120052857D01*
X162258381Y-119957619D01*
X162210762Y-119910000D01*
X162115524Y-119862381D01*
X161877428Y-119862381D01*
X161734571Y-119910000D01*
X161115524Y-119862381D02*
X160925047Y-119862381D01*
X160829809Y-119910000D01*
X160734571Y-120005238D01*
X160686952Y-120195714D01*
X160686952Y-120529048D01*
X160734571Y-120719524D01*
X160829809Y-120814762D01*
X160925047Y-120862381D01*
X161115524Y-120862381D01*
X161210762Y-120814762D01*
X161306000Y-120719524D01*
X161353619Y-120529048D01*
X161353619Y-120195714D01*
X161306000Y-120005238D01*
X161210762Y-119910000D01*
X161115524Y-119862381D01*
X163877428Y-118322381D02*
X163877428Y-117322381D01*
X163544094Y-118036667D01*
X163210761Y-117322381D01*
X163210761Y-118322381D01*
X162544095Y-117322381D02*
X162353618Y-117322381D01*
X162258380Y-117370000D01*
X162163142Y-117465238D01*
X162115523Y-117655714D01*
X162115523Y-117989048D01*
X162163142Y-118179524D01*
X162258380Y-118274762D01*
X162353618Y-118322381D01*
X162544095Y-118322381D01*
X162639333Y-118274762D01*
X162734571Y-118179524D01*
X162782190Y-117989048D01*
X162782190Y-117655714D01*
X162734571Y-117465238D01*
X162639333Y-117370000D01*
X162544095Y-117322381D01*
X161734571Y-118274762D02*
X161591714Y-118322381D01*
X161353618Y-118322381D01*
X161258380Y-118274762D01*
X161210761Y-118227143D01*
X161163142Y-118131905D01*
X161163142Y-118036667D01*
X161210761Y-117941429D01*
X161258380Y-117893810D01*
X161353618Y-117846190D01*
X161544095Y-117798571D01*
X161639333Y-117750952D01*
X161686952Y-117703333D01*
X161734571Y-117608095D01*
X161734571Y-117512857D01*
X161686952Y-117417619D01*
X161639333Y-117370000D01*
X161544095Y-117322381D01*
X161305999Y-117322381D01*
X161163142Y-117370000D01*
X160734571Y-118322381D02*
X160734571Y-117322381D01*
X163377381Y-115782381D02*
X163710715Y-115306190D01*
X163948810Y-115782381D02*
X163948810Y-114782381D01*
X163567857Y-114782381D01*
X163472619Y-114830000D01*
X163425000Y-114877619D01*
X163377381Y-114972857D01*
X163377381Y-115115714D01*
X163425000Y-115210952D01*
X163472619Y-115258571D01*
X163567857Y-115306190D01*
X163948810Y-115306190D01*
X162948810Y-115258571D02*
X162615476Y-115258571D01*
X162472619Y-115782381D02*
X162948810Y-115782381D01*
X162948810Y-114782381D01*
X162472619Y-114782381D01*
X162091667Y-115734762D02*
X161948810Y-115782381D01*
X161710714Y-115782381D01*
X161615476Y-115734762D01*
X161567857Y-115687143D01*
X161520238Y-115591905D01*
X161520238Y-115496667D01*
X161567857Y-115401429D01*
X161615476Y-115353810D01*
X161710714Y-115306190D01*
X161901191Y-115258571D01*
X161996429Y-115210952D01*
X162044048Y-115163333D01*
X162091667Y-115068095D01*
X162091667Y-114972857D01*
X162044048Y-114877619D01*
X161996429Y-114830000D01*
X161901191Y-114782381D01*
X161663095Y-114782381D01*
X161520238Y-114830000D01*
X161091667Y-115258571D02*
X160758333Y-115258571D01*
X160615476Y-115782381D02*
X161091667Y-115782381D01*
X161091667Y-114782381D01*
X160615476Y-114782381D01*
X160329762Y-114782381D02*
X159758333Y-114782381D01*
X160044048Y-115782381D02*
X160044048Y-114782381D01*
X163893333Y-112242381D02*
X163560000Y-113242381D01*
X163226666Y-112242381D01*
X162321904Y-113147143D02*
X162369523Y-113194762D01*
X162512380Y-113242381D01*
X162607618Y-113242381D01*
X162750476Y-113194762D01*
X162845714Y-113099524D01*
X162893333Y-113004286D01*
X162940952Y-112813810D01*
X162940952Y-112670952D01*
X162893333Y-112480476D01*
X162845714Y-112385238D01*
X162750476Y-112290000D01*
X162607618Y-112242381D01*
X162512380Y-112242381D01*
X162369523Y-112290000D01*
X162321904Y-112337619D01*
X161321904Y-113147143D02*
X161369523Y-113194762D01*
X161512380Y-113242381D01*
X161607618Y-113242381D01*
X161750476Y-113194762D01*
X161845714Y-113099524D01*
X161893333Y-113004286D01*
X161940952Y-112813810D01*
X161940952Y-112670952D01*
X161893333Y-112480476D01*
X161845714Y-112385238D01*
X161750476Y-112290000D01*
X161607618Y-112242381D01*
X161512380Y-112242381D01*
X161369523Y-112290000D01*
X161321904Y-112337619D01*
X166314286Y-104352381D02*
X166314286Y-103352381D01*
X165933333Y-103352381D01*
X165838095Y-103400000D01*
X165790476Y-103447619D01*
X165742857Y-103542857D01*
X165742857Y-103685714D01*
X165790476Y-103780952D01*
X165838095Y-103828571D01*
X165933333Y-103876190D01*
X166314286Y-103876190D01*
X164790476Y-104352381D02*
X165361905Y-104352381D01*
X165076191Y-104352381D02*
X165076191Y-103352381D01*
X165171429Y-103495238D01*
X165266667Y-103590476D01*
X165361905Y-103638095D01*
X164171429Y-103352381D02*
X164076190Y-103352381D01*
X163980952Y-103400000D01*
X163933333Y-103447619D01*
X163885714Y-103542857D01*
X163838095Y-103733333D01*
X163838095Y-103971429D01*
X163885714Y-104161905D01*
X163933333Y-104257143D01*
X163980952Y-104304762D01*
X164076190Y-104352381D01*
X164171429Y-104352381D01*
X164266667Y-104304762D01*
X164314286Y-104257143D01*
X164361905Y-104161905D01*
X164409524Y-103971429D01*
X164409524Y-103733333D01*
X164361905Y-103542857D01*
X164314286Y-103447619D01*
X164266667Y-103400000D01*
X164171429Y-103352381D01*
X165838095Y-106892381D02*
X165838095Y-105892381D01*
X165457142Y-105892381D01*
X165361904Y-105940000D01*
X165314285Y-105987619D01*
X165266666Y-106082857D01*
X165266666Y-106225714D01*
X165314285Y-106320952D01*
X165361904Y-106368571D01*
X165457142Y-106416190D01*
X165838095Y-106416190D01*
X164790476Y-106892381D02*
X164600000Y-106892381D01*
X164504761Y-106844762D01*
X164457142Y-106797143D01*
X164361904Y-106654286D01*
X164314285Y-106463810D01*
X164314285Y-106082857D01*
X164361904Y-105987619D01*
X164409523Y-105940000D01*
X164504761Y-105892381D01*
X164695238Y-105892381D01*
X164790476Y-105940000D01*
X164838095Y-105987619D01*
X164885714Y-106082857D01*
X164885714Y-106320952D01*
X164838095Y-106416190D01*
X164790476Y-106463810D01*
X164695238Y-106511429D01*
X164504761Y-106511429D01*
X164409523Y-106463810D01*
X164361904Y-106416190D01*
X164314285Y-106320952D01*
X165838095Y-101812381D02*
X165838095Y-100812381D01*
X165457142Y-100812381D01*
X165361904Y-100860000D01*
X165314285Y-100907619D01*
X165266666Y-101002857D01*
X165266666Y-101145714D01*
X165314285Y-101240952D01*
X165361904Y-101288571D01*
X165457142Y-101336190D01*
X165838095Y-101336190D01*
X164695238Y-101240952D02*
X164790476Y-101193333D01*
X164838095Y-101145714D01*
X164885714Y-101050476D01*
X164885714Y-101002857D01*
X164838095Y-100907619D01*
X164790476Y-100860000D01*
X164695238Y-100812381D01*
X164504761Y-100812381D01*
X164409523Y-100860000D01*
X164361904Y-100907619D01*
X164314285Y-101002857D01*
X164314285Y-101050476D01*
X164361904Y-101145714D01*
X164409523Y-101193333D01*
X164504761Y-101240952D01*
X164695238Y-101240952D01*
X164790476Y-101288571D01*
X164838095Y-101336190D01*
X164885714Y-101431429D01*
X164885714Y-101621905D01*
X164838095Y-101717143D01*
X164790476Y-101764762D01*
X164695238Y-101812381D01*
X164504761Y-101812381D01*
X164409523Y-101764762D01*
X164361904Y-101717143D01*
X164314285Y-101621905D01*
X164314285Y-101431429D01*
X164361904Y-101336190D01*
X164409523Y-101288571D01*
X164504761Y-101240952D01*
X165838095Y-99272381D02*
X165838095Y-98272381D01*
X165457142Y-98272381D01*
X165361904Y-98320000D01*
X165314285Y-98367619D01*
X165266666Y-98462857D01*
X165266666Y-98605714D01*
X165314285Y-98700952D01*
X165361904Y-98748571D01*
X165457142Y-98796190D01*
X165838095Y-98796190D01*
X164933333Y-98272381D02*
X164266666Y-98272381D01*
X164695238Y-99272381D01*
X165838095Y-96732381D02*
X165838095Y-95732381D01*
X165457142Y-95732381D01*
X165361904Y-95780000D01*
X165314285Y-95827619D01*
X165266666Y-95922857D01*
X165266666Y-96065714D01*
X165314285Y-96160952D01*
X165361904Y-96208571D01*
X165457142Y-96256190D01*
X165838095Y-96256190D01*
X164409523Y-95732381D02*
X164600000Y-95732381D01*
X164695238Y-95780000D01*
X164742857Y-95827619D01*
X164838095Y-95970476D01*
X164885714Y-96160952D01*
X164885714Y-96541905D01*
X164838095Y-96637143D01*
X164790476Y-96684762D01*
X164695238Y-96732381D01*
X164504761Y-96732381D01*
X164409523Y-96684762D01*
X164361904Y-96637143D01*
X164314285Y-96541905D01*
X164314285Y-96303810D01*
X164361904Y-96208571D01*
X164409523Y-96160952D01*
X164504761Y-96113333D01*
X164695238Y-96113333D01*
X164790476Y-96160952D01*
X164838095Y-96208571D01*
X164885714Y-96303810D01*
X165838095Y-94192381D02*
X165838095Y-93192381D01*
X165457142Y-93192381D01*
X165361904Y-93240000D01*
X165314285Y-93287619D01*
X165266666Y-93382857D01*
X165266666Y-93525714D01*
X165314285Y-93620952D01*
X165361904Y-93668571D01*
X165457142Y-93716190D01*
X165838095Y-93716190D01*
X164361904Y-93192381D02*
X164838095Y-93192381D01*
X164885714Y-93668571D01*
X164838095Y-93620952D01*
X164742857Y-93573333D01*
X164504761Y-93573333D01*
X164409523Y-93620952D01*
X164361904Y-93668571D01*
X164314285Y-93763810D01*
X164314285Y-94001905D01*
X164361904Y-94097143D01*
X164409523Y-94144762D01*
X164504761Y-94192381D01*
X164742857Y-94192381D01*
X164838095Y-94144762D01*
X164885714Y-94097143D01*
X165838095Y-91652381D02*
X165838095Y-90652381D01*
X165457142Y-90652381D01*
X165361904Y-90700000D01*
X165314285Y-90747619D01*
X165266666Y-90842857D01*
X165266666Y-90985714D01*
X165314285Y-91080952D01*
X165361904Y-91128571D01*
X165457142Y-91176190D01*
X165838095Y-91176190D01*
X164409523Y-90985714D02*
X164409523Y-91652381D01*
X164647619Y-90604762D02*
X164885714Y-91319048D01*
X164266666Y-91319048D01*
X165838095Y-89112381D02*
X165838095Y-88112381D01*
X165457142Y-88112381D01*
X165361904Y-88160000D01*
X165314285Y-88207619D01*
X165266666Y-88302857D01*
X165266666Y-88445714D01*
X165314285Y-88540952D01*
X165361904Y-88588571D01*
X165457142Y-88636190D01*
X165838095Y-88636190D01*
X164933333Y-88112381D02*
X164314285Y-88112381D01*
X164647619Y-88493333D01*
X164504761Y-88493333D01*
X164409523Y-88540952D01*
X164361904Y-88588571D01*
X164314285Y-88683810D01*
X164314285Y-88921905D01*
X164361904Y-89017143D01*
X164409523Y-89064762D01*
X164504761Y-89112381D01*
X164790476Y-89112381D01*
X164885714Y-89064762D01*
X164933333Y-89017143D01*
X165838095Y-86572381D02*
X165838095Y-85572381D01*
X165457142Y-85572381D01*
X165361904Y-85620000D01*
X165314285Y-85667619D01*
X165266666Y-85762857D01*
X165266666Y-85905714D01*
X165314285Y-86000952D01*
X165361904Y-86048571D01*
X165457142Y-86096190D01*
X165838095Y-86096190D01*
X164885714Y-85667619D02*
X164838095Y-85620000D01*
X164742857Y-85572381D01*
X164504761Y-85572381D01*
X164409523Y-85620000D01*
X164361904Y-85667619D01*
X164314285Y-85762857D01*
X164314285Y-85858095D01*
X164361904Y-86000952D01*
X164933333Y-86572381D01*
X164314285Y-86572381D01*
X165838095Y-84032381D02*
X165838095Y-83032381D01*
X165457142Y-83032381D01*
X165361904Y-83080000D01*
X165314285Y-83127619D01*
X165266666Y-83222857D01*
X165266666Y-83365714D01*
X165314285Y-83460952D01*
X165361904Y-83508571D01*
X165457142Y-83556190D01*
X165838095Y-83556190D01*
X164314285Y-84032381D02*
X164885714Y-84032381D01*
X164600000Y-84032381D02*
X164600000Y-83032381D01*
X164695238Y-83175238D01*
X164790476Y-83270476D01*
X164885714Y-83318095D01*
D13*
X126851833Y-132729000D02*
X127148166Y-132729000D01*
X127148166Y-133194667D02*
X127148166Y-132305667D01*
X126724833Y-132305667D01*
X125920500Y-133194667D02*
X126428500Y-133194667D01*
X126174500Y-133194667D02*
X126174500Y-132305667D01*
X126259166Y-132432667D01*
X126343833Y-132517333D01*
X126428500Y-132559667D01*
X128778000Y-130273667D02*
X129074334Y-129850333D01*
X129286000Y-130273667D02*
X129286000Y-129384667D01*
X128947334Y-129384667D01*
X128862667Y-129427000D01*
X128820334Y-129469333D01*
X128778000Y-129554000D01*
X128778000Y-129681000D01*
X128820334Y-129765667D01*
X128862667Y-129808000D01*
X128947334Y-129850333D01*
X129286000Y-129850333D01*
X127931334Y-130273667D02*
X128439334Y-130273667D01*
X128185334Y-130273667D02*
X128185334Y-129384667D01*
X128270000Y-129511667D01*
X128354667Y-129596333D01*
X128439334Y-129638667D01*
X127084667Y-130273667D02*
X127592667Y-130273667D01*
X127338667Y-130273667D02*
X127338667Y-129384667D01*
X127423333Y-129511667D01*
X127508000Y-129596333D01*
X127592667Y-129638667D01*
X128354666Y-127987667D02*
X128651000Y-127564333D01*
X128862666Y-127987667D02*
X128862666Y-127098667D01*
X128524000Y-127098667D01*
X128439333Y-127141000D01*
X128397000Y-127183333D01*
X128354666Y-127268000D01*
X128354666Y-127395000D01*
X128397000Y-127479667D01*
X128439333Y-127522000D01*
X128524000Y-127564333D01*
X128862666Y-127564333D01*
X127931333Y-127987667D02*
X127762000Y-127987667D01*
X127677333Y-127945333D01*
X127635000Y-127903000D01*
X127550333Y-127776000D01*
X127508000Y-127606667D01*
X127508000Y-127268000D01*
X127550333Y-127183333D01*
X127592666Y-127141000D01*
X127677333Y-127098667D01*
X127846666Y-127098667D01*
X127931333Y-127141000D01*
X127973666Y-127183333D01*
X128016000Y-127268000D01*
X128016000Y-127479667D01*
X127973666Y-127564333D01*
X127931333Y-127606667D01*
X127846666Y-127649000D01*
X127677333Y-127649000D01*
X127592666Y-127606667D01*
X127550333Y-127564333D01*
X127508000Y-127479667D01*
X131656667Y-120706334D02*
X131233333Y-120410000D01*
X131656667Y-120198334D02*
X130767667Y-120198334D01*
X130767667Y-120537000D01*
X130810000Y-120621667D01*
X130852333Y-120664000D01*
X130937000Y-120706334D01*
X131064000Y-120706334D01*
X131148667Y-120664000D01*
X131191000Y-120621667D01*
X131233333Y-120537000D01*
X131233333Y-120198334D01*
X130767667Y-121510667D02*
X130767667Y-121087334D01*
X131191000Y-121045000D01*
X131148667Y-121087334D01*
X131106333Y-121172000D01*
X131106333Y-121383667D01*
X131148667Y-121468334D01*
X131191000Y-121510667D01*
X131275667Y-121553000D01*
X131487333Y-121553000D01*
X131572000Y-121510667D01*
X131614333Y-121468334D01*
X131656667Y-121383667D01*
X131656667Y-121172000D01*
X131614333Y-121087334D01*
X131572000Y-121045000D01*
X134958667Y-120706334D02*
X134535333Y-120410000D01*
X134958667Y-120198334D02*
X134069667Y-120198334D01*
X134069667Y-120537000D01*
X134112000Y-120621667D01*
X134154333Y-120664000D01*
X134239000Y-120706334D01*
X134366000Y-120706334D01*
X134450667Y-120664000D01*
X134493000Y-120621667D01*
X134535333Y-120537000D01*
X134535333Y-120198334D01*
X134069667Y-121468334D02*
X134069667Y-121299000D01*
X134112000Y-121214334D01*
X134154333Y-121172000D01*
X134281333Y-121087334D01*
X134450667Y-121045000D01*
X134789333Y-121045000D01*
X134874000Y-121087334D01*
X134916333Y-121129667D01*
X134958667Y-121214334D01*
X134958667Y-121383667D01*
X134916333Y-121468334D01*
X134874000Y-121510667D01*
X134789333Y-121553000D01*
X134577667Y-121553000D01*
X134493000Y-121510667D01*
X134450667Y-121468334D01*
X134408333Y-121383667D01*
X134408333Y-121214334D01*
X134450667Y-121129667D01*
X134493000Y-121087334D01*
X134577667Y-121045000D01*
X138260667Y-120706334D02*
X137837333Y-120410000D01*
X138260667Y-120198334D02*
X137371667Y-120198334D01*
X137371667Y-120537000D01*
X137414000Y-120621667D01*
X137456333Y-120664000D01*
X137541000Y-120706334D01*
X137668000Y-120706334D01*
X137752667Y-120664000D01*
X137795000Y-120621667D01*
X137837333Y-120537000D01*
X137837333Y-120198334D01*
X137371667Y-121002667D02*
X137371667Y-121595334D01*
X138260667Y-121214334D01*
X141562667Y-120706334D02*
X141139333Y-120410000D01*
X141562667Y-120198334D02*
X140673667Y-120198334D01*
X140673667Y-120537000D01*
X140716000Y-120621667D01*
X140758333Y-120664000D01*
X140843000Y-120706334D01*
X140970000Y-120706334D01*
X141054667Y-120664000D01*
X141097000Y-120621667D01*
X141139333Y-120537000D01*
X141139333Y-120198334D01*
X141054667Y-121214334D02*
X141012333Y-121129667D01*
X140970000Y-121087334D01*
X140885333Y-121045000D01*
X140843000Y-121045000D01*
X140758333Y-121087334D01*
X140716000Y-121129667D01*
X140673667Y-121214334D01*
X140673667Y-121383667D01*
X140716000Y-121468334D01*
X140758333Y-121510667D01*
X140843000Y-121553000D01*
X140885333Y-121553000D01*
X140970000Y-121510667D01*
X141012333Y-121468334D01*
X141054667Y-121383667D01*
X141054667Y-121214334D01*
X141097000Y-121129667D01*
X141139333Y-121087334D01*
X141224000Y-121045000D01*
X141393333Y-121045000D01*
X141478000Y-121087334D01*
X141520333Y-121129667D01*
X141562667Y-121214334D01*
X141562667Y-121383667D01*
X141520333Y-121468334D01*
X141478000Y-121510667D01*
X141393333Y-121553000D01*
X141224000Y-121553000D01*
X141139333Y-121510667D01*
X141097000Y-121468334D01*
X141054667Y-121383667D01*
X144864667Y-120706334D02*
X144441333Y-120410000D01*
X144864667Y-120198334D02*
X143975667Y-120198334D01*
X143975667Y-120537000D01*
X144018000Y-120621667D01*
X144060333Y-120664000D01*
X144145000Y-120706334D01*
X144272000Y-120706334D01*
X144356667Y-120664000D01*
X144399000Y-120621667D01*
X144441333Y-120537000D01*
X144441333Y-120198334D01*
X144864667Y-121553000D02*
X144864667Y-121045000D01*
X144864667Y-121299000D02*
X143975667Y-121299000D01*
X144102667Y-121214334D01*
X144187333Y-121129667D01*
X144229667Y-121045000D01*
X148166667Y-120706334D02*
X147743333Y-120410000D01*
X148166667Y-120198334D02*
X147277667Y-120198334D01*
X147277667Y-120537000D01*
X147320000Y-120621667D01*
X147362333Y-120664000D01*
X147447000Y-120706334D01*
X147574000Y-120706334D01*
X147658667Y-120664000D01*
X147701000Y-120621667D01*
X147743333Y-120537000D01*
X147743333Y-120198334D01*
X147362333Y-121045000D02*
X147320000Y-121087334D01*
X147277667Y-121172000D01*
X147277667Y-121383667D01*
X147320000Y-121468334D01*
X147362333Y-121510667D01*
X147447000Y-121553000D01*
X147531667Y-121553000D01*
X147658667Y-121510667D01*
X148166667Y-121002667D01*
X148166667Y-121553000D01*
X151468667Y-120706334D02*
X151045333Y-120410000D01*
X151468667Y-120198334D02*
X150579667Y-120198334D01*
X150579667Y-120537000D01*
X150622000Y-120621667D01*
X150664333Y-120664000D01*
X150749000Y-120706334D01*
X150876000Y-120706334D01*
X150960667Y-120664000D01*
X151003000Y-120621667D01*
X151045333Y-120537000D01*
X151045333Y-120198334D01*
X150579667Y-121002667D02*
X150579667Y-121553000D01*
X150918333Y-121256667D01*
X150918333Y-121383667D01*
X150960667Y-121468334D01*
X151003000Y-121510667D01*
X151087667Y-121553000D01*
X151299333Y-121553000D01*
X151384000Y-121510667D01*
X151426333Y-121468334D01*
X151468667Y-121383667D01*
X151468667Y-121129667D01*
X151426333Y-121045000D01*
X151384000Y-121002667D01*
X154770667Y-120706334D02*
X154347333Y-120410000D01*
X154770667Y-120198334D02*
X153881667Y-120198334D01*
X153881667Y-120537000D01*
X153924000Y-120621667D01*
X153966333Y-120664000D01*
X154051000Y-120706334D01*
X154178000Y-120706334D01*
X154262667Y-120664000D01*
X154305000Y-120621667D01*
X154347333Y-120537000D01*
X154347333Y-120198334D01*
X154178000Y-121468334D02*
X154770667Y-121468334D01*
X153839333Y-121256667D02*
X154474333Y-121045000D01*
X154474333Y-121595334D01*
X158834667Y-131713000D02*
X158411333Y-131416666D01*
X158834667Y-131205000D02*
X157945667Y-131205000D01*
X157945667Y-131543666D01*
X157988000Y-131628333D01*
X158030333Y-131670666D01*
X158115000Y-131713000D01*
X158242000Y-131713000D01*
X158326667Y-131670666D01*
X158369000Y-131628333D01*
X158411333Y-131543666D01*
X158411333Y-131205000D01*
X158834667Y-132559666D02*
X158834667Y-132051666D01*
X158834667Y-132305666D02*
X157945667Y-132305666D01*
X158072667Y-132221000D01*
X158157333Y-132136333D01*
X158199667Y-132051666D01*
X157945667Y-133110000D02*
X157945667Y-133194667D01*
X157988000Y-133279333D01*
X158030333Y-133321667D01*
X158115000Y-133364000D01*
X158284333Y-133406333D01*
X158496000Y-133406333D01*
X158665333Y-133364000D01*
X158750000Y-133321667D01*
X158792333Y-133279333D01*
X158834667Y-133194667D01*
X158834667Y-133110000D01*
X158792333Y-133025333D01*
X158750000Y-132983000D01*
X158665333Y-132940667D01*
X158496000Y-132898333D01*
X158284333Y-132898333D01*
X158115000Y-132940667D01*
X158030333Y-132983000D01*
X157988000Y-133025333D01*
X157945667Y-133110000D01*
X151638000Y-136200334D02*
X151680333Y-136158000D01*
X151722667Y-136031000D01*
X151722667Y-135946334D01*
X151680333Y-135819334D01*
X151595667Y-135734667D01*
X151511000Y-135692334D01*
X151341667Y-135650000D01*
X151214667Y-135650000D01*
X151045333Y-135692334D01*
X150960667Y-135734667D01*
X150876000Y-135819334D01*
X150833667Y-135946334D01*
X150833667Y-136031000D01*
X150876000Y-136158000D01*
X150918333Y-136200334D01*
X150918333Y-136539000D02*
X150876000Y-136581334D01*
X150833667Y-136666000D01*
X150833667Y-136877667D01*
X150876000Y-136962334D01*
X150918333Y-137004667D01*
X151003000Y-137047000D01*
X151087667Y-137047000D01*
X151214667Y-137004667D01*
X151722667Y-136496667D01*
X151722667Y-137047000D01*
X146346333Y-131607167D02*
X146769667Y-131607167D01*
X145880667Y-131310834D02*
X146346333Y-131607167D01*
X145880667Y-131903500D01*
X146769667Y-132665500D02*
X146769667Y-132157500D01*
X146769667Y-132411500D02*
X145880667Y-132411500D01*
X146007667Y-132326834D01*
X146092333Y-132242167D01*
X146134667Y-132157500D01*
X140546666Y-131459000D02*
X140589000Y-131501333D01*
X140716000Y-131543667D01*
X140800666Y-131543667D01*
X140927666Y-131501333D01*
X141012333Y-131416667D01*
X141054666Y-131332000D01*
X141097000Y-131162667D01*
X141097000Y-131035667D01*
X141054666Y-130866333D01*
X141012333Y-130781667D01*
X140927666Y-130697000D01*
X140800666Y-130654667D01*
X140716000Y-130654667D01*
X140589000Y-130697000D01*
X140546666Y-130739333D01*
X139784666Y-130951000D02*
X139784666Y-131543667D01*
X139996333Y-130612333D02*
X140208000Y-131247333D01*
X139657666Y-131247333D01*
X140546666Y-133999000D02*
X140589000Y-134041333D01*
X140716000Y-134083667D01*
X140800666Y-134083667D01*
X140927666Y-134041333D01*
X141012333Y-133956667D01*
X141054666Y-133872000D01*
X141097000Y-133702667D01*
X141097000Y-133575667D01*
X141054666Y-133406333D01*
X141012333Y-133321667D01*
X140927666Y-133237000D01*
X140800666Y-133194667D01*
X140716000Y-133194667D01*
X140589000Y-133237000D01*
X140546666Y-133279333D01*
X140250333Y-133194667D02*
X139700000Y-133194667D01*
X139996333Y-133533333D01*
X139869333Y-133533333D01*
X139784666Y-133575667D01*
X139742333Y-133618000D01*
X139700000Y-133702667D01*
X139700000Y-133914333D01*
X139742333Y-133999000D01*
X139784666Y-134041333D01*
X139869333Y-134083667D01*
X140123333Y-134083667D01*
X140208000Y-134041333D01*
X140250333Y-133999000D01*
X130153833Y-98015667D02*
X130153833Y-98735333D01*
X130111500Y-98820000D01*
X130069167Y-98862333D01*
X129984500Y-98904667D01*
X129815167Y-98904667D01*
X129730500Y-98862333D01*
X129688167Y-98820000D01*
X129645833Y-98735333D01*
X129645833Y-98015667D01*
X129180167Y-98904667D02*
X129010834Y-98904667D01*
X128926167Y-98862333D01*
X128883834Y-98820000D01*
X128799167Y-98693000D01*
X128756834Y-98523667D01*
X128756834Y-98185000D01*
X128799167Y-98100333D01*
X128841500Y-98058000D01*
X128926167Y-98015667D01*
X129095500Y-98015667D01*
X129180167Y-98058000D01*
X129222500Y-98100333D01*
X129264834Y-98185000D01*
X129264834Y-98396667D01*
X129222500Y-98481333D01*
X129180167Y-98523667D01*
X129095500Y-98566000D01*
X128926167Y-98566000D01*
X128841500Y-98523667D01*
X128799167Y-98481333D01*
X128756834Y-98396667D01*
D15*
X125602516Y-98658045D02*
X125563811Y-98619340D01*
X125486402Y-98580635D01*
X125292878Y-98580635D01*
X125215468Y-98619340D01*
X125176764Y-98658045D01*
X125138059Y-98735454D01*
X125138059Y-98812864D01*
X125176764Y-98928978D01*
X125641221Y-99393435D01*
X125138059Y-99393435D01*
X124634897Y-98580635D02*
X124557488Y-98580635D01*
X124480078Y-98619340D01*
X124441373Y-98658045D01*
X124402669Y-98735454D01*
X124363964Y-98890273D01*
X124363964Y-99083797D01*
X124402669Y-99238616D01*
X124441373Y-99316026D01*
X124480078Y-99354730D01*
X124557488Y-99393435D01*
X124634897Y-99393435D01*
X124712307Y-99354730D01*
X124751011Y-99316026D01*
X124789716Y-99238616D01*
X124828421Y-99083797D01*
X124828421Y-98890273D01*
X124789716Y-98735454D01*
X124751011Y-98658045D01*
X124712307Y-98619340D01*
X124634897Y-98580635D01*
X125138059Y-112890995D02*
X125602516Y-112890995D01*
X125370287Y-112890995D02*
X125370287Y-112078195D01*
X125447697Y-112194310D01*
X125525106Y-112271719D01*
X125602516Y-112310424D01*
X124363964Y-112890995D02*
X124828421Y-112890995D01*
X124596192Y-112890995D02*
X124596192Y-112078195D01*
X124673602Y-112194310D01*
X124751011Y-112271719D01*
X124828421Y-112310424D01*
X134383659Y-112890995D02*
X134848116Y-112890995D01*
X134615887Y-112890995D02*
X134615887Y-112078195D01*
X134693297Y-112194310D01*
X134770706Y-112271719D01*
X134848116Y-112310424D01*
X133880497Y-112078195D02*
X133803088Y-112078195D01*
X133725678Y-112116900D01*
X133686973Y-112155605D01*
X133648269Y-112233014D01*
X133609564Y-112387833D01*
X133609564Y-112581357D01*
X133648269Y-112736176D01*
X133686973Y-112813586D01*
X133725678Y-112852290D01*
X133803088Y-112890995D01*
X133880497Y-112890995D01*
X133957907Y-112852290D01*
X133996611Y-112813586D01*
X134035316Y-112736176D01*
X134074021Y-112581357D01*
X134074021Y-112387833D01*
X134035316Y-112233014D01*
X133996611Y-112155605D01*
X133957907Y-112116900D01*
X133880497Y-112078195D01*
D13*
X130153833Y-81251667D02*
X130153833Y-81971333D01*
X130111500Y-82056000D01*
X130069167Y-82098333D01*
X129984500Y-82140667D01*
X129815167Y-82140667D01*
X129730500Y-82098333D01*
X129688167Y-82056000D01*
X129645833Y-81971333D01*
X129645833Y-81251667D01*
X129307167Y-81251667D02*
X128714500Y-81251667D01*
X129095500Y-82140667D01*
D15*
X125602516Y-81894045D02*
X125563811Y-81855340D01*
X125486402Y-81816635D01*
X125292878Y-81816635D01*
X125215468Y-81855340D01*
X125176764Y-81894045D01*
X125138059Y-81971454D01*
X125138059Y-82048864D01*
X125176764Y-82164978D01*
X125641221Y-82629435D01*
X125138059Y-82629435D01*
X124634897Y-81816635D02*
X124557488Y-81816635D01*
X124480078Y-81855340D01*
X124441373Y-81894045D01*
X124402669Y-81971454D01*
X124363964Y-82126273D01*
X124363964Y-82319797D01*
X124402669Y-82474616D01*
X124441373Y-82552026D01*
X124480078Y-82590730D01*
X124557488Y-82629435D01*
X124634897Y-82629435D01*
X124712307Y-82590730D01*
X124751011Y-82552026D01*
X124789716Y-82474616D01*
X124828421Y-82319797D01*
X124828421Y-82126273D01*
X124789716Y-81971454D01*
X124751011Y-81894045D01*
X124712307Y-81855340D01*
X124634897Y-81816635D01*
X125138059Y-96126995D02*
X125602516Y-96126995D01*
X125370287Y-96126995D02*
X125370287Y-95314195D01*
X125447697Y-95430310D01*
X125525106Y-95507719D01*
X125602516Y-95546424D01*
X124363964Y-96126995D02*
X124828421Y-96126995D01*
X124596192Y-96126995D02*
X124596192Y-95314195D01*
X124673602Y-95430310D01*
X124751011Y-95507719D01*
X124828421Y-95546424D01*
X134383659Y-96126995D02*
X134848116Y-96126995D01*
X134615887Y-96126995D02*
X134615887Y-95314195D01*
X134693297Y-95430310D01*
X134770706Y-95507719D01*
X134848116Y-95546424D01*
X133880497Y-95314195D02*
X133803088Y-95314195D01*
X133725678Y-95352900D01*
X133686973Y-95391605D01*
X133648269Y-95469014D01*
X133609564Y-95623833D01*
X133609564Y-95817357D01*
X133648269Y-95972176D01*
X133686973Y-96049586D01*
X133725678Y-96088290D01*
X133803088Y-96126995D01*
X133880497Y-96126995D01*
X133957907Y-96088290D01*
X133996611Y-96049586D01*
X134035316Y-95972176D01*
X134074021Y-95817357D01*
X134074021Y-95623833D01*
X134035316Y-95469014D01*
X133996611Y-95391605D01*
X133957907Y-95352900D01*
X133880497Y-95314195D01*
D13*
X130153833Y-64741667D02*
X130153833Y-65461333D01*
X130111500Y-65546000D01*
X130069167Y-65588333D01*
X129984500Y-65630667D01*
X129815167Y-65630667D01*
X129730500Y-65588333D01*
X129688167Y-65546000D01*
X129645833Y-65461333D01*
X129645833Y-64741667D01*
X128841500Y-65038000D02*
X128841500Y-65630667D01*
X129053167Y-64699333D02*
X129264834Y-65334333D01*
X128714500Y-65334333D01*
D15*
X125602516Y-65384045D02*
X125563811Y-65345340D01*
X125486402Y-65306635D01*
X125292878Y-65306635D01*
X125215468Y-65345340D01*
X125176764Y-65384045D01*
X125138059Y-65461454D01*
X125138059Y-65538864D01*
X125176764Y-65654978D01*
X125641221Y-66119435D01*
X125138059Y-66119435D01*
X124634897Y-65306635D02*
X124557488Y-65306635D01*
X124480078Y-65345340D01*
X124441373Y-65384045D01*
X124402669Y-65461454D01*
X124363964Y-65616273D01*
X124363964Y-65809797D01*
X124402669Y-65964616D01*
X124441373Y-66042026D01*
X124480078Y-66080730D01*
X124557488Y-66119435D01*
X124634897Y-66119435D01*
X124712307Y-66080730D01*
X124751011Y-66042026D01*
X124789716Y-65964616D01*
X124828421Y-65809797D01*
X124828421Y-65616273D01*
X124789716Y-65461454D01*
X124751011Y-65384045D01*
X124712307Y-65345340D01*
X124634897Y-65306635D01*
X125138059Y-79616995D02*
X125602516Y-79616995D01*
X125370287Y-79616995D02*
X125370287Y-78804195D01*
X125447697Y-78920310D01*
X125525106Y-78997719D01*
X125602516Y-79036424D01*
X124363964Y-79616995D02*
X124828421Y-79616995D01*
X124596192Y-79616995D02*
X124596192Y-78804195D01*
X124673602Y-78920310D01*
X124751011Y-78997719D01*
X124828421Y-79036424D01*
X134383659Y-79616995D02*
X134848116Y-79616995D01*
X134615887Y-79616995D02*
X134615887Y-78804195D01*
X134693297Y-78920310D01*
X134770706Y-78997719D01*
X134848116Y-79036424D01*
X133880497Y-78804195D02*
X133803088Y-78804195D01*
X133725678Y-78842900D01*
X133686973Y-78881605D01*
X133648269Y-78959014D01*
X133609564Y-79113833D01*
X133609564Y-79307357D01*
X133648269Y-79462176D01*
X133686973Y-79539586D01*
X133725678Y-79578290D01*
X133803088Y-79616995D01*
X133880497Y-79616995D01*
X133957907Y-79578290D01*
X133996611Y-79539586D01*
X134035316Y-79462176D01*
X134074021Y-79307357D01*
X134074021Y-79113833D01*
X134035316Y-78959014D01*
X133996611Y-78881605D01*
X133957907Y-78842900D01*
X133880497Y-78804195D01*
D13*
X130153833Y-47977667D02*
X130153833Y-48697333D01*
X130111500Y-48782000D01*
X130069167Y-48824333D01*
X129984500Y-48866667D01*
X129815167Y-48866667D01*
X129730500Y-48824333D01*
X129688167Y-48782000D01*
X129645833Y-48697333D01*
X129645833Y-47977667D01*
X129264834Y-48062333D02*
X129222500Y-48020000D01*
X129137834Y-47977667D01*
X128926167Y-47977667D01*
X128841500Y-48020000D01*
X128799167Y-48062333D01*
X128756834Y-48147000D01*
X128756834Y-48231667D01*
X128799167Y-48358667D01*
X129307167Y-48866667D01*
X128756834Y-48866667D01*
D15*
X125602516Y-48620045D02*
X125563811Y-48581340D01*
X125486402Y-48542635D01*
X125292878Y-48542635D01*
X125215468Y-48581340D01*
X125176764Y-48620045D01*
X125138059Y-48697454D01*
X125138059Y-48774864D01*
X125176764Y-48890978D01*
X125641221Y-49355435D01*
X125138059Y-49355435D01*
X124634897Y-48542635D02*
X124557488Y-48542635D01*
X124480078Y-48581340D01*
X124441373Y-48620045D01*
X124402669Y-48697454D01*
X124363964Y-48852273D01*
X124363964Y-49045797D01*
X124402669Y-49200616D01*
X124441373Y-49278026D01*
X124480078Y-49316730D01*
X124557488Y-49355435D01*
X124634897Y-49355435D01*
X124712307Y-49316730D01*
X124751011Y-49278026D01*
X124789716Y-49200616D01*
X124828421Y-49045797D01*
X124828421Y-48852273D01*
X124789716Y-48697454D01*
X124751011Y-48620045D01*
X124712307Y-48581340D01*
X124634897Y-48542635D01*
X125138059Y-62852995D02*
X125602516Y-62852995D01*
X125370287Y-62852995D02*
X125370287Y-62040195D01*
X125447697Y-62156310D01*
X125525106Y-62233719D01*
X125602516Y-62272424D01*
X124363964Y-62852995D02*
X124828421Y-62852995D01*
X124596192Y-62852995D02*
X124596192Y-62040195D01*
X124673602Y-62156310D01*
X124751011Y-62233719D01*
X124828421Y-62272424D01*
X134383659Y-62852995D02*
X134848116Y-62852995D01*
X134615887Y-62852995D02*
X134615887Y-62040195D01*
X134693297Y-62156310D01*
X134770706Y-62233719D01*
X134848116Y-62272424D01*
X133880497Y-62040195D02*
X133803088Y-62040195D01*
X133725678Y-62078900D01*
X133686973Y-62117605D01*
X133648269Y-62195014D01*
X133609564Y-62349833D01*
X133609564Y-62543357D01*
X133648269Y-62698176D01*
X133686973Y-62775586D01*
X133725678Y-62814290D01*
X133803088Y-62852995D01*
X133880497Y-62852995D01*
X133957907Y-62814290D01*
X133996611Y-62775586D01*
X134035316Y-62698176D01*
X134074021Y-62543357D01*
X134074021Y-62349833D01*
X134035316Y-62195014D01*
X133996611Y-62117605D01*
X133957907Y-62078900D01*
X133880497Y-62040195D01*
D16*
X151586695Y-132234471D02*
X151586695Y-133043995D01*
X151539076Y-133139233D01*
X151491457Y-133186852D01*
X151396219Y-133234471D01*
X151205742Y-133234471D01*
X151110504Y-133186852D01*
X151062885Y-133139233D01*
X151015266Y-133043995D01*
X151015266Y-132234471D01*
X150062885Y-132234471D02*
X150539076Y-132234471D01*
X150586695Y-132710661D01*
X150539076Y-132663042D01*
X150443838Y-132615423D01*
X150205742Y-132615423D01*
X150110504Y-132663042D01*
X150062885Y-132710661D01*
X150015266Y-132805900D01*
X150015266Y-133043995D01*
X150062885Y-133139233D01*
X150110504Y-133186852D01*
X150205742Y-133234471D01*
X150443838Y-133234471D01*
X150539076Y-133186852D01*
X150586695Y-133139233D01*
D13*
X124036666Y-119013000D02*
X124079000Y-119055333D01*
X124206000Y-119097667D01*
X124290666Y-119097667D01*
X124417666Y-119055333D01*
X124502333Y-118970667D01*
X124544666Y-118886000D01*
X124587000Y-118716667D01*
X124587000Y-118589667D01*
X124544666Y-118420333D01*
X124502333Y-118335667D01*
X124417666Y-118251000D01*
X124290666Y-118208667D01*
X124206000Y-118208667D01*
X124079000Y-118251000D01*
X124036666Y-118293333D01*
X123190000Y-119097667D02*
X123698000Y-119097667D01*
X123444000Y-119097667D02*
X123444000Y-118208667D01*
X123528666Y-118335667D01*
X123613333Y-118420333D01*
X123698000Y-118462667D01*
%LPC*%
D17*
X149284790Y-130797090D02*
X148884790Y-130797090D01*
X149284790Y-130297090D02*
X148884790Y-130297090D01*
X149284790Y-129797091D02*
X148884790Y-129797091D01*
X149284790Y-129297091D02*
X148884790Y-129297091D01*
X149284790Y-128797091D02*
X148884790Y-128797091D01*
X149284790Y-128297091D02*
X148884790Y-128297091D01*
X149284790Y-127797090D02*
X148884790Y-127797090D01*
X149284790Y-127297090D02*
X148884790Y-127297090D01*
X149634790Y-126947090D02*
X149634790Y-126547090D01*
X150134790Y-126947090D02*
X150134790Y-126547090D01*
X150634791Y-126947090D02*
X150634791Y-126547090D01*
X151134791Y-126947090D02*
X151134791Y-126547090D01*
X151634791Y-126947090D02*
X151634791Y-126547090D01*
X152134791Y-126947090D02*
X152134791Y-126547090D01*
X152634790Y-126947090D02*
X152634790Y-126547090D01*
X153134790Y-126947090D02*
X153134790Y-126547090D01*
X153484790Y-127297090D02*
X153884790Y-127297090D01*
X153484790Y-127797090D02*
X153884790Y-127797090D01*
X153484790Y-128297091D02*
X153884790Y-128297091D01*
X153484790Y-128797091D02*
X153884790Y-128797091D01*
X153484790Y-129297091D02*
X153884790Y-129297091D01*
X153484790Y-129797091D02*
X153884790Y-129797091D01*
X153484790Y-130297090D02*
X153884790Y-130297090D01*
X153484790Y-130797090D02*
X153884790Y-130797090D01*
X153134790Y-131147090D02*
X153134790Y-131547090D01*
X152634790Y-131147090D02*
X152634790Y-131547090D01*
X152134791Y-131147090D02*
X152134791Y-131547090D01*
X151634791Y-131147090D02*
X151634791Y-131547090D01*
X151134791Y-131147090D02*
X151134791Y-131547090D01*
X150634791Y-131147090D02*
X150634791Y-131547090D01*
X150134790Y-131147090D02*
X150134790Y-131547090D01*
X149634790Y-131147090D02*
X149634790Y-131547090D01*
D18*
X121671080Y-127803940D03*
X121671080Y-127153700D03*
X121671080Y-126506000D03*
X121671080Y-125858300D03*
X121671080Y-125208060D03*
D19*
X121493280Y-129904520D03*
D20*
X119245380Y-129805460D03*
D21*
X119245380Y-127704880D03*
X119245380Y-125307120D03*
D20*
X119245380Y-123206540D03*
D19*
X121493280Y-123107480D03*
D22*
X165100000Y-112790000D03*
X165100000Y-115330000D03*
X165100000Y-117870000D03*
X165100000Y-120410000D03*
X165100000Y-122950000D03*
X165100000Y-125490000D03*
D23*
X165100000Y-106440000D03*
X165100000Y-108980000D03*
X165100000Y-103900000D03*
X165100000Y-101360000D03*
X165100000Y-98820000D03*
X165100000Y-96280000D03*
X165100000Y-93740000D03*
X165100000Y-91200000D03*
X165100000Y-88660000D03*
X165100000Y-86120000D03*
D24*
X124841000Y-131078000D03*
X127635000Y-131078000D03*
D25*
X126809500Y-128792000D03*
X127698500Y-128792000D03*
X126809500Y-126506000D03*
X127698500Y-126506000D03*
D26*
X121000000Y-135000000D03*
X121000000Y-48000000D03*
X163000000Y-48000000D03*
X163000000Y-135000000D03*
D27*
X129794000Y-122061000D03*
X129794000Y-120283000D03*
X133096000Y-122061000D03*
X133096000Y-120283000D03*
X136398000Y-122061000D03*
X136398000Y-120283000D03*
X139700000Y-122061000D03*
X139700000Y-120283000D03*
X143002000Y-122061000D03*
X143002000Y-120283000D03*
X146304000Y-122061000D03*
X146304000Y-120283000D03*
X149606000Y-122061000D03*
X149606000Y-120283000D03*
X152908000Y-122061000D03*
X152908000Y-120283000D03*
X156972000Y-133491000D03*
X156972000Y-131713000D03*
D28*
X152654000Y-134634000D03*
X152654000Y-136158000D03*
D29*
X144018000Y-133237000D03*
X144018000Y-128919000D03*
D28*
X138684000Y-129808000D03*
X140208000Y-129808000D03*
X138684000Y-132348000D03*
X140208000Y-132348000D03*
D30*
X134716520Y-100217000D03*
X134716520Y-101487000D03*
X134716520Y-102757000D03*
X134716520Y-104027000D03*
X134716520Y-105297000D03*
X134716520Y-106567000D03*
X134716520Y-107837000D03*
X134716520Y-109107000D03*
X134716520Y-110377000D03*
X134716520Y-111647000D03*
X124871480Y-111647000D03*
X124871480Y-110377000D03*
X124871480Y-109107000D03*
X124871480Y-107837000D03*
X124871480Y-106567000D03*
X124871480Y-105297000D03*
X124871480Y-104027000D03*
X124871480Y-102757000D03*
X124871480Y-101487000D03*
X124871480Y-100217000D03*
X134716520Y-83453000D03*
X134716520Y-84723000D03*
X134716520Y-85993000D03*
X134716520Y-87263000D03*
X134716520Y-88533000D03*
X134716520Y-89803000D03*
X134716520Y-91073000D03*
X134716520Y-92343000D03*
X134716520Y-93613000D03*
X134716520Y-94883000D03*
X124871480Y-94883000D03*
X124871480Y-93613000D03*
X124871480Y-92343000D03*
X124871480Y-91073000D03*
X124871480Y-89803000D03*
X124871480Y-88533000D03*
X124871480Y-87263000D03*
X124871480Y-85993000D03*
X124871480Y-84723000D03*
X124871480Y-83453000D03*
X134716520Y-66943000D03*
X134716520Y-68213000D03*
X134716520Y-69483000D03*
X134716520Y-70753000D03*
X134716520Y-72023000D03*
X134716520Y-73293000D03*
X134716520Y-74563000D03*
X134716520Y-75833000D03*
X134716520Y-77103000D03*
X134716520Y-78373000D03*
X124871480Y-78373000D03*
X124871480Y-77103000D03*
X124871480Y-75833000D03*
X124871480Y-74563000D03*
X124871480Y-73293000D03*
X124871480Y-72023000D03*
X124871480Y-70753000D03*
X124871480Y-69483000D03*
X124871480Y-68213000D03*
X124871480Y-66943000D03*
X134716520Y-50179000D03*
X134716520Y-51449000D03*
X134716520Y-52719000D03*
X134716520Y-53989000D03*
X134716520Y-55259000D03*
X134716520Y-56529000D03*
X134716520Y-57799000D03*
X134716520Y-59069000D03*
X134716520Y-60339000D03*
X134716520Y-61609000D03*
X124871480Y-61609000D03*
X124871480Y-60339000D03*
X124871480Y-59069000D03*
X124871480Y-57799000D03*
X124871480Y-56529000D03*
X124871480Y-55259000D03*
X124871480Y-53989000D03*
X124871480Y-52719000D03*
X124871480Y-51449000D03*
X124871480Y-50179000D03*
D31*
X149084000Y-130796000D03*
X149084000Y-130296000D03*
X149084000Y-129796000D03*
X149084000Y-129296000D03*
X149084000Y-128796000D03*
X149084000Y-128296000D03*
X149084000Y-127796000D03*
X149084000Y-127296000D03*
D32*
X149634000Y-126746000D03*
X150134000Y-126746000D03*
X150634000Y-126746000D03*
X151134000Y-126746000D03*
X151634000Y-126746000D03*
X152134000Y-126746000D03*
X152634000Y-126746000D03*
X153134000Y-126746000D03*
D31*
X153684000Y-127296000D03*
X153684000Y-127796000D03*
X153684000Y-128296000D03*
X153684000Y-128796000D03*
X153684000Y-129296000D03*
X153684000Y-129796000D03*
X153684000Y-130296000D03*
X153684000Y-130796000D03*
D32*
X153134000Y-131346000D03*
X152634000Y-131346000D03*
X152134000Y-131346000D03*
X151634000Y-131346000D03*
X151134000Y-131346000D03*
X150634000Y-131346000D03*
X150134000Y-131346000D03*
X149634000Y-131346000D03*
D33*
X151384000Y-129046000D03*
D34*
X125476000Y-120156000D03*
X122936000Y-120156000D03*
M02*
