G04 #@! TF.FileFunction,Legend,Bot*
%FSLAX46Y46*%
G04 Gerber Fmt 4.6, Leading zero omitted, Abs format (unit mm)*
G04 Created by KiCad (PCBNEW 4.0.2-stable) date 16-09-25 17:40:40*
%MOMM*%
G01*
G04 APERTURE LIST*
%ADD10C,0.100000*%
%ADD11C,0.127000*%
%ADD12C,0.066040*%
%ADD13C,0.152400*%
%ADD14C,0.101600*%
%ADD15C,0.076200*%
%ADD16C,0.150000*%
%ADD17C,0.050000*%
%ADD18C,0.400000*%
%ADD19R,1.797000X1.416000*%
%ADD20R,1.289000X1.289000*%
%ADD21R,2.432000X2.178000*%
%ADD22C,4.464000*%
%ADD23R,1.670000X1.670000*%
%ADD24C,1.035000*%
%ADD25R,1.670000X2.178000*%
%ADD26R,1.598880X1.098500*%
%ADD27O,1.898600X0.798780*%
%ADD28O,1.799540X1.997660*%
%ADD29O,2.432000X1.416000*%
%ADD30C,2.299920*%
%ADD31C,1.900000*%
%ADD32C,1.924000*%
%ADD33R,0.900000X0.500000*%
%ADD34R,0.500000X0.900000*%
%ADD35R,3.900000X3.900000*%
G04 APERTURE END LIST*
D10*
D11*
X157861000Y-130951000D02*
X156083000Y-130951000D01*
X156083000Y-130951000D02*
X156083000Y-134253000D01*
X156083000Y-134253000D02*
X157861000Y-134253000D01*
X157861000Y-134253000D02*
X157861000Y-130951000D01*
X152019000Y-133999000D02*
X152019000Y-136793000D01*
X152019000Y-136793000D02*
X153289000Y-136793000D01*
X153289000Y-136793000D02*
X153289000Y-133999000D01*
X153289000Y-133999000D02*
X152019000Y-133999000D01*
X145615660Y-133577360D02*
X145216880Y-133577360D01*
X142819120Y-133577360D02*
X142420340Y-133577360D01*
X142420340Y-133577360D02*
X142420340Y-128578640D01*
X142420340Y-128578640D02*
X142819120Y-128578640D01*
X145216880Y-128578640D02*
X145615660Y-128578640D01*
X145615660Y-128578640D02*
X145615660Y-133577360D01*
X145034000Y-131332000D02*
X143002000Y-131332000D01*
X143002000Y-131332000D02*
X143002000Y-130824000D01*
X143002000Y-130824000D02*
X145034000Y-130824000D01*
X145034000Y-130824000D02*
X145034000Y-131332000D01*
X145288000Y-131713000D02*
X144018000Y-131713000D01*
X144018000Y-131713000D02*
X142748000Y-131713000D01*
X145288000Y-130443000D02*
X144018000Y-130443000D01*
X144018000Y-130443000D02*
X142748000Y-130443000D01*
X144018000Y-131713000D02*
X144018000Y-132221000D01*
X144018000Y-130443000D02*
X144018000Y-129935000D01*
X138049000Y-132983000D02*
X140843000Y-132983000D01*
X140843000Y-132983000D02*
X140843000Y-131713000D01*
X140843000Y-131713000D02*
X138049000Y-131713000D01*
X138049000Y-131713000D02*
X138049000Y-132983000D01*
X138049000Y-130443000D02*
X140843000Y-130443000D01*
X140843000Y-130443000D02*
X140843000Y-129173000D01*
X140843000Y-129173000D02*
X138049000Y-129173000D01*
X138049000Y-129173000D02*
X138049000Y-130443000D01*
X153797000Y-119521000D02*
X152019000Y-119521000D01*
X152019000Y-119521000D02*
X152019000Y-122823000D01*
X152019000Y-122823000D02*
X153797000Y-122823000D01*
X153797000Y-122823000D02*
X153797000Y-119521000D01*
X150495000Y-119521000D02*
X148717000Y-119521000D01*
X148717000Y-119521000D02*
X148717000Y-122823000D01*
X148717000Y-122823000D02*
X150495000Y-122823000D01*
X150495000Y-122823000D02*
X150495000Y-119521000D01*
X147193000Y-119521000D02*
X145415000Y-119521000D01*
X145415000Y-119521000D02*
X145415000Y-122823000D01*
X145415000Y-122823000D02*
X147193000Y-122823000D01*
X147193000Y-122823000D02*
X147193000Y-119521000D01*
X143891000Y-119521000D02*
X142113000Y-119521000D01*
X142113000Y-119521000D02*
X142113000Y-122823000D01*
X142113000Y-122823000D02*
X143891000Y-122823000D01*
X143891000Y-122823000D02*
X143891000Y-119521000D01*
X140589000Y-119521000D02*
X138811000Y-119521000D01*
X138811000Y-119521000D02*
X138811000Y-122823000D01*
X138811000Y-122823000D02*
X140589000Y-122823000D01*
X140589000Y-122823000D02*
X140589000Y-119521000D01*
X137287000Y-119521000D02*
X135509000Y-119521000D01*
X135509000Y-119521000D02*
X135509000Y-122823000D01*
X135509000Y-122823000D02*
X137287000Y-122823000D01*
X137287000Y-122823000D02*
X137287000Y-119521000D01*
X133985000Y-119521000D02*
X132207000Y-119521000D01*
X132207000Y-119521000D02*
X132207000Y-122823000D01*
X132207000Y-122823000D02*
X133985000Y-122823000D01*
X133985000Y-122823000D02*
X133985000Y-119521000D01*
X130683000Y-119521000D02*
X128905000Y-119521000D01*
X128905000Y-119521000D02*
X128905000Y-122823000D01*
X128905000Y-122823000D02*
X130683000Y-122823000D01*
X130683000Y-122823000D02*
X130683000Y-119521000D01*
D12*
X126365000Y-121045000D02*
X122047000Y-121045000D01*
X122047000Y-121045000D02*
X122047000Y-119267000D01*
X126365000Y-119267000D02*
X122047000Y-119267000D01*
X126365000Y-121045000D02*
X126365000Y-119267000D01*
D11*
X127190500Y-120156000D02*
X126682500Y-120156000D01*
X126936500Y-120410000D02*
X126936500Y-119902000D01*
D12*
X124206000Y-130189000D02*
X128270000Y-130189000D01*
X128270000Y-130189000D02*
X128270000Y-131967000D01*
X124206000Y-131967000D02*
X128270000Y-131967000D01*
X124206000Y-130189000D02*
X124206000Y-131967000D01*
X133616700Y-99582000D02*
X133616700Y-112282000D01*
X133616700Y-112282000D02*
X125971300Y-112282000D01*
X125971300Y-99582000D02*
X125971300Y-112282000D01*
X133616700Y-99582000D02*
X125971300Y-99582000D01*
D13*
X125971300Y-99582000D02*
X132969000Y-99582000D01*
X132969000Y-99582000D02*
X133616700Y-100232240D01*
X133616700Y-100232240D02*
X133616700Y-112282000D01*
X133616700Y-112282000D02*
X125971300Y-112282000D01*
X125971300Y-112282000D02*
X125971300Y-99582000D01*
D12*
X133616700Y-82818000D02*
X133616700Y-95518000D01*
X133616700Y-95518000D02*
X125971300Y-95518000D01*
X125971300Y-82818000D02*
X125971300Y-95518000D01*
X133616700Y-82818000D02*
X125971300Y-82818000D01*
D13*
X125971300Y-82818000D02*
X132969000Y-82818000D01*
X132969000Y-82818000D02*
X133616700Y-83468240D01*
X133616700Y-83468240D02*
X133616700Y-95518000D01*
X133616700Y-95518000D02*
X125971300Y-95518000D01*
X125971300Y-95518000D02*
X125971300Y-82818000D01*
D12*
X133616700Y-66308000D02*
X133616700Y-79008000D01*
X133616700Y-79008000D02*
X125971300Y-79008000D01*
X125971300Y-66308000D02*
X125971300Y-79008000D01*
X133616700Y-66308000D02*
X125971300Y-66308000D01*
D13*
X125971300Y-66308000D02*
X132969000Y-66308000D01*
X132969000Y-66308000D02*
X133616700Y-66958240D01*
X133616700Y-66958240D02*
X133616700Y-79008000D01*
X133616700Y-79008000D02*
X125971300Y-79008000D01*
X125971300Y-79008000D02*
X125971300Y-66308000D01*
D12*
X133616700Y-49544000D02*
X133616700Y-62244000D01*
X133616700Y-62244000D02*
X125971300Y-62244000D01*
X125971300Y-49544000D02*
X125971300Y-62244000D01*
X133616700Y-49544000D02*
X125971300Y-49544000D01*
D13*
X125971300Y-49544000D02*
X132969000Y-49544000D01*
X132969000Y-49544000D02*
X133616700Y-50194240D01*
X133616700Y-50194240D02*
X133616700Y-62244000D01*
X133616700Y-62244000D02*
X125971300Y-62244000D01*
X125971300Y-62244000D02*
X125971300Y-49544000D01*
D12*
X120322340Y-128004600D02*
X120322340Y-125007400D01*
X120322340Y-125007400D02*
X120721120Y-125007400D01*
X120721120Y-128004600D02*
X120721120Y-125007400D01*
X120322340Y-128004600D02*
X120721120Y-128004600D01*
D11*
X116921280Y-130204240D02*
X121920000Y-130204240D01*
X121920000Y-130204240D02*
X121920000Y-122807760D01*
X121920000Y-122807760D02*
X116921280Y-122807760D01*
X116921280Y-130204240D02*
X116321840Y-130503960D01*
X116921280Y-122807760D02*
X116321840Y-122508040D01*
X116822220Y-130204240D02*
X116822220Y-122807760D01*
X116420900Y-129805460D02*
X116420900Y-123308140D01*
X116420900Y-129805460D02*
X116321840Y-130503960D01*
X116420900Y-123308140D02*
X116321840Y-122508040D01*
X149284000Y-131546000D02*
X148884000Y-131546000D01*
X148884000Y-131546000D02*
X148884000Y-131146000D01*
X153484000Y-131546000D02*
X153884000Y-131546000D01*
X153884000Y-131546000D02*
X153884000Y-131146000D01*
X148884000Y-126946000D02*
X148884000Y-126546000D01*
X148884000Y-126546000D02*
X149284000Y-126546000D01*
X153484000Y-126546000D02*
X153884000Y-126546000D01*
X153884000Y-126546000D02*
X153884000Y-126946000D01*
D10*
X148761000Y-131296000D02*
G75*
G03X148761000Y-131296000I-127000J0D01*
G01*
D14*
X158834667Y-131713000D02*
X158411333Y-131416666D01*
X158834667Y-131205000D02*
X157945667Y-131205000D01*
X157945667Y-131543666D01*
X157988000Y-131628333D01*
X158030333Y-131670666D01*
X158115000Y-131713000D01*
X158242000Y-131713000D01*
X158326667Y-131670666D01*
X158369000Y-131628333D01*
X158411333Y-131543666D01*
X158411333Y-131205000D01*
X158834667Y-132559666D02*
X158834667Y-132051666D01*
X158834667Y-132305666D02*
X157945667Y-132305666D01*
X158072667Y-132221000D01*
X158157333Y-132136333D01*
X158199667Y-132051666D01*
X157945667Y-133110000D02*
X157945667Y-133194667D01*
X157988000Y-133279333D01*
X158030333Y-133321667D01*
X158115000Y-133364000D01*
X158284333Y-133406333D01*
X158496000Y-133406333D01*
X158665333Y-133364000D01*
X158750000Y-133321667D01*
X158792333Y-133279333D01*
X158834667Y-133194667D01*
X158834667Y-133110000D01*
X158792333Y-133025333D01*
X158750000Y-132983000D01*
X158665333Y-132940667D01*
X158496000Y-132898333D01*
X158284333Y-132898333D01*
X158115000Y-132940667D01*
X158030333Y-132983000D01*
X157988000Y-133025333D01*
X157945667Y-133110000D01*
X151638000Y-136200334D02*
X151680333Y-136158000D01*
X151722667Y-136031000D01*
X151722667Y-135946334D01*
X151680333Y-135819334D01*
X151595667Y-135734667D01*
X151511000Y-135692334D01*
X151341667Y-135650000D01*
X151214667Y-135650000D01*
X151045333Y-135692334D01*
X150960667Y-135734667D01*
X150876000Y-135819334D01*
X150833667Y-135946334D01*
X150833667Y-136031000D01*
X150876000Y-136158000D01*
X150918333Y-136200334D01*
X150918333Y-136539000D02*
X150876000Y-136581334D01*
X150833667Y-136666000D01*
X150833667Y-136877667D01*
X150876000Y-136962334D01*
X150918333Y-137004667D01*
X151003000Y-137047000D01*
X151087667Y-137047000D01*
X151214667Y-137004667D01*
X151722667Y-136496667D01*
X151722667Y-137047000D01*
X146346333Y-131607167D02*
X146769667Y-131607167D01*
X145880667Y-131310834D02*
X146346333Y-131607167D01*
X145880667Y-131903500D01*
X146769667Y-132665500D02*
X146769667Y-132157500D01*
X146769667Y-132411500D02*
X145880667Y-132411500D01*
X146007667Y-132326834D01*
X146092333Y-132242167D01*
X146134667Y-132157500D01*
X137343726Y-132666740D02*
X137386060Y-132709073D01*
X137513060Y-132751407D01*
X137597726Y-132751407D01*
X137724726Y-132709073D01*
X137809393Y-132624407D01*
X137851726Y-132539740D01*
X137894060Y-132370407D01*
X137894060Y-132243407D01*
X137851726Y-132074073D01*
X137809393Y-131989407D01*
X137724726Y-131904740D01*
X137597726Y-131862407D01*
X137513060Y-131862407D01*
X137386060Y-131904740D01*
X137343726Y-131947073D01*
X137047393Y-131862407D02*
X136497060Y-131862407D01*
X136793393Y-132201073D01*
X136666393Y-132201073D01*
X136581726Y-132243407D01*
X136539393Y-132285740D01*
X136497060Y-132370407D01*
X136497060Y-132582073D01*
X136539393Y-132666740D01*
X136581726Y-132709073D01*
X136666393Y-132751407D01*
X136920393Y-132751407D01*
X137005060Y-132709073D01*
X137047393Y-132666740D01*
X137343726Y-130129280D02*
X137386060Y-130171613D01*
X137513060Y-130213947D01*
X137597726Y-130213947D01*
X137724726Y-130171613D01*
X137809393Y-130086947D01*
X137851726Y-130002280D01*
X137894060Y-129832947D01*
X137894060Y-129705947D01*
X137851726Y-129536613D01*
X137809393Y-129451947D01*
X137724726Y-129367280D01*
X137597726Y-129324947D01*
X137513060Y-129324947D01*
X137386060Y-129367280D01*
X137343726Y-129409613D01*
X136581726Y-129621280D02*
X136581726Y-130213947D01*
X136793393Y-129282613D02*
X137005060Y-129917613D01*
X136454726Y-129917613D01*
X154770667Y-120706334D02*
X154347333Y-120410000D01*
X154770667Y-120198334D02*
X153881667Y-120198334D01*
X153881667Y-120537000D01*
X153924000Y-120621667D01*
X153966333Y-120664000D01*
X154051000Y-120706334D01*
X154178000Y-120706334D01*
X154262667Y-120664000D01*
X154305000Y-120621667D01*
X154347333Y-120537000D01*
X154347333Y-120198334D01*
X154178000Y-121468334D02*
X154770667Y-121468334D01*
X153839333Y-121256667D02*
X154474333Y-121045000D01*
X154474333Y-121595334D01*
X151468667Y-120706334D02*
X151045333Y-120410000D01*
X151468667Y-120198334D02*
X150579667Y-120198334D01*
X150579667Y-120537000D01*
X150622000Y-120621667D01*
X150664333Y-120664000D01*
X150749000Y-120706334D01*
X150876000Y-120706334D01*
X150960667Y-120664000D01*
X151003000Y-120621667D01*
X151045333Y-120537000D01*
X151045333Y-120198334D01*
X150579667Y-121002667D02*
X150579667Y-121553000D01*
X150918333Y-121256667D01*
X150918333Y-121383667D01*
X150960667Y-121468334D01*
X151003000Y-121510667D01*
X151087667Y-121553000D01*
X151299333Y-121553000D01*
X151384000Y-121510667D01*
X151426333Y-121468334D01*
X151468667Y-121383667D01*
X151468667Y-121129667D01*
X151426333Y-121045000D01*
X151384000Y-121002667D01*
X148166667Y-120706334D02*
X147743333Y-120410000D01*
X148166667Y-120198334D02*
X147277667Y-120198334D01*
X147277667Y-120537000D01*
X147320000Y-120621667D01*
X147362333Y-120664000D01*
X147447000Y-120706334D01*
X147574000Y-120706334D01*
X147658667Y-120664000D01*
X147701000Y-120621667D01*
X147743333Y-120537000D01*
X147743333Y-120198334D01*
X147362333Y-121045000D02*
X147320000Y-121087334D01*
X147277667Y-121172000D01*
X147277667Y-121383667D01*
X147320000Y-121468334D01*
X147362333Y-121510667D01*
X147447000Y-121553000D01*
X147531667Y-121553000D01*
X147658667Y-121510667D01*
X148166667Y-121002667D01*
X148166667Y-121553000D01*
X144864667Y-120706334D02*
X144441333Y-120410000D01*
X144864667Y-120198334D02*
X143975667Y-120198334D01*
X143975667Y-120537000D01*
X144018000Y-120621667D01*
X144060333Y-120664000D01*
X144145000Y-120706334D01*
X144272000Y-120706334D01*
X144356667Y-120664000D01*
X144399000Y-120621667D01*
X144441333Y-120537000D01*
X144441333Y-120198334D01*
X144864667Y-121553000D02*
X144864667Y-121045000D01*
X144864667Y-121299000D02*
X143975667Y-121299000D01*
X144102667Y-121214334D01*
X144187333Y-121129667D01*
X144229667Y-121045000D01*
X141562667Y-120706334D02*
X141139333Y-120410000D01*
X141562667Y-120198334D02*
X140673667Y-120198334D01*
X140673667Y-120537000D01*
X140716000Y-120621667D01*
X140758333Y-120664000D01*
X140843000Y-120706334D01*
X140970000Y-120706334D01*
X141054667Y-120664000D01*
X141097000Y-120621667D01*
X141139333Y-120537000D01*
X141139333Y-120198334D01*
X141054667Y-121214334D02*
X141012333Y-121129667D01*
X140970000Y-121087334D01*
X140885333Y-121045000D01*
X140843000Y-121045000D01*
X140758333Y-121087334D01*
X140716000Y-121129667D01*
X140673667Y-121214334D01*
X140673667Y-121383667D01*
X140716000Y-121468334D01*
X140758333Y-121510667D01*
X140843000Y-121553000D01*
X140885333Y-121553000D01*
X140970000Y-121510667D01*
X141012333Y-121468334D01*
X141054667Y-121383667D01*
X141054667Y-121214334D01*
X141097000Y-121129667D01*
X141139333Y-121087334D01*
X141224000Y-121045000D01*
X141393333Y-121045000D01*
X141478000Y-121087334D01*
X141520333Y-121129667D01*
X141562667Y-121214334D01*
X141562667Y-121383667D01*
X141520333Y-121468334D01*
X141478000Y-121510667D01*
X141393333Y-121553000D01*
X141224000Y-121553000D01*
X141139333Y-121510667D01*
X141097000Y-121468334D01*
X141054667Y-121383667D01*
X138260667Y-120706334D02*
X137837333Y-120410000D01*
X138260667Y-120198334D02*
X137371667Y-120198334D01*
X137371667Y-120537000D01*
X137414000Y-120621667D01*
X137456333Y-120664000D01*
X137541000Y-120706334D01*
X137668000Y-120706334D01*
X137752667Y-120664000D01*
X137795000Y-120621667D01*
X137837333Y-120537000D01*
X137837333Y-120198334D01*
X137371667Y-121002667D02*
X137371667Y-121595334D01*
X138260667Y-121214334D01*
X134958667Y-120706334D02*
X134535333Y-120410000D01*
X134958667Y-120198334D02*
X134069667Y-120198334D01*
X134069667Y-120537000D01*
X134112000Y-120621667D01*
X134154333Y-120664000D01*
X134239000Y-120706334D01*
X134366000Y-120706334D01*
X134450667Y-120664000D01*
X134493000Y-120621667D01*
X134535333Y-120537000D01*
X134535333Y-120198334D01*
X134069667Y-121468334D02*
X134069667Y-121299000D01*
X134112000Y-121214334D01*
X134154333Y-121172000D01*
X134281333Y-121087334D01*
X134450667Y-121045000D01*
X134789333Y-121045000D01*
X134874000Y-121087334D01*
X134916333Y-121129667D01*
X134958667Y-121214334D01*
X134958667Y-121383667D01*
X134916333Y-121468334D01*
X134874000Y-121510667D01*
X134789333Y-121553000D01*
X134577667Y-121553000D01*
X134493000Y-121510667D01*
X134450667Y-121468334D01*
X134408333Y-121383667D01*
X134408333Y-121214334D01*
X134450667Y-121129667D01*
X134493000Y-121087334D01*
X134577667Y-121045000D01*
X131656667Y-120706334D02*
X131233333Y-120410000D01*
X131656667Y-120198334D02*
X130767667Y-120198334D01*
X130767667Y-120537000D01*
X130810000Y-120621667D01*
X130852333Y-120664000D01*
X130937000Y-120706334D01*
X131064000Y-120706334D01*
X131148667Y-120664000D01*
X131191000Y-120621667D01*
X131233333Y-120537000D01*
X131233333Y-120198334D01*
X130767667Y-121510667D02*
X130767667Y-121087334D01*
X131191000Y-121045000D01*
X131148667Y-121087334D01*
X131106333Y-121172000D01*
X131106333Y-121383667D01*
X131148667Y-121468334D01*
X131191000Y-121510667D01*
X131275667Y-121553000D01*
X131487333Y-121553000D01*
X131572000Y-121510667D01*
X131614333Y-121468334D01*
X131656667Y-121383667D01*
X131656667Y-121172000D01*
X131614333Y-121087334D01*
X131572000Y-121045000D01*
X124036666Y-119013000D02*
X124079000Y-119055333D01*
X124206000Y-119097667D01*
X124290666Y-119097667D01*
X124417666Y-119055333D01*
X124502333Y-118970667D01*
X124544666Y-118886000D01*
X124587000Y-118716667D01*
X124587000Y-118589667D01*
X124544666Y-118420333D01*
X124502333Y-118335667D01*
X124417666Y-118251000D01*
X124290666Y-118208667D01*
X124206000Y-118208667D01*
X124079000Y-118251000D01*
X124036666Y-118293333D01*
X123190000Y-119097667D02*
X123698000Y-119097667D01*
X123444000Y-119097667D02*
X123444000Y-118208667D01*
X123528666Y-118335667D01*
X123613333Y-118420333D01*
X123698000Y-118462667D01*
X129429086Y-126939887D02*
X129725420Y-126516553D01*
X129937086Y-126939887D02*
X129937086Y-126050887D01*
X129598420Y-126050887D01*
X129513753Y-126093220D01*
X129471420Y-126135553D01*
X129429086Y-126220220D01*
X129429086Y-126347220D01*
X129471420Y-126431887D01*
X129513753Y-126474220D01*
X129598420Y-126516553D01*
X129937086Y-126516553D01*
X129005753Y-126939887D02*
X128836420Y-126939887D01*
X128751753Y-126897553D01*
X128709420Y-126855220D01*
X128624753Y-126728220D01*
X128582420Y-126558887D01*
X128582420Y-126220220D01*
X128624753Y-126135553D01*
X128667086Y-126093220D01*
X128751753Y-126050887D01*
X128921086Y-126050887D01*
X129005753Y-126093220D01*
X129048086Y-126135553D01*
X129090420Y-126220220D01*
X129090420Y-126431887D01*
X129048086Y-126516553D01*
X129005753Y-126558887D01*
X128921086Y-126601220D01*
X128751753Y-126601220D01*
X128667086Y-126558887D01*
X128624753Y-126516553D01*
X128582420Y-126431887D01*
X130081020Y-129164927D02*
X130377354Y-128741593D01*
X130589020Y-129164927D02*
X130589020Y-128275927D01*
X130250354Y-128275927D01*
X130165687Y-128318260D01*
X130123354Y-128360593D01*
X130081020Y-128445260D01*
X130081020Y-128572260D01*
X130123354Y-128656927D01*
X130165687Y-128699260D01*
X130250354Y-128741593D01*
X130589020Y-128741593D01*
X129234354Y-129164927D02*
X129742354Y-129164927D01*
X129488354Y-129164927D02*
X129488354Y-128275927D01*
X129573020Y-128402927D01*
X129657687Y-128487593D01*
X129742354Y-128529927D01*
X128387687Y-129164927D02*
X128895687Y-129164927D01*
X128641687Y-129164927D02*
X128641687Y-128275927D01*
X128726353Y-128402927D01*
X128811020Y-128487593D01*
X128895687Y-128529927D01*
X129516293Y-130970020D02*
X129812626Y-130970020D01*
X129812626Y-131435687D02*
X129812626Y-130546687D01*
X129389293Y-130546687D01*
X128584960Y-131435687D02*
X129092960Y-131435687D01*
X128838960Y-131435687D02*
X128838960Y-130546687D01*
X128923626Y-130673687D01*
X129008293Y-130758353D01*
X129092960Y-130800687D01*
X130151293Y-100432447D02*
X130151293Y-101152113D01*
X130108960Y-101236780D01*
X130066627Y-101279113D01*
X129981960Y-101321447D01*
X129812627Y-101321447D01*
X129727960Y-101279113D01*
X129685627Y-101236780D01*
X129643293Y-101152113D01*
X129643293Y-100432447D01*
X129177627Y-101321447D02*
X129008294Y-101321447D01*
X128923627Y-101279113D01*
X128881294Y-101236780D01*
X128796627Y-101109780D01*
X128754294Y-100940447D01*
X128754294Y-100601780D01*
X128796627Y-100517113D01*
X128838960Y-100474780D01*
X128923627Y-100432447D01*
X129092960Y-100432447D01*
X129177627Y-100474780D01*
X129219960Y-100517113D01*
X129262294Y-100601780D01*
X129262294Y-100813447D01*
X129219960Y-100898113D01*
X129177627Y-100940447D01*
X129092960Y-100982780D01*
X128923627Y-100982780D01*
X128838960Y-100940447D01*
X128796627Y-100898113D01*
X128754294Y-100813447D01*
D15*
X125602516Y-98658045D02*
X125563811Y-98619340D01*
X125486402Y-98580635D01*
X125292878Y-98580635D01*
X125215468Y-98619340D01*
X125176764Y-98658045D01*
X125138059Y-98735454D01*
X125138059Y-98812864D01*
X125176764Y-98928978D01*
X125641221Y-99393435D01*
X125138059Y-99393435D01*
X124634897Y-98580635D02*
X124557488Y-98580635D01*
X124480078Y-98619340D01*
X124441373Y-98658045D01*
X124402669Y-98735454D01*
X124363964Y-98890273D01*
X124363964Y-99083797D01*
X124402669Y-99238616D01*
X124441373Y-99316026D01*
X124480078Y-99354730D01*
X124557488Y-99393435D01*
X124634897Y-99393435D01*
X124712307Y-99354730D01*
X124751011Y-99316026D01*
X124789716Y-99238616D01*
X124828421Y-99083797D01*
X124828421Y-98890273D01*
X124789716Y-98735454D01*
X124751011Y-98658045D01*
X124712307Y-98619340D01*
X124634897Y-98580635D01*
X125138059Y-112890995D02*
X125602516Y-112890995D01*
X125370287Y-112890995D02*
X125370287Y-112078195D01*
X125447697Y-112194310D01*
X125525106Y-112271719D01*
X125602516Y-112310424D01*
X124363964Y-112890995D02*
X124828421Y-112890995D01*
X124596192Y-112890995D02*
X124596192Y-112078195D01*
X124673602Y-112194310D01*
X124751011Y-112271719D01*
X124828421Y-112310424D01*
X134383659Y-112890995D02*
X134848116Y-112890995D01*
X134615887Y-112890995D02*
X134615887Y-112078195D01*
X134693297Y-112194310D01*
X134770706Y-112271719D01*
X134848116Y-112310424D01*
X133880497Y-112078195D02*
X133803088Y-112078195D01*
X133725678Y-112116900D01*
X133686973Y-112155605D01*
X133648269Y-112233014D01*
X133609564Y-112387833D01*
X133609564Y-112581357D01*
X133648269Y-112736176D01*
X133686973Y-112813586D01*
X133725678Y-112852290D01*
X133803088Y-112890995D01*
X133880497Y-112890995D01*
X133957907Y-112852290D01*
X133996611Y-112813586D01*
X134035316Y-112736176D01*
X134074021Y-112581357D01*
X134074021Y-112387833D01*
X134035316Y-112233014D01*
X133996611Y-112155605D01*
X133957907Y-112116900D01*
X133880497Y-112078195D01*
D14*
X130039533Y-83668447D02*
X130039533Y-84388113D01*
X129997200Y-84472780D01*
X129954867Y-84515113D01*
X129870200Y-84557447D01*
X129700867Y-84557447D01*
X129616200Y-84515113D01*
X129573867Y-84472780D01*
X129531533Y-84388113D01*
X129531533Y-83668447D01*
X129192867Y-83668447D02*
X128600200Y-83668447D01*
X128981200Y-84557447D01*
D15*
X125602516Y-81894045D02*
X125563811Y-81855340D01*
X125486402Y-81816635D01*
X125292878Y-81816635D01*
X125215468Y-81855340D01*
X125176764Y-81894045D01*
X125138059Y-81971454D01*
X125138059Y-82048864D01*
X125176764Y-82164978D01*
X125641221Y-82629435D01*
X125138059Y-82629435D01*
X124634897Y-81816635D02*
X124557488Y-81816635D01*
X124480078Y-81855340D01*
X124441373Y-81894045D01*
X124402669Y-81971454D01*
X124363964Y-82126273D01*
X124363964Y-82319797D01*
X124402669Y-82474616D01*
X124441373Y-82552026D01*
X124480078Y-82590730D01*
X124557488Y-82629435D01*
X124634897Y-82629435D01*
X124712307Y-82590730D01*
X124751011Y-82552026D01*
X124789716Y-82474616D01*
X124828421Y-82319797D01*
X124828421Y-82126273D01*
X124789716Y-81971454D01*
X124751011Y-81894045D01*
X124712307Y-81855340D01*
X124634897Y-81816635D01*
X125138059Y-96126995D02*
X125602516Y-96126995D01*
X125370287Y-96126995D02*
X125370287Y-95314195D01*
X125447697Y-95430310D01*
X125525106Y-95507719D01*
X125602516Y-95546424D01*
X124363964Y-96126995D02*
X124828421Y-96126995D01*
X124596192Y-96126995D02*
X124596192Y-95314195D01*
X124673602Y-95430310D01*
X124751011Y-95507719D01*
X124828421Y-95546424D01*
X134383659Y-96126995D02*
X134848116Y-96126995D01*
X134615887Y-96126995D02*
X134615887Y-95314195D01*
X134693297Y-95430310D01*
X134770706Y-95507719D01*
X134848116Y-95546424D01*
X133880497Y-95314195D02*
X133803088Y-95314195D01*
X133725678Y-95352900D01*
X133686973Y-95391605D01*
X133648269Y-95469014D01*
X133609564Y-95623833D01*
X133609564Y-95817357D01*
X133648269Y-95972176D01*
X133686973Y-96049586D01*
X133725678Y-96088290D01*
X133803088Y-96126995D01*
X133880497Y-96126995D01*
X133957907Y-96088290D01*
X133996611Y-96049586D01*
X134035316Y-95972176D01*
X134074021Y-95817357D01*
X134074021Y-95623833D01*
X134035316Y-95469014D01*
X133996611Y-95391605D01*
X133957907Y-95352900D01*
X133880497Y-95314195D01*
D14*
X130235113Y-67072087D02*
X130235113Y-67791753D01*
X130192780Y-67876420D01*
X130150447Y-67918753D01*
X130065780Y-67961087D01*
X129896447Y-67961087D01*
X129811780Y-67918753D01*
X129769447Y-67876420D01*
X129727113Y-67791753D01*
X129727113Y-67072087D01*
X128922780Y-67368420D02*
X128922780Y-67961087D01*
X129134447Y-67029753D02*
X129346114Y-67664753D01*
X128795780Y-67664753D01*
D15*
X125602516Y-65384045D02*
X125563811Y-65345340D01*
X125486402Y-65306635D01*
X125292878Y-65306635D01*
X125215468Y-65345340D01*
X125176764Y-65384045D01*
X125138059Y-65461454D01*
X125138059Y-65538864D01*
X125176764Y-65654978D01*
X125641221Y-66119435D01*
X125138059Y-66119435D01*
X124634897Y-65306635D02*
X124557488Y-65306635D01*
X124480078Y-65345340D01*
X124441373Y-65384045D01*
X124402669Y-65461454D01*
X124363964Y-65616273D01*
X124363964Y-65809797D01*
X124402669Y-65964616D01*
X124441373Y-66042026D01*
X124480078Y-66080730D01*
X124557488Y-66119435D01*
X124634897Y-66119435D01*
X124712307Y-66080730D01*
X124751011Y-66042026D01*
X124789716Y-65964616D01*
X124828421Y-65809797D01*
X124828421Y-65616273D01*
X124789716Y-65461454D01*
X124751011Y-65384045D01*
X124712307Y-65345340D01*
X124634897Y-65306635D01*
X125138059Y-79616995D02*
X125602516Y-79616995D01*
X125370287Y-79616995D02*
X125370287Y-78804195D01*
X125447697Y-78920310D01*
X125525106Y-78997719D01*
X125602516Y-79036424D01*
X124363964Y-79616995D02*
X124828421Y-79616995D01*
X124596192Y-79616995D02*
X124596192Y-78804195D01*
X124673602Y-78920310D01*
X124751011Y-78997719D01*
X124828421Y-79036424D01*
X134383659Y-79616995D02*
X134848116Y-79616995D01*
X134615887Y-79616995D02*
X134615887Y-78804195D01*
X134693297Y-78920310D01*
X134770706Y-78997719D01*
X134848116Y-79036424D01*
X133880497Y-78804195D02*
X133803088Y-78804195D01*
X133725678Y-78842900D01*
X133686973Y-78881605D01*
X133648269Y-78959014D01*
X133609564Y-79113833D01*
X133609564Y-79307357D01*
X133648269Y-79462176D01*
X133686973Y-79539586D01*
X133725678Y-79578290D01*
X133803088Y-79616995D01*
X133880497Y-79616995D01*
X133957907Y-79578290D01*
X133996611Y-79539586D01*
X134035316Y-79462176D01*
X134074021Y-79307357D01*
X134074021Y-79113833D01*
X134035316Y-78959014D01*
X133996611Y-78881605D01*
X133957907Y-78842900D01*
X133880497Y-78804195D01*
D14*
X130471333Y-50327167D02*
X130471333Y-51046833D01*
X130429000Y-51131500D01*
X130386667Y-51173833D01*
X130302000Y-51216167D01*
X130132667Y-51216167D01*
X130048000Y-51173833D01*
X130005667Y-51131500D01*
X129963333Y-51046833D01*
X129963333Y-50327167D01*
X129582334Y-50411833D02*
X129540000Y-50369500D01*
X129455334Y-50327167D01*
X129243667Y-50327167D01*
X129159000Y-50369500D01*
X129116667Y-50411833D01*
X129074334Y-50496500D01*
X129074334Y-50581167D01*
X129116667Y-50708167D01*
X129624667Y-51216167D01*
X129074334Y-51216167D01*
D15*
X125602516Y-48620045D02*
X125563811Y-48581340D01*
X125486402Y-48542635D01*
X125292878Y-48542635D01*
X125215468Y-48581340D01*
X125176764Y-48620045D01*
X125138059Y-48697454D01*
X125138059Y-48774864D01*
X125176764Y-48890978D01*
X125641221Y-49355435D01*
X125138059Y-49355435D01*
X124634897Y-48542635D02*
X124557488Y-48542635D01*
X124480078Y-48581340D01*
X124441373Y-48620045D01*
X124402669Y-48697454D01*
X124363964Y-48852273D01*
X124363964Y-49045797D01*
X124402669Y-49200616D01*
X124441373Y-49278026D01*
X124480078Y-49316730D01*
X124557488Y-49355435D01*
X124634897Y-49355435D01*
X124712307Y-49316730D01*
X124751011Y-49278026D01*
X124789716Y-49200616D01*
X124828421Y-49045797D01*
X124828421Y-48852273D01*
X124789716Y-48697454D01*
X124751011Y-48620045D01*
X124712307Y-48581340D01*
X124634897Y-48542635D01*
X125138059Y-62852995D02*
X125602516Y-62852995D01*
X125370287Y-62852995D02*
X125370287Y-62040195D01*
X125447697Y-62156310D01*
X125525106Y-62233719D01*
X125602516Y-62272424D01*
X124363964Y-62852995D02*
X124828421Y-62852995D01*
X124596192Y-62852995D02*
X124596192Y-62040195D01*
X124673602Y-62156310D01*
X124751011Y-62233719D01*
X124828421Y-62272424D01*
X134383659Y-62852995D02*
X134848116Y-62852995D01*
X134615887Y-62852995D02*
X134615887Y-62040195D01*
X134693297Y-62156310D01*
X134770706Y-62233719D01*
X134848116Y-62272424D01*
X133880497Y-62040195D02*
X133803088Y-62040195D01*
X133725678Y-62078900D01*
X133686973Y-62117605D01*
X133648269Y-62195014D01*
X133609564Y-62349833D01*
X133609564Y-62543357D01*
X133648269Y-62698176D01*
X133686973Y-62775586D01*
X133725678Y-62814290D01*
X133803088Y-62852995D01*
X133880497Y-62852995D01*
X133957907Y-62814290D01*
X133996611Y-62775586D01*
X134035316Y-62698176D01*
X134074021Y-62543357D01*
X134074021Y-62349833D01*
X134035316Y-62195014D01*
X133996611Y-62117605D01*
X133957907Y-62078900D01*
X133880497Y-62040195D01*
D14*
X122957167Y-122674834D02*
X123676833Y-122674834D01*
X123761500Y-122717167D01*
X123803833Y-122759500D01*
X123846167Y-122844167D01*
X123846167Y-123013500D01*
X123803833Y-123098167D01*
X123761500Y-123140500D01*
X123676833Y-123182834D01*
X122957167Y-123182834D01*
X123803833Y-123563833D02*
X123846167Y-123690833D01*
X123846167Y-123902500D01*
X123803833Y-123987167D01*
X123761500Y-124029500D01*
X123676833Y-124071833D01*
X123592167Y-124071833D01*
X123507500Y-124029500D01*
X123465167Y-123987167D01*
X123422833Y-123902500D01*
X123380500Y-123733167D01*
X123338167Y-123648500D01*
X123295833Y-123606167D01*
X123211167Y-123563833D01*
X123126500Y-123563833D01*
X123041833Y-123606167D01*
X122999500Y-123648500D01*
X122957167Y-123733167D01*
X122957167Y-123944833D01*
X122999500Y-124071833D01*
X123380500Y-124749167D02*
X123422833Y-124876167D01*
X123465167Y-124918500D01*
X123549833Y-124960834D01*
X123676833Y-124960834D01*
X123761500Y-124918500D01*
X123803833Y-124876167D01*
X123846167Y-124791500D01*
X123846167Y-124452834D01*
X122957167Y-124452834D01*
X122957167Y-124749167D01*
X122999500Y-124833834D01*
X123041833Y-124876167D01*
X123126500Y-124918500D01*
X123211167Y-124918500D01*
X123295833Y-124876167D01*
X123338167Y-124833834D01*
X123380500Y-124749167D01*
X123380500Y-124452834D01*
X123846167Y-125807500D02*
X123846167Y-125299500D01*
X123846167Y-125553500D02*
X122957167Y-125553500D01*
X123084167Y-125468834D01*
X123168833Y-125384167D01*
X123211167Y-125299500D01*
D16*
X163321904Y-124990000D02*
X163417142Y-124942381D01*
X163559999Y-124942381D01*
X163702857Y-124990000D01*
X163798095Y-125085238D01*
X163845714Y-125180476D01*
X163893333Y-125370952D01*
X163893333Y-125513810D01*
X163845714Y-125704286D01*
X163798095Y-125799524D01*
X163702857Y-125894762D01*
X163559999Y-125942381D01*
X163464761Y-125942381D01*
X163321904Y-125894762D01*
X163274285Y-125847143D01*
X163274285Y-125513810D01*
X163464761Y-125513810D01*
X162845714Y-125942381D02*
X162845714Y-124942381D01*
X162274285Y-125942381D01*
X162274285Y-124942381D01*
X161798095Y-125942381D02*
X161798095Y-124942381D01*
X161560000Y-124942381D01*
X161417142Y-124990000D01*
X161321904Y-125085238D01*
X161274285Y-125180476D01*
X161226666Y-125370952D01*
X161226666Y-125513810D01*
X161274285Y-125704286D01*
X161321904Y-125799524D01*
X161417142Y-125894762D01*
X161560000Y-125942381D01*
X161798095Y-125942381D01*
X163845714Y-123354762D02*
X163702857Y-123402381D01*
X163464761Y-123402381D01*
X163369523Y-123354762D01*
X163321904Y-123307143D01*
X163274285Y-123211905D01*
X163274285Y-123116667D01*
X163321904Y-123021429D01*
X163369523Y-122973810D01*
X163464761Y-122926190D01*
X163655238Y-122878571D01*
X163750476Y-122830952D01*
X163798095Y-122783333D01*
X163845714Y-122688095D01*
X163845714Y-122592857D01*
X163798095Y-122497619D01*
X163750476Y-122450000D01*
X163655238Y-122402381D01*
X163417142Y-122402381D01*
X163274285Y-122450000D01*
X162274285Y-123307143D02*
X162321904Y-123354762D01*
X162464761Y-123402381D01*
X162559999Y-123402381D01*
X162702857Y-123354762D01*
X162798095Y-123259524D01*
X162845714Y-123164286D01*
X162893333Y-122973810D01*
X162893333Y-122830952D01*
X162845714Y-122640476D01*
X162798095Y-122545238D01*
X162702857Y-122450000D01*
X162559999Y-122402381D01*
X162464761Y-122402381D01*
X162321904Y-122450000D01*
X162274285Y-122497619D01*
X161845714Y-123402381D02*
X161845714Y-122402381D01*
X161274285Y-123402381D02*
X161702857Y-122830952D01*
X161274285Y-122402381D02*
X161845714Y-122973810D01*
X163877428Y-120862381D02*
X163877428Y-119862381D01*
X163544094Y-120576667D01*
X163210761Y-119862381D01*
X163210761Y-120862381D01*
X162734571Y-120862381D02*
X162734571Y-119862381D01*
X162306000Y-120814762D02*
X162163143Y-120862381D01*
X161925047Y-120862381D01*
X161829809Y-120814762D01*
X161782190Y-120767143D01*
X161734571Y-120671905D01*
X161734571Y-120576667D01*
X161782190Y-120481429D01*
X161829809Y-120433810D01*
X161925047Y-120386190D01*
X162115524Y-120338571D01*
X162210762Y-120290952D01*
X162258381Y-120243333D01*
X162306000Y-120148095D01*
X162306000Y-120052857D01*
X162258381Y-119957619D01*
X162210762Y-119910000D01*
X162115524Y-119862381D01*
X161877428Y-119862381D01*
X161734571Y-119910000D01*
X161115524Y-119862381D02*
X160925047Y-119862381D01*
X160829809Y-119910000D01*
X160734571Y-120005238D01*
X160686952Y-120195714D01*
X160686952Y-120529048D01*
X160734571Y-120719524D01*
X160829809Y-120814762D01*
X160925047Y-120862381D01*
X161115524Y-120862381D01*
X161210762Y-120814762D01*
X161306000Y-120719524D01*
X161353619Y-120529048D01*
X161353619Y-120195714D01*
X161306000Y-120005238D01*
X161210762Y-119910000D01*
X161115524Y-119862381D01*
X163877428Y-118322381D02*
X163877428Y-117322381D01*
X163544094Y-118036667D01*
X163210761Y-117322381D01*
X163210761Y-118322381D01*
X162544095Y-117322381D02*
X162353618Y-117322381D01*
X162258380Y-117370000D01*
X162163142Y-117465238D01*
X162115523Y-117655714D01*
X162115523Y-117989048D01*
X162163142Y-118179524D01*
X162258380Y-118274762D01*
X162353618Y-118322381D01*
X162544095Y-118322381D01*
X162639333Y-118274762D01*
X162734571Y-118179524D01*
X162782190Y-117989048D01*
X162782190Y-117655714D01*
X162734571Y-117465238D01*
X162639333Y-117370000D01*
X162544095Y-117322381D01*
X161734571Y-118274762D02*
X161591714Y-118322381D01*
X161353618Y-118322381D01*
X161258380Y-118274762D01*
X161210761Y-118227143D01*
X161163142Y-118131905D01*
X161163142Y-118036667D01*
X161210761Y-117941429D01*
X161258380Y-117893810D01*
X161353618Y-117846190D01*
X161544095Y-117798571D01*
X161639333Y-117750952D01*
X161686952Y-117703333D01*
X161734571Y-117608095D01*
X161734571Y-117512857D01*
X161686952Y-117417619D01*
X161639333Y-117370000D01*
X161544095Y-117322381D01*
X161305999Y-117322381D01*
X161163142Y-117370000D01*
X160734571Y-118322381D02*
X160734571Y-117322381D01*
X163377381Y-115782381D02*
X163710715Y-115306190D01*
X163948810Y-115782381D02*
X163948810Y-114782381D01*
X163567857Y-114782381D01*
X163472619Y-114830000D01*
X163425000Y-114877619D01*
X163377381Y-114972857D01*
X163377381Y-115115714D01*
X163425000Y-115210952D01*
X163472619Y-115258571D01*
X163567857Y-115306190D01*
X163948810Y-115306190D01*
X162948810Y-115258571D02*
X162615476Y-115258571D01*
X162472619Y-115782381D02*
X162948810Y-115782381D01*
X162948810Y-114782381D01*
X162472619Y-114782381D01*
X162091667Y-115734762D02*
X161948810Y-115782381D01*
X161710714Y-115782381D01*
X161615476Y-115734762D01*
X161567857Y-115687143D01*
X161520238Y-115591905D01*
X161520238Y-115496667D01*
X161567857Y-115401429D01*
X161615476Y-115353810D01*
X161710714Y-115306190D01*
X161901191Y-115258571D01*
X161996429Y-115210952D01*
X162044048Y-115163333D01*
X162091667Y-115068095D01*
X162091667Y-114972857D01*
X162044048Y-114877619D01*
X161996429Y-114830000D01*
X161901191Y-114782381D01*
X161663095Y-114782381D01*
X161520238Y-114830000D01*
X161091667Y-115258571D02*
X160758333Y-115258571D01*
X160615476Y-115782381D02*
X161091667Y-115782381D01*
X161091667Y-114782381D01*
X160615476Y-114782381D01*
X160329762Y-114782381D02*
X159758333Y-114782381D01*
X160044048Y-115782381D02*
X160044048Y-114782381D01*
X163893333Y-112242381D02*
X163560000Y-113242381D01*
X163226666Y-112242381D01*
X162321904Y-113147143D02*
X162369523Y-113194762D01*
X162512380Y-113242381D01*
X162607618Y-113242381D01*
X162750476Y-113194762D01*
X162845714Y-113099524D01*
X162893333Y-113004286D01*
X162940952Y-112813810D01*
X162940952Y-112670952D01*
X162893333Y-112480476D01*
X162845714Y-112385238D01*
X162750476Y-112290000D01*
X162607618Y-112242381D01*
X162512380Y-112242381D01*
X162369523Y-112290000D01*
X162321904Y-112337619D01*
X161321904Y-113147143D02*
X161369523Y-113194762D01*
X161512380Y-113242381D01*
X161607618Y-113242381D01*
X161750476Y-113194762D01*
X161845714Y-113099524D01*
X161893333Y-113004286D01*
X161940952Y-112813810D01*
X161940952Y-112670952D01*
X161893333Y-112480476D01*
X161845714Y-112385238D01*
X161750476Y-112290000D01*
X161607618Y-112242381D01*
X161512380Y-112242381D01*
X161369523Y-112290000D01*
X161321904Y-112337619D01*
D17*
X151586695Y-132234471D02*
X151586695Y-133043995D01*
X151539076Y-133139233D01*
X151491457Y-133186852D01*
X151396219Y-133234471D01*
X151205742Y-133234471D01*
X151110504Y-133186852D01*
X151062885Y-133139233D01*
X151015266Y-133043995D01*
X151015266Y-132234471D01*
X150062885Y-132234471D02*
X150539076Y-132234471D01*
X150586695Y-132710661D01*
X150539076Y-132663042D01*
X150443838Y-132615423D01*
X150205742Y-132615423D01*
X150110504Y-132663042D01*
X150062885Y-132710661D01*
X150015266Y-132805900D01*
X150015266Y-133043995D01*
X150062885Y-133139233D01*
X150110504Y-133186852D01*
X150205742Y-133234471D01*
X150443838Y-133234471D01*
X150539076Y-133186852D01*
X150586695Y-133139233D01*
%LPC*%
D18*
X149284790Y-130797090D02*
X148884790Y-130797090D01*
X149284790Y-130297090D02*
X148884790Y-130297090D01*
X149284790Y-129797091D02*
X148884790Y-129797091D01*
X149284790Y-129297091D02*
X148884790Y-129297091D01*
X149284790Y-128797091D02*
X148884790Y-128797091D01*
X149284790Y-128297091D02*
X148884790Y-128297091D01*
X149284790Y-127797090D02*
X148884790Y-127797090D01*
X149284790Y-127297090D02*
X148884790Y-127297090D01*
X149634790Y-126947090D02*
X149634790Y-126547090D01*
X150134790Y-126947090D02*
X150134790Y-126547090D01*
X150634791Y-126947090D02*
X150634791Y-126547090D01*
X151134791Y-126947090D02*
X151134791Y-126547090D01*
X151634791Y-126947090D02*
X151634791Y-126547090D01*
X152134791Y-126947090D02*
X152134791Y-126547090D01*
X152634790Y-126947090D02*
X152634790Y-126547090D01*
X153134790Y-126947090D02*
X153134790Y-126547090D01*
X153484790Y-127297090D02*
X153884790Y-127297090D01*
X153484790Y-127797090D02*
X153884790Y-127797090D01*
X153484790Y-128297091D02*
X153884790Y-128297091D01*
X153484790Y-128797091D02*
X153884790Y-128797091D01*
X153484790Y-129297091D02*
X153884790Y-129297091D01*
X153484790Y-129797091D02*
X153884790Y-129797091D01*
X153484790Y-130297090D02*
X153884790Y-130297090D01*
X153484790Y-130797090D02*
X153884790Y-130797090D01*
X153134790Y-131147090D02*
X153134790Y-131547090D01*
X152634790Y-131147090D02*
X152634790Y-131547090D01*
X152134791Y-131147090D02*
X152134791Y-131547090D01*
X151634791Y-131147090D02*
X151634791Y-131547090D01*
X151134791Y-131147090D02*
X151134791Y-131547090D01*
X150634791Y-131147090D02*
X150634791Y-131547090D01*
X150134790Y-131147090D02*
X150134790Y-131547090D01*
X149634790Y-131147090D02*
X149634790Y-131547090D01*
D19*
X156972000Y-133491000D03*
X156972000Y-131713000D03*
D20*
X152654000Y-134634000D03*
X152654000Y-136158000D03*
D21*
X144018000Y-133237000D03*
X144018000Y-128919000D03*
D20*
X138684000Y-132348000D03*
X140208000Y-132348000D03*
X138684000Y-129808000D03*
X140208000Y-129808000D03*
D19*
X152908000Y-122061000D03*
X152908000Y-120283000D03*
X149606000Y-122061000D03*
X149606000Y-120283000D03*
X146304000Y-122061000D03*
X146304000Y-120283000D03*
X143002000Y-122061000D03*
X143002000Y-120283000D03*
X139700000Y-122061000D03*
X139700000Y-120283000D03*
X136398000Y-122061000D03*
X136398000Y-120283000D03*
X133096000Y-122061000D03*
X133096000Y-120283000D03*
D22*
X163000000Y-135000000D03*
X163000000Y-48000000D03*
X121000000Y-48000000D03*
X121000000Y-135000000D03*
D19*
X129794000Y-122061000D03*
X129794000Y-120283000D03*
D23*
X125476000Y-120156000D03*
X122936000Y-120156000D03*
D24*
X126809500Y-126506000D03*
X127698500Y-126506000D03*
X126809500Y-128792000D03*
X127698500Y-128792000D03*
D25*
X124841000Y-131078000D03*
X127635000Y-131078000D03*
D26*
X134716520Y-100217000D03*
X134716520Y-101487000D03*
X134716520Y-102757000D03*
X134716520Y-104027000D03*
X134716520Y-105297000D03*
X134716520Y-106567000D03*
X134716520Y-107837000D03*
X134716520Y-109107000D03*
X134716520Y-110377000D03*
X134716520Y-111647000D03*
X124871480Y-111647000D03*
X124871480Y-110377000D03*
X124871480Y-109107000D03*
X124871480Y-107837000D03*
X124871480Y-106567000D03*
X124871480Y-105297000D03*
X124871480Y-104027000D03*
X124871480Y-102757000D03*
X124871480Y-101487000D03*
X124871480Y-100217000D03*
X134716520Y-83453000D03*
X134716520Y-84723000D03*
X134716520Y-85993000D03*
X134716520Y-87263000D03*
X134716520Y-88533000D03*
X134716520Y-89803000D03*
X134716520Y-91073000D03*
X134716520Y-92343000D03*
X134716520Y-93613000D03*
X134716520Y-94883000D03*
X124871480Y-94883000D03*
X124871480Y-93613000D03*
X124871480Y-92343000D03*
X124871480Y-91073000D03*
X124871480Y-89803000D03*
X124871480Y-88533000D03*
X124871480Y-87263000D03*
X124871480Y-85993000D03*
X124871480Y-84723000D03*
X124871480Y-83453000D03*
X134716520Y-66943000D03*
X134716520Y-68213000D03*
X134716520Y-69483000D03*
X134716520Y-70753000D03*
X134716520Y-72023000D03*
X134716520Y-73293000D03*
X134716520Y-74563000D03*
X134716520Y-75833000D03*
X134716520Y-77103000D03*
X134716520Y-78373000D03*
X124871480Y-78373000D03*
X124871480Y-77103000D03*
X124871480Y-75833000D03*
X124871480Y-74563000D03*
X124871480Y-73293000D03*
X124871480Y-72023000D03*
X124871480Y-70753000D03*
X124871480Y-69483000D03*
X124871480Y-68213000D03*
X124871480Y-66943000D03*
X134716520Y-50179000D03*
X134716520Y-51449000D03*
X134716520Y-52719000D03*
X134716520Y-53989000D03*
X134716520Y-55259000D03*
X134716520Y-56529000D03*
X134716520Y-57799000D03*
X134716520Y-59069000D03*
X134716520Y-60339000D03*
X134716520Y-61609000D03*
X124871480Y-61609000D03*
X124871480Y-60339000D03*
X124871480Y-59069000D03*
X124871480Y-57799000D03*
X124871480Y-56529000D03*
X124871480Y-55259000D03*
X124871480Y-53989000D03*
X124871480Y-52719000D03*
X124871480Y-51449000D03*
X124871480Y-50179000D03*
D27*
X121671080Y-127803940D03*
X121671080Y-127153700D03*
X121671080Y-126506000D03*
X121671080Y-125858300D03*
X121671080Y-125208060D03*
D28*
X121493280Y-129904520D03*
D29*
X119245380Y-129805460D03*
D30*
X119245380Y-127704880D03*
X119245380Y-125307120D03*
D29*
X119245380Y-123206540D03*
D28*
X121493280Y-123107480D03*
D31*
X165100000Y-112790000D03*
X165100000Y-115330000D03*
X165100000Y-117870000D03*
X165100000Y-120410000D03*
X165100000Y-122950000D03*
X165100000Y-125490000D03*
D32*
X165100000Y-106440000D03*
X165100000Y-108980000D03*
X165100000Y-103900000D03*
X165100000Y-101360000D03*
X165100000Y-98820000D03*
X165100000Y-96280000D03*
X165100000Y-93740000D03*
X165100000Y-91200000D03*
X165100000Y-88660000D03*
X165100000Y-86120000D03*
D33*
X149084000Y-130796000D03*
X149084000Y-130296000D03*
X149084000Y-129796000D03*
X149084000Y-129296000D03*
X149084000Y-128796000D03*
X149084000Y-128296000D03*
X149084000Y-127796000D03*
X149084000Y-127296000D03*
D34*
X149634000Y-126746000D03*
X150134000Y-126746000D03*
X150634000Y-126746000D03*
X151134000Y-126746000D03*
X151634000Y-126746000D03*
X152134000Y-126746000D03*
X152634000Y-126746000D03*
X153134000Y-126746000D03*
D33*
X153684000Y-127296000D03*
X153684000Y-127796000D03*
X153684000Y-128296000D03*
X153684000Y-128796000D03*
X153684000Y-129296000D03*
X153684000Y-129796000D03*
X153684000Y-130296000D03*
X153684000Y-130796000D03*
D34*
X153134000Y-131346000D03*
X152634000Y-131346000D03*
X152134000Y-131346000D03*
X151634000Y-131346000D03*
X151134000Y-131346000D03*
X150634000Y-131346000D03*
X150134000Y-131346000D03*
X149634000Y-131346000D03*
D35*
X151384000Y-129046000D03*
M02*
